<svg xmlns="http://www.w3.org/2000/svg" width="908" height="82" viewBox="0 0 908 82">
  <defs>
    <style>
      .cls-1 {
        fill-rule: evenodd;
      }
    </style>
  </defs>
  <path class="cls-1" d="M2.019,0.6l-0.279.028A1.915,1.915,0,0,0,.02,2.8,1.908,1.908,0,0,0,2.141,4.553l0.279-.028A1.908,1.908,0,0,0,4.143,2.379,1.915,1.915,0,0,0,2.019.6ZM3.06,7.562L2.8,7.655A1.914,1.914,0,0,0,1.632,10.17,1.907,1.907,0,0,0,4.1,11.379l0.264-.093A1.907,1.907,0,0,0,5.541,8.8,1.914,1.914,0,0,0,3.06,7.562ZM5.705,13.87l-0.22.173A1.915,1.915,0,0,0,5.194,16.8a1.908,1.908,0,0,0,2.731.347l0.22-.173a1.908,1.908,0,0,0,.308-2.735A1.915,1.915,0,0,0,5.705,13.87Zm4.551,4.9-0.132.247a1.974,1.974,0,0,0,3.481,1.861l0.132-.247A1.974,1.974,0,0,0,10.256,18.765Zm6.229,2.669-0.037.277a1.975,1.975,0,0,0,3.913.527l0.037-.277A1.975,1.975,0,0,0,16.485,21.435Zm7.241,0.494v0.28a1.974,1.974,0,0,0,3.948,0v-0.28A1.974,1.974,0,0,0,23.727,21.928Zm7.513,0v0.28a1.974,1.974,0,0,0,3.948,0v-0.28A1.974,1.974,0,0,0,31.24,21.928Zm7.558,0v0.28a1.974,1.974,0,0,0,3.948,0v-0.28A1.974,1.974,0,0,0,38.8,21.928Zm7.517,0v0.28a1.974,1.974,0,0,0,3.948,0v-0.28A1.974,1.974,0,0,0,46.315,21.928Zm7.542,0v0.28a1.974,1.974,0,0,0,3.948,0v-0.28A1.974,1.974,0,0,0,53.857,21.928Zm7.509,0v0.28a1.974,1.974,0,0,0,3.948,0v-0.28A1.974,1.974,0,0,0,61.366,21.928Zm7.542,0v0.28a1.974,1.974,0,0,0,3.948,0v-0.28A1.974,1.974,0,0,0,68.908,21.928Zm7.548,0v0.28a1.974,1.974,0,0,0,3.948,0v-0.28A1.974,1.974,0,0,0,76.456,21.928Zm7.53,0v0.28a1.974,1.974,0,0,0,3.948,0v-0.28A1.974,1.974,0,0,0,83.986,21.928Zm7.515,0v0.28a1.974,1.974,0,0,0,3.948,0v-0.28A1.974,1.974,0,0,0,91.5,21.928Zm7.528,0v0.28a1.975,1.975,0,0,0,3.948,0v-0.28A1.975,1.975,0,0,0,99.029,21.928Zm7.54,0v0.28a1.974,1.974,0,0,0,3.948,0v-0.28A1.974,1.974,0,0,0,106.569,21.928Zm7.536,0v0.28a1.974,1.974,0,0,0,3.948,0v-0.28A1.974,1.974,0,0,0,114.105,21.928Zm7.524,0v0.28a1.974,1.974,0,0,0,3.948,0v-0.28A1.974,1.974,0,0,0,121.629,21.928Zm7.534,0v0.28a1.974,1.974,0,0,0,3.948,0v-0.28A1.974,1.974,0,0,0,129.163,21.928Zm7.52,0v0.28a1.974,1.974,0,0,0,3.948,0v-0.28A1.974,1.974,0,0,0,136.683,21.928Zm7.541,0v0.28a1.974,1.974,0,0,0,3.948,0v-0.28A1.974,1.974,0,0,0,144.224,21.928Zm7.543,0v0.28a1.974,1.974,0,0,0,3.948,0v-0.28A1.974,1.974,0,0,0,151.767,21.928Zm7.529,0v0.28a1.974,1.974,0,0,0,3.948,0v-0.28A1.974,1.974,0,0,0,159.3,21.928Zm7.531,0v0.28a1.974,1.974,0,0,0,3.948,0v-0.28A1.974,1.974,0,0,0,166.827,21.928Zm7.518,0v0.28a1.974,1.974,0,0,0,3.948,0v-0.28A1.974,1.974,0,0,0,174.345,21.928Zm7.555,0v0.28a1.974,1.974,0,0,0,3.948,0v-0.28A1.974,1.974,0,0,0,181.9,21.928Zm7.522,0v0.28a1.974,1.974,0,0,0,3.948,0v-0.28A1.974,1.974,0,0,0,189.422,21.928Zm7.54,0v0.28a1.974,1.974,0,0,0,3.948,0v-0.28A1.974,1.974,0,0,0,196.962,21.928Zm7.518,0v0.28a1.974,1.974,0,0,0,3.948,0v-0.28A1.974,1.974,0,0,0,204.48,21.928Zm7.537,0v0.28a1.974,1.974,0,0,0,3.948,0v-0.28A1.974,1.974,0,0,0,212.017,21.928Zm7.533,0v0.28a1.974,1.974,0,0,0,3.948,0v-0.28A1.974,1.974,0,0,0,219.55,21.928Zm7.538,0v0.28a1.974,1.974,0,0,0,3.948,0v-0.28A1.974,1.974,0,0,0,227.088,21.928Zm7.521,0v0.28a1.974,1.974,0,0,0,3.948,0v-0.28A1.974,1.974,0,0,0,234.609,21.928Zm7.531,0v0.28a1.974,1.974,0,0,0,3.948,0v-0.28A1.974,1.974,0,0,0,242.14,21.928Zm7.537,0v0.28a1.974,1.974,0,0,0,3.948,0v-0.28A1.974,1.974,0,0,0,249.677,21.928Zm7.537,0v0.28a1.974,1.974,0,0,0,3.948,0v-0.28A1.974,1.974,0,0,0,257.214,21.928Zm7.534,0v0.28a1.974,1.974,0,0,0,3.948,0v-0.28A1.974,1.974,0,0,0,264.748,21.928Zm7.524,0v0.28a1.974,1.974,0,0,0,3.948,0v-0.28A1.974,1.974,0,0,0,272.272,21.928Zm7.53,0v0.28a1.974,1.974,0,0,0,3.948,0v-0.28A1.974,1.974,0,0,0,279.8,21.928Zm7.549,0v0.28a1.974,1.974,0,0,0,3.948,0v-0.28A1.974,1.974,0,0,0,287.351,21.928Zm7.511,0v0.28a1.974,1.974,0,0,0,3.948,0v-0.28A1.974,1.974,0,0,0,294.862,21.928Zm7.541,0v0.28a1.974,1.974,0,0,0,3.948,0v-0.28A1.974,1.974,0,0,0,302.4,21.928Zm7.531,0v0.28a1.974,1.974,0,0,0,3.948,0v-0.28A1.974,1.974,0,0,0,309.934,21.928Zm7.519,0v0.28a1.974,1.974,0,0,0,3.948,0v-0.28A1.974,1.974,0,0,0,317.453,21.928Zm7.541,0v0.28a1.974,1.974,0,0,0,3.948,0v-0.28A1.974,1.974,0,0,0,324.994,21.928Zm7.54,0v0.28a1.974,1.974,0,0,0,3.948,0v-0.28A1.974,1.974,0,0,0,332.534,21.928Zm7.538,0v0.28a1.974,1.974,0,0,0,3.948,0v-0.28A1.974,1.974,0,0,0,340.072,21.928Zm7.532,0v0.28a1.974,1.974,0,0,0,3.948,0v-0.28A1.974,1.974,0,0,0,347.6,21.928Zm7.524,0v0.28a1.974,1.974,0,0,0,3.948,0v-0.28A1.974,1.974,0,0,0,355.128,21.928Zm7.514,0v0.28a1.974,1.974,0,0,0,3.947,0v-0.28A1.974,1.974,0,0,0,362.642,21.928Zm7.538,0v0.28a1.974,1.974,0,0,0,3.948,0v-0.28A1.974,1.974,0,0,0,370.18,21.928Zm7.541,0v0.28a1.974,1.974,0,0,0,3.948,0v-0.28A1.974,1.974,0,0,0,377.721,21.928Zm7.524,0v0.28a1.974,1.974,0,0,0,3.948,0v-0.28A1.974,1.974,0,0,0,385.245,21.928Zm7.542,0v0.28a1.974,1.974,0,0,0,3.948,0v-0.28A1.974,1.974,0,0,0,392.787,21.928Zm30.133,0v0.28a1.974,1.974,0,0,0,3.948,0v-0.28A1.974,1.974,0,0,0,422.92,21.928Zm7.523,0v0.28a1.974,1.974,0,0,0,3.948,0v-0.28A1.974,1.974,0,0,0,430.443,21.928Zm7.529,0v0.28a1.974,1.974,0,0,0,3.948,0v-0.28A1.974,1.974,0,0,0,437.972,21.928Zm7.532,0v0.28a1.974,1.974,0,0,0,3.948,0v-0.28A1.974,1.974,0,0,0,445.5,21.928Zm7.534,0v0.28a1.974,1.974,0,0,0,3.948,0v-0.28A1.974,1.974,0,0,0,453.038,21.928Zm7.533,0v0.28a1.974,1.974,0,0,0,3.948,0v-0.28A1.974,1.974,0,0,0,460.571,21.928Zm7.531,0v0.28a1.974,1.974,0,0,0,3.948,0v-0.28A1.974,1.974,0,0,0,468.1,21.928Zm7.545,0v0.28a1.974,1.974,0,0,0,3.948,0v-0.28A1.974,1.974,0,0,0,475.647,21.928Zm7.519,0v0.28a1.974,1.974,0,0,0,3.948,0v-0.28A1.974,1.974,0,0,0,483.166,21.928Zm7.53,0v0.28a1.974,1.974,0,0,0,3.948,0v-0.28A1.974,1.974,0,0,0,490.7,21.928Zm7.538,0v0.28a1.974,1.974,0,0,0,3.948,0v-0.28A1.974,1.974,0,0,0,498.234,21.928Zm7.525,0v0.28a1.974,1.974,0,0,0,3.948,0v-0.28A1.974,1.974,0,0,0,505.759,21.928Zm7.549,0v0.28a1.974,1.974,0,0,0,3.948,0v-0.28A1.974,1.974,0,0,0,513.308,21.928Zm7.512,0v0.28a1.974,1.974,0,0,0,3.948,0v-0.28A1.974,1.974,0,0,0,520.82,21.928Zm7.531,0v0.28a1.974,1.974,0,0,0,3.948,0v-0.28A1.974,1.974,0,0,0,528.351,21.928Zm7.547,0v0.28a1.974,1.974,0,0,0,3.948,0v-0.28A1.974,1.974,0,0,0,535.9,21.928Zm7.524,0v0.28a1.974,1.974,0,0,0,3.948,0v-0.28A1.974,1.974,0,0,0,543.422,21.928Zm7.535,0v0.28a1.974,1.974,0,0,0,3.948,0v-0.28A1.974,1.974,0,0,0,550.957,21.928Zm7.526,0v0.28a1.974,1.974,0,0,0,3.948,0v-0.28A1.974,1.974,0,0,0,558.483,21.928Zm7.532,0v0.28a1.974,1.974,0,0,0,3.948,0v-0.28A1.974,1.974,0,0,0,566.015,21.928Zm7.536,0v0.28a1.974,1.974,0,0,0,3.948,0v-0.28A1.974,1.974,0,0,0,573.551,21.928Zm7.537,0v0.28a1.974,1.974,0,0,0,3.948,0v-0.28A1.974,1.974,0,0,0,581.088,21.928Zm7.516,0v0.28a1.974,1.974,0,0,0,3.948,0v-0.28A1.974,1.974,0,0,0,588.6,21.928Zm7.55,0v0.28a1.974,1.974,0,0,0,3.948,0v-0.28A1.974,1.974,0,0,0,596.154,21.928Zm7.523,0v0.28a1.974,1.974,0,0,0,3.948,0v-0.28A1.974,1.974,0,0,0,603.677,21.928Zm7.53,0v0.28a1.974,1.974,0,0,0,3.948,0v-0.28A1.974,1.974,0,0,0,611.207,21.928Zm7.534,0v0.28a1.974,1.974,0,0,0,3.948,0v-0.28A1.974,1.974,0,0,0,618.741,21.928Zm7.534,0v0.28a1.974,1.974,0,0,0,3.948,0v-0.28A1.974,1.974,0,0,0,626.275,21.928Zm7.531,0v0.28a1.974,1.974,0,0,0,3.948,0v-0.28A1.974,1.974,0,0,0,633.806,21.928Zm7.541,0v0.28a1.974,1.974,0,0,0,3.948,0v-0.28A1.974,1.974,0,0,0,641.347,21.928Zm7.529,0v0.28a1.974,1.974,0,0,0,3.948,0v-0.28A1.974,1.974,0,0,0,648.876,21.928Zm7.531,0v0.28a1.974,1.974,0,0,0,3.948,0v-0.28A1.974,1.974,0,0,0,656.407,21.928Zm7.527,0v0.28a1.974,1.974,0,0,0,3.948,0v-0.28A1.974,1.974,0,0,0,663.934,21.928Zm7.519,0v0.28a1.974,1.974,0,0,0,3.948,0v-0.28A1.974,1.974,0,0,0,671.453,21.928Zm7.539,0v0.28a1.974,1.974,0,0,0,3.948,0v-0.28A1.974,1.974,0,0,0,678.992,21.928Zm7.536,0v0.28a1.974,1.974,0,0,0,3.948,0v-0.28A1.974,1.974,0,0,0,686.528,21.928Zm7.542,0v0.28a1.974,1.974,0,0,0,3.948,0v-0.28A1.974,1.974,0,0,0,694.07,21.928Zm7.527,0v0.28a1.974,1.974,0,0,0,3.948,0v-0.28A1.974,1.974,0,0,0,701.6,21.928Zm7.52,0v0.28a1.974,1.974,0,0,0,3.948,0v-0.28A1.974,1.974,0,0,0,709.117,21.928Zm7.536,0v0.28a1.974,1.974,0,0,0,3.948,0v-0.28A1.974,1.974,0,0,0,716.653,21.928Zm7.543,0v0.28a1.974,1.974,0,0,0,3.948,0v-0.28A1.974,1.974,0,0,0,724.2,21.928Zm7.51,0v0.28a1.974,1.974,0,0,0,3.948,0v-0.28A1.974,1.974,0,0,0,731.706,21.928Zm7.557,0v0.28a1.974,1.974,0,0,0,3.948,0v-0.28A1.974,1.974,0,0,0,739.263,21.928Zm7.531,0v0.28a1.974,1.974,0,0,0,3.948,0v-0.28A1.974,1.974,0,0,0,746.794,21.928Zm7.522,0v0.28a1.974,1.974,0,0,0,3.948,0v-0.28A1.974,1.974,0,0,0,754.316,21.928Zm7.527,0v0.28a1.974,1.974,0,0,0,3.948,0v-0.28A1.974,1.974,0,0,0,761.843,21.928Zm7.542,0v0.28a1.974,1.974,0,0,0,3.948,0v-0.28A1.974,1.974,0,0,0,769.385,21.928Zm7.537,0v0.28a1.974,1.974,0,0,0,3.948,0v-0.28A1.974,1.974,0,0,0,776.922,21.928Zm7.536,0v0.28a1.974,1.974,0,0,0,3.948,0v-0.28A1.974,1.974,0,0,0,784.458,21.928Zm7.51,0v0.28a1.974,1.974,0,0,0,3.948,0v-0.28A1.974,1.974,0,0,0,791.968,21.928Zm7.553,0v0.28a1.974,1.974,0,0,0,3.948,0v-0.28A1.974,1.974,0,0,0,799.521,21.928Zm7.509,0v0.28a1.974,1.974,0,0,0,3.948,0v-0.28A1.974,1.974,0,0,0,807.03,21.928Zm7.541,0v0.28a1.974,1.974,0,0,0,3.948,0v-0.28A1.974,1.974,0,0,0,814.571,21.928Zm7.536,0v0.28a1.974,1.974,0,0,0,3.948,0v-0.28A1.974,1.974,0,0,0,822.107,21.928Zm7.527,0v0.28a1.974,1.974,0,0,0,3.948,0v-0.28A1.974,1.974,0,0,0,829.634,21.928Zm7.528,0v0.28a1.974,1.974,0,0,0,3.948,0v-0.28A1.974,1.974,0,0,0,837.162,21.928Zm7.522,0v0.28a1.974,1.974,0,0,0,3.948,0v-0.28A1.974,1.974,0,0,0,844.684,21.928Zm7.548,0v0.28a1.974,1.974,0,0,0,3.948,0v-0.28A1.974,1.974,0,0,0,852.232,21.928Zm7.527,0v0.28a1.974,1.974,0,0,0,3.948,0v-0.28A1.974,1.974,0,0,0,859.759,21.928Zm7.542,0v0.28a1.974,1.974,0,0,0,3.948,0v-0.28A1.974,1.974,0,0,0,867.3,21.928Zm7.533,0v0.28a1.974,1.974,0,0,0,3.948,0v-0.28A1.974,1.974,0,0,0,874.834,21.928Zm7.606-.055-0.009.28a1.974,1.974,0,0,0,3.946.125l0.008-.28A1.974,1.974,0,0,0,882.44,21.873Zm8.106,0.951-0.094.264a1.974,1.974,0,0,0,3.715,1.334l0.095-.264A1.975,1.975,0,0,0,890.546,22.824Zm7.53,3.522-0.187.208a1.974,1.974,0,0,0,2.937,2.638l0.187-.208A1.974,1.974,0,0,0,898.076,26.346Zm5.54,6.361-0.259.106a1.974,1.974,0,0,0,1.5,3.653l0.259-.106A1.974,1.974,0,0,0,903.616,32.707Zm2.334,7.9-0.28.013a1.974,1.974,0,0,0,.179,3.944l0.279-.013A1.974,1.974,0,0,0,905.95,40.6Zm-0.223,8.2-0.27-.077a1.974,1.974,0,0,0-1.086,3.8L904.64,52.6A1.974,1.974,0,0,0,905.727,48.8Zm-3.208,7.768-0.212-.183a1.975,1.975,0,0,0-2.586,2.984l0.212,0.183A1.975,1.975,0,0,0,902.519,56.57Zm-6.113,5.645-0.127-.25a1.974,1.974,0,0,0-3.52,1.788L892.886,64A1.974,1.974,0,0,0,896.406,62.215Zm-7.464,3.093-0.052-.275a1.974,1.974,0,0,0-3.877.74l0.052,0.275A1.974,1.974,0,0,0,888.942,65.308Zm-7.87.764v-0.28a1.974,1.974,0,0,0-3.948,0v0.28A1.974,1.974,0,0,0,881.072,66.072Zm-7.529,0v-0.28a1.974,1.974,0,0,0-3.948,0v0.28A1.974,1.974,0,0,0,873.543,66.072Zm-7.54,0v-0.28a1.974,1.974,0,0,0-3.948,0v0.28A1.974,1.974,0,0,0,866,66.072Zm-7.528,0v-0.28a1.974,1.974,0,0,0-3.948,0v0.28A1.974,1.974,0,0,0,858.475,66.072Zm-7.517,0v-0.28a1.974,1.974,0,0,0-3.948,0v0.28A1.974,1.974,0,0,0,850.958,66.072Zm-7.533,0v-0.28a1.974,1.974,0,0,0-3.948,0v0.28A1.974,1.974,0,0,0,843.425,66.072Zm-7.552,0v-0.28a1.974,1.974,0,0,0-3.948,0v0.28A1.974,1.974,0,0,0,835.873,66.072Zm-7.527,0v-0.28a1.974,1.974,0,0,0-3.948,0v0.28A1.974,1.974,0,0,0,828.346,66.072Zm-7.52,0v-0.28a1.974,1.974,0,0,0-3.948,0v0.28A1.974,1.974,0,0,0,820.826,66.072Zm-7.551,0v-0.28a1.974,1.974,0,0,0-3.948,0v0.28A1.974,1.974,0,0,0,813.275,66.072Zm-7.516,0v-0.28a1.974,1.974,0,0,0-3.948,0v0.28A1.974,1.974,0,0,0,805.759,66.072Zm-7.535,0v-0.28a1.974,1.974,0,0,0-3.948,0v0.28A1.974,1.974,0,0,0,798.224,66.072Zm-7.521,0v-0.28a1.974,1.974,0,0,0-3.948,0v0.28A1.974,1.974,0,0,0,790.7,66.072Zm-7.551,0v-0.28a1.974,1.974,0,0,0-3.948,0v0.28A1.974,1.974,0,0,0,783.152,66.072Zm-7.532,0v-0.28a1.974,1.974,0,0,0-3.948,0v0.28A1.974,1.974,0,0,0,775.62,66.072Zm-7.521,0v-0.28a1.974,1.974,0,0,0-3.948,0v0.28A1.974,1.974,0,0,0,768.1,66.072Zm-7.531,0v-0.28a1.974,1.974,0,0,0-3.948,0v0.28A1.974,1.974,0,0,0,760.568,66.072Zm-7.537,0v-0.28a1.974,1.974,0,0,0-3.948,0v0.28A1.974,1.974,0,0,0,753.031,66.072Zm-7.545,0v-0.28a1.974,1.974,0,0,0-3.948,0v0.28A1.974,1.974,0,0,0,745.486,66.072Zm-7.509,0v-0.28a1.974,1.974,0,0,0-3.948,0v0.28A1.974,1.974,0,0,0,737.977,66.072Zm-7.553,0v-0.28a1.974,1.974,0,0,0-3.948,0v0.28A1.974,1.974,0,0,0,730.424,66.072Zm-7.142.061-0.053-.275a1.974,1.974,0,0,0-3.877.745l0.053,0.275A1.974,1.974,0,0,0,723.282,66.133Zm-6.661,1.689-0.136-.245a1.974,1.974,0,0,0-3.453,1.913l0.136,0.245A1.974,1.974,0,0,0,716.621,67.822Zm-5.585,3.7-0.222-.17a1.975,1.975,0,0,0-2.4,3.133l0.222,0.17A1.975,1.975,0,0,0,711.036,71.519Zm-3.593,5.666-0.27-.074a1.974,1.974,0,0,0-1.041,3.808l0.27,0.074A1.974,1.974,0,0,0,707.443,77.185ZM410,13a10,10,0,1,1-10,10A10,10,0,0,1,410,13Z"/>
</svg>
