<?xml version="1.0" encoding="UTF-8"?>
<svg width="60px" height="60px" viewBox="0 0 60 60" version="1.1" xmlns="http://www.w3.org/2000/svg" xmlns:xlink="http://www.w3.org/1999/xlink">
    <title>1B3266C2-47BB-49BD-B4CF-7FF021156A4E@2.00x</title>
    <g id="homepage" stroke="none" stroke-width="1" fill="none" fill-rule="evenodd">
        <g id="Homepage" transform="translate(-565.000000, -712.000000)">
            <g id="Group-12" transform="translate(545.000000, 692.000000)">
                <g id="mobile-app" transform="translate(20.000000, 20.000000)">
                    <path d="M12.5,40 C18.4694548,41.5273607 15.2656903,34.8512746 15.2656903,28.5 C15.2656903,22.1487254 18.8512746,17 12.5,17 C6.14872538,17 0.705876569,22.5391749 1.45632223,28.5 C2.20676789,34.4608251 6.53054525,38.4726393 12.5,40 Z" id="Oval" fill="#FBB03B"></path>
                    <circle id="Oval" fill="#FFFFFF" cx="12.5" cy="28.5" r="5.5"></circle>
                    <path d="M36.304773,38.2555877 C33.3919136,33.2844317 33.2258065,28.5689372 35.8064516,24.1091042 C38.3870968,19.6492713 42.7269766,17.8892467 48.826091,18.8290304 C55.0357778,20.7726183 58.3739959,24.4962748 58.8407453,30 C59.3074946,35.5037252 58.3432526,37.9249545 55.9480191,37.2636881 C55.9443619,35.0027976 53.5703859,33.5495409 48.826091,32.9039181 C46.8027938,32.6285796 48.4420371,32.2107384 48.2181968,31.9354839 C48.0175114,31.6887029 48.2201428,31.3661222 48.826091,30.9677419 C51.5134428,27.7342105 51.5134428,25.1540269 48.826091,23.227191 C46.1387391,21.3003551 44.3795045,21.5943262 43.5483871,24.1091042 C42.2580645,26.3587173 41.9354839,28.0642269 42.5806452,29.2256329 C43.5483871,30.9677419 44.8410368,31.8078362 44.1947119,32.9039181 C43.7638287,33.6346394 42.0804909,34 39.1446985,34 L36.304773,38.2555877 Z" id="Path-2" fill="#FBB03B"></path>
                    <path d="M60,30.9677419 C60,24.4945161 55.4341935,19.0741935 49.3548387,17.7406452 L49.3548387,4.83870968 C49.3548387,2.17064516 47.1841935,0 44.516129,0 L19.3548387,0 C16.6867742,0 14.516129,2.17064516 14.516129,4.83870968 L14.516129,15.483871 L8.9216129,15.483871 L8.33806452,17.8219355 L6.27290323,16.5822581 L1.09741935,21.7548387 L2.33709677,23.8219355 L0,24.4054839 L0,31.7235484 L2.33806452,32.3070968 L1.09741935,34.3741935 L6.27193548,39.5477419 L8.33709677,38.3080645 L8.9216129,40.6451613 L14.516129,40.6451613 L14.516129,55.1612903 C14.516129,57.8293548 16.6867742,60 19.3548387,60 L44.516129,60 C47.1841935,60 49.3548387,57.8293548 49.3548387,55.1612903 L49.3548387,44.1948387 C55.4341935,42.8612903 60,37.4409677 60,30.9677419 Z M58.0645161,30.9677419 C58.0645161,32.853871 57.6029032,34.6306452 56.8016129,36.2070968 C56.2645161,34.7293548 55.0287097,33.5670968 53.4319355,33.1674194 L49.3548387,32.1474194 L49.3548387,31.916129 C50.5606452,31.0074194 51.2903226,29.5780645 51.2903226,28.0654839 L51.2903226,26.13 C51.2903226,24.7780645 50.7183871,23.4774194 49.7206452,22.5619355 C48.723871,21.6493548 47.3729032,21.1906452 46.0219355,21.3096774 C43.5493548,21.5235484 41.6129032,23.73 41.6129032,26.3293548 L41.6129032,28.0645161 C41.6129032,29.5770968 42.3425806,31.0064516 43.5483871,31.9151613 L43.5483871,32.1464516 L39.4712903,33.1664516 C37.8745161,33.566129 36.6387097,34.7283871 36.1016129,36.206129 C35.3003226,34.6306452 34.8387097,32.853871 34.8387097,30.9677419 C34.8387097,24.5641935 40.0480645,19.3548387 46.4516129,19.3548387 C52.8551613,19.3548387 58.0645161,24.5641935 58.0645161,30.9677419 Z M43.5483871,17.7406452 C42.8825806,17.8867742 42.2380645,18.0880645 41.6129032,18.3280645 L41.6129032,15.483871 L22.2580645,15.483871 L22.2580645,29.0322581 L33.0580645,29.0322581 C32.966129,29.666129 32.9032258,30.3087097 32.9032258,30.9677419 C32.9032258,37.4409677 37.4690323,42.8612903 43.5483871,44.1948387 L43.5483871,46.4516129 L20.3225806,46.4516129 L20.3225806,13.5483871 L43.5483871,13.5483871 L43.5483871,17.7406452 Z M33.4741935,27.0967742 L24.1935484,27.0967742 L24.1935484,17.4193548 L39.6774194,17.4193548 L39.6774194,19.2522581 C36.7219355,20.9680645 34.4709677,23.7609677 33.4741935,27.0967742 Z M19.3548387,1.93548387 L44.516129,1.93548387 C46.1167742,1.93548387 47.4193548,3.23806452 47.4193548,4.83870968 L47.4193548,7.74193548 L16.4516129,7.74193548 L16.4516129,4.83870968 C16.4516129,3.23806452 17.7541935,1.93548387 19.3548387,1.93548387 Z M14.516129,32.4890323 C13.9054839,32.7580645 13.2464516,32.9032258 12.5806452,32.9032258 C9.91258065,32.9032258 7.74193548,30.7325806 7.74193548,28.0645161 C7.74193548,25.3964516 9.91258065,23.2258065 12.5806452,23.2258065 C13.2464516,23.2258065 13.9054839,23.3709677 14.516129,23.64 L14.516129,32.4890323 Z M10.4332258,38.7096774 L9.96193548,36.8235484 L9.76548387,36.3058065 L8.66032258,35.8567742 L6.57193548,37.1109677 L3.53516129,34.0732258 L4.78935484,31.983871 L4.30548387,30.8032258 L1.93548387,30.2119355 L1.93548387,25.9170968 L4.30258065,25.3258065 L4.78935484,24.1451613 L3.53516129,22.0558065 L6.57193548,19.0180645 L8.66032258,20.2722581 L9.84096774,19.7922581 L10.4332258,17.4193548 L14.516129,17.4193548 L14.516129,21.5854839 C13.8880645,21.3967742 13.2377419,21.2903226 12.5806452,21.2903226 C8.84516129,21.2903226 5.80645161,24.33 5.80645161,28.0645161 C5.80645161,31.7990323 8.84516129,34.8387097 12.5806452,34.8387097 C13.2377419,34.8387097 13.8880645,34.7322581 14.516129,34.5435484 L14.516129,38.7096774 L10.4332258,38.7096774 Z M44.516129,58.0645161 L19.3548387,58.0645161 C17.7541935,58.0645161 16.4516129,56.7619355 16.4516129,55.1612903 L16.4516129,52.2580645 L47.4193548,52.2580645 L47.4193548,55.1612903 C47.4193548,56.7619355 46.1167742,58.0645161 44.516129,58.0645161 Z M47.4193548,50.3225806 L16.4516129,50.3225806 L16.4516129,9.67741935 L47.4193548,9.67741935 L47.4193548,17.4687097 C47.0980645,17.4454839 46.7787097,17.4193548 46.4516129,17.4193548 C46.1245161,17.4193548 45.8051613,17.4454839 45.483871,17.4687097 L45.483871,11.6129032 L18.3870968,11.6129032 L18.3870968,48.3870968 L45.483871,48.3870968 L45.483871,44.4667742 C45.8051613,44.49 46.1245161,44.516129 46.4516129,44.516129 C46.7787097,44.516129 47.0980645,44.49 47.4193548,44.4667742 L47.4193548,50.3225806 Z M46.4516129,42.5806452 C42.9822581,42.5806452 39.8719355,41.0429032 37.7419355,38.6235484 L37.7419355,37.8609677 C37.7419355,36.5264516 38.6467742,35.3680645 39.9406452,35.043871 L45.483871,33.6590323 L45.483871,30.8419355 L45.0029032,30.5622581 C44.0922581,30.0319355 43.5483871,29.0980645 43.5483871,28.0645161 L43.5483871,26.3293548 C43.5483871,24.723871 44.7087097,23.366129 46.1893548,23.2374194 C47.0196774,23.1706452 47.8064516,23.4319355 48.4132258,23.9883871 C49.0112903,24.5370968 49.3548387,25.3170968 49.3548387,26.1290323 L49.3548387,28.0645161 C49.3548387,29.0980645 48.8109677,30.0319355 47.9003226,30.5622581 L47.4193548,30.8419355 L47.4193548,33.6590323 L52.9625806,35.043871 C54.2564516,35.3680645 55.1612903,36.5264516 55.1612903,37.8609677 L55.1612903,38.6235484 C53.0312903,41.0429032 49.9209677,42.5806452 46.4516129,42.5806452 Z" id="Shape" fill="#000000" fill-rule="nonzero"></path>
                    <polygon id="Path" fill="#000000" fill-rule="nonzero" points="35.8064516 3.87096774 37.7419355 3.87096774 37.7419355 5.80645161 35.8064516 5.80645161"></polygon>
                    <polygon id="Path" fill="#000000" fill-rule="nonzero" points="26.1290323 3.87096774 33.8709677 3.87096774 33.8709677 5.80645161 26.1290323 5.80645161"></polygon>
                    <polygon id="Path" fill="#000000" fill-rule="nonzero" points="28.0645161 54.1935484 35.8064516 54.1935484 35.8064516 56.1290323 28.0645161 56.1290323"></polygon>
                    <polygon id="Path" fill="#000000" fill-rule="nonzero" points="41.6129032 54.1935484 43.5483871 54.1935484 43.5483871 56.1290323 41.6129032 56.1290323"></polygon>
                    <polygon id="Path" fill="#000000" fill-rule="nonzero" points="20.3225806 54.1935484 22.2580645 54.1935484 22.2580645 56.1290323 20.3225806 56.1290323"></polygon>
                    <polygon id="Path" fill="#000000" fill-rule="nonzero" points="22.2580645 30.9677419 30.9677419 30.9677419 30.9677419 32.9032258 22.2580645 32.9032258"></polygon>
                    <polygon id="Path" fill="#000000" fill-rule="nonzero" points="22.2580645 34.8387097 30.9677419 34.8387097 30.9677419 36.7741935 22.2580645 36.7741935"></polygon>
                    <polygon id="Path" fill="#000000" fill-rule="nonzero" points="22.2580645 38.7096774 30.9677419 38.7096774 30.9677419 40.6451613 22.2580645 40.6451613"></polygon>
                    <polygon id="Path" fill="#000000" fill-rule="nonzero" points="22.2580645 42.5806452 30.9677419 42.5806452 30.9677419 44.516129 22.2580645 44.516129"></polygon>
                    <path d="M54.1935484,17.4193548 C55.7941935,17.4193548 57.0967742,16.1167742 57.0967742,14.516129 C57.0967742,13.256129 56.2848387,12.1916129 55.1612903,11.7909677 L55.1612903,3.87096774 L53.2258065,3.87096774 L53.2258065,11.7909677 C52.1022581,12.1916129 51.2903226,13.256129 51.2903226,14.516129 C51.2903226,16.1167742 52.5929032,17.4193548 54.1935484,17.4193548 Z M54.1935484,13.5483871 C54.7267742,13.5483871 55.1612903,13.9819355 55.1612903,14.516129 C55.1612903,15.0503226 54.7267742,15.483871 54.1935484,15.483871 C53.6603226,15.483871 53.2258065,15.0503226 53.2258065,14.516129 C53.2258065,13.9819355 53.6603226,13.5483871 54.1935484,13.5483871 Z" id="Shape" fill="#000000" fill-rule="nonzero"></path>
                    <polygon id="Path" fill="#000000" fill-rule="nonzero" points="53.2258065 0 55.1612903 0 55.1612903 1.93548387 53.2258065 1.93548387"></polygon>
                    <path d="M9.67741935,42.5806452 C8.07677419,42.5806452 6.77419355,43.8832258 6.77419355,45.483871 C6.77419355,46.743871 7.58612903,47.8083871 8.70967742,48.2090323 L8.70967742,56.1290323 L10.6451613,56.1290323 L10.6451613,48.2090323 C11.7687097,47.8083871 12.5806452,46.743871 12.5806452,45.483871 C12.5806452,43.8832258 11.2780645,42.5806452 9.67741935,42.5806452 Z M9.67741935,46.4516129 C9.14419355,46.4516129 8.70967742,46.0180645 8.70967742,45.483871 C8.70967742,44.9496774 9.14419355,44.516129 9.67741935,44.516129 C10.2106452,44.516129 10.6451613,44.9496774 10.6451613,45.483871 C10.6451613,46.0180645 10.2106452,46.4516129 9.67741935,46.4516129 Z" id="Shape" fill="#000000" fill-rule="nonzero"></path>
                    <polygon id="Path" fill="#000000" fill-rule="nonzero" points="8.70967742 58.0645161 10.6451613 58.0645161 10.6451613 60 8.70967742 60"></polygon>
                </g>
            </g>
        </g>
    </g>
</svg>