<?xml version="1.0" encoding="UTF-8"?>
<svg width="60px" height="63px" viewBox="0 0 60 63" version="1.1" xmlns="http://www.w3.org/2000/svg" xmlns:xlink="http://www.w3.org/1999/xlink">
    <title>7BFEA8DD-EC56-4AD2-9B42-B8DCFCA9F496@2.00x</title>
    <g id="homepage" stroke="none" stroke-width="1" fill="none" fill-rule="evenodd">
        <g id="Homepage" transform="translate(-305.000000, -712.000000)" fill-rule="nonzero">
            <g id="Group-11" transform="translate(285.000000, 692.000000)">
                <g id="web-development" transform="translate(20.000000, 20.000000)">
                    <polygon id="Path" fill="#FFFFFF" points="44.7951724 57.5213793 38.9803448 45.8917241 21.0196552 45.8917241 15.2048276 57.5213793"></polygon>
                    <path d="M6.20689655,1.03448276 L53.7931034,1.03448276 C56.6496983,1.03448276 58.9655172,3.35030172 58.9655172,6.20689655 L58.9655172,41.3793103 C58.9655172,44.2359052 56.6496983,46.5517241 53.7931034,46.5517241 L6.20689655,46.5517241 C3.35030172,46.5517241 1.03448276,44.2359052 1.03448276,41.3793103 L1.03448276,6.20689655 C1.03448276,3.35030172 3.35030172,1.03448276 6.20689655,1.03448276 Z" id="Path" fill="#FFFFFF"></path>
                    <g id="Group" transform="translate(1.034483, 38.275862)" fill="#E6E6E6">
                        <path d="M52.7586207,8.27586207 L5.17241379,8.27586207 C2.31581897,8.27586207 0,5.9600431 0,3.10344828 L0,0 L57.9310345,0 L57.9310345,3.10344828 C57.9310345,5.9600431 55.6152155,8.27586207 52.7586207,8.27586207 Z" id="Path"></path>
                        <path d="M8.27586207,18.6206897 L49.6551724,18.6206897 C50.7978879,18.6206897 51.7241379,19.5469397 51.7241379,20.6896552 L51.7241379,20.6896552 C51.7241379,21.8323707 50.7978879,22.7586207 49.6551724,22.7586207 L8.27586207,22.7586207 C7.13314655,22.7586207 6.20689655,21.8323707 6.20689655,20.6896552 L6.20689655,20.6896552 C6.20689655,19.5469397 7.13314655,18.6206897 8.27586207,18.6206897 Z" id="Path"></path>
                    </g>
                    <polygon id="Path" fill="#FBB03B" points="22.3168966 38.2758621 22.857931 36.6113793 26.8965517 34.9737931 26.8965517 31.137931 22.862069 29.5013793 21.8834483 26.49 24.1882759 22.7927586 21.9331034 19.6893103 17.7 20.7424138 15.1375862 18.8803448 14.8324138 14.5417241 11.1837931 13.3551724 8.38448276 16.6882759 5.21586207 16.6882759 2.41551724 13.3551724 1.03448276 13.8041379 1.03448276 38.2758621"></polygon>
                    <path d="M13.7813793,38.2758621 C16.6564655,34.4132328 15.8559052,28.9512931 11.9932759,26.0762069 C8.69340517,23.6199569 4.12551724,23.8044828 1.03448276,26.5189655 L1.03448276,38.2758621 L13.7813793,38.2758621 Z" id="Path" fill="#FFFFFF"></path>
                    <polygon id="Path" fill="#000000" points="26.8965517 9.31034483 54.8275862 9.31034483 54.8275862 11.3793103 26.8965517 11.3793103"></polygon>
                    <polygon id="Path" fill="#000000" points="26.8965517 13.4482759 44.4827586 13.4482759 44.4827586 15.5172414 26.8965517 15.5172414"></polygon>
                    <polygon id="Path" fill="#000000" points="26.8965517 17.5862069 44.4827586 17.5862069 44.4827586 19.6551724 26.8965517 19.6551724"></polygon>
                    <polygon id="Path" fill="#000000" points="35.1724138 5.17241379 54.8275862 5.17241379 54.8275862 7.24137931 35.1724138 7.24137931"></polygon>
                    <polygon id="Path" fill="#000000" points="31.0344828 5.17241379 33.1034483 5.17241379 33.1034483 7.24137931 31.0344828 7.24137931"></polygon>
                    <polygon id="Path" fill="#000000" points="28.9655172 41.3793103 31.0344828 41.3793103 31.0344828 43.4482759 28.9655172 43.4482759"></polygon>
                    <path d="M14.7858621,11.0762069 L16.2486207,9.61344828 L14.9110345,8.27586207 L16.2486207,6.93827586 L14.7858621,5.47551724 L12.7168966,7.54448276 C12.3130603,7.94844828 12.3130603,8.60327586 12.7168966,9.00724138 L14.7858621,11.0762069 Z" id="Path" fill="#000000"></path>
                    <path d="M22.4555172,11.0762069 L24.5244828,9.00724138 C24.928319,8.60327586 24.928319,7.94844828 24.5244828,7.54448276 L22.4555172,5.47551724 L20.9927586,6.93827586 L22.3303448,8.27586207 L20.9927586,9.61344828 L22.4555172,11.0762069 Z" id="Path" fill="#000000"></path>
                    <polygon id="Path" fill="#000000" points="16.6039655 11.0513793 18.675 4.84474138 20.6366379 5.49931034 18.5656034 11.7059483"></polygon>
                    <polygon id="Path" fill="#000000" points="52.7586207 23.7931034 50.6896552 23.7931034 50.6896552 32.0689655 48.6206897 32.0689655 48.6206897 21.7241379 46.5517241 21.7241379 46.5517241 32.0689655 44.4827586 32.0689655 44.4827586 26.8965517 42.4137931 26.8965517 42.4137931 32.0689655 40.3448276 32.0689655 40.3448276 25.862069 38.2758621 25.862069 38.2758621 32.0689655 36.2068966 32.0689655 36.2068966 27.9310345 34.137931 27.9310345 34.137931 32.0689655 32.0689655 32.0689655 32.0689655 34.137931 54.8275862 34.137931 54.8275862 32.0689655 52.7586207 32.0689655"></polygon>
                    <path d="M0,38.2758621 L0,41.3793103 C0.00336206897,44.8059052 2.78030172,47.5828448 6.20689655,47.5862069 L19.0158621,47.5862069 L14.877931,55.862069 L9.31034483,55.862069 C7.59633621,55.862069 6.20689655,57.2515086 6.20689655,58.9655172 C6.20689655,60.6795259 7.59633621,62.0689655 9.31034483,62.0689655 L50.6896552,62.0689655 C52.4036638,62.0689655 53.7931034,60.6795259 53.7931034,58.9655172 C53.7931034,57.2515086 52.4036638,55.862069 50.6896552,55.862069 L45.122069,55.862069 L40.9841379,47.5862069 L53.7931034,47.5862069 C57.2196983,47.5828448 59.9966379,44.8059052 60,41.3793103 L60,6.20689655 C59.9966379,2.78030172 57.2196983,0.00336206897 53.7931034,0 L6.20689655,0 C2.78030172,0.00336206897 0.00336206897,2.78030172 0,6.20689655 L0,26.5096552 L0,26.5189655 L0,38.2758621 Z M20.8965517,26.8106897 L21.8762069,29.822069 C21.9704741,30.1125 22.1881034,30.3465517 22.4710345,30.4613793 L25.862069,31.8362069 L25.862069,34.2775862 L22.4689655,35.6524138 C22.1853879,35.7667241 21.9673707,36.0014224 21.8741379,36.2927586 L21.5637931,37.2413793 L15.6041379,37.2413793 C17.9224138,32.3875862 15.8668966,26.5734052 11.0131034,24.2551293 C8.16219828,22.8934914 4.82780172,22.9992672 2.06896552,24.5389655 L2.06896552,14.5551724 L4.42034483,17.3544828 C4.61689655,17.5886638 4.90706897,17.7237931 5.21275862,17.7237931 L8.37931034,17.7237931 C8.685,17.7237931 8.97517241,17.5886638 9.17172414,17.3544828 L11.5241379,14.5551724 L13.8455172,15.3093103 L14.102069,18.9537931 C14.1232759,19.2585776 14.2781897,19.5384052 14.5251724,19.7182759 L17.0875862,21.5803448 C17.3354741,21.7593103 17.6494397,21.8202155 17.9462069,21.7468966 L21.4975862,20.8644828 L22.9334483,22.8393103 L20.997931,25.9427586 C20.8375862,26.202931 20.8004741,26.5206466 20.8965517,26.8106897 L20.8965517,26.8106897 Z M2.06896552,37.2413793 L2.06896552,27 C5.415,24.3896121 10.2437069,24.9859914 12.8539655,28.3321552 C14.8693966,30.9155172 15.0249569,34.4927586 13.2413793,37.2413793 L2.06896552,37.2413793 Z M51.7241379,58.9655172 C51.7241379,59.5368103 51.2609483,60 50.6896552,60 L9.31034483,60 C8.73905172,60 8.27586207,59.5368103 8.27586207,58.9655172 C8.27586207,58.3942241 8.73905172,57.9310345 9.31034483,57.9310345 L50.6896552,57.9310345 C51.2609483,57.9310345 51.7241379,58.3942241 51.7241379,58.9655172 Z M42.8089655,55.862069 L17.1910345,55.862069 L21.3289655,47.5862069 L38.6710345,47.5862069 L42.8089655,55.862069 Z M53.7931034,45.5172414 L6.20689655,45.5172414 C3.92159483,45.5172414 2.06896552,43.6646121 2.06896552,41.3793103 L2.06896552,39.3103448 L13.7813793,39.3103448 L13.7906897,39.3103448 L57.9310345,39.3103448 L57.9310345,41.3793103 C57.9310345,43.6646121 56.0784052,45.5172414 53.7931034,45.5172414 Z M6.20689655,2.06896552 L53.7931034,2.06896552 C56.0784052,2.06896552 57.9310345,3.92159483 57.9310345,6.20689655 L57.9310345,37.2413793 L24.0568966,37.2413793 L27.2855172,35.9327586 C27.6755172,35.7744828 27.9307759,35.3957328 27.9310345,34.9748276 L27.9310345,31.137931 C27.9311638,30.7166379 27.6759052,30.3373707 27.2855172,30.1789655 L23.6896552,28.7244828 L23.0089655,26.6296552 L25.0593103,23.34 C25.2817241,22.9825862 25.2653017,22.5261207 25.017931,22.1855172 L22.7627586,19.082069 C22.5151293,18.7410776 22.0855603,18.5843534 21.6765517,18.6858621 L17.9151724,19.6168966 L16.137931,18.3258621 L15.8658621,14.4672414 C15.83625,14.0465948 15.5542241,13.6859483 15.1531034,13.5558621 L11.5065517,12.3703448 C11.1053017,12.2425862 10.666681,12.3686638 10.3944828,12.69 L7.90448276,15.6537931 L5.69793103,15.6537931 L3.20689655,12.69 C2.93456897,12.3682759 2.49530172,12.242069 2.0937931,12.3703448 L2.06896552,12.3796552 L2.06896552,6.20689655 C2.06896552,3.92159483 3.92159483,2.06896552 6.20689655,2.06896552 L6.20689655,2.06896552 Z" id="Shape" fill="#000000"></path>
                </g>
            </g>
        </g>
    </g>
</svg>