<?xml version="1.0" encoding="UTF-8"?>
<svg width="30px" height="40px" viewBox="0 0 30 40" version="1.1" xmlns="http://www.w3.org/2000/svg" xmlns:xlink="http://www.w3.org/1999/xlink">
    <title>15A66029-D176-49F1-9A7B-A4C5C90D97CD@1x</title>
    <g id="Page-1" stroke="none" stroke-width="1" fill="none" fill-rule="evenodd">
        <g id="Web-Sistem---Landing-Page" transform="translate(-543.000000, -8957.000000)">
            <g id="dollars-money-bag" transform="translate(543.000000, 8957.000000)">
                <path d="M8.86,3.3925 C8.94,3.36125 9.05,3.33375 9.20125,3.33375 C10.165,3.33375 11.61625,4.29125 12.675,4.99125 C13.3825,5.4575 13.99375,5.86 14.555,6.085 C14.79375,6.18 15.05,6.22875 15.31375,6.22875 L15.31375,6.22875 C16.44875,6.22875 17.41375,5.3675 18.52125,4.37125 C19.13625,3.82 20.28125,2.79125 20.72875,2.78625 C20.74625,2.79375 20.805,2.84 20.8825,2.9525 C21.97625,4.46625 19.9425,9.945 18.8,11.09 C18.2825,11.1775 17.07375,11.34375 15.47,11.34375 C13.81,11.34375 12.08625,11.03125 11.37375,10.885 C10.26875,9.6425 8.44,4.6425 8.86,3.3925 Z" id="Path-Copy" fill="#FFCA13" fill-rule="nonzero"></path>
                <path d="M22.83875,14.40875 C23.4375,13.9325 23.70875,13.1225 23.45,12.355 C23.2275,11.705 22.6875,11.26625 22.06,11.13625 C22.73625,9.8425 23.28375,8.31625 23.57875,7.1375 C24.02125,5.365 24.30625,2.91625 23.15125,1.3175 C22.365,0.22875 21.41125,0 20.75125,0 C19.21625,0 17.86125,1.21875 16.6625,2.2925 C16.2625,2.65125 15.68625,3.16875 15.3475,3.37375 C15.04375,3.205 14.62375,2.93 14.21625,2.66125 C12.785,1.71625 11.00625,0.5425 9.20375,0.5425 C8.5125,0.5425 7.875,0.71625 7.30875,1.055 C6.77125,1.38 6.1125,2.0775 6.04125,3.5625 C5.94,5.65 7.05,8.94125 8.275,11.1625 C7.72375,11.31125 7.245,11.7025 7.02,12.27625 C6.7175,13.05 6.97375,13.8975 7.58625,14.395 C4.495,17.9325 0.53,24.81 0.53,28.44 C0.53,35.35375 6.34625,40 15,40 C23.65375,40 29.4700003,35.3525 29.4700003,28.43875 C29.47125,24.7875 25.78625,17.99 22.83875,14.40875 Z M8.86,3.3925 C8.94,3.36125 9.05,3.33375 9.20125,3.33375 C10.165,3.33375 11.61625,4.29125 12.675,4.99125 C13.3825,5.4575 13.99375,5.86 14.555,6.085 C14.79375,6.18 15.05,6.22875 15.31375,6.22875 L15.31375,6.22875 C16.44875,6.22875 17.41375,5.3675 18.52125,4.37125 C19.13625,3.82 20.28125,2.79125 20.72875,2.78625 C20.74625,2.79375 20.805,2.84 20.8825,2.9525 C21.97625,4.46625 19.9425,9.945 18.8,11.09 C18.2825,11.1775 17.07375,11.34375 15.47,11.34375 C13.81,11.34375 12.08625,11.03125 11.37375,10.885 C10.26875,9.6425 8.44,4.6425 8.86,3.3925 Z M15,37.2075 C9.61125,37.2075 3.3225,34.9125 3.3225,28.43875 C3.3225,25.52625 7.63875,18.11375 10.43,15.43375 C10.89375,15.52125 11.3675,15.595 11.84125,15.65625 C12.14875,15.7025 12.45875,15.73875 12.76625,15.76625 C12.8025,15.77125 12.8375,15.77375 12.87375,15.77875 C13.10375,15.79875 13.3275,15.8125 13.55,15.8275 C15.7375,15.97375 17.95625,15.85875 20.0725,15.47375 C22.8075,18.3575 26.6775,25.4425 26.6775,28.44 C26.6775,34.9125 20.39,37.2075 15,37.2075 Z" id="Shape" fill="#000000" fill-rule="nonzero"></path>
                <text id="Rp" font-family="Montserrat-Bold, Montserrat" font-size="11" font-weight="bold" letter-spacing="0.122222222" fill="#000000">
                    <tspan x="7.04027778" y="30">Rp</tspan>
                </text>
            </g>
        </g>
    </g>
</svg>