<?xml version="1.0" encoding="UTF-8"?>
<svg width="45px" height="40px" viewBox="0 0 45 40" version="1.1" xmlns="http://www.w3.org/2000/svg" xmlns:xlink="http://www.w3.org/1999/xlink">
    <!-- Generator: Sketch 52.1 (67048) - http://www.bohemiancoding.com/sketch -->
    <title>law</title>
    <desc>Created with Sketch.</desc>
    <g id="Page-1" stroke="none" stroke-width="1" fill="none" fill-rule="evenodd">
        <g id="Web-Sistem---Landing-Page-" transform="translate(-708.000000, -5010.000000)">
            <g id="law" transform="translate(708.000000, 5010.000000)">
                <rect id="Rectangle" fill="#FFCA13" transform="translate(27.000000, 18.500000) rotate(-315.000000) translate(-27.000000, -18.500000) " x="25" y="13" width="4" height="11"></rect>
                <rect id="Rectangle-Copy-13" fill="#FFCA13" transform="translate(16.000000, 6.500000) rotate(-315.000000) translate(-16.000000, -6.500000) " x="14" y="1" width="4" height="11"></rect>
                <path d="M22.0908791,20.3874306 C21.7526501,21.3411051 21.9641399,22.4478871 22.7260443,23.2097905 L23.8196823,24.3032723 C24.3472855,24.8308747 25.0403688,25.0947146 25.7333747,25.0947146 C26.426458,25.0947146 27.1195413,24.8308747 27.6471445,24.3032723 L34.2085856,17.7418403 C35.2637919,16.6866355 35.2637919,14.9695884 34.2086629,13.9143835 L33.1149476,12.8206697 C32.3531978,12.058921 31.2464142,11.8473542 30.2926611,12.18566 L22.814352,4.70736131 C23.1526583,3.75368684 22.9410912,2.64698215 22.179264,1.88507875 L21.0855487,0.791364999 C20.0304197,-0.263762557 18.3132929,-0.263839884 17.2580866,0.791442326 L10.6966455,7.35295157 C9.64143912,8.40815646 9.64143912,10.1252035 10.6966455,11.1804857 L11.7902834,12.2739675 C12.3178866,12.80157 13.0109699,13.0654098 13.7039759,13.0654098 C14.0116606,13.0654098 14.3193454,13.0131368 14.6125699,12.9091319 L15.8365815,14.1331417 L1.62632485,26.6209958 C0.636769252,27.4905385 0.0449072074,28.7443966 0.00245459927,30.0609669 C-0.0399980088,31.3776145 0.469897251,32.667043 1.40145749,33.5986019 C2.29698327,34.4941265 3.52331462,35 4.78660835,35 C4.83733496,35 4.88806158,34.9991494 4.93886552,34.9976029 C6.25551499,34.9551503 7.50945213,34.3632891 8.37907332,33.3737349 L20.8669449,19.1634208 L22.0908791,20.3874306 Z M30.9276717,14.461163 C31.003143,14.3856918 31.1021991,14.3480336 31.2011779,14.3480336 C31.3001566,14.3480336 31.39929,14.3856918 31.4745293,14.4610857 L32.5681673,15.5547221 C32.7188779,15.7054326 32.7188779,15.9507913 32.5681673,16.1015017 L26.0067262,22.6629336 C25.8560156,22.813644 25.6106565,22.8137214 25.4599459,22.6628563 L24.366308,21.5693745 C24.2155973,21.4186641 24.2155973,21.1733054 24.366308,21.022595 L30.9276717,14.461163 Z M21.3590549,6.53274359 L28.4672763,13.6409551 L23.5461761,18.5621257 L16.4379548,11.4538369 L21.3590549,6.53274359 Z M13.977482,10.6336289 C13.8266941,10.7844166 13.581335,10.7843393 13.4307017,10.6335515 L12.3370637,9.54006977 C12.1863531,9.38935936 12.1863531,9.14400064 12.3370637,8.99329022 L18.8984275,2.4318583 C18.9738988,2.3563871 19.0729549,2.31872883 19.1719336,2.31872883 C19.2709124,2.31872883 19.3700458,2.3563871 19.4452851,2.43178097 L20.5389231,3.5254174 C20.6896337,3.67612781 20.6896337,3.92148654 20.5389231,4.07219695 L13.977482,10.6336289 Z M6.63650588,31.84235 C6.18189953,32.359668 5.55245649,32.6567585 4.86416749,32.6789514 C4.17611046,32.7003709 3.52865019,32.4451917 3.04179843,31.9582633 C2.55486933,31.4712575 2.29891645,30.8240302 2.32110934,30.1357421 C2.34330223,29.4475314 2.64039316,28.8180892 3.1576345,28.3635608 L13.405957,19.3574343 L15.642645,21.5940418 L6.63650588,31.84235 Z M17.177125,19.8479198 L15.1520815,17.8229564 L17.4804021,15.7768827 L19.2232015,17.5196797 L17.177125,19.8479198 Z" id="Shape" fill="#000000" fill-rule="nonzero"></path>
                <path d="M26.3877151,28 C29.9760352,26.5 33.7895052,26.9891191 37.828125,29.4673573 C40.0923007,31.7424748 42.3315577,32.8134217 44.5458961,32.680198 C44.5458961,34.8220918 44.2135297,36.2620258 43.5487971,37 L22.0188763,37 C21.3431153,32.5 22.7993949,29.5 26.3877151,28 Z" id="Rectangle" fill="#FFCA13"></path>
                <g id="car-(1)" transform="translate(21.000000, 27.000000)" fill="#000000" fill-rule="nonzero">
                    <path d="M23.4349688,5.57645817 L18.5654531,3.48984456 L16.132875,0.361919085 C15.9554063,0.13370732 15.6809063,0 15.3899531,0 L5.4328125,0 C5.09559375,0 4.78434375,0.17921977 4.61770313,0.469413832 L3.7711875,1.94372029 C3.06060938,3.18086096 1.93232813,4.14900959 0.594328125,4.66992069 C0.235734375,4.80952004 0,5.15204646 0,5.53345099 L0,10.1394408 C0,10.6519082 0.41971875,11.0673195 0.9375,11.0673195 L3.583125,11.0673195 C3.970125,12.1472775 5.01220313,12.9230769 6.234375,12.9230769 C7.45654688,12.9230769 8.49857813,12.1472775 8.885625,11.0673195 L14.176875,11.0673195 C14.563875,12.1472775 15.6059531,12.9230769 16.828125,12.9230769 C18.0502969,12.9230769 19.0923281,12.1472775 19.479375,11.0673195 L23.0625,11.0673195 C23.5802813,11.0673195 24,10.6519082 24,10.1394408 L24,6.42792606 C24,6.05802721 23.778,5.72338776 23.4349688,5.57645817 Z M6.234375,11.0672731 C5.7174375,11.0672731 5.296875,10.6510268 5.296875,10.1393944 C5.296875,9.62776213 5.7174375,9.21151575 6.234375,9.21151575 C6.7513125,9.21151575 7.171875,9.62776213 7.171875,10.1393944 C7.171875,10.6510268 6.7513125,11.0672731 6.234375,11.0672731 Z M16.828125,11.0672731 C16.3111875,11.0672731 15.890625,10.6510268 15.890625,10.1393944 C15.890625,9.62776213 16.3111875,9.21151575 16.828125,9.21151575 C17.3450625,9.21151575 17.765625,9.62776213 17.765625,10.1393944 C17.765625,10.6510268 17.3450625,11.0672731 16.828125,11.0672731 Z M22.125,9.21151575 L19.4799844,9.21151575 C19.0947656,8.13271758 18.0479531,7.35575836 16.828125,7.35575836 C15.6114375,7.35575836 14.5627969,8.12895967 14.1762656,9.21151575 L8.88623438,9.21151575 C8.49421875,8.11675807 7.43990625,7.35575836 6.234375,7.35575836 C5.03845313,7.35575836 3.977625,8.1081288 3.58251563,9.21151575 L1.875,9.21151575 L1.875,6.13782478 C3.34945313,5.42428607 4.5868125,4.27877342 5.40135938,2.86069641 L5.97839063,1.855711 L14.9286094,1.855711 L17.2276406,4.81193252 C17.324625,4.93663942 17.452125,5.03494816 17.5980469,5.09744079 L22.125,7.037264 L22.125,9.21151575 Z" id="Shape"></path>
                </g>
            </g>
        </g>
    </g>
</svg>