<?xml version="1.0" encoding="UTF-8"?>
<svg width="99px" height="99px" viewBox="0 0 99 99" version="1.1" xmlns="http://www.w3.org/2000/svg" xmlns:xlink="http://www.w3.org/1999/xlink">
    <!-- Generator: Sketch 52.1 (67048) - http://www.bohemiancoding.com/sketch -->
    <title>Group 43</title>
    <desc>Created with Sketch.</desc>
    <g id="Page-1" stroke="none" stroke-width="1" fill="none" fill-rule="evenodd">
        <g id="Web-Sistem---Landing-Page-" transform="translate(-971.000000, -6266.000000)">
            <g id="Group-43" transform="translate(971.000000, 6266.000000)">
                <circle id="Oval-Copy-15" fill="#FFF4CF" cx="49.5" cy="49.5" r="49.5"></circle>
                <g id="experience-(2)" transform="translate(12.000000, 10.000000)">
                    <rect id="Rectangle" fill="#FFCA13" x="22" y="25" width="16" height="10"></rect>
                    <path d="M25.9975488,22.3092691 L24.6340735,22.8076299 C22.5297332,23.5772464 20.9598236,25.4337912 20.5367195,27.6541808 L20.0740922,30.0992933 C19.8432509,31.3104148 20.1575478,32.5507583 20.9368339,33.5019001 C21.716435,34.4539948 22.8659175,35 24.0900376,35 L35.9087649,35 C37.1234372,35 38.2670936,34.4611414 39.0465372,33.5215931 C39.825351,32.5828389 40.1494106,31.3537713 39.9355753,30.1494787 L39.5041257,27.7172303 C39.1043263,25.4619015 37.5292203,23.5751818 35.3930724,22.7933366 L33.9475588,22.2649598 L33.9475588,20.1161957 C33.9475588,20.0558461 33.9417326,19.9970846 33.9330721,19.9391172 C34.9876042,18.856318 35.5916337,17.3798169 35.5916337,15.8691706 L35.5916337,12.6676233 C35.5916337,9.54246594 33.0706453,7 29.9719239,7 C26.8732025,7 24.3517417,9.54246594 24.3517417,12.6676233 L24.3517417,15.9689063 C24.3517417,17.5217973 24.986634,18.9395369 26.007469,19.9691332 C26.0014853,20.0174129 25.9975488,20.066169 25.9975488,20.1160369 L25.9975488,22.3092691 Z M37.1787069,28.1365013 L37.6101565,30.5690674 C37.7005404,31.0774336 37.5637048,31.5962815 37.2347638,31.9926832 C36.9053505,32.3897201 36.421938,32.6176194 35.90845,32.6176194 L24.0897227,32.6176194 C23.5724556,32.6176194 23.0868386,32.3870203 22.7574253,31.9847424 C22.4286418,31.5832587 22.2959001,31.0599639 22.3935274,30.5474686 L22.8561548,28.1023561 C23.1227402,26.7028802 24.1125549,25.5322564 25.4385538,25.0473949 L26.331686,24.7210305 C26.3540458,24.7442174 26.3765631,24.7675632 26.4008124,24.7890032 C27.4184981,25.6864656 28.6950535,26.1352762 29.9723963,26.1351174 C31.2481644,26.1351174 32.5244049,25.6872597 33.5422481,24.7915442 C33.578937,24.7593048 33.6126342,24.7245244 33.6447567,24.6883146 L34.58686,25.0327839 C35.9338016,25.5254274 36.9267655,26.7146325 37.1787069,28.1365013 Z M26.7136921,12.6676233 C26.7136921,10.8561819 28.1751095,9.38222182 29.9714515,9.38222182 C31.4875087,9.38222182 32.7613873,10.4335757 33.1230806,11.8502036 C32.971286,11.9250054 32.8155547,11.995678 32.6560443,12.059998 C31.2039172,12.6463422 30.0309727,12.5685229 29.6957332,12.3315712 C29.1616175,11.9539097 28.4253188,12.0841378 28.0507135,12.6228376 C27.6762656,13.1615373 27.805543,13.9041553 28.3395013,14.2819757 C28.9162896,14.6899708 29.6991974,14.893889 30.5926445,14.893889 C31.4043681,14.893889 32.3074204,14.7237984 33.2293684,14.3872699 L33.2293684,15.868853 C33.2293684,16.7793382 32.8560228,17.6709244 32.2049118,18.3149184 C31.9035269,18.6131726 31.5582098,18.8442481 31.1873836,19.0036981 C31.1614021,19.0137034 31.1358931,19.0245029 31.1108564,19.0362551 C30.7299525,19.1882409 30.3230672,19.2646308 29.9072065,19.2536726 C28.1461363,19.2195274 26.7136921,17.745885 26.7136921,15.9687475 L26.7136921,12.6676233 Z M29.861857,21.6357356 C29.8979161,21.6363709 29.9336603,21.6366885 29.9697194,21.6366885 C30.523833,21.6366885 31.0667666,21.5526755 31.5854509,21.3914785 L31.5854509,23.2970971 C30.6011475,23.9091693 29.3428578,23.9088517 28.3598141,23.2961442 L28.3598141,21.3949724 C28.8375579,21.5409232 29.3409682,21.6255714 29.861857,21.6357356 Z" id="Shape" fill="#000000" fill-rule="nonzero"></path>
                    <path d="M11.1767309,55 L47.8232691,55 C48.4732952,55 49,54.5524 49,54 C49,53.4476 48.4732952,53 47.8232691,53 L11.1767309,53 C10.5267048,53 10,53.4476 10,54 C10,54.5524 10.5267048,55 11.1767309,55 Z" id="Path" fill="#000000" fill-rule="nonzero"></path>
                    <path d="M11.1767309,61 L47.8232691,61 C48.4732952,61 49,60.5524 49,60 C49,59.4476 48.4732952,59 47.8232691,59 L11.1767309,59 C10.5267048,59 10,59.4476 10,60 C10,60.5524 10.5267048,61 11.1767309,61 Z" id="Path" fill="#000000" fill-rule="nonzero"></path>
                    <path d="M11.1767309,67 L47.8232691,67 C48.4732952,67 49,66.5524 49,66 C49,65.4476 48.4732952,65 47.8232691,65 L11.1767309,65 C10.5267048,65 10,65.4476 10,66 C10,66.5524 10.5267048,67 11.1767309,67 Z" id="Path" fill="#000000" fill-rule="nonzero"></path>
                    <path d="M11.1767309,74 L47.8232691,74 C48.4732952,74 49,73.5524 49,73 C49,72.4476 48.4732952,72 47.8232691,72 L11.1767309,72 C10.5267048,72 10,72.4476 10,73 C10,73.5524 10.5267048,74 11.1767309,74 Z" id="Path" fill="#000000" fill-rule="nonzero"></path>
                    <path d="M10,41 C10,41.5524 10.5267048,42 11.1767309,42 L47.8232691,42 C48.4732952,42 49,41.5524 49,41 C49,40.4476 48.4732952,40 47.8232691,40 L11.1767309,40 C10.5267048,40 10,40.4477333 10,41 Z" id="Path" fill="#000000" fill-rule="nonzero"></path>
                    <path d="M11.1767309,48 L47.8232691,48 C48.4732952,48 49,47.5524 49,47 C49,46.4476 48.4732952,46 47.8232691,46 L11.1767309,46 C10.5267048,46 10,46.4476 10,47 C10,47.5524 10.5267048,48 11.1767309,48 Z" id="Path" fill="#000000" fill-rule="nonzero"></path>
                    <path d="M6.99993359,55 C7.55223484,55 8,54.5523379 8,54 C8,53.4477949 7.55223484,53 6.99993359,53 C6.44763233,53 6,53.4476621 6,54 C6,54.5523379 6.44776516,55 6.99993359,55 Z" id="Path" fill="#000000" fill-rule="nonzero"></path>
                    <path d="M6.99993359,42 C7.55223484,42 8,41.5523379 8,41 C8,40.4476621 7.55223484,40 6.99993359,40 C6.44763233,40 6,40.4476621 6,41 C6,41.5523379 6.44776516,42 6.99993359,42 Z" id="Path" fill="#000000" fill-rule="nonzero"></path>
                    <path d="M6.99993359,48 C7.55223484,48 8,47.5523379 8,47 C8,46.4476621 7.55223484,46 6.99993359,46 C6.44763233,46 6,46.4476621 6,47 C6,47.5523379 6.44776516,48 6.99993359,48 Z" id="Path" fill="#000000" fill-rule="nonzero"></path>
                    <path d="M6.99993359,61 C7.55223484,61 8,60.5523379 8,60 C8,59.4476621 7.55223484,59 6.99993359,59 C6.44763233,59 6,59.4476621 6,60 C6,60.5523379 6.44776516,61 6.99993359,61 Z" id="Path" fill="#000000" fill-rule="nonzero"></path>
                    <path d="M6.99993359,67 C7.55223484,67 8,66.5523379 8,66 C8,65.4476621 7.55223484,65 6.99993359,65 C6.44763233,65 6,65.4476621 6,66 C6,66.5522051 6.44776516,67 6.99993359,67 Z" id="Path" fill="#000000" fill-rule="nonzero"></path>
                    <path d="M6.99993359,74 C7.55223484,74 8,73.5523379 8,73 C8,72.4477949 7.55223484,72 6.99993359,72 C6.44763233,72 6,72.4476621 6,73 C6,73.5522051 6.44776516,74 6.99993359,74 Z" id="Path" fill="#000000" fill-rule="nonzero"></path>
                    <path d="M74.1196934,18.4564063 C73.6437181,17.8579687 73.1938539,17.2925 72.9763147,16.7715625 C72.7416302,16.2092188 72.6491407,15.46625 72.5513031,14.679375 C72.379694,13.3009375 72.1852772,11.7385938 71.0876714,10.6484375 C69.9900656,9.55828125 68.4171137,9.36515625 67.0294556,9.1946875 C66.2371597,9.0975 65.4889066,9.005625 64.9228012,8.7725 C64.3982217,8.55640625 63.8291278,8.10984375 63.2265299,7.636875 C62.397427,6.98609375 61.4855868,6.2715625 60.4074856,5.94734375 L60.4074856,5.5928125 C60.4076429,2.5090625 57.8816395,0 54.7767899,0 L5.63085304,0 C2.52600338,0 0,2.5090625 0,5.59296875 L0,10.11625 C0,10.7635938 0.528039936,11.288125 1.17971389,11.288125 C1.83138784,11.288125 2.35942778,10.7635938 2.35942778,10.11625 L2.35942778,5.59296875 C2.35942778,3.80125 3.82699185,2.34375 5.63085304,2.34375 L54.7767899,2.34375 C56.580651,2.34375 58.0482151,3.80125 58.0482151,5.59296875 L58.0482151,5.94765625 C56.9704285,6.27203125 56.0589029,6.98625 55.2298,7.63703125 C54.6272021,8.10984375 54.0581082,8.5565625 53.533686,8.77265625 C52.9675806,9.005625 52.2193274,9.0975 51.4270316,9.19484375 C50.0393735,9.36515625 48.4665789,9.55828125 47.3688158,10.6484375 C46.2710527,11.73875 46.0766359,13.3010938 45.9050268,14.6795313 C45.8071892,15.46625 45.7146996,16.209375 45.4800152,16.7717188 C45.262476,17.2926563 44.8127691,17.858125 44.3366365,18.4565625 C43.4551543,19.5645313 42.4563299,20.8203125 42.4563299,22.4279688 C42.4563299,24.035625 43.4553116,25.2914063 44.3366365,26.399375 C44.8126118,26.9978125 45.262476,27.5632813 45.4800152,28.0842188 C45.7146996,28.6465625 45.8071892,29.3895313 45.9050268,30.1765625 C46.0766359,31.5548437 46.2710527,33.1171875 47.3686585,34.2073437 C48.4662643,35.2976563 50.0392162,35.490625 51.4268743,35.6610937 C51.8405606,35.711875 52.2415061,35.7617188 52.6116216,35.8304688 L52.6116216,53.5440625 C52.6116216,54.2382812 53.0017137,54.8582813 53.6297934,55.1620313 C54.2577157,55.46625 54.9896102,55.3890625 55.5403007,54.9607813 L58.0480578,53.0103125 L58.0480578,74.4071875 C58.0480578,76.1989062 56.5804937,77.6564063 54.7766326,77.6564063 L5.63085304,77.6564063 C3.82699185,77.6564063 2.35942778,76.1989063 2.35942778,74.4071875 L2.35942778,15.2767188 C2.35942778,14.629375 1.83138784,14.1048438 1.17971389,14.1048438 C0.528039936,14.1048438 5.58824756e-16,14.629375 5.58824756e-16,15.2767188 L5.58824756e-16,74.4070313 C5.58824756e-16,77.4909375 2.52600338,80 5.63085304,80 L54.7767899,80 C57.8816395,80 60.4076429,77.4909375 60.4076429,74.4070313 L60.4076429,53.0101562 L62.9154,54.9604687 C63.2427313,55.2151562 63.6343963,55.3457812 64.0304656,55.3457812 C64.3003841,55.3457812 64.5721902,55.285 64.8270084,55.1617187 C65.4552454,54.8579687 65.845652,54.2379688 65.845652,53.5439062 L65.845652,40.46625 C65.845652,39.8189062 65.3176121,39.294375 64.6659381,39.294375 C64.0142642,39.294375 63.4862243,39.8189062 63.4862243,40.46625 L63.4862243,52.4279687 L60.3502301,49.9890625 C60.0332803,49.7398437 59.6346944,49.6025 59.2277717,49.6025 C58.8208491,49.6025 58.4222631,49.7398438 58.1103467,49.985 L54.9708921,52.4267187 L54.9708921,37.0165625 C55.0564607,37.083125 55.1425012,37.1504688 55.2296427,37.21875 C56.3451801,38.094375 57.6095188,39.0864063 59.2280863,39.0864063 C60.8464965,39.0864063 62.1108352,38.0942188 63.2263726,37.2189063 C63.8289705,36.7460938 64.3982217,36.2992188 64.9226439,36.083125 C65.4887493,35.8501562 66.2370025,35.7582813 67.0292983,35.6609375 C68.4169564,35.490625 69.989751,35.2975 71.0876714,34.2073438 C72.1851199,33.1170313 72.3795367,31.5546875 72.5511458,30.1764063 C72.6491407,29.3895313 72.7416302,28.6464063 72.9763147,28.0840625 C73.1938539,27.563125 73.6435608,26.9976563 74.1196934,26.3992188 C75.0011756,25.29125 76,24.0354688 76,22.4278125 C76,20.8201563 75.0010183,19.564375 74.1196934,18.4564063 Z M72.2684863,24.9460938 C71.7135489,25.64375 71.1397361,26.365 70.7969899,27.18625 C70.4394579,28.0425 70.3225876,28.9810937 70.2096496,29.88875 C70.0726455,30.9896875 69.9433489,32.0295312 69.4195559,32.5498438 C68.8956057,33.0701562 67.8486489,33.1985938 66.7401897,33.3346875 C65.8263047,33.446875 64.8815898,33.5628125 64.0192976,33.9179688 C63.1925541,34.2584375 62.4664796,34.8282813 61.7641566,35.3795312 C60.8708772,36.0803125 60.0273031,36.7425 59.2284009,36.7425 C58.4294986,36.7425 57.5859246,36.0804688 56.6926452,35.3795312 C55.9903222,34.8284375 55.2642476,34.2584375 54.4375041,33.9179688 C54.3805633,33.8945312 54.1830005,33.8198438 54.1403735,33.8067188 C53.3606613,33.5373438 52.5265249,33.4340625 51.7164547,33.3346875 C50.6079956,33.1985938 49.5610388,33.07 49.0370885,32.5496875 C48.5134529,32.0295313 48.3839989,30.9896875 48.2469948,29.8889063 C48.1340569,28.9810938 48.0173439,28.0428125 47.6598119,27.18625 C47.3169084,26.365 46.7432529,25.64375 46.1883155,24.9460938 C45.4828465,24.0589063 44.8162296,23.2210938 44.8162296,22.4278125 C44.8162296,21.6345313 45.4826893,20.7967188 46.1883155,19.9095313 C46.7432529,19.211875 47.3170657,18.490625 47.6598119,17.669375 C48.0173439,16.813125 48.1342142,15.8745313 48.2469948,14.966875 C48.3839989,13.8659375 48.5134529,12.8260938 49.0372458,12.3057813 C49.5611961,11.7854688 50.6081529,11.6570313 51.716612,11.5209375 C52.6304971,11.40875 53.5752119,11.2928125 54.4375041,10.9376563 C55.2642476,10.5971875 55.9903222,10.0273438 56.6926452,9.47609375 C57.584037,8.7765625 58.4261954,8.1159375 59.223682,8.1134375 C59.2250977,8.1134375 59.2266706,8.11359375 59.2280863,8.11359375 C59.2296592,8.11359375 59.2312322,8.1134375 59.2328052,8.1134375 C60.030449,8.11578125 60.8726075,8.7765625 61.7641566,9.47609375 C62.4664796,10.0271875 63.1925541,10.5971875 64.0192976,10.9376563 C64.8814325,11.2928125 65.826462,11.4089063 66.740347,11.5209375 C67.8488062,11.6570313 68.895763,11.785625 69.4195559,12.3059375 C69.9433489,12.82625 70.0728028,13.8659375 70.2098069,14.966875 C70.3227449,15.8745313 70.4394579,16.8129688 70.7969899,17.669375 C71.1398934,18.490625 71.7135489,19.211875 72.2684863,19.9095313 C72.9739552,20.7967188 73.6405722,21.6345313 73.6405722,22.4278125 C73.6405722,23.2210938 72.9741125,24.0590625 72.2684863,24.9460938 Z" id="Shape" fill="#000000" fill-rule="nonzero"></path>
                    <path d="M56.1644225,18.0721926 C58.5251858,15.569707 60.5457489,15.569707 62.2261119,18.0721926 C64.7466565,21.825921 67.1539254,16.7799856 67.1539254,19.7312516 C67.1539254,20.97436 64.9349553,21.6169563 64.3617328,23.7559131 C64.1390418,24.5868759 64.3517975,26.3349049 65,29 L54,29 C54.5278995,26.1712738 54.7029111,24.4232448 54.5250347,23.7559131 C53.7966792,21.0233714 52.0340717,20.9762631 52.2806656,19.7312516 C52.617593,18.0301617 53.9121786,17.477142 56.1644225,18.0721926 Z" id="Rectangle" fill="#FFCA13"></path>
                    <path d="M66.9355129,18.3859649 L62.9945127,17.2237244 L60.7157987,13.6763238 C60.4435636,13.252696 59.9892723,13 59.5002374,13 C59.0112026,13 58.5567569,13.2528569 58.2846762,13.6763238 L56.0059622,17.2237244 L52.0646531,18.3861259 C51.5939938,18.5250282 51.2227782,18.897634 51.0717595,19.3824239 C50.9207409,19.8672139 51.0112285,20.395944 51.3135747,20.7960728 L53.8464571,24.1508128 L53.6892618,28.4155802 C53.6702687,28.9251569 53.8950981,29.4083374 54.2908658,29.7081925 C54.5448798,29.9005311 54.8458362,30 55.1501898,30 C55.320356,30 55.4914487,29.9689361 55.6557471,29.9058426 L59.4999286,28.4318365 L63.3438013,29.9056816 C63.8028795,30.0820859 64.3129149,30.0080476 64.7086826,29.7085144 C65.1044503,29.4089812 65.3295885,28.9259617 65.3107498,28.416224 L65.1535545,24.1506519 L67.6865914,20.7959118 C67.9889375,20.3953002 68.0792708,19.866892 67.9280977,19.382102 C67.7775423,18.8973121 67.4063267,18.5248672 66.9355129,18.3859649 Z M63.1388915,22.9156607 C62.9248712,23.1995815 62.814155,23.5546435 62.8272804,23.9166264 L62.9474159,27.1813939 L60.0053315,26.0532754 C59.6793598,25.928215 59.320343,25.928376 58.9949889,26.0531144 L56.0525957,27.1813939 L56.1728857,23.9154998 C56.1858566,23.5548044 56.074986,23.1997425 55.8605025,22.9148559 L53.9219665,20.3473362 L56.9390969,19.4577499 C57.2727894,19.3590858 57.5629367,19.1392242 57.7558021,18.8388862 L59.4999286,16.1236118 L61.2439007,18.8385643 C61.4369205,19.1390633 61.7270678,19.3589248 62.061378,19.4579108 L65.0778908,20.3473362 L63.1388915,22.9156607 Z" id="Shape" fill="#000000" fill-rule="nonzero"></path>
                </g>
            </g>
        </g>
    </g>
</svg>