<?xml version="1.0" encoding="UTF-8"?>
<svg width="99px" height="99px" viewBox="0 0 99 99" version="1.1" xmlns="http://www.w3.org/2000/svg" xmlns:xlink="http://www.w3.org/1999/xlink">
    <!-- Generator: Sketch 52.1 (67048) - http://www.bohemiancoding.com/sketch -->
    <title>Group 41</title>
    <desc>Created with Sketch.</desc>
    <g id="Page-1" stroke="none" stroke-width="1" fill="none" fill-rule="evenodd">
        <g id="Web-Sistem---Landing-Page-" transform="translate(-291.000000, -6266.000000)">
            <g id="Group-41" transform="translate(291.000000, 6266.000000)">
                <circle id="Oval" fill="#FFF4CF" cx="49.5" cy="49.5" r="49.5"></circle>
                <g id="experience" transform="translate(10.000000, 10.000000)" fill-rule="nonzero">
                    <circle id="Oval-2" fill="#000000" cx="8.5" cy="8.5" r="2.5"></circle>
                    <rect id="Rectangle" fill="#FFCA13" x="2" y="2" width="55" height="13"></rect>
                    <rect id="Rectangle-Copy-8" fill="#FFCA13" x="7" y="33" width="40" height="21"></rect>
                    <circle id="Oval" fill="#000000" cx="15.5" cy="8.5" r="2.5"></circle>
                    <circle id="Oval" fill="#000000" cx="22.5" cy="8.5" r="2.5"></circle>
                    <path d="M45.8136005,60 L14.1863995,60 C13.5311383,60 13,60.4476892 13,61 C13,61.5523108 13.5311383,62 14.1863995,62 L45.8136005,62 C46.4688617,62 47,61.5523108 47,61 C47,60.4476892 46.4688617,60 45.8136005,60 Z" id="Path" fill="#000000"></path>
                    <path d="M14.1863995,24 L45.8136005,24 C46.4688617,24 47,23.5523108 47,23 C47,22.4476892 46.4688617,22 45.8136005,22 L14.1863995,22 C13.5311383,22 13,22.4476892 13,23 C13,23.5523108 13.5309793,24 14.1863995,24 Z" id="Path" fill="#000000"></path>
                    <path d="M14.1916742,29 L38.8083258,29 C39.4665003,29 40,28.5523108 40,28 C40,27.4476892 39.4665003,27 38.8083258,27 L14.1916742,27 C13.5334997,27 13,27.4476892 13,28 C13,28.5523108 13.53334,29 14.1916742,29 Z" id="Path" fill="#000000"></path>
                    <path d="M79.5028645,57.6500437 C79.4582276,57.3797317 79.3967733,57.0966072 79.3202304,56.808639 L76.2141942,45.1139744 C76.0485348,44.4911631 75.4061722,44.1189763 74.7801554,44.2841323 C74.1536672,44.4485069 73.7799118,45.0867869 73.9452569,45.7095982 L77.0516075,57.4042629 C77.1089753,57.6206687 77.1545552,57.8303558 77.1870899,58.0267617 C77.4964047,59.9089455 77.6534197,61.8300355 77.6534197,63.7367505 L77.6534197,73.3914192 C77.6534197,73.597825 77.4844596,73.7657934 77.2743204,73.7657934 L61.989328,73.7964184 C61.7817036,73.7964184 61.6127435,73.6284499 61.6127435,73.4220441 L61.6127435,62.7955024 C61.6127435,61.8765979 60.982326,61.0961307 60.0801578,60.8975373 L56.4802867,60.1047264 C53.8448239,59.5242587 51.9991513,57.2448882 51.9919214,54.5614559 C51.9892494,53.5350517 51.6518008,52.5427099 51.0418157,51.7670864 L42.7577427,41.2363257 C42.5238705,40.9391388 42.5769947,40.5080459 42.875779,40.2755463 C43.7499705,39.5961727 44.794851,39.2380484 45.9126594,39.2380484 C45.9340348,39.2380484 45.9554103,39.2382046 45.9767857,39.2385171 C47.4237126,39.2414859 48.8819559,39.9594532 49.7847527,41.1155447 C49.7847527,41.1155447 51.7659078,43.633821 53.101714,45.328349 C54.0775959,46.5660028 55.5446408,47.2842826 57.1374235,47.2986576 C60.0012574,47.2986576 62.3349496,44.9825684 62.3395076,42.1353865 L62.3544389,32.8927483 C62.3550676,32.4624366 62.2804108,32.0396249 62.1321975,31.635407 L60.1417693,26.2093238 L60.1417693,13.5276298 L68.272285,31.5996258 C68.714096,32.5814989 69.2953186,33.4939971 69.9997642,34.3114955 C70.8682976,35.3191498 71.5073596,36.5300849 71.8481088,37.8133636 L72.6224961,40.728983 C72.7878412,41.3517942 73.4297323,41.7235123 74.0563777,41.5588251 C74.6828659,41.3944504 75.0566213,40.7561704 74.8912762,40.1333591 L74.1168889,37.2178961 C73.6863944,35.5968055 72.879001,34.0669647 71.7817822,32.7938422 C71.2241354,32.146656 70.7640924,31.4244699 70.4143844,30.6471276 L62.1647321,12.3102885 C61.7474401,11.3829465 61.0324639,10.642948 60.1419265,10.1906051 L60.1419265,2.72171343 C60.1417693,1.22093512 58.913626,2.08166411e-15 57.4041446,2.08166411e-15 L48.9353944,2.08166411e-15 C48.2873736,2.08166411e-15 47.7621042,0.52218648 47.7621042,1.16640397 C47.7621042,1.81062146 48.2873736,2.33280794 48.9353944,2.33280794 L57.4041446,2.33280794 C57.6197848,2.33280794 57.795189,2.5071826 57.795189,2.72155718 L57.795189,15.3966887 L2.34658033,15.3966887 L2.34658033,2.72171343 C2.34658033,2.50733885 2.52198446,2.33296419 2.73762466,2.33296419 L43.0310651,2.33296419 C43.6790859,2.33296419 44.2043552,1.81077771 44.2043552,1.16656022 C44.2043552,0.52234273 43.6792431,0 43.0310651,0 L2.73778183,0 C1.22814325,0 0,1.22093512 0,2.72171343 L0,77.2782866 C0,78.7790649 1.22814325,80 2.73778183,80 L13.3426589,80 C13.9906797,80 14.515949,79.4778135 14.515949,78.833596 C14.515949,78.1893785 13.9906797,77.6671921 13.3426589,77.6671921 L7.55809476,77.6671921 L7.55809476,69.4631456 C7.55809476,68.8762717 8.03841288,68.3987727 8.6287515,68.3987727 L44.5858121,68.3987727 C45.2327327,68.3987727 45.7591022,68.9220529 45.7591022,69.5651766 L45.7591022,77.6671921 L19.1207789,77.6671921 C18.4727581,77.6671921 17.9474888,78.1893785 17.9474888,78.833596 C17.9474888,79.4778135 18.4727581,80 19.1207789,80 L57.4041446,80 C58.913626,80 60.1419265,78.7790649 60.1419265,77.2782866 L60.1419265,75.4051652 C60.6282171,75.8531331 61.277181,76.1295388 61.9916856,76.1295388 L77.2768352,76.0989139 C78.778458,76.0989139 80,74.8845412 80,73.3917317 L80,63.737063 C80,61.704567 79.8326117,59.6567585 79.5028645,57.6500437 Z M41.4302666,38.4382062 C40.7916762,38.9347677 40.3858576,39.6486726 40.2873107,40.4488272 C40.1889209,41.2488257 40.409905,42.0389804 40.9092409,42.6738229 L45.7592594,48.8392796 C45.7592594,48.8417796 45.7589451,48.8442796 45.7589451,48.8469358 L45.7589451,52.3023978 C45.7589451,52.8892717 45.2786269,53.3667708 44.6882883,53.3667708 L8.6287515,53.3667708 C8.03841288,53.3667708 7.55809476,52.8892717 7.55809476,52.3023978 L7.55809476,35.2433687 C7.55809476,34.6564948 8.03841288,34.1789957 8.6287515,34.1789957 L44.5858121,34.1789957 C45.2327327,34.1789957 45.7591022,34.702276 45.7591022,35.3453997 L45.7591022,36.9083654 C44.1947677,36.9402404 42.665797,37.4778956 41.4302666,38.4382062 Z M57.4041446,77.6670358 L48.1056826,77.6670358 L48.1056826,69.5650204 C48.1056826,67.6354929 46.5265739,66.0658085 44.5858121,66.0658085 L8.6287515,66.0658085 C6.74441449,66.0658085 5.21151443,67.5897117 5.21151443,69.4629893 L5.21151443,77.6670358 L2.73778183,77.6670358 C2.52214163,77.6670358 2.3467375,77.4926611 2.3467375,77.2782866 L2.3467375,17.7294966 L57.7953461,17.7294966 L57.7953461,44.8885061 C57.5869359,44.9374122 57.3709813,44.9658497 57.1484255,44.9658497 C56.2838215,44.9578809 55.4822435,44.5656942 54.9489583,43.889133 C53.6145667,42.1967926 51.6363979,39.6819537 51.6360836,39.6816412 C50.7299861,38.5214873 49.4829822,37.6750827 48.1059969,37.2393023 L48.1059969,35.3450872 C48.1059969,33.415716 46.5268882,31.8458753 44.5861264,31.8458753 L8.6287515,31.8458753 C6.74441449,31.8458753 5.21151443,33.3697786 5.21151443,35.2430562 L5.21151443,52.3019291 C5.21151443,54.1752067 6.74441449,55.69911 8.6287515,55.69911 L44.6884455,55.69911 C46.5727825,55.69911 48.1056826,54.1752067 48.1056826,52.3019291 L48.1056826,51.821305 L49.1933139,53.2039586 C49.4876973,53.5781766 49.6439265,54.0495819 49.645341,54.5673934 C49.6554,58.350511 52.2573851,61.5639423 55.9727778,62.3820657 L57.795189,62.7834711 L57.795189,77.2778178 C57.795189,77.4926611 57.6197848,77.6670358 57.4041446,77.6670358 Z" id="Shape" fill="#000000"></path>
                    <path d="M7.5,57 C5.570089,57 4,58.570089 4,60.5 C4,62.429911 5.570089,64 7.5,64 C9.429911,64 11,62.429911 11,60.5 C11,58.570089 9.43006993,57 7.5,57 Z M7.5,61.6271456 C6.87857597,61.6271456 6.37285442,61.121583 6.37285442,60.5 C6.37285442,59.878417 6.87841704,59.3728544 7.5,59.3728544 C8.12158296,59.3728544 8.62714558,59.878417 8.62714558,60.5 C8.62714558,61.121583 8.12158296,61.6271456 7.5,61.6271456 Z" id="Shape" fill="#000000"></path>
                    <path d="M7.5,27 C9.429911,27 11,25.429911 11,23.5 C11,21.570089 9.429911,20 7.5,20 C5.570089,20 4,21.570089 4,23.5 C4,25.429911 5.570089,27 7.5,27 Z M7.5,22.3728544 C8.12142403,22.3728544 8.62714558,22.878417 8.62714558,23.5 C8.62714558,24.121424 8.12158296,24.6271456 7.5,24.6271456 C6.87841704,24.6271456 6.37285442,24.121583 6.37285442,23.5 C6.37301335,22.878576 6.87857597,22.3728544 7.5,22.3728544 Z" id="Shape" fill="#000000"></path>
                </g>
            </g>
        </g>
    </g>
</svg>