<?xml version="1.0" encoding="UTF-8"?>
<svg width="60px" height="60px" viewBox="0 0 60 60" version="1.1" xmlns="http://www.w3.org/2000/svg" xmlns:xlink="http://www.w3.org/1999/xlink">
    <title>D8FCC7A6-AD8F-40DB-A48D-6526BBB53450@2x</title>
    <g id="Index-Case-Study" stroke="none" stroke-width="1" fill="none" fill-rule="evenodd">
        <g id="Index-Studi-Kasus" transform="translate(-252.000000, -612.000000)">
            <g id="Group-8" transform="translate(220.000000, 592.000000)">
                <g id="Icon" transform="translate(32.000000, 20.000000)">
                    <rect id="Rectangle" fill="#FFFFFF" x="0" y="0" width="60" height="60" rx="10"></rect>
                    <g id="download-to-storage-drive" transform="translate(10.000000, 12.000000)" fill-rule="nonzero">
                        <polygon id="Path" fill="#FFCA00" points="0 30.2352941 40 30.2352941 40 34.9411765 0 34.9411765"></polygon>
                        <path d="M36.9858873,22.2906822 C36.591127,21.8956253 36.1109491,21.6979486 35.5466881,21.6979486 L25.7238013,21.6979486 L22.8448097,24.576866 C22.0262234,25.3670539 21.066609,25.7623332 19.9658181,25.7623332 C18.8652496,25.7623332 17.9053386,25.3675729 17.0868265,24.576866 L14.2289669,21.6979486 L4.38517054,21.6979486 C3.82076125,21.6979486 3.34095403,21.8958478 2.94567474,22.2906822 C2.5504696,22.685739 2.35294118,23.1656204 2.35294118,23.7304004 L2.35294118,30.50435 C2.35294118,31.0689076 2.5504696,31.5487148 2.94567474,31.9438458 C3.34087988,32.3389026 3.8206871,32.5362827 4.38517054,32.5362827 L35.5467622,32.5362827 C36.1110232,32.5362827 36.5912012,32.3389026 36.9859614,31.9438458 C37.3813149,31.5487148 37.578695,31.0689076 37.578695,30.50435 L37.578695,23.7304004 C37.578695,23.1656204 37.3813149,22.685739 36.9858873,22.2906822 Z M29.047825,29.4246911 C28.7793376,29.6928819 28.4616906,29.826866 28.0947355,29.826866 C27.7277805,29.826866 27.4105783,29.6928819 27.1421651,29.4246911 C26.8741967,29.1565002 26.7402126,28.8390756 26.7402126,28.4723431 C26.7402126,28.1054622 26.8741967,27.7875185 27.1421651,27.5197726 C27.4105783,27.2513594 27.7277805,27.1170786 28.0947355,27.1170786 C28.4616906,27.1170786 28.7792635,27.2513594 29.047825,27.5197726 C29.3157192,27.7874444 29.4497776,28.105388 29.4497776,28.4723431 C29.4497776,28.8390015 29.3157192,29.1565002 29.047825,29.4246911 Z M34.4668067,29.4246911 C34.1988384,29.6928819 33.8811913,29.826866 33.5141621,29.826866 C33.1472813,29.826866 32.8298566,29.6928819 32.5615917,29.4246911 C32.2936975,29.1565002 32.1597133,28.8390756 32.1597133,28.4723431 C32.1597133,28.1054622 32.2936975,27.7875185 32.5615917,27.5197726 C32.8297825,27.2513594 33.1472071,27.1170786 33.5141621,27.1170786 C33.8811172,27.1170786 34.1987642,27.2513594 34.4668067,27.5197726 C34.7349975,27.7874444 34.8692042,28.105388 34.8692042,28.4723431 C34.8692042,28.8390015 34.73522,29.1565002 34.4668067,29.4246911 Z" id="Shape" stroke="#000000"></path>
                        <path d="M19.0132477,22.6504449 C19.2674246,22.9183391 19.5849234,23.0523974 19.9658181,23.0523974 C20.3470094,23.0523974 20.6641374,22.9183391 20.9183885,22.6504449 L30.402348,13.1664113 C30.839743,12.7571923 30.9387296,12.2631488 30.6987148,11.6845032 C30.459219,11.1342561 30.0427336,10.8590954 29.4497776,10.8587988 L24.0302768,10.8587988 L24.0302768,1.37491349 C24.0302768,1.00803262 23.895996,0.690459713 23.6283243,0.422343055 C23.359911,0.154152249 23.0424864,0.0200197726 22.6757538,0.0200197726 L17.2558824,0.0200197726 C16.8891498,0.0200197726 16.5715769,0.154152249 16.3033119,0.422343055 C16.0352694,0.690459713 15.9011369,1.00795848 15.9011369,1.37491349 L15.9011369,10.858873 L10.4817845,10.858873 C9.88875433,10.858873 9.47263964,11.1343302 9.23269896,11.6845774 C8.99290657,12.2630005 9.09159664,12.7572664 9.52921404,13.1664854 L19.0132477,22.6504449 Z" id="Path" stroke="#000000"></path>
                    </g>
                </g>
            </g>
        </g>
    </g>
</svg>