<svg width="309" height="201" xmlns="http://www.w3.org/2000/svg"><g fill="none" fill-rule="evenodd"><path d="M187.178 161h-56.356s2.337 36-8.822 36h74c-11.159 0-8.822-36-8.822-36" fill="#E0EBFC"/><path d="M129 183l56.82-11.203c-.104-5.54.18-9.797.18-9.797h-56.36s.752 11.264-.64 21" fill="#277EF1"/><path d="M262.57 172H55.43c-5.208 0-9.43-4.213-9.43-9.41V33.41c0-5.197 4.222-9.41 9.43-9.41h207.14c5.208 0 9.43 4.213 9.43 9.41v129.18c0 5.197-4.222 9.41-9.43 9.41" fill="#E0EBFC"/><path d="M257.46 167H59.54c-4.164 0-7.54-3.36-7.54-7.508V37.508C52 33.36 55.376 30 59.54 30h197.92c4.164 0 7.54 3.361 7.54 7.508v121.984c0 4.147-3.376 7.508-7.54 7.508" fill="#FFF"/><path d="M257.46 167H59.54c-4.164 0-7.54-3.36-7.54-7.508V37.508C52 33.36 55.376 30 59.54 30h197.92c4.164 0 7.54 3.361 7.54 7.508v121.984c0 4.147-3.376 7.508-7.54 7.508zM52 46.5h213" stroke="#277EF1" stroke-width="2"/><path d="M240.36 41H93.64C91.63 41 90 39.433 90 37.5s1.63-3.5 3.64-3.5h146.72c2.01 0 3.64 1.567 3.64 3.5s-1.63 3.5-3.64 3.5" fill="#E0EBFC"/><path d="M62 37.5a1.5 1.5 0 11-3 0 1.5 1.5 0 013 0zM71 37.5a1.5 1.5 0 11-3 0 1.5 1.5 0 013 0zM80 37.5a1.5 1.5 0 11-3 0 1.5 1.5 0 013 0zM217.857 96H99.143C94.646 96 91 92.418 91 88s3.646-8 8.143-8h118.714c4.498 0 8.143 3.582 8.143 8s-3.645 8-8.143 8z" stroke="#277EF1" stroke-width="1.5"/><path d="M217.159 80H204v16h13.159c4.33 0 7.841-3.581 7.841-8 0-4.418-3.51-8-7.841-8" fill="#277EF1"/><path d="M216.55 87.208c0 1.666-1.415 3.021-3.154 3.021-1.74 0-3.156-1.355-3.156-3.02 0-1.667 1.416-3.022 3.156-3.022 1.74 0 3.154 1.355 3.154 3.021m3.164 5.197l-2.799-2.68c.567-.724.876-1.61.876-2.517 0-2.32-1.972-4.208-4.395-4.208-2.424 0-4.396 1.888-4.396 4.208 0 2.321 1.972 4.209 4.396 4.209.703 0 1.4-.165 2.026-.479l2.912 2.789c.185.176.43.273.69.273.26 0 .505-.097.69-.273a.91.91 0 000-1.322" fill="#FFF"/><path d="M132.494 92H98.506A3.503 3.503 0 0195 88.5c0-1.933 1.57-3.5 3.506-3.5h33.988A3.503 3.503 0 01136 88.5c0 1.933-1.57 3.5-3.506 3.5M111 201h94v-5h-94zM142.061 115H118.94c-2.175 0-3.939-2.015-3.939-4.5s1.764-4.5 3.94-4.5h23.121c2.175 0 3.939 2.015 3.939 4.5s-1.764 4.5-3.939 4.5" fill="#E0EBFC"/><path d="M120 111.5h22" stroke="#277EF1" stroke-width="1.5"/><path d="M197.136 115h-40.272c-2.134 0-3.864-2.015-3.864-4.5s1.73-4.5 3.864-4.5h40.272c2.134 0 3.864 2.015 3.864 4.5s-1.73 4.5-3.864 4.5" fill="#E0EBFC"/><path d="M161 111.5h31M222 52.5h9M235 52.5h9" stroke="#277EF1" stroke-width="1.5"/><path fill="#E0EBFC" d="M248 51h1v-1h-1zM249 51h1v-1h-1zM250 51h1v-1h-1zM248 53h1v-1h-1zM249 53h1v-1h-1zM250 53h1v-1h-1zM248 56h1v-1h-1zM249 56h1v-1h-1zM250 56h1v-1h-1zM260 52a3 3 0 11-6 0 3 3 0 016 0M104.635 60H46v22h58.635A2.372 2.372 0 00107 79.622V62.378A2.371 2.371 0 00104.635 60"/><path d="M260 34a1 1 0 11-1.999.001A1 1 0 01260 34M260 37a1 1 0 11-2 0 1 1 0 012 0M260 42a1 1 0 11-2 0 1 1 0 012 0" fill="#277EF1"/><path d="M193 196.5h-48M139 196.5h-15" stroke="#277EF1" stroke-width="1.5"/><path d="M254.358 157H153.642c-2.012 0-3.642-1.597-3.642-3.567v-25.866c0-1.97 1.63-3.567 3.642-3.567h100.716c2.012 0 3.642 1.596 3.642 3.567v25.866c0 1.97-1.63 3.567-3.642 3.567" fill="#E0EBFC"/><path d="M249.358 155H148.642c-2.012 0-3.642-1.597-3.642-3.567v-25.866c0-1.97 1.63-3.567 3.642-3.567h100.716c2.011 0 3.642 1.597 3.642 3.567v25.866c0 1.97-1.63 3.567-3.642 3.567" fill="#FFF"/><path d="M249.358 155H148.642c-2.012 0-3.642-1.597-3.642-3.567v-25.866c0-1.97 1.63-3.567 3.642-3.567h100.716c2.011 0 3.642 1.597 3.642 3.567v25.866c0 1.97-1.63 3.567-3.642 3.567z" stroke="#277EF1" stroke-width="1.5"/><path d="M246.06 136h-63.12c-1.07 0-1.94-.672-1.94-1.5s.87-1.5 1.94-1.5h63.12c1.071 0 1.94.672 1.94 1.5s-.869 1.5-1.94 1.5M246.06 143h-63.12c-1.07 0-1.94-.672-1.94-1.5 0-.829.87-1.5 1.94-1.5h63.12c1.071 0 1.94.671 1.94 1.5 0 .828-.869 1.5-1.94 1.5M246.06 129h-63.12c-1.07 0-1.94-.672-1.94-1.5s.87-1.5 1.94-1.5h63.12c1.071 0 1.94.672 1.94 1.5s-.869 1.5-1.94 1.5M197.043 150h-14.086c-1.08 0-1.957-.672-1.957-1.5 0-.829.876-1.5 1.957-1.5h14.086c1.08 0 1.957.671 1.957 1.5 0 .828-.876 1.5-1.957 1.5" fill="#E0EBFC"/><path d="M170.175 151h-19.35a2.825 2.825 0 01-2.825-2.825v-19.35a2.825 2.825 0 012.825-2.825h19.35a2.825 2.825 0 012.825 2.825v19.35a2.825 2.825 0 01-2.825 2.825" fill="#277EF1"/><path fill="#FFF" d="M158 130l-7 13h14zM165.582 136L164 139.224l2.835 5.776H170zM170 133.5a1.5 1.5 0 11-3 0 1.5 1.5 0 013 0"/><path d="M248.496 58h-71.992C174.57 58 173 56.452 173 54.541V29.458c0-1.91 1.57-3.458 3.504-3.458h71.992c1.935 0 3.504 1.548 3.504 3.458v25.083c0 1.91-1.569 3.459-3.504 3.459" fill="#277EF1"/><path d="M243.497 53h-71.993C169.57 53 168 51.452 168 49.541V24.46c0-1.91 1.57-3.459 3.504-3.459h71.993c1.934 0 3.503 1.548 3.503 3.459V49.54c0 1.91-1.569 3.459-3.503 3.459" fill="#FFF"/><path d="M243.497 53h-71.993C169.57 53 168 51.452 168 49.541V24.46c0-1.91 1.57-3.459 3.504-3.459h71.993c1.934 0 3.503 1.548 3.503 3.459V49.54c0 1.91-1.569 3.459-3.503 3.459z" stroke="#277EF1" stroke-width="1.5"/><path d="M240.114 36h-36.228c-1.042 0-1.886-.672-1.886-1.5s.844-1.5 1.886-1.5h36.228c1.042 0 1.886.672 1.886 1.5s-.844 1.5-1.886 1.5M240.114 43h-36.228c-1.042 0-1.886-.672-1.886-1.5s.844-1.5 1.886-1.5h36.228c1.042 0 1.886.672 1.886 1.5s-.844 1.5-1.886 1.5M240.114 30h-36.228c-1.042 0-1.886-.672-1.886-1.5 0-.829.844-1.5 1.886-1.5h36.228c1.042 0 1.886.671 1.886 1.5 0 .828-.844 1.5-1.886 1.5M217.152 49h-13.304c-1.021 0-1.848-.672-1.848-1.5s.827-1.5 1.848-1.5h13.304c1.02 0 1.848.672 1.848 1.5s-.827 1.5-1.848 1.5" fill="#277EF1"/><path d="M185.55 42.08a5.311 5.311 0 11-3.099-10.16 5.311 5.311 0 013.098 10.16zm9.45-5.753c-.052-.845-.2-1.696-.458-2.541a11.064 11.064 0 00-1.037-2.364l-2.124 1.002a8.612 8.612 0 00-1.472-1.786l1.393-1.893a11.076 11.076 0 00-4.526-2.411l-.793 2.212a8.627 8.627 0 00-2.304-.225L183.327 26a11.044 11.044 0 00-4.905 1.496l1.002 2.122a8.63 8.63 0 00-1.786 1.473l-1.893-1.393a11.072 11.072 0 00-2.41 4.526l2.212.793a8.627 8.627 0 00-.226 2.304l-2.321.352a11.033 11.033 0 001.495 4.905l2.123-1.002a8.63 8.63 0 001.473 1.786l-1.393 1.893a11.076 11.076 0 004.526 2.411l.793-2.212c.746.175 1.52.255 2.304.225l.352 2.321a11.017 11.017 0 004.906-1.495l-1.003-2.123a8.646 8.646 0 001.787-1.473l1.892 1.393a11.069 11.069 0 002.41-4.526l-2.211-.793a8.63 8.63 0 00.225-2.304l2.321-.352z" fill="#E0EBFC"/><path d="M104.599 77H34.4C33.075 77 32 75.984 32 74.73V58.27c0-1.254 1.075-2.27 2.401-2.27H104.6c1.326 0 2.401 1.016 2.401 2.27v16.46c0 1.254-1.075 2.27-2.401 2.27" fill="#FFF"/><path d="M104.599 77H34.4C33.075 77 32 75.984 32 74.73V58.27c0-1.254 1.075-2.27 2.401-2.27H104.6c1.326 0 2.401 1.016 2.401 2.27v16.46c0 1.254-1.075 2.27-2.401 2.27z" stroke="#277EF1" stroke-width="1.5"/><path d="M101.72 65H56.28c-.707 0-1.28-.672-1.28-1.5s.573-1.5 1.28-1.5h45.44c.707 0 1.28.672 1.28 1.5s-.573 1.5-1.28 1.5M101.72 69H56.28c-.707 0-1.28-.671-1.28-1.5 0-.828.573-1.5 1.28-1.5h45.44c.707 0 1.28.672 1.28 1.5 0 .829-.573 1.5-1.28 1.5M101.72 61H56.28c-.707 0-1.28-.671-1.28-1.5 0-.828.573-1.5 1.28-1.5h45.44c.707 0 1.28.672 1.28 1.5 0 .829-.573 1.5-1.28 1.5M86.744 74H57.256C56.562 74 56 73.328 56 72.5s.562-1.5 1.256-1.5h29.488c.694 0 1.256.672 1.256 1.5s-.562 1.5-1.256 1.5" fill="#E0EBFC"/><path d="M48.418 73H37.582A1.582 1.582 0 0136 71.418V60.582c0-.873.708-1.582 1.582-1.582h10.836c.874 0 1.582.709 1.582 1.582v10.836c0 .873-.708 1.582-1.582 1.582" fill="#277EF1"/><path d="M42 62.771v7.458c0 .63.646.993 1.106.621l4.609-3.728c.38-.308.38-.936 0-1.244l-4.609-3.728c-.46-.372-1.106-.009-1.106.621" fill="#FFF"/><path d="M37 112.5a2.5 2.5 0 11-5 0 2.5 2.5 0 015 0" fill="#FFEEF0"/><path d="M309 63.5a3.5 3.5 0 11-7 0 3.5 3.5 0 017 0" fill="#E0EBFC"/><path d="M135 2.5a2.5 2.5 0 11-5 0 2.5 2.5 0 015 0" fill="#FFEEF0"/><path d="M34 110.5a1.5 1.5 0 11-3 0 1.5 1.5 0 013 0zM117 9.5a1.5 1.5 0 11-3 0 1.5 1.5 0 013 0zM25 53.5a1.5 1.5 0 11-3 0 1.5 1.5 0 013 0zM283 72.5a1.5 1.5 0 11-3 0 1.5 1.5 0 013 0zM294 127.5a1.5 1.5 0 11-3 0 1.5 1.5 0 013 0z" stroke="#277EF1" stroke-width="2"/><path d="M35 28c0 5.523-4.477 10-10 10s-10-4.477-10-10 4.477-10 10-10 10 4.477 10 10" fill="#E0EBFC"/><path d="M27.55 27.208c0 1.666-1.415 3.021-3.154 3.021-1.74 0-3.156-1.355-3.156-3.02 0-1.666 1.416-3.021 3.156-3.021 1.74 0 3.155 1.355 3.155 3.02m3.163 5.197l-2.798-2.68c.566-.724.875-1.61.875-2.517 0-2.32-1.972-4.208-4.395-4.208C21.972 23 20 24.888 20 27.208c0 2.32 1.972 4.209 4.396 4.209.703 0 1.4-.166 2.026-.479l2.912 2.788c.185.177.43.274.69.274.26 0 .505-.097.69-.274a.909.909 0 000-1.321" fill="#FFF"/><path d="M234.832 10.253l-.823 3.29c-.07.278.275.533.59.436l3.154-.968c.26-.08.33-.358.137-.549l-2.331-2.321c-.233-.232-.658-.166-.727.112zM97.542 183.01l-3.29.824c-.277.07-.343.494-.111.727l2.323 2.33c.192.191.469.122.548-.138l.967-3.155c.097-.314-.159-.659-.437-.589zM1.035 102.573l1.763 3.233c.149.273.67.254.893-.032l2.23-2.872c.183-.237.035-.51-.295-.539l-3.991-.36c-.398-.037-.749.297-.6.57zM304.645 111.948l3.187-2.13c.27-.18.203-.696-.114-.884l-3.174-1.878c-.262-.155-.53.025-.532.355L304 111.42c-.001.4.376.708.645.529z" stroke="#277EF1" stroke-width="2"/><path d="M123 133.5c0 5.799-4.7 10.5-10.5 10.5s-10.5-4.701-10.5-10.5 4.7-10.5 10.5-10.5 10.5 4.701 10.5 10.5" fill="#E0EBFC"/><path d="M116.044 137h-8.088c-.528 0-.956-.496-.956-1.109v-6.783c0-.612.428-1.108.956-1.108h8.088c.528 0 .956.496.956 1.108v6.783c0 .613-.428 1.109-.956 1.109M120.633 135.974L118 134.67v-3.342l2.633-1.303c.17-.084.367.045.367.242v5.464c0 .196-.197.326-.367.242" fill="#FFF"/><path d="M306 45.5c0 5.799-4.7 10.5-10.5 10.5S285 51.299 285 45.5 289.7 35 295.5 35 306 39.701 306 45.5" fill="#E0EBFC"/><path stroke="#FFF" stroke-width="3.5" stroke-linecap="round" stroke-linejoin="round" d="M289 44.92l4.862 5.08L302 41"/></g></svg>