<?xml version="1.0" encoding="UTF-8"?>
<svg width="309px" height="201px" viewBox="0 0 309 201" version="1.1" xmlns="http://www.w3.org/2000/svg" xmlns:xlink="http://www.w3.org/1999/xlink">
    <!-- Generator: sketchtool 58 (101010) - https://sketch.com -->
    <title>5894C6CE-4F26-4DDB-A157-9DC8C81393BF@1.00x</title>
    <desc>Created with sketchtool.</desc>
    <g id="Blog" stroke="none" stroke-width="1" fill="none" fill-rule="evenodd">
        <g id="SEO---Landing-Page-Copy" transform="translate(-526.000000, -258.000000)">
            <g id="Group-99" transform="translate(527.000000, 258.000000)">
                <path d="M186.177841,161 L129.822159,161 C129.822159,161 132.158958,197 121,197 L195,197 C183.841042,197 186.177841,161 186.177841,161" id="Fill-1" fill="#E0EBFC"></path>
                <path d="M128,183 L184.81968,171.796876 C184.715689,166.257127 185,162 185,162 L128.639828,162 C128.639828,162 129.391843,173.26394 128,183" id="Fill-3" fill="#277EF1"></path>
                <path d="M261.56962,172 L54.4298682,172 C49.2217637,172 45,167.786797 45,162.589253 L45,33.4107471 C45,28.2132032 49.2217637,24 54.4298682,24 L261.56962,24 C266.777724,24 271,28.2132032 271,33.4107471 L271,162.589253 C271,167.786797 266.777724,172 261.56962,172" id="Fill-5" fill="#E0EBFC"></path>
                <path d="M256.459521,167 L58.5404789,167 C54.3759142,167 51,163.639073 51,159.49237 L51,37.5076301 C51,33.3614355 54.3759142,30 58.5404789,30 L256.459521,30 C260.623575,30 264,33.3614355 264,37.5076301 L264,159.49237 C264,163.639073 260.623575,167 256.459521,167" id="Fill-7" fill="#FFFFFF"></path>
                <path d="M256.459521,167 L58.5404789,167 C54.3759142,167 51,163.639073 51,159.49237 L51,37.5076301 C51,33.3614355 54.3759142,30 58.5404789,30 L256.459521,30 C260.623575,30 264,33.3614355 264,37.5076301 L264,159.49237 C264,163.639073 260.623575,167 256.459521,167 Z" id="Stroke-9" stroke="#277EF1" stroke-width="2"></path>
                <path d="M51,46.5 L264,46.5" id="Stroke-11" stroke="#277EF1" stroke-width="2"></path>
                <path d="M239.359871,41 L92.6401292,41 C90.6297026,41 89,39.4330338 89,37.5 C89,35.5669662 90.6297026,34 92.6401292,34 L239.359871,34 C241.370808,34 243,35.5669662 243,37.5 C243,39.4330338 241.370808,41 239.359871,41" id="Fill-13" fill="#E0EBFC"></path>
                <path d="M61,37.5 C61,38.3285526 60.3285526,39 59.5,39 C58.6714474,39 58,38.3285526 58,37.5 C58,36.6714474 58.6714474,36 59.5,36 C60.3285526,36 61,36.6714474 61,37.5 Z" id="Stroke-15" stroke="#277EF1" stroke-width="1.5"></path>
                <path d="M70,37.5 C70,38.3285526 69.3282463,39 68.5001973,39 C67.6717537,39 67,38.3285526 67,37.5 C67,36.6714474 67.6717537,36 68.5001973,36 C69.3282463,36 70,36.6714474 70,37.5 Z" id="Stroke-17" stroke="#277EF1" stroke-width="1.5"></path>
                <path d="M79,37.5 C79,38.3285526 78.3285526,39 77.5,39 C76.6714474,39 76,38.3285526 76,37.5 C76,36.6714474 76.6714474,36 77.5,36 C78.3285526,36 79,36.6714474 79,37.5 Z" id="Stroke-19" stroke="#277EF1" stroke-width="1.5"></path>
                <path d="M216.857245,96 L98.1427551,96 C93.645766,96 90,92.4181499 90,88 C90,83.5818501 93.645766,80 98.1427551,80 L216.857245,80 C221.354744,80 225,83.5818501 225,88 C225,92.4181499 221.354744,96 216.857245,96 Z" id="Stroke-21" stroke="#277EF1" stroke-width="1.5"></path>
                <path d="M216.158847,80 L203,80 L203,96 L216.158847,96 C220.489762,96 224,92.4186513 224,88 C224,83.5818501 220.489762,80 216.158847,80" id="Fill-23" fill="#277EF1"></path>
                <path d="M215.550381,87.2082546 C215.550381,88.8741065 214.135247,90.2290062 212.395867,90.2290062 C210.655958,90.2290062 209.240295,88.8741065 209.240295,87.2082546 C209.240295,85.5424026 210.655958,84.1869956 212.395867,84.1869956 C214.135247,84.1869956 215.550381,85.5424026 215.550381,87.2082546 M218.7139,92.4046576 L215.915422,89.725294 C216.481794,89.0009223 216.790675,88.1147337 216.790675,87.2082546 C216.790675,84.8875259 214.818707,83 212.395867,83 C209.971968,83 208,84.8875259 208,87.2082546 C208,89.5289832 209.971968,91.4165091 212.395867,91.4165091 C213.098931,91.4165091 213.795106,91.2516486 214.421877,90.93816 L217.333735,93.7265852 C217.51864,93.9031128 217.763414,94 218.024082,94 C218.284221,94 218.528995,93.9031128 218.7139,93.7265852 C218.898276,93.5495504 219,93.3151948 219,93.0656214 C219,92.816048 218.898276,92.5811852 218.7139,92.4046576" id="Fill-25" fill="#FFFFFF"></path>
                <path d="M131.493737,92 L97.5062632,92 C95.5698543,92 94,90.4329499 94,88.5 C94,86.5670501 95.5698543,85 97.5062632,85 L131.493737,85 C133.430146,85 135,86.5670501 135,88.5 C135,90.4329499 133.430146,92 131.493737,92" id="Fill-27" fill="#E0EBFC"></path>
                <polygon id="Fill-29" fill="#E0EBFC" points="110 201 204 201 204 196 110 196"></polygon>
                <path d="M141.061227,115 L117.939286,115 C115.763568,115 114,112.985276 114,110.500293 C114,108.014724 115.763568,106 117.939286,106 L141.061227,106 C143.236432,106 145,108.014724 145,110.500293 C145,112.985276 143.236432,115 141.061227,115" id="Fill-31" fill="#E0EBFC"></path>
                <path d="M119,111.5 L141,111.5" id="Stroke-32" stroke="#277EF1" stroke-width="1.5"></path>
                <path d="M196.135668,115 L155.864332,115 C153.730238,115 152,112.985276 152,110.500293 C152,108.014724 153.730238,106 155.864332,106 L196.135668,106 C198.269762,106 200,108.014724 200,110.500293 C200,112.985276 198.269762,115 196.135668,115" id="Fill-33" fill="#E0EBFC"></path>
                <path d="M160,111.5 L191,111.5" id="Stroke-34" stroke="#277EF1" stroke-width="1.5"></path>
                <path d="M221,52.5 L230,52.5" id="Stroke-35" stroke="#277EF1" stroke-width="1.5"></path>
                <path d="M234,52.5 L243,52.5" id="Stroke-36" stroke="#277EF1" stroke-width="1.5"></path>
                <polygon id="Fill-37" fill="#E0EBFC" points="247 51 248 51 248 50 247 50"></polygon>
                <polygon id="Fill-38" fill="#E0EBFC" points="248 51 249 51 249 50 248 50"></polygon>
                <polygon id="Fill-39" fill="#E0EBFC" points="249 51 250 51 250 50 249 50"></polygon>
                <polygon id="Fill-40" fill="#E0EBFC" points="247 53 248 53 248 52 247 52"></polygon>
                <polygon id="Fill-41" fill="#E0EBFC" points="248 53 249 53 249 52 248 52"></polygon>
                <polygon id="Fill-42" fill="#E0EBFC" points="249 53 250 53 250 52 249 52"></polygon>
                <polygon id="Fill-43" fill="#E0EBFC" points="247 56 248 56 248 55 247 55"></polygon>
                <polygon id="Fill-44" fill="#E0EBFC" points="248 56 249 56 249 55 248 55"></polygon>
                <polygon id="Fill-45" fill="#E0EBFC" points="249 56 250 56 250 55 249 55"></polygon>
                <path d="M259,52 C259,53.6570435 257.657043,55 256,55 C254.342957,55 253,53.6570435 253,52 C253,50.3429565 254.342957,49 256,49 C257.657043,49 259,50.3429565 259,52" id="Fill-46" fill="#E0EBFC"></path>
                <path d="M103.635407,60 L45,60 L45,82 L103.635407,82 C104.941113,82 106,80.9351085 106,79.6223326 L106,62.3776674 C106,61.0643856 104.941113,60 103.635407,60" id="Fill-47" fill="#E0EBFC"></path>
                <path d="M259,34 C259,34.5526667 258.552667,35 258,35 C257.448,35 257,34.5526667 257,34 C257,33.4473333 257.448,33 258,33 C258.552667,33 259,33.4473333 259,34" id="Fill-48" fill="#277EF1"></path>
                <path d="M259,37 C259,37.552 258.552667,38 258,38 C257.448,38 257,37.552 257,37 C257,36.4473333 257.448,36 258,36 C258.552667,36 259,36.4473333 259,37" id="Fill-49" fill="#277EF1"></path>
                <path d="M259,42 C259,42.552 258.552667,43 258,43 C257.448,43 257,42.552 257,42 C257,41.4473333 257.448,41 258,41 C258.552667,41 259,41.4473333 259,42" id="Fill-50" fill="#277EF1"></path>
                <path d="M192,196.5 L144,196.5" id="Stroke-51" stroke="#277EF1" stroke-width="1.5"></path>
                <path d="M138,196.5 L123,196.5" id="Stroke-52" stroke="#277EF1" stroke-width="1.5"></path>
                <path d="M253.358279,157 L152.64223,157 C150.630264,157 149,155.403073 149,153.433363 L149,127.566637 C149,125.596428 150.630264,124 152.64223,124 L253.358279,124 C255.369736,124 257,125.596428 257,127.566637 L257,153.433363 C257,155.403073 255.369736,157 253.358279,157" id="Fill-53" fill="#E0EBFC"></path>
                <path d="M248.357787,155 L147.642213,155 C145.630256,155 144,153.403073 144,151.433363 L144,125.567136 C144,123.596927 145.630256,122 147.642213,122 L248.357787,122 C250.369234,122 252,123.596927 252,125.567136 L252,151.433363 C252,153.403073 250.369234,155 248.357787,155" id="Fill-54" fill="#FFFFFF"></path>
                <path d="M248.357787,155 L147.642213,155 C145.630256,155 144,153.403073 144,151.433363 L144,125.567136 C144,123.596927 145.630256,122 147.642213,122 L248.357787,122 C250.369234,122 252,123.596927 252,125.567136 L252,151.433363 C252,153.403073 250.369234,155 248.357787,155 Z" id="Stroke-55" stroke="#277EF1" stroke-width="1.5"></path>
                <path d="M245.059719,136 L181.94079,136 C180.869132,136 180,135.328264 180,134.5 C180,133.671736 180.869132,133 181.94079,133 L245.059719,133 C246.131377,133 247,133.671736 247,134.5 C247,135.328264 246.131377,136 245.059719,136" id="Fill-56" fill="#E0EBFC"></path>
                <path d="M245.059719,143 L181.94079,143 C180.869132,143 180,142.328264 180,141.5 C180,140.671342 180.869132,140 181.94079,140 L245.059719,140 C246.131377,140 247,140.671342 247,141.5 C247,142.328264 246.131377,143 245.059719,143" id="Fill-57" fill="#E0EBFC"></path>
                <path d="M245.059719,129 L181.94079,129 C180.869132,129 180,128.328264 180,127.500393 C180,126.671736 180.869132,126 181.94079,126 L245.059719,126 C246.131377,126 247,126.671736 247,127.500393 C247,128.328264 246.131377,129 245.059719,129" id="Fill-58" fill="#E0EBFC"></path>
                <path d="M196.043211,150 L181.956789,150 C180.876297,150 180,149.328264 180,148.5 C180,147.671342 180.876297,147 181.956789,147 L196.043211,147 C197.123703,147 198,147.671342 198,148.5 C198,149.328264 197.123703,150 196.043211,150" id="Fill-59" fill="#E0EBFC"></path>
                <path d="M169.174618,151 L149.825382,151 C148.26479,151 147,149.73521 147,148.174618 L147,128.825382 C147,127.26479 148.26479,126 149.825382,126 L169.174618,126 C170.73521,126 172,127.26479 172,128.825382 L172,148.174618 C172,149.73521 170.73521,151 169.174618,151" id="Fill-60" fill="#277EF1"></path>
                <polygon id="Fill-61" fill="#FFFFFF" points="157 130 150 143 164 143"></polygon>
                <polygon id="Fill-62" fill="#FFFFFF" points="164.582197 136 163 139.223841 165.834602 145 169 145"></polygon>
                <path d="M169,133.5 C169,134.328702 168.328154,135 167.5,135 C166.671846,135 166,134.328702 166,133.5 C166,132.671298 166.671846,132 167.5,132 C168.328154,132 169,132.671298 169,133.5" id="Fill-63" fill="#FFFFFF"></path>
                <path d="M247.496081,58 L175.50443,58 C173.569209,58 172,56.4515235 172,54.5412487 L172,29.4582474 C172,27.5479726 173.569209,26 175.50443,26 L247.496081,26 C249.431302,26 251,27.5479726 251,29.4582474 L251,54.5412487 C251,56.4515235 249.431302,58 247.496081,58" id="Fill-64" fill="#277EF1"></path>
                <path d="M242.496591,53 L170.50443,53 C168.569209,53 167,51.4515479 167,49.5413032 L167,24.4586968 C167,22.5484521 168.569209,21 170.50443,21 L242.496591,21 C244.431302,21 246,22.5484521 246,24.4586968 L246,49.5413032 C246,51.4515479 244.431302,53 242.496591,53" id="Fill-65" fill="#FFFFFF"></path>
                <path d="M242.496591,53 L170.50443,53 C168.569209,53 167,51.4515479 167,49.5413032 L167,24.4586968 C167,22.5484521 168.569209,21 170.50443,21 L242.496591,21 C244.431302,21 246,22.5484521 246,24.4586968 L246,49.5413032 C246,51.4515479 244.431302,53 242.496591,53 Z" id="Stroke-66" stroke="#277EF1" stroke-width="1.5"></path>
                <path d="M239.114315,36 L202.8862,36 C201.84449,36 201,35.3284193 201,34.5 C201,33.6715807 201.84449,33 202.8862,33 L239.114315,33 C240.15551,33 241,33.6715807 241,34.5 C241,35.3284193 240.15551,36 239.114315,36" id="Fill-67" fill="#277EF1"></path>
                <path d="M239.114315,43 L202.8862,43 C201.84449,43 201,42.3284193 201,41.5 C201,40.6715807 201.84449,40 202.8862,40 L239.114315,40 C240.15551,40 241,40.6715807 241,41.5 C241,42.3284193 240.15551,43 239.114315,43" id="Fill-68" fill="#277EF1"></path>
                <path d="M239.114315,30 L202.8862,30 C201.84449,30 201,29.3283276 201,28.4997952 C201,27.6712628 201.84449,27 202.8862,27 L239.114315,27 C240.15551,27 241,27.6712628 241,28.4997952 C241,29.3283276 240.15551,30 239.114315,30" id="Fill-69" fill="#277EF1"></path>
                <path d="M216.151757,49 L202.847738,49 C201.826992,49 201,48.3284193 201,47.5 C201,46.6715807 201.826992,46 202.847738,46 L216.151757,46 C217.172504,46 218,46.6715807 218,47.5 C218,48.3284193 217.172504,49 216.151757,49" id="Fill-70" fill="#277EF1"></path>
                <path d="M184.549078,42.0800296 C181.743518,42.9354638 178.775913,41.3546376 177.91997,38.5490776 C177.065044,35.7435175 178.64587,32.7759126 181.450922,31.9204784 C184.25699,31.0645362 187.224595,32.6453624 188.08003,35.4514304 C188.935464,38.2569905 187.35413,41.2245953 184.549078,42.0800296 L184.549078,42.0800296 Z M194,36.3266757 C193.947678,35.482417 193.799857,34.6305387 193.542312,33.785772 C193.28426,32.9410053 192.932231,32.1516082 192.504514,31.4216445 L190.381168,32.4238842 C189.96869,31.7569096 189.470872,31.1585121 188.909049,30.6378351 L190.302431,28.7451107 C189.004549,27.5991133 187.451661,26.7716179 185.776351,26.3337413 L184.98289,28.5464915 C184.237179,28.3707313 183.463022,28.2914868 182.679212,28.3209495 L182.326676,26 C181.482417,26.0523217 180.630539,26.2006511 179.785772,26.4581958 C178.941005,26.7157404 178.151608,27.0677688 177.421644,27.4959939 L178.423884,29.6183241 C177.75691,30.0313099 177.158512,30.5291279 176.637835,31.0909511 L174.745111,29.6975686 C173.599113,30.9954513 172.771618,32.5488467 172.334249,34.2236487 L174.546999,35.0171096 C174.370731,35.7628207 174.291995,36.5369785 174.320949,37.3207878 L172,37.6733243 C172.052322,38.5180909 172.200143,39.3699693 172.457688,40.214228 C172.71574,41.0589947 173.067769,41.8483918 173.495486,42.5783555 L175.618324,41.5761158 C176.03131,42.2430904 176.529128,42.8414879 177.090951,43.3621649 L175.697569,45.2548893 C176.995451,46.4008867 178.548339,47.2283821 180.223649,47.6662587 L181.01711,45.4535085 C181.763329,45.6292687 182.536978,45.7085132 183.320788,45.6790505 L183.673324,48 C184.517583,47.9476783 185.369461,47.7998568 186.214228,47.5418042 C187.058995,47.2847676 187.848392,46.9322312 188.578864,46.5045141 L187.576116,44.3816759 C188.24309,43.9686901 188.841488,43.4708721 189.362673,42.9090489 L191.254889,44.3024314 C192.400887,43.0045487 193.228382,41.4516613 193.665751,39.7763513 L191.453509,38.9833984 C191.629269,38.2371793 191.708513,37.4635295 191.679051,36.6792122 L194,36.3266757 Z" id="Fill-71" fill="#E0EBFC"></path>
                <path d="M103.598843,77 L33.4011571,77 C32.0747301,77 31,75.9840358 31,74.7301374 L31,58.269376 C31,57.0159642 32.0747301,56 33.4011571,56 L103.598843,56 C104.924755,56 106,57.0159642 106,58.269376 L106,74.7301374 C106,75.9840358 104.924755,77 103.598843,77" id="Fill-72" fill="#FFFFFF"></path>
                <path d="M103.598843,77 L33.4011571,77 C32.0747301,77 31,75.9840358 31,74.7301374 L31,58.269376 C31,57.0159642 32.0747301,56 33.4011571,56 L103.598843,56 C104.924755,56 106,57.0159642 106,58.269376 L106,74.7301374 C106,75.9840358 104.924755,77 103.598843,77 Z" id="Stroke-73" stroke="#277EF1" stroke-width="1.5"></path>
                <path d="M100.71987,65 L55.2801303,65 C54.572947,65 54,64.3281783 54,63.5003013 C54,62.6718217 54.572947,62 55.2801303,62 L100.71987,62 C101.427053,62 102,62.6718217 102,63.5003013 C102,64.3281783 101.427053,65 100.71987,65" id="Fill-74" fill="#E0EBFC"></path>
                <path d="M100.71987,69 L55.2801303,69 C54.572947,69 54,68.3287809 54,67.5003013 C54,66.6718217 54.572947,66 55.2801303,66 L100.71987,66 C101.427053,66 102,66.6718217 102,67.5003013 C102,68.3287809 101.427053,69 100.71987,69" id="Fill-75" fill="#E0EBFC"></path>
                <path d="M100.71987,61 L55.2801303,61 C54.572947,61 54,60.3287809 54,59.5003013 C54,58.6718217 54.572947,58 55.2801303,58 L100.71987,58 C101.427053,58 102,58.6718217 102,59.5003013 C102,60.3287809 101.427053,61 100.71987,61" id="Fill-76" fill="#E0EBFC"></path>
                <path d="M85.7438913,74 L56.2556043,74 C55.5619699,74 55,73.3281783 55,72.4996987 C55,71.6718217 55.5619699,71 56.2556043,71 L85.7438913,71 C86.4375256,71 87,71.6718217 87,72.4996987 C87,73.3281783 86.4375256,74 85.7438913,74" id="Fill-77" fill="#E0EBFC"></path>
                <path d="M47.4179934,73 L36.5820066,73 C35.7081122,73 35,72.2914079 35,71.4180505 L35,60.5819495 C35,59.7085921 35.7081122,59 36.5820066,59 L47.4179934,59 C48.2918878,59 49,59.7085921 49,60.5819495 L49,71.4180505 C49,72.2914079 48.2918878,73 47.4179934,73" id="Fill-78" fill="#277EF1"></path>
                <path d="M41,62.7710785 L41,70.2289215 C41,70.859017 41.6464959,71.2219304 42.1063241,70.8503634 L46.7148675,67.1217123 C47.0950442,66.8139661 47.0950442,66.1860339 46.7148675,65.8782877 L42.1063241,62.1496366 C41.6464959,61.7780696 41,62.140983 41,62.7710785" id="Fill-79" fill="#FFFFFF"></path>
                <path d="M36,112.5 C36,113.881229 34.8807367,115 33.5,115 C32.1192633,115 31,113.881229 31,112.5 C31,111.119263 32.1192633,110 33.5,110 C34.8807367,110 36,111.119263 36,112.5" id="Fill-80" fill="#FFEEF0"></path>
                <path d="M308,63.5 C308,65.4332931 306.432883,67 304.499736,67 C302.567117,67 301,65.4332931 301,63.5 C301,61.5667069 302.567117,60 304.499736,60 C306.432883,60 308,61.5667069 308,63.5" id="Fill-81" fill="#E0EBFC"></path>
                <path d="M134,2.5 C134,3.88073666 132.880737,5 131.5,5 C130.119263,5 129,3.88073666 129,2.5 C129,1.11926334 130.119263,0 131.5,0 C132.880737,0 134,1.11926334 134,2.5" id="Fill-82" fill="#FFEEF0"></path>
                <path d="M33,110.500236 C33,111.328556 32.3285557,112 31.5002363,112 C30.6719168,112 30,111.328556 30,110.500236 C30,109.671917 30.6719168,109 31.5002363,109 C32.3285557,109 33,109.671917 33,110.500236 Z" id="Stroke-83" stroke="#277EF1" stroke-width="2"></path>
                <path d="M116,9.5 C116,10.3284499 115.328556,11 114.500236,11 C113.671444,11 113,10.3284499 113,9.5 C113,8.67155009 113.671444,8 114.500236,8 C115.328556,8 116,8.67155009 116,9.5 Z" id="Stroke-84" stroke="#277EF1" stroke-width="2"></path>
                <path d="M24,53.5 C24,54.3284499 23.3285557,55 22.5002363,55 C21.6714443,55 21,54.3284499 21,53.5 C21,52.6715501 21.6714443,52 22.5002363,52 C23.3285557,52 24,52.6715501 24,53.5 Z" id="Stroke-85" stroke="#277EF1" stroke-width="2"></path>
                <path d="M282,72.4997637 C282,73.3280832 281.328556,74 280.500236,74 C279.671917,74 279,73.3280832 279,72.4997637 C279,71.6714443 279.671917,71 280.500236,71 C281.328556,71 282,71.6714443 282,72.4997637 Z" id="Stroke-86" stroke="#277EF1" stroke-width="2"></path>
                <path d="M293,127.500236 C293,128.328556 292.328189,129 291.5,129 C290.671811,129 290,128.328556 290,127.500236 C290,126.671444 290.671811,126 291.5,126 C292.328189,126 293,126.671444 293,127.500236 Z" id="Stroke-87" stroke="#277EF1" stroke-width="2"></path>
                <path d="M34,27.9997379 C34,33.5227088 29.5225915,38 24,38 C18.4768844,38 14,33.5227088 14,27.9997379 C14,22.4772912 18.4768844,18 24,18 C29.5225915,18 34,22.4772912 34,27.9997379" id="Fill-88" fill="#E0EBFC"></path>
                <path d="M26.5506397,27.208314 C26.5506397,28.8740837 25.1353945,30.2290526 23.3960554,30.2290526 C21.6556503,30.2290526 20.2404051,28.8740837 20.2404051,27.208314 C20.2404051,25.5425443 21.6556503,24.1875754 23.3960554,24.1875754 C25.1353945,24.1875754 26.5506397,25.5425443 26.5506397,27.208314 M29.7142857,32.4046581 L26.9157783,29.725341 C27.4818763,29.0006495 27.7905117,28.1146887 27.7905117,27.208314 C27.7905117,24.8877703 25.8187633,23 23.3960554,23 C20.9722814,23 19,24.8877703 19,27.208314 C19,29.5288578 20.9722814,31.416628 23.3960554,31.416628 C24.0991471,31.416628 24.7958422,31.2512759 25.4221748,30.9384337 L28.3336887,33.7264545 C28.5186567,33.9025239 28.7633262,34 29.0239872,34 C29.2841151,34 29.5293177,33.9025239 29.7142857,33.7259441 C29.8981876,33.5498747 30,33.3151155 30,33.0655563 C30,32.815997 29.8981876,32.5812378 29.7142857,32.4046581" id="Fill-89" fill="#FFFFFF"></path>
                <path d="M233.831867,10.2527477 L233.008991,13.5427876 C232.939653,13.8206906 233.284258,14.0757807 233.598788,13.9791368 L236.753284,13.0106241 C237.013096,12.9305714 237.082434,12.6534979 236.890291,12.4622841 L234.558671,10.140757 C234.326428,9.90930939 233.901206,9.97484473 233.831867,10.2527477 Z" id="Stroke-90" stroke="#277EF1" stroke-width="2"></path>
                <path d="M96.5423646,183.009091 L93.2525055,183.833953 C92.9745827,183.903701 92.9094575,184.328035 93.1409216,184.560667 L95.4638583,186.890329 C95.6555006,187.082449 95.9325938,187.013118 96.0122373,186.752921 L96.9791597,183.598398 C97.0758105,183.283906 96.8202874,182.939343 96.5423646,183.009091 Z" id="Stroke-91" stroke="#277EF1" stroke-width="2"></path>
                <path d="M0.0349305792,102.573291 L1.79800806,105.805811 C1.94679311,106.078865 2.46881029,106.060078 2.69122617,105.773918 L4.92046296,102.901829 C5.10377833,102.665037 4.95550107,102.392857 4.62644744,102.363149 L0.634640977,102.002718 C0.236526708,101.966456 -0.113854473,102.300237 0.0349305792,102.573291 Z" id="Stroke-92" stroke="#277EF1" stroke-width="2"></path>
                <path d="M303.645081,111.94772 L306.832278,109.817724 C307.101401,109.637731 307.034575,109.121584 306.718174,108.933986 L303.543705,107.056487 C303.281855,106.901338 303.013642,107.080824 303.012278,107.411401 L303,111.418897 C302.99864,111.81843 303.375503,112.127206 303.645081,111.94772 Z" id="Stroke-93" stroke="#277EF1" stroke-width="2"></path>
                <path d="M122,133.5 C122,139.299031 117.29914,144 111.500243,144 C105.70086,144 101,139.299031 101,133.5 C101,127.700969 105.70086,123 111.500243,123 C117.29914,123 122,127.700969 122,133.5" id="Fill-94" fill="#E0EBFC"></path>
                <path d="M115.043563,137 L106.956437,137 C106.427974,137 106,136.503546 106,135.891253 L106,129.108156 C106,128.496454 106.427974,128 106.956437,128 L115.043563,128 C115.572026,128 116,128.496454 116,129.108156 L116,135.891253 C116,136.503546 115.572026,137 115.043563,137" id="Fill-95" fill="#FFFFFF"></path>
                <path d="M119.63288,135.97376 L117,134.671409 L117,131.328643 L119.63288,130.026292 C119.803461,129.941818 120,130.071184 120,130.267647 L120,135.732405 C120,135.928385 119.803461,136.058234 119.63288,135.97376" id="Fill-96" fill="#FFFFFF"></path>
                <path d="M305,45.5 C305,51.2990307 300.29914,56 294.500243,56 C288.70086,56 284,51.2990307 284,45.5 C284,39.7009693 288.70086,35 294.500243,35 C300.29914,35 305,39.7009693 305,45.5" id="Fill-97" fill="#E0EBFC"></path>
                <polyline id="Stroke-98" stroke="#FFFFFF" stroke-width="3.5" stroke-linecap="round" stroke-linejoin="round" points="288 44.920592 292.861736 50 301 41"></polyline>
            </g>
        </g>
    </g>
</svg>