<?xml version="1.0" encoding="UTF-8"?>
<svg width="100px" height="61px" viewBox="0 0 100 61" version="1.1" xmlns="http://www.w3.org/2000/svg" xmlns:xlink="http://www.w3.org/1999/xlink">
    <!-- Generator: sketchtool 58 (101010) - https://sketch.com -->
    <title>9F910E4D-1A20-48C2-829F-5C2721A21B37@1.00x</title>
    <desc>Created with sketchtool.</desc>
    <defs>
        <polygon id="path-1" points="0 0.166899658 99.8808108 0.166899658 99.8808108 60.3448276 0 60.3448276"></polygon>
    </defs>
    <g id="Blog" stroke="none" stroke-width="1" fill="none" fill-rule="evenodd">
        <g id="SEO---Landing-Page-Copy" transform="translate(-638.000000, -657.000000)">
            <g id="Group-10" transform="translate(638.000000, 657.000000)">
                <path d="M28.8406647,19.3365837 C31.0223033,19.3808783 33.101121,20.5461252 34.772973,21.8798546 C35.698901,22.6184603 36.9651366,22.789932 37.8692051,21.8798546 C38.6305117,21.1129874 38.8010703,19.5056097 37.8692051,18.7621127 C34.5198338,16.0908494 30.4577328,14.1747683 26.1074094,15.2440888 C22.1586542,16.2150373 19.2113911,19.880891 19.7503238,24.0483878 C20.3645506,28.7949753 25.0414182,30.0876711 28.728938,31.8173344 C30.3125421,32.5600163 31.9854736,33.529606 32.6955047,35.233997 C33.2738386,36.6218038 32.9570098,38.4381542 31.4478902,39.0457782 C29.8505227,39.6884576 27.8022004,39.2036627 26.2053726,38.8036525 C24.4039825,38.3525542 22.7585779,37.7082444 21.6958252,36.1054864 C20.150003,33.7736339 16.9558077,35.7772172 18.0339431,38.260704 C19.5525082,41.7599774 24.0536897,43.0146287 27.4651313,43.503228 C29.5612208,43.8035074 31.708046,43.796442 33.6511185,42.8412547 C35.5256437,41.9192205 36.8453138,40.049608 37.2055918,37.9954799 C38.0030612,33.4469952 34.791864,29.8175555 30.9389131,28.0101728 C28.4782277,26.8560675 22.5040894,25.5073921 24.3883299,21.5855537 C25.180132,19.9374141 27.1393968,19.3023437 28.8406647,19.3365837" id="Fill-1" fill="#BFBFBF"></path>
                <path d="M58.8844604,38.9240631 C56.8644873,38.0531308 54.5936447,38.3281904 52.4350832,38.3938602 C50.9917028,38.4379989 49.5496784,38.5090515 48.1081965,38.5943684 C48.0892118,36.9835741 48.0816179,35.3727798 48.0813467,33.7619855 C49.1621191,33.7584867 50.2409931,33.7264592 51.3209519,33.6680561 C52.7366688,33.5918899 54.2196459,33.7237678 55.2654322,32.6310652 C56.1791392,31.6764308 55.8520598,30.4297809 54.8849244,29.699608 C53.7924899,28.8746983 52.3629413,29.2482626 51.0831006,29.3142016 C50.089929,29.365607 49.096215,29.4086692 48.1027723,29.4525388 C48.1328766,26.5291557 48.192814,23.6060418 48.2844831,20.6837352 C51.362447,20.5968035 54.4320035,20.7033823 57.5102386,20.6046085 C60.3582164,20.5131014 60.2250522,16.612207 57.5102386,16.3064656 C53.7954733,15.8879552 49.8737745,16.1697432 46.1530425,16.410084 C44.9331393,16.4892107 43.9982779,17.3477627 43.9529858,18.593336 C43.6828605,26.0315185 43.6118035,33.4742764 43.7400859,40.9156885 C43.7593418,42.0347667 44.734071,43.1821044 45.9401426,43.0992097 C48.1035859,42.9503761 50.2681141,42.8421824 52.4350832,42.7587494 C54.586322,42.6761239 56.8864553,42.903546 58.8844604,42.014043 C60.0547322,41.493529 60.0758866,39.4375795 58.8844604,38.9240631" id="Fill-3" fill="#BFBFBF"></path>
                <path d="M78.3654924,29.3608553 C78.2269205,31.2756315 77.9767436,33.3204403 77.0014007,35.001049 C75.6020654,37.4116934 71.9164281,38.6048847 69.6672388,36.6560328 C68.4078103,35.565341 68.0195956,33.6778252 67.7651467,32.0978077 C67.4399434,30.0786238 67.4330014,27.9411294 67.7048052,25.9145852 C67.96406,23.9809992 68.4596079,21.8587707 69.7169004,20.3305481 C70.2722558,19.6558512 70.962979,19.113095 71.7682443,18.7936022 C72.0221592,18.693011 72.2653942,18.61232 72.5000852,18.535718 C75.1567131,18.5703388 77.6462004,20.01678 78.2066287,22.8630469 C78.6178053,24.9506546 78.5184821,27.2484406 78.3654924,29.3608553 M82.5816542,23.400351 C82.2593879,20.3973363 81.1401332,17.8345784 78.6631949,16.0760047 C76.9997987,14.8945355 75.0344281,14.3738603 73.0645185,14.4867187 C71.2823084,13.975312 68.8977512,15.2134831 67.5894621,16.2981777 C65.6067367,17.9419847 64.4543743,20.4682136 63.8707171,22.959549 C63.2163056,25.7526579 63.0587769,28.7000612 63.3778392,31.5504172 C63.6720708,34.1761468 64.246116,36.8414041 65.9049732,38.9453681 C69.1487292,43.0592474 75.3596314,42.7105858 78.9953401,39.3766289 C80.9358799,37.5970647 81.9050819,34.9533431 82.3098505,32.3829523 C82.7749606,29.4320052 82.9009836,26.3744695 82.5816542,23.400351" id="Fill-5" fill="#BFBFBF"></path>
                <g id="Group-9">
                    <mask id="mask-2" fill="white">
                        <use xlink:href="#path-1"></use>
                    </mask>
                    <g id="Clip-8"></g>
                    <path d="M96.3917297,44.4895775 C93.3211892,48.3687714 87.4787568,49.2418686 83.8736216,45.5738816 C83.5409189,45.2354613 83.0841622,45.6624961 83.2574054,46.0517474 C83.9276757,47.5549317 83.0184865,49.430786 81.4438919,49.872771 C79.8736216,50.3139407 78.2992973,49.3380941 77.5492973,47.9863156 C77.4833514,47.8675287 77.3860541,47.8115331 77.2838919,47.7995728 C77.1474054,47.4225536 76.5241622,47.4440276 76.5398378,47.9080304 C76.6101081,50.0035182 75.0152432,51.9630941 72.8825405,52.1104225 C70.9063243,52.2468779 69.1717297,50.9209226 68.3684865,49.1836984 C68.2284865,48.8806151 67.7128108,48.9550947 67.6492973,49.2780211 C66.2852432,56.2372476 58.9536216,59.2069199 52.5871351,59.44395 C46.2298378,59.6804365 41.0247027,56.3650047 38.4084865,50.638498 C38.4125405,50.6249068 38.4182162,50.6118593 38.4222703,50.5982681 C38.4947027,50.3560733 38.3536216,50.1883582 38.1717297,50.1361681 C38.0336216,49.9605701 37.7265946,50.0910454 37.704973,50.3109506 C37.6909189,50.3348711 37.6782162,50.3606943 37.6679459,50.388964 C36.9363243,52.3993709 35.1041622,54.0634747 32.8792973,54.0224293 C30.7563243,53.9835586 28.8184865,52.2958062 28.5571351,50.1676996 C28.5211892,49.8760329 28.1182162,49.5778425 27.8803784,49.8858186 C24.6844324,54.0256912 19.1911892,56.1595061 14.0982162,54.706881 C8.80605405,53.1974449 4.99091892,47.4173889 7.79254054,42.1062286 C8.00172973,41.7099099 7.51767568,41.3516465 7.18875676,41.6381485 C5.76389189,42.8787512 3.22010811,43.60452 2.45308108,41.2380242 C1.91848649,39.5877835 2.71308108,37.8206586 3.81335135,36.6056073 C3.81578378,36.6034327 3.81767568,36.6009863 3.81983784,36.5985399 C3.83848649,36.5778813 3.85659459,36.5558636 3.87551351,36.5357487 C4.13172973,36.2606632 3.76416216,35.905118 3.48037838,36.1130631 C0.273081081,34.8417443 0.00686486486,30.9932665 2.04902703,28.4438335 C3.80578378,26.2504893 6.77227027,25.3336285 9.46848649,25.958279 C9.81091892,26.0376514 10.1165946,25.5981128 9.8292973,25.3347158 C7.43064865,23.1353914 7.51443243,19.5253029 8.39686486,16.6238583 C9.27686486,13.7308403 11.0157838,11.0974138 13.3482162,9.18323237 C18.2271351,5.17927151 25.642,5.16622398 30.2509189,9.61950916 C30.5157838,9.87556695 30.9379459,9.68365952 30.9547027,9.32621156 C31.1238919,5.72889873 34.4576757,3.42166045 37.8709189,3.716589 C41.2706486,4.01043026 43.8503784,6.51093507 45.2992973,9.46103604 C45.4109189,9.6880087 45.6287568,9.71274464 45.8033514,9.62657658 C45.882,9.86061665 46.3082162,9.88453712 46.3655135,9.59939422 C47.3506486,4.68101895 51.7444324,1.73173346 56.4838919,1.18346536 C61.1165946,0.647429326 66.8706486,2.07096925 68.2214595,7.19511494 C68.3341622,7.62350885 68.8452432,7.60991768 69.0752432,7.30737807 C69.8447027,6.29483535 70.834973,5.10044268 72.2128108,5.04798074 C73.8792973,4.98464585 74.9717297,6.52833178 74.6736216,8.10137465 C74.5882162,8.55151445 75.0906486,8.87579994 75.4422703,8.55151445 C76.8395676,7.26307083 78.9074054,6.39323548 80.7644324,7.2038133 C82.2252432,7.84123952 83.1001081,9.42542715 82.8128108,10.9761805 C82.702,11.0525629 82.6868649,11.194183 82.7328108,11.3105235 C82.7287568,11.3243865 82.7263243,11.3385213 82.722,11.3523843 C82.5617297,11.8664026 83.3136216,12.0428161 83.5055135,11.5695713 C83.5465946,11.4684529 83.5792973,11.3662473 83.6101081,11.2640416 C87.724973,9.78477788 92.6355135,10.4012737 95.7168649,13.7202392 C98.5357838,16.7565082 98.6074054,22.4264756 94.3182162,24.2338304 C93.8857838,24.416224 93.884973,25.1343818 94.4379459,25.123237 C95.9655135,25.092521 98.2133514,25.1398183 98.8303784,26.8930801 C99.6936216,29.3454722 96.5236216,29.6365952 94.9128108,29.5574946 C94.3963243,29.532215 94.349027,30.2677695 94.7965946,30.4235244 C97.3538919,31.314562 98.2860541,34.6261883 98.5036216,37.0595527 C98.7398378,39.7003184 98.0422703,42.4044191 96.3917297,44.4895775 M96.4857838,30.3884591 C98.244973,30.1816014 100.073892,29.4079916 99.8644324,27.3135912 C99.6576757,25.2469167 97.7976757,24.5032075 95.9847027,24.2895542 C99.1603784,21.9002252 99.4338919,17.0492622 96.9879459,13.8341333 C93.9160541,9.79565082 88.3001081,8.73526716 83.7479459,10.5510485 C83.8979459,8.87063529 82.8547027,7.19728953 81.3238919,6.4350963 C79.4271351,5.49105312 77.2706486,6.07112457 75.6136216,7.23779124 C75.4836216,5.80691208 74.5665946,4.5649503 73.0468649,4.20777415 C71.3095676,3.79949518 69.9311892,4.87129543 68.8557838,6.11053899 C67.0147027,1.16851507 61.1106486,-0.317816092 56.2811892,0.298136067 C51.5268649,0.904302578 46.7792973,3.84026872 45.8941622,8.80132029 C44.159027,5.45571606 40.9698378,2.79401988 37.0541622,2.86442218 C33.7301081,2.92422336 30.7960541,5.22575334 30.224973,8.48573315 C25.2617297,4.27192451 17.7730811,4.45540541 12.7811892,8.61294657 C10.2201081,10.7459459 8.38145946,13.7232293 7.54145946,16.9533085 C6.83956757,19.6519727 6.83443243,22.8246971 8.57713514,25.072406 C5.47983784,24.795146 2.2792973,26.2643523 0.740378378,29.0728332 C-0.652054054,31.6141115 -0.175837838,35.869781 2.98578378,36.5670084 C1.52578378,38.0992777 0.855783784,40.6204411 2.18064865,42.4530755 C3.30740541,44.0119835 5.09362162,43.763265 6.56389189,42.9722585 C4.74956757,47.9890339 8.10254054,53.3352594 12.9865946,55.1602827 C18.2944324,57.1435073 24.3057838,55.2377524 27.9509189,51.0413405 C28.564973,53.0898027 30.3498378,54.6840478 32.5484865,54.8604613 C34.8903784,55.0485632 37.0560541,53.5682122 38.0641622,51.5105079 C40.2701081,57.4933442 46.6247027,60.6271979 52.8063243,60.3249301 C59.0368649,60.0202159 66.5165946,57.0924045 68.1984865,50.4868204 C69.3287568,52.1479341 71.2930811,53.243383 73.3365946,52.9267086 C75.3563243,52.6135679 76.9701081,50.9413094 77.2717297,48.9662395 C78.3974054,50.4188646 80.3865946,51.2568966 82.1479459,50.4408823 C83.5209189,49.8042715 84.2952432,48.3815471 84.232,46.9482215 C88.2668649,50.0986564 94.1182162,48.937698 97.2206486,44.8353371 C99.0517297,42.4147484 99.7130811,39.2950295 99.2928108,36.3049705 C98.9941622,34.1790385 98.1933514,31.7611681 96.4857838,30.3884591" id="Fill-7" fill="#BFBFBF" mask="url(#mask-2)"></path>
                </g>
            </g>
        </g>
    </g>
</svg>