<svg xmlns="http://www.w3.org/2000/svg" width="566" height="80" viewBox="0 0 566 80">
  <defs>
    <style>
      .cls-1 {
        fill-rule: evenodd;
      }
    </style>
  </defs>
  <path class="cls-1" d="M564.181,0.026L563.9-.005a1.915,1.915,0,0,0-2.141,1.761,1.908,1.908,0,0,0,1.7,2.163l0.278,0.031a1.907,1.907,0,0,0,2.138-1.733A1.915,1.915,0,0,0,564.181.026Zm-1.606,8.087-0.252-.124a1.914,1.914,0,0,0-2.611.929,1.907,1.907,0,0,0,.867,2.612l0.251,0.124a1.907,1.907,0,0,0,2.6-.9A1.915,1.915,0,0,0,562.575,8.113Zm-4.487,7.055-0.179-.215a1.975,1.975,0,0,0-3.032,2.53l0.18,0.215A1.975,1.975,0,0,0,558.088,15.169Zm-6.895,4.609-0.089-.265a1.975,1.975,0,0,0-3.742,1.261l0.09,0.265A1.974,1.974,0,0,0,551.193,19.777Zm-7.771,2.011-0.022-.279a1.974,1.974,0,0,0-3.935.305l0.021,0.279A1.974,1.974,0,0,0,543.422,21.788Zm-7.687.284v-0.28a1.974,1.974,0,0,0-3.948,0v0.28A1.974,1.974,0,0,0,535.735,22.072Zm-7.545,0v-0.28a1.974,1.974,0,0,0-3.948,0v0.28A1.974,1.974,0,0,0,528.19,22.072Zm-7.518,0v-0.28a1.974,1.974,0,0,0-3.948,0v0.28A1.974,1.974,0,0,0,520.672,22.072Zm-7.529,0v-0.28a1.974,1.974,0,0,0-3.948,0v0.28A1.974,1.974,0,0,0,513.143,22.072Zm-7.529,0v-0.28a1.974,1.974,0,0,0-3.948,0v0.28A1.974,1.974,0,0,0,505.614,22.072Zm-7.534,0v-0.28a1.974,1.974,0,0,0-3.948,0v0.28A1.974,1.974,0,0,0,498.08,22.072Zm-7.528,0v-0.28a1.974,1.974,0,0,0-3.948,0v0.28A1.974,1.974,0,0,0,490.552,22.072Zm-7.532,0v-0.28a1.974,1.974,0,0,0-3.948,0v0.28A1.974,1.974,0,0,0,483.02,22.072Zm-7.53,0v-0.28a1.974,1.974,0,0,0-3.948,0v0.28A1.974,1.974,0,0,0,475.49,22.072Zm-7.55,0v-0.28a1.974,1.974,0,0,0-3.948,0v0.28A1.974,1.974,0,0,0,467.94,22.072Zm-7.514,0v-0.28a1.974,1.974,0,0,0-3.948,0v0.28A1.974,1.974,0,0,0,460.426,22.072Zm-7.532,0v-0.28a1.974,1.974,0,0,0-3.948,0v0.28A1.974,1.974,0,0,0,452.894,22.072Zm-7.551,0v-0.28a1.974,1.974,0,0,0-3.948,0v0.28A1.974,1.974,0,0,0,445.343,22.072Zm-7.52,0v-0.28a1.974,1.974,0,0,0-3.948,0v0.28A1.974,1.974,0,0,0,437.823,22.072Zm-7.518,0v-0.28a1.974,1.974,0,0,0-3.948,0v0.28A1.974,1.974,0,0,0,430.305,22.072Zm-7.55,0v-0.28a1.974,1.974,0,0,0-3.948,0v0.28A1.974,1.974,0,0,0,422.755,22.072Zm-7.525,0v-0.28a1.974,1.974,0,0,0-3.948,0v0.28A1.974,1.974,0,0,0,415.23,22.072Zm-7.542,0v-0.28a1.974,1.974,0,0,0-3.948,0v0.28A1.974,1.974,0,0,0,407.688,22.072Zm-7.524,0v-0.28a1.974,1.974,0,0,0-3.948,0v0.28A1.974,1.974,0,0,0,400.164,22.072Zm-7.533,0v-0.28a1.974,1.974,0,0,0-3.948,0v0.28A1.974,1.974,0,0,0,392.631,22.072Zm-7.53,0v-0.28a1.974,1.974,0,0,0-3.948,0v0.28A1.974,1.974,0,0,0,385.1,22.072Zm-7.537,0v-0.28a1.974,1.974,0,0,0-3.948,0v0.28A1.974,1.974,0,0,0,377.564,22.072Zm-7.535,0v-0.28a1.974,1.974,0,0,0-3.948,0v0.28A1.974,1.974,0,0,0,370.029,22.072Zm-7.522,0v-0.28a1.974,1.974,0,0,0-3.948,0v0.28A1.974,1.974,0,0,0,362.507,22.072Zm-7.523,0v-0.28a1.974,1.974,0,0,0-3.948,0v0.28A1.974,1.974,0,0,0,354.984,22.072Zm-7.539,0v-0.28a1.974,1.974,0,0,0-3.948,0v0.28A1.974,1.974,0,0,0,347.445,22.072Zm-7.547,0v-0.28a1.974,1.974,0,0,0-3.948,0v0.28A1.974,1.974,0,0,0,339.9,22.072Zm-7.525,0v-0.28a1.974,1.974,0,0,0-3.948,0v0.28A1.974,1.974,0,0,0,332.373,22.072Zm-7.52,0v-0.28a1.974,1.974,0,0,0-3.948,0v0.28A1.974,1.974,0,0,0,324.853,22.072Zm-7.552,0v-0.28a1.974,1.974,0,0,0-3.948,0v0.28A1.974,1.974,0,0,0,317.3,22.072Zm-7.535,0v-0.28a1.974,1.974,0,0,0-3.948,0v0.28A1.974,1.974,0,0,0,309.766,22.072Zm-7.51,0v-0.28a1.974,1.974,0,0,0-3.948,0v0.28A1.974,1.974,0,0,0,302.256,22.072Zm-7.525,0v-0.28a1.974,1.974,0,0,0-3.948,0v0.28A1.974,1.974,0,0,0,294.731,22.072Zm-7.535,0v-0.28a1.974,1.974,0,0,0-3.948,0v0.28A1.974,1.974,0,0,0,287.2,22.072Zm-7.54,0v-0.28a1.974,1.974,0,0,0-3.948,0v0.28A1.974,1.974,0,0,0,279.656,22.072Zm-7.538,0v-0.28a1.974,1.974,0,0,0-3.948,0v0.28A1.974,1.974,0,0,0,272.118,22.072Zm-7.531,0v-0.28a1.974,1.974,0,0,0-3.948,0v0.28A1.974,1.974,0,0,0,264.587,22.072Zm-7.519,0v-0.28a1.974,1.974,0,0,0-3.948,0v0.28A1.974,1.974,0,0,0,257.068,22.072Zm-7.546,0v-0.28a1.974,1.974,0,0,0-3.948,0v0.28A1.974,1.974,0,0,0,249.522,22.072Zm-7.521,0v-0.28a1.974,1.974,0,0,0-3.948,0v0.28A1.974,1.974,0,0,0,242,22.072Zm-7.537,0v-0.28a1.974,1.974,0,0,0-3.948,0v0.28A1.974,1.974,0,0,0,234.464,22.072Zm-7.546,0v-0.28a1.974,1.974,0,0,0-3.948,0v0.28A1.974,1.974,0,0,0,226.918,22.072Zm-7.526,0v-0.28a1.974,1.974,0,0,0-3.948,0v0.28A1.974,1.974,0,0,0,219.392,22.072Zm-7.522,0v-0.28a1.974,1.974,0,0,0-3.948,0v0.28A1.974,1.974,0,0,0,211.87,22.072Zm-7.532,0v-0.28a1.974,1.974,0,0,0-3.948,0v0.28A1.974,1.974,0,0,0,204.338,22.072Zm-25.284-2.1a1.89,1.89,0,0,0-1.267,1.816v0.28a1.9,1.9,0,0,0,1.66,1.911A9.36,9.36,0,0,1,179.054,19.976Zm-4.854,2.1v-0.28a1.974,1.974,0,0,0-3.948,0v0.28A1.974,1.974,0,0,0,174.2,22.072Zm-7.523,0v-0.28a1.974,1.974,0,0,0-3.948,0v0.28A1.974,1.974,0,0,0,166.677,22.072Zm-7.541,0v-0.28a1.974,1.974,0,0,0-3.948,0v0.28A1.974,1.974,0,0,0,159.136,22.072Zm-7.525,0v-0.28a1.974,1.974,0,0,0-3.948,0v0.28A1.974,1.974,0,0,0,151.611,22.072Zm-7.536,0v-0.28a1.974,1.974,0,0,0-3.948,0v0.28A1.974,1.974,0,0,0,144.075,22.072Zm-7.531,0v-0.28a1.974,1.974,0,0,0-3.948,0v0.28A1.974,1.974,0,0,0,136.544,22.072Zm-7.528,0v-0.28a1.974,1.974,0,0,0-3.948,0v0.28A1.974,1.974,0,0,0,129.016,22.072Zm-7.522,0v-0.28a1.974,1.974,0,0,0-3.948,0v0.28A1.974,1.974,0,0,0,121.494,22.072Zm-7.55,0v-0.28a1.974,1.974,0,0,0-3.948,0v0.28A1.974,1.974,0,0,0,113.944,22.072Zm-7.511,0v-0.28a1.974,1.974,0,0,0-3.948,0v0.28A1.974,1.974,0,0,0,106.433,22.072Zm-7.547,0v-0.28a1.974,1.974,0,0,0-3.948,0v0.28A1.974,1.974,0,0,0,98.886,22.072Zm-7.54,0v-0.28a1.974,1.974,0,0,0-3.948,0v0.28A1.974,1.974,0,0,0,91.346,22.072Zm-7.518,0v-0.28a1.974,1.974,0,0,0-3.948,0v0.28A1.974,1.974,0,0,0,83.829,22.072Zm-7.529,0v-0.28a1.974,1.974,0,0,0-3.948,0v0.28A1.974,1.974,0,0,0,76.3,22.072Zm-7.546,0v-0.28a1.974,1.974,0,0,0-3.948,0v0.28A1.974,1.974,0,0,0,68.754,22.072Zm-7.539,0v-0.28a1.974,1.974,0,0,0-3.948,0v0.28A1.974,1.974,0,0,0,61.214,22.072Zm-7.514,0v-0.28a1.974,1.974,0,0,0-3.948,0v0.28A1.974,1.974,0,0,0,53.7,22.072Zm-7.527,0v-0.28a1.974,1.974,0,0,0-3.948,0v0.28A1.974,1.974,0,0,0,46.174,22.072Zm-7.555,0v-0.28a1.974,1.974,0,0,0-3.948,0v0.28A1.974,1.974,0,0,0,38.619,22.072Zm-7.515,0v-0.28a1.974,1.974,0,0,0-3.948,0v0.28A1.974,1.974,0,0,0,31.1,22.072Zm-7.538,0v-0.28a1.974,1.974,0,0,0-3.948,0v0.28A1.974,1.974,0,0,0,23.566,22.072Zm-6.941.28-0.076-.27a1.975,1.975,0,0,0-3.8,1.073l0.076,0.27A1.975,1.975,0,0,0,16.624,22.352Zm-6.413,2.285-0.167-.224A1.914,1.914,0,0,0,7.3,24.051a1.907,1.907,0,0,0-.417,2.719l0.167,0.225a1.907,1.907,0,0,0,2.725.378A1.914,1.914,0,0,0,10.211,24.637ZM5.274,29.043L5.028,28.91a1.915,1.915,0,0,0-2.644.832,1.907,1.907,0,0,0,.77,2.642L3.4,32.518a1.907,1.907,0,0,0,2.631-.808A1.915,1.915,0,0,0,5.274,29.043Zm-2.683,6.22-0.277-.038A1.915,1.915,0,0,0,.128,36.93a1.908,1.908,0,0,0,1.646,2.206l0.277,0.038A1.975,1.975,0,0,0,2.591,35.263ZM2.015,42.22l-0.278.036a1.974,1.974,0,0,0,.514,3.914l0.278-.036A1.974,1.974,0,0,0,2.015,42.22ZM3.35,48.849l-0.245.136a1.915,1.915,0,0,0-.729,2.675,1.908,1.908,0,0,0,2.639.781L5.261,52.3A1.908,1.908,0,0,0,6,49.654,1.915,1.915,0,0,0,3.35,48.849ZM7.1,54.386l-0.17.222a1.915,1.915,0,0,0,.406,2.743,1.908,1.908,0,0,0,2.731-.344l0.17-.222a1.908,1.908,0,0,0-.383-2.726A1.915,1.915,0,0,0,7.1,54.386Zm5.756,3.726-0.09.265A1.974,1.974,0,0,0,16.5,59.649l0.09-.265A1.974,1.974,0,0,0,12.852,58.112Zm6.615,1.816v0.28a1.974,1.974,0,0,0,3.948,0v-0.28A1.974,1.974,0,0,0,19.467,59.928Zm7.5,0v0.28a1.974,1.974,0,0,0,3.948,0v-0.28A1.974,1.974,0,0,0,26.969,59.928Zm7.549,0v0.28a1.974,1.974,0,0,0,3.948,0v-0.28A1.974,1.974,0,0,0,34.518,59.928Zm7.525,0v0.28a1.974,1.974,0,0,0,3.948,0v-0.28A1.974,1.974,0,0,0,42.042,59.928Zm7.552,0v0.28a1.974,1.974,0,0,0,3.948,0v-0.28A1.974,1.974,0,0,0,49.594,59.928Zm7.508,0v0.28a1.974,1.974,0,0,0,3.948,0v-0.28A1.974,1.974,0,0,0,57.1,59.928Zm7.546,0v0.28a1.974,1.974,0,0,0,3.948,0v-0.28A1.974,1.974,0,0,0,64.648,59.928Zm7.521,0v0.28a1.974,1.974,0,0,0,3.948,0v-0.28A1.974,1.974,0,0,0,72.169,59.928Zm7.529,0v0.28a1.974,1.974,0,0,0,3.948,0v-0.28A1.974,1.974,0,0,0,79.7,59.928Zm7.541,0v0.28a1.974,1.974,0,0,0,3.948,0v-0.28A1.974,1.974,0,0,0,87.239,59.928Zm7.544,0v0.28a1.974,1.974,0,0,0,3.948,0v-0.28A1.974,1.974,0,0,0,94.783,59.928Zm7.515,0v0.28a1.974,1.974,0,0,0,3.948,0v-0.28A1.974,1.974,0,0,0,102.3,59.928Zm7.544,0v0.28a1.974,1.974,0,0,0,3.948,0v-0.28A1.974,1.974,0,0,0,109.842,59.928Zm7.513,0v0.28a1.974,1.974,0,0,0,3.948,0v-0.28A1.974,1.974,0,0,0,117.355,59.928Zm7.556,0v0.28a1.974,1.974,0,0,0,3.948,0v-0.28A1.974,1.974,0,0,0,124.911,59.928Zm7.52,0v0.28a1.974,1.974,0,0,0,3.948,0v-0.28A1.974,1.974,0,0,0,132.431,59.928Zm7.519,0v0.28a1.974,1.974,0,0,0,3.948,0v-0.28A1.974,1.974,0,0,0,139.95,59.928Zm7.556,0v0.28a1.974,1.974,0,0,0,3.948,0v-0.28A1.974,1.974,0,0,0,147.506,59.928Zm7.525,0v0.28a1.974,1.974,0,0,0,3.948,0v-0.28A1.974,1.974,0,0,0,155.031,59.928Zm7.522,0v0.28a1.974,1.974,0,0,0,3.948,0v-0.28A1.974,1.974,0,0,0,162.553,59.928Zm7.53,0v0.28a1.974,1.974,0,0,0,3.948,0v-0.28A1.974,1.974,0,0,0,170.083,59.928Zm7.551,0v0.28a1.974,1.974,0,0,0,3.948,0v-0.28A1.974,1.974,0,0,0,177.634,59.928Zm7.961-.085-0.058.274a1.974,1.974,0,0,0,3.864.809l0.058-.274A1.974,1.974,0,0,0,185.6,59.843Zm8,2.644-0.169.223a1.974,1.974,0,0,0,3.143,2.388l0.169-.223A1.974,1.974,0,0,0,193.592,62.486Zm6.008,5.846-0.247.132a1.975,1.975,0,0,0,1.868,3.479l0.247-.132A1.975,1.975,0,0,0,199.6,68.333Zm3.217,7.467-0.275.056a1.975,1.975,0,0,0,.794,3.868l0.275-.056A1.975,1.975,0,0,0,202.817,75.8ZM189,11a10,10,0,1,1-10,10A10,10,0,0,1,189,11Z"/>
</svg>
