<?xml version="1.0" encoding="UTF-8"?>
<svg width="458px" height="318px" viewBox="0 0 458 318" version="1.1" xmlns="http://www.w3.org/2000/svg" xmlns:xlink="http://www.w3.org/1999/xlink">
    <title>606EEB33-513E-4802-A4B1-F911A1B63594@2x</title>
    <g id="PWA-Page" stroke="none" stroke-width="1" fill="none" fill-rule="evenodd">
        <g transform="translate(-190.000000, -3368.000000)" id="Group-16">
            <g transform="translate(190.000000, 3368.000000)">
                <g id="Group" fill-rule="nonzero">
                    <polygon id="Path" fill="#FFCC0A" points="133.259424 246.841792 87.23751 210.137472 87.23751 226.182503 1.7568787e-13 226.356626 1.7568787e-13 267.570334 87.23751 267.396211 87.23751 283.441242"></polygon>
                    <path d="M138.095705,141.284379 C138.095705,98.1695578 170.07399,62.5893657 211.457652,56.8337464 L186.272141,37.5785835 L215.115299,14.6607539 C148.964142,18.9513065 96.6075388,73.9959567 96.6075388,141.284379 C96.6075388,169.85318 106.012917,196.224382 122.002059,217.467849 L185.01809,217.467849 C157.115469,203.549715 138.095705,174.666971 138.095705,141.284379 Z" id="Path" fill="#FFCC0A"></path>
                    <path d="M451,246.789357 L405.029803,210.137472 L405.029803,226.100471 L328.50464,226.100471 C314.086715,244.163864 295.280725,258.551566 273.758315,267.478243 L405.029803,267.478243 L405.029803,283.441242 L451,246.789357 Z" id="Path" fill="#FFCC0A"></path>
                    <path d="M247.82899,15.8509117 L247.82899,0 L201.4095,36.7073744 L247.82899,71.9547964 L247.82899,58.3980956 C283.246118,68.7220446 309.127865,101.362409 309.127865,139.946865 C309.127865,186.873906 270.881558,224.93695 223.728577,224.93695 C220.794614,224.93695 215.136256,225.249797 215.136256,225.249797 L129.946537,225.249797 L124.707317,225.249797 L150.693849,245.793413 L124.707317,266.337029 L222.471164,266.337029 L222.471164,266.337029 C222.890302,266.337029 223.30944,266.337029 223.728577,266.337029 C293.829342,266.337029 350.727273,209.711733 350.727273,139.946865 C350.727273,78.4202998 306.403471,27.1134015 247.82899,15.8509117 Z" id="Path" fill="#232323"></path>
                    <path d="M287.604582,127.283194 L277.095081,124.971104 C276.149226,122.133538 275.098276,119.401068 273.732041,116.773693 L279.512267,107.735522 C280.563217,106.159097 280.353027,103.952102 278.986792,102.690962 L262.59197,86.401235 C261.225735,85.0349999 259.123835,84.8248099 257.54741,85.87576 L248.509239,91.6559855 C245.881863,90.2897504 243.149393,89.2388003 240.311828,88.2929452 L237.999738,77.7834442 C237.579358,75.891734 235.897838,74.5254989 234.006127,74.5254989 L210.885225,74.5254989 C208.993515,74.5254989 207.311995,75.891734 206.891615,77.7834442 L204.579525,88.2929452 C201.741959,89.2388003 199.009489,90.2897504 196.382114,91.6559855 L187.343943,85.87576 C185.767518,84.8248099 183.560523,85.0349999 182.299382,86.401235 L165.904561,102.796057 C164.538326,104.162292 164.328136,106.264192 165.379086,107.840617 L171.159311,116.878788 C169.793076,119.506163 168.742126,122.238633 167.796271,125.076199 L157.28677,127.388289 C155.39506,127.808669 154.028825,129.490189 154.028825,131.381899 L154.028825,154.502801 C154.028825,156.394512 155.39506,158.076032 157.28677,158.496412 L167.796271,160.808502 C168.742126,163.646067 169.793076,166.378538 171.159311,169.005913 L165.379086,178.044084 C164.328136,179.620509 164.538326,181.827504 165.904561,183.088644 L182.299382,199.483466 C183.665618,200.849701 185.767518,201.059891 187.343943,200.008941 L196.382114,194.228715 C199.009489,195.59495 201.741959,196.6459 204.579525,197.591755 L206.891615,208.101256 C207.311995,209.992967 208.993515,211.359202 210.885225,211.359202 L234.006127,211.359202 C235.897838,211.359202 237.579358,209.992967 237.999738,208.101256 L240.311828,197.591755 C243.149393,196.6459 245.881863,195.59495 248.509239,194.228715 L257.54741,200.008941 C259.123835,201.059891 261.33083,200.849701 262.59197,199.483466 L278.986792,183.088644 C280.353027,181.722409 280.563217,179.620509 279.512267,178.044084 L273.732041,169.005913 C275.098276,166.378538 276.149226,163.646067 277.095081,160.808502 L287.604582,158.496412 C289.496293,158.076032 290.862528,156.394512 290.862528,154.502801 L290.862528,131.381899 C290.862528,129.385094 289.496293,127.703574 287.604582,127.283194 Z M262.486875,142.94235 C262.486875,165.012302 244.515628,182.983549 222.445676,182.983549 C200.375724,182.983549 182.404478,165.012302 182.404478,142.94235 C182.404478,120.872398 200.375724,102.901152 222.445676,102.901152 C244.515628,102.901152 262.486875,120.872398 262.486875,142.94235 Z" id="Shape" fill="#999999"></path>
                    <path d="M215.870032,155.159645 C214.729662,155.159645 213.692961,154.7378 212.863601,153.89411 L204.051647,144.718983 C202.496597,143.031603 202.496597,140.395073 204.155317,138.707693 C205.814038,137.125774 208.405789,137.125774 210.06451,138.813154 L215.766362,144.718983 L233.493939,124.78681 C235.04899,123.09943 237.640741,122.888508 239.403132,124.470426 C241.061852,126.052345 241.269192,128.688876 239.714142,130.481717 L218.980133,153.683188 C218.254443,154.632339 217.114073,155.159645 215.870032,155.159645 C215.973702,155.159645 215.973702,155.159645 215.870032,155.159645 Z" id="Path" fill="#00A43C"></path>
                </g>
                <text id="Test" font-family="Montserrat-ExtraBold, Montserrat" font-size="16" font-weight="600" fill="#A3A1A1">
                    <tspan x="346" y="49">Test</tspan>
                </text>
                <text id="Develope" font-family="Montserrat-ExtraBold, Montserrat" font-size="16" font-weight="600" fill="#A3A1A1">
                    <tspan x="365" y="123">Develope</tspan>
                </text>
                <text id="Deploy" font-family="Montserrat-ExtraBold, Montserrat" font-size="16" font-weight="600" fill="#A3A1A1">
                    <tspan x="35" y="72">Deploy</tspan>
                </text>
                <text id="Review" font-family="Montserrat-ExtraBold, Montserrat" font-size="16" font-weight="600" fill="#A3A1A1">
                    <tspan x="1" y="131">Review</tspan>
                </text>
                <text id="Plan" font-family="Montserrat-ExtraBold, Montserrat" font-size="16" font-weight="600" fill="#A3A1A1">
                    <tspan x="52" y="311">Plan</tspan>
                </text>
                <text id="Design" font-family="Montserrat-ExtraBold, Montserrat" font-size="16" font-weight="600" fill="#A3A1A1">
                    <tspan x="182.168" y="311">Design</tspan>
                </text>
                <text id="Launch" font-family="Montserrat-ExtraBold, Montserrat" font-size="16" font-weight="600" fill="#A3A1A1">
                    <tspan x="344.988" y="311">Launch</tspan>
                </text>
                <polyline id="Path-2" stroke="#D8D8D8" points="316 79 341.283582 62 393 62"></polyline>
                <circle id="Oval" fill="#D8D8D8" cx="314.5" cy="80.5" r="2.5"></circle>
                <circle id="Oval-Copy-2" fill="#989696" cx="120.5" cy="100.5" r="2.5"></circle>
                <circle id="Oval-Copy-3" fill="#989696" cx="111.5" cy="159.5" r="2.5"></circle>
                <circle id="Oval-Copy-4" fill="#D8D8D8" cx="212.5" cy="254.5" r="2.5"></circle>
                <circle id="Oval-Copy-5" fill="#989696" cx="373.5" cy="254.5" r="2.5"></circle>
                <circle id="Oval-Copy-6" fill="#989696" cx="76.5" cy="254.5" r="2.5"></circle>
                <circle id="Oval-Copy" fill="#D8D8D8" cx="331.5" cy="144.5" r="2.5"></circle>
                <polyline id="Path-3" stroke="#D8D8D8" points="333 144 360.677419 134 456 134"></polyline>
                <polyline id="Path-4" stroke="#979797" points="120 100 99.0909091 89 35 89"></polyline>
                <polyline id="Path-4-Copy" stroke="#979797" points="111 159 90.2307692 147 3 147"></polyline>
                <polygon id="Rectangle" fill="#D8D8D8" points="212 256 213 256 213 289 212 289"></polygon>
                <polygon id="Rectangle-Copy-2" fill="#979797" points="373 256 374 256 374 289 373 289"></polygon>
                <polygon id="Rectangle-Copy-3" fill="#979797" points="76 256 77 256 77 289 76 289"></polygon>
            </g>
        </g>
    </g>
</svg>