<?xml version="1.0" encoding="UTF-8"?>
<svg width="18px" height="21px" viewBox="0 0 18 21" version="1.1" xmlns="http://www.w3.org/2000/svg" xmlns:xlink="http://www.w3.org/1999/xlink">
    <title>16289267-CE93-48BF-86C4-F8AC6B47E424@2x</title>
    <g id="All-You-Can-Use" stroke="none" stroke-width="1" fill="none" fill-rule="evenodd">
        <g id="All_you_can_use" transform="translate(-235.000000, -3712.000000)" fill="#8CD8E9" fill-rule="nonzero">
            <g id="Group-12" transform="translate(189.000000, 3257.000000)">
                <g id="Group-22" transform="translate(30.000000, 320.000000)">
                    <path d="M26.4054653,135.863597 C25.6991095,135.157468 24.5541075,135.157468 23.8477517,135.863597 L17.1670476,142.55148 C16.0993175,143.619493 16.0993175,145.350788 17.1670476,146.418801 C18.2489093,147.452615 19.9525067,147.452615 21.0343685,146.418801 L22.1196783,145.333491 L22.1196783,152.319269 C22.1196783,153.984259 23.4694194,155.334 25.1344092,155.334 C26.7993989,155.334 28.14914,153.984259 28.14914,152.319269 L28.14914,145.333491 L29.2344499,146.418801 C30.3163116,147.452615 32.019909,147.452615 33.1017707,146.418801 C34.1695008,145.350788 34.1695008,143.619493 33.1017707,142.55148 L26.4054653,135.863597 Z" id="Path" transform="translate(25.134409, 145.334000) scale(1, -1) translate(-25.134409, -145.334000) "></path>
                </g>
            </g>
        </g>
    </g>
</svg>