<?xml version="1.0" encoding="UTF-8"?>
<svg width="10px" height="6px" viewBox="0 0 10 6" version="1.1" xmlns="http://www.w3.org/2000/svg" xmlns:xlink="http://www.w3.org/1999/xlink">
    <title>88658404-E397-4899-8557-2311B2F2A99E@1x</title>
    <g id="Dokodemo-Web-Profile" stroke="none" stroke-width="1" fill="none" fill-rule="evenodd">
        <g id="Desktop---popup" transform="translate(-470.000000, -696.000000)" fill="#000" fill-rule="nonzero">
            <g id="pop-p" transform="translate(337.000000, 455.000000)">
                <g id="arrow-down-sign-to-navigate-copy-2" transform="translate(138.000000, 243.853982) scale(1, -1) translate(-138.000000, -243.853982) translate(133.000000, 241.000000)">
                    <path d="M4.9999834,5.7079646 C4.82076305,5.7079646 4.64156483,5.63944212 4.50492535,5.50268526 L0.205141796,1.19707131 C-0.0683805987,0.923180843 -0.0683805987,0.479114403 0.205141796,0.205334744 C0.478553534,-0.0684449147 0.921934686,-0.0684449147 1.19547921,0.205334744 L4.9999834,4.01518014 L8.80450972,0.205467711 C9.07803212,-0.0683119474 9.52136901,-0.0683119474 9.79475861,0.205467711 C10.0684138,0.47924737 10.0684138,0.92331381 9.79475861,1.19720428 L5.49504145,5.50281823 C5.35833558,5.63959725 5.17913736,5.7079646 4.9999834,5.7079646 Z" id="Path"></path>
                </g>
            </g>
        </g>
    </g>
</svg>