<?xml version="1.0" encoding="UTF-8"?>
<svg width="30px" height="26px" viewBox="0 0 30 26" version="1.1" xmlns="http://www.w3.org/2000/svg" xmlns:xlink="http://www.w3.org/1999/xlink">
    <title>C6DCA4CA-B714-44ED-81B5-A5F9F7FEBF4B@2x</title>
    <g id="All-You-Can-Use" stroke="none" stroke-width="1" fill="none" fill-rule="evenodd">
        <g id="All_you_can_use" transform="translate(-249.000000, -2267.000000)" fill="#000000" fill-rule="nonzero">
            <g id="Group-10" transform="translate(189.000000, 2150.000000)">
                <g id="check" transform="translate(60.000000, 117.000000)">
                    <path d="M25.0284,13.9640211 C24.9564,13.9277053 24.8842737,13.9095789 24.8115789,13.9095789 C24.6550737,13.9095789 24.5172,13.9696421 24.3970737,14.0900211 L23.2429263,15.2439789 C23.1350526,15.3522947 23.0808632,15.4843579 23.0808632,15.6408 L23.0808632,20.2205684 C23.0808632,21.0141474 22.7989895,21.6930316 22.2336,22.2582947 C21.6686526,22.8232421 20.9893263,23.1057474 20.1958737,23.1057474 L5.19322105,23.1057474 C4.39970526,23.1057474 3.72044211,22.8232421 3.15549474,22.2582947 C2.59042105,21.6930947 2.30804211,21.0142105 2.30804211,20.2205684 L2.30804211,5.21823158 C2.30804211,4.42484211 2.59042105,3.74564211 3.15549474,3.18050526 C3.72044211,2.61549474 4.39970526,2.33305263 5.19322105,2.33305263 L20.196,2.33305263 C20.4605053,2.33305263 20.7309474,2.36911579 21.0073895,2.44130526 C21.0795789,2.46517895 21.1336421,2.47736842 21.1692632,2.47736842 C21.3257684,2.47736842 21.4640842,2.41743158 21.5842105,2.29724211 L22.4677895,1.41366316 C22.6119158,1.2696 22.6662316,1.09515789 22.6298526,0.890968421 C22.5937895,0.698589474 22.4854737,0.560273684 22.3051579,0.476210526 C21.6564,0.176084211 20.9528211,0.0253263158 20.1954947,0.0253263158 L5.19322105,0.0253263158 C3.76269474,0.0253263158 2.53945263,0.533242105 1.52362105,1.54907368 C0.507915789,2.56503158 0,3.78808421 0,5.21867368 L0,20.2213895 C0,21.6517263 0.507915789,22.8749053 1.52368421,23.8907368 C2.53951579,24.9068211 3.76275789,25.4147368 5.19328421,25.4147368 L20.1958737,25.4147368 C21.6262105,25.4147368 22.8495789,24.9068211 23.8654105,23.8907368 C24.8813053,22.8749053 25.3896632,21.6517895 25.3896632,20.2213895 L25.3896632,14.4868421 C25.3896632,14.2345895 25.2687158,14.0604 25.0284,13.9640211 Z" id="Path"></path>
                    <path d="M29.5547368,3.61364211 L27.5710105,1.62991579 C27.2825053,1.34147368 26.9396842,1.19722105 26.5428632,1.19722105 C26.1465474,1.19722105 25.8034737,1.34147368 25.5152211,1.62991579 L13.8483158,13.2967579 L9.10616842,8.55429474 C8.8176,8.26566316 8.47490526,8.1216 8.07833684,8.1216 C7.68170526,8.1216 7.33913684,8.26566316 7.05050526,8.55429474 L5.06703158,10.5377684 C4.77852632,10.8262737 4.63414737,11.1689684 4.63414737,11.5657895 C4.63414737,11.9624211 4.77852632,12.3049895 5.06703158,12.5936211 L12.8207368,20.3473263 C13.1093053,20.6360211 13.452,20.7800211 13.8485684,20.7800211 C14.2451368,20.7800211 14.5877684,20.6360842 14.8764,20.3473263 L29.5545474,5.66924211 C29.8428632,5.3808 29.9874316,5.03804211 29.9874316,4.64141053 C29.9874316,4.24477895 29.8432421,3.90208421 29.5547368,3.61364211 Z" id="Path"></path>
                </g>
            </g>
        </g>
    </g>
</svg>