<?xml version="1.0" encoding="UTF-8"?>
<svg width="21px" height="18px" viewBox="0 0 21 18" version="1.1" xmlns="http://www.w3.org/2000/svg" xmlns:xlink="http://www.w3.org/1999/xlink">
    <title>arrow@2x</title>
    <g id="Web-Dev-Service" stroke="none" stroke-width="1" fill="none" fill-rule="evenodd">
        <g id="Web-Dev-Service_Desktop-1280x850-Rev" transform="translate(-1088.000000, -1247.000000)" fill="#000000" fill-rule="nonzero">
            <g id="arrow" transform="translate(1098.500000, 1256.000000) scale(-1, 1) translate(-1098.500000, -1256.000000) translate(1088.000000, 1247.000000)">
                <path d="M19.6532416,7.53797922 C19.5676831,7.52409351 19.4810961,7.51768831 19.3944623,7.51881039 L4.64283117,7.51881039 L4.96449351,7.3692 C5.27890909,7.22038442 5.56494545,7.01784935 5.80979221,6.77075844 L9.94651948,2.63403117 C10.4913351,2.11394805 10.5828779,1.2772987 10.1634545,0.651693506 C9.6753039,-0.014961039 8.73916364,-0.159709091 8.07246234,0.328441558 C8.0186026,0.367901299 7.96740779,0.410914286 7.9192987,0.4572 L0.438779221,7.93771948 C-0.145823377,8.52166753 -0.146337662,9.46893506 0.43761039,10.0535377 C0.437984416,10.0539117 0.438405195,10.0543325 0.438779221,10.0547065 L7.9192987,17.535226 C8.50436883,18.1186597 9.45163636,18.1173506 10.0351169,17.5322805 C10.0810286,17.4862286 10.1239013,17.4372312 10.1634545,17.3856156 C10.5828779,16.7600104 10.4913351,15.923361 9.94651948,15.4032779 L5.81727273,11.2590701 C5.59776623,11.0393299 5.34539221,10.8550753 5.06922078,10.7129922 L4.62038961,10.5110182 L19.3121299,10.5110182 C20.0764052,10.5393974 20.7469403,10.0055221 20.8905195,9.25429091 C21.0227844,8.43868052 20.4688519,7.67029091 19.6532416,7.53797922 Z" id="Path"></path>
            </g>
        </g>
    </g>
</svg>