<?xml version="1.0" encoding="UTF-8"?>
<svg width="30px" height="29px" viewBox="0 0 30 29" version="1.1" xmlns="http://www.w3.org/2000/svg" xmlns:xlink="http://www.w3.org/1999/xlink">
    <title>57A63A26-701E-4606-B18A-609B24471719@2x</title>
    <g id="PWA-Page" stroke="none" stroke-width="1" fill="none" fill-rule="evenodd">
        <g transform="translate(-186.000000, -2322.000000)" fill-rule="nonzero" id="Group-12">
            <g transform="translate(186.000000, 2263.000000)">
                <g id="Group-8" transform="translate(0.000000, 59.000000)">
                    <g id="Group-7" transform="translate(0.000000, 0.000000)">
                        <path d="M22.2590229,10.7696962 C23.1519587,12.4326034 23.6619718,14.3323614 23.6619718,16.346831 C23.6619718,22.8688931 18.353048,28.1778169 11.8309859,28.1778169 C5.3089238,28.1778169 0,22.8688931 0,16.346831 C0,9.82476887 5.3089238,4.51584507 11.8309859,4.51584507 C15.1015075,4.51584507 18.0625551,5.84947183 20.2057658,8.00093535 L27.481294,0 L29.9834947,2.27442782 L22.2590229,10.7696962 Z" id="Path" fill="#000000"></path>
                        <path d="M12.103323,21.9412963 L5.82223817,17.753081 L7.69723817,14.940581 L11.5569982,17.5129291 L17.918959,10.5138644 C16.3806668,8.90872585 14.2259024,7.89612676 11.8309859,7.89612676 C7.17154479,7.89612676 3.38028169,11.6873899 3.38028169,16.346831 C3.38028169,21.0062721 7.17154479,24.7975352 11.8309859,24.7975352 C16.490427,24.7975352 20.2816901,21.0062721 20.2816901,16.346831 C20.2816901,15.349912 20.0770246,14.4082857 19.7576474,13.5194763 L12.103323,21.9412963 Z" id="Path" fill="#FFFFFF"></path>
                    </g>
                </g>
            </g>
        </g>
    </g>
</svg>