<svg width="60" height="60" xmlns="http://www.w3.org/2000/svg"><g fill="none" fill-rule="evenodd"><rect fill="#FFF" width="60" height="60" rx="10"/><g fill-rule="nonzero"><g fill="#F0BC5E"><path d="M46.774 10H33.871a3.23 3.23 0 00-3.226 3.226v10.322a3.23 3.23 0 003.226 3.226h5.161v-3.226a1.29 1.29 0 112.58 0v3.226h5.162A3.23 3.23 0 0050 23.548V13.226A3.23 3.23 0 0046.774 10zM26.129 47.42H13.226A3.23 3.23 0 0110 44.193V33.87a3.23 3.23 0 013.226-3.226h12.903a3.23 3.23 0 013.226 3.226v10.323a3.23 3.23 0 01-3.226 3.225zM26.129 26.774H13.226A3.23 3.23 0 0110 23.548V13.226A3.23 3.23 0 0113.226 10h12.903a3.23 3.23 0 013.226 3.226v10.322a3.23 3.23 0 01-3.226 3.226z"/></g><path d="M48.065 30.645c-.255 0-.497.052-.72.142a1.932 1.932 0 00-1.861-1.432c-.255 0-.497.052-.72.142a1.932 1.932 0 00-1.86-1.432c-.228 0-.443.046-.646.118V24.14c.155.028.311.055.468.055.693 0 1.37-.281 1.86-.77l.898-.899c.416-.416.645-.969.645-1.557 0-.589-.229-1.142-.645-1.558l-1.138-1.137a1.8 1.8 0 00-1.281-.531h-.086c-.69 0-1.311.384-1.62 1.002a.52.52 0 01-.467.288h-.086a.518.518 0 01-.369-.153l-.606-.606a.517.517 0 01-.154-.37v-.085c0-.2.11-.378.289-.467a1.803 1.803 0 001.002-1.62v-.086c0-.484-.189-.94-.531-1.281l-1.138-1.138c-.831-.832-2.283-.832-3.114 0l-.899.898c-.49.49-.77 1.167-.77 1.92 0 .359.072.707.213 1.036a12.892 12.892 0 004.11 5.24c-.278.335-.452.76-.452 1.228v13.585c0 .293-.068.587-.197.85l-.541-2.704a4.17 4.17 0 00-4.078-3.344 1.638 1.638 0 00-1.36 2.543l.663.996c.246.369.405.796.46 1.235l.456 3.659a3.23 3.23 0 00.62 1.535l1.396 1.86v1.72h1.29v-2.15l-1.653-2.204a1.947 1.947 0 01-.372-.921l-.457-3.659a4.179 4.179 0 00-.666-1.79l-.664-.996a.346.346 0 01.287-.537c1.363 0 2.546.97 2.813 2.306l.829 4.145h1.573l.55-1.102c.223-.445.341-.944.341-1.442V23.548a.646.646 0 011.29 0v11.613h1.291V30a.646.646 0 011.29 0v5.161h1.29v-3.87a.646.646 0 011.291 0v3.87h1.29v-2.58a.646.646 0 011.29 0v7.778c0 .298-.07.598-.204.866l-1.086 2.171v2.088h1.29V43.7l.95-1.9c.223-.445.341-.944.341-1.442V32.58a1.938 1.938 0 00-1.935-1.936zm-7.742-9.032c-.074 0-.144.013-.215.022a11.605 11.605 0 01-4.193-5.063 1.424 1.424 0 01-.109-.589c0-.352.144-.698.393-.947l.898-.898c.34-.34.95-.34 1.29 0l1.138 1.137c.098.1.152.23.152.37v.085c0 .2-.11.378-.288.467a1.803 1.803 0 00-1.002 1.621v.085c0 .484.188.94.531 1.282l.607.606c.341.343.797.532 1.281.532h.086c.69 0 1.311-.384 1.62-1.002a.52.52 0 01.467-.289h.086c.139 0 .27.054.369.153l1.138 1.138a.92.92 0 01.267.645.92.92 0 01-.267.645l-.898.898a1.372 1.372 0 01-1.546.25l-.056-.027a1.933 1.933 0 00-1.75-1.121zM19.677 24.194v-1.29a3.875 3.875 0 01-3.87-3.872v-1.29a3.875 3.875 0 013.87-3.871 3.875 3.875 0 013.871 3.87v3.227a.646.646 0 01-1.29 0v-3.226a2.583 2.583 0 00-2.58-2.58 2.583 2.583 0 00-2.581 2.58v1.29a2.583 2.583 0 002.58 2.58c.484 0 .93-.141 1.318-.373a1.933 1.933 0 001.908 1.664 1.938 1.938 0 001.936-1.935v-3.226a5.167 5.167 0 00-5.162-5.161 5.167 5.167 0 00-5.16 5.16v1.291a5.167 5.167 0 005.16 5.162zm0-3.871c-.711 0-1.29-.58-1.29-1.29v-1.291c0-.712.579-1.29 1.29-1.29.712 0 1.29.578 1.29 1.29v1.29c0 .712-.578 1.29-1.29 1.29zM12.58 43.548h14.194v-9.032H12.581v9.032zm4.946-3.259a3.73 3.73 0 002.151.679 3.73 3.73 0 002.151-.679l2.462 1.97h-9.225l2.461-1.97zm5.268-.88l2.69-2.69v4.842l-2.69-2.152zm-1.37-.455c-.933.932-2.56.932-3.493 0l-3.148-3.148h9.789l-3.148 3.148zm-4.863.454l-2.69 2.153v-4.842l2.69 2.69z" fill="#000"/><path fill="#F0BC5E" d="M50 50H34.516v-5.161H50z"/></g></g></svg>