<?xml version="1.0" encoding="UTF-8"?>
<svg width="60px" height="60px" viewBox="0 0 60 60" version="1.1" xmlns="http://www.w3.org/2000/svg" xmlns:xlink="http://www.w3.org/1999/xlink">
    <title>15B9F1E6-9515-4A25-AA47-196754F8BA41@2x</title>
    <g id="Project-Management" stroke="none" stroke-width="1" fill="none" fill-rule="evenodd">
        <g transform="translate(-218.000000, -1319.000000)" id="Group-8">
            <g transform="translate(186.000000, 1299.000000)">
                <g id="Icon" transform="translate(32.000000, 20.000000)">
                    <rect id="Rectangle" fill="#FFFFFF" x="0" y="0" width="60" height="60" rx="10"></rect>
                    <g id="laptop" transform="translate(10.000000, 10.000000)" fill-rule="nonzero">
                        <path d="M37.2387456,35.9799303 L37.2387456,15.7548432 C37.2387456,14.6585366 36.3470383,13.7675261 35.2514286,13.7675261 L28.7456446,13.7675261 L28.7456446,15.0741463 L35.2512892,15.0741463 C35.626899,15.0741463 35.9319861,15.3799303 35.9319861,15.7548432 L35.9319861,35.9800697 L21.5593031,35.9800697 L21.5593031,36.6334495 L18.9460627,36.6334495 L18.9460627,35.9800697 L4.57324042,35.9800697 L4.57324042,15.7548432 C4.57324042,15.3797909 4.87832753,15.0741463 5.25393728,15.0741463 L11.7595819,15.0741463 L11.7595819,13.7675261 L5.25393728,13.7675261 C4.15832753,13.7675261 3.26662021,14.658676 3.26662021,15.7548432 L3.26662021,35.9800697 L0,35.9800697 L0,38.1431359 C0,39.1120557 0.787874564,39.8999303 1.75679443,39.8999303 L38.7485714,39.8999303 C39.7174913,39.8999303 40.5053659,39.1120557 40.5053659,38.1431359 L40.5053659,35.9800697 L37.2387456,35.9799303 L37.2387456,35.9799303 Z M39.1986063,38.1431359 C39.1986063,38.3908014 38.9967944,38.5933101 38.7484321,38.5933101 L1.75679443,38.5933101 C1.50857143,38.5933101 1.30662021,38.3908014 1.30662021,38.1431359 L1.30662021,37.2866899 L17.6394425,37.2866899 L17.6394425,37.9400697 L22.8659233,37.9400697 L22.8659233,37.2866899 L39.1986063,37.2866899 L39.1986063,38.1431359 Z" id="Shape" fill="#333333"></path>
                        <polygon id="Path" fill="#333333" points="5.87986063 34.6733101 34.6255052 34.6733101 34.6255052 16.3807666 27.4390244 16.3807666 27.4390244 17.6872474 33.318885 17.6872474 33.318885 33.3666899 7.18648084 33.3666899 7.18648084 17.6872474 13.0662021 17.6872474 13.0662021 16.3807666 5.87986063 16.3807666"></polygon>
                        <rect id="Rectangle" fill="#333333" x="19.5993031" y="0.0479442509" width="1.30662021" height="1.96"></rect>
                        <polygon id="Rectangle" fill="#333333" transform="translate(14.536644, 2.559356) rotate(-30.005690) translate(-14.536644, -2.559356) " points="13.8833157 1.57932827 15.1899725 1.57932827 15.1899725 3.53938316 13.8833157 3.53938316"></polygon>
                        <polygon id="Rectangle" fill="#333333" transform="translate(10.351153, 6.744987) rotate(-59.999272) translate(-10.351153, -6.744987) " points="9.69785688 5.76507814 11.0044483 5.76507814 11.0044483 7.72489565 9.69785688 7.72489565"></polygon>
                        <rect id="Rectangle" fill="#333333" x="7.83972125" y="11.8075261" width="1.96" height="1.30662021"></rect>
                        <rect id="Rectangle" fill="#333333" x="30.7056446" y="11.8075261" width="1.96" height="1.30662021"></rect>
                        <path d="M24.825784,24.2203484 L15.0260627,24.2203484 L15.0260627,23.5669686 C15.0260627,21.6273171 14.3381185,19.7404878 13.0367944,18.0726132 C11.5172125,16.127108 10.8606272,13.6928223 11.1885714,11.2181185 C11.7289199,7.13560976 15.0940767,3.83707317 19.1903833,3.37449477 C21.7931707,3.08111498 24.4037631,3.9056446 26.3441115,5.63818815 C28.2857143,7.37212544 29.3990244,9.85923345 29.3990244,12.4607666 C29.3990244,14.5494077 28.7110801,16.5158188 27.4097561,18.1471777 C26.1651568,19.7092683 25.4791638,21.6202091 25.4791638,23.5265505 L25.4791638,24.1799303 L24.825784,24.2203484 Z" id="Path" fill="#F9BA48"></path>
                        <path d="M16.9860627,17.189547 L16.9860627,22.9138676 L15.0260627,22.9138676 C13.9455052,22.9138676 13.0660627,23.7931707 13.0660627,24.8738676 C13.0660627,25.5696167 13.4331707,26.1785366 13.981324,26.5261324 C13.8192334,26.8115679 13.7193031,27.1363066 13.7193031,27.487108 C13.7193031,28.1828571 14.0864111,28.791777 14.6345645,29.1393728 C14.4724739,29.4248084 14.3725436,29.749547 14.3725436,30.1003484 C14.3725436,31.1809059 15.2518467,32.0603484 16.3325436,32.0603484 L24.1722648,32.0603484 C25.2528223,32.0603484 26.1322648,31.1810453 26.1322648,30.1003484 C26.1322648,29.749547 26.0323345,29.4248084 25.8702439,29.1393728 C26.4183972,28.791777 26.7855052,28.1828571 26.7855052,27.487108 C26.7855052,27.1363066 26.6855749,26.8115679 26.5234843,26.5261324 C27.0716376,26.1785366 27.4387456,25.5696167 27.4387456,24.8738676 C27.4387456,23.7933101 26.5594425,22.9138676 25.4787456,22.9138676 L23.5191638,22.9138676 L23.5191638,17.189547 C24.3063415,16.6617422 24.825784,15.7640418 24.825784,14.7474564 C24.825784,13.1265505 23.5067596,11.8075261 21.8858537,11.8075261 L18.6192334,11.8075261 C17.7190244,11.8075261 16.9859233,11.075122 16.9859233,10.174216 C16.9859233,9.2733101 17.718885,8.54090592 18.6192334,8.54090592 L21.8858537,8.54090592 C22.7860627,8.54090592 23.5191638,9.2733101 23.5191638,10.174216 L23.5191638,10.5009059 L24.825784,10.5009059 L24.825784,10.174216 C24.825784,8.5533101 23.5067596,7.23428571 21.8858537,7.23428571 L20.9059233,7.23428571 L20.9059233,5.92766551 L19.5993031,5.92766551 L19.5993031,7.23428571 L18.6193728,7.23428571 C16.9984669,7.23428571 15.6794425,8.5533101 15.6794425,10.174216 C15.6794425,11.795122 16.9984669,13.1141463 18.6193728,13.1141463 L21.885993,13.1141463 C22.7862021,13.1141463 23.5193031,13.8465505 23.5193031,14.7474564 C23.5193031,15.6483624 22.7863415,16.3807666 21.885993,16.3807666 L18.6193728,16.3807666 C17.7191638,16.3807666 16.9860627,15.6483624 16.9860627,14.7474564 L16.9860627,14.4207666 L15.6794425,14.4207666 L15.6794425,14.7474564 C15.6794425,15.7645993 16.198885,16.6616028 16.9860627,17.189547 Z M25.4791638,27.4869686 C25.4791638,27.8475261 25.185784,28.1403484 24.825784,28.1403484 L24.1724042,28.1403484 L16.3326829,28.1403484 L15.6794425,28.1403484 C15.3194425,28.1403484 15.0260627,27.8476655 15.0260627,27.4869686 C15.0260627,27.1264111 15.3194425,26.8335889 15.6794425,26.8335889 L24.825784,26.8335889 C25.185784,26.8335889 25.4791638,27.1264111 25.4791638,27.4869686 Z M24.1725436,30.7534495 L16.3328223,30.7534495 C15.9728223,30.7534495 15.6794425,30.4607666 15.6794425,30.1000697 C15.6794425,29.7395122 15.9728223,29.4466899 16.3328223,29.4466899 L24.1725436,29.4466899 C24.5325436,29.4466899 24.8259233,29.7393728 24.8259233,30.1000697 C24.825784,30.4607666 24.5325436,30.7534495 24.1725436,30.7534495 Z M26.1324042,24.8737282 C26.1324042,25.2342857 25.8390244,25.527108 25.4790244,25.527108 L24.8256446,25.527108 L15.6794425,25.527108 L15.0260627,25.527108 C14.6660627,25.527108 14.3726829,25.2344251 14.3726829,24.8737282 C14.3726829,24.5131707 14.6660627,24.2203484 15.0260627,24.2203484 L25.4790244,24.2203484 C25.8391638,24.2203484 26.1324042,24.5131707 26.1324042,24.8737282 Z M19.5993031,17.6872474 L19.5993031,18.9938676 L20.9059233,18.9938676 L20.9059233,17.6872474 L21.8858537,17.6872474 C21.9976307,17.6872474 22.1041115,17.6663415 22.2125436,17.6539373 L22.2125436,22.9137282 L18.2926829,22.9137282 L18.2926829,17.6539373 C18.401115,17.6663415 18.5075958,17.6872474 18.6193728,17.6872474 L19.5993031,17.6872474 Z" id="Shape" fill="#333333"></path>
                        <polygon id="Rectangle" fill="#333333" transform="translate(30.154199, 6.745328) rotate(-29.992901) translate(-30.154199, -6.745328) " points="29.1741845 6.09200804 31.1342131 6.09200804 31.1342131 7.39864734 29.1741845 7.39864734"></polygon>
                        <polygon id="Rectangle" fill="#333333" transform="translate(25.968912, 2.559080) rotate(-60.007099) translate(-25.968912, -2.559080) " points="24.9888978 1.90576023 26.9489265 1.90576023 26.9489265 3.21239952 24.9888978 3.21239952"></polygon>
                    </g>
                </g>
            </g>
        </g>
    </g>
</svg>