<svg id="Layer_1" data-name="Layer 1" xmlns="http://www.w3.org/2000/svg" viewBox="0 0 275.31 53.93"><path d="M.69.89h7V38.64h22.2v6.51H.69Z" transform="translate(-0.69 -0.89)" style="fill:#ffc914"/><path d="M54.44,1c13.15,0,23.14,9.3,23.14,23s-10,23-23.14,23-23-9.29-23-22.95S41.35,1,54.44,1Zm0,39.39c9.1,0,16.12-6.26,16.12-16.37s-7-16.44-16.12-16.44-16,6.32-16,16.44S45.39,40.39,54.44,40.39Z" transform="translate(-0.69 -0.89)" style="fill:#ffc914"/><path d="M120.07,46.15c0-4.24.06-4.81.06-5.31H120A21.11,21.11,0,0,1,105,47c-12.52,0-22.7-9.17-22.7-23S92.06,1,105.15,1c10.11,0,17.45,5.56,20.23,12.33l-6.83,1.83c-1.52-2.78-5.44-7.58-13.66-7.58C95.66,7.58,89.28,14,89.28,24s6.82,16.44,16.18,16.44c7.59,0,12.71-4,14.36-6.83V28.63H107.36V22.18h19v24Z" transform="translate(-0.69 -0.89)" style="fill:#ffc914"/><path d="M134.23.89h7V45.15h-7Z" transform="translate(-0.69 -0.89)" style="fill:#ffc914"/><path d="M174.39,46.72v8.09H167.3V46.72C156,45.2,147.83,36.41,147.83,24c0-13.72,9.93-23,23-23S194,10.3,194,24C194,36.41,185.7,45.26,174.39,46.72ZM187,24c0-10.18-7.08-16.44-16.12-16.44s-16,6.32-16,16.44,7,16.37,16,16.37S187,34.13,187,24Z" transform="translate(-0.69 -0.89)" style="fill:#ffc914"/><path d="M236.8,26.24C236.8,39,230.09,46,218.59,46s-18.22-7-18.22-19.73V.89h7.09V26.18c0,8.91,3.6,13.21,11.19,13.21s11.25-4.3,11.25-13.21V.89h6.9Z" transform="translate(-0.69 -0.89)" style="fill:#ffc914"/><path d="M245.21.89h30.6V7.4H252.16V19h18.15v6.51H252.16V38.64H276v6.51H245.21Z" transform="translate(-0.69 -0.89)" style="fill:#ffc914"/></svg>