<svg id="Layer_1" data-name="Layer 1" xmlns="http://www.w3.org/2000/svg" viewBox="0 0 64 59"><path d="M2,9H14V57H2Z" style="fill:#ffca13;fill-rule:evenodd"/><path d="M41,11H54V24H41Z" style="fill:#ffca13;fill-rule:evenodd"/><path d="M56.76,37.4a1.23,1.23,0,0,0-1.24,1.23v.83H24.07a.52.52,0,0,1-.52-.52V7.48h.83a1.24,1.24,0,1,0,0-2.48H20.24a1.24,1.24,0,1,0,0,2.48h.83V38.94a3,3,0,0,0,3,3H55.52v.82a1.24,1.24,0,0,0,2.48,0V38.63A1.24,1.24,0,0,0,56.76,37.4Z"/><path d="M29.7,35.66h1.53a1.24,1.24,0,0,0,0-2.47H29.7a.24.24,0,0,1-.24-.24V24.66H48a1.24,1.24,0,0,0,0-2.47H41.83V11.47H53.31a.24.24,0,0,1,.23.23V33a.24.24,0,0,1-.23.24H38.68a2.26,2.26,0,0,0-1.47.54l-2.45,2.09a1.24,1.24,0,0,0,.8,2.18,1.27,1.27,0,0,0,.8-.29l2.39-2.05H53.3A2.7,2.7,0,0,0,56,33V11.7A2.7,2.7,0,0,0,53.3,9H29.7A2.7,2.7,0,0,0,27,11.7V33A2.7,2.7,0,0,0,29.7,35.66Zm-.24-24a.24.24,0,0,1,.24-.23h9.67V22.19H29.46Z"/><path d="M14.5,28A1.5,1.5,0,1,0,16,29.5h0A1.5,1.5,0,0,0,14.5,28Z"/><path d="M59,0H7.81C3.43,0,0,2.24,0,5.1V53.9C0,56.76,3.43,59,7.81,59s7.82-2.24,7.82-5.1v-5H59a5.06,5.06,0,0,0,5-5.06V5.06A5.06,5.06,0,0,0,59,0ZM7.81,2.5c3,0,5.32,1.37,5.32,2.6S10.85,7.69,7.81,7.69,2.5,6.32,2.5,5.1,4.77,2.5,7.81,2.5ZM61.5,43.86A2.55,2.55,0,0,1,59,46.41H15.63V34.51a1.25,1.25,0,0,0-2.5,0V53.9c0,1.23-2.28,2.6-5.32,2.6S2.5,55.13,2.5,53.9v-45a10.41,10.41,0,0,0,5.31,1.33,10.47,10.47,0,0,0,5.32-1.33V24.49a1.25,1.25,0,0,0,2.5,0V5.1a3.86,3.86,0,0,0-1.06-2.6H59A2.56,2.56,0,0,1,61.5,5.06Z"/></svg>