<svg id="Layer_1" data-name="Layer 1" xmlns="http://www.w3.org/2000/svg" viewBox="0 0 56 56"><path d="M28,37h5V50H28Z" style="fill:#ffca13;fill-rule:evenodd"/><path d="M4,2H36L20,17h-.14Z" style="fill:#ffca13;fill-rule:evenodd"/><path d="M30.15,29.24l.09-.64L35.59,37H24.88Z" style="fill:#ffca13;fill-rule:evenodd"/><path d="M47.77,34.05A4.3,4.3,0,0,0,45,35a4.28,4.28,0,0,0-2.8-1A4.17,4.17,0,0,0,38,38.1c0,1.53,1.1,3.32,3.28,5.3a27.88,27.88,0,0,0,3.06,2.41A1.14,1.14,0,0,0,45,46a1.11,1.11,0,0,0,.63-.19,28.74,28.74,0,0,0,3.08-2.4c2.23-2,3.31-3.72,3.31-5.26A4.17,4.17,0,0,0,47.77,34.05ZM45,43.57c-2.14-1.54-4.73-4-4.73-5.47A2,2,0,0,1,44,37.25a1.15,1.15,0,0,0,1,.61,1.12,1.12,0,0,0,1-.59,2,2,0,0,1,1.76-1,2,2,0,0,1,2,1.92C49.75,39.6,47.14,42,45,43.57Z"/><path d="M26.08,5.38a.76.76,0,0,0,.09.18l.12.15.15.12a.76.76,0,0,0,.18.09A.64.64,0,0,0,26.8,6L27,6l.19,0a.6.6,0,0,0,.19-.06.76.76,0,0,0,.18-.09l.15-.12.12-.15a.76.76,0,0,0,.09-.18A.64.64,0,0,0,28,5.2,1.36,1.36,0,0,0,28,5a1.5,1.5,0,0,0,0-.2.64.64,0,0,0-.06-.18.56.56,0,0,0-.09-.17l-.12-.16-.15-.12a.76.76,0,0,0-.18-.09A.6.6,0,0,0,27.19,4a.86.86,0,0,0-.39,0,.64.64,0,0,0-.18.06.76.76,0,0,0-.18.09l-.15.12-.12.16a.56.56,0,0,0-.09.17A.64.64,0,0,0,26,4.8,1.5,1.5,0,0,0,26,5a1.36,1.36,0,0,0,0,.2A.64.64,0,0,0,26.08,5.38Z"/><path d="M52.33,23.44H39.7V2.16A2.16,2.16,0,0,0,37.55,0H2.16A2.16,2.16,0,0,0,0,2.16V26.85A2.16,2.16,0,0,0,2.16,29H5.69V32.6a1.07,1.07,0,0,0,.54.94,1.08,1.08,0,0,0,.55.15,1.14,1.14,0,0,0,.54-.14l8-4.54h4.93V47.9a3.68,3.68,0,0,0,3.67,3.67H39.66L48,55.88a1.11,1.11,0,0,0,.5.12,1.07,1.07,0,0,0,.57-.16,1.1,1.1,0,0,0,.52-.93V51.57h2.7A3.67,3.67,0,0,0,56,47.9V27.1A3.66,3.66,0,0,0,52.33,23.44ZM37.52,2.19V23.44H34L24.88,14.5,37.48,2.19Zm-3.17,0L19.85,16.36,9.16,5.91H22.62a1.1,1.1,0,1,0,0-2.19H6.92L5.35,2.19ZM2.19,26.82V2.19h0L14.82,14.5,2.22,26.82Zm18.09,0H15a1.14,1.14,0,0,0-.54.14L7.87,30.72V27.91a1.09,1.09,0,0,0-1.09-1.09H5.35L16.39,16l2.7,2.64a.64.64,0,0,0,.15.13,1.1,1.1,0,0,0,1.23,0l.15-.13L23.32,16l7.57,7.41h-7A3.66,3.66,0,0,0,20.28,26.82Zm12.87,8.9a1.09,1.09,0,0,0-1.09,1.09V49.38H28.24V37.91h1a1.1,1.1,0,0,0,0-2.19H26.7l3.45-5.59,3.45,5.59ZM53.81,47.9a1.48,1.48,0,0,1-1.48,1.48H48.54a1.09,1.09,0,0,0-1.09,1.09v2.64l-7-3.61a1.08,1.08,0,0,0-.5-.12H34.25V37.91h1.31a1.11,1.11,0,0,0,1-.56,1.13,1.13,0,0,0,0-1.11l-5.42-8.77a1.09,1.09,0,0,0-1.86,0l-5.41,8.77a1.09,1.09,0,0,0,.93,1.67h1.32V49.38H23.93a1.48,1.48,0,0,1-1.48-1.48V27.1a1.48,1.48,0,0,1,1.48-1.47h28.4a1.47,1.47,0,0,1,1.48,1.47Z"/></svg>