<svg id="Layer_1" data-name="Layer 1" xmlns="http://www.w3.org/2000/svg" viewBox="0 0 31 31"><path d="M28.31,2.63A5.3,5.3,0,0,0,23.73,0H22.27a5.3,5.3,0,0,0-4.58,2.63A5.27,5.27,0,0,0,17,5.23V15a4.12,4.12,0,0,1,.69-.56,4.7,4.7,0,0,1,1.76-.73L21,13.4l.46-1.84h0a3.48,3.48,0,0,1-2-3.12V6.33a.49.49,0,0,1,.36-.47A7.72,7.72,0,0,0,23,4a7.66,7.66,0,0,0,3.14,1.89.49.49,0,0,1,.36.47V8.44a3.48,3.48,0,0,1-2,3.12h0L25,13.4l1.55.31a4.77,4.77,0,0,1,1.76.73A4.12,4.12,0,0,1,29,15V5.23A5.27,5.27,0,0,0,28.31,2.63Z" style="fill:#f0bc5e"/><path d="M12.05,1A5.3,5.3,0,0,0,9,0H7.44A9.91,9.91,0,0,0,3.51.81l-1.27.54,1,1.56L2,3.35v.83a12.07,12.07,0,0,0,.37,2.93L2.5,8A1.55,1.55,0,0,1,4,6.4h.54a1.06,1.06,0,0,1,.7-.74A6.49,6.49,0,0,0,7.91,4.36L8,4.27l.09.09A4.65,4.65,0,0,0,10.7,5.79a1,1,0,0,1,.71.62H12A1.55,1.55,0,0,1,13.5,8l0-1A5,5,0,0,0,14,4.89,4.78,4.78,0,0,0,12.05,1Z" style="fill:#f0bc5e"/><path d="M25.8,21.92h-.1a2.2,2.2,0,0,0-1.2.36,2.25,2.25,0,0,0-1.2-.36h-.1a2.23,2.23,0,0,0-1.41,3.93l2.71,2.28,2.71-2.28A2.25,2.25,0,0,0,28,24.14a2.22,2.22,0,0,0-2.2-2.22Zm.77,3.15L24.5,26.81l-2.07-1.74a1.22,1.22,0,0,1-.43-.93,1.21,1.21,0,0,1,1.2-1.21h.1a1.26,1.26,0,0,1,.87.37l.35.32.34-.34a1.21,1.21,0,0,1,.84-.35h.1a1.21,1.21,0,0,1,.85.36,1.19,1.19,0,0,1,.35.85A1.22,1.22,0,0,1,26.57,25.07Z"/><path d="M17.8,21.92h-.1a2.2,2.2,0,0,0-1.2.36,2.25,2.25,0,0,0-1.2-.36h-.1a2.23,2.23,0,0,0-1.41,3.93l2.71,2.28,2.71-2.28A2.25,2.25,0,0,0,20,24.14a2.22,2.22,0,0,0-2.2-2.22Zm.77,3.15L16.5,26.81l-2.07-1.74a1.22,1.22,0,0,1-.43-.93,1.21,1.21,0,0,1,1.2-1.21h.1a1.26,1.26,0,0,1,.87.37l.35.32.34-.34a1.21,1.21,0,0,1,.84-.35h.1a1.21,1.21,0,0,1,.85.36,1.19,1.19,0,0,1,.35.85A1.22,1.22,0,0,1,18.57,25.07Z"/><path d="M4,23.43a1,1,0,0,0-1,1v1a1,1,0,0,0,1,1H5.4L12,29.23V20.66L5.4,23.43Zm1,2H4v-1H5Zm1-1.18,5-2.1v5.55l-5-2.1Z"/><path d="M28.59,14a5.39,5.39,0,0,0-1.95-.81l-1.23-.25-.3-1.19A4.06,4.06,0,0,0,27,8.3V6.16a1,1,0,0,0-.72-1A7.27,7.27,0,0,1,23.35,3.4L23,3l-.35.36a7.27,7.27,0,0,1-2.93,1.79,1,1,0,0,0-.72,1V8.3a4.06,4.06,0,0,0,1.89,3.42l-.3,1.19-1.23.25a5.36,5.36,0,0,0-3.86,3.09,5.36,5.36,0,0,0-3.86-3.09l-1.23-.25-.3-1.19a4,4,0,0,0,1.76-2.41H12a2,2,0,0,0,0-4h-.31a1.47,1.47,0,0,0-.91-.57A4.31,4.31,0,0,1,8.44,3.49L8,3l-.44.45A6.1,6.1,0,0,1,5.11,4.6a1.46,1.46,0,0,0-.88.67H4a2,2,0,0,0,0,4h.13a4,4,0,0,0,1.76,2.41l-.3,1.19-1.23.25A5.39,5.39,0,0,0,2.41,14,5.48,5.48,0,0,0,0,18.52v11A1.51,1.51,0,0,0,1.5,31h28A1.51,1.51,0,0,0,31,29.49v-11A5.48,5.48,0,0,0,28.59,14ZM12,6.28a1,1,0,0,1,0,2Zm-8,2a1,1,0,0,1,0-2Zm16,0V6.15a8.2,8.2,0,0,0,3-1.7,8.25,8.25,0,0,0,3,1.71V8.3a3,3,0,1,1-6,0Zm1.41,5.47.4-1.62a4,4,0,0,0,2.38,0l.4,1.62,1.2.25L25,15.86H21L20.21,14Zm3.06,3.1-1.25,2h-.84l-.9-2ZM16,18.52a4.48,4.48,0,0,1,2-3.71,4.32,4.32,0,0,1,1.25-.58l2.06,4.66H16Zm-4.58-4.38h0a4.32,4.32,0,0,1,1.58.66,4.48,4.48,0,0,1,2,3.71v.37H9.89l-.36-1.46L9.72,17l1.16.7Zm-1.26-.25.27,0-.31,2.11-1.31-.79Zm-1.48,3H7.32l-.18-.4L8,16l.86.52Zm.18,2H7.14l.25-1H8.61Zm-2.31-5.7.26-1a4,4,0,0,0,2.38,0l.26,1L8,14.65ZM5,8.3V6.06a.52.52,0,0,1,.37-.49A8.26,8.26,0,0,0,8,4.44,5.27,5.27,0,0,0,10.61,5.7a.5.5,0,0,1,.39.49V8.3a3,3,0,1,1-6,0Zm.84,5.59,1.35,1.37-1.31.79-.31-2.11ZM1,18.52a4.48,4.48,0,0,1,2-3.71,4.32,4.32,0,0,1,1.58-.66h0l.54,3.55L6.28,17l.19.44-.36,1.46H1.5A1.64,1.64,0,0,0,1,19Zm29,11a.5.5,0,0,1-.5.5H1.5a.5.5,0,0,1-.5-.5V20.41a.5.5,0,0,1,.5-.51H23.78l2.36-3.81a.47.47,0,0,1,.39-.23.48.48,0,0,1,.47.47V19.9h2.5a.5.5,0,0,1,.5.51ZM30,19a1.64,1.64,0,0,0-.5-.09H28V16.33a1.47,1.47,0,0,0-1.47-1.47h0l.28-.63a4.39,4.39,0,0,1,1.24.58,4.48,4.48,0,0,1,2,3.71Z"/></svg>