<svg id="Layer_1" data-name="Layer 1" xmlns="http://www.w3.org/2000/svg" viewBox="0 0 35 34"><path d="M32.74,13.65H35V10.26H33.18L32.62,8H2.38l-.56,2.26H0v3.39H2.26v17H0V34H35V30.61H32.74V23.1l.61.21L35,22.48V20.25L32.71,17h0ZM3.26,9.13H31.74L32,10.26H3ZM1.13,12.52V11.39H33.87v1.13H1.13Zm30.48,1.13v2.26H3.39V13.65Zm-.56,8.07-1.13.38-1.13-.38V20.9L27.35,17H29l2,4.09ZM12.42,30.61V23l.52.27,1.17-.4v7.7Zm0-9.45L15,17h1l-1.91,3.83v.85L13,22.09l-.61-.31v-.62Zm-1.13.41H3.39V21h7.9ZM6.21,22.7h5.08v7.91H6.21Zm9-1.57,2-4.09h1.66L17.5,20.9v.82l-1.13.38-1.13-.38ZM26.14,17l1.52,4.06v.62l-1.13.38-1.13-.38V21l-.49-4Zm-2.36,0,.49,4v.68l-1.12.38L22,21.72V21l.49-4Zm-2.89,3.89v.79l-1.13.38-1.13-.38V21.1L20.15,17h1.23Zm-2.83,1.8,1.7.56,1.69-.56,1.69.56,1.7-.56,1.69.56,1.7-.56.56.18v4.87H18.06ZM3.39,17H13.66l-1.77,2.83H3.39Zm0,5.66H5.08v7.91H3.39ZM33.87,32.87H1.13V31.74H33.87Zm-2.26-2.26H15.24v-7.7l1.13.38.57-.19v5.81h13V23.29l1.69-.56v7.88Zm2.26-8.83-.61.31-1.08-.37v-.85L30.27,17h1.05l2.55,3.58v1.16Z" transform="translate(0 0)" style="fill:#333"/><path d="M30,9H5V1.69A1.7,1.7,0,0,1,6.7,0H28.3A1.7,1.7,0,0,1,30,1.69Z" transform="translate(0 0)" style="fill:#f9ba48"/><path d="M9.29,6.8H8.71a.59.59,0,0,1-.57-.6H7A1.76,1.76,0,0,0,8.71,8h.58A1.76,1.76,0,0,0,11,6.2,1.76,1.76,0,0,0,9.29,4.4H8.71a.6.6,0,0,1,0-1.2h.58a.59.59,0,0,1,.57.6H11A1.76,1.76,0,0,0,9.29,2H8.71A1.76,1.76,0,0,0,7,3.8,1.76,1.76,0,0,0,8.71,5.6h.58a.6.6,0,0,1,0,1.2Z" transform="translate(0 0)" style="fill:#333"/><path d="M14,5.6h2V8h1V2H16V4.4H14V2H13V8h1Z" transform="translate(0 0)" style="fill:#333"/><path d="M20,8a2.23,2.23,0,0,0,2-2.4V4.4A2.23,2.23,0,0,0,20,2a2.23,2.23,0,0,0-2,2.4V5.6A2.23,2.23,0,0,0,20,8ZM19,4.4a1.12,1.12,0,0,1,1-1.2,1.12,1.12,0,0,1,1,1.2V5.6a1.12,1.12,0,0,1-1,1.2,1.12,1.12,0,0,1-1-1.2Z" transform="translate(0 0)" style="fill:#333"/><path d="M25.14,5.6h1.15A1.76,1.76,0,0,0,28,3.8,1.76,1.76,0,0,0,26.29,2H24V8h1.14Zm0-2.4h1.15a.6.6,0,0,1,0,1.2H25.14Z" transform="translate(0 0)" style="fill:#333"/></svg>