<svg id="Layer_1" data-name="Layer 1" xmlns="http://www.w3.org/2000/svg" viewBox="0 0 29 29"><path d="M25.07,1H1.93A.91.91,0,0,0,1,1.89V5H26V1.89A.91.91,0,0,0,25.07,1Z" style="fill:#f0bc5e"/><rect x="17" y="7" width="7" height="4" style="fill:#f0bc5e"/><path d="M27.13,13.56v-.64a1.69,1.69,0,0,0-.94-1.52V1.4A1.4,1.4,0,0,0,24.79,0H1.4A1.4,1.4,0,0,0,0,1.4V29H26.19V19.47A1.69,1.69,0,0,0,27.13,18v-.64a1.88,1.88,0,0,0,0-3.75ZM2.81,28.06H.94V1.4A.47.47,0,0,1,1.4.94H24.79a.47.47,0,0,1,.47.46v9.83h-.94v1.11l-1.12.56a1.82,1.82,0,0,1-.83.2H20.11a2.34,2.34,0,0,0-.46,4.63v.19l-7.12-.58-.26-1.07A3.74,3.74,0,0,0,13.91,14H14A1.87,1.87,0,0,0,15,10.55V9.82a4.22,4.22,0,0,0-4.21-4.21H9.82A4.22,4.22,0,0,0,5.61,9.82v.73A1.87,1.87,0,0,0,6.55,14h.12a3.74,3.74,0,0,0,1.64,2.24L8,17.37l-1.16.23a5.08,5.08,0,0,0-4.07,5ZM22.37,16.84h-.85V14h.85a2.86,2.86,0,0,0,1.25-.29l.7-.35v4.1l-.7-.35A2.71,2.71,0,0,0,22.37,16.84Zm.08,2.27a1.18,1.18,0,0,1,0,2.31Zm-1.87-1.34h.94V22a.47.47,0,1,1-.94,0Zm-.47-.93a1.41,1.41,0,0,1,0-2.81h.47v2.81ZM14,10.29h-.47a2.15,2.15,0,0,1-1.79-1l-.54-.82-.39.59A2.71,2.71,0,0,1,8.6,10.29h-2V9.82A3.28,3.28,0,0,1,9.82,6.55h.94A3.28,3.28,0,0,1,14,9.82ZM15,12.16a.94.94,0,0,1-.94.94V11.23A.94.94,0,0,1,15,12.16Zm-7.49-.93H8.6a3.64,3.64,0,0,0,2.6-1.1,3.11,3.11,0,0,0,1.9,1.06V13.1a2.81,2.81,0,0,1-5.62,0Zm1.7,5.44a3.71,3.71,0,0,0,2.22,0l.24,1L10.29,19,8.94,17.63Zm.36,2.88-1.23.74-.3-2,.26,0Zm.75.64.85.51-.26.82H9.7l-.26-.82Zm.75-.64,1.3-1.29.24,0-.31,2ZM6.55,11.23V13.1a.94.94,0,1,1,0-1.87ZM8,28.06H6.55V23.39H5.61v4.67H3.74V22.58a4.11,4.11,0,0,1,1.84-3.44,4,4,0,0,1,1.48-.62h0l.5,3.29,1-.62.26.83Zm1,0,.8-5.61h1.06l.8,5.61Zm5.07,0H12.57l-.87-6,.26-.83,1,.62.52-3.46,6.14.51v2.46L14,21Zm11.23,0H15V22l4.7.25a1.4,1.4,0,0,0,2.72.11,2.11,2.11,0,0,0,1.93-2.11,2.12,2.12,0,0,0-1.87-2.1v-.38a1.93,1.93,0,0,1,.75.19l1.12.56v1.12h.94ZM26.19,18a.76.76,0,0,1-.41.68.84.84,0,0,1-.34.08h-.18V12.16h.18a.84.84,0,0,1,.34.08.76.76,0,0,1,.41.68Zm.94-1.58V14.5a.94.94,0,0,1,0,1.87Z"/><rect x="22.45" y="25.26" width="0.94" height="0.94"/><rect x="20.58" y="25.26" width="0.94" height="0.94"/><rect x="18.71" y="25.26" width="0.94" height="0.94"/><rect x="3.27" y="1.87" width="0.94" height="0.94"/><rect x="5.15" y="1.87" width="0.94" height="0.94"/><rect x="7.02" y="1.87" width="0.94" height="0.94"/><rect x="16.84" y="6.55" width="6.55" height="0.94"/><rect x="16.84" y="8.42" width="6.55" height="0.94"/><rect x="16.84" y="10.29" width="6.55" height="0.94"/></svg>