<svg id="Layer_1" data-name="Layer 1" xmlns="http://www.w3.org/2000/svg" viewBox="0 0 53 59"><path d="M2,36H51V46H2Z" transform="translate(0 0)" style="fill:#ffca13;fill-rule:evenodd"/><path d="M31.79,13.59,42,0l6.39,4.81L38.18,18.4Z" transform="translate(0 0)" style="fill:#ffca13;fill-rule:evenodd"/><path d="M48.38,7.67h-.7A5.06,5.06,0,0,0,46.39,1a5,5,0,0,0-7.15,1.25L35.63,7.67h-31A4.64,4.64,0,0,0,0,12.33V42.09a4.63,4.63,0,0,0,4.62,4.65h18l-1.36,5.74H18.29A3.49,3.49,0,0,0,14.83,56v.73H11.22a1.15,1.15,0,0,0,0,2.3H41.78a1.15,1.15,0,0,0,0-2.3H38.17V56a3.49,3.49,0,0,0-3.46-3.49H31.78l-1.36-5.74h18A4.63,4.63,0,0,0,53,42.09V12.33A4.64,4.64,0,0,0,48.38,7.67ZM32,27.93c-1.79,1.26-5.14-.45-8.34,1.27-.78-4.09-.29-7.93,3.78-8.78A7.19,7.19,0,0,1,29,20.27l4.14,3.09C33.73,25.12,33.5,26.86,32,27.93Zm1.15-12.35L36.37,18l-2.49,3.06L31,18.87Zm8-12.06A2.7,2.7,0,0,1,45,2.85a2.75,2.75,0,0,1,.48,3.93l-7.68,9.44-3.42-2.56ZM35.88,56v.73H17.12V56a1.18,1.18,0,0,1,1.17-1.18H34.71A1.18,1.18,0,0,1,35.88,56Zm-6.46-3.49H23.57l1.36-5.74h3.14ZM50.71,42.09a2.34,2.34,0,0,1-2.33,2.35H4.62a2.34,2.34,0,0,1-2.33-2.35v-5.4H5.56a1.15,1.15,0,0,0,0-2.3H2.29V12.33A2.34,2.34,0,0,1,4.62,10H34.1c-1.09,1.65-4.29,6.46-5.31,8a7.78,7.78,0,0,0-5.94,2.53c-2,2.35-2.35,6-1,11A1.14,1.14,0,0,0,23.7,32c3-2.85,6.65.26,10-2.43a6.07,6.07,0,0,0,1.73-6.7L45.87,10h2.51a2.34,2.34,0,0,1,2.33,2.35V34.39h-36a1.15,1.15,0,0,0,0,2.3h36Z" transform="translate(0 0)"/><path d="M9.8,34A1,1,0,1,0,11,34.8,1,1,0,0,0,9.8,34Z" transform="translate(0 0)"/></svg>