<svg id="Layer_1" data-name="Layer 1" xmlns="http://www.w3.org/2000/svg" viewBox="0 0 64 57"><circle cx="59.5" cy="39.5" r="3.5" style="fill:#ffca13"/><path d="M2,2H47V13H2Z" transform="translate(0 0)" style="fill:#ffca13;fill-rule:evenodd"/><path d="M59.89,28.15H48.77V4.67A4.66,4.66,0,0,0,44.13,0H4.65A4.67,4.67,0,0,0,0,4.67V35.51a4.67,4.67,0,0,0,4.65,4.67H31.18V52.87A4.13,4.13,0,0,0,35.29,57h24.6A4.12,4.12,0,0,0,64,52.87V32.28A4.12,4.12,0,0,0,59.89,28.15ZM33.68,38.92V37.18H54.35a5.51,5.51,0,0,0,7.15,7.18v1l-3.93,2.76a2.39,2.39,0,0,1-3-.22l-6.44-6.13a6.29,6.29,0,0,0-8.79.17L33.68,47.7Zm23.6-1.74H61.5v4.24a3,3,0,0,1-2.06.83A3,3,0,0,1,57.28,37.18Zm4.22-4.9v2.38H33.68V32.28a1.61,1.61,0,0,1,1.61-1.62h24.6A1.61,1.61,0,0,1,61.5,32.28ZM4.65,37.67A2.16,2.16,0,0,1,2.5,35.51V13.67H32.87a1.26,1.26,0,0,0,0-2.51H2.5V4.67A2.16,2.16,0,0,1,4.65,2.51H44.13a2.15,2.15,0,0,1,2.14,2.16v6.49h-3.4a1.26,1.26,0,0,0,0,2.51h3.4V28.15h-11a4.12,4.12,0,0,0-4.11,4.13v5.39ZM61.5,52.87a1.62,1.62,0,0,1-1.61,1.62H35.29a1.62,1.62,0,0,1-1.61-1.62V51.29l7.44-7.62a3.78,3.78,0,0,1,5.29-.1l6.45,6.12a4.89,4.89,0,0,0,6.15.46L61.5,48.4Z" transform="translate(0 0)"/><path d="M7.5,3A3.5,3.5,0,1,0,11,6.5,3.5,3.5,0,0,0,7.5,3Zm0,4.4a.9.9,0,1,1,.9-.9A.9.9,0,0,1,7.5,7.4Z" transform="translate(0 0)"/><path d="M15.5,3A3.5,3.5,0,1,0,19,6.5,3.5,3.5,0,0,0,15.5,3Zm0,4.4a.9.9,0,1,1,.9-.9A.9.9,0,0,1,15.5,7.4Z" transform="translate(0 0)"/><path d="M23.5,3A3.5,3.5,0,1,0,27,6.5,3.5,3.5,0,0,0,23.5,3Zm0,4.4a.9.9,0,1,1,.9-.9A.9.9,0,0,1,23.5,7.4Z" transform="translate(0 0)"/><path d="M20.69,22a1.17,1.17,0,0,0-.13-1.71,1.3,1.3,0,0,0-1.79.12l-2.1,2.33a2.63,2.63,0,0,0,0,3.5l2.1,2.33a1.3,1.3,0,0,0,1.79.12A1.17,1.17,0,0,0,20.69,27l-2.1-2.33a.24.24,0,0,1,0-.32Z" transform="translate(0 0)"/><path d="M31.33,22.75l-2.1-2.33a1.3,1.3,0,0,0-1.79-.12A1.17,1.17,0,0,0,27.31,22l2.1,2.33a.24.24,0,0,1,0,.32L27.31,27a1.17,1.17,0,0,0,.13,1.71,1.3,1.3,0,0,0,1.79-.12l2.1-2.33A2.63,2.63,0,0,0,31.33,22.75Z" transform="translate(0 0)"/><path d="M25,19a1.27,1.27,0,0,0-1.47,1L22,28.49a1.27,1.27,0,1,0,2.49.45L26,20.51A1.29,1.29,0,0,0,25,19Z" transform="translate(0 0)"/><path d="M37.5,14a1.5,1.5,0,0,0,0-3h0a1.5,1.5,0,0,0,0,3Z" transform="translate(0 0)"/></svg>