<svg id="Layer_1" data-name="Layer 1" xmlns="http://www.w3.org/2000/svg" viewBox="0 0 53 58"><path d="M4.94,58H48.06A4.94,4.94,0,0,0,53,53.07V4.93A4.94,4.94,0,0,0,48.06,0H4.94A4.94,4.94,0,0,0,0,4.93V53.07A4.94,4.94,0,0,0,4.94,58ZM48.06,2.27a2.67,2.67,0,0,1,2.67,2.66v2.7H45.25a1.14,1.14,0,1,0,0,2.27h5.48V53.07a2.67,2.67,0,0,1-2.67,2.66H4.94a2.67,2.67,0,0,1-2.67-2.66V9.1A5,5,0,0,0,5,9.9H35.26a1.14,1.14,0,0,0,0-2.27H9.12a4.92,4.92,0,0,0,0-5.36ZM5,2.27A2.69,2.69,0,0,1,7.65,5,2.68,2.68,0,0,1,5,7.63,2.68,2.68,0,1,1,5,2.27Z" transform="translate(0 0)"/><path d="M8,16H44V29H8Z" transform="translate(0 0)" style="fill:#ffca13;fill-rule:evenodd"/><path d="M9,39H27V52H9Z" transform="translate(0 0)" style="fill:#ffca13;fill-rule:evenodd"/><path d="M7,15.13V29.87A1.14,1.14,0,0,0,8.15,31h36.7A1.14,1.14,0,0,0,46,29.87V15.13A1.14,1.14,0,0,0,44.85,14H8.15A1.14,1.14,0,0,0,7,15.13Zm2.29,1.13H43.71V28.74H9.29Z" transform="translate(0 0)"/><path d="M19.55,18.77v0a1.11,1.11,0,0,0-1-.74h0a1.11,1.11,0,0,0-1,.74v0l-2.41,6.82a1.06,1.06,0,0,0,.56,1.34.94.94,0,0,0,1.25-.6l.36-1h2.54l.36,1A1,1,0,0,0,21,27a.86.86,0,0,0,.34-.07,1.07,1.07,0,0,0,.56-1.34ZM18,23.22l.54-1.53L19,23.22Z" transform="translate(0 0)"/><path d="M27.08,18h-2a1.09,1.09,0,0,0-.77.31,1,1,0,0,0-.32.76h0v6.75A1.13,1.13,0,0,0,25.11,27l2,0C29.38,27,31,25.06,31,22.5S29.42,18,27.08,18Zm0,6.86h-.93c0-.8,0-1.84,0-2.38V20.13h.9c1.62,0,1.75,1.81,1.75,2.37C28.83,23.66,28.3,24.84,27.12,24.86Z" transform="translate(0 0)"/><path d="M36,21.58c-.75-.3-1.45-.63-1.69-.75a.31.31,0,0,1-.08-.27.52.52,0,0,1,.39-.42,1.86,1.86,0,0,1,1.59.41.89.89,0,0,0,1.33-.13A1.11,1.11,0,0,0,37.45,19a3.64,3.64,0,0,0-3.35-.8,2.55,2.55,0,0,0-1.72,2.11,2.44,2.44,0,0,0,1,2.35l.13.08s.92.44,1.9.84c.39.16.78.43.73.75a.93.93,0,0,1-1,.64,2,2,0,0,1-1.5-.68.89.89,0,0,0-1.34-.08,1.1,1.1,0,0,0-.06,1.47A3.73,3.73,0,0,0,35.15,27,2.83,2.83,0,0,0,38,24.64,2.8,2.8,0,0,0,36,21.58Z" transform="translate(0 0)"/><path d="M20.62,35.93a1,1,0,0,0,1.25-1.42A1,1,0,0,0,20.81,34a1,1,0,0,0-.8.83A1,1,0,0,0,20.62,35.93Z" transform="translate(0 0)"/><path d="M25.16,35.56a1,1,0,1,0,.28-1.39A1,1,0,0,0,25.16,35.56Z" transform="translate(0 0)"/><path d="M30.17,35.56a1,1,0,1,0,.27-1.39A1,1,0,0,0,30.17,35.56Z" transform="translate(0 0)"/><path d="M26.85,39H9.15A1.16,1.16,0,0,0,8,40.17V50.83A1.16,1.16,0,0,0,9.15,52h17.7A1.16,1.16,0,0,0,28,50.83V40.17A1.16,1.16,0,0,0,26.85,39ZM25.69,49.66H10.31V41.34H25.69Z" transform="translate(0 0)"/><path d="M44.83,39H31.17a1,1,0,1,0,0,2H44.83a1,1,0,1,0,0-2Z" transform="translate(0 0)"/><path d="M44.83,45H31.17a1,1,0,1,0,0,2H44.83a1,1,0,1,0,0-2Z" transform="translate(0 0)"/><path d="M44.85,50h-8.7a1,1,0,1,0,0,2h8.7a1,1,0,1,0,0-2Z" transform="translate(0 0)"/><path d="M39.07,9.38a1,1,0,0,0,1,.62,1,1,0,1,0-.65-1.82A1,1,0,0,0,39.07,9.38Z" transform="translate(0 0)"/><path d="M31.93,50.62a1,1,0,0,0-1-.62,1,1,0,1,0,.59,1.86A1,1,0,0,0,31.93,50.62Z" transform="translate(0 0)"/></svg>