<?xml version="1.0" encoding="UTF-8"?>
<svg width="50px" height="51px" viewBox="0 0 50 51" version="1.1" xmlns="http://www.w3.org/2000/svg" xmlns:xlink="http://www.w3.org/1999/xlink">
    <title>71668D80-CA3D-4224-ABC4-A788AC10630B@2x</title>
    <g id="All-You-Can-Use" stroke="none" stroke-width="1" fill="none" fill-rule="evenodd">
        <g id="All_you_can_use" transform="translate(-958.000000, -700.000000)" fill-rule="nonzero">
            <g id="Group-8" transform="translate(943.000000, 683.000000)">
                <g id="media" transform="translate(15.000000, 17.000000)">
                    <g id="Group" transform="translate(10.483871, 7.258065)" fill="#F0BC5E">
                        <polygon id="Path" points="24.1935484 0 29.0322581 0 29.0322581 12.0967742 24.1935484 12.0967742"></polygon>
                        <polygon id="Path" points="0 0 4.83870968 0 4.83870968 12.0967742 0 12.0967742"></polygon>
                        <polygon id="Path" points="5.64516129 23.0791645 5.64516129 17.2434161 11.480516 20.1612903"></polygon>
                        <polygon id="Path" points="20.9677419 14.516129 18.5483871 16.9354839 18.5483871 19.3548387 26.6129032 19.3548387 26.6129032 14.516129"></polygon>
                        <polygon id="Path" points="26.6129032 25.8064516 18.5483871 25.8064516 18.5483871 20.9677419 26.6129032 20.9677419"></polygon>
                    </g>
                    <path d="M28.1194871,1.81845383 C26.0671308,1.54517389 23.9328692,1.54517389 21.8805129,1.81845383 L21.6678742,0.220120363 C23.8604145,-0.0716671371 26.1395855,-0.0716671371 28.3321258,0.220120363 L28.1194871,1.81845383 Z" id="Path" fill="#000000"></path>
                    <path d="M28.4297821,11.9699786 L29.7516854,11.0887097 L31.5662015,12.9032258 L32.2580645,12.9032258 L32.2580645,0 L27.4193548,0 L27.4193548,11.4895728 C27.7702086,11.6250315 28.1104303,11.7797852 28.4297821,11.9699786 L28.4297821,11.9699786 Z" id="Path" fill="#F0BC5E"></path>
                    <path d="M20.2475271,11.0887097 L21.5694304,11.9699786 C21.8887822,11.7797852 22.2297914,11.6250315 22.5798577,11.4895728 L22.5798577,0 L17.741148,0 L17.741148,12.9032258 L18.433011,12.9032258 L20.2475271,11.0887097 Z" id="Path" fill="#F0BC5E"></path>
                    <path d="M25,21.7741935 C27.2232548,21.7741935 29.0322581,19.9651903 29.0322581,17.7419355 C29.0322581,15.5186806 27.2232548,13.7096774 25,13.7096774 C22.7767452,13.7096774 20.9677419,15.5186806 20.9677419,17.7419355 C20.9677419,19.9651903 22.7767452,21.7741935 25,21.7741935 Z M25,15.3225806 C26.3337166,15.3225806 27.4193548,16.4082189 27.4193548,17.7419355 C27.4193548,19.0756521 26.3337166,20.1612903 25,20.1612903 C23.6662834,20.1612903 22.5806452,19.0756521 22.5806452,17.7419355 C22.5806452,16.4082189 23.6662834,15.3225806 25,15.3225806 Z" id="Shape" fill="#000000"></path>
                    <polygon id="Path" fill="#000000" points="35.483871 37.9032258 37.0967742 37.9032258 37.0967742 39.516129 35.483871 39.516129"></polygon>
                    <polygon id="Path" fill="#000000" points="32.2580645 37.9032258 33.8709677 37.9032258 33.8709677 39.516129 32.2580645 39.516129"></polygon>
                    <polygon id="Path" fill="#000000" points="29.0322581 37.9032258 30.6451613 37.9032258 30.6451613 39.516129 29.0322581 39.516129"></polygon>
                    <path d="M32.2580645,1.08957601 L32.2580645,2.78241552 C41.8016003,5.89757117 48.3870968,14.8724956 48.3870968,25 C48.3870968,33.5807554 43.739368,41.0920173 36.8313698,45.1612903 L32.2580645,45.1612903 L32.2580645,42.7419355 L37.0967742,42.7419355 C38.8758506,42.7419355 40.3225806,41.2952054 40.3225806,39.516129 L40.3225806,20.1612903 C40.3225806,19.2717521 39.5992156,18.5483871 38.7096774,18.5483871 L33.8709677,18.5483871 L33.8709677,15.7372259 L32.1434759,15.3910976 C32.0257371,15.0339434 31.8831905,14.6870274 31.7138671,14.3523185 L32.6904296,12.887081 L29.8548544,10.0515058 L28.3896169,11.0280683 C28.0549081,10.858745 27.707992,10.7154108 27.3508379,10.5984596 L27.0047096,8.87096774 L22.9945029,8.87096774 L22.6483745,10.5984596 C22.2912204,10.7161984 21.9443044,10.858745 21.6095956,11.0280683 L20.144358,10.0515058 L17.3087828,12.887081 L18.2853453,14.3523185 C18.116022,14.6870274 17.9726877,15.0339434 17.8557365,15.3910976 L16.1290323,15.7372259 L16.1290323,18.5483871 L11.2903226,18.5483871 C10.4007844,18.5483871 9.67741935,19.2717521 9.67741935,20.1612903 L9.67741935,39.516129 C9.67741935,41.2952054 11.1241494,42.7419355 12.9032258,42.7419355 L17.7419355,42.7419355 L17.7419355,45.1612903 L13.1686302,45.1612903 C6.26063196,41.0920173 1.61290323,33.5807554 1.61290323,25 C1.61290323,14.8724956 8.1983997,5.89757117 17.7419355,2.78241552 L17.7419355,1.08957601 C7.26948397,4.26458548 2.86509168e-15,13.9975271 2.86509168e-15,25 C2.86509168e-15,38.7844948 11.2155052,50 25,50 C38.7844948,50 50,38.7844948 50,25 C50,13.9975271 42.730516,4.26458548 32.2580645,1.08957601 Z M17.7419355,17.0587355 L19.1500756,16.7767924 L19.2749023,16.2837859 C19.4146925,15.7328944 19.6324502,15.2087796 19.9210875,14.7232548 L20.1813729,14.2861643 L19.3847656,13.0910566 L20.3506962,12.125126 L21.5458039,12.9217333 L21.9828944,12.6614478 C22.4676317,12.3724168 22.9929278,12.1558405 23.5434255,12.0152627 L24.0364321,11.890436 L24.3168,10.483871 L25.6824124,10.483871 L25.9643554,11.8920111 L26.457362,12.0168378 C27.0082535,12.156628 27.5323683,12.3743857 28.0178931,12.663023 L28.4549837,12.9233084 L29.6500913,12.1267011 L30.616022,13.0926317 L29.8194147,14.2877394 L30.0797001,14.7248298 C30.368731,15.2095671 30.5853075,15.7348633 30.7258852,16.285361 L30.8507119,16.7783675 L32.2580645,17.0587355 L32.2580645,18.4243479 L30.8499244,18.7062909 L30.7250977,19.1992975 C30.5853075,19.750189 30.3675498,20.2743038 30.0789125,20.7598286 L29.8186271,21.1969192 L30.6152344,22.3920268 L29.6493038,23.3579575 L28.4541961,22.5613502 L28.0171056,22.8216356 C27.5323683,23.1106665 27.0070722,23.3272429 26.4565745,23.4678207 L25.9635679,23.5926474 L25.6832,25 L24.3175876,25 L24.0356446,23.5918599 L23.542638,23.4670332 C22.9917465,23.3272429 22.4676317,23.1094853 21.9821069,22.820848 L21.5450163,22.5605626 L20.3499087,23.3571699 L19.383978,22.3912393 L20.1805853,21.1961316 L19.9202999,20.7590411 C19.631269,20.2743038 19.4146925,19.7490077 19.2741148,19.19851 L19.1492881,18.7055034 L17.7419355,18.4251355 L17.7419355,17.0587355 Z M18.0998771,23.3870968 L20.1451456,25.4323651 L21.6103831,24.4558026 C21.9450919,24.625126 22.292008,24.7684602 22.6491621,24.8854114 L22.9952904,26.6129032 L23.3870968,26.6129032 L23.3870968,31.4516129 L14.516129,31.4516129 L14.516129,23.3870968 L18.0998771,23.3870968 Z M17.8844821,20.1612903 C17.9974956,20.4936366 18.1282289,20.8185011 18.2861329,21.1315524 L17.8580992,21.7741935 L12.9032258,21.7741935 L12.9032258,33.0645161 L25,33.0645161 L25,26.6129032 L27.0047096,26.6129032 L27.3508379,24.8854114 C27.707992,24.7676726 28.0549081,24.625126 28.3896169,24.4558026 L29.8548544,25.4323651 L32.6904296,22.5967899 L31.7138671,21.1315524 C31.8717711,20.8185011 32.0025044,20.4936366 32.1155179,20.1612903 L38.7096774,20.1612903 L38.7096774,34.6774194 L11.2903226,34.6774194 L11.2903226,20.1612903 L17.8844821,20.1612903 Z M19.3548387,42.7419355 L24.1935484,42.7419355 L24.1935484,41.1290323 L12.9032258,41.1290323 C12.0136876,41.1290323 11.2903226,40.4056672 11.2903226,39.516129 L11.2903226,36.2903226 L38.7096774,36.2903226 L38.7096774,39.516129 C38.7096774,40.4056672 37.9863124,41.1290323 37.0967742,41.1290323 L25.8064516,41.1290323 L25.8064516,42.7419355 L30.6451613,42.7419355 L30.6451613,45.1612903 L19.3548387,45.1612903 L19.3548387,42.7419355 Z M16.4822486,46.7741935 L33.5177514,46.7741935 C30.8759135,47.8113974 28.0048986,48.3870968 25,48.3870968 C21.9951014,48.3870968 19.1232989,47.8113974 16.4822486,46.7741935 Z" id="Shape" fill="#000000"></path>
                </g>
            </g>
        </g>
    </g>
</svg>