<?xml version="1.0" encoding="UTF-8"?>
<svg width="50px" height="50px" viewBox="0 0 50 50" version="1.1" xmlns="http://www.w3.org/2000/svg" xmlns:xlink="http://www.w3.org/1999/xlink">
    <title>16C79EEB-794E-49E7-BAA1-4A5C2DB5D506@2x</title>
    <g id="All-You-Can-Use" stroke="none" stroke-width="1" fill="none" fill-rule="evenodd">
        <g id="All_you_can_use" transform="translate(-198.000000, -700.000000)" fill-rule="nonzero">
            <g id="Group-8" transform="translate(183.000000, 683.000000)">
                <g id="data-analysis" transform="translate(15.000000, 17.000000)">
                    <g id="Group" transform="translate(12.096774, 1.108871)" fill="#F0BC5E">
                        <path d="M29.8387097,0.0145696573 L29.8387097,6.95564516 L36.7797852,6.95564516 C35.9032415,3.55894032 33.2354145,0.891113306 29.8387097,0.0145696573 Z" id="Path"></path>
                        <polygon id="Path" points="19.3548387 21.4717742 27.4193548 21.4717742 27.4193548 29.5362903 19.3548387 29.5362903"></polygon>
                        <polygon id="Path" points="12.9032258 16.6330645 17.7419355 16.6330645 17.7419355 30.3427419 12.9032258 30.3427419"></polygon>
                        <polygon id="Path" points="6.4516129 19.858871 11.2903226 19.858871 11.2903226 30.3427419 6.4516129 30.3427419"></polygon>
                        <polygon id="Path" points="0 23.0846774 4.83870968 23.0846774 4.83870968 30.3427419 0 30.3427419"></polygon>
                    </g>
                    <path d="M50,10.483871 C50,4.70325101 45.296749,0 39.516129,0 C33.7355091,0 29.0322581,4.70325101 29.0322581,10.483871 C29.0322581,11.9120936 29.3216829,13.2741621 29.8410724,14.516129 L8.87096774,14.516129 C7.98142954,14.516129 7.25806452,15.2394941 7.25806452,16.1290323 L7.25806452,38.7096774 C7.25806452,40.4887538 8.70479456,41.9354839 10.483871,41.9354839 L17.7419355,41.9354839 L17.7419355,45.1612903 L13.1686302,45.1612903 C6.26141946,41.0920173 1.61290323,33.5807554 1.61290323,25 C1.61290323,19.5832283 3.47349103,14.3968151 6.87255857,10.2314611 C7.30886149,10.8701644 8.04128337,11.2903226 8.87096774,11.2903226 C10.2046844,11.2903226 11.2903226,10.2046844 11.2903226,8.87096774 C11.2903226,8.49845645 11.1993605,8.14996532 11.0477571,7.83455141 L14.2853768,4.59693165 C14.6015782,4.74774758 14.9500694,4.83870968 15.3225806,4.83870968 C15.6572895,4.83870968 15.9758537,4.77019274 16.266066,4.64694113 L19.6458386,7.74516442 C19.4662771,8.08302359 19.3548387,8.46222903 19.3548387,8.87096774 C19.3548387,10.2046844 20.4404769,11.2903226 21.7741935,11.2903226 C23.1079102,11.2903226 24.1935484,10.2046844 24.1935484,8.87096774 C24.1935484,8.49845645 24.1025863,8.14996532 23.9509829,7.83455141 L27.1886026,4.59693165 C27.504804,4.74774758 27.8532952,4.83870968 28.2258065,4.83870968 C29.5595231,4.83870968 30.6451613,3.75307147 30.6451613,2.41935484 C30.6451613,1.08563821 29.5595231,0 28.2258065,0 C26.8920898,0 25.8064516,1.08563821 25.8064516,2.41935484 C25.8064516,2.79186613 25.8974137,3.14035726 26.0490171,3.45577117 L22.8113974,6.69339093 C22.495196,6.542575 22.1467048,6.4516129 21.7741935,6.4516129 C21.4394847,6.4516129 21.1209205,6.52012984 20.8307082,6.64338145 L17.4509356,3.54515817 C17.6304971,3.20729899 17.7419355,2.82809355 17.7419355,2.41935484 C17.7419355,1.08563821 16.6562973,0 15.3225806,0 C13.988864,0 12.9032258,1.08563821 12.9032258,2.41935484 C12.9032258,2.79186613 12.9941879,3.14035726 13.1457913,3.45577117 L9.90817157,6.69339093 C9.59197016,6.542575 9.24347903,6.4516129 8.87096774,6.4516129 C8.49845645,6.4516129 8.14996532,6.542575 7.83455141,6.69417843 L4.59614415,3.45577117 C4.74774758,3.14035726 4.83870968,2.79186613 4.83870968,2.41935484 C4.83870968,1.08563821 3.75307147,0 2.41935484,0 C1.08563821,0 0,1.08563821 0,2.41935484 C0,3.75307147 1.08563821,4.83870968 2.41935484,4.83870968 C2.79186613,4.83870968 3.14035726,4.74774758 3.45577117,4.59614415 L6.69339093,7.83376391 C6.65480091,7.9152753 6.62251129,7.9991494 6.59337198,8.08459869 C2.34178115,12.7094884 0,18.7114101 0,25 C0,38.7844948 11.214324,50 25,50 C38.785676,50 50,38.7844948 50,25 C50,21.9289472 49.4475334,18.9307428 48.3622889,16.0861108 C49.3935862,14.463757 50,12.5452842 50,10.483871 Z M28.2258065,1.61290323 C28.6707724,1.61290323 29.0322581,1.97517641 29.0322581,2.41935484 C29.0322581,2.86353327 28.6707724,3.22580645 28.2258065,3.22580645 C27.7808405,3.22580645 27.4193548,2.86353327 27.4193548,2.41935484 C27.4193548,1.97517641 27.7808405,1.61290323 28.2258065,1.61290323 Z M22.5806452,8.87096774 C22.5806452,9.31514617 22.2191595,9.67741935 21.7741935,9.67741935 C21.3292276,9.67741935 20.9677419,9.31514617 20.9677419,8.87096774 C20.9677419,8.42678931 21.3292276,8.06451613 21.7741935,8.06451613 C22.2191595,8.06451613 22.5806452,8.42678931 22.5806452,8.87096774 Z M15.3225806,1.61290323 C15.7675466,1.61290323 16.1290323,1.97517641 16.1290323,2.41935484 C16.1290323,2.86353327 15.7675466,3.22580645 15.3225806,3.22580645 C14.8776147,3.22580645 14.516129,2.86353327 14.516129,2.41935484 C14.516129,1.97517641 14.8776147,1.61290323 15.3225806,1.61290323 Z M9.67741935,8.87096774 C9.67741935,9.31514617 9.31593367,9.67741935 8.87096774,9.67741935 C8.42600181,9.67741935 8.06451613,9.31514617 8.06451613,8.87096774 C8.06451613,8.42678931 8.42600181,8.06451613 8.87096774,8.06451613 C9.31593367,8.06451613 9.67741935,8.42678931 9.67741935,8.87096774 Z M1.61290323,2.41935484 C1.61290323,1.97517641 1.97438891,1.61290323 2.41935484,1.61290323 C2.86432077,1.61290323 3.22580645,1.97517641 3.22580645,2.41935484 C3.22580645,2.86353327 2.86432077,3.22580645 2.41935484,3.22580645 C1.97438891,3.22580645 1.61290323,2.86353327 1.61290323,2.41935484 Z M40.3225806,19.3138861 L40.3225806,11.2903226 L48.3461442,11.2903226 C47.9614258,15.5387632 44.5710213,18.9291677 40.3225806,19.3138861 Z M48.3461442,9.67741935 L40.3225806,9.67741935 L40.3225806,1.65385585 C44.5710213,2.03857419 47.9614258,5.42897873 48.3461442,9.67741935 Z M38.7096774,1.65385585 L38.7096774,19.3146736 C34.1950448,18.9047536 30.6451613,15.1032479 30.6451613,10.483871 C30.6451613,5.86449405 34.1950448,2.06298831 38.7096774,1.65385585 Z M30.6959583,16.1290323 C32.562059,19.0339119 35.8146421,20.9677419 39.516129,20.9677419 C40.066233,20.9677419 40.6017672,20.9122197 41.1290323,20.8307082 L41.1290323,33.8709677 L8.87096774,33.8709677 L8.87096774,16.1290323 L30.6959583,16.1290323 Z M19.3548387,41.9354839 L24.1935484,41.9354839 L24.1935484,40.3225806 L10.483871,40.3225806 C9.59433276,40.3225806 8.87096774,39.5992156 8.87096774,38.7096774 L8.87096774,35.483871 L41.1290323,35.483871 L41.1290323,38.7096774 C41.1290323,39.5992156 40.4056672,40.3225806 39.516129,40.3225806 L25.8064516,40.3225806 L25.8064516,41.9354839 L30.6451613,41.9354839 L30.6451613,45.1612903 L19.3548387,45.1612903 L19.3548387,41.9354839 Z M16.4822486,46.7741935 L33.5177514,46.7741935 C30.8759135,47.8113974 28.0048986,48.3870968 25,48.3870968 C21.9951014,48.3870968 19.1240865,47.8113974 16.4822486,46.7741935 Z M48.3870968,25 C48.3870968,33.5807554 43.7385805,41.0920173 36.8313698,45.1612903 L32.2580645,45.1612903 L32.2580645,41.9354839 L39.516129,41.9354839 C41.2952054,41.9354839 42.7419355,40.4887538 42.7419355,38.7096774 L42.7419355,20.4546528 C44.4654895,19.8958859 45.9878245,18.8992408 47.1927766,17.6001764 C47.9854461,19.9773973 48.3870968,22.4621189 48.3870968,25 L48.3870968,25 Z" id="Shape" fill="#000000"></path>
                    <polygon id="Path" fill="#000000" points="41.9354839 6.4516129 43.5483871 6.4516129 43.5483871 8.06451613 41.9354839 8.06451613"></polygon>
                    <polygon id="Path" fill="#000000" points="45.1612903 6.4516129 46.7741935 6.4516129 46.7741935 8.06451613 45.1612903 8.06451613"></polygon>
                    <polygon id="Path" fill="#000000" points="37.9032258 37.0967742 39.516129 37.0967742 39.516129 38.7096774 37.9032258 38.7096774"></polygon>
                    <polygon id="Path" fill="#000000" points="34.6774194 37.0967742 36.2903226 37.0967742 36.2903226 38.7096774 34.6774194 38.7096774"></polygon>
                    <polygon id="Path" fill="#000000" points="31.4516129 37.0967742 33.0645161 37.0967742 33.0645161 38.7096774 31.4516129 38.7096774"></polygon>
                    <polygon id="Path" fill="#000000" points="31.4516129 22.5806452 33.0645161 22.5806452 33.0645161 24.1935484 31.4516129 24.1935484"></polygon>
                    <polygon id="Path" fill="#000000" points="34.6774194 22.5806452 39.516129 22.5806452 39.516129 24.1935484 34.6774194 24.1935484"></polygon>
                    <polygon id="Path" fill="#000000" points="31.4516129 25.8064516 33.0645161 25.8064516 33.0645161 27.4193548 31.4516129 27.4193548"></polygon>
                    <polygon id="Path" fill="#000000" points="34.6774194 25.8064516 39.516129 25.8064516 39.516129 27.4193548 34.6774194 27.4193548"></polygon>
                    <polygon id="Path" fill="#000000" points="31.4516129 29.0322581 33.0645161 29.0322581 33.0645161 30.6451613 31.4516129 30.6451613"></polygon>
                    <polygon id="Path" fill="#000000" points="34.6774194 29.0322581 39.516129 29.0322581 39.516129 30.6451613 34.6774194 30.6451613"></polygon>
                    <polygon id="Path" fill="#000000" points="10.483871 30.6451613 29.8387097 30.6451613 29.8387097 32.2580645 10.483871 32.2580645"></polygon>
                </g>
            </g>
        </g>
    </g>
</svg>