<?xml version="1.0" encoding="UTF-8"?>
<svg width="50px" height="50px" viewBox="0 0 50 50" version="1.1" xmlns="http://www.w3.org/2000/svg" xmlns:xlink="http://www.w3.org/1999/xlink">
    <title>86805285-09CE-4514-A87B-FA791801BB81@2x</title>
    <g id="All-You-Can-Use" stroke="none" stroke-width="1" fill="none" fill-rule="evenodd">
        <g id="All_you_can_use" transform="translate(-578.000000, -700.000000)" fill-rule="nonzero">
            <g id="Group-8" transform="translate(563.000000, 683.000000)">
                <g id="billboard" transform="translate(15.000000, 17.000000)">
                    <g id="Group" transform="translate(8.870968, 7.258065)" fill="#F0BC5E">
                        <polygon id="Path" points="18.5483871 5.64516129 26.6129032 5.64516129 26.6129032 10.483871 18.5483871 10.483871"></polygon>
                        <path d="M0,35.7701456 C2.32642389,37.8532163 5.05961754,39.4913212 8.06451613,40.5533329 L8.06451613,29.8387097 L0,29.8387097 L0,35.7701456 Z" id="Path"></path>
                        <polygon id="Path" points="20.9677419 27.4193548 29.0322581 27.4193548 29.0322581 35.483871 20.9677419 35.483871"></polygon>
                        <polygon id="Path" points="2.41935484 8.87096774 13.7096774 8.87096774 13.7096774 15.3225806 2.41935484 15.3225806"></polygon>
                        <polygon id="Path" points="13.7096774 6.4516129 2.41935484 6.4516129 2.41935484 0 13.7096774 0"></polygon>
                    </g>
                    <path d="M24.1935484,21.7741935 L38.7096774,21.7741935 L38.7096774,8.87096774 L24.1935484,8.87096774 L24.1935484,21.7741935 Z M25.8064516,10.483871 L37.0967742,10.483871 L37.0967742,20.1612903 L25.8064516,20.1612903 L25.8064516,10.483871 Z" id="Shape" fill="#000000"></path>
                    <polygon id="Path" fill="#000000" points="30.6451613 14.516129 32.2580645 14.516129 32.2580645 16.1290323 30.6451613 16.1290323"></polygon>
                    <polygon id="Path" fill="#000000" points="33.8709677 14.516129 35.483871 14.516129 35.483871 16.1290323 33.8709677 16.1290323"></polygon>
                    <polygon id="Path" fill="#000000" points="27.4193548 14.516129 29.0322581 14.516129 29.0322581 16.1290323 27.4193548 16.1290323"></polygon>
                    <polygon id="Path" fill="#000000" points="11.2903226 15.3225806 22.5806452 15.3225806 22.5806452 16.9354839 11.2903226 16.9354839"></polygon>
                    <polygon id="Path" fill="#000000" points="11.2903226 21.7741935 22.5806452 21.7741935 22.5806452 23.3870968 11.2903226 23.3870968"></polygon>
                    <polygon id="Path" fill="#000000" points="17.7419355 18.5483871 22.5806452 18.5483871 22.5806452 20.1612903 17.7419355 20.1612903"></polygon>
                    <polygon id="Path" fill="#000000" points="11.2903226 18.5483871 16.1290323 18.5483871 16.1290323 20.1612903 11.2903226 20.1612903"></polygon>
                    <polygon id="Path" fill="#000000" points="29.8387097 34.6774194 31.4516129 34.6774194 31.4516129 36.2903226 29.8387097 36.2903226"></polygon>
                    <polygon id="Path" fill="#000000" points="33.0645161 34.6774194 34.6774194 34.6774194 34.6774194 36.2903226 33.0645161 36.2903226"></polygon>
                    <polygon id="Path" fill="#000000" points="36.2903226 34.6774194 37.9032258 34.6774194 37.9032258 36.2903226 36.2903226 36.2903226"></polygon>
                    <polygon id="Path" fill="#000000" points="8.87096774 37.0967742 10.483871 37.0967742 10.483871 38.7096774 8.87096774 38.7096774"></polygon>
                    <polygon id="Path" fill="#000000" points="12.0967742 37.0967742 13.7096774 37.0967742 13.7096774 38.7096774 12.0967742 38.7096774"></polygon>
                    <polygon id="Path" fill="#000000" points="15.3225806 37.0967742 16.9354839 37.0967742 16.9354839 38.7096774 15.3225806 38.7096774"></polygon>
                    <polygon id="Path" fill="#000000" points="29.8387097 37.9032258 31.4516129 37.9032258 31.4516129 39.516129 29.8387097 39.516129"></polygon>
                    <polygon id="Path" fill="#000000" points="33.0645161 37.9032258 34.6774194 37.9032258 34.6774194 39.516129 33.0645161 39.516129"></polygon>
                    <polygon id="Path" fill="#000000" points="36.2903226 37.9032258 37.9032258 37.9032258 37.9032258 39.516129 36.2903226 39.516129"></polygon>
                    <polygon id="Path" fill="#000000" points="33.0645161 41.1290323 34.6774194 41.1290323 34.6774194 42.7419355 33.0645161 42.7419355"></polygon>
                    <polygon id="Path" fill="#000000" points="36.2903226 41.1290323 37.9032258 41.1290323 37.9032258 42.7419355 36.2903226 42.7419355"></polygon>
                    <path d="M41.9969128,6.66700796 L41.9354839,6.7331622 L41.9354839,4.03225806 L33.8709677,4.03225806 L33.8709677,1.61290323 L35.483871,1.61290323 L35.483871,0 L30.6451613,0 L30.6451613,1.61290323 L32.2580645,1.61290323 L32.2580645,4.03225806 L25.8064516,4.03225806 L25.8064516,1.61290323 L27.4193548,1.61290323 L27.4193548,0 L22.5806452,0 L22.5806452,1.61290323 L24.1935484,1.61290323 L24.1935484,4.03225806 L17.7419355,4.03225806 L17.7419355,1.61290323 L19.3548387,1.61290323 L19.3548387,0 L14.516129,0 L14.516129,1.61290323 L16.1290323,1.61290323 L16.1290323,4.03225806 L8.06451613,4.03225806 L8.06451613,6.61936109 C2.93795675,11.3466325 0,18.0211221 0,25 C0,38.785676 11.2155052,50 25,50 C38.7844948,50 50,38.785676 50,25 C50,18.0652249 47.0829133,11.3840411 41.9969128,6.66700796 Z M9.67741935,5.64516129 L40.3225806,5.64516129 L40.3225806,25 L9.67741935,25 L9.67741935,5.64516129 Z M39.516129,43.3160597 C36.9420206,45.3605405 33.9308216,46.8757875 30.6451613,47.6936587 L30.6451613,41.600775 L28.2258065,39.1814202 L28.2258065,33.0645161 L39.516129,33.0645161 L39.516129,43.3160597 Z M24.1935484,48.3670142 C23.6517137,48.3485069 23.1130292,48.3170048 22.5806452,48.2622701 L22.5806452,45.9677419 L24.1935484,45.9677419 L24.1935484,48.3670142 Z M20.9677419,44.3548387 L20.9677419,48.0323053 C19.8643839,47.8393554 18.7870149,47.5708008 17.7419355,47.2290039 L17.7419355,42.7419355 L29.0322581,42.7419355 L29.0322581,48.0323053 C27.9789094,48.2161984 26.902328,48.3299994 25.8064516,48.3670142 L25.8064516,44.3548387 L20.9677419,44.3548387 Z M22.5806452,37.4306956 C23.0106477,36.9991179 23.7619708,36.9991179 24.1935484,37.4306956 L27.8918851,41.1290323 L18.8823085,41.1290323 L22.5806452,37.4306956 Z M28.2258065,31.4516129 L28.2258065,29.8387097 L36.1001291,29.8387097 C36.4072738,29.8387097 36.683704,30.0096081 36.8211316,30.284857 L37.4047065,31.4516129 L28.2258065,31.4516129 Z M26.6129032,37.5693044 L25.3347089,36.2903226 C24.8145319,35.7701456 24.1006174,35.5106477 23.3870968,35.5106477 L23.3870968,26.6129032 L26.6129032,26.6129032 L26.6129032,37.5693044 Z M8.06451613,8.8839623 L8.06451613,26.6129032 L21.7741935,26.6129032 L21.7741935,36.0209803 C21.6580298,36.1032793 21.5426537,36.187941 21.4402722,36.2903226 L20.1612903,37.5693044 L20.1612903,34.343498 L14.8508379,29.0322581 C13.8112714,27.9926915 11.9951802,27.9926915 10.9564012,29.0322581 L5.64516129,34.343498 L5.64516129,38.1127142 C3.10176724,34.3702747 1.61290323,29.855642 1.61290323,25 C1.61290323,18.9854776 3.94838397,13.2135207 8.06451613,8.8839623 Z M17.4080141,33.8709677 L8.3984375,33.8709677 L12.0967742,30.172631 C12.5267767,29.7410534 13.2780998,29.7410534 13.7096774,30.172631 L17.4080141,33.8709677 Z M7.25806452,40.2111422 L7.25806452,35.483871 L18.5483871,35.483871 L18.5483871,39.1822077 L16.1290323,41.6015625 L16.1290323,46.6347972 C12.6831054,45.2160251 9.64985504,42.9974956 7.25806452,40.2111422 Z M41.1290323,41.9114636 L41.1290323,31.4516129 L39.2081968,31.4516129 L38.2635301,29.563067 C37.8516412,28.7388956 37.0227445,28.2258065 36.1001291,28.2258065 L28.2258065,28.2258065 L28.2258065,26.6129032 L41.9354839,26.6129032 L41.9354839,8.8800246 C46.0500409,13.2080079 48.3870968,19.0024099 48.3870968,25 C48.3870968,31.6461379 45.5960181,37.6492408 41.1290323,41.9114636 Z" id="Shape" fill="#000000"></path>
                </g>
            </g>
        </g>
    </g>
</svg>