<?xml version="1.0" encoding="UTF-8"?>
<svg width="50px" height="50px" viewBox="0 0 50 50" version="1.1" xmlns="http://www.w3.org/2000/svg" xmlns:xlink="http://www.w3.org/1999/xlink">
    <title>64ACAAC8-6355-4C77-8ED1-7ABDC7809A9E@2x</title>
    <g id="All-You-Can-Use" stroke="none" stroke-width="1" fill="none" fill-rule="evenodd">
        <g id="All_you_can_use" transform="translate(-578.000000, -814.000000)" fill-rule="nonzero">
            <g id="Group-8" transform="translate(563.000000, 796.000000)">
                <g id="content" transform="translate(15.000000, 18.000000)">
                    <g id="Group" transform="translate(3.225806, 20.967742)" fill="#F0BC5E">
                        <polygon id="Path" points="14.516129 0 25.8064516 0 25.8064516 8.06451613 14.516129 8.06451613"></polygon>
                        <polygon id="Path" points="6.4516129 16.1290323 0 16.1290323 0 11.2903226 6.4516129 11.2903226"></polygon>
                        <polygon id="Path" points="14.516129 16.1290323 8.06451613 16.1290323 8.06451613 11.2903226 14.516129 11.2903226"></polygon>
                    </g>
                    <polygon id="Path" fill="#000000" points="33.8709677 20.9677419 35.483871 20.9677419 35.483871 29.8387097 33.8709677 29.8387097"></polygon>
                    <path d="M25,0 C16.5216261,0 8.74929123,4.21615111 4.1031376,11.2903226 L0,11.2903226 L0,40.3225806 L5.25571764,40.3225806 C10.0314233,46.4741369 17.2001008,50 25,50 C27.5587512,50 30.0820627,49.6144941 32.4998425,48.8556893 L32.0162865,47.3168157 C29.7548356,48.0267924 27.394547,48.3870968 25,48.3870968 C18.1313791,48.3870968 11.785298,45.4652848 7.33721331,40.3225806 L25,40.3225806 L25,38.7096774 L1.61290323,38.7096774 L1.61290323,19.3548387 L30.6451613,19.3548387 L30.6451613,32.2580645 L32.2580645,32.2580645 L32.2580645,11.2903226 L33.8709677,11.2903226 L33.8709677,19.3548387 L35.483871,19.3548387 L35.483871,11.2903226 L37.0967742,11.2903226 L37.0967742,32.2580645 L38.7096774,32.2580645 L38.7096774,10.2393366 L34.6774194,4.1909495 L30.6451613,10.2393366 L30.6451613,11.2903226 L6.0499622,11.2903226 C10.4492188,5.20413306 17.4265216,1.61290323 25,1.61290323 C37.8961379,1.61290323 48.3870968,12.1038621 48.3870968,25 C48.3870968,30.1072643 46.7702558,34.9597561 43.7121976,39.0313917 L45.0014175,40.0000787 C48.2709331,35.646894 50,30.4596931 50,25 C50,11.2155052 38.7844948,0 25,0 Z M36.3966419,9.67741935 L32.9589844,9.67741935 L34.6774194,7.09937308 L36.3966419,9.67741935 Z M30.6451613,17.7419355 L1.61290323,17.7419355 L1.61290323,12.9032258 L30.6451613,12.9032258 L30.6451613,17.7419355 Z" id="Shape" fill="#000000"></path>
                    <polygon id="Path" fill="#000000" points="3.22580645 14.516129 4.83870968 14.516129 4.83870968 16.1290323 3.22580645 16.1290323"></polygon>
                    <polygon id="Path" fill="#000000" points="6.4516129 14.516129 8.06451613 14.516129 8.06451613 16.1290323 6.4516129 16.1290323"></polygon>
                    <path d="M36.8719285,50 L32.4836977,50 L31.7831716,47.8984218 C31.442556,47.7814706 31.1121786,47.6460119 30.7951896,47.4920458 L28.8160755,48.4816028 L25.7127331,45.3782605 L26.7022902,43.3991463 C26.5491117,43.0821573 26.4128654,42.7517798 26.2959142,42.4111643 L24.1935484,41.7106382 L24.1935484,37.3224074 L26.2951266,36.6218812 C26.4120778,36.2812657 26.5475365,35.9508883 26.7015026,35.6338993 L25.7119456,33.6547852 L28.8152879,30.5514427 L30.7944021,31.5409999 C31.1113911,31.3878214 31.4417685,31.2515751 31.7823841,31.1346239 L32.4829102,29.0322581 L36.871141,29.0322581 L37.5716671,31.1338363 C37.9122827,31.2507875 38.2426601,31.3862462 38.5596491,31.5402123 L40.5387632,30.5506552 L43.6421056,33.6539976 L42.6525485,35.6331118 C42.805727,35.9501008 42.9419733,36.2804782 43.0589245,36.6210937 L45.1612903,37.3216199 L45.1612903,41.7098507 L43.0597121,42.4103768 C42.9427609,42.7509923 42.8073022,43.0813698 42.6533361,43.3983588 L43.6428931,45.3774729 L40.5395508,48.4808153 L38.5604366,47.4912582 C38.2434476,47.6444367 37.9130702,47.780683 37.5724546,47.8976342 L36.8719285,50 Z" id="Path" fill="#F0BC5E"></path>
                    <polygon id="Path" fill="#000000" points="9.67741935 14.516129 11.2903226 14.516129 11.2903226 16.1290323 9.67741935 16.1290323"></polygon>
                    <path d="M16.1290323,30.6451613 L16.1290323,20.9677419 L3.22580645,20.9677419 L3.22580645,30.6451613 L16.1290323,30.6451613 Z M6.21219758,29.0322581 L9.67741935,26.0620117 L13.1426411,29.0322581 L6.21219758,29.0322581 Z M14.516129,22.5806452 L14.516129,28.0856225 L9.67741935,23.9379883 L4.83870968,28.0856225 L4.83870968,22.5806452 L14.516129,22.5806452 Z" id="Shape" fill="#000000"></path>
                    <polygon id="Path" fill="#000000" points="17.7419355 20.9677419 19.3548387 20.9677419 19.3548387 22.5806452 17.7419355 22.5806452"></polygon>
                    <polygon id="Path" fill="#000000" points="20.9677419 20.9677419 29.0322581 20.9677419 29.0322581 22.5806452 20.9677419 22.5806452"></polygon>
                    <polygon id="Path" fill="#000000" points="17.7419355 27.4193548 19.3548387 27.4193548 19.3548387 29.0322581 17.7419355 29.0322581"></polygon>
                    <polygon id="Path" fill="#000000" points="20.9677419 27.4193548 29.0322581 27.4193548 29.0322581 29.0322581 20.9677419 29.0322581"></polygon>
                    <polygon id="Path" fill="#000000" points="17.7419355 24.1935484 29.0322581 24.1935484 29.0322581 25.8064516 17.7419355 25.8064516"></polygon>
                    <path d="M34.6774194,33.8709677 C31.5646264,33.8709677 29.0322581,36.4033361 29.0322581,39.516129 C29.0322581,42.628922 31.5646264,45.1612903 34.6774194,45.1612903 C37.7902123,45.1612903 40.3225806,42.628922 40.3225806,39.516129 C40.3225806,36.4033361 37.7902123,33.8709677 34.6774194,33.8709677 Z M34.6774194,43.5483871 C32.4541645,43.5483871 30.6451613,41.7393839 30.6451613,39.516129 C30.6451613,37.2928742 32.4541645,35.483871 34.6774194,35.483871 C36.9006742,35.483871 38.7096774,37.2928742 38.7096774,39.516129 C38.7096774,41.7393839 36.9006742,43.5483871 34.6774194,43.5483871 Z" id="Shape" fill="#000000"></path>
                    <path d="M34.6774194,37.0967742 C33.3437027,37.0967742 32.2580645,38.1824124 32.2580645,39.516129 C32.2580645,40.8498457 33.3437027,41.9354839 34.6774194,41.9354839 C36.011136,41.9354839 37.0967742,40.8498457 37.0967742,39.516129 C37.0967742,38.1824124 36.011136,37.0967742 34.6774194,37.0967742 Z M34.6774194,40.3225806 C34.2332409,40.3225806 33.8709677,39.9603075 33.8709677,39.516129 C33.8709677,39.0719506 34.2332409,38.7096774 34.6774194,38.7096774 C35.1215978,38.7096774 35.483871,39.0719506 35.483871,39.516129 C35.483871,39.9603075 35.1215978,40.3225806 34.6774194,40.3225806 Z" id="Shape" fill="#000000"></path>
                </g>
            </g>
        </g>
    </g>
</svg>