<?xml version="1.0" encoding="UTF-8"?>
<svg width="50px" height="50px" viewBox="0 0 50 50" version="1.1" xmlns="http://www.w3.org/2000/svg" xmlns:xlink="http://www.w3.org/1999/xlink">
    <title>FA0D6D4F-23D2-460F-9831-1142EA741CA9@2x</title>
    <g id="All-You-Can-Use" stroke="none" stroke-width="1" fill="none" fill-rule="evenodd">
        <g id="All_you_can_use" transform="translate(-958.000000, -813.000000)" fill-rule="nonzero">
            <g id="Group-8" transform="translate(943.000000, 796.000000)">
                <g id="planning" transform="translate(15.000000, 17.000000)">
                    <g id="Group" transform="translate(0.806452, 16.129032)" fill="#F0BC5E">
                        <polygon id="Path" points="28.2258065 5.64516129 39.516129 5.64516129 39.516129 7.25806452 28.2258065 7.25806452"></polygon>
                        <polygon id="Path" points="28.2258065 2.41935484 39.516129 2.41935484 39.516129 4.03225806 28.2258065 4.03225806"></polygon>
                        <polygon id="Path" points="20.9677419 15.3225806 20.9677419 20.9677419 12.9032258 20.9677419 12.9032258 29.0322581 28.2258065 29.0322581 28.2258065 15.3225806"></polygon>
                        <path d="M9.67741935,13.7096774 L9.67741935,19.3548387 C4.79854456,19.3548387 0.766286492,15.7498267 0.09686875,11.0564202 C0.056309879,10.60476 0.0322895161,10.1452243 0.0240202621,9.67741935 L5.64516129,9.67741935 C5.64516129,11.9030368 7.45180192,13.7096774 9.67741935,13.7096774 Z" id="Path"></path>
                        <path d="M19.3548387,9.67741935 L13.7096774,9.67741935 C13.7096774,7.45180192 11.9030368,5.64516129 9.67741935,5.64516129 L9.67741935,0 C15.024099,0 19.3548387,4.33073972 19.3548387,9.67741935 Z" id="Path"></path>
                    </g>
                    <path d="M39.5062847,4.64851623 C39.4054782,2.06850111 37.2814547,0 34.6774194,0 C33.6024131,0 32.6120684,0.356366532 31.8079794,0.951754637 C29.6016571,0.327227218 27.3153982,0 25,0 C18.3451991,0 12.1081936,2.57804627 7.39431069,7.25806452 L4.57015504,7.25806452 L0.269342238,10.483871 L3.24037611,12.7122449 C1.12659083,16.4491715 2.86509168e-15,20.6775296 2.86509168e-15,25 C2.86509168e-15,25.1807428 0.009844375,25.3579416 0.0137821573,25.5371094 C0.0114194556,25.6272839 2.86509168e-15,25.7154895 2.86509168e-15,25.8064516 C2.86509168e-15,26.2742566 0.040952621,26.7314295 0.100806452,27.1830897 C1.21125252,39.9492818 11.9514712,50 25,50 C38.7844948,50 50,38.785676 50,25 C50,16.9146138 46.0815429,9.34349798 39.5062847,4.64851623 Z M34.6774194,1.61290323 C36.4564958,1.61290323 37.9032258,3.05963327 37.9032258,4.83870968 L37.9032258,6.4516129 C37.9032258,8.23068931 36.4564958,9.67741935 34.6774194,9.67741935 C32.8983429,9.67741935 31.4516129,8.23068931 31.4516129,6.4516129 L31.4516129,4.83870968 C31.4516129,3.05963327 32.8983429,1.61290323 34.6774194,1.61290323 Z M39.516129,43.3160597 C38.2686492,44.3071919 36.9183941,45.1727098 35.483871,45.8960748 L35.483871,29.8387097 L33.8709677,29.8387097 L33.8709677,46.6347972 C32.5797788,47.1659999 31.2322801,47.5861581 29.8387097,47.8807018 L29.8387097,26.6129032 L39.516129,26.6129032 L39.516129,43.3160597 Z M39.516129,16.1290323 L39.516129,25 L29.8387097,25 L29.8387097,16.1290323 L28.2258065,16.1290323 L28.2258065,18.1605185 L25.0224452,20.7232076 C24.5566091,21.0976877 23.8151304,21.0094821 23.4477381,20.5377394 L18.7259797,14.4676947 C18.6113911,14.3208165 18.5483871,14.136136 18.5483871,13.9506678 L18.5483871,13.7443296 C18.5483871,13.7321226 18.5523248,13.7218845 18.5531124,13.7096774 L20.4558342,13.7096774 L23.8163117,17.7419355 L25.457173,17.7419355 L27.536306,14.2759262 C27.7796592,13.8703377 28.188004,13.5927262 28.6550214,13.5151524 L30.2387853,13.2509293 L31.878859,17.3509167 L34.6774194,15.4856036 L37.4767672,17.3517042 L39.0506867,13.4171024 L40.9096995,13.8813634 C41.9878559,14.1507056 42.7419355,15.1162424 42.7419355,16.2282636 L42.7419355,30.6451613 C42.7419355,31.0901272 42.3796623,31.4516129 41.9354839,31.4516129 C41.4913054,31.4516129 41.1290323,31.0901272 41.1290323,30.6451613 L41.1290323,16.1290323 L39.516129,16.1290323 Z M6.4516129,8.87096774 L18.5483871,8.87096774 L18.5483871,12.0967742 L6.4516129,12.0967742 L6.4516129,8.87096774 Z M20.1612903,12.0967742 L20.1612903,8.87096774 L22.5806452,8.87096774 C23.4701834,8.87096774 24.1935484,9.59433276 24.1935484,10.483871 C24.1935484,11.3734092 23.4701834,12.0967742 22.5806452,12.0967742 L20.1612903,12.0967742 Z M32.6380576,14.9063603 L31.8670458,12.9792244 L31.9816343,12.9595357 L33.4122197,14.3905147 L32.6380576,14.9063603 Z M37.3444588,12.9902501 L37.4716482,13.0217521 L36.7175686,14.9063603 L35.9441942,14.3905147 L37.3444588,12.9902501 Z M36.2903226,11.7628528 L34.6774194,13.375756 L33.0645161,11.7628528 L33.0645161,11.0079858 C33.5701235,11.187941 34.1111706,11.2903226 34.6774194,11.2903226 C35.2436681,11.2903226 35.7847152,11.1871534 36.2903226,11.0079858 L36.2903226,11.7628528 Z M25,1.61290323 C26.8885459,1.61290323 28.7546466,1.84916835 30.570344,2.29255927 C30.109627,3.0340379 29.8387097,3.9038873 29.8387097,4.83870968 L29.8387097,6.4516129 C29.8387097,7.87983558 30.4644184,9.16118004 31.4516129,10.0483556 L31.4516129,11.4143618 L28.3888294,11.9250882 C27.4547946,12.0806294 26.6404675,12.6354587 26.1533675,13.4466356 L24.5558216,16.1105248 L22.5558373,13.7096774 L22.5806452,13.7096774 C24.3597216,13.7096774 25.8064516,12.2629474 25.8064516,10.483871 C25.8064516,8.70479456 24.3597216,7.25806452 22.5806452,7.25806452 L9.76838145,7.25806452 C14.0057964,3.6073746 19.3410566,1.61290323 25,1.61290323 Z M4.83870968,9.07258065 L4.83870968,11.8951613 L2.95725181,10.483871 L4.83870968,9.07258065 Z M1.67511976,26.6129032 L5.71761593,26.6129032 C6.05901905,28.6345452 7.65577742,30.230516 9.67741935,30.5727067 L9.67741935,34.6372542 C5.5660125,34.2643492 2.26381361,31.0759514 1.70583417,27.0192792 C1.69441472,26.8838206 1.68378276,26.7483619 1.67511976,26.6129032 Z M10.483871,22.5806452 C12.2629474,22.5806452 13.7096774,24.0273752 13.7096774,25.8064516 C13.7096774,27.585528 12.2629474,29.0322581 10.483871,29.0322581 C8.70479456,29.0322581 7.25806452,27.585528 7.25806452,25.8064516 C7.25806452,24.0273752 8.70479456,22.5806452 10.483871,22.5806452 Z M11.2903226,30.5727067 C13.3119645,30.2313035 14.9079354,28.6345452 15.250126,26.6129032 L19.3146736,26.6129032 C18.9291677,30.8613439 15.5395508,34.2517484 11.2911101,34.6364667 L11.2911101,30.5727067 L11.2903226,30.5727067 Z M15.250126,25 C14.9087229,22.9783581 13.3119645,21.3823872 11.2903226,21.0401966 L11.2903226,16.975649 C15.5387632,17.3611548 18.9291677,20.7507718 19.3138861,24.9992125 L15.250126,24.9992125 L15.250126,25 Z M9.67741935,21.0401966 C7.65577742,21.3815997 6.05980655,22.9783581 5.71761593,25 L1.65306835,25 C2.03857419,20.7515594 5.42819113,17.3611548 9.67663185,16.9764365 L9.67663185,21.0401966 L9.67741935,21.0401966 Z M3.125,33.2621913 C5.01945252,35.1322297 7.61758125,36.2903226 10.483871,36.2903226 C16.2644909,36.2903226 20.9677419,31.5870716 20.9677419,25.8064516 C20.9677419,20.0258317 16.2644909,15.3225806 10.483871,15.3225806 C7.20490484,15.3225806 4.27561109,16.8378276 2.3516255,19.2016602 C2.8418756,17.2808247 3.57666018,15.4289 4.54022802,13.6880198 L4.57015504,13.7096774 L16.9402092,13.7096774 C16.9402092,13.7218845 16.9354839,13.7321226 16.9354839,13.7443296 L16.9354839,13.9506678 C16.9354839,14.4936839 17.1193769,15.0280368 17.4525107,15.4580393 L22.1742692,21.5280841 C22.6944462,22.1967143 23.4788464,22.5806452 24.3266444,22.5806452 C24.9436901,22.5806452 25.5493164,22.3684003 26.0297222,21.983682 L28.2258065,20.2266571 L28.2258065,30.6451613 L21.7741935,30.6451613 L21.7741935,32.2580645 L28.2258065,32.2580645 L28.2258065,33.8709677 L21.7741935,33.8709677 L21.7741935,35.483871 L28.2258065,35.483871 L28.2258065,37.0967742 L21.7741935,37.0967742 L21.7741935,38.7096774 L28.2258065,38.7096774 L28.2258065,40.3225806 L13.7096774,40.3225806 L13.7096774,41.9354839 L28.2258065,41.9354839 L28.2258065,43.5483871 L23.3870968,43.5483871 L23.3870968,45.1612903 L28.2258065,45.1612903 L28.2258065,48.1594948 C27.1700952,48.3055853 26.0950888,48.3870968 25,48.3870968 C15.0122858,48.3870968 6.47090786,42.0918126 3.125,33.2621913 Z M41.1290323,41.9114636 L41.1290323,32.9160629 C41.3822297,33.0066311 41.651572,33.0645161 41.9354839,33.0645161 C43.2692005,33.0645161 44.3548387,31.9788779 44.3548387,30.6451613 L44.3548387,16.2282636 C44.3548387,14.37437 43.0990896,12.766192 41.3007182,12.316107 L37.9032258,11.4671276 L37.9032258,10.0483556 C38.8427734,9.20488911 39.4483997,8.0030872 39.5054971,6.65795111 C45.0927734,11.0824093 48.3870968,17.8258096 48.3870968,25 C48.3870968,31.6461379 45.5960181,37.6492408 41.1290323,41.9114636 Z" id="Shape" fill="#000000"></path>
                    <polygon id="Path" fill="#000000" points="13.7096774 37.0967742 20.1612903 37.0967742 20.1612903 38.7096774 13.7096774 38.7096774"></polygon>
                    <polygon id="Path" fill="#000000" points="13.7096774 43.5483871 15.3225806 43.5483871 15.3225806 45.1612903 13.7096774 45.1612903"></polygon>
                    <polygon id="Path" fill="#000000" points="16.9354839 43.5483871 18.5483871 43.5483871 18.5483871 45.1612903 16.9354839 45.1612903"></polygon>
                    <polygon id="Path" fill="#000000" points="20.1612903 43.5483871 21.7741935 43.5483871 21.7741935 45.1612903 20.1612903 45.1612903"></polygon>
                </g>
            </g>
        </g>
    </g>
</svg>