<?xml version="1.0" encoding="UTF-8"?>
<svg width="60px" height="60px" viewBox="0 0 60 60" version="1.1" xmlns="http://www.w3.org/2000/svg" xmlns:xlink="http://www.w3.org/1999/xlink">
    <title>C7BC2346-4D7E-484F-88F3-899640B58421@2x</title>
    <g id="All-You-Can-Use" stroke="none" stroke-width="1" fill="none" fill-rule="evenodd">
        <g id="All_you_can_use" transform="translate(-221.000000, -1876.000000)">
            <g id="Group-8" transform="translate(189.000000, 1856.000000)">
                <g id="Icon" transform="translate(32.000000, 20.000000)">
                    <rect id="Rectangle" fill="#FFFFFF" x="0" y="0" width="60" height="60" rx="10"></rect>
                    <g id="support-(2)" transform="translate(10.000000, 10.000000)" fill-rule="nonzero">
                        <g id="Group" transform="translate(3.225806, 3.225806)" fill="#F0BC5E">
                            <polygon id="Path" points="21.9354839 25.1612903 21.9354839 28.3870968 25.1612903 28.3870968 25.1612903 31.6129032 31.6129032 31.6129032 31.6129032 28.3870968 33.5483871 28.3870968 33.5483871 25.1612903"></polygon>
                            <path d="M20.6451613,0 L20.6451613,3.22580645 C20.2517011,4.01934226 19.438634,4.51612903 18.5546875,4.51612903 L12.9032258,4.51612903 L12.9032258,3.19367435 C12.9032258,1.43239669 14.3356225,0 16.0969002,0 L20.6451613,0 Z" id="Path"></path>
                            <path d="M5.80645161,19.0064265 L5.80645161,19.1548009 C5.80645161,19.6645035 5.49678677,20.1225428 5.01921621,20.3162802 L3.91601565,20.7547883 L3.87096774,20.6451613 L0.00630040323,13.5613029 C0.129158226,13.4258443 0.258001532,13.2903856 0.387159758,13.1612273 L0.922694032,12.6256931 C1.16116435,12.3872227 1.47744452,12.2580645 1.80632565,12.2580645 C2.28389613,12.2580645 2.71610387,12.5226815 2.92905742,12.9482737 L5.67729339,18.4450605 C5.76140371,18.6192666 5.80645161,18.813004 5.80645161,19.0064265 Z" id="Path"></path>
                            <path d="M19.3548387,30 L20.6001134,30.6193297 C21.0257056,30.8322832 21.2903226,31.264491 21.2903226,31.7420615 C21.2903226,32.0709426 21.1611644,32.3872227 20.922694,32.6256931 L20.3871598,33.1612273 C20.2580015,33.2903856 20.1291582,33.4129284 19.9870842,33.5420867 L12.9032258,29.6774194 L12.7935988,29.6323715 L13.2321069,28.5291709 C13.4258443,28.0516003 13.8838835,27.7419355 14.3935862,27.7419355 L14.5419606,27.7419355 C14.7353831,27.7419355 14.9291205,27.7869834 15.1033266,27.8710937 L19.3548387,30 Z" id="Path"></path>
                        </g>
                        <polygon id="Path" fill="#000000" points="33.5483871 33.5483871 34.8387097 33.5483871 34.8387097 34.8387097 33.5483871 34.8387097"></polygon>
                        <polygon id="Path" fill="#000000" points="30.9677419 33.5483871 32.2580645 33.5483871 32.2580645 34.8387097 30.9677419 34.8387097"></polygon>
                        <polygon id="Path" fill="#000000" points="28.3870968 33.5483871 29.6774194 33.5483871 29.6774194 34.8387097 28.3870968 34.8387097"></polygon>
                        <polygon id="Path" fill="#000000" points="25.1612903 30.9677419 36.7741935 30.9677419 36.7741935 32.2580645 25.1612903 32.2580645"></polygon>
                        <polygon id="Path" fill="#000000" points="30.9677419 28.3870968 36.7741935 28.3870968 36.7741935 29.6774194 30.9677419 29.6774194"></polygon>
                        <polygon id="Path" fill="#000000" points="25.1612903 28.3870968 29.6774194 28.3870968 29.6774194 29.6774194 25.1612903 29.6774194"></polygon>
                        <path d="M39.0413936,26.0805192 C39.6670237,24.1192036 40,22.0800781 40,20 C40,8.97240419 31.0285408,0 20,0 C8.97145919,0 0,8.97240419 0,20 C0,20.6968246 0.0381174194,21.3986895 0.109627016,22.0882686 C0.0450479032,22.5689894 0,23.0547505 0,23.5483871 C0,26.4251512 1.11989669,29.1289693 3.15429685,31.1633694 L8.83757565,36.8463331 C10.8710307,38.8801033 13.5748488,40 16.4516129,40 C19.0420237,40 21.4872102,39.0845515 23.4343498,37.4193548 L38.0645161,37.4193548 C39.1314894,37.4193548 40,36.5508443 40,35.483871 L40,27.7419355 C40,27.0321951 39.6122102,26.4172757 39.0413936,26.0805192 Z M30.9677419,12.2580645 C30.9677419,14.5715726 30.2431956,16.7168598 29.015562,18.4885332 C28.9308216,17.1418221 28.0412047,15.9967238 26.7329259,15.6045237 L22.5806452,14.358619 L22.5806452,13.3779612 C23.7490549,12.5607989 24.516129,11.2077873 24.516129,9.67741935 L24.516129,2.58064516 L19.3227066,2.58064516 C17.2057711,2.58064516 15.483871,4.30254532 15.483871,6.41948081 L15.483871,9.67741935 C15.483871,11.2077873 16.2509451,12.561429 17.4193548,13.3779612 L17.4193548,14.358619 L13.266444,15.6045237 C11.9581653,15.9967238 11.0682334,17.1418221 10.983808,18.4885332 C9.75680444,16.7168598 9.03225806,14.5715726 9.03225806,12.2580645 C9.03225806,6.21030742 13.9522429,1.29032258 20,1.29032258 C26.0477571,1.29032258 30.9677419,6.21030742 30.9677419,12.2580645 Z M23.2258065,6.26197081 C22.922442,6.77482355 22.3859627,7.09677419 21.7833291,7.09677419 L16.7741935,7.09677419 L16.7741935,6.41948081 C16.7741935,5.01417589 17.9174017,3.87096774 19.3227066,3.87096774 L23.2258065,3.87096774 L23.2258065,6.26197081 Z M16.7741935,8.38709677 L21.7833291,8.38709677 C22.3018523,8.38709677 22.7929687,8.24974798 23.2258065,8.01033266 L23.2258065,9.67741935 C23.2258065,11.4560232 21.7786039,12.9032258 20,12.9032258 C18.2213961,12.9032258 16.7741935,11.4560232 16.7741935,9.67741935 L16.7741935,8.38709677 Z M22.1194556,15.5676663 L22.5270918,15.6902092 L22.1496976,17.5800152 L20.9825479,16.7052041 L22.1194556,15.5676663 Z M20,14.1935484 C20.4482737,14.1935484 20.8814265,14.125819 21.2903226,14.0032762 L21.2903226,14.5715726 L20,15.8618952 L18.7096774,14.5715726 L18.7096774,14.0032762 C19.1185735,14.125819 19.5517263,14.1935484 20,14.1935484 Z M17.8805444,15.5676663 L19.0174521,16.7045741 L17.8503024,17.5793851 L17.4729082,15.6895791 L17.8805444,15.5676663 Z M16.2323589,16.061933 L16.9877773,19.8399698 L20,17.5806452 L23.0122227,19.8399698 L23.7676411,16.061933 L26.3624622,16.8406628 C27.187815,17.0876386 27.7419355,17.8329763 27.7419355,18.6942415 L27.7419355,20.0185862 C25.7566784,21.999433 23.0194682,23.2258065 20,23.2258065 C16.9805318,23.2258065 14.2433216,21.999433 12.2580645,20.0185862 L12.2580645,18.6942415 C12.2580645,17.8329763 12.812185,17.0876386 13.6375378,16.8406628 L16.2323589,16.061933 Z M11.7631678,3.20596016 C9.30002516,5.44953379 7.74193548,8.67092992 7.74193548,12.2580645 C7.74193548,19.0174521 13.2406124,24.516129 20,24.516129 C26.7593876,24.516129 32.2580645,19.0174521 32.2580645,12.2580645 C32.2580645,8.67092992 30.6999748,5.44953379 28.2368322,3.20596016 C34.4335937,6.25819048 38.7096774,12.6379789 38.7096774,20 C38.7096774,21.9877773 38.3877268,23.9368069 37.7775327,25.8064516 L33.109564,25.8064516 L27.7419355,21.9723412 L27.7419355,25.8064516 L23.8709677,25.8064516 C22.8039944,25.8064516 21.9354839,26.6749622 21.9354839,27.7419355 L21.9354839,32.1818297 L18.6154864,30.5213584 C18.3527596,30.39094 18.0607359,30.3225806 17.7696573,30.3225806 L17.6206527,30.3225806 C16.8412928,30.3225806 16.1504536,30.7903856 15.8606351,31.5143019 L15.3310862,32.8386467 C15.1581402,33.2695943 14.7464088,33.5483871 14.2833291,33.5483871 C13.9818548,33.5483871 13.6986517,33.4308846 13.4850681,33.2173009 L6.78269911,26.515562 C6.5691154,26.3019783 6.4516129,26.0181452 6.4516129,25.7166709 C6.4516129,25.2529612 6.73040573,24.8418598 7.16135331,24.6689138 L8.48632815,24.1393649 C9.20961444,23.8501765 9.67741935,23.1587072 9.67741935,22.3793473 L9.67741935,22.2303427 C9.67741935,21.9392641 9.60906,21.6472404 9.47738153,21.3832535 L6.72851565,15.8864668 C6.405935,15.2400453 5.75604839,14.8387097 5.03433718,14.8387097 C4.53534524,14.8387097 4.04706403,15.0406376 3.69424145,15.3934602 L3.15429685,15.9334048 C2.44266629,16.6450353 1.85042839,17.4426663 1.37159774,18.296686 C1.97297129,11.6633065 6.04964718,6.02003532 11.7631678,3.20596016 L11.7631678,3.20596016 Z M16.4516129,38.7096774 C13.9194808,38.7096774 11.5395035,37.7239794 9.74892895,35.9334048 L4.06565016,30.250441 C2.27602065,28.4604965 1.29032258,26.0805192 1.29032258,23.5483871 C1.29032258,21.016255 2.27602065,18.6362777 4.06659524,16.8457031 L4.60653984,16.3057585 C4.71868702,16.1936114 4.87493702,16.1290323 5.03433718,16.1290323 C5.26461694,16.1290323 5.47221524,16.2575605 5.57491177,16.4632686 L8.32314766,21.9581653 C8.36504532,22.0432208 8.38772677,22.1367818 8.38772677,22.2303427 L8.38772677,22.3793473 C8.38772677,22.6285282 8.23872226,22.8490423 8.0078125,22.9407132 L6.68189266,23.4702621 C5.75793855,23.8407258 5.16129032,24.7224673 5.16129032,25.7166709 C5.16129032,26.3624622 5.41362145,26.9704511 5.87040073,27.4272303 L12.5727697,34.1295993 C13.0289189,34.5863785 13.6375378,34.8387097 14.2833291,34.8387097 C15.2775327,34.8387097 16.1592742,34.2420615 16.5291079,33.3181073 L17.0586568,31.9928176 C17.1509577,31.7619077 17.3714718,31.6129032 17.6206527,31.6129032 L17.7696573,31.6129032 C17.8632182,31.6129032 17.9567792,31.6349547 18.0399445,31.6768523 L23.5367314,34.4257182 C23.7430695,34.5290448 23.8709677,34.7353831 23.8709677,34.9656628 C23.8709677,35.125063 23.8063886,35.280683 23.6942415,35.3934602 L23.1542969,35.9334048 C21.3637223,37.7239794 18.983745,38.7096774 16.4516129,38.7096774 L16.4516129,38.7096774 Z M38.7096774,35.483871 C38.7096774,35.8398437 38.4204889,36.1290323 38.0645161,36.1290323 L24.750819,36.1290323 C25.0097656,35.797316 25.1612903,35.3884198 25.1612903,34.9656628 C25.1612903,34.2439516 24.7599547,33.594065 24.1135332,33.2708544 L23.2258065,32.826991 L23.2258065,27.7419355 C23.2258065,27.3859627 23.514995,27.0967742 23.8709677,27.0967742 L29.0322581,27.0967742 L29.0322581,24.4792717 L32.6968876,27.0967742 L38.0645161,27.0967742 C38.4204889,27.0967742 38.7096774,27.3859627 38.7096774,27.7419355 L38.7096774,35.483871 Z" id="Shape" fill="#000000"></path>
                    </g>
                </g>
            </g>
        </g>
    </g>
</svg>