<?xml version="1.0" encoding="UTF-8"?>
<svg width="50px" height="50px" viewBox="0 0 50 50" version="1.1" xmlns="http://www.w3.org/2000/svg" xmlns:xlink="http://www.w3.org/1999/xlink">
    <title>B49E448A-0355-4DA4-8DFF-A7038C0D988A@2x</title>
    <g id="All-You-Can-Use" stroke="none" stroke-width="1" fill="none" fill-rule="evenodd">
        <g id="All_you_can_use" transform="translate(-198.000000, -927.000000)" fill-rule="nonzero">
            <g id="Group-8" transform="translate(183.000000, 909.000000)">
                <g id="web" transform="translate(15.000000, 18.000000)">
                    <g id="Group" transform="translate(9.677419, 12.096774)" fill="#F0BC5E">
                        <polygon id="Path" points="29.8387097 0 33.0645161 0 33.0645161 9.67741935 29.8387097 9.67741935"></polygon>
                        <polygon id="Path" points="26.6129032 2.41935484 29.8387097 2.41935484 29.8387097 9.67741935 26.6129032 9.67741935"></polygon>
                        <polygon id="Path" points="23.3870968 4.03225806 26.6129032 4.03225806 26.6129032 9.67741935 23.3870968 9.67741935"></polygon>
                        <polygon id="Path" points="20.1612903 4.03225806 23.3870968 4.03225806 23.3870968 9.67741935 20.1612903 9.67741935"></polygon>
                        <polygon id="Path" points="16.9354839 2.41935484 20.1612903 2.41935484 20.1612903 9.67741935 16.9354839 9.67741935"></polygon>
                        <polygon id="Path" points="13.7096774 0 16.9354839 0 16.9354839 9.67741935 13.7096774 9.67741935"></polygon>
                        <polygon id="Path" points="0 12.9032258 11.2903226 12.9032258 11.2903226 19.3548387 0 19.3548387"></polygon>
                        <polygon id="Path" points="19.3548387 15.3225806 19.3548387 20.1612903 24.1935484 20.1612903 24.1935484 15.3225806"></polygon>
                        <polygon id="Path" points="12.9032258 20.1612903 17.7419355 20.1612903 17.7419355 15.3225806 12.9032258 15.3225806"></polygon>
                    </g>
                    <path d="M23.3870968,5.64516129 C23.9450762,5.64516129 24.4542276,5.44748609 24.8637538,5.12813448 L30.712103,8.32677036 C30.671938,8.50239415 30.6451613,8.683137 30.6451613,8.87096774 C30.6451613,10.2046844 31.7307995,11.2903226 33.0645161,11.2903226 C34.3982328,11.2903226 35.483871,10.2046844 35.483871,8.87096774 C35.483871,8.66856734 35.4515815,8.47482984 35.4047222,8.28778669 L40.491904,4.34924708 C40.8959173,4.65245403 41.3928617,4.83870968 41.9354839,4.83870968 C43.2692005,4.83870968 44.3548387,3.75307147 44.3548387,2.41935484 C44.3548387,1.08563821 43.2692005,0 41.9354839,0 C40.6017672,0 39.516129,1.08563821 39.516129,2.41935484 C39.516129,2.62175524 39.5484185,2.81470514 39.5952778,3.00253589 L34.508096,6.9410755 C34.1040827,6.63786855 33.6071383,6.4516129 33.0645161,6.4516129 C32.5065367,6.4516129 31.9973853,6.6492881 31.5878591,6.96863972 L25.7395099,3.77000383 C25.7796749,3.59438004 25.8064516,3.4136372 25.8064516,3.22580645 C25.8064516,1.89208982 24.7208134,0.806451613 23.3870968,0.806451613 C22.0533801,0.806451613 20.9677419,1.89208982 20.9677419,3.22580645 C20.9677419,4.55952308 22.0533801,5.64516129 23.3870968,5.64516129 L23.3870968,5.64516129 Z M41.9354839,1.61290323 C42.3796623,1.61290323 42.7419355,1.97438891 42.7419355,2.41935484 C42.7419355,2.86432077 42.3796623,3.22580645 41.9354839,3.22580645 C41.4913054,3.22580645 41.1290323,2.86432077 41.1290323,2.41935484 C41.1290323,1.97438891 41.4913054,1.61290323 41.9354839,1.61290323 Z M33.0645161,8.06451613 C33.5086946,8.06451613 33.8709677,8.42600181 33.8709677,8.87096774 C33.8709677,9.31593367 33.5086946,9.67741935 33.0645161,9.67741935 C32.6203377,9.67741935 32.2580645,9.31593367 32.2580645,8.87096774 C32.2580645,8.42600181 32.6203377,8.06451613 33.0645161,8.06451613 Z M23.3870968,2.41935484 C23.8312752,2.41935484 24.1935484,2.78084052 24.1935484,3.22580645 C24.1935484,3.67077238 23.8312752,4.03225806 23.3870968,4.03225806 C22.9429183,4.03225806 22.5806452,3.67077238 22.5806452,3.22580645 C22.5806452,2.78084052 22.9429183,2.41935484 23.3870968,2.41935484 Z" id="Shape" fill="#000000"></path>
                    <polygon id="Path" fill="#000000" points="9.67741935 14.516129 11.2903226 14.516129 11.2903226 16.1290323 9.67741935 16.1290323"></polygon>
                    <polygon id="Path" fill="#000000" points="12.9032258 14.516129 14.516129 14.516129 14.516129 16.1290323 12.9032258 16.1290323"></polygon>
                    <polygon id="Path" fill="#000000" points="16.1290323 14.516129 17.7419355 14.516129 17.7419355 16.1290323 16.1290323 16.1290323"></polygon>
                    <polygon id="Path" fill="#000000" points="9.67741935 30.6451613 20.9677419 30.6451613 20.9677419 32.2580645 9.67741935 32.2580645"></polygon>
                    <polygon id="Path" fill="#000000" points="9.67741935 27.4193548 20.9677419 27.4193548 20.9677419 29.0322581 9.67741935 29.0322581"></polygon>
                    <path d="M9.67741935,25.8064516 L20.9677419,25.8064516 L20.9677419,20.9677419 L9.67741935,20.9677419 L9.67741935,25.8064516 Z M14.516129,24.1935484 L14.516129,22.5806452 L16.1290323,22.5806452 L16.1290323,24.1935484 L14.516129,24.1935484 Z M19.3548387,24.1935484 L17.7419355,24.1935484 L17.7419355,22.5806452 L19.3548387,22.5806452 L19.3548387,24.1935484 Z M11.2903226,22.5806452 L12.9032258,22.5806452 L12.9032258,24.1935484 L11.2903226,24.1935484 L11.2903226,22.5806452 Z" id="Shape" fill="#000000"></path>
                    <path d="M43.6216292,8.31928871 L43.5483871,8.24132117 L43.5483871,6.4516129 L41.9354839,6.4516129 L41.9354839,8.87096774 L38.2532919,8.87096774 L35.8339371,12.9032258 L30.2958827,12.9032258 L27.8765278,8.87096774 L24.1935484,8.87096774 L24.1935484,7.25806452 L22.5806452,7.25806452 L22.5806452,11.2903226 L8.06451613,11.2903226 C7.17497792,11.2903226 6.4516129,12.0136876 6.4516129,12.9032258 L6.4516129,33.8709677 C6.4516129,34.7605059 7.17497792,35.483871 8.06451613,35.483871 L20.9677419,35.483871 L20.9677419,37.1782857 C19.129993,37.5531597 17.7419355,39.1814202 17.7419355,41.1290323 L17.7419355,45.9677419 C17.7419355,46.4418473 17.8388042,46.8903573 17.9904077,47.312878 C8.38465534,44.2910472 1.61290323,35.229886 1.61290323,25 C1.61290323,14.1298356 8.98555635,4.77649315 19.541882,2.25318165 L19.167008,0.684775101 C7.88141069,3.38134768 2.86509168e-15,13.3804814 2.86509168e-15,25 C2.86509168e-15,36.7057554 8.29369335,46.983682 19.7194746,49.441233 L19.7234123,49.4199692 C20.3266759,49.7798796 21.0224767,50 21.7741935,50 C22.0829133,50 22.381395,49.9582599 22.6700322,49.8921056 C23.4371063,49.9629851 24.2203251,50 25,50 C38.7844948,50 50,38.785676 50,25 C50,18.8385994 47.738549,12.9201582 43.6216292,8.31928871 Z M40.3225806,10.483871 L41.9354839,10.483871 L41.9354839,20.9677419 L40.3225806,20.9677419 L40.3225806,10.483871 Z M38.7096774,11.2450384 L38.7096774,20.9677419 L37.0967742,20.9677419 L37.0967742,13.932948 L38.7096774,11.2450384 Z M30.6451613,14.516129 L32.2580645,14.516129 L32.2580645,20.9677419 L30.6451613,20.9677419 L30.6451613,14.516129 Z M33.8709677,14.516129 L35.483871,14.516129 L35.483871,20.9677419 L33.8709677,20.9677419 L33.8709677,14.516129 Z M29.0322581,13.932948 L29.0322581,20.9677419 L27.4193548,20.9677419 L27.4193548,11.2450384 L29.0322581,13.932948 Z M25.8064516,10.483871 L25.8064516,20.9677419 L24.1935484,20.9677419 L24.1935484,10.483871 L25.8064516,10.483871 Z M22.5806452,12.9032258 L22.5806452,17.7419355 L8.06451613,17.7419355 L8.06451613,12.9032258 L22.5806452,12.9032258 Z M21.7741935,38.7096774 C23.1079102,38.7096774 24.1935484,39.7953156 24.1935484,41.1290323 L24.1935484,42.7419355 L22.5806452,42.7419355 L22.5806452,40.3225806 L20.9677419,40.3225806 L20.9677419,42.7419355 L19.3548387,42.7419355 L19.3548387,41.1290323 C19.3548387,39.7953156 20.4404769,38.7096774 21.7741935,38.7096774 Z M19.3548387,45.9677419 L19.3548387,44.3548387 L24.1935484,44.3548387 L24.1935484,45.9677419 C24.1935484,47.3014586 23.1079102,48.3870968 21.7741935,48.3870968 C20.4404769,48.3870968 19.3548387,47.3014586 19.3548387,45.9677419 Z M25,48.3870968 C24.9936996,48.3870968 24.9862178,48.3863093 24.9799174,48.3863093 C25.4910377,47.7105909 25.8064516,46.8789377 25.8064516,45.9677419 L25.8064516,41.1290323 C25.8064516,39.1822077 24.4183941,37.5531597 22.5806452,37.1782857 L22.5806452,35.483871 C22.5806452,34.5943328 21.8572801,33.8709677 20.9677419,33.8709677 L8.06451613,33.8709677 L8.06451613,19.3548387 L22.5806452,19.3548387 L22.5806452,22.5806452 L35.483871,22.5806452 L35.483871,33.8709677 L24.1935484,33.8709677 L24.1935484,35.483871 L35.483871,35.483871 C36.3734092,35.483871 37.0967742,34.7605059 37.0967742,33.8709677 L37.0967742,22.5806452 L43.5483871,22.5806452 L43.5483871,10.7630576 C46.6765373,14.8346931 48.3870968,19.8242188 48.3870968,25 C48.3870968,37.8953503 37.8961379,48.3870968 25,48.3870968 Z" id="Shape" fill="#000000"></path>
                </g>
            </g>
        </g>
    </g>
</svg>