<?xml version="1.0" encoding="UTF-8"?>
<svg width="70px" height="70px" viewBox="0 0 70 70" version="1.1" xmlns="http://www.w3.org/2000/svg" xmlns:xlink="http://www.w3.org/1999/xlink">
    <title>70BAFCBA-8B59-448C-8D7F-0D41C01240E4@2x</title>
    <g id="All-You-Can-Use" stroke="none" stroke-width="1" fill="none" fill-rule="evenodd">
        <g id="All_you_can_use" transform="translate(-565.000000, -8876.000000)" fill-rule="nonzero">
            <g id="Group-16" transform="translate(473.000000, 8846.000000)">
                <g id="digital" transform="translate(92.000000, 30.000000)">
                    <path d="M64.3548387,54.1935484 C64.3548387,56.687563 62.3327243,58.7096774 59.8387097,58.7096774 C57.3446951,58.7096774 55.3225806,56.687563 55.3225806,54.1935484 C55.3225806,51.6995338 57.3446951,49.6774194 59.8387097,49.6774194 C62.3327243,49.6774194 64.3548387,51.6995338 64.3548387,54.1935484 Z" id="Path" fill="#F0BC5E"></path>
                    <polygon id="Path" fill="#F0BC5E" points="4.51612903 5.64516129 18.0645161 5.64516129 18.0645161 11.2903226 4.51612903 11.2903226"></polygon>
                    <polygon id="Path" fill="#000000" points="58.7096774 53.0645161 60.9677419 53.0645161 60.9677419 55.3225806 58.7096774 55.3225806"></polygon>
                    <polygon id="Path" fill="#000000" points="4.51612903 4.51612903 18.0645161 4.51612903 18.0645161 6.77419355 4.51612903 6.77419355"></polygon>
                    <polygon id="Path" fill="#000000" points="15.8064516 9.03225806 18.0645161 9.03225806 18.0645161 11.2903226 15.8064516 11.2903226"></polygon>
                    <polygon id="Path" fill="#000000" points="4.51612903 9.03225806 13.5483871 9.03225806 13.5483871 11.2903226 4.51612903 11.2903226"></polygon>
                    <polygon id="Path" fill="#000000" points="30.483871 50.8064516 39.516129 50.8064516 39.516129 53.0645161 30.483871 53.0645161"></polygon>
                    <path d="M45.1612903,14.6774194 L24.8387097,14.6774194 C22.9715064,14.6774194 21.4516129,16.1973128 21.4516129,18.0645161 L21.4516129,54.1935484 C21.4516129,56.0607517 22.9715064,57.5806452 24.8387097,57.5806452 L45.1612903,57.5806452 C47.0284936,57.5806452 48.5483871,56.0607517 48.5483871,54.1935484 L48.5483871,18.0645161 C48.5483871,16.1973128 47.0284936,14.6774194 45.1612903,14.6774194 Z M24.8387097,16.9354839 L45.1612903,16.9354839 C45.7831401,16.9354839 46.2903226,17.4415638 46.2903226,18.0645161 L46.2903226,21.4516129 L23.7096774,21.4516129 L23.7096774,18.0645161 C23.7096774,17.4415638 24.2168599,16.9354839 24.8387097,16.9354839 Z M46.2903226,23.7096774 L46.2903226,46.2903226 L23.7096774,46.2903226 L23.7096774,23.7096774 L46.2903226,23.7096774 Z M45.1612903,55.3225806 L24.8387097,55.3225806 C24.2168599,55.3225806 23.7096774,54.8165007 23.7096774,54.1935484 L23.7096774,48.5483871 L46.2903226,48.5483871 L46.2903226,54.1935484 C46.2903226,54.8165007 45.7831401,55.3225806 45.1612903,55.3225806 Z" id="Shape" fill="#000000"></path>
                    <path d="M41.7741935,25.9677419 L28.2258065,25.9677419 C26.9782478,25.9677419 25.9677419,26.9782478 25.9677419,28.2258065 L25.9677419,41.7741935 C25.9677419,43.0217522 26.9782478,44.0322581 28.2258065,44.0322581 L41.7741935,44.0322581 C43.0217522,44.0322581 44.0322581,43.0217522 44.0322581,41.7741935 L44.0322581,28.2258065 C44.0322581,26.9782478 43.0217522,25.9677419 41.7741935,25.9677419 Z M31.6129032,39.516129 L31.6129032,30.483871 L38.3870968,35 L31.6129032,39.516129 Z" id="Shape" fill="#F0BC5E"></path>
                    <path d="M30.483871,41.6253465 L30.483871,28.3746535 L40.4229933,35 L30.483871,41.6253465 Z M32.7419355,32.5930884 L32.7419355,37.4069116 L36.3512003,35 L32.7419355,32.5930884 Z" id="Shape" fill="#000000"></path>
                    <path d="M35,2.25806452 C41.2041646,2.25806452 47.2407384,4.00122851 52.46141,7.29791464 L53.6676223,5.38881367 C48.0853075,1.862793 41.6308594,0 35,0 C30.6431924,0 26.4126292,0.791645665 22.3987211,2.34406502 C21.956039,0.987903226 20.6952495,0 19.1935484,0 L3.38709677,0 C1.51989349,0 0,1.51989349 0,3.38709677 L0,12.4193548 C0,14.2865581 1.51989349,15.8064516 3.38709677,15.8064516 L5.74990556,15.8064516 C1.99289633,21.5100491 0,28.093498 0,35 C0,43.6259608 3.16603141,51.9117786 8.91262919,58.3337009 L10.5946005,56.8275894 C5.21956905,50.8213364 2.25806452,43.0680601 2.25806452,35 C2.25806452,28.0868826 4.39208988,21.5183184 8.39993381,15.9387601 L9.55267137,18.2431326 C6.26590859,23.2239951 4.51612903,28.9970546 4.51612903,35 C4.51612903,44.1022713 8.5377552,52.6582189 15.5512065,58.4737273 L16.991715,56.7360761 C10.4986769,51.3494676 6.77419355,43.4280494 6.77419355,35 C6.77419355,29.8829701 8.14027855,24.9451077 10.7291142,20.5960181 L11.2903226,21.7178837 L14.2463142,15.8064516 L19.1935484,15.8064516 C21.0607517,15.8064516 22.5806452,14.2865581 22.5806452,12.4193548 L22.5806452,9.66017204 C26.418142,7.77808401 30.6939106,6.77419355 35,6.77419355 C40.4092112,6.77419355 45.6635112,8.30731788 50.1978327,11.2103863 L51.4150706,9.30900335 C46.5174521,6.17329266 40.8414189,4.51612903 35,4.51612903 C30.7209237,4.51612903 26.4644499,5.42409593 22.5806452,7.15347782 L22.5806452,4.70577117 C26.5212324,3.08774883 30.6939106,2.25806452 35,2.25806452 Z M20.3225806,12.4193548 C20.3225806,13.0423071 19.8153982,13.5483871 19.1935484,13.5483871 L12.85046,13.5483871 L11.2903226,16.669213 L9.73018516,13.5483871 L3.38709677,13.5483871 C2.76524698,13.5483871 2.25806452,13.0423071 2.25806452,12.4193548 L2.25806452,3.38709677 C2.25806452,2.76414448 2.76524698,2.25806452 3.38709677,2.25806452 L19.1935484,2.25806452 C19.8153982,2.25806452 20.3225806,2.76414448 20.3225806,3.38709677 L20.3225806,12.4193548 Z" id="Shape" fill="#000000"></path>
                    <path d="M70,35 C70,28.368038 68.137207,21.9124874 64.6111863,16.3323777 L62.703188,17.53859 C65.999874,22.7565052 67.7419355,28.7958354 67.7419355,35 C67.7419355,39.2013451 66.9585591,43.2588048 65.4265373,47.0985067 C64.8201235,46.615581 64.1596838,46.2225145 63.4628592,45.9143461 C64.7986233,42.4335307 65.483871,38.7674835 65.483871,35 C65.483871,29.1326707 63.8129252,23.4340348 60.6507529,18.5204291 L58.7515751,19.7420773 C61.6777974,24.2912834 63.2258065,29.5670835 63.2258065,35 C63.2258065,38.5519311 62.5697769,42.0035282 61.28859,45.2732013 C60.7654202,45.191611 60.231776,45.1475082 59.684901,45.1612903 C54.9625914,45.2390215 50.981209,49.1421213 50.8119644,53.8605721 C50.7623488,55.2415417 51.0424017,56.5861265 51.58211,57.8132876 C46.7418253,61.3448211 41.0371252,63.2258065 35,63.2258065 C29.8708417,63.2258065 24.8464277,61.8360163 20.4736327,59.2052829 L19.3109721,61.1413968 C24.0349358,63.9821699 29.459583,65.483871 35,65.483871 C41.4511404,65.483871 47.5516633,63.4931798 52.7447707,59.7587733 C53.2122606,60.3536102 53.7541741,60.894421 54.3710622,61.3641161 C48.7777218,65.4728453 41.9737588,67.7419355 35,67.7419355 C31.2551191,67.7419355 27.5835591,67.1151242 24.0856539,65.8802451 L23.3325983,68.0082063 C27.0730689,69.3290858 30.9976689,70 35,70 C42.2901966,70 49.4188666,67.6967302 55.3225806,63.487667 L55.3225806,65.483871 C55.3225806,67.9745779 57.3480027,70 59.8387097,70 C62.3294167,70 64.3548387,67.9745779 64.3548387,65.483871 L64.3548387,63.2120244 C64.3548387,62.496456 64.6563918,61.8492471 65.1619204,61.4804372 C67.4844852,59.7846838 68.8709677,57.0602319 68.8709677,54.1935484 C68.8709677,52.2502678 68.2546307,50.4100775 67.1300088,48.8758505 C69.028084,44.4953377 70,39.8369771 70,35 Z M59.8387097,67.7419355 C58.5933562,67.7419355 57.5806452,66.7292245 57.5806452,65.483871 L62.0967742,65.483871 C62.0967742,66.7292245 61.0840632,67.7419355 59.8387097,67.7419355 Z M63.8311176,59.6567856 C62.7450857,60.4495338 62.0967742,61.7781314 62.0967742,63.2120244 L62.0967742,63.2258065 L60.9677419,63.2258065 L60.9677419,57.5806452 L58.7096774,57.5806452 L58.7096774,63.2258065 L57.5806452,63.2258065 L57.5806452,63.2087166 C57.5806452,61.785298 56.9224106,60.4506364 55.8192886,59.6363879 C54.0176883,58.3066878 52.9889901,56.1781754 53.0689264,53.9427135 C53.1957221,50.4045647 56.1803805,47.477791 59.7234911,47.4204573 C59.762081,47.4193548 59.8001196,47.4193548 59.8387097,47.4193548 C61.6281818,47.4193548 63.311807,48.1068076 64.5896862,49.3648406 C65.893476,50.6471302 66.6129032,52.3632812 66.6129032,54.1935484 C66.6129032,56.3419071 65.5731791,58.384419 63.8311176,59.6567856 L63.8311176,59.6567856 Z" id="Shape" fill="#000000"></path>
                    <path d="M68.5379914,7.73177605 C68.343939,7.03274631 68.0660912,6.36183216 67.7083071,5.73005915 L68.397965,4.3501922 L65.6498078,1.60203496 L64.2710433,2.29169288 C63.6381678,1.93390877 62.9683562,1.65606099 62.2693265,1.46200857 L61.7819903,0 L57.8965316,0 L57.4091954,1.46200857 C56.7101657,1.65606099 56.0392515,1.93390877 55.4074785,2.29169288 L54.0276116,1.60203496 L51.2794543,4.3501922 L51.9691122,5.73005915 C51.6113281,6.36348605 51.3334803,7.03274631 51.1394279,7.73177605 L49.6774194,8.21800974 L49.6774194,12.1034684 L51.1394279,12.5908046 C51.3334803,13.2898343 51.6113281,13.9590946 51.9691122,14.5914189 L51.2794543,15.9712859 L54.0276116,18.7205457 L55.4074785,18.0308878 C56.0409054,18.3886719 56.7101657,18.6665197 57.4091954,18.8605721 L57.8954291,20.3225806 L61.7808878,20.3225806 L62.268224,18.8605721 C62.9672537,18.6665197 63.6381678,18.3886719 64.2699408,18.0308878 L65.6498078,18.7205457 L68.397965,15.9712859 L67.7083071,14.5914189 C68.0660912,13.9579921 68.343939,13.2898343 68.5379914,12.5908046 L70,12.1045709 L70,8.21800974 L68.5379914,7.73177605 Z M59.8387097,13.5483871 C57.9676475,13.5483871 56.4516129,12.0323525 56.4516129,10.1612903 C56.4516129,8.29022815 57.9676475,6.77419355 59.8387097,6.77419355 C61.7097719,6.77419355 63.2258065,8.29022815 63.2258065,10.1612903 C63.2258065,12.0323525 61.7097719,13.5483871 59.8387097,13.5483871 Z" id="Shape" fill="#F0BC5E"></path>
                    <path d="M59.8387097,14.6774194 C57.3480027,14.6774194 55.3225806,12.6519973 55.3225806,10.1612903 C55.3225806,7.67058335 57.3480027,5.64516129 59.8387097,5.64516129 C62.3294167,5.64516129 64.3548387,7.67058335 64.3548387,10.1612903 C64.3548387,12.6519973 62.3294167,14.6774194 59.8387097,14.6774194 Z M59.8387097,7.90322581 C58.5933562,7.90322581 57.5806452,8.91593683 57.5806452,10.1612903 C57.5806452,11.4066438 58.5933562,12.4193548 59.8387097,12.4193548 C61.0840632,12.4193548 62.0967742,11.4066438 62.0967742,10.1612903 C62.0967742,8.91593683 61.0840632,7.90322581 59.8387097,7.90322581 Z" id="Shape" fill="#000000"></path>
                    <path d="M20.3225806,70 L4.51612903,70 C2.02542206,70 0,67.9745779 0,65.483871 C0,63.3509482 1.48571387,61.5581685 3.47750756,61.0873708 C3.95381804,58.4544323 6.26370331,56.4516129 9.03225806,56.4516129 C10.259419,56.4516129 11.4463364,56.8612179 12.4193548,57.6021453 C13.3923733,56.8612179 14.5792906,56.4516129 15.8064516,56.4516129 C18.5750064,56.4516129 20.8848916,58.4544323 21.3612021,61.0873708 C23.3529958,61.5581685 24.8387097,63.3509482 24.8387097,65.483871 C24.8387097,67.9745779 22.8132876,70 20.3225806,70 Z" id="Path" fill="#F0BC5E"></path>
                </g>
            </g>
        </g>
    </g>
</svg>