<?xml version="1.0" encoding="UTF-8"?>
<svg width="50px" height="50px" viewBox="0 0 50 50" version="1.1" xmlns="http://www.w3.org/2000/svg" xmlns:xlink="http://www.w3.org/1999/xlink">
    <title>87BB87EC-3832-4997-B2CB-E09A245A90C8@2x</title>
    <g id="All-You-Can-Use" stroke="none" stroke-width="1" fill="none" fill-rule="evenodd">
        <g id="All_you_can_use" transform="translate(-198.000000, -814.000000)" fill-rule="nonzero">
            <g id="Group-8" transform="translate(183.000000, 796.000000)">
                <g id="success-(1)" transform="translate(15.000000, 18.000000)">
                    <g id="Group" transform="translate(20.161290, 5.645161)" fill="#F0BC5E">
                        <polygon id="Path" points="0 20.1612903 9.67741935 20.1612903 9.67741935 21.7741935 0 21.7741935"></polygon>
                        <polygon id="Path" points="0 23.3870968 9.67741935 23.3870968 9.67741935 25 0 25"></polygon>
                        <polygon id="Path" points="0.806451613 0 12.9032258 0 12.9032258 7.25806452 0.806451613 7.25806452"></polygon>
                    </g>
                    <polygon id="Path" fill="#000000" points="20.9677419 5.64516129 33.0645161 5.64516129 33.0645161 7.25806452 20.9677419 7.25806452"></polygon>
                    <polygon id="Path" fill="#000000" points="20.9677419 8.87096774 25.8064516 8.87096774 25.8064516 10.483871 20.9677419 10.483871"></polygon>
                    <polygon id="Path" fill="#000000" points="27.4193548 8.87096774 33.0645161 8.87096774 33.0645161 10.483871 27.4193548 10.483871"></polygon>
                    <path d="M50,25 C50,16.3700227 45.6385459,8.46380423 38.3340159,3.84836502 L37.4724357,5.21200857 C44.3064043,9.52975363 48.3870968,16.926427 48.3870968,25 C48.3870968,28.3274004 47.6838143,31.4925655 46.4257025,34.3604303 C46.3008758,34.3072707 46.1799868,34.2442666 46.0476783,34.2064642 L42.7419355,33.2629788 L42.7419355,32.2371945 C43.7153478,31.5000473 44.3548387,30.3435294 44.3548387,29.0322581 L44.3548387,27.4193548 C44.3548387,25.1961 42.5458355,23.3870968 40.3225806,23.3870968 C38.0993258,23.3870968 36.2903226,25.1961 36.2903226,27.4193548 L36.2903226,29.0322581 C36.2903226,30.344317 36.9298135,31.5008348 37.9032258,32.2371945 L37.9032258,33.2629788 L34.597483,34.2064642 C33.2200574,34.5998457 32.2580645,35.8756773 32.2580645,37.3090191 L32.2580645,47.2282163 C31.7280431,47.4014774 31.1909337,47.5582 30.6451613,47.6944462 L30.6451613,27.4193548 L32.632151,27.4193548 C33.7256647,27.4193548 34.6872637,26.6806326 34.9684193,25.6233462 L37.8284085,14.901635 C37.8784179,14.7169544 37.9032258,14.5259734 37.9032258,14.2952212 C37.9032258,13.2871567 37.2168756,12.4444777 36.2903226,12.1861612 L36.2903226,2.41935484 L19.3548387,2.41935484 L19.3548387,4.03225806 L34.6774194,4.03225806 L34.6774194,12.3499717 C34.4194966,12.4854303 34.1950448,12.6756238 34.0095766,12.9032258 L17.7419355,12.9032258 L17.7419355,8.06451613 L16.1290323,8.06451613 L16.1290323,12.9032258 L15.9904234,12.9032258 C15.5832599,12.4047065 14.9717269,12.0967742 14.2944336,12.0967742 C13.083181,12.0967742 12.0967742,13.083181 12.0967742,14.3330236 C12.0967742,14.5251859 12.1215821,14.7169544 12.1715915,14.9000599 L15.0315807,25.6233462 C15.3127363,26.6806326 16.2743353,27.4193548 17.367849,27.4193548 L19.3548387,27.4193548 L19.3548387,47.6944462 C18.8090663,47.5589875 18.2719569,47.402265 17.7419355,47.2282163 L17.7419355,37.3090191 C17.7419355,35.8764648 16.7799426,34.6006332 15.402517,34.2064642 L12.0967742,33.2629788 L12.0967742,32.2371945 C13.0701865,31.5000473 13.7096774,30.3435294 13.7096774,29.0322581 L13.7096774,27.4193548 C13.7096774,25.1961 11.9006742,23.3870968 9.67741935,23.3870968 C7.45416452,23.3870968 5.64516129,25.1961 5.64516129,27.4193548 L5.64516129,29.0322581 C5.64516129,30.344317 6.28465222,31.5008348 7.25806452,32.2371945 L7.25806452,33.2629788 L3.95153417,34.2064642 C3.81922571,34.2442666 3.69912419,34.3072707 3.57429748,34.3604303 C2.31618569,31.491778 1.61290323,28.3274004 1.61290323,25 C1.61290323,16.0691784 6.81467359,7.79281129 14.8661952,3.91609435 L14.1668504,2.46227631 C5.5612872,6.60636653 -5.73018335e-15,15.453314 -5.73018335e-15,25 C-5.73018335e-15,35.6622511 6.71111079,44.7812973 16.1290323,48.3685893 L16.1290323,48.3870968 L16.176679,48.3870968 C18.9224736,49.4266633 21.8950826,50 25,50 C28.1049174,50 31.078314,49.4266633 33.823321,48.3870968 L33.8709677,48.3870968 L33.8709677,48.3685893 C43.2888892,44.7812973 50,35.6622511 50,25 Z M37.9032258,27.4193548 C37.9032258,26.0856382 38.988864,25 40.3225806,25 C41.6562973,25 42.7419355,26.0856382 42.7419355,27.4193548 L42.7419355,29.0322581 C42.7419355,30.3659747 41.6562973,31.4516129 40.3225806,31.4516129 C38.988864,31.4516129 37.9032258,30.3659747 37.9032258,29.0322581 L37.9032258,27.4193548 Z M27.394547,21.7741935 C28.3821352,21.0386215 29.0322581,19.8718655 29.0322581,18.5483871 L29.0322581,16.9354839 C29.0322581,16.0242881 28.7168442,15.1918473 28.2049364,14.516129 L33.336221,14.516129 L30.855831,22.5806452 L27.4193548,22.5806452 L27.4193548,21.7741935 L27.394547,21.7741935 Z M22.605453,21.7741935 L22.5806452,21.7741935 L22.5806452,22.5806452 L19.1433815,22.5806452 L16.6629914,14.516129 L21.7942761,14.516129 C21.2831558,15.1918473 20.9677419,16.0242881 20.9677419,16.9354839 L20.9677419,18.5483871 C20.9677419,19.8718655 21.6178648,21.0386215 22.605453,21.7741935 Z M22.5806452,18.5483871 L22.5806452,16.9354839 C22.5806452,15.6017672 23.6662834,14.516129 25,14.516129 C26.3337166,14.516129 27.4193548,15.6017672 27.4193548,16.9354839 L27.4193548,18.5483871 C27.4193548,19.8821037 26.3337166,20.9677419 25,20.9677419 C23.6662834,20.9677419 22.5806452,19.8821037 22.5806452,18.5483871 L22.5806452,18.5483871 Z M17.367849,25.8064516 C17.0032132,25.8064516 16.683074,25.5603421 16.5885679,25.2079133 L13.7289724,14.4830519 C13.7159778,14.4346175 13.7096774,14.3846081 13.7096774,14.2952212 C13.7096774,13.9727193 13.9719317,13.7096774 14.2952212,13.7096774 C14.553144,13.7096774 14.7791709,13.8758506 14.8539881,14.1227476 L17.9533927,24.1935484 L24.1935484,24.1935484 L24.1935484,22.4991337 C24.4542276,22.5522933 24.7243574,22.5806452 25,22.5806452 C25.2756426,22.5806452 25.5457724,22.5522933 25.8064516,22.4991337 L25.8064516,24.1935484 L32.0466073,24.1935484 L35.1460119,14.1227476 C35.2216167,13.8758506 35.446856,13.7096774 35.7047788,13.7096774 C36.0272807,13.7096774 36.2903226,13.9719317 36.2903226,14.3330236 C36.2903226,14.3838206 36.2840222,14.4346175 36.2710276,14.484627 L33.4114321,25.2079133 C33.3161385,25.5603421 32.9967868,25.8064516 32.632151,25.8064516 L29.0322581,25.8064516 L29.0322581,48.0323053 C27.9789094,48.2161984 26.902328,48.3299994 25.8064516,48.3670142 L25.8064516,33.0645161 L24.1935484,33.0645161 L24.1935484,48.3670142 C23.097672,48.3299994 22.0210906,48.2161984 20.9677419,48.0323053 L20.9677419,25.8064516 L17.367849,25.8064516 Z M7.25806452,27.4193548 C7.25806452,26.0856382 8.34370272,25 9.67741935,25 C11.011136,25 12.0967742,26.0856382 12.0967742,27.4193548 L12.0967742,29.0322581 C12.0967742,30.3659747 11.011136,31.4516129 9.67741935,31.4516129 C8.34370272,31.4516129 7.25806452,30.3659747 7.25806452,29.0322581 L7.25806452,27.4193548 Z M14.516129,45.8960748 L14.516129,37.0967742 L12.9032258,37.0967742 L12.9032258,45.0081118 C10.4090536,43.4944399 8.22241996,41.5251702 6.4516129,39.2200101 L6.4516129,37.0967742 L4.99188821,37.0967742 C4.73711573,36.676616 4.500063,36.2450384 4.27088589,35.8087355 C4.31301976,35.7925907 4.35160978,35.7701456 4.39531875,35.7579385 L8.87096774,34.4789567 L8.87096774,32.9830046 C9.13164698,33.0361643 9.40177671,33.0645161 9.67741935,33.0645161 C9.953062,33.0645161 10.2231917,33.0361643 10.483871,32.9830046 L10.483871,34.4789567 L14.95952,35.7579385 C15.6482328,35.9548261 16.1290323,36.5919544 16.1290323,37.3090191 L16.1290323,46.6347972 C15.5805034,46.4087702 15.0426065,46.1614793 14.516129,45.8960748 L14.516129,45.8960748 Z M37.0967742,45.0081118 L37.0967742,37.0967742 L35.483871,37.0967742 L35.483871,45.8960748 C34.9573935,46.1614793 34.4194966,46.4087702 33.8709677,46.6347972 L33.8709677,37.3090191 C33.8709677,36.5919544 34.3525548,35.9548261 35.04048,35.7579385 L39.516129,34.4789567 L39.516129,32.9830046 C39.7768083,33.0361643 40.046938,33.0645161 40.3225806,33.0645161 C40.5982233,33.0645161 40.868353,33.0361643 41.1290323,32.9830046 L41.1290323,34.4789567 L45.6038936,35.7579385 C45.6483902,35.7709331 45.6869802,35.7925907 45.7291141,35.8087355 C45.5007246,36.2450384 45.2628843,36.676616 45.0081118,37.0967742 L43.5483871,37.0967742 L43.5483871,39.2207976 C41.77758,41.5259577 39.5909464,43.4952274 37.0967742,45.0081118 L37.0967742,45.0081118 Z" id="Shape" fill="#000000"></path>
                    <polygon id="Path" fill="#000000" points="41.1290323 16.9354839 42.7419355 16.9354839 42.7419355 18.5483871 41.1290323 18.5483871"></polygon>
                    <polygon id="Path" fill="#000000" points="39.516129 18.5483871 41.1290323 18.5483871 41.1290323 20.1612903 39.516129 20.1612903"></polygon>
                    <polygon id="Path" fill="#000000" points="41.1290323 20.1612903 42.7419355 20.1612903 42.7419355 21.7741935 41.1290323 21.7741935"></polygon>
                    <polygon id="Path" fill="#000000" points="42.7419355 18.5483871 44.3548387 18.5483871 44.3548387 20.1612903 42.7419355 20.1612903"></polygon>
                    <polygon id="Path" fill="#000000" points="6.4516129 16.9354839 8.06451613 16.9354839 8.06451613 18.5483871 6.4516129 18.5483871"></polygon>
                    <polygon id="Path" fill="#000000" points="4.83870968 18.5483871 6.4516129 18.5483871 6.4516129 20.1612903 4.83870968 20.1612903"></polygon>
                    <polygon id="Path" fill="#000000" points="6.4516129 20.1612903 8.06451613 20.1612903 8.06451613 21.7741935 6.4516129 21.7741935"></polygon>
                    <polygon id="Path" fill="#000000" points="8.06451613 18.5483871 9.67741935 18.5483871 9.67741935 20.1612903 8.06451613 20.1612903"></polygon>
                    <path d="M20.1612903,3.22580645 C20.1612903,1.44673004 18.7145603,0 16.9354839,0 C15.1564075,0 13.7096774,1.44673004 13.7096774,3.22580645 C13.7096774,4.03698337 14.0199723,4.77019274 14.516129,5.33722903 L14.516129,10.1759387 L16.9354839,8.96626129 L19.3548387,10.1759387 L19.3548387,5.33722903 C19.8509955,4.77019274 20.1612903,4.03698337 20.1612903,3.22580645 Z" id="Path" fill="#F0BC5E"></path>
                </g>
            </g>
        </g>
    </g>
</svg>