<?xml version="1.0" encoding="UTF-8"?>
<svg width="70px" height="70px" viewBox="0 0 70 70" version="1.1" xmlns="http://www.w3.org/2000/svg" xmlns:xlink="http://www.w3.org/1999/xlink">
    <title>1B9E72E8-6BE6-4623-B833-628D27590AAA@2x</title>
    <g id="All-You-Can-Use" stroke="none" stroke-width="1" fill="none" fill-rule="evenodd">
        <g id="All_you_can_use" transform="translate(-840.000000, -8876.000000)" fill-rule="nonzero">
            <g id="Group-16" transform="translate(748.000000, 8846.000000)">
                <g id="advertising" transform="translate(92.000000, 30.000000)">
                    <g id="Group" transform="translate(0.000000, 4.516129)" fill="#F0BC5E">
                        <polygon id="Path" points="0 3.38709677 20.3225806 3.38709677 20.3225806 13.5483871 0 13.5483871"></polygon>
                        <polygon id="Path" points="54.1935484 46.2903226 54.1935484 50.8064516 37.2580645 50.8064516 37.2580645 60.9677419 70 60.9677419 70 46.2903226"></polygon>
                        <path d="M57.5806452,24.8387097 L57.5806452,36.1290323 C60.6932019,36.1290323 63.2258065,33.5964277 63.2258065,30.483871 C63.2258065,27.3713142 60.6932019,24.8387097 57.5806452,24.8387097 Z" id="Path"></path>
                        <polygon id="Path" points="22.5806452 0 51.9354839 0 51.9354839 9.03225806 22.5806452 9.03225806"></polygon>
                        <polygon id="Path" points="22.5806452 16.9354839 22.5806452 44.0322581 37.2580645 44.0322581 37.2580645 36.1290323 31.6129032 36.1290323 31.6129032 24.8387097 38.3870968 24.8387097 38.3870968 16.9354839 51.9354839 16.9354839 51.9354839 11.2903226 22.5806452 11.2903226"></polygon>
                    </g>
                    <polygon id="Path" fill="#000000" points="0 11.2903226 7.90322581 11.2903226 7.90322581 13.5483871 0 13.5483871"></polygon>
                    <path d="M20.3225806,51.9354839 L20.3225806,11.2903226 L10.1612903,11.2903226 L10.1612903,13.5483871 L18.0645161,13.5483871 L18.0645161,20.3225806 L11.2903226,20.3225806 L11.2903226,51.9354839 C11.2903226,54.4261908 13.3157446,56.4516129 15.8064516,56.4516129 L70,56.4516129 L70,54.1935484 L19.6946667,54.1935484 C20.0833229,53.5264933 20.3225806,52.7618605 20.3225806,51.9354839 Z M13.5483871,51.9354839 L13.5483871,22.5806452 L18.0645161,22.5806452 L18.0645161,51.9354839 C18.0645161,53.1808374 17.0518051,54.1935484 15.8064516,54.1935484 C14.5610981,54.1935484 13.5483871,53.1808374 13.5483871,51.9354839 Z" id="Shape" fill="#000000"></path>
                    <polygon id="Path" fill="#000000" points="3.38709677 15.8064516 5.64516129 15.8064516 5.64516129 18.0645161 3.38709677 18.0645161"></polygon>
                    <polygon id="Path" fill="#000000" points="7.90322581 15.8064516 10.1612903 15.8064516 10.1612903 18.0645161 7.90322581 18.0645161"></polygon>
                    <polygon id="Path" fill="#000000" points="12.4193548 15.8064516 14.6774194 15.8064516 14.6774194 18.0645161 12.4193548 18.0645161"></polygon>
                    <polygon id="Path" fill="#000000" points="22.5806452 15.8064516 36.1290323 15.8064516 36.1290323 18.0645161 22.5806452 18.0645161"></polygon>
                    <polygon id="Path" fill="#000000" points="38.3870968 15.8064516 51.9354839 15.8064516 51.9354839 18.0645161 38.3870968 18.0645161"></polygon>
                    <polygon id="Path" fill="#000000" points="22.5806452 20.3225806 51.9354839 20.3225806 51.9354839 22.5806452 22.5806452 22.5806452"></polygon>
                    <polygon id="Path" fill="#000000" points="22.5806452 24.8387097 38.3870968 24.8387097 38.3870968 27.0967742 22.5806452 27.0967742"></polygon>
                    <polygon id="Path" fill="#000000" points="41.7741935 58.7096774 70 58.7096774 70 60.9677419 41.7741935 60.9677419"></polygon>
                    <path d="M41.7741935,65.483871 L46.924852,65.483871 C43.1435862,66.9607643 39.0982547,67.7419355 35,67.7419355 C16.9465096,67.7419355 2.25806452,53.0534904 2.25806452,35 C2.25806452,30.0301631 3.34299395,25.256584 5.4825321,20.8126732 L3.44718683,19.8335906 C1.15935298,24.5845672 -4.01112835e-15,29.687815 -4.01112835e-15,35 C-4.01112835e-15,54.2999464 15.7000536,70 35,70 C41.0338174,70 46.9678522,68.4337985 52.190729,65.483871 L70,65.483871 L70,63.2258065 L41.7741935,63.2258065 L41.7741935,65.483871 Z" id="Path" fill="#000000"></path>
                    <polygon id="Path" fill="#000000" points="37.2580645 58.7096774 39.516129 58.7096774 39.516129 60.9677419 37.2580645 60.9677419"></polygon>
                    <polygon id="Path" fill="#000000" points="37.2580645 63.2258065 39.516129 63.2258065 39.516129 65.483871 37.2580645 65.483871"></polygon>
                    <path d="M70,35 C70,24.0790386 65.0637917,14.0417875 56.4516129,7.35690206 L56.4516129,0 L18.0645161,0 L18.0645161,6.77419355 L0,6.77419355 L0,9.03225806 L20.3225806,9.03225806 L20.3225806,2.25806452 L54.1935484,2.25806452 L54.1935484,22.7884797 C53.1312216,23.1666615 52.3169733,24.0531282 52.044087,25.1606603 C47.1100838,27.187185 41.9076045,28.2258065 36.5623424,28.2258065 L33.8709677,28.2258065 C32.874244,28.2258065 31.9855721,28.6673859 31.3642735,29.3548387 L22.5806452,29.3548387 L22.5806452,31.6129032 L30.483871,31.6129032 L30.483871,33.8709677 L22.5806452,33.8709677 L22.5806452,36.1290323 L30.483871,36.1290323 L30.483871,38.3870968 L22.5806452,38.3870968 L22.5806452,40.6451613 L31.3642735,40.6451613 C31.9844694,41.3326141 32.874244,41.7741935 33.8709677,41.7741935 L36.1290323,41.7741935 L36.1290323,42.9032258 L22.5806452,42.9032258 L22.5806452,45.1612903 L36.1290323,45.1612903 L36.1290323,47.4193548 L22.5806452,47.4193548 L22.5806452,49.6774194 L36.1290323,49.6774194 L36.1290323,51.9354839 L44.0322581,51.9354839 L44.0322581,42.4721206 C46.7655306,42.980957 49.4425719,43.7703975 52.044087,44.8393397 C52.3169733,45.9468718 53.1323243,46.832236 54.1935484,47.2115203 L54.1935484,51.9354839 L70,51.9354839 L70,49.6774194 L66.7733273,49.6774194 C68.8847498,45.1039567 70,40.0696195 70,35 Z M54.1935484,25.9677419 C54.1935484,25.3447896 54.6996283,24.8387097 55.3225806,24.8387097 C55.9455329,24.8387097 56.4516129,25.3447896 56.4516129,25.9677419 L56.4516129,44.0322581 C56.4516129,44.6552104 55.9455329,45.1612903 55.3225806,45.1612903 C54.6996283,45.1612903 54.1935484,44.6552104 54.1935484,44.0322581 L54.1935484,25.9677419 Z M39.516129,38.3870968 L41.7741935,38.3870968 L41.7741935,36.1290323 L39.516129,36.1290323 L39.516129,33.8709677 L41.7741935,33.8709677 L41.7741935,31.6129032 L39.516129,31.6129032 L39.516129,30.3708575 C43.7770129,30.0808814 47.937563,29.1662991 51.9354839,27.6331747 L51.9354839,42.3657226 C47.937563,40.8325983 43.7770129,39.918016 39.516129,39.62804 L39.516129,38.3870968 Z M32.7419355,38.3870968 L32.7419355,31.6129032 C32.7419355,30.9899509 33.2480154,30.483871 33.8709677,30.483871 L36.5623424,30.483871 C36.7949849,30.483871 37.0265247,30.4700889 37.2580645,30.4667811 L37.2580645,39.5343214 C37.0254221,39.5299111 36.7949849,39.516129 36.5623424,39.516129 L33.8709677,39.516129 C33.2480154,39.516129 32.7419355,39.0100491 32.7419355,38.3870968 L32.7419355,38.3870968 Z M41.7741935,49.6774194 L38.3870968,49.6774194 L38.3870968,41.8193989 C39.5238471,41.8690146 40.6528794,41.9737587 41.7741935,42.1176443 L41.7741935,49.6774194 Z M56.4516129,47.2115203 C57.7625692,46.7440304 58.7096774,45.5019846 58.7096774,44.0322581 L58.7096774,25.9677419 C58.7096774,24.4980154 57.7625692,23.2559696 56.4516129,22.7884797 L56.4516129,10.2720986 C63.650296,16.4983147 67.7419355,25.3839308 67.7419355,35 C67.7419355,40.097735 66.5329669,45.1524698 64.2611203,49.6774194 L56.4516129,49.6774194 L56.4516129,47.2115203 Z" id="Shape" fill="#000000"></path>
                </g>
            </g>
        </g>
    </g>
</svg>