<?xml version="1.0" encoding="UTF-8"?>
<svg width="70px" height="70px" viewBox="0 0 70 70" version="1.1" xmlns="http://www.w3.org/2000/svg" xmlns:xlink="http://www.w3.org/1999/xlink">
    <title>6A0AD0B9-7561-4DA3-85AE-5FD446F63E80@2x</title>
    <g id="All-You-Can-Use" stroke="none" stroke-width="1" fill="none" fill-rule="evenodd">
        <g id="All_you_can_use" transform="translate(-1126.000000, -8876.000000)" fill-rule="nonzero">
            <g id="Group-16" transform="translate(1033.000000, 8846.000000)">
                <g id="digital-(1)" transform="translate(93.000000, 30.000000)">
                    <path d="M35,2.25806452 C42.1523753,2.25806452 48.9469664,4.52164181 54.6472562,8.80512853 L56.0045205,7.00022044 C49.9078565,2.42069371 42.644673,0 35,0 C29.6867124,0 24.5834646,1.16045548 19.8324881,3.44939198 L20.8115707,5.48363474 C25.2554814,3.34299395 30.0301631,2.25806452 35,2.25806452 Z" id="Path" fill="#000000"></path>
                    <g id="Group" fill="#F0BC5E">
                        <path d="M54.1935484,45.1612903 L67.3185484,45.1612903 C68.3257466,41.9539126 68.8709677,38.5409054 68.8709677,35 C68.8709677,33.856083 68.809775,32.7270507 68.699518,31.6129032 L54.1935484,31.6129032 L54.1935484,45.1612903 Z" id="Path"></path>
                        <path d="M1.12903226,35 C1.12903226,38.5409054 1.67425337,41.9539126 2.68145161,45.1612903 L15.8064516,45.1612903 L15.8064516,31.6129032 L1.30764869,31.6129032 C1.19573774,32.7281534 1.12903226,33.856083 1.12903226,35 Z" id="Path"></path>
                        <path d="M42.9032258,38.3870968 C42.9032258,42.7521737 39.3650769,46.2903226 35,46.2903226 C30.6349231,46.2903226 27.0967742,42.7521737 27.0967742,38.3870968 C27.0967742,34.0220198 30.6349231,30.483871 35,30.483871 C39.3650769,30.483871 42.9032258,34.0220198 42.9032258,38.3870968 Z" id="Path"></path>
                        <polygon id="Path" points="63.2258065 0 70 0 70 21.4516129 63.2258065 21.4516129"></polygon>
                        <polygon id="Path" points="54.1935484 3.38709677 60.9677419 3.38709677 60.9677419 21.4516129 54.1935484 21.4516129"></polygon>
                        <path d="M20.3225806,16.9354839 C20.3225806,15.6879252 21.3330865,14.6774194 22.5806452,14.6774194 L24.8387097,14.6774194 L24.8387097,9.61165893 L22.4202211,9.12818177 C22.2553868,8.62926849 22.0547191,8.14248355 21.8187688,7.67499363 L23.187059,5.62366113 L19.216151,1.65165071 L17.163716,3.01994085 C16.6951235,2.7828881 16.2094412,2.58222026 15.7105279,2.41848857 L15.2270507,0 L9.61165893,0 L9.12818177,2.41848857 C8.62926849,2.58222026 8.14358619,2.7828881 7.67499363,3.01994085 L5.62145599,1.65165071 L1.65165071,5.62255863 L3.01994085,7.67389113 C2.7839906,8.14248355 2.58222026,8.62926849 2.41848857,9.12818177 L0,9.61165893 L0,15.2281534 L2.41848857,15.7116305 C2.5833229,16.2105437 2.7839906,16.6973286 3.01994085,17.1648185 L1.65165071,19.216151 L5.62366113,23.1881616 L7.67499363,21.8198715 C8.14248355,22.0558216 8.62926849,22.2575921 9.12818177,22.4213238 L9.61165893,24.8387097 L15.2281534,24.8387097 L15.7116305,22.4202211 C16.2105437,22.2553868 16.6973286,22.0547191 17.1648185,21.8187688 L19.216151,23.187059 L20.3225806,22.0806294 L20.3225806,16.9354839 Z M12.4193548,16.9354839 C9.92534022,16.9354839 7.90322581,14.9133695 7.90322581,12.4193548 C7.90322581,9.92534022 9.92534022,7.90322581 12.4193548,7.90322581 C14.9133695,7.90322581 16.9354839,9.92534022 16.9354839,12.4193548 C16.9354839,14.9133695 14.9133695,16.9354839 12.4193548,16.9354839 Z" id="Shape"></path>
                    </g>
                    <polygon id="Path" fill="#000000" points="5.64516129 37.2580645 7.90322581 37.2580645 7.90322581 39.516129 5.64516129 39.516129"></polygon>
                    <polygon id="Path" fill="#000000" points="10.1612903 37.2580645 15.8064516 37.2580645 15.8064516 39.516129 10.1612903 39.516129"></polygon>
                    <polygon id="Path" fill="#000000" points="5.64516129 31.6129032 7.90322581 31.6129032 7.90322581 33.8709677 5.64516129 33.8709677"></polygon>
                    <polygon id="Path" fill="#000000" points="5.64516129 42.9032258 7.90322581 42.9032258 7.90322581 45.1612903 5.64516129 45.1612903"></polygon>
                    <polygon id="Path" fill="#000000" points="62.0967742 37.2580645 64.3548387 37.2580645 64.3548387 39.516129 62.0967742 39.516129"></polygon>
                    <polygon id="Path" fill="#000000" points="54.1935484 37.2580645 59.8387097 37.2580645 59.8387097 39.516129 54.1935484 39.516129"></polygon>
                    <polygon id="Path" fill="#000000" points="62.0967742 31.6129032 64.3548387 31.6129032 64.3548387 33.8709677 62.0967742 33.8709677"></polygon>
                    <polygon id="Path" fill="#000000" points="62.0967742 42.9032258 64.3548387 42.9032258 64.3548387 45.1612903 62.0967742 45.1612903"></polygon>
                    <path d="M70,20.3225806 L50.8064516,20.3225806 L50.8064516,16.9354839 C50.8064516,15.0682806 49.2865581,13.5483871 47.4193548,13.5483871 L22.5806452,13.5483871 C20.7134419,13.5483871 19.1935484,15.0682806 19.1935484,16.9354839 L19.1935484,33.4034778 L17.4029738,31.6129032 L10.1612903,31.6129032 L10.1612903,33.8709677 L16.467994,33.8709677 L19.8550907,37.2580645 L24.8602098,37.2580645 L25.0443391,36.3539567 C25.2769815,35.2100397 25.7025737,34.1455077 26.2781156,33.1846176 C26.8889397,33.5716198 27.7528038,34.0721868 28.7792969,34.5529076 C28.4369487,35.7326581 28.2258065,37.0143965 28.2258065,38.3870968 C28.2258065,39.7597971 28.4369487,41.0415354 28.777643,42.2212859 C27.7517011,42.7020067 26.887837,43.2036762 26.2770129,43.5895759 C25.7014711,42.6286858 25.2758789,41.5630512 25.0432366,40.4202369 L24.8602098,39.516129 L19.8550907,39.516129 L16.467994,42.9032258 L10.1612903,42.9032258 L10.1612903,45.1612903 L17.4029738,45.1612903 L19.1935484,43.3707157 L19.1935484,62.0967742 C19.1935484,62.7875346 19.403588,63.4292307 19.7602697,63.96508 C9.36302923,58.4737273 2.25806452,47.5538684 2.25806452,35 C2.25806452,30.6001922 3.11145413,26.356398 4.79177167,22.3557208 L3.08333855,20.647839 C1.0452369,25.1672757 0,29.9893681 0,35 C0,54.2982927 15.7000536,70 35,70 C54.2999464,70 70,54.2982927 70,35 C70,30.7087954 69.2359187,26.5388735 67.7309098,22.5806452 L70,22.5806452 L70,20.3225806 Z M22.5806452,15.8064516 L47.4193548,15.8064516 C48.0423071,15.8064516 48.5483871,16.3136341 48.5483871,16.9354839 L48.5483871,20.3225806 L21.4516129,20.3225806 L21.4516129,16.9354839 C21.4516129,16.3136341 21.9576929,15.8064516 22.5806452,15.8064516 Z M23.0492376,35 L21.4516129,35 L21.4516129,22.5806452 L48.5483871,22.5806452 L48.5483871,35 L46.9507624,35 C45.4545741,29.7137255 40.5707377,25.9677419 35,25.9677419 C29.4292623,25.9677419 24.5454259,29.7137255 23.0492376,35 Z M35.0022051,28.628796 C35.8544923,29.4678522 37.2988596,31.0858745 38.3270067,33.2794387 C37.2657826,33.6272997 36.1290323,33.8709677 35,33.8709677 C33.8731729,33.8709677 32.7375252,33.6284022 31.6785062,33.2805412 C32.7083071,31.0902848 34.1510207,29.4700573 35.0022051,28.628796 L35.0022051,28.628796 Z M38.1296465,28.7318864 C39.738297,29.25671 41.1826645,30.1734973 42.3398122,31.3813634 C41.8431042,31.6884293 41.1881773,32.0610981 40.4285062,32.4271516 C39.7520791,30.953566 38.9141255,29.7137255 38.1296465,28.7318864 L38.1296465,28.7318864 Z M27.6601878,31.3813634 C28.816233,30.1734973 30.2600491,29.25671 31.8703535,28.7318864 C31.0858745,29.7137255 30.2479209,30.953566 29.5714938,32.4271516 C28.8118227,32.0610981 28.1568958,31.6884293 27.6601878,31.3813634 Z M30.483871,38.3870968 C30.483871,37.3302829 30.6453975,36.3346616 30.89954,35.4029896 C32.1807271,35.8274792 33.5820943,36.1290323 35,36.1290323 C36.4190084,36.1290323 37.8203755,35.8263767 39.102665,35.4018869 C39.355705,36.3335591 39.516129,37.3291803 39.516129,38.3870968 C39.516129,39.4439106 39.3546025,40.4395319 39.10046,41.371204 C37.8192729,40.9467144 36.4179057,40.6451613 35,40.6451613 C33.5809916,40.6451613 32.1796245,40.9478169 30.897335,41.3723066 C30.644295,40.4406344 30.483871,39.4450133 30.483871,38.3870968 L30.483871,38.3870968 Z M34.9977949,48.1453975 C34.1455077,47.3063414 32.7011404,45.6883191 31.6729933,43.4947549 C32.7342174,43.1468938 33.8709677,42.9032258 35,42.9032258 C36.1268271,42.9032258 37.2624748,43.1457913 38.3214938,43.4936524 C37.2916929,45.6839088 35.8489793,47.3041363 34.9977949,48.1453975 L34.9977949,48.1453975 Z M40.4285062,44.347042 C41.1881773,44.7141979 41.8431042,45.0857643 42.3398122,45.3928301 C41.183767,46.6006962 39.7399509,47.5174835 38.1296465,48.0423071 C38.9141255,47.0604681 39.7520791,45.8206275 40.4285062,44.347042 Z M29.5714938,44.347042 C30.2479209,45.8206275 31.0858745,47.0604681 31.8703535,48.0423071 C30.261703,47.5174835 28.8173355,46.6006962 27.6601878,45.3928301 C28.1568958,45.0857643 28.8118227,44.7130954 29.5714938,44.347042 Z M35,50.8064516 C40.5707377,50.8064516 45.4545741,47.0604681 46.9507624,41.7741935 L48.5483871,41.7741935 L48.5483871,54.1935484 L21.4516129,54.1935484 L21.4516129,41.7741935 L23.0492376,41.7741935 C24.5454259,47.0604681 29.4292623,50.8064516 35,50.8064516 Z M21.4516129,56.4516129 L48.5483871,56.4516129 L48.5483871,62.0967742 C48.5483871,62.718624 48.0423071,63.2258065 47.4193548,63.2258065 L22.5806452,63.2258065 C21.9576929,63.2258065 21.4516129,62.718624 21.4516129,62.0967742 L21.4516129,56.4516129 Z M23.075148,65.483871 L46.924852,65.483871 C43.2262789,66.9359563 39.206858,67.7419355 35,67.7419355 C30.793142,67.7419355 26.7737211,66.9359563 23.075148,65.483871 Z M67.7419355,35 C67.7419355,47.5538684 60.6369708,58.4737273 50.2397303,63.96508 C50.596412,63.4292307 50.8064516,62.7875346 50.8064516,62.0967742 L50.8064516,43.1435862 L52.8241557,45.1612903 L59.8387097,45.1612903 L59.8387097,42.9032258 L53.7591356,42.9032258 L50.3720388,39.516129 L45.1397902,39.516129 L44.9556609,40.4202369 C44.7230185,41.5641539 44.2974263,42.6286858 43.7218844,43.5895759 C43.1110603,43.2025738 42.2471963,42.7020067 41.2207031,42.2212859 C41.5630512,41.0415354 41.7741935,39.7597971 41.7741935,38.3870968 C41.7741935,37.0143965 41.5630512,35.7326581 41.222357,34.5529076 C42.2482989,34.0721868 43.112163,33.5705173 43.7229871,33.1846176 C44.2985289,34.1455077 44.7241211,35.2111423 44.9567634,36.3539567 L45.1397902,37.2580645 L50.3720388,37.2580645 L53.7591356,33.8709677 L59.8387097,33.8709677 L59.8387097,31.6129032 L52.8241557,31.6129032 L50.8064516,33.6306074 L50.8064516,22.5806452 L65.2942288,22.5806452 C66.9122512,26.5212324 67.7419355,30.6939106 67.7419355,35 L67.7419355,35 Z" id="Shape" fill="#000000"></path>
                    <polygon id="Path" fill="#000000" points="29.3548387 58.7096774 40.6451613 58.7096774 40.6451613 60.9677419 29.3548387 60.9677419"></polygon>
                    <path d="M12.4193548,18.0645161 C15.5319116,18.0645161 18.0645161,15.5319116 18.0645161,12.4193548 C18.0645161,9.30679806 15.5319116,6.77419355 12.4193548,6.77419355 C9.30679806,6.77419355 6.77419355,9.30679806 6.77419355,12.4193548 C6.77419355,15.5319116 9.30679806,18.0645161 12.4193548,18.0645161 Z M12.4193548,9.03225806 C14.2865581,9.03225806 15.8064516,10.5521516 15.8064516,12.4193548 C15.8064516,14.2865581 14.2865581,15.8064516 12.4193548,15.8064516 C10.5521516,15.8064516 9.03225806,14.2865581 9.03225806,12.4193548 C9.03225806,10.5521516 10.5521516,9.03225806 12.4193548,9.03225806 Z" id="Shape" fill="#000000"></path>
                </g>
            </g>
        </g>
    </g>
</svg>