<?xml version="1.0" encoding="UTF-8"?>
<svg width="32px" height="33px" viewBox="0 0 32 33" version="1.1" xmlns="http://www.w3.org/2000/svg" xmlns:xlink="http://www.w3.org/1999/xlink">
    <title>ADEE201F-54A2-4E2F-B05B-EF57667E38B1@1.00x</title>
    <g id="homepage" stroke="none" stroke-width="1" fill="none" fill-rule="evenodd">
        <g id="Nav-Side" transform="translate(-191.000000, -226.000000)" fill="#000000" fill-rule="nonzero">
            <g id="Group-37" transform="translate(186.000000, 226.000000)">
                <g id="dollar-symbol-(1)" transform="translate(5.000000, 0.000000)">
                    <path d="M27.8971309,0.115099476 C30.0823455,0.115099476 31.8597696,1.8926911 31.8597696,4.07773822 L31.8597696,4.07773822 L31.8597696,20.4845236 C31.8597696,22.6695707 30.082178,24.4471623 27.8969634,24.4471623 L27.8969634,24.4471623 L9.41386387,24.4471623 C8.68255497,24.6518953 6.26110995,27.3234764 4.95581152,28.763644 C2.40301571,31.5803141 1.73218848,32.2390785 1.00490052,32.2390785 L1.00490052,32.2390785 L0.885040249,32.2317732 C0.60926178,32.1979162 0.361109948,32.0480209 0.205570681,31.8165445 C0.0872879581,31.6406283 0.0274764398,31.4290262 0.0274764398,31.1877696 L0.0274764398,31.1877696 L0.0274764398,4.07773822 C0.0274764398,1.8926911 1.80506806,0.115099476 3.99011518,0.115099476 L3.99011518,0.115099476 Z M14.6667969,3.85429687 L12.7234375,3.85429687 L12.7234375,18.2 L21.9324219,18.2 L21.9324219,16.4910156 L14.6667969,16.4910156 L14.6667969,3.85429687 Z" id="Shape"></path>
                </g>
            </g>
        </g>
    </g>
</svg>