<?xml version="1.0" encoding="UTF-8"?>
<svg width="34px" height="34px" viewBox="0 0 34 34" version="1.1" xmlns="http://www.w3.org/2000/svg" xmlns:xlink="http://www.w3.org/1999/xlink">
    <!-- Generator: Sketch 62 (91390) - https://sketch.com -->
    <title>dollar-symbol (1)</title>
    <desc>Created with Sketch.</desc>
    <g id="Page-1" stroke="none" stroke-width="1" fill="none" fill-rule="evenodd">
        <g id="Desktop-HD-Copy-2" transform="translate(-35.000000, -136.000000)">
            <g id="Group-36" transform="translate(31.000000, 137.000000)">
                <g id="dollar-symbol-(1)" transform="translate(5.000000, 0.000000)">
                    <path d="M28.0164843,0.1 L3.9835157,0.1 C1.78695677,0.1 0,1.8707312 0,4.04734536 L0,31.0527485 C0,31.293074 0.0601266322,31.5038594 0.179032521,31.6790967 C0.357728199,31.9426202 0.658024516,32.1 0.982405171,32.1 L0.982573592,32.1 C1.71369323,32.1 2.38805467,31.443778 4.95429976,28.6379785 C6.26647509,27.2033691 8.70067737,24.5420987 9.43583914,24.3381558 L28.0163159,24.3381558 C30.2130432,24.3381558 32,22.5674246 32,20.3908105 L32,4.04734536 C32,1.8707312 30.2132116,0.1 28.0164843,0.1 Z" id="Shape" stroke="#000000" stroke-width="1.5" fill-rule="nonzero"></path>
                    <g id="Group-5" transform="translate(12.300000, 5.100000)" fill="#000000">
                        <rect id="Rectangle" x="-3.63709063e-13" y="8.8817842e-16" width="2.3" height="14.1"></rect>
                        <rect id="Rectangle" x="0.3" y="11.9" width="9" height="2.2"></rect>
                    </g>
                </g>
            </g>
        </g>
    </g>
</svg>