<svg width="38" height="38" xmlns="http://www.w3.org/2000/svg"><g fill="none" fill-rule="evenodd"><path d="M25.742 11.645h9.806v14.71h-9.806z"/><path fill="#000" d="M3.04 4.75h22.135v25.935H3.04z"/><g fill-rule="nonzero"><path fill="#000" d="M34.323 23.29h1.226v1.226h-1.226zM3.065 33.71H19v1.226H3.065z"/><path d="M14.71 13.484c-.814 0-1.621.204-2.334.59l.584 1.078a3.681 3.681 0 014.985 4.985l1.078.583c.386-.711.59-1.518.59-2.333 0-2.703-2.2-4.903-4.903-4.903zM14.71 22.065a3.681 3.681 0 01-3.236-5.427l-1.077-.584a4.907 4.907 0 00-.59 2.333c0 2.704 2.2 4.903 4.903 4.903.814 0 1.621-.204 2.333-.59l-.584-1.077a3.678 3.678 0 01-1.75.442z" fill="#FFF"/><path d="M14.71 15.935a2.454 2.454 0 00-2.452 2.452c0 1.352 1.1 2.452 2.452 2.452 1.352 0 2.451-1.1 2.451-2.452 0-1.352-1.1-2.452-2.451-2.452zm0 3.678a1.227 1.227 0 010-2.452 1.227 1.227 0 010 2.452z" fill="#FFF"/><path d="M38 7.714L30.286 0H14.71v3.677H3.677A3.681 3.681 0 000 7.355v26.968A3.681 3.681 0 003.677 38h22.678v-1.226a2.454 2.454 0 01-2.452-2.451c0-1.352 1.1-2.452 2.452-2.452v-2.452H38V7.714zm-7.355-5.622l5.263 5.263h-5.263V2.092zm-7.03 34.682H3.678a2.454 2.454 0 01-2.451-2.451c0-1.352 1.1-2.452 2.451-2.452h19.939a3.665 3.665 0 00-.939 2.452c0 .94.356 1.8.939 2.451zM4.29 30.645V9.806H3.065V30.7c-.7.119-1.332.434-1.84.889V7.355c0-1.139.785-2.09 1.84-2.365v3.59H4.29V4.904H25.13v25.742H4.29zm22.065-2.451v-1.226h9.193v-1.226h-9.193v-1.226h6.742V23.29h-6.742v-1.225h9.193v-1.226h-9.193v-1.226h9.193v-1.226h-9.193v-1.226h9.193v-1.226h-9.193V14.71h9.193v-1.226h-9.193v-1.226h9.193v-1.226h-9.193V3.677h-10.42V1.226H29.42V8.58h7.355v19.613h-10.42z" fill="#000"/><path fill="#000" d="M22.677 6.129h1.226v1.226h-1.226zM20.226 6.129h1.226v1.226h-1.226zM5.516 28.194h1.226v1.226H5.516zM7.968 28.194h1.226v1.226H7.968zM20.226 33.71h1.226v1.226h-1.226z"/></g></g></svg>