<?xml version="1.0" encoding="UTF-8"?>
<svg width="35px" height="41px" viewBox="0 0 35 41" version="1.1" xmlns="http://www.w3.org/2000/svg" xmlns:xlink="http://www.w3.org/1999/xlink">
    <title>D5F71002-B0F7-4C44-A702-52BBA01E7167@2.00x</title>
    <g id="homepage" stroke="none" stroke-width="1" fill="none" fill-rule="evenodd">
        <g id="Nav-Side" transform="translate(-55.000000, -643.000000)">
            <g id="Group-44" transform="translate(55.000000, 645.000000)">
                <g id="cost">
                    <rect id="Rectangle" fill="#000000" fill-rule="nonzero" x="25.1612903" y="18.8709677" width="7.2688172" height="1.11827957"></rect>
                    <rect id="Rectangle" fill="#000000" fill-rule="nonzero" x="31.311828" y="16.6344086" width="1.11827957" height="1.11827957"></rect>
                    <rect id="Rectangle" fill="#000000" fill-rule="nonzero" x="25.1612903" y="16.6344086" width="5.03225806" height="1.11827957"></rect>
                    <rect id="Rectangle" fill="#000000" fill-rule="nonzero" x="25.1612903" y="14.3978495" width="7.2688172" height="1.11827957"></rect>
                    <rect id="Rectangle" fill="#000000" fill-rule="nonzero" x="25.1612903" y="12.1612903" width="7.2688172" height="1.11827957"></rect>
                    <path d="M22.9247312,9.92473118 L22.9247312,11.0430108 L33.5483871,11.0430108 L33.5483871,37.8817204 L3.35483871,37.8817204 C2.12137634,37.8817204 1.11827957,36.8786237 1.11827957,35.6451613 C1.11827957,34.4116989 2.12137634,33.4086022 3.35483871,33.4086022 L7.82795699,33.4086022 L7.82795699,11.0430108 L9.50537634,11.0430108 L9.50537634,9.92473118 L7.82795699,9.92473118 L7.82795699,4.33333333 L3.35483871,4.33333333 C1.50464516,4.33333333 0,5.83797849 0,7.68817204 L0,35.6451613 C0,37.4953548 1.50464516,39 3.35483871,39 L34.6666667,39 L34.6666667,9.92473118 L22.9247312,9.92473118 Z M1.11827957,7.68817204 C1.11827957,6.45470968 2.12137634,5.4516129 3.35483871,5.4516129 L6.70967742,5.4516129 L6.70967742,32.2903226 L3.35483871,32.2903226 C2.49655914,32.2903226 1.71208602,32.6146237 1.11827957,33.1469247 L1.11827957,7.68817204 Z" id="Shape" fill="#000000" fill-rule="nonzero"></path>
                    <path d="M16.2150538,18.8709677 C12.2071398,18.8709677 8.94623656,15.6100645 8.94623656,11.6021505 C8.94623656,7.59423656 12.2071398,4.33333333 16.2150538,4.33333333 C20.2229677,4.33333333 23.483871,7.59423656 23.483871,11.6021505 C23.483871,15.6100645 20.2229677,18.8709677 16.2150538,18.8709677 Z" id="Path" fill="#000000" fill-rule="nonzero"></path>
                    <text id="+" font-family="Helvetica" font-size="18.5" font-weight="normal" fill="#FFCA00">
                        <tspan x="10.6314779" y="16.5333333">+</tspan>
                    </text>
                    <rect id="Rectangle" fill="#000000" fill-rule="nonzero" x="10.0645161" y="32.2903226" width="5.59139785" height="1.11827957"></rect>
                    <rect id="Rectangle" fill="#000000" fill-rule="nonzero" x="13.4193548" y="30.0537634" width="2.23655914" height="1.11827957"></rect>
                    <rect id="Rectangle" fill="#000000" fill-rule="nonzero" x="10.0645161" y="30.0537634" width="2.23655914" height="1.11827957"></rect>
                    <rect id="Rectangle" fill="#000000" fill-rule="nonzero" x="10.0645161" y="27.8172043" width="5.59139785" height="1.11827957"></rect>
                    <rect id="Rectangle" fill="#000000" fill-rule="nonzero" x="10.0645161" y="21.1075269" width="5.59139785" height="1.11827957"></rect>
                    <rect id="Rectangle" fill="#000000" fill-rule="nonzero" x="10.0645161" y="25.5806452" width="5.59139785" height="1.11827957"></rect>
                    <g id="Group-33" transform="translate(17.333333, 21.666667)" fill-rule="nonzero">
                        <rect id="Rectangle" x="4.83977419" y="5.97580645" width="5.66129032" height="2.2016129"></rect>
                        <path d="M10.7523629,1.61346774 L10.7180806,1.57006452 C9.91920968,0.572104839 8.72845161,3.68038933e-14 7.4508871,3.68038933e-14 C5.14391129,3.68038933e-14 3.26719355,1.87671774 3.26719355,4.18369355 L3.26719355,7.23387097 L3.58170968,7.23387097 C3.58170968,6.53910484 4.14500806,5.97580645 4.83977419,5.97580645 L4.83977419,5.66129032 C4.83977419,5.31375 5.12126613,5.03225806 5.46880645,5.03225806 L6.72687097,5.03225806 C7.33105645,5.03225806 7.91039516,4.79228226 8.33750806,4.36516935 L8.61396774,4.08870968 L8.89042742,4.36516935 C9.19959677,4.67433871 9.58802419,4.88537903 10.0082177,4.97847581 C10.296,5.04200806 10.5010645,5.29550806 10.5010645,5.59020968 L10.5010645,5.97580645 C11.1958306,5.97580645 11.759129,6.53910484 11.759129,7.23387097 L12.0736452,7.23387097 L12.0736452,3.43325806 C12.0736452,2.60167742 11.5355081,1.86822581 10.7523629,1.61346774 Z" id="Path" fill="#000000"></path>
                        <path d="M12.8781774,11.3697581 L9.55751613,10.7470161 L9.55751613,10.0645161 L9.55562903,10.0645161 C9.64683871,9.9956371 9.73616129,9.92298387 9.82076613,9.84372581 C10.1362258,9.54808065 10.384379,9.19173387 10.5539032,8.80110484 C11.3961774,8.77248387 12.0736452,8.08275 12.0736452,7.23387097 C12.0736452,6.47462903 11.5323629,5.83930645 10.8155806,5.69305645 L10.8155806,5.59020968 C10.8155806,5.14579839 10.5114435,4.76775 10.0758387,4.67087903 C9.71037097,4.59004839 9.37729839,4.40731452 9.11279032,4.14249194 L8.61396774,3.64398387 L8.11514516,4.14280645 C7.74433065,4.51362097 7.25116935,4.71774194 6.72687097,4.71774194 L5.46880645,4.71774194 C4.94859677,4.71774194 4.52525806,5.14108065 4.52525806,5.66129032 L4.52525806,5.69305645 C3.80847581,5.83930645 3.26719355,6.47431452 3.26719355,7.23387097 C3.26719355,8.0925 3.95975806,8.79072581 4.81555645,8.80393548 C5.03917742,9.30464516 5.3801129,9.73962097 5.80659677,10.0645161 L5.78332258,10.0645161 L5.78332258,10.7470161 L2.46266129,11.3697581 C1.45306452,11.5590968 0.623685484,12.2818548 0.299104839,13.2565403 L7.79376563e-15,14.1532258 L15.3405242,14.1532258 L15.0414194,13.2565403 C14.7168387,12.2821694 13.8877742,11.5590968 12.8781774,11.3697581 Z M11.4446129,7.23387097 C11.4446129,7.66475806 11.1524274,8.02519355 10.7570806,8.13779032 C10.7941935,7.9443629 10.8155806,7.74747581 10.8155806,7.5483871 L10.8155806,6.34819355 C11.1807339,6.47840323 11.4446129,6.82437097 11.4446129,7.23387097 Z M5.46880645,5.34677419 L6.72687097,5.34677419 C7.41943548,5.34677419 8.07016935,5.07723387 8.55987097,4.58753226 L8.61396774,4.53343548 L8.66806452,4.58753226 C9.01749194,4.93695968 9.4575,5.17850806 9.93996774,5.28544355 C10.0852742,5.31752419 10.1865484,5.44301613 10.1865484,5.59020968 L10.1865484,5.66129032 L5.15429032,5.66129032 C5.15429032,5.48767742 5.29519355,5.34677419 5.46880645,5.34677419 Z M3.89622581,7.23387097 C3.89622581,6.82437097 4.16010484,6.47840323 4.52525806,6.34819355 L4.52525806,7.45120161 C4.52525806,7.68834677 4.55262097,7.91920161 4.59979839,8.14250806 C4.19595968,8.03557258 3.89622581,7.67073387 3.89622581,7.23387097 Z M5.15429032,7.45120161 L5.15429032,6.29032258 L10.1865484,6.29032258 L10.1865484,7.5483871 C10.1865484,8.25133065 9.9041129,8.9036371 9.39082258,9.38484677 C8.87784677,9.8651129 8.20729839,10.1041452 7.50246774,10.0591694 C6.18558871,9.97393548 5.15429032,8.82815323 5.15429032,7.45120161 Z M7.46189516,10.6869435 C7.53266129,10.6913468 7.60342742,10.6935484 7.67356452,10.6935484 C8.11294355,10.6935484 8.53691129,10.6013952 8.92848387,10.4299839 L8.92848387,10.9476774 C8.86023387,11.0977016 8.55295161,11.6370968 7.67041935,11.6370968 C6.79449194,11.6370968 6.48406452,11.1017903 6.41235484,10.9464194 L6.41235484,10.4218065 C6.73725,10.568371 7.08982258,10.6627258 7.46189516,10.6869435 Z M0.873096774,13.5241935 L0.895741935,13.455629 C1.1486129,12.6976452 1.79337097,12.1352903 2.57903226,11.9877823 L5.92328226,11.3606371 C6.12803226,11.7022016 6.62370968,12.266129 7.67041935,12.266129 C8.71712903,12.266129 9.21280645,11.7022016 9.41755645,11.3609516 L12.7618065,11.9880968 C13.5471532,12.1356048 14.1922258,12.6979597 14.4450968,13.4559435 L14.4677419,13.5241935 L0.873096774,13.5241935 Z" id="Shape" fill="#000000"></path>
                    </g>
                    <rect id="Rectangle" fill="#000000" fill-rule="nonzero" x="10.0645161" y="23.344086" width="1.11827957" height="1.11827957"></rect>
                    <rect id="Rectangle" fill="#000000" fill-rule="nonzero" x="12.3010753" y="23.344086" width="1.11827957" height="1.11827957"></rect>
                    <rect id="Rectangle" fill="#000000" fill-rule="nonzero" x="14.5376344" y="23.344086" width="1.11827957" height="1.11827957"></rect>
                </g>
            </g>
        </g>
    </g>
</svg>