<svg width="35" height="41" xmlns="http://www.w3.org/2000/svg"><g fill="none" fill-rule="evenodd"><path fill="#F0BC5E" fill-rule="nonzero" d="M25.164 14.722h7.27v6.71h-7.27z"/><path fill="#FFF" fill-rule="nonzero" d="M25.164 20.873h7.27v1.118h-7.27z"/><path d="M7.705 13.008h25.838v26.869H3.101c-.714-.042-1.156-.16-1.327-.356-1.78-2.033-.792-3.872 2.14-4.37.783-.134 3.512 0 3.512-.858 0-2.16.093-9.256.279-21.285z" fill="#000"/><path fill="#FFF" fill-rule="nonzero" d="M31.315 18.636h1.118v1.118h-1.118zM25.164 18.636h5.033v1.118h-5.033zM25.164 16.399h7.27v1.118h-7.27zM25.164 14.162h7.27v1.118h-7.27z"/><path d="M22.927 11.926v1.118h10.625v26.841H3.355a2.239 2.239 0 01-2.237-2.236 2.239 2.239 0 012.237-2.237H7.83V13.044h1.677v-1.118H7.83V6.334H3.355A3.359 3.359 0 000 9.689v27.96a3.359 3.359 0 003.355 3.355H34.67V11.926H22.927zM1.118 9.689a2.239 2.239 0 012.237-2.237H6.71v26.841H3.355c-.858 0-1.643.325-2.237.857V9.69z" fill="#000" fill-rule="nonzero"/><path d="M16.217 20.873c-4.009 0-7.27-3.261-7.27-7.27 0-4.008 3.261-7.27 7.27-7.27 4.008 0 7.27 3.262 7.27 7.27 0 4.009-3.262 7.27-7.27 7.27z" fill="#000" fill-rule="nonzero"/><text font-family="Helvetica" font-size="18.5" fill="#FFF" transform="translate(0 2)"><tspan x="10.633" y="16.534">+</tspan></text><path fill="#FFF" fill-rule="nonzero" d="M10.065 34.293h5.592v1.118h-5.592zM13.421 32.057h2.237v1.118h-2.237zM10.065 32.057h2.237v1.118h-2.237zM10.065 29.82h5.592v1.118h-5.592zM10.065 23.11h5.592v1.118h-5.592zM10.065 27.583h5.592v1.118h-5.592z"/><g fill="#FFF" fill-rule="nonzero"><path d="M28.088 25.282l-.034-.043a4.165 4.165 0 00-3.267-1.57 4.189 4.189 0 00-4.184 4.184v3.05h.314c0-.695.563-1.258 1.258-1.258v-.314c0-.348.282-.63.63-.63h1.258c.604 0 1.183-.24 1.61-.667l.277-.276.276.276c.31.31.698.52 1.118.614a.627.627 0 01.493.611v.386c.695 0 1.258.563 1.258 1.258h.315v-3.8c0-.832-.538-1.566-1.322-1.82z"/><path d="M30.214 35.04l-3.32-.623v-.683h-.002a3.145 3.145 0 00.998-1.264 1.572 1.572 0 001.52-1.567c0-.759-.542-1.394-1.258-1.54v-.104a.937.937 0 00-.74-.919 1.956 1.956 0 01-.963-.528l-.5-.499-.498.499a1.95 1.95 0 01-1.388.575h-1.259a.945.945 0 00-.943.944v.031a1.575 1.575 0 00-1.258 1.541c0 .859.692 1.557 1.548 1.57.224.501.565.936.991 1.261h-.023v.683l-3.321.623c-1.01.189-1.84.912-2.164 1.887l-.299.896h15.342l-.3-.896a2.832 2.832 0 00-2.163-1.887zm-1.433-4.137c0 .431-.293.792-.688.904.037-.193.059-.39.059-.59v-1.2c.365.13.629.477.629.886zm-5.977-1.887h1.259c.692 0 1.343-.27 1.833-.76l.054-.053.054.054c.35.35.79.59 1.272.698a.311.311 0 01.247.304v.072H22.49c0-.174.14-.315.314-.315zm-1.572 1.887c0-.41.264-.755.629-.885v1.103c0 .237.027.468.074.691a.942.942 0 01-.703-.909zm1.258.218V29.96h5.033v1.258c0 .703-.283 1.355-.796 1.836-.513.48-1.184.72-1.889.675-1.317-.085-2.348-1.231-2.348-2.608zm2.308 3.236a3.12 3.12 0 001.467-.257v.517c-.069.15-.376.69-1.259.69-.876 0-1.186-.535-1.258-.69v-.525c.325.146.678.24 1.05.265zm-6.59 2.837l.023-.068a2.204 2.204 0 011.683-1.468l3.345-.628c.205.342.7.906 1.747.906 1.047 0 1.543-.564 1.747-.905l3.345.627c.785.148 1.43.71 1.683 1.468l.023.068H18.208z"/></g><path fill="#FFF" fill-rule="nonzero" d="M10.065 25.346h1.118v1.118h-1.118zM12.302 25.346h1.118v1.118h-1.118zM14.539 25.346h1.118v1.118h-1.118z"/></g></svg>