<svg width="35" height="41" xmlns="http://www.w3.org/2000/svg"><g fill="none" fill-rule="evenodd"><path fill="#000" fill-rule="nonzero" d="M25.161 20.871h7.269v1.118h-7.269zM31.312 18.634h1.118v1.118h-1.118zM25.161 18.634h5.032v1.118h-5.032zM25.161 16.398h7.269v1.118h-7.269zM25.161 14.161h7.269v1.118h-7.269z"/><path d="M22.925 11.925v1.118h10.623v26.839H3.355a2.239 2.239 0 01-2.237-2.237 2.239 2.239 0 012.237-2.236h4.473V13.043h1.677v-1.118H7.828V6.333H3.355A3.358 3.358 0 000 9.688v27.957A3.358 3.358 0 003.355 41h31.312V11.925H22.925zM1.118 9.688a2.239 2.239 0 012.237-2.236H6.71V34.29H3.355c-.858 0-1.643.325-2.237.857V9.688z" fill="#000" fill-rule="nonzero"/><path d="M16.215 20.871c-4.008 0-7.269-3.26-7.269-7.269 0-4.008 3.261-7.269 7.27-7.269 4.007 0 7.268 3.261 7.268 7.27 0 4.007-3.261 7.268-7.269 7.268z" fill="#000" fill-rule="nonzero"/><text font-family="Helvetica" font-size="18.5" fill="#FFCA00" transform="translate(0 2)"><tspan x="10.631" y="16.533">+</tspan></text><path fill="#000" fill-rule="nonzero" d="M10.065 34.29h5.591v1.118h-5.591zM13.419 32.054h2.237v1.118h-2.237zM10.065 32.054h2.237v1.118h-2.237zM10.065 29.817h5.591v1.118h-5.591zM10.065 23.108h5.591v1.118h-5.591zM10.065 27.581h5.591v1.118h-5.591z"/><g fill-rule="nonzero"><path d="M22.173 29.643h5.661v2.202h-5.66z"/><path d="M28.086 25.28l-.035-.043a4.165 4.165 0 00-3.267-1.57 4.188 4.188 0 00-4.183 4.183v3.05h.314c0-.694.563-1.258 1.258-1.258v-.314c0-.348.282-.63.63-.63h1.257c.604 0 1.184-.24 1.61-.666l.277-.277.277.277c.309.309.697.52 1.118.613a.626.626 0 01.492.612v.385c.695 0 1.258.564 1.258 1.259h.315V27.1c0-.832-.538-1.565-1.321-1.82z" fill="#000"/><path d="M30.212 35.036l-3.321-.622v-.683h-.002a3.145 3.145 0 00.998-1.263 1.572 1.572 0 001.52-1.567c0-.76-.541-1.395-1.258-1.541v-.103a.937.937 0 00-.74-.92 1.956 1.956 0 01-.963-.528l-.499-.498-.499.498a1.95 1.95 0 01-1.388.575h-1.258a.945.945 0 00-.943.944v.032A1.575 1.575 0 0020.6 30.9c0 .86.692 1.557 1.548 1.57.224.501.564.936.99 1.261h-.022v.683l-3.321.622a2.831 2.831 0 00-2.164 1.887l-.299.897h15.34l-.298-.897a2.831 2.831 0 00-2.163-1.887zm-1.434-4.135c0 .43-.292.79-.688.903.038-.193.059-.39.059-.589v-1.2c.365.13.629.476.629.886zm-5.976-1.888h1.258c.693 0 1.344-.27 1.833-.759l.054-.054.054.054c.35.35.79.591 1.272.698a.311.311 0 01.247.305v.071h-5.032c0-.174.14-.315.314-.315zm-1.572 1.888c0-.41.263-.756.629-.886v1.103c0 .237.027.468.074.691a.942.942 0 01-.703-.908zm1.258.217v-1.161h5.032v1.258c0 .703-.283 1.355-.796 1.837-.513.48-1.183.719-1.888.674-1.317-.085-2.348-1.231-2.348-2.608zm2.307 3.236a3.12 3.12 0 001.467-.257v.517c-.068.15-.376.69-1.258.69-.876 0-1.187-.536-1.258-.69v-.526c.325.147.677.241 1.05.266zm-6.589 2.837l.023-.069a2.204 2.204 0 011.683-1.468l3.345-.627c.204.342.7.906 1.747.906 1.046 0 1.542-.564 1.747-.905l3.344.627c.785.147 1.43.71 1.683 1.468l.023.068H18.206z" fill="#000"/></g><path fill="#000" fill-rule="nonzero" d="M10.065 25.344h1.118v1.118h-1.118zM12.301 25.344h1.118v1.118h-1.118zM14.538 25.344h1.118v1.118h-1.118z"/></g></svg>