<svg width="35" height="39" xmlns="http://www.w3.org/2000/svg"><g fill-rule="nonzero" fill="none"><path d="M33 14.981L18.78.753 15.977.752 1.74 14.982a3.121 3.121 0 00-.915 2.207v17.435a3.121 3.121 0 003.122 3.122H30.79a3.121 3.121 0 003.121-3.122V17.188c0-.828-.328-1.621-.913-2.207z" fill="#000"/><path d="M4.435 19.493V7.073a2.263 2.263 0 012.263-2.264H28.04a2.263 2.263 0 012.263 2.263v12.432L19.577 30.138a3.221 3.221 0 01-4.55-.014L4.436 19.493z" fill="#FFF"/><path d="M19.585 30.231a3.122 3.122 0 01-4.414.002L1.025 16.09c-.13.348-.2.72-.2 1.098v17.435a3.121 3.121 0 003.122 3.122H30.79a3.121 3.121 0 003.122-3.122V17.188a3.12 3.12 0 00-.198-1.09L19.585 30.23z" fill="#000"/><g fill="#000"><path d="M33.53 14.45l-2.475-2.477V7.065a3.011 3.011 0 00-3.008-3.008h-4.903L19.311.22a.752.752 0 00-.532-.22L15.978 0c-.2 0-.39.08-.532.22l-3.839 3.837H6.691a3.011 3.011 0 00-3.008 3.008v4.916l-2.475 2.468a3.848 3.848 0 00-1.135 2.74v17.435a3.86 3.86 0 001.089 2.688.785.785 0 00.096.097 3.86 3.86 0 002.689 1.089h10.038a.752.752 0 000-1.504H3.947c-.38 0-.739-.09-1.057-.25l8.864-8.863 2.885 2.884a3.848 3.848 0 002.738 1.133h.002a3.848 3.848 0 002.738-1.135l2.874-2.876 8.857 8.857c-.319.16-.677.25-1.057.25H20.753a.752.752 0 000 1.504H30.79a3.86 3.86 0 002.689-1.09.763.763 0 00.096-.096 3.86 3.86 0 001.089-2.688V17.188a3.848 3.848 0 00-1.134-2.738zm-2.475-.35l1.412 1.413c.13.13.243.274.338.426l-1.75 1.752V14.1zM16.29 1.504h2.178l2.55 2.553h-7.282l2.554-2.553zM2.271 15.514l1.412-1.409v3.583l-1.75-1.748c.095-.153.208-.296.338-.427zM1.827 35.68a2.354 2.354 0 01-.25-1.057V17.71l9.113 9.107-8.863 8.864zM19.054 29.7a2.353 2.353 0 01-1.676.694 2.354 2.354 0 01-1.675-.693L5.187 19.19V7.065c0-.83.674-1.504 1.504-1.504h21.356c.83 0 1.504.674 1.504 1.504v5.123a.758.758 0 000 .18v6.828L19.054 29.7zm14.107 4.924c0 .38-.09.738-.25 1.057l-8.857-8.857 9.107-9.112v16.912z"/><path d="M17.369 36.993a.758.758 0 00-.532.22.758.758 0 00-.22.532.754.754 0 001.284.532c.14-.14.22-.334.22-.532a.758.758 0 00-.22-.531.758.758 0 00-.532-.22zM17.369 8.714a7.108 7.108 0 00-7.1 7.1c0 3.969 3.229 7.197 7.197 7.197h4.57a.752.752 0 000-1.504h-4.57a5.7 5.7 0 01-5.693-5.693 5.602 5.602 0 015.596-5.596 5.602 5.602 0 015.596 5.596v1.541a1.075 1.075 0 01-2.148 0v-1.74a3.738 3.738 0 00-3.734-3.734 3.93 3.93 0 00-3.926 3.926 3.93 3.93 0 003.926 3.926h1.196a.752.752 0 000-1.504h-1.196a2.425 2.425 0 01-2.422-2.422 2.425 2.425 0 012.422-2.422c1.23 0 2.23 1 2.23 2.23v1.74a2.58 2.58 0 002.578 2.578 2.58 2.58 0 002.578-2.578v-1.54c0-3.916-3.185-7.1-7.1-7.1z"/></g></g></svg>