<svg width="43" height="40" xmlns="http://www.w3.org/2000/svg"><g fill-rule="nonzero" fill="none"><path d="M37.239 16.188v19.12a2.37 2.37 0 01-2.37 2.37H8.008a2.37 2.37 0 01-2.37-2.37v-19.12l9.48-9.48 3.08-3.08a4.582 4.582 0 016.48 0l3.08 3.08 9.48 9.48z" fill="#000"/><path d="M19.068 23.774h4.74a2.686 2.686 0 012.686 2.686v11.218H16.382V26.46a2.686 2.686 0 012.686-2.686z" fill="#FFF"/><path d="M41.293 18.454L25.572 2.734a5.853 5.853 0 00-8.268 0l-15.72 15.72a1.264 1.264 0 101.787 1.788l1.003-1.003v16.07a3.638 3.638 0 003.634 3.633h26.861a3.638 3.638 0 003.634-3.634V19.24l1.002 1.003a1.26 1.26 0 001.788 0 1.264 1.264 0 000-1.788zm-23.647 17.96V26.46c0-.784.638-1.422 1.422-1.422h4.74c.784 0 1.422.638 1.422 1.422v9.954h-7.584zm18.329-1.106c0 .61-.496 1.106-1.106 1.106h-7.11V26.46a3.955 3.955 0 00-3.95-3.95h-4.74a3.955 3.955 0 00-3.951 3.95v9.954h-7.11c-.61 0-1.106-.496-1.106-1.106V16.711l12.19-12.19a3.322 3.322 0 014.692 0l12.19 12.19v18.597z" stroke="#FFF" fill="#000"/></g></svg>