<svg width="41" height="38" xmlns="http://www.w3.org/2000/svg"><path d="M39.327 17.603L24.373 2.649a5.567 5.567 0 00-7.864 0L1.555 17.603a1.202 1.202 0 101.7 1.7l.954-.953v15.285a3.46 3.46 0 003.457 3.457H33.217a3.46 3.46 0 003.456-3.457V18.35l.954.953a1.198 1.198 0 001.7 0c.47-.47.47-1.23 0-1.7zM16.834 34.687v-9.469c0-.746.607-1.353 1.353-1.353h4.509c.746 0 1.352.607 1.352 1.353v9.469h-7.214zm17.435-1.052c0 .58-.472 1.052-1.052 1.052h-6.764v-9.469a3.762 3.762 0 00-3.757-3.757h-4.51a3.762 3.762 0 00-3.757 3.757v9.469H7.666c-.58 0-1.052-.472-1.052-1.052v-17.69L18.209 4.349a3.16 3.16 0 014.464 0l11.596 11.596v17.69z" fill-rule="nonzero" stroke="#000" stroke-width="1.5" fill="none"/></svg>