<svg width="36" height="36" xmlns="http://www.w3.org/2000/svg"><g fill-rule="nonzero" fill="none"><path d="M12.194 15.677c0-.356.2-.68.519-.84l2.964-1.482h3.027a6.355 6.355 0 001.038-3.484 6.387 6.387 0 00-12.774 0 6.383 6.383 0 005.365 6.298.935.935 0 01-.14-.492z" stroke="#000"/><path d="M33.097 8.129h-1.742V0H4.645v8.129H2.903A2.907 2.907 0 000 11.032v18.58c0 1.602 1.302 2.904 2.903 2.904h8.13v2.323H8.71V36h18.58v-1.161h-2.322v-2.323h8.129c1.6 0 2.903-1.302 2.903-2.903v-18.58c0-1.602-1.302-2.904-2.903-2.904zm-2.323 9.29h-1.742v-3.484h1.742c.96 0 1.742.782 1.742 1.742s-.781 1.742-1.742 1.742zm-2.903-2.322H16.258v-1.162h11.613v1.162zM15.097 17.06l-2.124-1.062a.357.357 0 010-.643l2.124-1.062v2.767zm1.161-.803h11.613v1.161H16.258v-1.16zM5.806 1.161h24.388v11.613H15.54l-3.087 1.544c-.518.26-.84.78-.84 1.36 0 .578.322 1.1.84 1.36l3.087 1.543h14.654v5.806H5.806V1.161zm18 33.678H12.194v-2.323h11.612v2.323zm9.29-3.484H2.904c-.96 0-1.742-.782-1.742-1.742v-.58h31.355V27.87H1.161V11.032c0-.96.782-1.742 1.742-1.742h1.742v16.258h26.71v-7.026a2.908 2.908 0 002.322-2.845c0-1.402-.999-2.574-2.322-2.844V9.29h1.742c.96 0 1.742.782 1.742 1.742v16.839h-1.162v1.161h1.162v.58c0 .961-.782 1.743-1.742 1.743z" fill="#000"/><path fill="#000" d="M19.649 3.219l-.975-.631-6.05 9.348-1.824-1.368-.697.929 2.821 2.115zM9.29 19.742c-.96 0-1.742.781-1.742 1.742 0 .96.782 1.742 1.742 1.742s1.742-.782 1.742-1.742-.781-1.742-1.742-1.742zm0 2.323a.58.58 0 110-1.162.58.58 0 010 1.162zM15.097 19.742c-.96 0-1.742.781-1.742 1.742 0 .96.781 1.742 1.742 1.742.96 0 1.742-.782 1.742-1.742s-.782-1.742-1.742-1.742zm0 2.323a.58.58 0 110-1.162.58.58 0 010 1.162zM20.903 19.742c-.96 0-1.742.781-1.742 1.742 0 .96.782 1.742 1.742 1.742s1.742-.782 1.742-1.742-.781-1.742-1.742-1.742zm0 2.323a.58.58 0 110-1.162.58.58 0 010 1.162zM26.71 19.742c-.96 0-1.742.781-1.742 1.742 0 .96.781 1.742 1.742 1.742.96 0 1.742-.782 1.742-1.742s-.782-1.742-1.742-1.742zm0 2.323a.58.58 0 110-1.162.58.58 0 010 1.162z"/></g></svg>