<svg width="40" height="40" xmlns="http://www.w3.org/2000/svg"><g fill-rule="nonzero" fill="none"><path d="M11.613 13.548h5.161v2.581h-5.161zM24.516 10.968h5.161v5.161h-5.161zM20 18.71a7.742 7.742 0 00-7.742 7.742v5.16h15.484v-5.16A7.742 7.742 0 0020 18.71z"/><path stroke="#000" d="M19.355 11.613h-9.032V2.58h9.032z"/><g fill="#000"><path d="M38.71 33.548v-22.58a3.23 3.23 0 00-3.226-3.226h-3.226v1.29h3.226c1.067 0 1.935.869 1.935 1.936v22.58h-1.29V11.613c0-.712-.579-1.29-1.29-1.29h-2.58V6.83L25.428 0H7.741v7.742H4.516a3.23 3.23 0 00-3.226 3.226v22.58H0v3.226A3.23 3.23 0 003.226 40h33.548A3.23 3.23 0 0040 36.774v-3.226h-1.29zm-3.871-21.935v21.935H5.16V11.613h2.58v20.645h24.517V11.613h2.58zM24.516 34.839v.645c0 .356-.29.645-.645.645h-7.742a.646.646 0 01-.645-.645v-.645h9.032zm-5.161-20a.646.646 0 111.291.001.646.646 0 01-1.291-.001zM20 19.355c3.241 0 5.976 2.187 6.822 5.161H13.178c.846-2.974 3.58-5.161 6.822-5.161zm4.516 11.613v-1.29h2.58v1.29h-2.58zm-7.742 0v-1.29h6.452v1.29h-6.452zm-3.87-4.516c0-.218.013-.433.032-.646h14.129c.018.213.032.428.032.646v1.935h-2.58v-1.29h-1.291v1.29h-6.452v-1.29h-1.29v1.29h-2.58v-1.935zm0 3.225h2.58v1.29h-2.58v-1.29zM25.805 2.203l4.25 4.249h-4.25v-4.25zM9.032 1.29h15.484v6.452h6.452v23.226h-2.58v-4.516c0-4.407-3.42-8.023-7.743-8.355v-1.442a1.933 1.933 0 001.29-1.816A1.938 1.938 0 0020 12.903a1.938 1.938 0 00-1.935 1.936c0 .84.54 1.55 1.29 1.816v1.442c-4.323.332-7.742 3.948-7.742 8.355v4.516h-2.58V1.29zm-6.451 9.678c0-1.067.868-1.936 1.935-1.936h3.226v1.29h-2.58c-.712 0-1.291.58-1.291 1.29v21.936h-1.29v-22.58zM38.71 36.774a1.938 1.938 0 01-1.936 1.936H3.226a1.938 1.938 0 01-1.936-1.936V34.84h12.904v.645c0 1.067.868 1.935 1.935 1.935h7.742a1.938 1.938 0 001.935-1.935v-.645H38.71v1.935z"/><path d="M11.613 5.161h6.452v1.29h-6.452zM11.613 7.742h6.452v1.29h-6.452zM11.613 12.903h5.161v1.29h-5.161zM11.613 15.484h5.161v1.29h-5.161zM24.516 10.323h5.161v1.29h-5.161zM24.516 15.484h5.161v1.29h-5.161zM24.516 12.903h5.161v1.29h-5.161zM16.774 21.935h1.29v1.29h-1.29zM21.935 21.935h1.29v1.29h-1.29z"/></g></g></svg>