<svg xmlns="http://www.w3.org/2000/svg" width="39" height="39" viewBox="0 0 41 41" xmlns:v="https://vecta.io/nano"><path d="M37.274 20.465v-7.382l-2.697-.9-.693-1.654 1.276-2.55-5.22-5.22-2.55 1.276a14.06 14.06 0 0 0-1.654-.693l-.9-2.697h-7.382l-.9 2.697-1.654.693-2.55-1.275-5.22 5.22 1.276 2.55a14.06 14.06 0 0 0-.693 1.654l-2.697.9v7.38l2.697.9a14.21 14.21 0 0 0 .685 1.641L7.215 25.16h.382v1.3h7.097l.635-.635-.407-.01c-2.866-1.98-4.745-5.286-4.745-9.032A10.97 10.97 0 0 1 21.145 5.806a10.97 10.97 0 0 1 10.968 10.968 10.96 10.96 0 0 1-5.161 9.306l-.377-.008a1.29 1.29 0 0 1-.914.38h2.58a1.29 1.29 0 1 1 0 2.581 1.29 1.29 0 0 1 1.29 1.29 1.28 1.28 0 0 1-.088.459l.545-.005 5.17-5.2-1.275-2.548c.27-.55.503-1.103.692-1.654l2.698-.9zm1.29 16.31a1.94 1.94 0 0 0-1.935 1.935 1.94 1.94 0 0 0 1.935 1.935A1.94 1.94 0 0 0 40.5 38.71a1.94 1.94 0 0 0-1.935-1.935zm0 2.58c-.355 0-.645-.3-.645-.645s.3-.645.645-.645.645.3.645.645-.3.645-.645.645z"/><path d="M4.37 1.935A1.94 1.94 0 0 0 2.435 0 1.94 1.94 0 0 0 .5 1.935 1.94 1.94 0 0 0 2.435 3.87 1.94 1.94 0 0 0 4.37 1.935zm-2.58 0c0-.355.3-.645.645-.645a.66.66 0 0 1 .645.645.66.66 0 0 1-.645.645.66.66 0 0 1-.645-.645zm30.968 14.84A11.63 11.63 0 0 0 21.145 5.161 11.63 11.63 0 0 0 9.532 16.774a11.61 11.61 0 0 0 4.32 9.032h-5.6v-1.3H3.726V37.42h4.516v-1.935h4.894l1.935 1.935h3.493v.645c0 1.423 1.157 2.58 2.58 2.58s2.58-1.157 2.58-2.58v-.645h4.517a1.94 1.94 0 0 0 1.935-1.935c0-.497-.194-.947-.503-1.3a1.92 1.92 0 0 0 .503-1.29c0-.497-.194-.947-.503-1.3a1.92 1.92 0 0 0 .503-1.29c0-.497-.194-.947-.503-1.3a1.92 1.92 0 0 0 .503-1.29c0-1.006-.775-1.826-1.757-1.917a11.54 11.54 0 0 0 4.337-9.05zM6.952 36.13H5.016V25.806H6.95V36.13zm8.654 0l-1.935-1.935h-5.43v-7.097h6.72l2.58-2.58h8.12c.355 0 .645.3.645.645s-.3.645-.645.645h-6.72l-2.77 2.77.912.912 1.48-1.48v8.12h-2.96zm9.788-12.903h-1.668v-2.96l2.58-2.58v-3.493c0-1.423-1.157-2.58-2.58-2.58h-1.3v3.604l-.267.267h-2.046l-.267-.267v-3.604h-1.3c-1.423 0-2.58 1.157-2.58 2.58v3.493l2.58 2.58v2.96H16.99l-.04.04c-2.203-1.42-3.563-3.858-3.563-6.492 0-4.27 3.473-7.742 7.742-7.742s7.742 3.473 7.742 7.742c0 2.615-1.306 5-3.493 6.452zm-5.806-6.452h3.115l1.023-1.023v-2.848a1.29 1.29 0 0 1 1.29 1.29v2.96l-2.203 2.203h-3.337l-2.203-2.203v-2.96a1.29 1.29 0 0 1 1.29-1.29v2.848l1.023 1.023zm.267 3.87h2.58v2.58h-2.58v-2.58zm9.033 9.677c0 .356-.3.645-.645.645H23.08c-.355 0-.645-.3-.645-.645s.3-.645.645-.645h5.162c.355 0 .645.3.645.645zm0 2.58c0 .356-.3.645-.645.645H23.08c-.355 0-.645-.3-.645-.645s.3-.645.645-.645h5.162c.355 0 .645.3.645.645zm-7.743 6.452a1.29 1.29 0 0 1-1.29-1.29V27.097h1.4c-.072.203-.12.418-.12.645 0 .497.194.947.503 1.3a1.92 1.92 0 0 0-.503 1.29c0 .497.194.947.503 1.3a1.92 1.92 0 0 0-.503 1.29c0 .497.194.947.503 1.3a1.92 1.92 0 0 0-.503 1.29c0 .84.54 1.55 1.3 1.817v.764a1.29 1.29 0 0 1-1.29 1.29zm7.097-3.226H23.08c-.355 0-.645-.3-.645-.645s.3-.645.645-.645h5.162c.355 0 .645.3.645.645s-.3.645-.645.645zm.645-8.387c0 .356-.3.645-.645.645H23.08c-.355 0-.645-.3-.645-.645s.3-.645.645-.645h5.162c.355 0 .645.3.645.645zm-1.322-2.887a1.92 1.92 0 0 0-.643-1.148 8.97 8.97 0 0 0 3.254-6.932c0-4.98-4.052-9.032-9.032-9.032s-9.032 4.052-9.032 9.032c0 2.98 1.483 5.755 3.914 7.432l-.93.93c-2.68-1.94-4.275-5.046-4.275-8.36 0-5.692 4.63-10.323 10.323-10.323s10.323 4.63 10.323 10.323a10.26 10.26 0 0 1-3.902 8.081zM1.8 5.806h1.3v1.3H1.8zm0 3.226h1.3v1.3H1.8zm0 3.226h1.3v1.3H1.8zm36.12 14.84h1.3v1.3h-1.3zm0 3.226h1.3v1.3h-1.3zm0 3.225h1.3v1.3h-1.3z"/></svg>