<svg width="41" height="41" xmlns="http://www.w3.org/2000/svg"><g fill="#000" fill-rule="nonzero"><path d="M37.274 20.465v-7.382l-2.697-.9a14.015 14.015 0 00-.693-1.653l1.276-2.551-5.22-5.22-2.55 1.276a14.06 14.06 0 00-1.655-.692L24.836.645h-7.382l-.9 2.698c-.55.19-1.105.42-1.653.692L12.35 2.76 7.13 7.98l1.276 2.55a14.06 14.06 0 00-.692 1.655l-2.698.9v7.38l2.698.9c.188.547.417 1.096.685 1.64l-1.184 2.157h.382v1.29h7.097l.635-.635-.407-.01a10.955 10.955 0 01-4.745-9.032c0-6.057 4.91-10.968 10.968-10.968s10.968 4.91 10.968 10.968a10.96 10.96 0 01-5.161 9.307l-.377-.009c-.234.234-.557.38-.914.38h2.582a1.29 1.29 0 110 2.58c.712 0 1.29.578 1.29 1.29 0 .163-.034.317-.088.46l.545-.005 5.169-5.21-1.275-2.548c.27-.55.502-1.104.692-1.654l2.698-.9zM38.565 36.774a1.938 1.938 0 00-1.936 1.936c0 1.067.868 1.935 1.936 1.935A1.938 1.938 0 0040.5 38.71a1.938 1.938 0 00-1.935-1.936zm0 2.58a.646.646 0 110-1.29.646.646 0 010 1.29zM4.371 1.935A1.938 1.938 0 002.435 0 1.938 1.938 0 00.5 1.935c0 1.068.868 1.936 1.935 1.936a1.938 1.938 0 001.936-1.936zm-2.58 0a.646.646 0 011.29 0 .646.646 0 01-1.29 0z"/><path d="M32.758 16.774c0-6.403-5.21-11.613-11.613-11.613S9.532 10.371 9.532 16.774c0 3.522 1.602 6.835 4.32 9.032h-5.61v-1.29H3.726V37.42h4.516v-1.935h4.894l1.936 1.935h3.493v.646a2.583 2.583 0 002.58 2.58 2.583 2.583 0 002.58-2.58v-.646h4.518a1.938 1.938 0 001.935-1.935c0-.498-.194-.947-.503-1.29a1.92 1.92 0 00.503-1.29c0-.498-.194-.948-.503-1.291a1.92 1.92 0 00.503-1.29c0-.498-.194-.948-.503-1.29a1.92 1.92 0 00.503-1.291 1.931 1.931 0 00-1.757-1.917 11.543 11.543 0 004.337-9.05zM6.952 36.13H5.016V25.806h1.936V36.13zm8.654 0l-1.936-1.935H8.242v-7.097h6.719l2.58-2.58h8.12a.646.646 0 010 1.29h-6.718l-2.77 2.77.912.911 1.48-1.479v8.12h-2.96zm9.788-12.903h-1.668v-2.959l2.58-2.58v-3.493a2.583 2.583 0 00-2.58-2.581h-1.29v3.604l-.268.267h-2.046l-.267-.267v-3.604h-1.29a2.583 2.583 0 00-2.581 2.58v3.493l2.58 2.581v2.959h-1.557l-.04.04c-2.203-1.42-3.564-3.858-3.564-6.492 0-4.269 3.473-7.742 7.742-7.742 4.27 0 7.742 3.473 7.742 7.742 0 2.615-1.306 5.01-3.493 6.452zm-5.806-6.452h3.115l1.023-1.023v-2.848c.711 0 1.29.579 1.29 1.29v2.96l-2.202 2.202h-3.337l-2.203-2.203v-2.958c0-.712.579-1.29 1.29-1.29v2.847l1.024 1.023zm.267 3.871h2.58v2.58h-2.58v-2.58zm9.033 9.678c0 .356-.29.645-.645.645H23.08a.646.646 0 010-1.29h5.162c.355 0 .645.288.645.645zm0 2.58c0 .356-.29.645-.645.645H23.08a.646.646 0 010-1.29h5.162c.355 0 .645.29.645.645zm-7.743 6.452c-.711 0-1.29-.579-1.29-1.29V27.097h1.409a1.914 1.914 0 00-.119.645c0 .497.194.947.503 1.29a1.92 1.92 0 00-.503 1.29c0 .498.194.948.503 1.29a1.92 1.92 0 00-.503 1.291c0 .498.194.947.503 1.29a1.92 1.92 0 00-.503 1.29c0 .84.541 1.55 1.29 1.818v.764c0 .711-.578 1.29-1.29 1.29zm7.098-3.226H23.08a.646.646 0 010-1.29h5.162a.646.646 0 010 1.29zm.645-8.387c0 .356-.29.645-.645.645H23.08a.646.646 0 010-1.29h5.162c.355 0 .645.289.645.645zm-1.322-2.887a1.92 1.92 0 00-.643-1.149 8.973 8.973 0 003.254-6.932c0-4.98-4.051-9.032-9.032-9.032-4.98 0-9.032 4.052-9.032 9.032a9.042 9.042 0 003.914 7.432l-.929.929a10.327 10.327 0 01-4.275-8.36c0-5.692 4.63-10.323 10.322-10.323 5.692 0 10.323 4.63 10.323 10.322 0 3.189-1.442 6.13-3.902 8.08zM1.79 5.806h1.29v1.29H1.79zM1.79 9.032h1.29v1.29H1.79zM1.79 12.258h1.29v1.29H1.79zM37.919 27.097h1.29v1.29h-1.29zM37.919 30.323h1.29v1.29h-1.29zM37.919 33.548h1.29v1.29h-1.29z"/></g></svg>