<svg width="39" height="39" xmlns="http://www.w3.org/2000/svg"><g fill-rule="nonzero" fill="none"><path d="M35.435 19.442v-7.013l-2.562-.854c-.18-.524-.4-1.05-.658-1.572l1.212-2.423-4.958-4.959-2.424 1.213a13.357 13.357 0 00-1.571-.659L23.619.613h-7.013l-.854 2.562c-.523.18-1.05.4-1.571.659L11.757 2.62 6.8 7.58l1.212 2.423a13.357 13.357 0 00-.658 1.572l-2.563.854v7.012l2.563.855c.179.52.396 1.041.65 1.558l-1.124 2.05h.363v1.225h6.742l.604-.604-.387-.009a10.407 10.407 0 01-4.507-8.58c0-5.755 4.664-10.42 10.419-10.42 5.754 0 10.42 4.665 10.42 10.42 0 3.728-1.96 7-4.904 8.84l-.358-.007c-.222.222-.529.36-.868.36h2.452a1.225 1.225 0 110 2.452c.678 0 1.226.548 1.226 1.225 0 .155-.032.3-.084.437l.518-.005 4.91-4.95-1.21-2.42c.257-.522.477-1.048.657-1.572l2.563-.854z" stroke="#000"/><g fill="#000"><path d="M36.661 34.935a1.841 1.841 0 00-1.838 1.84c0 1.013.825 1.838 1.838 1.838a1.841 1.841 0 001.839-1.839 1.841 1.841 0 00-1.839-1.839zm0 2.452a.614.614 0 11.002-1.227.614.614 0 01-.002 1.227zM4.177 1.839A1.841 1.841 0 002.34 0 1.841 1.841 0 00.5 1.839c0 1.013.825 1.838 1.839 1.838A1.841 1.841 0 004.177 1.84zm-2.451 0a.614.614 0 011.226 0 .614.614 0 01-1.226 0zM31.145 15.935c0-6.083-4.949-11.032-11.032-11.032S9.08 9.853 9.08 15.935c0 3.346 1.52 6.494 4.103 8.581h-5.33V23.29h-4.29v12.258h4.29V33.71h4.65l1.839 1.838h3.318v.613c0 1.352 1.1 2.452 2.452 2.452 1.352 0 2.452-1.1 2.452-2.452v-.613h4.29a1.841 1.841 0 001.84-1.838c0-.473-.185-.9-.479-1.226.294-.326.478-.753.478-1.226 0-.472-.184-.9-.478-1.226.294-.326.478-.753.478-1.226 0-.472-.184-.9-.478-1.225.294-.326.478-.754.478-1.226 0-.956-.736-1.735-1.67-1.822 2.6-2.084 4.121-5.21 4.121-8.598zM6.63 34.323H4.79v-9.807H6.63v9.807zm8.222 0l-1.84-1.84H7.856v-6.741h6.383l2.451-2.452h7.714a.614.614 0 010 1.226H18.02l-2.63 2.631.866.867 1.405-1.405v7.714h-2.81zm9.298-12.258h-1.584v-2.811l2.451-2.452v-3.318c0-1.352-1.1-2.452-2.451-2.452h-1.226v3.424l-.254.254h-1.944l-.254-.254v-3.424h-1.226a2.454 2.454 0 00-2.451 2.452v3.318l2.451 2.452v2.81h-1.48l-.038.04c-2.092-1.351-3.385-3.666-3.385-6.169 0-4.055 3.3-7.354 7.355-7.354 4.055 0 7.355 3.299 7.355 7.354 0 2.485-1.241 4.76-3.319 6.13zm-5.516-6.13h2.96l.972-.972v-2.705c.676 0 1.225.55 1.225 1.226v2.81l-2.092 2.093h-3.17l-2.093-2.092v-2.811c0-.676.55-1.226 1.226-1.226v2.705l.972.972zm.254 3.678h2.452v2.452h-2.452v-2.452zm8.581 9.193a.614.614 0 01-.613.613h-4.903a.614.614 0 010-1.225h4.903c.338 0 .613.274.613.612zm0 2.452a.614.614 0 01-.613.613h-4.903a.614.614 0 010-1.226h4.903c.338 0 .613.275.613.613zm-7.355 6.13c-.676 0-1.226-.55-1.226-1.227v-10.42h1.339a1.818 1.818 0 00-.113.614c0 .472.184.9.478 1.226a1.824 1.824 0 00-.478 1.225c0 .473.184.9.478 1.226a1.824 1.824 0 00-.478 1.226c0 .473.184.9.478 1.226a1.824 1.824 0 00-.478 1.226c0 .798.514 1.472 1.226 1.726v.725c0 .676-.55 1.226-1.226 1.226zm6.742-3.065h-4.903a.614.614 0 010-1.226h4.903a.614.614 0 010 1.226zm.613-7.968a.614.614 0 01-.613.613h-4.903a.614.614 0 010-1.226H26.855c.338 0 .613.275.613.613zm-1.255-2.743a1.825 1.825 0 00-.61-1.09 8.524 8.524 0 003.09-6.587c0-4.731-3.848-8.58-8.58-8.58s-8.58 3.849-8.58 8.58a8.59 8.59 0 003.718 7.06l-.883.883a9.81 9.81 0 01-4.062-7.943c0-5.407 4.4-9.806 9.807-9.806s9.806 4.4 9.806 9.806a9.749 9.749 0 01-3.706 7.677zM1.726 5.516h1.226v1.226H1.726zM1.726 8.581h1.226v1.226H1.726zM1.726 11.645h1.226v1.226H1.726zM36.048 25.742h1.226v1.226h-1.226zM36.048 28.806h1.226v1.226h-1.226zM36.048 31.871h1.226v1.226h-1.226z"/></g></g></svg>