<svg xmlns="http://www.w3.org/2000/svg" width="39" height="39" fill="none" xmlns:v="https://vecta.io/nano"><path d="M35.435 19.442V12.43l-2.563-.854c-.18-.523-.4-1.05-.658-1.57l1.212-2.423L28.47 2.62l-2.423 1.212c-.522-.258-1.048-.478-1.57-.658L23.62.613h-7.013l-.854 2.563c-.523.18-1.05.4-1.57.658L11.757 2.62 6.8 7.58l1.212 2.423c-.258.522-.478 1.048-.658 1.57L4.8 12.43v7.012l2.563.854a13.5 13.5 0 0 0 .651 1.559l-1.125 2.05h.363v1.226h6.742l.604-.604-.387-.01c-2.723-1.88-4.507-5.022-4.507-8.58A10.42 10.42 0 0 1 20.113 5.516a10.42 10.42 0 0 1 10.419 10.419c0 3.73-1.96 7-4.903 8.84l-.358-.008a1.22 1.22 0 0 1-.868.36h2.452c.677 0 1.226.55 1.226 1.226s-.55 1.226-1.226 1.226c.677 0 1.226.55 1.226 1.226 0 .154-.032.3-.084.436l.518-.005 4.91-4.95-1.21-2.42c.257-.522.477-1.048.658-1.57l2.563-.854z" stroke="#000"/><path d="M36.66 34.935a1.84 1.84 0 0 0-1.839 1.839 1.84 1.84 0 0 0 1.839 1.839 1.84 1.84 0 0 0 1.839-1.839 1.84 1.84 0 0 0-1.839-1.839zm0 2.452c-.338 0-.613-.275-.613-.613s.275-.613.613-.613.613.275.613.613-.275.613-.613.613zM4.177 1.84A1.84 1.84 0 0 0 2.339 0 1.84 1.84 0 0 0 .5 1.839a1.84 1.84 0 0 0 1.839 1.839 1.84 1.84 0 0 0 1.839-1.839zm-2.452 0c0-.338.275-.613.613-.613s.613.275.613.613-.275.613-.613.613-.613-.275-.613-.613zm29.42 14.095A11.05 11.05 0 0 0 20.113 4.903 11.05 11.05 0 0 0 9.08 15.935a11.03 11.03 0 0 0 4.103 8.58h-5.33V23.3h-4.3v12.258h4.3V33.7h4.65l1.84 1.84h3.318v.613c0 1.352 1.1 2.452 2.452 2.452s2.452-1.1 2.452-2.452v-.613h4.3a1.84 1.84 0 0 0 1.839-1.839c0-.473-.184-.9-.478-1.226.294-.326.478-.753.478-1.226s-.184-.9-.478-1.226c.294-.326.478-.753.478-1.226s-.184-.9-.478-1.226c.294-.326.478-.753.478-1.226 0-.956-.736-1.735-1.67-1.822 2.6-2.084 4.12-5.2 4.12-8.598zM6.63 34.323H4.8v-9.806h1.84v9.806zm8.22 0L13 32.483H7.855V25.74h6.383L16.7 23.3h7.714c.338 0 .613.275.613.613s-.275.613-.613.613H18.02l-2.63 2.63.867.867 1.405-1.405v7.714h-2.8zm9.3-12.258h-1.585v-2.8l2.452-2.452v-3.318c0-1.352-1.1-2.452-2.452-2.452H21.34v3.424l-.254.254H19.14l-.254-.254v-3.424H17.66c-1.352 0-2.452 1.1-2.452 2.452v3.318l2.452 2.452v2.8h-1.48l-.04.04c-2.092-1.35-3.385-3.665-3.385-6.168 0-4.056 3.3-7.355 7.355-7.355s7.355 3.3 7.355 7.355a7.31 7.31 0 0 1-3.318 6.129zm-5.516-6.13h2.96l.972-.972v-2.705a1.23 1.23 0 0 1 1.226 1.226v2.8L21.7 18.386h-3.17l-2.092-2.092v-2.8a1.23 1.23 0 0 1 1.226-1.226v2.705l.972.972zm.254 3.677h2.452v2.452h-2.452v-2.452zm8.58 9.194c0 .338-.275.613-.613.613H21.95c-.338 0-.613-.275-.613-.613s.275-.613.613-.613h4.904c.338 0 .613.275.613.613zm0 2.452c0 .338-.275.613-.613.613H21.95c-.338 0-.613-.275-.613-.613s.275-.613.613-.613h4.904c.338 0 .613.275.613.613zm-7.355 6.13a1.23 1.23 0 0 1-1.226-1.226v-10.42h1.34c-.07.192-.113.397-.113.613 0 .473.184.9.478 1.226-.294.326-.478.753-.478 1.226s.184.9.478 1.226c-.294.326-.478.753-.478 1.226s.184.9.478 1.226c-.294.326-.478.753-.478 1.226 0 .798.514 1.472 1.226 1.726v.726a1.23 1.23 0 0 1-1.226 1.226zm6.743-3.065h-4.904c-.338 0-.613-.275-.613-.613s.275-.613.613-.613h4.904c.338 0 .613.275.613.613s-.275.613-.613.613zm.613-7.968c0 .338-.275.613-.613.613h-4.904c-.338 0-.613-.275-.613-.613s.275-.613.613-.613h4.904c.338 0 .613.275.613.613zm-1.256-2.743a1.86 1.86 0 0 0-.6-1.09 8.51 8.51 0 0 0 3.09-6.586c0-4.732-3.85-8.58-8.58-8.58s-8.58 3.85-8.58 8.58a8.59 8.59 0 0 0 3.718 7.06l-.883.883a9.81 9.81 0 0 1-4.062-7.943 9.82 9.82 0 0 1 9.806-9.806 9.82 9.82 0 0 1 9.806 9.806 9.75 9.75 0 0 1-3.707 7.677zM1.726 5.516h1.226v1.226H1.726zm0 3.064h1.226v1.226H1.726zm0 3.065h1.226v1.226H1.726zm34.322 14.097h1.226v1.226h-1.226zm0 3.064h1.226v1.226h-1.226zm0 3.064h1.226v1.226h-1.226z" fill="#000"/></svg>