<svg id="Layer_1" data-name="Layer 1" xmlns="http://www.w3.org/2000/svg" viewBox="0 0 99 99"><circle cx="49.5" cy="49.5" r="49.5" style="fill:#fff4cf"/><circle cx="18.5" cy="18.5" r="2.5"/><path d="M12,12H67V25H12Z" style="fill:#ffca13"/><path d="M17,43H57V64H17Z" style="fill:#ffca13"/><circle cx="25.5" cy="18.5" r="2.5"/><circle cx="32.5" cy="18.5" r="2.5"/><path d="M55.81,70H24.19a1,1,0,1,0,0,2H55.81a1,1,0,1,0,0-2Z"/><path d="M24.19,34H55.81a1,1,0,1,0,0-2H24.19a1,1,0,1,0,0,2Z"/><path d="M24.19,39H48.81a1,1,0,1,0,0-2H24.19a1,1,0,1,0,0,2Z"/><path d="M89.5,67.65a7,7,0,0,0-.18-.84l-3.11-11.7a1.17,1.17,0,0,0-2.26.6l3.1,11.69c.06.22.1.43.14.63a35.18,35.18,0,0,1,.46,5.71v9.65a.38.38,0,0,1-.38.38L72,83.8a.38.38,0,0,1-.38-.38V72.8a1.94,1.94,0,0,0-1.53-1.9l-3.6-.8A5.67,5.67,0,0,1,62,64.56a4.52,4.52,0,0,0-1-2.79L52.76,51.24a.68.68,0,0,1,.12-1,4.86,4.86,0,0,1,3-1H56a4.92,4.92,0,0,1,3.8,1.88s2,2.51,3.32,4.21a5.18,5.18,0,0,0,9.24-3.19V42.89a3.33,3.33,0,0,0-.22-1.25l-2-5.43V23.53L78.27,41.6A11.35,11.35,0,0,0,80,44.31a8.9,8.9,0,0,1,1.85,3.5l.77,2.92a1.19,1.19,0,0,0,1.44.83,1.17,1.17,0,0,0,.83-1.43l-.77-2.91a11.28,11.28,0,0,0-2.34-4.43,8.76,8.76,0,0,1-1.37-2.14L72.16,22.31a4.34,4.34,0,0,0-2-2.12V12.72A2.73,2.73,0,0,0,67.4,10H58.94a1.17,1.17,0,1,0,0,2.33H67.4a.4.4,0,0,1,.4.39V25.4H12.35V12.72a.39.39,0,0,1,.39-.39H53A1.17,1.17,0,1,0,53,10H12.74A2.73,2.73,0,0,0,10,12.72V87.28A2.73,2.73,0,0,0,12.74,90h10.6a1.17,1.17,0,1,0,0-2.33H17.56V79.46a1.07,1.07,0,0,1,1.07-1.06h36a1.17,1.17,0,0,1,1.17,1.17v8.1H29.12a1.17,1.17,0,1,0,0,2.33H67.4a2.73,2.73,0,0,0,2.74-2.72V85.41a2.77,2.77,0,0,0,1.85.72l15.29,0A2.72,2.72,0,0,0,90,83.39V73.74a37.62,37.62,0,0,0-.5-6.09ZM51.43,48.44a3,3,0,0,0-.52,4.23l4.85,6.17h0V62.3a1.07,1.07,0,0,1-1.07,1.07H18.63a1.07,1.07,0,0,1-1.07-1.07V45.24a1.07,1.07,0,0,1,1.07-1.06h36a1.17,1.17,0,0,1,1.17,1.17v1.56A7.31,7.31,0,0,0,51.43,48.44Zm16,39.23H58.11v-8.1a3.51,3.51,0,0,0-3.52-3.5h-36a3.41,3.41,0,0,0-3.42,3.39v8.21H12.74a.39.39,0,0,1-.39-.39V27.73H67.8V54.89a2.76,2.76,0,0,1-2.85-1c-1.34-1.69-3.31-4.21-3.31-4.21a7.35,7.35,0,0,0-3.53-2.44V45.35a3.51,3.51,0,0,0-3.52-3.5h-36a3.41,3.41,0,0,0-3.42,3.39V62.3a3.41,3.41,0,0,0,3.42,3.4H54.69a3.41,3.41,0,0,0,3.42-3.4v-.48l1.08,1.38a2.24,2.24,0,0,1,.46,1.37A8,8,0,0,0,66,72.38l1.83.4v14.5A.4.4,0,0,1,67.4,87.67Z"/><path d="M17.5,67A3.5,3.5,0,1,0,21,70.5,3.5,3.5,0,0,0,17.5,67Zm0,4.63a1.13,1.13,0,1,1,1.13-1.13A1.14,1.14,0,0,1,17.5,71.63Z"/><path d="M17.5,37A3.5,3.5,0,1,0,14,33.5,3.5,3.5,0,0,0,17.5,37Zm0-4.63a1.13,1.13,0,1,1-1.13,1.13A1.14,1.14,0,0,1,17.5,32.37Z"/></svg>