<svg id="Layer_1" data-name="Layer 1" xmlns="http://www.w3.org/2000/svg" viewBox="0 0 42.68 41"><path d="M2.7,3.59l12-.21.6,34-12,.21Z" style="fill:#ffca13;fill-rule:evenodd"/><path d="M27,5.12A5.1,5.1,0,0,0,21.94,0H5.06A5.1,5.1,0,0,0,0,5.12V35.88A5.1,5.1,0,0,0,5.06,41H21.94A5.1,5.1,0,0,0,27,35.88ZM23.62,35.88a1.69,1.69,0,0,1-1.68,1.7H5.06a1.69,1.69,0,0,1-1.68-1.7V5.12a1.69,1.69,0,0,1,1.68-1.7h.85a1.69,1.69,0,0,1,1.68,1.7A1.7,1.7,0,0,0,9.28,6.83h8.44a1.7,1.7,0,0,0,1.69-1.71,1.69,1.69,0,0,1,1.68-1.7h.85a1.69,1.69,0,0,1,1.68,1.7Z"/><path d="M21,6h8V35H21Z" style="fill:#fff;fill-rule:evenodd"/><path d="M27.88,20l-2.1,2.41L40.12,34.84l2.1-2.42Z" style="fill:#ffca13;fill-rule:evenodd"/><path d="M24.5,24.56a2.19,2.19,0,0,1-.35,2.29l-.81.93a2.19,2.19,0,0,1-1.49.74A2.16,2.16,0,0,1,20.28,28l-5.6-4.87a2.17,2.17,0,0,1-.21-3.06l.81-.93a2.17,2.17,0,0,1,2.21-.67L23,12.09a2.19,2.19,0,0,1,.35-2.29l.82-.93a2.16,2.16,0,0,1,3.05-.22l5.6,4.87a2.18,2.18,0,0,1,.22,3.06l-.81.93a2.19,2.19,0,0,1-1.49.74,2.27,2.27,0,0,1-.73-.07l-.91,1,12,9.17A3.85,3.85,0,0,1,41.75,34a3.89,3.89,0,0,1-2.63,1.31H39a3.86,3.86,0,0,1-2.84-1.1L25.41,23.52Zm-7.39-4.24a.29.29,0,0,0-.22-.07.28.28,0,0,0-.21.1l-.81.94a.29.29,0,0,0,0,.43l5.6,4.88a.32.32,0,0,0,.44,0l.81-.93a.31.31,0,0,0,0-.44Zm7.2-6.86L19,19.53l4.2,3.66,5.28-6.07Zm6.12,2.86a.29.29,0,0,0,.43,0l.82-.93a.32.32,0,0,0,0-.44L26,10.05a.29.29,0,0,0-.22-.07.28.28,0,0,0-.21.1l-.82.94a.3.3,0,0,0,0,.43Zm7,16.52a1.94,1.94,0,0,0,1.46.57,2,2,0,0,0,1.12-3.54l-8.68-6.62-1.66,1.91Zm-9.08-9,1.5-1.73-2-1.51-1.29,1.49Z"/></svg>