<?xml version="1.0" encoding="UTF-8"?>
<svg width="38px" height="41px" viewBox="0 0 38 41" version="1.1" xmlns="http://www.w3.org/2000/svg" xmlns:xlink="http://www.w3.org/1999/xlink">
    <!-- Generator: Sketch 52.1 (67048) - http://www.bohemiancoding.com/sketch -->
    <title>psychologist</title>
    <desc>Created with Sketch.</desc>
    <g id="Page-1" stroke="none" stroke-width="1" fill="none" fill-rule="evenodd">
        <g id="Web-Sistem---Landing-Page-" transform="translate(-190.000000, -5313.000000)">
            <g id="psychologist" transform="translate(190.000000, 5313.000000)">
                <rect id="Rectangle" fill="#FFCA13" x="7" y="2" width="11" height="4"></rect>
                <path d="M22.4545455,0 L3.54545455,0 C1.59049091,0 0,1.61653711 0,3.60351563 L0,37.3964844 C0,39.3834629 1.59049091,41 3.54545455,41 L22.4545455,41 C24.4095091,41 26,39.3834629 26,37.3964844 L26,3.60351563 C26,1.61653711 24.4095091,0 22.4545455,0 Z M17.8923333,2.40234375 L16.9604303,4.17070898 C16.7449455,4.57950781 16.3749576,4.8046875 15.9186182,4.8046875 L10.0822485,4.8046875 C9.62598788,4.8046875 9.25607879,4.57958789 9.04059394,4.17086914 L8.10813939,2.40234375 L17.8923333,2.40234375 Z M23.6363636,37.3964844 C23.6363636,38.0588105 23.1062,38.5976563 22.4545455,38.5976563 L3.54545455,38.5976563 C2.8938,38.5976563 2.36363636,38.0588105 2.36363636,37.3964844 L2.36363636,3.60351563 C2.36363636,2.94118945 2.8938,2.40234375 3.54545455,2.40234375 L5.42651515,2.40234375 L6.95720606,5.30557617 C7.58498788,6.49617773 8.75317576,7.20703125 10.0822485,7.20703125 L15.9186182,7.20703125 C17.2480061,7.20703125 18.4163515,6.4959375 19.0439758,5.30493555 L20.5736424,2.40234375 L22.4545455,2.40234375 C23.1062,2.40234375 23.6363636,2.94118945 23.6363636,3.60351563 L23.6363636,37.3964844 Z" id="Shape" fill="#000000" fill-rule="nonzero"></path>
                <rect id="Rectangle" fill="#FFFFFF" x="21" y="22" width="7" height="16"></rect>
                <path d="M16,29 C17.939984,26.9038073 20.7733173,25.855711 24.5,25.855711 C28.2266827,25.855711 32.060016,26.9038073 36,29 L36,33 L16,33 L16,29 Z" id="Rectangle-Copy-25" fill="#FFCA13"></path>
                <path d="M19.8571265,12 L6.14287347,12 C5.51170255,12 5,12.6716 5,13.5 C5,14.3284 5.51170255,15 6.14287347,15 L19.8571265,15 C20.4882975,15 21,14.3284 21,13.5 C21,12.6716 20.4882975,12 19.8571265,12 Z" id="Path" fill="#000000" fill-rule="nonzero"></path>
                <path d="M13.7500625,16 L6.25002083,16 C5.55967599,16 5,16.6716 5,17.5 C5,18.3284 5.55967599,19 6.25002083,19 L13.7499792,19 C14.4404073,19 15,18.3284 15,17.5 C15,16.6716 14.4404073,16 13.7500625,16 Z" id="Path" fill="#000000" fill-rule="nonzero"></path>
                <g id="car-(1)" transform="translate(14.000000, 24.000000)" fill="#000000" fill-rule="nonzero">
                    <path d="M23.4349688,5.57645817 L18.5654531,3.48984456 L16.132875,0.361919085 C15.9554063,0.13370732 15.6809063,0 15.3899531,0 L5.4328125,0 C5.09559375,0 4.78434375,0.17921977 4.61770313,0.469413832 L3.7711875,1.94372029 C3.06060938,3.18086096 1.93232813,4.14900959 0.594328125,4.66992069 C0.235734375,4.80952004 0,5.15204646 0,5.53345099 L0,10.1394408 C0,10.6519082 0.41971875,11.0673195 0.9375,11.0673195 L3.583125,11.0673195 C3.970125,12.1472775 5.01220313,12.9230769 6.234375,12.9230769 C7.45654688,12.9230769 8.49857813,12.1472775 8.885625,11.0673195 L14.176875,11.0673195 C14.563875,12.1472775 15.6059531,12.9230769 16.828125,12.9230769 C18.0502969,12.9230769 19.0923281,12.1472775 19.479375,11.0673195 L23.0625,11.0673195 C23.5802813,11.0673195 24,10.6519082 24,10.1394408 L24,6.42792606 C24,6.05802721 23.778,5.72338776 23.4349688,5.57645817 Z M6.234375,11.0672731 C5.7174375,11.0672731 5.296875,10.6510268 5.296875,10.1393944 C5.296875,9.62776213 5.7174375,9.21151575 6.234375,9.21151575 C6.7513125,9.21151575 7.171875,9.62776213 7.171875,10.1393944 C7.171875,10.6510268 6.7513125,11.0672731 6.234375,11.0672731 Z M16.828125,11.0672731 C16.3111875,11.0672731 15.890625,10.6510268 15.890625,10.1393944 C15.890625,9.62776213 16.3111875,9.21151575 16.828125,9.21151575 C17.3450625,9.21151575 17.765625,9.62776213 17.765625,10.1393944 C17.765625,10.6510268 17.3450625,11.0672731 16.828125,11.0672731 Z M22.125,9.21151575 L19.4799844,9.21151575 C19.0947656,8.13271758 18.0479531,7.35575836 16.828125,7.35575836 C15.6114375,7.35575836 14.5627969,8.12895967 14.1762656,9.21151575 L8.88623438,9.21151575 C8.49421875,8.11675807 7.43990625,7.35575836 6.234375,7.35575836 C5.03845313,7.35575836 3.977625,8.1081288 3.58251563,9.21151575 L1.875,9.21151575 L1.875,6.13782478 C3.34945313,5.42428607 4.5868125,4.27877342 5.40135938,2.86069641 L5.97839063,1.855711 L14.9286094,1.855711 L17.2276406,4.81193252 C17.324625,4.93663942 17.452125,5.03494816 17.5980469,5.09744079 L22.125,7.037264 L22.125,9.21151575 Z" id="Shape"></path>
                </g>
            </g>
        </g>
    </g>
</svg>