<svg id="Layer_1" data-name="Layer 1" xmlns="http://www.w3.org/2000/svg" viewBox="0 0 99 99"><circle cx="49.5" cy="49.5" r="49.5" style="fill:#fff4cf"/><path d="M34,35H50V45H34Z" style="fill:#ffca13;fill-rule:evenodd"/><path d="M38,32.31l-1.37.5a6.45,6.45,0,0,0-4.09,4.84l-.47,2.45a4.13,4.13,0,0,0,.87,3.4A4.07,4.07,0,0,0,36.09,45H47.91a4.08,4.08,0,0,0,3.14-1.48,4.15,4.15,0,0,0,.89-3.37l-.44-2.43a6.46,6.46,0,0,0-4.11-4.93L46,32.26V30.12a1.1,1.1,0,0,0,0-.18,5.84,5.84,0,0,0,1.66-4.07v-3.2a5.62,5.62,0,1,0-11.24,0V26A5.69,5.69,0,0,0,38,30a.76.76,0,0,0,0,.15Zm11.18,5.83.43,2.43A1.73,1.73,0,0,1,49.23,42a1.69,1.69,0,0,1-1.32.63H36.09A1.69,1.69,0,0,1,34.76,42a1.76,1.76,0,0,1-.37-1.43l.47-2.45a4,4,0,0,1,2.58-3.05l.89-.33.07.07a5.4,5.4,0,0,0,7.14,0l.1-.1,1,.34A4.08,4.08,0,0,1,49.18,38.14ZM38.71,22.67a3.25,3.25,0,0,1,6.41-.82,3.82,3.82,0,0,1-.46.21,3.86,3.86,0,0,1-3,.27,1.18,1.18,0,0,0-1.65.29,1.21,1.21,0,0,0,.29,1.66,3.87,3.87,0,0,0,2.25.61,8,8,0,0,0,2.64-.5v1.48a3.41,3.41,0,0,1-1,2.44,3.24,3.24,0,0,1-1,.69l-.08,0a3.07,3.07,0,0,1-1.2.21A3.29,3.29,0,0,1,38.71,26Zm3.15,9H42a5.54,5.54,0,0,0,1.62-.25V33.3a3.08,3.08,0,0,1-3.23,0V31.39A5.35,5.35,0,0,0,41.86,31.64Z"/><path d="M23.18,65H59.82a1,1,0,1,0,0-2H23.18a1,1,0,1,0,0,2Z"/><path d="M23.18,71H59.82a1,1,0,1,0,0-2H23.18a1,1,0,1,0,0,2Z"/><path d="M23.18,77H59.82a1,1,0,1,0,0-2H23.18a1,1,0,1,0,0,2Z"/><path d="M23.18,84H59.82a1,1,0,1,0,0-2H23.18a1,1,0,1,0,0,2Z"/><path d="M22,51a1.1,1.1,0,0,0,1.18,1H59.82a1,1,0,1,0,0-2H23.18A1.1,1.1,0,0,0,22,51Z"/><path d="M23.18,58H59.82a1,1,0,1,0,0-2H23.18a1,1,0,1,0,0,2Z"/><path d="M19,65a1,1,0,1,0-1-1A1,1,0,0,0,19,65Z"/><path d="M19,52a1,1,0,1,0-1-1A1,1,0,0,0,19,52Z"/><path d="M19,58a1,1,0,1,0-1-1A1,1,0,0,0,19,58Z"/><path d="M19,71a1,1,0,1,0-1-1A1,1,0,0,0,19,71Z"/><path d="M19,77a1,1,0,1,0-1-1A1,1,0,0,0,19,77Z"/><path d="M19,84a1,1,0,1,0-1-1A1,1,0,0,0,19,84Z"/><path d="M86.12,28.46A7.72,7.72,0,0,1,85,26.77a8.27,8.27,0,0,1-.43-2.09,6.48,6.48,0,0,0-1.46-4A6.68,6.68,0,0,0,79,19.19a8.12,8.12,0,0,1-2.11-.42,8,8,0,0,1-1.69-1.13A8.83,8.83,0,0,0,72.41,16v-.36A5.62,5.62,0,0,0,66.78,10H17.63A5.62,5.62,0,0,0,12,15.59v4.53a1.18,1.18,0,0,0,2.36,0V15.59a3.27,3.27,0,0,1,3.27-3.25H66.78a3.27,3.27,0,0,1,3.27,3.25V16a8.83,8.83,0,0,0-2.82,1.69,7.8,7.8,0,0,1-1.7,1.13,8,8,0,0,1-2.1.42,6.68,6.68,0,0,0-4.06,1.46,6.48,6.48,0,0,0-1.46,4,8.73,8.73,0,0,1-.43,2.09,8.51,8.51,0,0,1-1.14,1.69,6.53,6.53,0,0,0-1.88,4,6.56,6.56,0,0,0,1.88,4,8.47,8.47,0,0,1,1.14,1.68,8.92,8.92,0,0,1,.43,2.1,6.5,6.5,0,0,0,1.46,4,6.61,6.61,0,0,0,4.06,1.45c.41.05.81.1,1.18.17V63.54A1.81,1.81,0,0,0,67.54,65L70.05,63v21.4a3.27,3.27,0,0,1-3.27,3.25H17.63a3.27,3.27,0,0,1-3.27-3.25V25.28a1.18,1.18,0,0,0-2.36,0V84.41A5.62,5.62,0,0,0,17.63,90H66.78a5.62,5.62,0,0,0,5.63-5.59V63L74.92,65a1.75,1.75,0,0,0,1.11.39,1.83,1.83,0,0,0,1.82-1.81V50.47a1.18,1.18,0,1,0-2.36,0v12L72.35,60a1.84,1.84,0,0,0-1.12-.39,1.79,1.79,0,0,0-1.12.39L67,62.43V47l.26.2a6.69,6.69,0,0,0,4,1.87,6.69,6.69,0,0,0,4-1.87,8.51,8.51,0,0,1,1.69-1.14A9,9,0,0,1,79,45.66a6.61,6.61,0,0,0,4.06-1.45,6.5,6.5,0,0,0,1.46-4,8.45,8.45,0,0,1,.43-2.1,7.68,7.68,0,0,1,1.14-1.68,6.56,6.56,0,0,0,1.88-4,6.53,6.53,0,0,0-1.88-4ZM84.27,35a9.23,9.23,0,0,0-1.47,2.24,10,10,0,0,0-.59,2.7,4.88,4.88,0,0,1-.79,2.66,4.85,4.85,0,0,1-2.68.78,10.58,10.58,0,0,0-2.72.59,10,10,0,0,0-2.26,1.46,4.85,4.85,0,0,1-2.53,1.36,4.91,4.91,0,0,1-2.54-1.36,10,10,0,0,0-2.25-1.46l-.3-.11a11.79,11.79,0,0,0-2.42-.48A4.85,4.85,0,0,1,61,42.55a4.72,4.72,0,0,1-.79-2.66,10.34,10.34,0,0,0-.59-2.7A9.53,9.53,0,0,0,58.19,35a4.81,4.81,0,0,1-1.37-2.52,4.78,4.78,0,0,1,1.37-2.52,10,10,0,0,0,1.47-2.24,10.52,10.52,0,0,0,.59-2.7A4.72,4.72,0,0,1,61,22.31a4.93,4.93,0,0,1,2.68-.79,10.56,10.56,0,0,0,2.72-.58,10,10,0,0,0,2.25-1.46,5,5,0,0,1,2.53-1.37h0a5,5,0,0,1,2.53,1.37A10,10,0,0,0,76,20.94a10.56,10.56,0,0,0,2.72.58,4.93,4.93,0,0,1,2.68.79A4.88,4.88,0,0,1,82.21,25a10.12,10.12,0,0,0,.59,2.7,9.63,9.63,0,0,0,1.47,2.24,4.85,4.85,0,0,1,1.37,2.52A4.88,4.88,0,0,1,84.27,35Z"/><path d="M68.16,28.07q3.56-3.75,6.07,0c2.52,3.76,4.92-1.29,4.92,1.66,0,1.24-2.22,1.89-2.79,4-.22.83,0,2.57.64,5.24H66c.53-2.83.7-4.58.53-5.24C65.8,31,64,31,64.28,29.73Q64.79,27.18,68.16,28.07Z" style="fill:#ffca13;fill-rule:evenodd"/><path d="M78.94,28.39l-4-1.17-2.27-3.54a1.43,1.43,0,0,0-2.44,0L68,27.22l-4,1.17a1.49,1.49,0,0,0-1,1,1.59,1.59,0,0,0,.24,1.42l2.54,3.35-.16,4.27a1.55,1.55,0,0,0,.6,1.29,1.44,1.44,0,0,0,.86.29,1.52,1.52,0,0,0,.51-.09l3.84-1.48,3.84,1.48a1.44,1.44,0,0,0,1.37-.2,1.55,1.55,0,0,0,.6-1.29l-.16-4.27,2.54-3.35a1.59,1.59,0,0,0,.24-1.42A1.47,1.47,0,0,0,78.94,28.39Zm-3.8,4.53a1.48,1.48,0,0,0-.31,1L75,37.18,72,36.05a1.49,1.49,0,0,0-1,0l-2.94,1.13.12-3.26a1.57,1.57,0,0,0-.31-1l-1.94-2.56,3-.89a1.52,1.52,0,0,0,.82-.62l1.74-2.72,1.74,2.72a1.52,1.52,0,0,0,.82.62l3,.89Z"/></svg>