<svg id="Layer_1" data-name="Layer 1" xmlns="http://www.w3.org/2000/svg" viewBox="0 0 45 39.92"><path d="M29.47,13.2,32.3,16,24.53,23.8,21.7,21Z" transform="translate(0 0)" style="fill:#ffca13;fill-rule:evenodd"/><path d="M18.47,1.2,21.3,4,13.53,11.8,10.7,9Z" transform="translate(0 0)" style="fill:#ffca13;fill-rule:evenodd"/><path d="M22.09,20.39a2.69,2.69,0,0,0,.64,2.82l1.09,1.09a2.72,2.72,0,0,0,3.83,0l6.56-6.56a2.72,2.72,0,0,0,0-3.83l-1.1-1.09a2.7,2.7,0,0,0-2.82-.63L22.81,4.71a2.7,2.7,0,0,0-.63-2.82L21.09.79a2.72,2.72,0,0,0-3.83,0L10.7,7.35a2.7,2.7,0,0,0,0,3.83l1.09,1.09a2.7,2.7,0,0,0,1.91.8,2.81,2.81,0,0,0,.91-.16l1.23,1.22L1.63,26.62A4.78,4.78,0,0,0,4.79,35h.15a4.79,4.79,0,0,0,3.44-1.63L20.87,19.16Zm8.84-5.93a.39.39,0,0,1,.54,0l1.1,1.09a.39.39,0,0,1,0,.55L26,22.66a.39.39,0,0,1-.55,0l-1.09-1.09a.39.39,0,0,1,0-.55ZM21.36,6.53l7.11,7.11-4.92,4.92-7.11-7.11ZM14,10.63a.39.39,0,0,1-.55,0L12.34,9.54a.39.39,0,0,1,0-.55L18.9,2.43a.39.39,0,0,1,.27-.11.43.43,0,0,1,.28.11l1.09,1.1a.38.38,0,0,1,0,.54ZM6.64,31.84a2.47,2.47,0,1,1-3.48-3.48l10.25-9,2.23,2.23Zm10.54-12-2-2,2.33-2,1.74,1.74Z" transform="translate(0 0)"/><path d="M26.39,28q5.38-2.25,11.44,1.47,3.39,3.41,6.72,3.21c0,2.14-.34,3.58-1,4.32H22Q21,30.25,26.39,28Z" transform="translate(0 0)" style="fill:#ffca13;fill-rule:evenodd"/><path d="M44.43,32.58l-4.86-2.09-2.44-3.13a.92.92,0,0,0-.74-.36h-10a.93.93,0,0,0-.81.47l-.85,1.47a6.3,6.3,0,0,1-3.18,2.73.93.93,0,0,0-.59.86v4.61a.94.94,0,0,0,.94.93h2.64a2.83,2.83,0,0,0,5.31,0h5.29a2.82,2.82,0,0,0,5.3,0h3.58a.94.94,0,0,0,.94-.93V33.43A.91.91,0,0,0,44.43,32.58Zm-17.2,5.49a.93.93,0,1,1,.94-.93A.93.93,0,0,1,27.23,38.07Zm10.6,0a.93.93,0,1,1,.94-.93A.94.94,0,0,1,37.83,38.07Zm5.29-1.86H40.48a2.82,2.82,0,0,0-5.3,0H29.89a2.83,2.83,0,0,0-5.31,0h-1.7V33.14a8.2,8.2,0,0,0,3.52-3.28l.58-1h9l2.3,2.95a.89.89,0,0,0,.37.29L43.13,34Z" transform="translate(0 0)"/></svg>