<svg id="Layer_1" data-name="Layer 1" xmlns="http://www.w3.org/2000/svg" viewBox="0 0 99 99"><circle cx="49.5" cy="49.5" r="49.5" style="fill:#fff4cf"/><path d="M39.88,61.46q7.57-12,10.15-12t10.53,11a35.46,35.46,0,0,1-4.8,1q0,2.72,9.15,29.48h-30q6.75-21.07,8.17-29.48Q41.74,61.42,39.88,61.46Z" style="fill:#ffca13;fill-rule:evenodd"/><path d="M50,9H62v8H50Z" style="fill:#ffca13;fill-rule:evenodd"/><path d="M36.09,48.06a1.27,1.27,0,0,0-1.72.51l-4,7.34L25.46,47a1.26,1.26,0,0,0-2.22,0L15.82,60.54h0l-2.28,4.18A1.26,1.26,0,0,0,14,66.45a1.3,1.3,0,0,0,.6.15,1.26,1.26,0,0,0,1.12-.66l1.48-2.71,1.47,1.47a1.27,1.27,0,0,0,1.8,0l.79-.79,2.15,2.15a1.3,1.3,0,0,0,.9.37,1.24,1.24,0,0,0,.27,0L16.3,81.62a1.26,1.26,0,0,0,.5,1.72,1.24,1.24,0,0,0,.61.16,1.29,1.29,0,0,0,1.12-.66L36.59,49.78a1.27,1.27,0,0,0-.5-1.72ZM26.5,61.22l-2.15,2.15L22.2,61.22a1.27,1.27,0,0,0-1.79,0l-.8.79-1.1-1.1,5.84-10.68,4.55,8.33-1.26,2.31A1.29,1.29,0,0,0,26.5,61.22Z"/><path d="M12.72,69.84a1.27,1.27,0,0,0-1.72.5l-3.85,7a1.28,1.28,0,0,0,.51,1.72,1.3,1.3,0,0,0,.6.15,1.26,1.26,0,0,0,1.11-.66l3.85-7A1.27,1.27,0,0,0,12.72,69.84Z"/><path d="M91.85,70.29,83.05,54.1h0l-2.51-4.63a1.24,1.24,0,1,0-2.18,1.19l2.06,3.8-1.08,1.08-.78-.78a1.23,1.23,0,0,0-1.75,0l-2.1,2.11-2.1-2.11a1.24,1.24,0,0,0-1.76,0l-.78.78L69,54.46l5.72-10.52.86,1.6a1.24,1.24,0,1,0,2.18-1.2l-2-3.6a1.24,1.24,0,0,0-2.18,0L67,53,51.29,24.06V19.81h13a1.25,1.25,0,0,0,1-1.95l-3-4.46,3-4.45a1.25,1.25,0,0,0-1-1.95H50.05a1.24,1.24,0,0,0-1.24,1.25V24.06L38,44a1.26,1.26,0,0,0,.5,1.69,1.23,1.23,0,0,0,1.68-.49l3-5.44,1.44,1.45a1.24,1.24,0,0,0,1.75,0l.78-.79,2.1,2.12a1.26,1.26,0,0,0,.88.36,1.24,1.24,0,0,0,.88-.36L53,40.44l.78.79a1.24,1.24,0,0,0,1.75,0L57,39.78,80.4,82.85a1.25,1.25,0,0,0,1.09.65,1.3,1.3,0,0,0,.6-.15,1.26,1.26,0,0,0,.49-1.7L70,58.55a1.25,1.25,0,0,0,.92-.36l.78-.78,2.1,2.11a1.24,1.24,0,0,0,1.75,0l2.11-2.11.77.78a1.24,1.24,0,0,0,1.76,0l1.44-1.45,8,14.74a1.22,1.22,0,0,0,1.09.65,1.15,1.15,0,0,0,.59-.15,1.24,1.24,0,0,0,.5-1.69ZM59.78,14.1l2.16,3.21H51.29V9.49H61.94L59.78,12.7A1.24,1.24,0,0,0,59.78,14.1Zm-5.1,24.48-.77-.78a1.24,1.24,0,0,0-1.76,0l-2.1,2.11L48,37.8a1.24,1.24,0,0,0-1.76,0l-.77.78L44.34,37.5,50.05,27,55.76,37.5Z"/><path d="M57.66,62.64h3.18A1.27,1.27,0,0,0,62,61.92a1.22,1.22,0,0,0-.17-1.32L51,47.82a1.3,1.3,0,0,0-1-.44,1.27,1.27,0,0,0-1,.44L38.25,60.6a1.23,1.23,0,0,0-.18,1.32,1.27,1.27,0,0,0,1.15.72H42.4L33.62,90.39a1.21,1.21,0,0,0,.19,1.1,1.28,1.28,0,0,0,1,.51h30.4a1.26,1.26,0,0,0,1-.51,1.21,1.21,0,0,0,.19-1.1ZM36.55,89.51l8.78-27.75a1.2,1.2,0,0,0-.19-1.1,1.28,1.28,0,0,0-1-.51h-2.2L50,50.57l8.11,9.58h-2.2a1.28,1.28,0,0,0-1,.51,1.2,1.2,0,0,0-.19,1.1l8.78,27.75Z"/></svg>