<svg id="Layer_1" data-name="Layer 1" xmlns="http://www.w3.org/2000/svg" viewBox="0 0 44 36"><ellipse cx="22" cy="7.58" rx="4.21" ry="5.68" style="fill:#ffca13"/><path d="M30.89,17.05H44V33.16H30.89Z" transform="translate(0 0)" style="fill:#ffca13;fill-rule:evenodd"/><path d="M1.87,17.05H15V33.16H1.87Z" transform="translate(0 0)" style="fill:#ffca13;fill-rule:evenodd"/><path d="M39.89,13.94A6.69,6.69,0,0,0,41.49,10l.12-1.9a6.76,6.76,0,0,0-1.78-5A6.68,6.68,0,0,0,35,1h-.24a6.64,6.64,0,0,0-4.83,2.1,6.45,6.45,0,0,0-1.15,1.7,7.1,7.1,0,0,0-1.55-2.63A7,7,0,0,0,22.13,0h-.26a7,7,0,0,0-5.09,2.21,7.1,7.1,0,0,0-1.55,2.63,6.45,6.45,0,0,0-1.15-1.7A6.64,6.64,0,0,0,9.25,1H9a6.68,6.68,0,0,0-4.84,2.1,6.76,6.76,0,0,0-1.78,5L2.51,10a6.69,6.69,0,0,0,1.6,3.92A7.36,7.36,0,0,0,0,20.54V31.08A3.88,3.88,0,0,0,3.87,35h9.71a3.88,3.88,0,0,0,2.64,1H27.78a3.88,3.88,0,0,0,2.64-1h9.71A3.88,3.88,0,0,0,44,31.08V20.54A7.36,7.36,0,0,0,39.89,13.94Zm-28,10.23h.47v7.95a2.09,2.09,0,0,0,0,.25H3.87a1.29,1.29,0,0,1-1.29-1.29V20.54A4.69,4.69,0,0,1,4.1,17.06l.7.79a5.74,5.74,0,0,0,7.72.86,7.62,7.62,0,0,0-.17,1.6v1.28h-.47a1.29,1.29,0,1,0,0,2.58Zm-5.39-8.3.3,0a6.58,6.58,0,0,0,4.68,0l.3,0-.24.27a3.19,3.19,0,0,1-4.8,0ZM13.29,8l-.12,1.9a4.05,4.05,0,0,1-8.09,0L5,8A4.06,4.06,0,0,1,9,3.63h.24a4.06,4.06,0,0,1,4,4.33Zm5.37-4a4.34,4.34,0,0,1,3.21-1.39h.26a4.42,4.42,0,0,1,4.4,4.7l-.13,2a4.41,4.41,0,0,1-8.8,0l-.13-2A4.36,4.36,0,0,1,18.66,4ZM25,15.61l-.41.47a3.48,3.48,0,0,1-5.24,0L19,15.61a3.88,3.88,0,0,1,.48,0,7,7,0,0,0,5.1,0A3.88,3.88,0,0,1,25,15.61Zm-9.56-4.07A6.92,6.92,0,0,0,16.7,13.6a7.37,7.37,0,0,0-1.55.94,8.4,8.4,0,0,0-1-.6A6.5,6.5,0,0,0,15.47,11.54Zm13.6,20.58a1.29,1.29,0,0,1-1.29,1.29H16.22a1.29,1.29,0,0,1-1.29-1.29V20.31a4.74,4.74,0,0,1,1.6-3.56l.91,1a6.06,6.06,0,0,0,9.12,0l.91-1a4.74,4.74,0,0,1,1.6,3.56Zm-.22-17.58a7.37,7.37,0,0,0-1.55-.94,6.92,6.92,0,0,0,1.23-2.06A6.62,6.62,0,0,0,29.86,14,7.21,7.21,0,0,0,28.85,14.54ZM30.71,8a4.06,4.06,0,0,1,4-4.33H35A4.06,4.06,0,0,1,39,8l-.12,1.9a4.05,4.05,0,0,1-8.09,0Zm6.8,7.91-.24.27a3.19,3.19,0,0,1-4.8,0l-.24-.27.3,0a6.58,6.58,0,0,0,4.68,0Zm3.91,15.21a1.29,1.29,0,0,1-1.29,1.29H31.64a2.09,2.09,0,0,0,0-.25V20.31a7.62,7.62,0,0,0-.17-1.6,5.75,5.75,0,0,0,3.39,1.11h0a5.75,5.75,0,0,0,4.33-2l.7-.79a4.69,4.69,0,0,1,1.52,3.48Z" transform="translate(0 0)"/><path d="M38,21.79H37a1.42,1.42,0,0,0,0,2.84h1a1.42,1.42,0,0,0,0-2.84Z" transform="translate(0 0)"/><path d="M25.8,21.79H24.75a1.42,1.42,0,0,0,0,2.84H25.8a1.42,1.42,0,0,0,0-2.84Z" transform="translate(0 0)"/></svg>