<svg id="Layer_1" data-name="Layer 1" xmlns="http://www.w3.org/2000/svg" viewBox="0 0 38 41"><path d="M7,2H18V6H7Z" transform="translate(0)" style="fill:#ffca13;fill-rule:evenodd"/><path d="M22.45,0H3.55A3.58,3.58,0,0,0,0,3.6V37.4A3.58,3.58,0,0,0,3.55,41h18.9A3.58,3.58,0,0,0,26,37.4V3.6A3.58,3.58,0,0,0,22.45,0ZM17.89,2.4,17,4.17a1.14,1.14,0,0,1-1,.63H10.08a1.14,1.14,0,0,1-1-.63L8.11,2.4Zm5.75,35a1.19,1.19,0,0,1-1.19,1.2H3.55a1.19,1.19,0,0,1-1.19-1.2V3.6A1.19,1.19,0,0,1,3.55,2.4H5.43L7,5.31a3.47,3.47,0,0,0,3.12,1.9h5.84A3.46,3.46,0,0,0,19,5.3l1.53-2.9h1.88a1.19,1.19,0,0,1,1.19,1.2Z" transform="translate(0)"/><path d="M21,22h7V38H21Z" transform="translate(0)" style="fill:#fff;fill-rule:evenodd"/><path d="M16,29c1.94-2.1,4.77-3.14,8.5-3.14A24.36,24.36,0,0,1,36,29v4H16Z" transform="translate(0)" style="fill:#ffca13;fill-rule:evenodd"/><path d="M19.86,12H6.14A1.36,1.36,0,0,0,5,13.5,1.36,1.36,0,0,0,6.14,15H19.86A1.36,1.36,0,0,0,21,13.5,1.36,1.36,0,0,0,19.86,12Z" transform="translate(0)"/><path d="M13.75,16H6.25A1.39,1.39,0,0,0,5,17.5,1.39,1.39,0,0,0,6.25,19h7.5A1.39,1.39,0,0,0,15,17.5,1.39,1.39,0,0,0,13.75,16Z" transform="translate(0)"/><path d="M37.43,29.58l-4.86-2.09-2.44-3.13a.92.92,0,0,0-.74-.36h-10a.93.93,0,0,0-.81.47l-.85,1.47a6.3,6.3,0,0,1-3.18,2.73.93.93,0,0,0-.59.86v4.61a.94.94,0,0,0,.94.93h2.64a2.83,2.83,0,0,0,5.31,0h5.29a2.82,2.82,0,0,0,5.3,0h3.58a.94.94,0,0,0,.94-.93V30.43A.91.91,0,0,0,37.43,29.58Zm-17.2,5.49a.93.93,0,1,1,.94-.93A.93.93,0,0,1,20.23,35.07Zm10.6,0a.93.93,0,1,1,.94-.93A.94.94,0,0,1,30.83,35.07Zm5.29-1.86H33.48a2.82,2.82,0,0,0-5.3,0H22.89a2.83,2.83,0,0,0-5.31,0h-1.7V30.14a8.2,8.2,0,0,0,3.52-3.28l.58-1h9l2.3,2.95a.89.89,0,0,0,.37.29L36.13,31Z" transform="translate(0)"/></svg>