<svg id="Layer_1" data-name="Layer 1" xmlns="http://www.w3.org/2000/svg" viewBox="0 0 53 37.5"><path d="M40,37.5a12,12,0,0,0,12-12c0-6.63-5.23-8.37-11.85-8.37S28,18.87,28,25.5A12,12,0,0,0,40,37.5Z" transform="translate(0 0)" style="fill:#ffca13;fill-rule:evenodd"/><path d="M52.85,20.14c-.27-1.29-1.68-2.34-4.22-3.1A29.3,29.3,0,0,0,40.87,16L40.58,4c-.39-1.18-1.79-2.14-4.16-2.85A31.3,31.3,0,0,0,27.69,0a30.38,30.38,0,0,0-8.64,1.11c-1.91.59-4.2,1.68-4.2,3.57a1.45,1.45,0,0,0,0,.35L15,9.83a12.61,12.61,0,1,0-2.38,25,12.66,12.66,0,0,0,8-2.82,31.83,31.83,0,0,0,6.79.73C27.9,35.66,34.24,37,40.15,37a30.53,30.53,0,0,0,8.65-1.12c1.93-.59,4.2-1.69,4.2-3.58Zm-33.21-17a28.73,28.73,0,0,1,8-1,29.68,29.68,0,0,1,8.12,1c2.3.69,2.8,1.41,2.8,1.56s-.5.86-2.8,1.56a29.94,29.94,0,0,1-8.11,1,29,29,0,0,1-7.77-.95c-2.27-.65-2.91-1.38-3-1.61l0,0C16.92,4.46,17.63,3.75,19.64,3.13ZM38.76,7.29V9.92a1,1,0,0,0-.17.59c0,.14-.5.87-2.79,1.56a29.14,29.14,0,0,1-8.11,1,30.51,30.51,0,0,1-7.18-.79l-.09,0a12,12,0,0,0-3.29-1.86l-.07-3a11.65,11.65,0,0,0,2.28.87,30.94,30.94,0,0,0,8.36,1,31.2,31.2,0,0,0,8.72-1.1A10.45,10.45,0,0,0,38.76,7.29ZM19.7,30a10.49,10.49,0,1,1-4-17.8,10.3,10.3,0,0,1,3.73,2.07,10.45,10.45,0,0,1,3.46,5.85,10.81,10.81,0,0,1,.21,2.12A10.38,10.38,0,0,1,19.7,30Zm2.68.24a12.86,12.86,0,0,0,2-3.47c.91.07,1.86.13,2.84.14a1.09,1.09,0,0,0,0,.36l0,3.4A32.43,32.43,0,0,1,22.38,30.22ZM25.19,21c.62,0,1.27.06,1.93.07a.9.9,0,0,0,.06.22l0,3.51c-.76,0-1.51,0-2.22-.1a12.74,12.74,0,0,0,.24-2.46C25.24,21.8,25.22,21.39,25.19,21Zm2.58-2h-.09c-1,0-2,0-2.9-.11a12.56,12.56,0,0,0-1.88-3.92,38.34,38.34,0,0,0,4.78.3,31.57,31.57,0,0,0,8.72-1.1,11.19,11.19,0,0,0,2.35-1V16a29.61,29.61,0,0,0-7.09,1A8.2,8.2,0,0,0,27.77,18.94Zm1.45,1.57c.18-.32,1-1,3-1.54a29.26,29.26,0,0,1,7.58-.89h.09a29.55,29.55,0,0,1,8.11,1c2.22.67,2.75,1.35,2.79,1.53h0c0,.16-.53.88-2.87,1.58a29.56,29.56,0,0,1-8,1,30,30,0,0,1-7.55-.88c-2-.53-2.84-1.16-3.1-1.51A1,1,0,0,0,29.22,20.51ZM50.89,32.29c0,.15-.46.88-2.71,1.57a28.52,28.52,0,0,1-8,1,28.91,28.91,0,0,1-8-1c-2-.62-2.69-1.31-2.69-1.55v-.66l0-2.38a13.13,13.13,0,0,0,2.63.95,32.28,32.28,0,0,0,7.89.89A31.22,31.22,0,0,0,48.6,30a9.78,9.78,0,0,0,2.29-1Zm-.14-5.84c0,.15-.48.87-2.75,1.56a28.89,28.89,0,0,1-8.09,1c-5.74,0-9.64-1.27-10.55-2.28l0-3.33c2.49,1.3,6.67,1.89,10.6,1.89a31.38,31.38,0,0,0,8.61-1.08,11.55,11.55,0,0,0,2.37-1V25.9C50.89,26.05,50.75,26.24,50.75,26.45Z" transform="translate(0 0)"/><circle cx="12.5" cy="22.5" r="6.5" style="fill:#ffca13"/><path d="M13,15a7,7,0,1,0,7,7A7,7,0,0,0,13,15Zm0,11.89A4.88,4.88,0,1,1,17.88,22,4.89,4.89,0,0,1,13,26.89Z" transform="translate(0 0)"/></svg>