<?xml version="1.0" encoding="UTF-8"?>
<svg width="44px" height="39px" viewBox="0 0 44 39" version="1.1" xmlns="http://www.w3.org/2000/svg" xmlns:xlink="http://www.w3.org/1999/xlink">
    <title>2213B81D-681E-4064-88ED-518E59656F79@1x</title>
    <g id="Page-1" stroke="none" stroke-width="1" fill="none" fill-rule="evenodd">
        <g id="Web-Sistem---Landing-Page" transform="translate(-273.000000, -8958.000000)" fill-rule="nonzero">
            <g id="stopwatch" transform="translate(273.000000, 8958.000000)">
                <rect id="Rectangle" fill="#000000" x="23.7460317" y="0" width="9.07936508" height="4.19047619" rx="2.0952381"></rect>
                <path d="M11.5238095,15.3650794 L4.53968254,15.3650794 C3.96109853,15.3650794 3.49206354,15.8341144 3.49206354,16.4126984 C3.49206354,16.9912824 3.96109853,17.4603175 4.53968254,17.4603175 L11.5238095,17.4603175 C12.1023935,17.4603175 12.5714286,16.9912824 12.5714286,16.4126984 C12.5714286,15.8341144 12.1023935,15.3650794 11.5238095,15.3650794 L11.5238095,15.3650794 Z" id="Path" fill="#000000"></path>
                <path d="M11.1746032,24.7936508 C11.1746032,24.2150668 10.7055682,23.7460317 10.1269841,23.7460317 L3.14285714,23.7460317 C2.56427312,23.7460317 2.0952381,24.2150668 2.0952381,24.7936508 C2.0952381,25.3722348 2.56427312,25.8412698 3.14285714,25.8412698 L10.1269841,25.8412698 C10.7055682,25.8412698 11.1746032,25.3722348 11.1746032,24.7936508 Z" id="Path" fill="#000000"></path>
                <path d="M10.8253968,27.9365079 L5.93650794,27.9365079 C5.35792391,27.9365079 4.88888889,28.405543 4.88888889,28.984127 C4.88888889,29.562711 5.35792391,30.031746 5.93650794,30.031746 L10.8253968,30.031746 C11.4039808,30.031746 11.8730159,29.562711 11.8730159,28.984127 C11.8730159,28.405543 11.4039808,27.9365079 10.8253968,27.9365079 Z" id="Path" fill="#000000"></path>
                <path d="M11.1746032,20.6031746 C11.1746032,20.0245906 10.7055682,19.5555556 10.1269841,19.5555556 L1.04761905,19.5555556 C0.469035024,19.5555556 -1.24063017e-15,20.0245906 -1.24063017e-15,20.6031746 C-1.24063017e-15,21.1817586 0.469035024,21.6507937 1.04761905,21.6507937 L10.1269841,21.6507937 C10.7055682,21.6507937 11.1746032,21.1817586 11.1746032,20.6031746 L11.1746032,20.6031746 Z" id="Path" fill="#000000"></path>
                <path d="M28.2857143,22.6984127 L28.2857143,10.8253968 C21.738881,10.8253968 16.4126984,16.1515794 16.4126984,22.6984127 C16.4126984,29.245246 21.738881,34.5714286 28.2857143,34.5714286 C34.8325476,34.5714286 40.1587302,29.245246 40.1587302,22.6984127 L28.2857143,22.6984127 Z" id="Path" fill="#FFCA13"></path>
                <path d="M39.7761746,11.9911349 L40.8994841,10.8677381 C41.1677343,10.6038218 41.2738268,10.2163072 41.1774174,9.85255565 C41.0810081,9.48880409 40.7969102,9.20470623 40.4331586,9.10829686 C40.0694071,9.01188748 39.6818925,9.11797995 39.4179762,9.38623016 L38.2488333,10.5552857 C35.9972929,8.70050235 33.2721446,7.51196358 30.3809524,7.12380952 L30.3809524,5.23809524 L26.1904762,5.23809524 L26.1904762,7.12380952 C23.2993383,7.51181213 20.5741952,8.7001672 18.3225952,10.5547619 L17.1534524,9.38570635 C16.8895361,9.11745615 16.5020215,9.01136367 16.1382699,9.10777305 C15.7745184,9.20418242 15.4904205,9.48828028 15.3940111,9.85203184 C15.2976018,10.2157834 15.4036942,10.603298 15.6719444,10.8672143 L16.795254,11.9906111 C14.0786317,14.8939961 12.5685196,18.7222748 12.5714244,22.6984127 C12.5714244,31.3632698 19.6208571,38.4126984 28.2857143,38.4126984 C36.9505714,38.4126984 44.0000038,31.3632698 44.0000038,22.6984127 C44.0027759,18.7224557 42.4926731,14.8943879 39.7761746,11.9911349 Z M28.2857143,35.6190476 C21.1498447,35.6190476 15.3650794,29.8342823 15.3650794,22.6984127 C15.3650794,15.5625431 21.1498447,9.77777778 28.2857143,9.77777778 C35.4215839,9.77777778 41.2063492,15.5625431 41.2063492,22.6984127 C41.2063492,26.1251781 39.8450719,29.4115922 37.4219829,31.8346813 C34.9988938,34.2577703 31.7124797,35.6190476 28.2857143,35.6190476 L28.2857143,35.6190476 Z" id="Shape" fill="#000000"></path>
            </g>
        </g>
    </g>
</svg>