<svg id="Layer_1" data-name="Layer 1" xmlns="http://www.w3.org/2000/svg" viewBox="0 0 60 60"><path d="M0,45H60v4H0Z" style="fill:#ffca13;fill-rule:evenodd"/><path d="M19.92,22,31,27.58V42L19,36.41Z" style="fill:#ffca13;fill-rule:evenodd"/><path d="M57.29,9.84H45a.88.88,0,1,0,0,1.76H57.29a1,1,0,0,1,1,1V46.4a.94.94,0,0,1-1,.94H2.71a.94.94,0,0,1-.95-.94V12.55a1,1,0,0,1,1-1H22v1.76H4.39a.87.87,0,0,0-.87.88V37.46a.88.88,0,1,0,1.75,0V15.12H22v4.71l-3.77,1.8a.88.88,0,0,0-.5.79V36.76a.89.89,0,0,0,.5.79L29.62,43a.88.88,0,0,0,.76,0l6.39-3A.88.88,0,0,0,36,38.34l-5.13,2.45V28.41l9.61-4.59V36.2l-1.31.63a.88.88,0,1,0,.76,1.58l1.81-.86a.89.89,0,0,0,.5-.79V22.42a.9.9,0,0,0-.5-.79L38,19.83V15.12H54.73V43.83H5.27V41.21a.88.88,0,1,0-1.75,0v3.5a.88.88,0,0,0,.87.88H55.61a.88.88,0,0,0,.87-.88V14.24a.87.87,0,0,0-.87-.88H38V11.6h3.27a.88.88,0,1,0,0-1.76H38V8.09h7.88a.88.88,0,0,0,.88-.88V5.12a2.64,2.64,0,1,0-1.75,0V6.33H37.1a.87.87,0,0,0-.87.88V9.84H30.88V5.12a2.64,2.64,0,1,0-1.76,0V9.84H23.77V7.21a.87.87,0,0,0-.87-.88H15V5.12a2.64,2.64,0,1,0-1.75,0V7.21a.88.88,0,0,0,.88.88H22V9.84H2.71A2.71,2.71,0,0,0,0,12.55V46.4a2.7,2.7,0,0,0,2.71,2.7H21.76a8.39,8.39,0,0,1-3.14,5.63H14.88a2.64,2.64,0,0,0,0,5.27H45.12a2.64,2.64,0,0,0,0-5.27H41.39a8.44,8.44,0,0,1-3.15-5.63h19A2.7,2.7,0,0,0,60,46.4V12.55A2.71,2.71,0,0,0,57.29,9.84ZM45.86,1.76a.88.88,0,1,1-.87.88A.87.87,0,0,1,45.86,1.76ZM30,1.76a.88.88,0,1,1-.88.88A.88.88,0,0,1,30,1.76Zm-15.86,0a.88.88,0,1,1-.88.88A.87.87,0,0,1,14.14,1.76Zm9.63,13.36h5.35v1.32L23.77,19Zm15.56,7.3L30,26.88l-9.33-4.46L30,18Zm-19.82,1.4,9.61,4.59V40.79L19.51,36.2ZM36.23,19l-5.35-2.55V15.12h5.35Zm0-7.39v1.76H30.88V11.6Zm-7.11,0v1.76H23.77V11.6ZM46,57.36a.88.88,0,0,1-.88.88H14.88a.88.88,0,1,1,0-1.76H45.12A.89.89,0,0,1,46,57.36Zm-7.14-2.63H21.14a9.94,9.94,0,0,0,2.39-5.63H36.47A9.94,9.94,0,0,0,38.86,54.73Z"/></svg>