<svg id="Layer_1" data-name="Layer 1" xmlns="http://www.w3.org/2000/svg" viewBox="0 0 63 53"><path d="M3,36H61v7H3Z" transform="translate(0 0)" style="fill:#ffca13;fill-rule:evenodd"/><path d="M18.58,21.94c2.19-.3,3.28-.79,3.28-1.45A7.43,7.43,0,0,1,28.74,13q5.4-.15,17.26,8.17V28H18Z" transform="translate(0 0)" style="fill:#ffca13;fill-rule:evenodd"/><path d="M59.63,3.16H51.3A.94.94,0,0,0,51.3,5h8.33a1.54,1.54,0,0,1,1.52,1.55V35.34H1.85V6.58A1.54,1.54,0,0,1,3.37,5h10.2V5.8a1.8,1.8,0,0,0,1.79,1.82h.83v8.46h-3.6v-.84a1.81,1.81,0,0,0-1.79-1.82H7.29A1.81,1.81,0,0,0,5.5,15.24V18.8a1.81,1.81,0,0,0,1.79,1.82H10.8a1.81,1.81,0,0,0,1.79-1.82V18h7.89a7.64,7.64,0,0,0-.14,1.44c0,.19,0,.39,0,.58a5.56,5.56,0,0,0-4.16,5.38v.19a4.92,4.92,0,0,0,4.95,4.76H41.86a4.92,4.92,0,0,0,4.89-4.17h5.47V27A1.8,1.8,0,0,0,54,28.8h3.5A1.8,1.8,0,0,0,59.3,27V23.43a1.8,1.8,0,0,0-1.79-1.82H54a1.8,1.8,0,0,0-1.79,1.82v.84H46.7a5.51,5.51,0,0,0-4.51-4.38,5.54,5.54,0,0,0-3.79-4.63V12.42h5.68v.84a1.81,1.81,0,0,0,1.79,1.82h3.51a1.81,1.81,0,0,0,1.78-1.82V9.7a1.81,1.81,0,0,0-1.78-1.82H45.87A1.81,1.81,0,0,0,44.08,9.7v.84H38.4V7.19h.83A1.8,1.8,0,0,0,41,5.38V5h6.59a.94.94,0,0,0,0-1.87H41V1.82A1.8,1.8,0,0,0,39.23,0H35.72a1.8,1.8,0,0,0-1.78,1.82V3.16H20.65V2.24A1.8,1.8,0,0,0,18.86.43h-3.5a1.8,1.8,0,0,0-1.79,1.81v.92H3.37A3.4,3.4,0,0,0,0,6.58V40.5a3.4,3.4,0,0,0,3.37,3.42H8a.94.94,0,0,0,0-1.87H3.37A1.54,1.54,0,0,1,1.85,40.5V37.21h59.3V40.5a1.54,1.54,0,0,1-1.52,1.55h-48a.94.94,0,0,0,0,1.87H23.81l-1,7.21H21.53a.94.94,0,0,0,0,1.87H41.47a.94.94,0,0,0,0-1.87H40.16l-1-7.21H59.63A3.4,3.4,0,0,0,63,40.5V6.58A3.4,3.4,0,0,0,59.63,3.16ZM10.74,18.74H7.35V15.3h3.39v3.44Zm43.32,4.74h3.4v3.45h-3.4ZM45.93,9.76h3.39V13.2H45.93ZM40.39,20.55a.86.86,0,0,1,0,.16,1,1,0,0,0,.26.69.92.92,0,0,0,.67.29h0A3.67,3.67,0,0,1,45,25.36v.13a3.12,3.12,0,0,1-3.11,3H21.14a3.12,3.12,0,0,1-3.11-3v-.13a3.67,3.67,0,0,1,3.41-3.66.92.92,0,0,0,.67-.36,1,1,0,0,0,.18-.75,6.73,6.73,0,0,1-.11-1.18,6.09,6.09,0,0,1,1.87-4.35,6,6,0,0,1,4.18-1.69h.3a6,6,0,0,1,5.19,3.52.92.92,0,0,0,1.27.43,3.65,3.65,0,0,1,5.4,3.23ZM35.78,1.87h3.39V5.32H35.78ZM20.65,5.8V5H33.94v.35a1.8,1.8,0,0,0,1.78,1.81h.83V15a5.79,5.79,0,0,0-1.59.29A7.84,7.84,0,0,0,22.79,13.7a8,8,0,0,0-1.71,2.38H18V7.62h.83A1.8,1.8,0,0,0,20.65,5.8ZM15.41,2.3h3.4V5.74h-3.4ZM38.3,51.13H24.7l1-7.21H37.32Z" transform="translate(0 0)"/></svg>