<?xml version="1.0" encoding="UTF-8"?>
<svg width="35px" height="41px" viewBox="0 0 35 41" version="1.1" xmlns="http://www.w3.org/2000/svg" xmlns:xlink="http://www.w3.org/1999/xlink">
    <title>346EC50F-1717-418D-893B-F7DD2AC6B72A@2.00x</title>
    <g id="homepage" stroke="none" stroke-width="1" fill="none" fill-rule="evenodd">
        <g id="Nav-Side" transform="translate(-750.000000, -643.000000)">
            <g id="Group-3" transform="translate(750.000000, 645.000000)">
                <g id="cost" transform="translate(0.000000, -0.000000)">
                    <rect id="Rectangle" fill="#F0BC5E" fill-rule="nonzero" x="25.1637097" y="12.7216532" width="7.26951613" height="6.71032258"></rect>
                    <rect id="Rectangle" fill="#FFFFFF" fill-rule="nonzero" x="25.1637097" y="18.8727823" width="7.26951613" height="1.1183871"></rect>
                    <path d="M7.70458611,11.007725 L33.543225,11.007725 L33.543225,37.876975 L3.10119343,37.876975 C2.38717023,37.8353994 1.94462989,37.7168409 1.77357242,37.5212993 C-0.00536655624,35.4877347 0.982125234,33.6492426 3.91435484,33.1501119 C4.69683597,33.0169163 7.42584813,33.1501119 7.42584813,32.2934274 C7.42584813,30.1321328 7.51876079,23.0368987 7.70458611,11.007725 Z" id="Rectangle" fill="#000000"></path>
                    <rect id="Rectangle" fill="#FFFFFF" fill-rule="nonzero" x="31.3148387" y="16.6360081" width="1.1183871" height="1.1183871"></rect>
                    <rect id="Rectangle" fill="#FFFFFF" fill-rule="nonzero" x="25.1637097" y="16.6360081" width="5.03274194" height="1.1183871"></rect>
                    <rect id="Rectangle" fill="#FFFFFF" fill-rule="nonzero" x="25.1637097" y="14.3992339" width="7.26951613" height="1.1183871"></rect>
                    <rect id="Rectangle" fill="#FFFFFF" fill-rule="nonzero" x="25.1637097" y="12.1624597" width="7.26951613" height="1.1183871"></rect>
                    <path d="M22.9269355,9.92568548 L22.9269355,11.0440726 L33.5516129,11.0440726 L33.5516129,37.8853629 L3.35516129,37.8853629 C2.12158032,37.8853629 1.1183871,36.8821697 1.1183871,35.6485887 C1.1183871,34.4150077 2.12158032,33.4118145 3.35516129,33.4118145 L7.82870968,33.4118145 L7.82870968,11.0440726 L9.50629032,11.0440726 L9.50629032,9.92568548 L7.82870968,9.92568548 L7.82870968,4.33375 L3.35516129,4.33375 C1.50478984,4.33375 0,5.83853984 0,7.68891129 L0,35.6485887 C0,37.4989602 1.50478984,39.00375 3.35516129,39.00375 L34.67,39.00375 L34.67,9.92568548 L22.9269355,9.92568548 Z M1.1183871,7.68891129 C1.1183871,6.45533032 2.12158032,5.4521371 3.35516129,5.4521371 L6.71032258,5.4521371 L6.71032258,32.2934274 L3.35516129,32.2934274 C2.49679919,32.2934274 1.71225065,32.6177597 1.1183871,33.1501119 L1.1183871,7.68891129 Z" id="Shape" fill="#000000" fill-rule="nonzero"></path>
                    <path d="M16.2166129,18.8727823 C12.2083135,18.8727823 8.94709677,15.6115655 8.94709677,11.6032661 C8.94709677,7.59496677 12.2083135,4.33375 16.2166129,4.33375 C20.2249123,4.33375 23.486129,7.59496677 23.486129,11.6032661 C23.486129,15.6115655 20.2249123,18.8727823 16.2166129,18.8727823 Z" id="Path" fill="#000000" fill-rule="nonzero"></path>
                    <text id="+" font-family="Helvetica" font-size="18.5" font-weight="normal" fill="#FFFFFF">
                        <tspan x="10.6330195" y="16.53425">+</tspan>
                    </text>
                    <rect id="Rectangle" fill="#FFFFFF" fill-rule="nonzero" x="10.0654839" y="32.2934274" width="5.59193548" height="1.1183871"></rect>
                    <rect id="Rectangle" fill="#FFFFFF" fill-rule="nonzero" x="13.4206452" y="30.0566532" width="2.23677419" height="1.1183871"></rect>
                    <rect id="Rectangle" fill="#FFFFFF" fill-rule="nonzero" x="10.0654839" y="30.0566532" width="2.23677419" height="1.1183871"></rect>
                    <rect id="Rectangle" fill="#FFFFFF" fill-rule="nonzero" x="10.0654839" y="27.819879" width="5.59193548" height="1.1183871"></rect>
                    <rect id="Rectangle" fill="#FFFFFF" fill-rule="nonzero" x="10.0654839" y="21.1095565" width="5.59193548" height="1.1183871"></rect>
                    <rect id="Rectangle" fill="#FFFFFF" fill-rule="nonzero" x="10.0654839" y="25.5831048" width="5.59193548" height="1.1183871"></rect>
                    <g id="Group-33" transform="translate(17.335000, 21.668750)" fill="#FFFFFF" fill-rule="nonzero">
                        <path d="M10.7533968,1.61362288 L10.7191112,1.57021548 C9.92016345,0.572159849 8.72929089,3.68074321e-14 7.45160353,3.68074321e-14 C5.1444059,3.68074321e-14 3.2675077,1.8768982 3.2675077,4.18409583 L3.2675077,7.23456653 L3.58205407,7.23456653 C3.58205407,6.5397336 4.14540662,5.97638105 4.84023956,5.97638105 L4.84023956,5.66183468 C4.84023956,5.31426094 5.12175856,5.03274194 5.4693323,5.03274194 L6.72751778,5.03274194 C7.33176136,5.03274194 7.91115578,4.79274305 8.33830975,4.36558908 L8.61479601,4.08910282 L8.89128227,4.36558908 C9.20048135,4.67478817 9.58894612,4.88584878 10.0091801,4.97895451 C10.29699,5.04249287 10.5020742,5.29601725 10.5020742,5.5907472 L10.5020742,5.97638105 C11.1969072,5.97638105 11.7602597,6.5397336 11.7602597,7.23456653 L12.0748061,7.23456653 L12.0748061,3.43358819 C12.0748061,2.60192758 11.5366172,1.86840544 10.7533968,1.61362288 Z" id="Path"></path>
                        <path d="M12.8794157,11.3708513 L9.55843512,10.7480495 L9.55843512,10.0654839 L9.55654784,10.0654839 C9.64776629,9.99659822 9.73709746,9.923938 9.82171043,9.84467232 C10.1372004,9.54899873 10.3853775,9.19261769 10.554918,8.8019511 C11.3972732,8.77332738 12.0748061,8.08352719 12.0748061,7.23456653 C12.0748061,6.47525159 11.5334718,5.83986792 10.8166206,5.69360386 L10.8166206,5.5907472 C10.8166206,5.14629318 10.5124543,4.76820844 10.0768075,4.67132816 C9.71130466,4.59048974 9.37820005,4.4077383 9.11366655,4.14289025 L8.61479601,3.64433425 L8.11592546,4.1432048 C7.74507529,4.51405497 7.25186658,4.71819556 6.72751778,4.71819556 L5.4693323,4.71819556 C4.9490726,4.71819556 4.52569319,5.14157498 4.52569319,5.66183468 L4.52569319,5.69360386 C3.80884201,5.83986792 3.2675077,6.47493705 3.2675077,7.23456653 C3.2675077,8.09327812 3.96013881,8.79157107 4.81601949,8.80478202 C5.03966196,9.30553984 5.38063022,9.74055747 5.8071551,10.0654839 L5.78387867,10.0654839 L5.78387867,10.7480495 L2.46289808,11.3708513 C1.45320423,11.5602082 0.623745454,12.2830358 0.299133599,13.257815 L7.79451503e-15,14.1545867 L15.3419992,14.1545867 L15.0428656,13.257815 C14.7182538,12.2833503 13.8891096,11.5602082 12.8794157,11.3708513 Z M11.4457133,7.23456653 C11.4457133,7.66549506 11.1534998,8.0259652 10.758115,8.1385728 C10.7952315,7.94512678 10.8166206,7.74822076 10.8166206,7.5491129 L10.8166206,6.34880395 C11.1818089,6.47902615 11.4457133,6.82502716 11.4457133,7.23456653 Z M5.4693323,5.34728831 L6.72751778,5.34728831 C7.42014889,5.34728831 8.07094533,5.07772207 8.56069403,4.58797337 L8.61479601,4.53387139 L8.66889798,4.58797337 C9.018359,4.93743439 9.45840938,5.179006 9.94092351,5.28595176 C10.0862439,5.31803549 10.1875279,5.4435395 10.1875279,5.5907472 L10.1875279,5.66183468 L5.15478593,5.66183468 C5.15478593,5.48820508 5.2957027,5.34728831 5.4693323,5.34728831 Z M3.89660044,7.23456653 C3.89660044,6.82502716 4.16050485,6.47902615 4.52569319,6.34880395 L4.52569319,7.45191807 C4.52569319,7.68908604 4.55305872,7.91996307 4.60024068,8.143291 C4.19636314,8.03634523 3.89660044,7.67147144 3.89660044,7.23456653 Z M5.15478593,7.45191807 L5.15478593,6.29092742 L10.1875279,6.29092742 L10.1875279,7.5491129 C10.1875279,8.25212404 9.90506522,8.90449322 9.39172554,9.38574916 C8.87870041,9.86606147 8.20808755,10.1051167 7.50318913,10.0601366 C6.18618348,9.97489452 5.15478593,8.82900209 5.15478593,7.45191807 Z M7.46261265,10.6879711 C7.53338558,10.6923748 7.60415852,10.6945766 7.67430236,10.6945766 C8.11372364,10.6945766 8.53773215,10.6024145 8.92934238,10.4309868 L8.92934238,10.9487301 C8.86108582,11.0987687 8.55377401,11.6382157 7.6711569,11.6382157 C6.79514525,11.6382157 6.48468798,11.1028578 6.41297141,10.9474719 L6.41297141,10.4228085 C6.73789781,10.5693872 7.09050429,10.6637511 7.46261265,10.6879711 Z M0.873180726,13.525494 L0.895828065,13.4569228 C1.14872335,12.6988661 1.79354341,12.1364572 2.57928024,11.9889349 L5.9238518,11.3617295 C6.12862149,11.7033268 6.62434657,12.2673085 7.6711569,12.2673085 C8.71796722,12.2673085 9.2136923,11.7033268 9.41846199,11.362044 L12.7630335,11.9892495 C13.5484558,12.1367717 14.1935904,12.6991806 14.4464857,13.4572374 L14.4691331,13.525494 L0.873180726,13.525494 Z" id="Shape"></path>
                    </g>
                    <rect id="Rectangle" fill="#FFFFFF" fill-rule="nonzero" x="10.0654839" y="23.3463306" width="1.1183871" height="1.1183871"></rect>
                    <rect id="Rectangle" fill="#FFFFFF" fill-rule="nonzero" x="12.3022581" y="23.3463306" width="1.1183871" height="1.1183871"></rect>
                    <rect id="Rectangle" fill="#FFFFFF" fill-rule="nonzero" x="14.5390323" y="23.3463306" width="1.1183871" height="1.1183871"></rect>
                </g>
            </g>
        </g>
    </g>
</svg>