<?xml version="1.0" encoding="UTF-8"?>
<svg width="43px" height="40px" viewBox="0 0 43 40" version="1.1" xmlns="http://www.w3.org/2000/svg" xmlns:xlink="http://www.w3.org/1999/xlink">
    <title>1ECAC0AB-5DF4-471E-88BE-18100D17CB01@2.00x</title>
    <g id="homepage" stroke="none" stroke-width="1" fill="none" fill-rule="evenodd">
        <g id="Nav-Side" transform="translate(-46.000000, -119.000000)" fill-rule="nonzero">
            <g id="Group-34" transform="translate(47.000000, 120.000000)">
                <g id="browser">
                    <path d="M36.238764,15.1880881 L36.238764,34.308348 C36.238764,35.6174245 35.1777563,36.6784322 33.8686798,36.6784322 L7.00772472,36.6784322 C5.69864817,36.6784322 4.63764045,35.6174245 4.63764045,34.308348 L4.63764045,15.1880881 L4.63764045,15.1877721 L14.1179775,5.70743504 L17.198139,2.62727353 C18.9875527,0.837859902 21.8888518,0.837859902 23.6782654,2.62727353 L26.758427,5.70735604 L36.238764,15.1876931 L36.238764,15.1880881 Z" id="Path" fill="#000000"></path>
                    <path d="M18.068118,22.7739379 L22.8082865,22.7739379 C24.2918013,22.7739379 25.494382,23.9765186 25.494382,25.4600334 L25.494382,36.6784322 L15.3820225,36.6784322 L15.3820225,25.4600334 C15.3820225,23.9765186 16.5846822,22.7739379 18.068118,22.7739379 Z" id="Path" fill="#FFFFFF"></path>
                    <path d="M40.2927142,17.4539677 L24.5720242,1.73335674 C22.2926352,-0.546032303 18.5836903,-0.546032303 16.3043803,1.73335674 L0.583769312,17.4539677 C0.0900807584,17.9476562 0.0900807584,18.7479547 0.583769312,19.2415643 C1.07737886,19.7352528 1.87775632,19.7352528 2.37136587,19.2415643 L3.37359551,18.2393346 L3.37359551,34.308269 C3.37359551,36.3121752 5.00389747,37.9423982 7.00772472,37.9423982 L15.3820225,37.9423982 L25.494382,37.9423982 L33.8686798,37.9423982 C35.872507,37.9423982 37.502809,36.3121752 37.502809,34.308269 L37.502809,18.2393346 L38.5051176,19.2415643 C38.7519224,19.488448 39.0754389,19.6118504 39.3988764,19.6118504 C39.7223139,19.6118504 40.0458304,19.488448 40.2926352,19.2415643 C40.7864027,18.7480337 40.7864027,17.9476562 40.2927142,17.4539677 Z M16.6460674,35.4143873 L16.6460674,25.4600334 C16.6460674,24.6759305 17.2840151,24.0379828 18.068118,24.0379828 L22.8082865,24.0379828 C23.5923894,24.0379828 24.2303371,24.6759305 24.2303371,25.4600334 L24.2303371,35.4143873 L16.6460674,35.4143873 Z M34.9747191,34.308348 C34.9747191,34.9182496 34.4785815,35.4143873 33.8686798,35.4143873 L26.758427,35.4143873 L26.758427,25.4600334 C26.758427,23.2819259 24.986394,21.5098929 22.8082865,21.5098929 L18.068118,21.5098929 C15.8900105,21.5098929 14.1179775,23.2819259 14.1179775,25.4600334 L14.1179775,35.4143873 L7.00772472,35.4143873 C6.39782303,35.4143873 5.90168539,34.9182496 5.90168539,34.308348 L5.90168539,15.7112447 L18.0919768,3.5210323 C19.3858058,2.2272823 21.4907567,2.2272823 22.7844277,3.5210323 L34.9747191,15.7112447 L34.9747191,34.308348 Z" id="Shape" stroke="#FFFFFF" fill="#000000"></path>
                </g>
            </g>
        </g>
    </g>
</svg>