<?xml version="1.0" encoding="UTF-8"?>
<svg width="41px" height="38px" viewBox="0 0 41 38" version="1.1" xmlns="http://www.w3.org/2000/svg" xmlns:xlink="http://www.w3.org/1999/xlink">
    <!-- Generator: Sketch 62 (91390) - https://sketch.com -->
    <title>Shape</title>
    <desc>Created with Sketch.</desc>
    <g id="Page-1" stroke="none" stroke-width="1" fill="none" fill-rule="evenodd">
        <g id="Desktop" transform="translate(-187.000000, -121.000000)" fill-rule="nonzero" stroke="#000000" stroke-width="1.5">
            <g id="Group-35" transform="translate(187.000000, 122.000000)">
                <g id="browser" transform="translate(1.000000, 0.000000)">
                    <path d="M38.3272159,16.6025546 L23.3733889,1.64880275 C21.2051896,-0.519396581 17.6771688,-0.519396581 15.5090446,1.64880275 L0.55529276,16.6025546 C0.0856865751,17.0721608 0.0856865751,17.8334203 0.55529276,18.3029514 C1.0248238,18.7725576 1.78615845,18.7725576 2.25568949,18.3029514 L3.20902987,17.349611 L3.20902987,32.6346949 C3.20902987,34.5408496 4.75980491,36.0915495 6.66588449,36.0915495 L14.6316799,36.0915495 L24.2507536,36.0915495 L32.2165491,36.0915495 C34.1226286,36.0915495 35.6734037,34.5408496 35.6734037,32.6346949 L35.6734037,17.349611 L36.6268192,18.3029514 C36.8615847,18.537792 37.1693199,18.6551748 37.47698,18.6551748 C37.7846401,18.6551748 38.0923753,18.537792 38.3271408,18.3029514 C38.7968221,17.8334955 38.7968221,17.0721608 38.3272159,16.6025546 Z M15.8340641,33.6868562 L15.8340641,24.2180805 C15.8340641,23.4722266 16.4408924,22.8653983 17.1867464,22.8653983 L21.6956872,22.8653983 C22.4415411,22.8653983 23.0483694,23.4722266 23.0483694,24.2180805 L23.0483694,33.6868562 L15.8340641,33.6868562 Z M33.2686352,32.63477 C33.2686352,33.2149204 32.7966994,33.6868562 32.2165491,33.6868562 L25.4531378,33.6868562 L25.4531378,24.2180805 C25.4531378,22.1462222 23.7675455,20.4606298 21.6956872,20.4606298 L17.1867464,20.4606298 C15.1148881,20.4606298 13.4292957,22.1462222 13.4292957,24.2180805 L13.4292957,33.6868562 L6.66588449,33.6868562 C6.08573411,33.6868562 5.6137983,33.2149204 5.6137983,32.63477 L5.6137983,14.9448426 L17.2094414,3.34927463 C18.4401568,2.11863439 20.4424271,2.11863439 21.6729922,3.34927463 L33.2686352,14.9448426 L33.2686352,32.63477 Z" id="Shape"></path>
                </g>
            </g>
        </g>
    </g>
</svg>