<?xml version="1.0" encoding="UTF-8"?>
<svg width="39px" height="39px" viewBox="0 0 39 39" version="1.1" xmlns="http://www.w3.org/2000/svg" xmlns:xlink="http://www.w3.org/1999/xlink">
    <title>53C1D1F9-E6DA-43D4-856F-1A93181E684E@2.00x</title>
    <g id="homepage" stroke="none" stroke-width="1" fill="none" fill-rule="evenodd">
        <g id="Nav-Side" transform="translate(-47.000000, -436.000000)" fill-rule="nonzero">
            <g id="Group-40" transform="translate(46.000000, 436.000000)">
                <g id="maintenance" transform="translate(1.500000, 0.000000)">
                    <path d="M34.9354839,19.4419032 L34.9354839,12.4290645 L32.3729355,11.5746774 C32.1927419,11.0512581 31.9727097,10.5241613 31.7146774,10.0031935 L32.927,7.57977419 L27.9686129,2.6213871 L25.5451935,3.83370968 C25.0236129,3.57567742 24.497129,3.35564516 23.9737097,3.17545161 L23.1193226,0.612903226 L16.1064839,0.612903226 L15.2520968,3.17545161 C14.7286774,3.35564516 14.2015806,3.57567742 13.6806129,3.83370968 L11.2571935,2.6213871 L6.29880645,7.57977419 L7.51112903,10.0031935 C7.25309677,10.5247742 7.03306452,11.0512581 6.85287097,11.5746774 L4.29032258,12.4290645 L4.29032258,19.4412903 L6.85287097,20.2956774 C7.03183871,20.8154194 7.24941935,21.337 7.50377419,21.8542903 L6.37909677,23.9032258 L6.74193548,23.9032258 L6.74193548,25.1290323 L13.483871,25.1290323 L14.0875806,24.5253226 L13.7008387,24.516129 C10.9777097,22.6363548 9.19354839,19.4946129 9.19354839,15.9354839 C9.19354839,10.1809355 13.8583548,5.51612903 19.6129032,5.51612903 C25.3674516,5.51612903 30.0322581,10.1809355 30.0322581,15.9354839 C30.0322581,19.6643871 28.0734194,22.9354516 25.1290323,24.7766129 L24.7710968,24.7686452 C24.5492258,24.991129 24.2421613,25.1290323 23.9032258,25.1290323 L26.3554516,25.1290323 C27.0327097,25.1290323 27.5812581,25.6775806 27.5812581,26.3548387 C27.5812581,27.0320968 27.0327097,27.5806452 26.3554516,27.5806452 C27.0327097,27.5806452 27.5812581,28.1291935 27.5812581,28.8064516 C27.5812581,28.9609032 27.5493871,29.1067742 27.4972903,29.2428387 L28.0151935,29.2379355 L32.9257742,24.2887419 L31.7146774,21.8677742 C31.9720968,21.3461935 32.192129,20.8197097 32.3723226,20.2962903 L34.9354839,19.4419032 Z" id="Path" stroke="#000000"></path>
                    <g id="Group" fill="#000000">
                        <path d="M36.1612903,34.9354839 C35.1475484,34.9354839 34.3225806,35.7604516 34.3225806,36.7741935 C34.3225806,37.7879355 35.1475484,38.6129032 36.1612903,38.6129032 C37.1750323,38.6129032 38,37.7879355 38,36.7741935 C38,35.7604516 37.1750323,34.9354839 36.1612903,34.9354839 Z M36.1612903,37.3870968 C35.8235806,37.3870968 35.5483871,37.1125161 35.5483871,36.7741935 C35.5483871,36.435871 35.8235806,36.1612903 36.1612903,36.1612903 C36.499,36.1612903 36.7741935,36.435871 36.7741935,36.7741935 C36.7741935,37.1125161 36.499,37.3870968 36.1612903,37.3870968 Z" id="Shape"></path>
                        <path d="M3.67741935,1.83870968 C3.67741935,0.824967742 2.85245161,0 1.83870968,0 C0.824967742,0 0,0.824967742 0,1.83870968 C0,2.85245161 0.824967742,3.67741935 1.83870968,3.67741935 C2.85245161,3.67741935 3.67741935,2.85245161 3.67741935,1.83870968 Z M1.22580645,1.83870968 C1.22580645,1.501 1.501,1.22580645 1.83870968,1.22580645 C2.17641935,1.22580645 2.4516129,1.501 2.4516129,1.83870968 C2.4516129,2.17641935 2.17641935,2.4516129 1.83870968,2.4516129 C1.501,2.4516129 1.22580645,2.17641935 1.22580645,1.83870968 Z" id="Shape"></path>
                        <path d="M30.6451613,15.9354839 C30.6451613,9.85241935 25.6959677,4.90322581 19.6129032,4.90322581 C13.5298387,4.90322581 8.58064516,9.85241935 8.58064516,15.9354839 C8.58064516,19.2813226 10.101871,22.4285806 12.6840323,24.516129 L7.35483871,24.516129 L7.35483871,23.2903226 L3.06451613,23.2903226 L3.06451613,35.5483871 L7.35483871,35.5483871 L7.35483871,33.7096774 L12.0043226,33.7096774 L13.8430323,35.5483871 L17.1612903,35.5483871 L17.1612903,36.1612903 C17.1612903,37.5133548 18.2608387,38.6129032 19.6129032,38.6129032 C20.9649677,38.6129032 22.0645161,37.5133548 22.0645161,36.1612903 L22.0645161,35.5483871 L26.3554516,35.5483871 C27.3691935,35.5483871 28.1941613,34.7234194 28.1941613,33.7096774 C28.1941613,33.237129 28.0096774,32.8099355 27.7160968,32.483871 C28.0102903,32.1578065 28.1941613,31.7306129 28.1941613,31.2580645 C28.1941613,30.7855161 28.0096774,30.3583226 27.7160968,30.0322581 C28.0102903,29.7061935 28.1941613,29.279 28.1941613,28.8064516 C28.1941613,28.3339032 28.0096774,27.9067097 27.7160968,27.5806452 C28.0102903,27.2545806 28.1941613,26.8273871 28.1941613,26.3548387 C28.1941613,25.3987097 27.4580645,24.6203226 26.5246129,24.5332903 C29.1245484,22.4494194 30.6451613,19.3223871 30.6451613,15.9354839 Z M6.12903226,34.3225806 L4.29032258,34.3225806 L4.29032258,24.516129 L6.12903226,24.516129 L6.12903226,34.3225806 Z M14.3505161,34.3225806 L12.5118065,32.483871 L7.35483871,32.483871 L7.35483871,25.7419355 L13.7376129,25.7419355 L16.1892258,23.2903226 L23.9032258,23.2903226 C24.2409355,23.2903226 24.516129,23.5649032 24.516129,23.9032258 C24.516129,24.2415484 24.2409355,24.516129 23.9032258,24.516129 L21.4516129,24.516129 L17.5204516,24.516129 L14.8892581,27.1473226 L15.7559032,28.0139677 L17.1612903,26.6085806 L17.1612903,34.3225806 L14.3505161,34.3225806 Z M23.6494839,22.0645161 L22.0645161,22.0645161 L22.0645161,19.2537419 L24.516129,16.802129 L24.516129,13.483871 C24.516129,12.1318065 23.4165806,11.0322581 22.0645161,11.0322581 L20.8387097,11.0322581 L20.8387097,14.4559355 L20.5849677,14.7096774 L18.6408387,14.7096774 L18.3870968,14.4559355 L18.3870968,11.0322581 L17.1612903,11.0322581 C15.8092258,11.0322581 14.7096774,12.1318065 14.7096774,13.483871 L14.7096774,16.802129 L17.1612903,19.2537419 L17.1612903,22.0645161 L15.6817419,22.0645161 L15.643129,22.103129 C13.5506774,20.7529032 12.2580645,18.4379677 12.2580645,15.9354839 C12.2580645,11.8799032 15.5573226,8.58064516 19.6129032,8.58064516 C23.6684839,8.58064516 26.9677419,11.8799032 26.9677419,15.9354839 C26.9677419,18.4195806 25.7266129,20.6946774 23.6494839,22.0645161 Z M18.1333548,15.9354839 L21.0924516,15.9354839 L22.0645161,14.9634194 L22.0645161,12.2580645 C22.7405484,12.2580645 23.2903226,12.8078387 23.2903226,13.483871 L23.2903226,16.2946452 L21.197871,18.3870968 L18.0279355,18.3870968 L15.9354839,16.2946452 L15.9354839,13.483871 C15.9354839,12.8078387 16.4852581,12.2580645 17.1612903,12.2580645 L17.1612903,14.9634194 L18.1333548,15.9354839 Z M18.3870968,19.6129032 L20.8387097,19.6129032 L20.8387097,22.0645161 L18.3870968,22.0645161 L18.3870968,19.6129032 Z M26.9683548,28.8064516 C26.9683548,29.1447742 26.6931613,29.4193548 26.3554516,29.4193548 L21.4516129,29.4193548 C21.1139032,29.4193548 20.8387097,29.1447742 20.8387097,28.8064516 C20.8387097,28.468129 21.1139032,28.1935484 21.4516129,28.1935484 L26.3554516,28.1935484 C26.6931613,28.1935484 26.9683548,28.468129 26.9683548,28.8064516 Z M26.9683548,31.2580645 C26.9683548,31.5963871 26.6931613,31.8709677 26.3554516,31.8709677 L21.4516129,31.8709677 C21.1139032,31.8709677 20.8387097,31.5963871 20.8387097,31.2580645 C20.8387097,30.9197419 21.1139032,30.6451613 21.4516129,30.6451613 L26.3554516,30.6451613 C26.6931613,30.6451613 26.9683548,30.9197419 26.9683548,31.2580645 Z M19.6129032,37.3870968 C18.936871,37.3870968 18.3870968,36.8373226 18.3870968,36.1612903 L18.3870968,25.7419355 L19.7256774,25.7419355 C19.6570323,25.9343871 19.6129032,26.1390968 19.6129032,26.3548387 C19.6129032,26.8273871 19.7973871,27.2545806 20.0909677,27.5806452 C19.7967742,27.9067097 19.6129032,28.3339032 19.6129032,28.8064516 C19.6129032,29.279 19.7973871,29.7061935 20.0909677,30.0322581 C19.7967742,30.3583226 19.6129032,30.7855161 19.6129032,31.2580645 C19.6129032,31.7306129 19.7973871,32.1578065 20.0909677,32.483871 C19.7967742,32.8099355 19.6129032,33.237129 19.6129032,33.7096774 C19.6129032,34.5076774 20.127129,35.181871 20.8387097,35.4356129 L20.8387097,36.1612903 C20.8387097,36.8373226 20.2889355,37.3870968 19.6129032,37.3870968 Z M26.3554516,34.3225806 L21.4516129,34.3225806 C21.1139032,34.3225806 20.8387097,34.048 20.8387097,33.7096774 C20.8387097,33.3713548 21.1139032,33.0967742 21.4516129,33.0967742 L26.3554516,33.0967742 C26.6931613,33.0967742 26.9683548,33.3713548 26.9683548,33.7096774 C26.9683548,34.048 26.6931613,34.3225806 26.3554516,34.3225806 Z M26.9683548,26.3548387 C26.9683548,26.6931613 26.6931613,26.9677419 26.3554516,26.9677419 L21.4516129,26.9677419 C21.1139032,26.9677419 20.8387097,26.6931613 20.8387097,26.3548387 C20.8387097,26.0165161 21.1139032,25.7419355 21.4516129,25.7419355 L23.9032258,25.7419355 L26.3554516,25.7419355 C26.6931613,25.7419355 26.9683548,26.0165161 26.9683548,26.3548387 Z M25.7125161,23.6120968 C25.6426452,23.1775484 25.4207742,22.7975484 25.1020645,22.521129 C27.0553871,20.8993871 28.1935484,18.5115161 28.1935484,15.9354839 C28.1935484,11.203871 24.3445161,7.35483871 19.6129032,7.35483871 C14.8812903,7.35483871 11.0322581,11.203871 11.0322581,15.9354839 C11.0322581,18.7664839 12.4407097,21.4025806 14.7507419,22.9955161 L13.8681613,23.8780968 C11.3227742,22.0344839 9.80645161,19.0839677 9.80645161,15.9354839 C9.80645161,10.5284516 14.205871,6.12903226 19.6129032,6.12903226 C25.0199355,6.12903226 29.4193548,10.5284516 29.4193548,15.9354839 C29.4193548,18.9644516 28.050129,21.7592903 25.7125161,23.6120968 Z" id="Shape"></path>
                        <rect id="Rectangle" x="1.22580645" y="5.51612903" width="1.22580645" height="1.22580645"></rect>
                        <rect id="Rectangle" x="1.22580645" y="8.58064516" width="1.22580645" height="1.22580645"></rect>
                        <rect id="Rectangle" x="1.22580645" y="11.6451613" width="1.22580645" height="1.22580645"></rect>
                        <rect id="Rectangle" x="35.5483871" y="25.7419355" width="1.22580645" height="1.22580645"></rect>
                        <rect id="Rectangle" x="35.5483871" y="28.8064516" width="1.22580645" height="1.22580645"></rect>
                        <rect id="Rectangle" x="35.5483871" y="31.8709677" width="1.22580645" height="1.22580645"></rect>
                    </g>
                </g>
            </g>
        </g>
    </g>
</svg>