<?xml version="1.0" encoding="UTF-8"?>
<svg width="41px" height="41px" viewBox="0 0 41 41" version="1.1" xmlns="http://www.w3.org/2000/svg" xmlns:xlink="http://www.w3.org/1999/xlink">
    <!-- Generator: Sketch 62 (91390) - https://sketch.com -->
    <title>maintenance</title>
    <desc>Created with Sketch.</desc>
    <g id="Page-1" stroke="none" stroke-width="1" fill="none" fill-rule="evenodd">
        <g id="Desktop" transform="translate(-1915.000000, -454.000000)" fill="#000000" fill-rule="nonzero">
            <g id="Group-41" transform="translate(1915.000000, 454.000000)">
                <g id="maintenance" transform="translate(0.500000, 0.000000)">
                    <path d="M36.7741935,20.4651613 L36.7741935,13.0832258 L34.0767742,12.183871 C33.8870968,11.6329032 33.6554839,11.0780645 33.383871,10.5296774 L34.66,7.97870968 L29.4406452,2.75935484 L26.8896774,4.03548387 C26.3406452,3.76387097 25.7864516,3.53225806 25.2354839,3.34258065 L24.336129,0.64516129 L16.9541935,0.64516129 L16.0548387,3.34258065 C15.503871,3.53225806 14.9490323,3.76387097 14.4006452,4.03548387 L11.8496774,2.75935484 L6.63032258,7.97870968 L7.90645161,10.5296774 C7.63483871,11.0787097 7.40322581,11.6329032 7.21354839,12.183871 L4.51612903,13.0832258 L4.51612903,20.4645161 L7.21354839,21.363871 C7.40193548,21.9109677 7.63096774,22.46 7.89870968,23.0045161 L6.71483871,25.1612903 L7.09677419,25.1612903 L7.09677419,26.4516129 L14.1935484,26.4516129 L14.8290323,25.816129 L14.4219355,25.8064516 C11.5554839,23.8277419 9.67741935,20.5206452 9.67741935,16.7741935 C9.67741935,10.7167742 14.5877419,5.80645161 20.6451613,5.80645161 C26.7025806,5.80645161 31.6129032,10.7167742 31.6129032,16.7741935 C31.6129032,20.6993548 29.5509677,24.1425806 26.4516129,26.0806452 L26.0748387,26.0722581 C25.8412903,26.3064516 25.5180645,26.4516129 25.1612903,26.4516129 L27.7425806,26.4516129 C28.4554839,26.4516129 29.0329032,27.0290323 29.0329032,27.7419355 C29.0329032,28.4548387 28.4554839,29.0322581 27.7425806,29.0322581 C28.4554839,29.0322581 29.0329032,29.6096774 29.0329032,30.3225806 C29.0329032,30.4851613 28.9993548,30.6387097 28.9445161,30.7819355 L29.4896774,30.7767742 L34.6587097,25.5670968 L33.383871,23.0187097 C33.6548387,22.4696774 33.8864516,21.9154839 34.076129,21.3645161 L36.7741935,20.4651613 Z" id="Path"></path>
                    <g id="Group">
                        <path d="M38.0645161,36.7741935 C36.9974194,36.7741935 36.1290323,37.6425806 36.1290323,38.7096774 C36.1290323,39.7767742 36.9974194,40.6451613 38.0645161,40.6451613 C39.1316129,40.6451613 40,39.7767742 40,38.7096774 C40,37.6425806 39.1316129,36.7741935 38.0645161,36.7741935 Z M38.0645161,39.3548387 C37.7090323,39.3548387 37.4193548,39.0658065 37.4193548,38.7096774 C37.4193548,38.3535484 37.7090323,38.0645161 38.0645161,38.0645161 C38.42,38.0645161 38.7096774,38.3535484 38.7096774,38.7096774 C38.7096774,39.0658065 38.42,39.3548387 38.0645161,39.3548387 Z" id="Shape"></path>
                        <path d="M3.87096774,1.93548387 C3.87096774,0.868387097 3.00258065,0 1.93548387,0 C0.868387097,0 0,0.868387097 0,1.93548387 C0,3.00258065 0.868387097,3.87096774 1.93548387,3.87096774 C3.00258065,3.87096774 3.87096774,3.00258065 3.87096774,1.93548387 Z M1.29032258,1.93548387 C1.29032258,1.58 1.58,1.29032258 1.93548387,1.29032258 C2.29096774,1.29032258 2.58064516,1.58 2.58064516,1.93548387 C2.58064516,2.29096774 2.29096774,2.58064516 1.93548387,2.58064516 C1.58,2.58064516 1.29032258,2.29096774 1.29032258,1.93548387 Z" id="Shape"></path>
                        <path d="M32.2580645,16.7741935 C32.2580645,10.3709677 27.0483871,5.16129032 20.6451613,5.16129032 C14.2419355,5.16129032 9.03225806,10.3709677 9.03225806,16.7741935 C9.03225806,20.296129 10.6335484,23.6090323 13.3516129,25.8064516 L7.74193548,25.8064516 L7.74193548,24.516129 L3.22580645,24.516129 L3.22580645,37.4193548 L7.74193548,37.4193548 L7.74193548,35.483871 L12.636129,35.483871 L14.5716129,37.4193548 L18.0645161,37.4193548 L18.0645161,38.0645161 C18.0645161,39.4877419 19.2219355,40.6451613 20.6451613,40.6451613 C22.0683871,40.6451613 23.2258065,39.4877419 23.2258065,38.0645161 L23.2258065,37.4193548 L27.7425806,37.4193548 C28.8096774,37.4193548 29.6780645,36.5509677 29.6780645,35.483871 C29.6780645,34.9864516 29.483871,34.5367742 29.1748387,34.1935484 C29.4845161,33.8503226 29.6780645,33.4006452 29.6780645,32.9032258 C29.6780645,32.4058065 29.483871,31.956129 29.1748387,31.6129032 C29.4845161,31.2696774 29.6780645,30.82 29.6780645,30.3225806 C29.6780645,29.8251613 29.483871,29.3754839 29.1748387,29.0322581 C29.4845161,28.6890323 29.6780645,28.2393548 29.6780645,27.7419355 C29.6780645,26.7354839 28.9032258,25.916129 27.9206452,25.8245161 C30.6574194,23.6309677 32.2580645,20.3393548 32.2580645,16.7741935 Z M6.4516129,36.1290323 L4.51612903,36.1290323 L4.51612903,25.8064516 L6.4516129,25.8064516 L6.4516129,36.1290323 Z M15.1058065,36.1290323 L13.1703226,34.1935484 L7.74193548,34.1935484 L7.74193548,27.0967742 L14.4606452,27.0967742 L17.0412903,24.516129 L25.1612903,24.516129 C25.5167742,24.516129 25.8064516,24.8051613 25.8064516,25.1612903 C25.8064516,25.5174194 25.5167742,25.8064516 25.1612903,25.8064516 L22.5806452,25.8064516 L18.4425806,25.8064516 L15.6729032,28.576129 L16.5851613,29.4883871 L18.0645161,28.0090323 L18.0645161,36.1290323 L15.1058065,36.1290323 Z M24.8941935,23.2258065 L23.2258065,23.2258065 L23.2258065,20.2670968 L25.8064516,17.6864516 L25.8064516,14.1935484 C25.8064516,12.7703226 24.6490323,11.6129032 23.2258065,11.6129032 L21.9354839,11.6129032 L21.9354839,15.2167742 L21.6683871,15.483871 L19.6219355,15.483871 L19.3548387,15.2167742 L19.3548387,11.6129032 L18.0645161,11.6129032 C16.6412903,11.6129032 15.483871,12.7703226 15.483871,14.1935484 L15.483871,17.6864516 L18.0645161,20.2670968 L18.0645161,23.2258065 L16.5070968,23.2258065 L16.4664516,23.2664516 C14.263871,21.8451613 12.9032258,19.4083871 12.9032258,16.7741935 C12.9032258,12.5051613 16.376129,9.03225806 20.6451613,9.03225806 C24.9141935,9.03225806 28.3870968,12.5051613 28.3870968,16.7741935 C28.3870968,19.3890323 27.0806452,21.783871 24.8941935,23.2258065 Z M19.0877419,16.7741935 L22.2025806,16.7741935 L23.2258065,15.7509677 L23.2258065,12.9032258 C23.9374194,12.9032258 24.516129,13.4819355 24.516129,14.1935484 L24.516129,17.1522581 L22.3135484,19.3548387 L18.9767742,19.3548387 L16.7741935,17.1522581 L16.7741935,14.1935484 C16.7741935,13.4819355 17.3529032,12.9032258 18.0645161,12.9032258 L18.0645161,15.7509677 L19.0877419,16.7741935 Z M19.3548387,20.6451613 L21.9354839,20.6451613 L21.9354839,23.2258065 L19.3548387,23.2258065 L19.3548387,20.6451613 Z M28.3877419,30.3225806 C28.3877419,30.6787097 28.0980645,30.9677419 27.7425806,30.9677419 L22.5806452,30.9677419 C22.2251613,30.9677419 21.9354839,30.6787097 21.9354839,30.3225806 C21.9354839,29.9664516 22.2251613,29.6774194 22.5806452,29.6774194 L27.7425806,29.6774194 C28.0980645,29.6774194 28.3877419,29.9664516 28.3877419,30.3225806 Z M28.3877419,32.9032258 C28.3877419,33.2593548 28.0980645,33.5483871 27.7425806,33.5483871 L22.5806452,33.5483871 C22.2251613,33.5483871 21.9354839,33.2593548 21.9354839,32.9032258 C21.9354839,32.5470968 22.2251613,32.2580645 22.5806452,32.2580645 L27.7425806,32.2580645 C28.0980645,32.2580645 28.3877419,32.5470968 28.3877419,32.9032258 Z M20.6451613,39.3548387 C19.9335484,39.3548387 19.3548387,38.776129 19.3548387,38.0645161 L19.3548387,27.0967742 L20.763871,27.0967742 C20.6916129,27.2993548 20.6451613,27.5148387 20.6451613,27.7419355 C20.6451613,28.2393548 20.8393548,28.6890323 21.1483871,29.0322581 C20.8387097,29.3754839 20.6451613,29.8251613 20.6451613,30.3225806 C20.6451613,30.82 20.8393548,31.2696774 21.1483871,31.6129032 C20.8387097,31.956129 20.6451613,32.4058065 20.6451613,32.9032258 C20.6451613,33.4006452 20.8393548,33.8503226 21.1483871,34.1935484 C20.8387097,34.5367742 20.6451613,34.9864516 20.6451613,35.483871 C20.6451613,36.323871 21.1864516,37.0335484 21.9354839,37.3006452 L21.9354839,38.0645161 C21.9354839,38.776129 21.3567742,39.3548387 20.6451613,39.3548387 Z M27.7425806,36.1290323 L22.5806452,36.1290323 C22.2251613,36.1290323 21.9354839,35.84 21.9354839,35.483871 C21.9354839,35.1277419 22.2251613,34.8387097 22.5806452,34.8387097 L27.7425806,34.8387097 C28.0980645,34.8387097 28.3877419,35.1277419 28.3877419,35.483871 C28.3877419,35.84 28.0980645,36.1290323 27.7425806,36.1290323 Z M28.3877419,27.7419355 C28.3877419,28.0980645 28.0980645,28.3870968 27.7425806,28.3870968 L22.5806452,28.3870968 C22.2251613,28.3870968 21.9354839,28.0980645 21.9354839,27.7419355 C21.9354839,27.3858065 22.2251613,27.0967742 22.5806452,27.0967742 L25.1612903,27.0967742 L27.7425806,27.0967742 C28.0980645,27.0967742 28.3877419,27.3858065 28.3877419,27.7419355 Z M27.0658065,24.8548387 C26.9922581,24.3974194 26.7587097,23.9974194 26.4232258,23.7064516 C28.4793548,21.9993548 29.6774194,19.4858065 29.6774194,16.7741935 C29.6774194,11.7935484 25.6258065,7.74193548 20.6451613,7.74193548 C15.6645161,7.74193548 11.6129032,11.7935484 11.6129032,16.7741935 C11.6129032,19.7541935 13.0954839,22.5290323 15.5270968,24.2058065 L14.5980645,25.1348387 C11.9187097,23.1941935 10.3225806,20.0883871 10.3225806,16.7741935 C10.3225806,11.0825806 14.9535484,6.4516129 20.6451613,6.4516129 C26.3367742,6.4516129 30.9677419,11.0825806 30.9677419,16.7741935 C30.9677419,19.9625806 29.5264516,22.9045161 27.0658065,24.8548387 Z" id="Shape"></path>
                        <rect id="Rectangle" x="1.29032258" y="5.80645161" width="1.29032258" height="1.29032258"></rect>
                        <rect id="Rectangle" x="1.29032258" y="9.03225806" width="1.29032258" height="1.29032258"></rect>
                        <rect id="Rectangle" x="1.29032258" y="12.2580645" width="1.29032258" height="1.29032258"></rect>
                        <rect id="Rectangle" x="37.4193548" y="27.0967742" width="1.29032258" height="1.29032258"></rect>
                        <rect id="Rectangle" x="37.4193548" y="30.3225806" width="1.29032258" height="1.29032258"></rect>
                        <rect id="Rectangle" x="37.4193548" y="33.5483871" width="1.29032258" height="1.29032258"></rect>
                    </g>
                </g>
            </g>
        </g>
    </g>
</svg>