<svg id="Layer_1" data-name="Layer 1" xmlns="http://www.w3.org/2000/svg" viewBox="0 0 158.75 34.59"><path d="M25.08,12.29c0-1.61-3.73-4.39-7.71-4.39-4.89,0-8.75,4.53-8.75,10,0,5.94,4.23,10.31,8.75,10.31,3.77,0,8.41-2.68,8.41-5.65H15.68v-7H34.9c0,14.91-9.47,19.57-17.38,19.57A17,17,0,0,1,.77,17.72C.77,5.64,10.17.78,17.52.78c8.71,0,16,7.55,16,11.51Z" transform="translate(-0.77 -0.78)" style="fill:#094"/><path d="M54.8,21.83c0-3.68-2.37-6.51-6.27-6.51-3.51,0-5.63,3.18-5.63,6.85,0,3.87,2.94,6.51,5.7,6.51,3.32,0,6.2-1.87,6.2-6.85M62.31,9.46V34.33H54.89V32.71C54.05,35,48.69,35,47.76,35c-1.7,0-12.16-2-12.16-12.72,0-11,10.51-13.15,11.87-13.15,2.69,0,6.22.47,7.36,2V9.46Z" transform="translate(-0.77 -0.78)" style="fill:#094"/><path d="M64.43,1.62V34.47h7.91V24.72l6,9.68h9.33L79.55,22,88.24,9.53h-9l-6.93,9.82V1.62Z" transform="translate(-0.77 -0.78)" style="fill:#094"/><path d="M127.64,19c0-1.45-2.66-3.71-5.14-3.71s-4.91,1.78-4.91,3.7Zm8.08,5.6-18.43,0c0,1.94,2.9,4.4,5.36,4.4s4.48-1.5,4.48-2.79h8.19a13.63,13.63,0,0,1-12.46,9.13c-7.39,0-13.47-6.12-13.47-12.76,0-6.81,4.22-14,13.11-14,8,0,13.39,6.41,13.39,14.17a9.52,9.52,0,0,1-.17,1.83" transform="translate(-0.77 -0.78)" style="fill:#094"/><path d="M137,9.39V34.54h7.91V19.28a3.2,3.2,0,0,1,3.39-3.11c1.93,0,3.74,1.3,3.74,3V34.54h7.5V18.08a10.63,10.63,0,0,0-4.1-7.56c-3.7-2.14-9.75-1.86-10.74.14l-.07-1.27Z" transform="translate(-0.77 -0.78)" style="fill:#094"/><path d="M88.91,1.44V34.3h7.91V24.54l6,9.68h9.33L104,21.79l8.69-12.43h-9l-6.93,9.81V1.44Z" transform="translate(-0.77 -0.78)" style="fill:#094"/></svg>