<?xml version="1.0" encoding="UTF-8"?>
<svg width="161px" height="36px" viewBox="0 0 161 36" version="1.1" xmlns="http://www.w3.org/2000/svg" xmlns:xlink="http://www.w3.org/1999/xlink">
    <title>E2F33D09-F4FB-4230-94F3-58A45B761986@1.50x</title>
    <g id="Portfolio" stroke="none" stroke-width="1" fill="none" fill-rule="evenodd">
        <g id="Portfolio_Desktop-1280x850-Logo-Color" transform="translate(-1012.000000, -961.000000)" fill="#009944" fill-rule="nonzero">
            <g id="Gakken_company_logo" transform="translate(1012.000000, 961.000000)">
                <path d="M25.0769928,12.287712 C25.0769928,10.684872 21.3529944,7.901472 17.3746416,7.901472 C12.4796928,7.901472 8.6165208,12.426912 8.6165208,17.86896 C8.6165208,23.814864 12.8540112,28.177128 17.3746416,28.177128 C21.1418352,28.177128 25.7824416,25.499304 25.7824416,22.533552 L15.6806064,22.533552 L15.6806064,15.531864 L34.8956928,15.531864 C34.8956928,30.442248 25.4273184,35.102064 17.5186128,35.102064 C10.6368864,35.102064 0.7750008,29.69364 0.7750008,17.720184 C0.7750008,5.641152 10.1713872,0.775008 17.5186128,0.775008 C26.2335456,0.775008 33.4847952,8.3334 33.4847952,12.287712 L25.0769928,12.287712 Z" id="path2180"></path>
                <path d="M54.8018304,21.828072 C54.8018304,18.147288 52.4263344,15.315912 48.5343696,15.315912 C45.0215232,15.315912 42.9003768,18.502392 42.9003768,22.173624 C42.9003768,26.041584 45.8421456,28.676232 48.6015552,28.676232 C51.9224448,28.676232 54.8018304,26.80944 54.8018304,21.828072 M62.3122152,9.45636 L62.3122152,34.329408 L54.8882112,34.329408 L54.8882112,32.707368 C54.0483912,34.967664 48.6927384,34.967664 47.7569352,34.967664 C46.0581024,34.967664 35.6011416,32.96172 35.6011416,22.2456 C35.6011416,11.2272 46.1060904,9.101232 47.4737952,9.101232 C50.1564216,9.101232 53.6884656,9.57156 54.8258232,11.083224 L54.8258232,9.45636 L62.3122152,9.45636 Z" id="path2182"></path>
                <polygon id="path2184" points="64.4285688 1.619664 64.4285688 34.468608 72.3420744 34.468608 72.3420744 24.721872 78.3503808 34.401384 87.6795864 34.401384 79.5501264 21.967272 88.2410616 9.533112 79.2717864 9.533112 72.3420744 19.351848 72.3420744 1.619664"></polygon>
                <path d="M127.635828,19.039872 C127.635828,17.585808 124.981992,15.330288 122.500925,15.330288 C120.019865,15.330288 117.591581,17.110704 117.591581,19.03032 L127.635828,19.039872 Z M135.722095,24.64032 L117.294041,24.61632 C117.294041,26.559864 120.192617,29.021712 122.649694,29.021712 C124.972402,29.021712 127.131934,27.519672 127.131934,26.233512 L135.318982,26.233512 C133.759315,30.931728 128.816369,35.361168 122.856053,35.361168 C115.465639,35.361168 109.394928,29.242488 109.394928,22.595904 C109.394928,15.786168 113.608433,8.635704 122.500925,8.635704 C130.467216,8.635704 135.894857,15.051912 135.894857,22.807032 C135.894857,23.41176 135.842057,24.030792 135.722081,24.640272" id="path2186"></path>
                <path d="M136.989022,9.389184 L136.989022,34.540584 L144.902525,34.540584 L144.902525,19.279848 C144.902525,17.18268 146.735724,16.17012 148.290612,16.17012 C150.22458,16.17012 152.033796,17.465832 152.033796,19.212648 L152.033796,34.540584 L159.525012,34.540584 L159.525012,18.084888 C159.525012,14.792808 156.765588,11.294352 155.426676,10.521744 C151.731468,8.3814 145.684759,8.659728 144.686566,10.660944 L144.61939,9.389208 L136.989022,9.389184 Z" id="path2188"></path>
                <polygon id="path2190" points="88.9129248 1.437264 88.9129248 34.300632 96.8216256 34.300632 96.8216256 24.54432 102.825139 34.223832 112.159138 34.223832 104.034478 21.78972 112.720625 9.35556 103.74654 9.35556 96.8216256 19.174272 96.8216256 1.437264"></polygon>
            </g>
        </g>
    </g>
</svg>