<svg id="Layer_1" data-name="Layer 1" xmlns="http://www.w3.org/2000/svg" xmlns:xlink="http://www.w3.org/1999/xlink" viewBox="0 0 159.5 63.7"><defs><radialGradient id="radial-gradient" cx="-909.05" cy="435.17" r="1.01" gradientTransform="translate(4502.9 -3807.39) rotate(-14.99) scale(5.84)" gradientUnits="userSpaceOnUse"><stop offset="0" stop-color="#44ab88"/><stop offset="1" stop-color="#007163"/></radialGradient><linearGradient id="linear-gradient" x1="-888.93" y1="611.23" x2="-888.12" y2="611.32" gradientTransform="translate(11453.71 -2353.56) scale(12.86 3.88)" gradientUnits="userSpaceOnUse"><stop offset="0" stop-color="#00c196"/><stop offset="1" stop-color="#00c196" stop-opacity="0"/></linearGradient><linearGradient id="linear-gradient-2" x1="-945.42" y1="38.07" x2="-945" y2="37.18" gradientTransform="translate(49917.59 -2365.81) scale(52.77 63.79)" gradientUnits="userSpaceOnUse"><stop offset="0" stop-color="#dba145"/><stop offset="1" stop-color="#ffe789"/></linearGradient><radialGradient id="radial-gradient-2" cx="-469.4" cy="221.25" r="0.54" gradientTransform="translate(2344.32 810.88) rotate(43.8) scale(4.72)" xlink:href="#radial-gradient"/><linearGradient id="linear-gradient-3" x1="-742.54" y1="637.45" x2="-741.49" y2="638.14" gradientTransform="translate(3249.61 -2347.5) scale(4.35 3.72)" xlink:href="#linear-gradient"/><linearGradient id="linear-gradient-4" x1="-784.64" y1="86.77" x2="-784.55" y2="85.98" gradientTransform="translate(4239.69 -2349.67) scale(5.38 27.59)" xlink:href="#linear-gradient-2"/><linearGradient id="linear-gradient-5" x1="-496.08" y1="217.88" x2="-496.04" y2="218.88" gradientTransform="translate(1029.59 -2354.59) scale(2.06 10.88)" gradientUnits="userSpaceOnUse"><stop offset="0" stop-color="#00c196" stop-opacity="0"/><stop offset="1" stop-color="#00c196"/></linearGradient><linearGradient id="linear-gradient-6" x1="-827.52" y1="5790.82" x2="-826.5" y2="5790.82" gradientTransform="translate(5845.61 -2340.31) scale(7.06 0.41)" xlink:href="#linear-gradient-5"/><linearGradient id="linear-gradient-7" x1="-916.56" y1="92.53" x2="-916.35" y2="92.06" gradientTransform="translate(18848.29 -2343.49) scale(20.55 25.83)" gradientUnits="userSpaceOnUse"><stop offset="0.18" stop-color="#dca347"/><stop offset="1" stop-color="#ffe789"/></linearGradient></defs><path d="M36.89,15.4s-.83.15-2,.28a18.58,18.58,0,0,1-2.36.15,17.63,17.63,0,0,0-2.3.12,28.67,28.67,0,0,0-3.65.81,20.61,20.61,0,0,0-3.35.95,5.24,5.24,0,0,0-1.37.85c-.39.41-.8,1.09-.41,1.47,0,0-.12.35.33.77a2,2,0,0,0,1.52.44,36.36,36.36,0,0,0,4-.82,33.13,33.13,0,0,0,5.59-2.63c1.26-.73,1.79-1.42,2.34-1.67A8.17,8.17,0,0,1,36.89,15.4Z" transform="translate(0 0)" style="fill:url(#radial-gradient)"/><path d="M36.89,15.4s-.83.15-2,.28a18.58,18.58,0,0,1-2.36.15,17.63,17.63,0,0,0-2.3.12,28.67,28.67,0,0,0-3.65.81,20.61,20.61,0,0,0-3.35.95,5.24,5.24,0,0,0-1.37.85c-.39.41-.8,1.09-.41,1.47,0,0-.12.35.33.77a2,2,0,0,0,1.52.44,36.36,36.36,0,0,0,4-.82,33.13,33.13,0,0,0,5.59-2.63c1.26-.73,1.79-1.42,2.34-1.67A8.17,8.17,0,0,1,36.89,15.4Z" transform="translate(0 0)" style="fill:#fff"/><path d="M21.38,19.92l12.77-3.65-12.7,3.88a.13.13,0,0,1-.15-.08.12.12,0,0,1,.08-.15Z" transform="translate(0 0)" style="fill:url(#linear-gradient)"/><path d="M19.08,20.45l3-.65-2.66,1.56Z" transform="translate(0 0)" style="fill:#f6d678"/><path d="M62.51,55.45l-.3.27-.35.34-.52.46-.66.55-.4.31-.42.33-.47.37-.52.35-.54.38-.61.38c-.21.14-.42.27-.64.39l-.67.39-.36.21-.38.19-.77.39c-.26.14-.54.24-.81.38l-.44.19-.43.18-.91.36-1,.34-1,.31-1,.29-1.07.27-1.13.22-.57.1-.6.09-.58.08-.61.07-.61.06H41l-1.33-.06H39l-.68-.07-.68-.07L37,63.41a30.14,30.14,0,0,1-5.55-1.34A31.65,31.65,0,0,1,16.26,51c-.33-.45-.67-.9-1-1.37-.16-.23-.31-.48-.46-.71l-.12-.17-.11-.19-.22-.35c-.13-.25-.28-.49-.43-.74s-.26-.51-.39-.76l-.4-.76-.35-.77a32.09,32.09,0,0,1-2.18-6.55v-.42l-.08-.42-.2-.91c-.1-.57-.17-1.13-.23-1.72S10,34.05,10,33.47V30l.07-.88a3.28,3.28,0,0,1,.08-.89l.11-.86.06-.43.08-.44.15-.85.08-.42.09-.42a31.59,31.59,0,0,1,2.22-6.48l.19-.38.08-.21.11-.19.39-.74.19-.38c.07-.14.15-.25.22-.38l.42-.73c.08-.13.15-.25.23-.36l.23-.36.46-.71c.15-.23.32-.44.49-.67l.49-.68a31.68,31.68,0,0,1,15.24-11A29.75,29.75,0,0,1,37.22.3,35,35,0,0,1,42.53,0l1.25.07.63.06L45,.2a1.85,1.85,0,0,1,.61.07l.59.08.59.1.56.11a31.14,31.14,0,0,1,4.24,1.12,31.94,31.94,0,0,1,3.52,1.48c.53.27,1,.52,1.49.8l.69.39.63.4.59.39.56.38.52.37.46.36.42.33.2.16.2.18.65.57c.2.16.37.32.52.46l.35.34.3.27-.33-.23L62,8c-.16-.1-.33-.25-.55-.39a32.48,32.48,0,0,0-3.83-2.24l-.7-.35-.7-.31c-.48-.22-1-.41-1.52-.63A31,31,0,0,0,51.16,3l-.44-.11-.48-.11-1-.2-1-.18c-.35-.05-.71-.08-1.07-.12l-.55-.06-.55,0H45.5l-.61-.08H42.53a35.21,35.21,0,0,0-4.9.58L37,2.84a4.56,4.56,0,0,0-.64.14l-1.26.33-1.27.41-1.26.46a30.27,30.27,0,0,0-9.52,6,30.68,30.68,0,0,0-3.93,4.44l-.42.62a6.9,6.9,0,0,0-.42.63l-.41.63-.19.33-.19.32c-.12.23-.24.45-.38.67a1.11,1.11,0,0,0-.18.34l-.17.34c-.11.21-.23.44-.34.67l-.08.18-.08.16-.15.36A27.83,27.83,0,0,0,14.2,25.7l-.1.38a.7.7,0,0,1-.07.37l-.13.76a.8.8,0,0,1-.06.38V28l-.1.76a3.17,3.17,0,0,1-.06.76l-.06.74v3.13c0,.52.07,1,.11,1.55s.12,1,.19,1.55l.13.75.07.38V38l.16.75c.07.26.11.5.19.76l.21.73.11.38.1.31c.16.47.3,1,.5,1.45l.27.7a2.75,2.75,0,0,0,.15.36l.15.35c.11.23.22.46.31.7s.23.45.34.68l.35.68.37.66.19.33.09.16.1.16.39.64c.26.44.57.84.84,1.26a33.15,33.15,0,0,0,3.95,4.5A30,30,0,0,0,37.42,61.1l.62.14.62.09.63.1.29,0h.32l1.19.13,1.25.07h4l.56-.06a29.88,29.88,0,0,0,4.09-.7l.94-.23.89-.27.44-.14.42-.15c.28-.09.55-.17.82-.28l.78-.3.38-.15.36-.16.71-.31c.23-.1.44-.22.65-.32a33.34,33.34,0,0,0,3.85-2.21c.19-.12.37-.25.55-.39l.41-.28Z" transform="translate(0 0)" style="fill:url(#linear-gradient-2)"/><path d="M62.51,55.45l-.3.27-.35.34-.52.46-.66.55-.4.31-.42.33-.47.37-.52.35-.54.38-.61.38c-.21.14-.42.27-.64.39l-.67.39-.36.21-.38.19-.77.39c-.26.14-.54.24-.81.38l-.44.19-.43.18-.91.36-1,.34-1,.31-1,.29-1.07.27-1.13.22-.57.1-.6.09-.58.08-.61.07-.61.06H41l-1.33-.06H39l-.68-.07-.68-.07L37,63.41a30.14,30.14,0,0,1-5.55-1.34A31.65,31.65,0,0,1,16.26,51c-.33-.45-.67-.9-1-1.37-.16-.23-.31-.48-.46-.71l-.12-.17-.11-.19-.22-.35c-.13-.25-.28-.49-.43-.74s-.26-.51-.39-.76l-.4-.76-.35-.77a32.09,32.09,0,0,1-2.18-6.55v-.42l-.08-.42-.2-.91c-.1-.57-.17-1.13-.23-1.72S10,34.05,10,33.47V30l.07-.88a3.28,3.28,0,0,1,.08-.89l.11-.86.06-.43.08-.44.15-.85.08-.42.09-.42a31.59,31.59,0,0,1,2.22-6.48l.19-.38.08-.21.11-.19.39-.74.19-.38c.07-.14.15-.25.22-.38l.42-.73c.08-.13.15-.25.23-.36l.23-.36.46-.71c.15-.23.32-.44.49-.67l.49-.68a31.68,31.68,0,0,1,15.24-11A29.75,29.75,0,0,1,37.22.3,35,35,0,0,1,42.53,0l1.25.07.63.06L45,.2a1.85,1.85,0,0,1,.61.07l.59.08.59.1.56.11a31.14,31.14,0,0,1,4.24,1.12,31.94,31.94,0,0,1,3.52,1.48c.53.27,1,.52,1.49.8l.69.39.63.4.59.39.56.38.52.37.46.36.42.33.2.16.2.18.65.57c.2.16.37.32.52.46l.35.34.3.27-.33-.23L62,8c-.16-.1-.33-.25-.55-.39a32.48,32.48,0,0,0-3.83-2.24l-.7-.35-.7-.31c-.48-.22-1-.41-1.52-.63A31,31,0,0,0,51.16,3l-.44-.11-.48-.11-1-.2-1-.18c-.35-.05-.71-.08-1.07-.12l-.55-.06-.55,0H45.5l-.61-.08H42.53a35.21,35.21,0,0,0-4.9.58L37,2.84a4.56,4.56,0,0,0-.64.14l-1.26.33-1.27.41-1.26.46a30.27,30.27,0,0,0-9.52,6,30.68,30.68,0,0,0-3.93,4.44l-.42.62a6.9,6.9,0,0,0-.42.63l-.41.63-.19.33-.19.32c-.12.23-.24.45-.38.67a1.11,1.11,0,0,0-.18.34l-.17.34c-.11.21-.23.44-.34.67l-.08.18-.08.16-.15.36A27.83,27.83,0,0,0,14.2,25.7l-.1.38a.7.7,0,0,1-.07.37l-.13.76a.8.8,0,0,1-.06.38V28l-.1.76a3.17,3.17,0,0,1-.06.76l-.06.74v3.13c0,.52.07,1,.11,1.55s.12,1,.19,1.55l.13.75.07.38V38l.16.75c.07.26.11.5.19.76l.21.73.11.38.1.31c.16.47.3,1,.5,1.45l.27.7a2.75,2.75,0,0,0,.15.36l.15.35c.11.23.22.46.31.7s.23.45.34.68l.35.68.37.66.19.33.09.16.1.16.39.64c.26.44.57.84.84,1.26a33.15,33.15,0,0,0,3.95,4.5A30,30,0,0,0,37.42,61.1l.62.14.62.09.63.1.29,0h.32l1.19.13,1.25.07h4l.56-.06a29.88,29.88,0,0,0,4.09-.7l.94-.23.89-.27.44-.14.42-.15c.28-.09.55-.17.82-.28l.78-.3.38-.15.36-.16.71-.31c.23-.1.44-.22.65-.32a33.34,33.34,0,0,0,3.85-2.21c.19-.12.37-.25.55-.39l.41-.28Z" transform="translate(0 0)" style="fill:none"/><path d="M80.31,42.71v1H77.22v8.45H76.15V43.7H73.07v-1Z" transform="translate(0 0)" style="fill:#fff"/><path d="M86.82,49H81a2.5,2.5,0,0,0,2.57,2.33,3,3,0,0,0,2.2-.91l.58.62a3.76,3.76,0,0,1-2.86,1.16,3.59,3.59,0,0,1,0-7.17C85.79,45,86.89,46.59,86.82,49Zm-1-.83a2.24,2.24,0,0,0-2.24-2.24H83.5A2.36,2.36,0,0,0,81,48.15v0Z" transform="translate(0 0)" style="fill:#fff"/><path d="M92.2,45v1a2.37,2.37,0,0,0-2.54,2.18.92.92,0,0,0,0,.16v3.77h-1V45.06h1v1.57A2.68,2.68,0,0,1,92.2,45Z" transform="translate(0 0)" style="fill:#fff"/><path d="M97.22,45v1a2.36,2.36,0,0,0-2.54,2.16,1.09,1.09,0,0,0,0,.18v3.77H93.61V45.06h1.06v1.57A2.64,2.64,0,0,1,97.22,45Z" transform="translate(0 0)" style="fill:#fff"/><path d="M103.16,52.15v-1.1a3,3,0,0,1-2.61,1.14,2.2,2.2,0,0,1-2.4-2,1.09,1.09,0,0,1,0-.18c0-1.22,1-2,2.66-2h2.33v-.44c0-1-.65-1.67-1.9-1.67a3.75,3.75,0,0,0-2.25.81L98.53,46a4.73,4.73,0,0,1,2.91-1c1.74,0,2.72.93,2.73,2.44v4.69Zm0-2.44v-.85h-2.27c-1.19,0-1.81.35-1.81,1.15s.63,1.31,1.64,1.31a2.27,2.27,0,0,0,2.42-1.61Z" transform="translate(0 0)" style="fill:#fff"/><path d="M109.46,46a2.65,2.65,0,1,0,0,5.3,2.79,2.79,0,0,0,2.2-.92l.61.62A3.58,3.58,0,1,1,109.42,45a3.83,3.83,0,0,1,2.74,1l-.58.73A3,3,0,0,0,109.46,46Z" transform="translate(0 0)" style="fill:#fff"/><path d="M120.13,49h-5.8a2.52,2.52,0,0,0,2.56,2.33,2.91,2.91,0,0,0,2.19-.91l.59.62a3.81,3.81,0,0,1-2.86,1.16,3.59,3.59,0,0,1,0-7.17C119.1,45,120.24,46.59,120.13,49Zm-.95-.83A2.21,2.21,0,0,0,117,45.92a1.08,1.08,0,0,0-.18,0,2.37,2.37,0,0,0-2.48,2.26Z" transform="translate(0 0)" style="fill:#fff"/><path d="M38.07,36.42A6.38,6.38,0,0,1,35.67,34a6.94,6.94,0,0,1-.85-3.39,6.67,6.67,0,0,1,.76-3.22,5.51,5.51,0,0,1,2.15-2.26,6.19,6.19,0,0,1,3.2-.83,8.23,8.23,0,0,1,2.78.42,4.08,4.08,0,0,1,1.71,1.09,2,2,0,0,1,.41,1,10.31,10.31,0,0,1,.06,1.57h-.56a4.21,4.21,0,0,0-1.26-2.47,3.92,3.92,0,0,0-2.58-.79,3.43,3.43,0,0,0-3.08,1.56,7.17,7.17,0,0,0-1,3.92c0,2.11.36,3.63,1.11,4.55a3.61,3.61,0,0,0,3,1.39A6.17,6.17,0,0,0,44,36.07v-3.3a2.07,2.07,0,0,1,.74-1.62,4.65,4.65,0,0,1,2.87-.64V31c-.8,0-1.2.6-1.2,1.76v3.33a7.73,7.73,0,0,1-2.26.94,10.8,10.8,0,0,1-2.66.3A6.72,6.72,0,0,1,38.07,36.42Z" transform="translate(0 0)" style="fill:#fff"/><path d="M55.61,28.92a1.3,1.3,0,0,1,.14.32l-.94.71a3.61,3.61,0,0,0-.33-.35,1.36,1.36,0,0,0-1-.36,2.26,2.26,0,0,0-1.65.56v7.12H49.54v-6.3a3.06,3.06,0,0,0-.25-1.4,1.1,1.1,0,0,0-1-.46h-.18V28.2h1.78a2.3,2.3,0,0,1,1,.17,1.27,1.27,0,0,1,.57.53A3.44,3.44,0,0,1,53.79,28a2.32,2.32,0,0,1,1.33.36A1.65,1.65,0,0,1,55.61,28.92Z" transform="translate(0 0)" style="fill:#fff"/><path d="M58.6,36.52a4.1,4.1,0,0,1-1.49-1.6,5.07,5.07,0,0,1-.53-2.33,5.42,5.42,0,0,1,.53-2.47,3.62,3.62,0,0,1,1.46-1.54,4.14,4.14,0,0,1,2.09-.53,4.59,4.59,0,0,1,2.09.46,3.92,3.92,0,0,1,1.47,1.3,3.58,3.58,0,0,1,.52,1.94v1.18H59.09a4.66,4.66,0,0,0,.54,2.56,1.7,1.7,0,0,0,1.51.82,2.71,2.71,0,0,0,1.49-.39,4.45,4.45,0,0,0,1.15-1.14l.58.42A4.87,4.87,0,0,1,63,36.6a3.64,3.64,0,0,1-2.16.55A4.16,4.16,0,0,1,58.6,36.52Zm3.65-4.45a5.53,5.53,0,0,0-.36-2.48,1.29,1.29,0,0,0-1.18-.73,1.26,1.26,0,0,0-1.14.75,5.2,5.2,0,0,0-.43,2.46Z" transform="translate(0 0)" style="fill:#fff"/><path d="M68.34,36.52a4,4,0,0,1-1.51-1.6,5.07,5.07,0,0,1-.53-2.33,5.42,5.42,0,0,1,.53-2.47,3.7,3.7,0,0,1,1.47-1.54,4.05,4.05,0,0,1,2.1-.53,4.48,4.48,0,0,1,2.07.46,3.92,3.92,0,0,1,1.47,1.3,3.6,3.6,0,0,1,.54,1.94c0,.27,0,.53,0,.8v.38H68.81a4.66,4.66,0,0,0,.54,2.56,1.7,1.7,0,0,0,1.51.82,2.71,2.71,0,0,0,1.49-.39,4.3,4.3,0,0,0,1.15-1.14l.59.42a4.87,4.87,0,0,1-1.35,1.4,3.69,3.69,0,0,1-2.17.55A4,4,0,0,1,68.34,36.52ZM72,32.07a5.39,5.39,0,0,0-.41-2.48A1.27,1.27,0,0,0,69.88,29a1.29,1.29,0,0,0-.63.63,5.08,5.08,0,0,0-.44,2.46Z" transform="translate(0 0)" style="fill:#fff"/><path d="M76.69,30.62a3,3,0,0,0-.24-1.4,1.1,1.1,0,0,0-1-.46h-.19V28.2H77.1a2.63,2.63,0,0,1,1,.17,1.27,1.27,0,0,1,.57.53A4.66,4.66,0,0,1,84,28.84a3.42,3.42,0,0,1,.88,2.59v5.49H82.44v-5.5A3,3,0,0,0,82,29.55a1.57,1.57,0,0,0-1.3-.6,2.83,2.83,0,0,0-1,.16,1.67,1.67,0,0,0-.69.41l.06.27a2.92,2.92,0,0,1,.06.72v6.41H76.69Z" transform="translate(0 0)" style="fill:#fff"/><path d="M93.4,27.09a2.88,2.88,0,0,0-.26-1.39,1.12,1.12,0,0,0-1-.46h-.25v-.56h5a10.24,10.24,0,0,1,3.91.65,2.54,2.54,0,0,1,1.57,2.6,2.35,2.35,0,0,1-.68,1.6,3.62,3.62,0,0,1-1.9,1.07q3.13.31,3.13,2.93a2.67,2.67,0,0,1-1.54,2.66,9.15,9.15,0,0,1-3.93.75h-4Zm3.81,3.14a2.89,2.89,0,0,0,1.89-.56,2.25,2.25,0,0,0,.7-1.83A2.11,2.11,0,0,0,99,26a3.54,3.54,0,0,0-2-.56,3.29,3.29,0,0,0-.77.06l-.34.07v4.67Zm0,6a3.62,3.62,0,0,0,2.34-.68,2.29,2.29,0,0,0,.8-1.88c0-1.71-1-2.56-3.14-2.56h-1.4V36a1.61,1.61,0,0,0,.36.1,4.91,4.91,0,0,0,.94.09Z" transform="translate(0 0)" style="fill:#fff"/><path d="M105.34,36.44a2.21,2.21,0,0,1-.83-1.84,2.68,2.68,0,0,1,.44-1.53,2.75,2.75,0,0,1,1.53-.93,11.21,11.21,0,0,1,3-.31h.27a4.36,4.36,0,0,0-.45-2.3,1.46,1.46,0,0,0-1.31-.67,1.85,1.85,0,0,0-1.18.35,2.23,2.23,0,0,0-.68,1.31h-1a6.35,6.35,0,0,1,.09-1.07,1.55,1.55,0,0,1,.38-.78c.38-.42,1.31-.64,2.78-.64a3.87,3.87,0,0,1,2.83,1,4,4,0,0,1,1,2.93v5h-1.58l-.65-.84h-.09a2.1,2.1,0,0,1-.52.51,2.61,2.61,0,0,1-1.71.5A3.57,3.57,0,0,1,105.34,36.44Zm3.55-.41a2.13,2.13,0,0,0,.55-.44,1.79,1.79,0,0,0,.36-.61V32.67h-.27a3,3,0,0,0-1.91.47,1.77,1.77,0,0,0-.6,1.46,1.66,1.66,0,0,0,.31,1.18,1,1,0,0,0,.9.41A1.27,1.27,0,0,0,108.89,36Z" transform="translate(0 0)" style="fill:#fff"/><path d="M114.89,30.62a3.06,3.06,0,0,0-.25-1.4,1.07,1.07,0,0,0-1-.46h-.19V28.2h1.83a1.64,1.64,0,0,1,1.59.71h0a3.43,3.43,0,0,1,2.34-.88,3.5,3.5,0,0,1,1.59.34,2.67,2.67,0,0,1,1,.72,3.18,3.18,0,0,1,1.07-.78,3.72,3.72,0,0,1,1.58-.28c2.15,0,3.24,1.14,3.24,3.4v5.49h-2.42v-5.5a3.37,3.37,0,0,0-.4-1.87,1.25,1.25,0,0,0-1.08-.6,2.23,2.23,0,0,0-.92.19,1.93,1.93,0,0,0-.68.52,2.74,2.74,0,0,1,.15.4,5.28,5.28,0,0,1,.15,1.37v5.49H120.1v-5.5a3.3,3.3,0,0,0-.41-1.87,1.26,1.26,0,0,0-1.07-.6,1.8,1.8,0,0,0-.81.23,2.11,2.11,0,0,0-.63.52l.06.25a2.49,2.49,0,0,1,.08.72v6.25h-2.43Z" transform="translate(0 0)" style="fill:#fff"/><path d="M132.89,36.61a1.74,1.74,0,0,1-.5-.51h-.09l-.65.84h-1.58V27.09a3,3,0,0,0-.25-1.39,1.13,1.13,0,0,0-1-.46h-.19v-.56h2.31a2,2,0,0,1,1,.23,1.38,1.38,0,0,1,.5.73,5.91,5.91,0,0,1,.15,1.45v1.49a3.15,3.15,0,0,1,.51-.28,3.9,3.9,0,0,1,1.43-.27,3.62,3.62,0,0,1,3,1.26,5.14,5.14,0,0,1,1,3.28,5,5,0,0,1-1,3.27,3.5,3.5,0,0,1-2.89,1.27,2.52,2.52,0,0,1-1.63-.5Zm2.59-1.33a7.17,7.17,0,0,0,.44-2.71c0-2.48-.63-3.71-1.86-3.71a2.49,2.49,0,0,0-1.14.28l-.43.27v5.67a1.9,1.9,0,0,0,.4.61,1.73,1.73,0,0,0,1.27.6,1.42,1.42,0,0,0,1.36-1Z" transform="translate(0 0)" style="fill:#fff"/><path d="M142.18,36.52a4.22,4.22,0,0,1-1.54-1.6,4.89,4.89,0,0,1-.55-2.31,5.18,5.18,0,0,1,.55-2.32,4.21,4.21,0,0,1,1.54-1.62,4.48,4.48,0,0,1,2.37-.6,4.33,4.33,0,0,1,2.36.6,4.12,4.12,0,0,1,1.56,1.62,5.3,5.3,0,0,1,0,4.63,4,4,0,0,1-1.58,1.6,4.53,4.53,0,0,1-2.36.59A4.72,4.72,0,0,1,142.18,36.52ZM146,35.26a6.37,6.37,0,0,0,.5-2.69,6.39,6.39,0,0,0-.5-2.7,1.56,1.56,0,0,0-1.46-1,1.58,1.58,0,0,0-1.45,1,6.1,6.1,0,0,0-.5,2.7,6.37,6.37,0,0,0,.5,2.69,1.6,1.6,0,0,0,1.45,1A1.57,1.57,0,0,0,146,35.26Z" transform="translate(0 0)" style="fill:#fff"/><path d="M152.68,36.52a4,4,0,0,1-1.55-1.6,5.23,5.23,0,0,1,0-4.63,4,4,0,0,1,1.55-1.62,5,5,0,0,1,4.73,0A4.12,4.12,0,0,1,159,30.29a5.3,5.3,0,0,1,0,4.63,4.17,4.17,0,0,1-1.56,1.64,5,5,0,0,1-4.73,0Zm3.82-1.26a6.21,6.21,0,0,0,.49-2.69,6.23,6.23,0,0,0-.49-2.7,1.56,1.56,0,0,0-1.45-1,1.58,1.58,0,0,0-1.45,1,6.1,6.1,0,0,0-.5,2.7,6.08,6.08,0,0,0,.5,2.69,1.6,1.6,0,0,0,1.45,1A1.57,1.57,0,0,0,156.5,35.26Z" transform="translate(0 0)" style="fill:#fff"/><path d="M24.81,27.74l-.57-.66a8.44,8.44,0,0,1-.61-.83,5.19,5.19,0,0,0-.58-.81,15.6,15.6,0,0,0-1.16-1.14,8.33,8.33,0,0,0-1.14-1,2.22,2.22,0,0,0-.66-.26c-.25-.05-.55-.08-.59.15,0,0-.16,0-.21.3a.9.9,0,0,0,.2.65c.39.44.79.85,1.22,1.25A13.67,13.67,0,0,0,23,26.85c.56.29.94.31,1.15.46A2.88,2.88,0,0,1,24.81,27.74Z" transform="translate(0 0)" style="fill:url(#radial-gradient-2)"/><path d="M24.81,27.74l-.57-.66a8.44,8.44,0,0,1-.61-.83,5.19,5.19,0,0,0-.58-.81,15.6,15.6,0,0,0-1.16-1.14,8.33,8.33,0,0,0-1.14-1,2.22,2.22,0,0,0-.66-.26c-.25-.05-.55-.08-.59.15,0,0-.16,0-.21.3a.9.9,0,0,0,.2.65c.39.44.79.85,1.22,1.25A13.67,13.67,0,0,0,23,26.85c.56.29.94.31,1.15.46A2.88,2.88,0,0,1,24.81,27.74Z" transform="translate(0 0)" style="fill:#fff"/><path d="M19.58,23.15l4.15,3.69-4.31-3.5a.15.15,0,0,1,0-.18.14.14,0,0,1,.09,0A.09.09,0,0,1,19.58,23.15Z" transform="translate(0 0)" style="fill:url(#linear-gradient-3)"/><path d="M20,23.66l-1.41-.74.37-.48Z" transform="translate(0 0)" style="fill:#f6d678"/><path d="M17.26,31.92a25.13,25.13,0,0,1,2.85-11.68c1.88-3.6,1.29-2.79,1.07-3.93l-.12.12a26.53,26.53,0,0,0-2.32,27.13.6.6,0,0,0,.54.34.58.58,0,0,0,.5-.86A25.17,25.17,0,0,1,17.26,31.92Z" transform="translate(0 0)" style="fill:url(#linear-gradient-4)"/><path d="M6.36,18.24s.19.68.55,1.6a17.59,17.59,0,0,0,.78,1.82,14.5,14.5,0,0,1,.78,1.76,23.63,23.63,0,0,1,.79,3,15.41,15.41,0,0,1,.54,2.85,4.77,4.77,0,0,1-.22,1.35c-.16.46-.4,1-.82.83,0,0-.22.23-.71.05a1.61,1.61,0,0,1-.89-1,27.67,27.67,0,0,1-.88-3.24A28.48,28.48,0,0,1,6.07,22c.07-1.21.38-1.87.36-2.36A6.33,6.33,0,0,0,6.36,18.24Z" transform="translate(0 0)" style="fill:#fff"/><path d="M8.57,31.57,8.3,29.92c-.08-.51-.18-1.1-.27-1.74s-.22-1.3-.34-2l-.17-1-.16-1L7,22.46l-.32-1.68s.14.67.36,1.67c.09.5.21,1.08.35,1.72.07.31.12.64.19,1s.12.67.19,1c.12.68.26,1.34.36,2s.24,1.22.32,1.74l.29,1.68a.13.13,0,0,1-.09.14.15.15,0,0,1-.14-.1Z" transform="translate(0 0)" style="fill:url(#linear-gradient-5)"/><path d="M0,33.6a5.63,5.63,0,0,0,1.06-.13c.41-.06.82-.13,1.23-.22A10,10,0,0,1,3.5,33a16.68,16.68,0,0,1,2,0,11.3,11.3,0,0,1,1.84,0,2.39,2.39,0,0,1,.81.33c.26.16.57.38.41.62a.43.43,0,0,1-.07.45,1.07,1.07,0,0,1-.72.42,17.36,17.36,0,0,1-2.16.11,19,19,0,0,1-3.27-.59c-.74-.22-1.11-.51-1.42-.56A4.14,4.14,0,0,0,0,33.6Z" transform="translate(0 0)" style="fill:#fff"/><path d="M8.58,34.13H7.5l-1.12-.07-.62-.14H5.11l-3.47-.2,3.47.06H8.6a.11.11,0,0,1,.1.12h0a.12.12,0,0,1-.12.12Z" transform="translate(0 0)" style="fill:url(#linear-gradient-6)"/><path d="M7.74,33.92l2.15-.13v.61Z" transform="translate(0 0)" style="fill:#f6d678"/><path d="M8.46,30.24l.66,2.29-.59.1Z" transform="translate(0 0)" style="fill:#f6d678"/><path d="M24.32,56.29a31.13,31.13,0,0,0-5.6-14.92A31.37,31.37,0,0,0,8.2,31.92a7.42,7.42,0,0,0-4.42-.75l.08.06c.83.31,1.64.66,2.43,1a30.51,30.51,0,0,1,16.84,24.1.6.6,0,0,0,.6.54h.05a.56.56,0,0,0,.41-.22A.53.53,0,0,0,24.32,56.29Z" transform="translate(0 0)" style="fill:url(#linear-gradient-7)"/></svg>