<?xml version="1.0" encoding="UTF-8"?>
<svg width="160px" height="64px" viewBox="0 0 160 64" version="1.1" xmlns="http://www.w3.org/2000/svg" xmlns:xlink="http://www.w3.org/1999/xlink">
    <title>FFDF0B48-925A-4257-B6F9-23279DD3B35A@3.00x</title>
    <defs>
        <radialGradient cx="51.6757211%" cy="47.6536913%" fx="51.6757211%" fy="47.6536913%" r="101.32736%" gradientTransform="translate(0.516757,0.476537),scale(0.374042,1.000000),rotate(-15.004920),translate(-0.516757,-0.476537)" id="radialGradient-1">
            <stop stop-color="#44AB88" offset="0%"></stop>
            <stop stop-color="#007163" offset="100%"></stop>
        </radialGradient>
        <linearGradient x1="9.77820302%" y1="45.740087%" x2="90.8892435%" y2="54.2389661%" id="linearGradient-2">
            <stop stop-color="#00C196" offset="0%"></stop>
            <stop stop-color="#00C196" stop-opacity="0" offset="100%"></stop>
        </linearGradient>
        <linearGradient x1="34.9417457%" y1="92.9688224%" x2="77.2979214%" y2="4.28628782%" id="linearGradient-3">
            <stop stop-color="#DBA145" offset="0%"></stop>
            <stop stop-color="#FFE789" offset="100%"></stop>
        </linearGradient>
        <radialGradient cx="38.8384722%" cy="43.0540985%" fx="38.8384722%" fy="43.0540985%" r="54.157008%" gradientTransform="translate(0.388385,0.430541),scale(0.858477,1.000000),rotate(43.781125),translate(-0.388385,-0.430541)" id="radialGradient-4">
            <stop stop-color="#44AB88" offset="0%"></stop>
            <stop stop-color="#007163" offset="100%"></stop>
        </radialGradient>
        <linearGradient x1="-0.423886829%" y1="15.5801877%" x2="104.923045%" y2="84.9027702%" id="linearGradient-5">
            <stop stop-color="#00C196" offset="0%"></stop>
            <stop stop-color="#00C196" stop-opacity="0" offset="100%"></stop>
        </linearGradient>
        <linearGradient x1="46.8872426%" y1="89.3267813%" x2="55.3112107%" y2="11.0859951%" id="linearGradient-6">
            <stop stop-color="#DBA145" offset="0%"></stop>
            <stop stop-color="#FFE789" offset="100%"></stop>
        </linearGradient>
        <linearGradient x1="47.6776185%" y1="-0.511169599%" x2="51.9256583%" y2="99.6032665%" id="linearGradient-7">
            <stop stop-color="#00C196" stop-opacity="0" offset="0%"></stop>
            <stop stop-color="#00C196" offset="100%"></stop>
        </linearGradient>
        <linearGradient x1="-1.76583434%" y1="50%" x2="99.9999664%" y2="50%" id="linearGradient-8">
            <stop stop-color="#00C196" stop-opacity="0" offset="0%"></stop>
            <stop stop-color="#00C196" offset="100%"></stop>
        </linearGradient>
        <linearGradient x1="39.8731148%" y1="71.3759053%" x2="61.388163%" y2="24.5336469%" id="linearGradient-9">
            <stop stop-color="#DCA347" offset="18%"></stop>
            <stop stop-color="#FFE789" offset="100%"></stop>
        </linearGradient>
    </defs>
    <g id="Portfolio" stroke="none" stroke-width="1" fill="none" fill-rule="evenodd">
        <g id="Portfolio_Desktop-1280x850-Logo-Color" transform="translate(-1013.000000, -1068.000000)">
            <g id="Green-Bamboo-Logo" transform="translate(1013.000000, 1068.000000)">
                <path d="M36.9898305,15.4847458 C36.9898305,15.4847458 36.1627119,15.6338983 34.9694915,15.7559322 C33.7762712,15.8779661 33.2474576,15.9186441 32.6101695,15.9050847 C31.8400677,15.9000144 31.0703464,15.9407643 30.3050847,16.0271186 C29.3288136,16.1220339 28.0135593,16.5016949 26.6576271,16.840678 C25.3016949,17.179661 23.8372881,17.4915254 23.3084746,17.7898305 C22.779661,18.0881356 22.3322034,18.2372881 21.9389831,18.6440678 C21.5457627,19.0508475 21.1389831,19.7288136 21.5322034,20.1084746 C21.5322034,20.1084746 21.4101695,20.4610169 21.8576271,20.8813559 C22.3050847,21.3016949 22.9559322,21.3559322 23.3762712,21.3152542 C23.7966102,21.2745763 26.4271186,20.8 27.3355932,20.5016949 C29.4508475,19.7966102 31.7559322,18.6033898 33.0169492,17.8711864 C34.2779661,17.1389831 34.8067797,16.4474576 35.3627119,16.2033898 C35.9186441,15.959322 35.8508475,15.8372881 36.9898305,15.4847458 Z" id="Path" fill="url(#radialGradient-1)" fill-rule="nonzero"></path>
                <path d="M36.9898305,15.4847458 C36.9898305,15.4847458 36.1627119,15.6338983 34.9694915,15.7559322 C33.7762712,15.8779661 33.2474576,15.9186441 32.6101695,15.9050847 C31.8400677,15.9000144 31.0703464,15.9407643 30.3050847,16.0271186 C29.3288136,16.1220339 28.0135593,16.5016949 26.6576271,16.840678 C25.3016949,17.179661 23.8372881,17.4915254 23.3084746,17.7898305 C22.779661,18.0881356 22.3322034,18.2372881 21.9389831,18.6440678 C21.5457627,19.0508475 21.1389831,19.7288136 21.5322034,20.1084746 C21.5322034,20.1084746 21.4101695,20.4610169 21.8576271,20.8813559 C22.3050847,21.3016949 22.9559322,21.3559322 23.3762712,21.3152542 C23.7966102,21.2745763 26.4271186,20.8 27.3355932,20.5016949 C29.4508475,19.7966102 31.7559322,18.6033898 33.0169492,17.8711864 C34.2779661,17.1389831 34.8067797,16.4474576 35.3627119,16.2033898 C35.9186441,15.959322 35.8508475,15.8372881 36.9898305,15.4847458 Z" id="Path" fill="#007163" fill-rule="nonzero"></path>
                <path d="M21.4915254,20.0271186 L34.2644068,16.379661 L21.559322,20.2576271 C21.4966717,20.2688791 21.4346282,20.2350372 21.4101695,20.1762712 C21.3925444,20.1127397 21.4285682,20.0466962 21.4915254,20.0271186 L21.4915254,20.0271186 Z" id="Path" fill="url(#linearGradient-2)" fill-rule="nonzero"></path>
                <polygon id="Path" fill="#F6D678" fill-rule="nonzero" points="19.1864407 20.5288136 22.1966102 19.8779661 19.5389831 21.4372881"></polygon>
                <path d="M62.6169492,55.5254237 L62.3186441,55.7966102 L61.9661017,56.1355932 C61.8169492,56.2711864 61.6542373,56.4338983 61.4508475,56.5966102 L60.7864407,57.1525424 L60.3932203,57.4644068 L59.9728814,57.7898305 L59.4983051,58.1559322 L58.9830508,58.5084746 L58.440678,58.8881356 L57.8305085,59.2677966 C57.6249905,59.4097543 57.4122778,59.5410025 57.1932203,59.6610169 L56.5152542,60.0542373 L56.1627119,60.2576271 L55.7830508,60.4474576 L55.0101695,60.840678 C54.7525424,60.9762712 54.4677966,61.0847458 54.1966102,61.220339 L53.7627119,61.4101695 L53.3288136,61.5864407 L52.420339,61.9525424 L51.4711864,62.2915254 L50.4813559,62.6033898 C50.1423729,62.6983051 49.7898305,62.8067797 49.4372881,62.8881356 L48.3661017,63.159322 L47.240678,63.3762712 L46.6711864,63.4847458 L46.0745763,63.5661017 L45.4915254,63.6474576 L44.8813559,63.7152542 L44.2711864,63.7830508 L43.6610169,63.8237288 L43.0237288,63.8508475 L42.7118644,63.8779661 L41.1254237,63.8779661 L39.7966102,63.8237288 L39.4576271,63.7966102 L39.1186441,63.7694915 L38.440678,63.7016949 L37.7627119,63.6338983 L37.0847458,63.5389831 C35.1932505,63.2688959 33.3317513,62.8194119 31.5254237,62.1966102 C25.4696442,60.119375 20.1846927,56.2572951 16.3661017,51.1186441 C16.040678,50.6711864 15.7016949,50.2237288 15.4033898,49.7491525 C15.240678,49.5186441 15.0915254,49.2745763 14.9423729,49.0440678 L14.820339,48.8677966 L14.7118644,48.6779661 L14.4949153,48.3254237 C14.359322,48.0813559 14.2101695,47.8372881 14.0610169,47.5932203 C13.9118644,47.3491525 13.8033898,47.0779661 13.6677966,46.8338983 L13.2745763,46.0745763 L12.9220339,45.3016949 C11.9625652,43.2028655 11.2307058,41.0072871 10.7389831,38.7525424 L10.6983051,38.5491525 L10.6576271,38.3322034 L10.5762712,37.9118644 L10.4271186,37.0440678 C10.3322034,36.4745763 10.2644068,35.9050847 10.1966102,35.3220339 C10.1288136,34.7389831 10.1016949,34.1694915 10.0610169,33.5864407 L10.0338983,32.7186441 L10.0338983,31.8101695 L10.0610169,30.9830508 L10.0610169,30.3728814 C10.0610169,30.2915254 10.0745763,30.2237288 10.0745763,30.1423729 L10.1423729,29.2610169 C10.1694915,28.9627119 10.1830508,28.6508475 10.2237288,28.3661017 L10.3322034,27.5118644 L10.3864407,27.0779661 L10.4677966,26.6440678 L10.6169492,25.7898305 L10.6983051,25.3694915 L10.7932203,24.9491525 C11.2976521,22.7014668 12.0432127,20.5147919 13.0169492,18.4271186 L13.2067797,18.0474576 L13.2881356,17.8440678 L13.3966102,17.6542373 L13.7898305,16.9084746 L13.979661,16.5288136 C14.0474576,16.3932203 14.1288136,16.2847458 14.1966102,16.1491525 L14.6169492,15.4169492 C14.6983051,15.2949153 14.7661017,15.1728814 14.8474576,15.0644068 L15.0779661,14.6983051 L15.5389831,13.9932203 C15.6881356,13.7627119 15.8644068,13.5457627 16.0271186,13.3152542 L16.5152542,12.6372881 C19.1367925,9.17875842 22.4355257,6.29063676 26.2101695,4.14915254 C27.977116,3.15413951 29.8339153,2.32788654 31.7559322,1.68135593 C33.5688225,1.07433914 35.4346054,0.638535844 37.3288136,0.379661017 C39.0904451,0.14645979 40.8676044,0.0512548242 42.6440678,0.0949152542 L43.8915254,0.162711864 L44.5152542,0.216949153 L45.1254237,0.284745763 C45.330139,0.293176225 45.5340204,0.315829717 45.7355932,0.352542373 L46.3322034,0.433898305 L46.9152542,0.528813559 L47.4847458,0.637288136 C48.9204353,0.90892804 50.3343665,1.28506999 51.7152542,1.76271186 C52.9196592,2.18243049 54.0970349,2.67602262 55.240678,3.24067797 C55.7694915,3.51186441 56.2711864,3.7559322 56.7322034,4.04067797 L57.4237288,4.43389831 L58.0474576,4.82711864 L58.6440678,5.22033898 L59.2,5.6 L59.7152542,5.96610169 L60.1762712,6.33220339 L60.5966102,6.65762712 L60.8,6.82033898 L60.9898305,6.96949153 L61.640678,7.53898305 C61.8440678,7.70169492 62.0067797,7.86440678 62.1559322,8 L62.5084746,8.33898305 L62.8067797,8.61016949 L62.4813559,8.37966102 L62.0745763,8.09491525 C61.9118644,7.98644068 61.7355932,7.83728814 61.5186441,7.70169492 C60.2965039,6.86972607 59.0189532,6.122223 57.6949153,5.46440678 L57.0440678,5.13898305 L56.3389831,4.82711864 C55.8644068,4.61016949 55.3491525,4.42033898 54.820339,4.20338983 C53.6734337,3.76536992 52.5005816,3.3985706 51.3084746,3.10508475 L50.8338983,2.98305085 L50.3457627,2.87457627 C50.0067797,2.80677966 49.6813559,2.72542373 49.3423729,2.67118644 L48.2983051,2.49491525 C47.9457627,2.44067797 47.5932203,2.41355932 47.2271186,2.37288136 L46.6847458,2.30508475 L46.1288136,2.26440678 L45.559322,2.22372881 L45.0033898,2.19661017 L42.6440678,2.19661017 C40.9962199,2.27511637 39.3559778,2.46995175 37.7355932,2.77966102 L37.1118644,2.91525424 C36.8963133,2.95053705 36.6833974,3.00036844 36.4745763,3.06440678 L35.2135593,3.38983051 L33.9389831,3.79661017 L32.6779661,4.25762712 C29.1591116,5.63198942 25.9301121,7.65586373 23.159322,10.2237288 C21.709264,11.5720112 20.3924488,13.0568338 19.2271186,14.6576271 L18.8067797,15.2813559 C18.6711864,15.4847458 18.5084746,15.6881356 18.3864407,15.9050847 L17.979661,16.5423729 L17.7898305,16.8677966 L17.6,17.1932203 C17.4779661,17.4237288 17.3559322,17.640678 17.220339,17.8576271 C17.0847458,18.0745763 17.0983051,18.0745763 17.0440678,18.1966102 L16.8677966,18.5355932 C16.759322,18.7525424 16.6372881,18.9830508 16.5288136,19.2135593 L16.4474576,19.3898305 L16.3661017,19.5525424 L16.2169492,19.9050847 C15.3757666,21.7757024 14.7349097,23.7300886 14.3050847,25.7355932 L14.2101695,26.1152542 C14.1830508,26.2372881 14.1694915,26.3728814 14.1423729,26.4949153 L14.0067797,27.2542373 C13.9932203,27.3898305 13.9661017,27.5118644 13.9525424,27.6338983 L13.8983051,28.0271186 L13.8033898,28.7864407 C13.7627119,29.0576271 13.7627119,29.3016949 13.7355932,29.5457627 L13.6813559,30.2915254 C13.6813559,30.359322 13.6677966,30.4135593 13.6677966,30.4813559 L13.6677966,31.1050847 L13.640678,31.9322034 L13.640678,32.0271186 L13.640678,32.0271186 L13.640678,32.6508475 L13.6677966,33.4237288 C13.6949153,33.9389831 13.7355932,34.4542373 13.7762712,34.9694915 C13.8169492,35.4847458 13.8983051,36 13.9661017,36.5152542 L14.1016949,37.2745763 L14.1694915,37.6542373 L14.2101695,37.8440678 L14.2508475,38.0338983 L14.4135593,38.779661 C14.4813559,39.0372881 14.5220339,39.2813559 14.6033898,39.5389831 L14.8067797,40.2711864 L14.9152542,40.6508475 L15.0372881,41.0169492 C15.2,41.4915254 15.3355932,41.9932203 15.5389831,42.4677966 C15.6338983,42.6983051 15.7152542,42.9423729 15.8101695,43.1728814 C15.8516455,43.2937144 15.9014835,43.4115133 15.959322,43.5254237 L16.1084746,43.8779661 C16.2169492,44.1084746 16.3254237,44.3389831 16.420339,44.5830508 C16.5152542,44.8271186 16.6508475,45.0305085 16.759322,45.2610169 L17.1118644,45.9389831 L17.4779661,46.6033898 L17.6677966,46.9288136 L17.7627119,47.0915254 L17.8576271,47.2542373 L18.2508475,47.8915254 C18.5084746,48.3254237 18.820339,48.7322034 19.0915254,49.1525424 C20.2458557,50.7625304 21.5487442,52.2606252 22.9830508,53.6271186 C25.7412261,56.2116948 28.9549133,58.2622019 32.4610169,59.6745763 C34.0965912,60.3185717 35.7840462,60.8220864 37.5050847,61.179661 L38.1288136,61.3152542 L38.7525424,61.4101695 L39.3762712,61.5050847 L39.6745763,61.559322 L39.9864407,61.5864407 L41.179661,61.7220339 L42.4271186,61.7898305 L43.5932203,61.7898305 C43.7966102,61.7898305 43.9864407,61.8033898 44.1762712,61.7898305 L45.3288136,61.7898305 L45.8847458,61.7491525 L46.440678,61.7084746 L46.9966102,61.6542373 C48.3759681,61.5121692 49.7440869,61.276599 51.0915254,60.9491525 L52.0271186,60.7186441 L52.9220339,60.4474576 L53.3559322,60.3118644 L53.7762712,60.1627119 C54.0610169,60.0677966 54.3322034,59.9864407 54.6033898,59.8779661 L55.3762712,59.579661 L55.7559322,59.4305085 L56.1220339,59.2677966 L56.8271186,58.9559322 C57.0576271,58.8610169 57.2745763,58.7389831 57.4779661,58.6440678 C58.8057369,57.9870965 60.091787,57.2489762 61.3288136,56.4338983 C61.5457627,56.2983051 61.7220339,56.1627119 61.8847458,56.040678 L62.2915254,55.7559322 L62.6169492,55.5254237 Z" id="Path" fill="url(#linearGradient-3)" fill-rule="nonzero"></path>
                <path d="M62.6169492,55.5254237 L62.3186441,55.7966102 L61.9661017,56.1355932 C61.8169492,56.2711864 61.6542373,56.4338983 61.4508475,56.5966102 L60.7864407,57.1525424 L60.3932203,57.4644068 L59.9728814,57.7898305 L59.4983051,58.1559322 L58.9830508,58.5084746 L58.440678,58.8881356 L57.8305085,59.2677966 C57.6249905,59.4097543 57.4122778,59.5410025 57.1932203,59.6610169 L56.5152542,60.0542373 L56.1627119,60.2576271 L55.7830508,60.4474576 L55.0101695,60.840678 C54.7525424,60.9762712 54.4677966,61.0847458 54.1966102,61.220339 L53.7627119,61.4101695 L53.3288136,61.5864407 L52.420339,61.9525424 L51.4711864,62.2915254 L50.4813559,62.6033898 C50.1423729,62.6983051 49.7898305,62.8067797 49.4372881,62.8881356 L48.3661017,63.159322 L47.240678,63.3762712 L46.6711864,63.4847458 L46.0745763,63.5661017 L45.4915254,63.6474576 L44.8813559,63.7152542 L44.2711864,63.7830508 L43.6610169,63.8237288 L43.0237288,63.8508475 L42.7118644,63.8779661 L41.1254237,63.8779661 L39.7966102,63.8237288 L39.4576271,63.7966102 L39.1186441,63.7694915 L38.440678,63.7016949 L37.7627119,63.6338983 L37.0847458,63.5389831 C35.1932505,63.2688959 33.3317513,62.8194119 31.5254237,62.1966102 C25.4696442,60.119375 20.1846927,56.2572951 16.3661017,51.1186441 C16.040678,50.6711864 15.7016949,50.2237288 15.4033898,49.7491525 C15.240678,49.5186441 15.0915254,49.2745763 14.9423729,49.0440678 L14.820339,48.8677966 L14.7118644,48.6779661 L14.4949153,48.3254237 C14.359322,48.0813559 14.2101695,47.8372881 14.0610169,47.5932203 C13.9118644,47.3491525 13.8033898,47.0779661 13.6677966,46.8338983 L13.2745763,46.0745763 L12.9220339,45.3016949 C11.9625652,43.2028655 11.2307058,41.0072871 10.7389831,38.7525424 L10.6983051,38.5491525 L10.6576271,38.3322034 L10.5762712,37.9118644 L10.4271186,37.0440678 C10.3322034,36.4745763 10.2644068,35.9050847 10.1966102,35.3220339 C10.1288136,34.7389831 10.1016949,34.1694915 10.0610169,33.5864407 L10.0338983,32.7186441 L10.0338983,31.8101695 L10.0610169,30.9830508 L10.0610169,30.3728814 C10.0610169,30.2915254 10.0745763,30.2237288 10.0745763,30.1423729 L10.1423729,29.2610169 C10.1694915,28.9627119 10.1830508,28.6508475 10.2237288,28.3661017 L10.3322034,27.5118644 L10.3864407,27.0779661 L10.4677966,26.6440678 L10.6169492,25.7898305 L10.6983051,25.3694915 L10.7932203,24.9491525 C11.2976521,22.7014668 12.0432127,20.5147919 13.0169492,18.4271186 L13.2067797,18.0474576 L13.2881356,17.8440678 L13.3966102,17.6542373 L13.7898305,16.9084746 L13.979661,16.5288136 C14.0474576,16.3932203 14.1288136,16.2847458 14.1966102,16.1491525 L14.6169492,15.4169492 C14.6983051,15.2949153 14.7661017,15.1728814 14.8474576,15.0644068 L15.0779661,14.6983051 L15.5389831,13.9932203 C15.6881356,13.7627119 15.8644068,13.5457627 16.0271186,13.3152542 L16.5152542,12.6372881 C19.1367925,9.17875842 22.4355257,6.29063676 26.2101695,4.14915254 C27.977116,3.15413951 29.8339153,2.32788654 31.7559322,1.68135593 C33.5688225,1.07433914 35.4346054,0.638535844 37.3288136,0.379661017 C39.0904451,0.14645979 40.8676044,0.0512548242 42.6440678,0.0949152542 L43.8915254,0.162711864 L44.5152542,0.216949153 L45.1254237,0.284745763 C45.330139,0.293176225 45.5340204,0.315829717 45.7355932,0.352542373 L46.3322034,0.433898305 L46.9152542,0.528813559 L47.4847458,0.637288136 C48.9204353,0.90892804 50.3343665,1.28506999 51.7152542,1.76271186 C52.9196592,2.18243049 54.0970349,2.67602262 55.240678,3.24067797 C55.7694915,3.51186441 56.2711864,3.7559322 56.7322034,4.04067797 L57.4237288,4.43389831 L58.0474576,4.82711864 L58.6440678,5.22033898 L59.2,5.6 L59.7152542,5.96610169 L60.1762712,6.33220339 L60.5966102,6.65762712 L60.8,6.82033898 L60.9898305,6.96949153 L61.640678,7.53898305 C61.8440678,7.70169492 62.0067797,7.86440678 62.1559322,8 L62.5084746,8.33898305 L62.8067797,8.61016949 L62.4813559,8.37966102 L62.0745763,8.09491525 C61.9118644,7.98644068 61.7355932,7.83728814 61.5186441,7.70169492 C60.2965039,6.86972607 59.0189532,6.122223 57.6949153,5.46440678 L57.0440678,5.13898305 L56.3389831,4.82711864 C55.8644068,4.61016949 55.3491525,4.42033898 54.820339,4.20338983 C53.6734337,3.76536992 52.5005816,3.3985706 51.3084746,3.10508475 L50.8338983,2.98305085 L50.3457627,2.87457627 C50.0067797,2.80677966 49.6813559,2.72542373 49.3423729,2.67118644 L48.2983051,2.49491525 C47.9457627,2.44067797 47.5932203,2.41355932 47.2271186,2.37288136 L46.6847458,2.30508475 L46.1288136,2.26440678 L45.559322,2.22372881 L45.0033898,2.19661017 L42.6440678,2.19661017 C40.9962199,2.27511637 39.3559778,2.46995175 37.7355932,2.77966102 L37.1118644,2.91525424 C36.8963133,2.95053705 36.6833974,3.00036844 36.4745763,3.06440678 L35.2135593,3.38983051 L33.9389831,3.79661017 L32.6779661,4.25762712 C29.1591116,5.63198942 25.9301121,7.65586373 23.159322,10.2237288 C21.709264,11.5720112 20.3924488,13.0568338 19.2271186,14.6576271 L18.8067797,15.2813559 C18.6711864,15.4847458 18.5084746,15.6881356 18.3864407,15.9050847 L17.979661,16.5423729 L17.7898305,16.8677966 L17.6,17.1932203 C17.4779661,17.4237288 17.3559322,17.640678 17.220339,17.8576271 C17.0847458,18.0745763 17.0983051,18.0745763 17.0440678,18.1966102 L16.8677966,18.5355932 C16.759322,18.7525424 16.6372881,18.9830508 16.5288136,19.2135593 L16.4474576,19.3898305 L16.3661017,19.5525424 L16.2169492,19.9050847 C15.3757666,21.7757024 14.7349097,23.7300886 14.3050847,25.7355932 L14.2101695,26.1152542 C14.1830508,26.2372881 14.1694915,26.3728814 14.1423729,26.4949153 L14.0067797,27.2542373 C13.9932203,27.3898305 13.9661017,27.5118644 13.9525424,27.6338983 L13.8983051,28.0271186 L13.8033898,28.7864407 C13.7627119,29.0576271 13.7627119,29.3016949 13.7355932,29.5457627 L13.6813559,30.2915254 C13.6813559,30.359322 13.6677966,30.4135593 13.6677966,30.4813559 L13.6677966,31.1050847 L13.640678,31.9322034 L13.640678,32.0271186 L13.640678,32.0271186 L13.640678,32.6508475 L13.6677966,33.4237288 C13.6949153,33.9389831 13.7355932,34.4542373 13.7762712,34.9694915 C13.8169492,35.4847458 13.8983051,36 13.9661017,36.5152542 L14.1016949,37.2745763 L14.1694915,37.6542373 L14.2101695,37.8440678 L14.2508475,38.0338983 L14.4135593,38.779661 C14.4813559,39.0372881 14.5220339,39.2813559 14.6033898,39.5389831 L14.8067797,40.2711864 L14.9152542,40.6508475 L15.0372881,41.0169492 C15.2,41.4915254 15.3355932,41.9932203 15.5389831,42.4677966 C15.6338983,42.6983051 15.7152542,42.9423729 15.8101695,43.1728814 C15.8516455,43.2937144 15.9014835,43.4115133 15.959322,43.5254237 L16.1084746,43.8779661 C16.2169492,44.1084746 16.3254237,44.3389831 16.420339,44.5830508 C16.5152542,44.8271186 16.6508475,45.0305085 16.759322,45.2610169 L17.1118644,45.9389831 L17.4779661,46.6033898 L17.6677966,46.9288136 L17.7627119,47.0915254 L17.8576271,47.2542373 L18.2508475,47.8915254 C18.5084746,48.3254237 18.820339,48.7322034 19.0915254,49.1525424 C20.2458557,50.7625304 21.5487442,52.2606252 22.9830508,53.6271186 C25.7412261,56.2116948 28.9549133,58.2622019 32.4610169,59.6745763 C34.0965912,60.3185717 35.7840462,60.8220864 37.5050847,61.179661 L38.1288136,61.3152542 L38.7525424,61.4101695 L39.3762712,61.5050847 L39.6745763,61.559322 L39.9864407,61.5864407 L41.179661,61.7220339 L42.4271186,61.7898305 L43.5932203,61.7898305 C43.7966102,61.7898305 43.9864407,61.8033898 44.1762712,61.7898305 L45.3288136,61.7898305 L45.8847458,61.7491525 L46.440678,61.7084746 L46.9966102,61.6542373 C48.3759681,61.5121692 49.7440869,61.276599 51.0915254,60.9491525 L52.0271186,60.7186441 L52.9220339,60.4474576 L53.3559322,60.3118644 L53.7762712,60.1627119 C54.0610169,60.0677966 54.3322034,59.9864407 54.6033898,59.8779661 L55.3762712,59.579661 L55.7559322,59.4305085 L56.1220339,59.2677966 L56.8271186,58.9559322 C57.0576271,58.8610169 57.2745763,58.7389831 57.4779661,58.6440678 C58.8057369,57.9870965 60.091787,57.2489762 61.3288136,56.4338983 C61.5457627,56.2983051 61.7220339,56.1627119 61.8847458,56.040678 L62.2915254,55.7559322 L62.6169492,55.5254237 Z" id="Path"></path>
                <polygon id="Path" fill="#007163" fill-rule="nonzero" points="80.420339 42.7932203 80.420339 43.7830508 77.3288136 43.7830508 77.3288136 52.2305085 76.2576271 52.2305085 76.2576271 43.7830508 73.179661 43.7830508 73.179661 42.7932203"></polygon>
                <path d="M86.9288136,49.0711864 L81.1254237,49.0711864 C81.3016949,50.4813559 82.3050847,51.4033898 83.7016949,51.4033898 C84.5284516,51.4196197 85.3245318,51.0903767 85.8983051,50.4949153 L86.4813559,51.1050847 C85.8033898,51.8508475 84.8135593,52.2711864 83.620339,52.2711864 C81.5322034,52.2711864 80.0813559,50.8067797 80.0813559,48.6915254 C80.0813559,46.5762712 81.5457627,45.1118644 83.6067797,45.0983051 C85.8983051,45.0983051 87.0372881,46.6711864 86.9288136,49.0711864 Z M85.979661,48.2440678 C85.9118644,46.8610169 84.9898305,45.979661 83.6067797,45.979661 C82.2237288,45.979661 81.2745763,46.8610169 81.1254237,48.2440678 L85.979661,48.2440678 Z" id="Shape" fill="#007163" fill-rule="nonzero"></path>
                <path d="M92.3118644,45.0983051 L92.3118644,46.1152542 C90.820339,46.1016949 89.8847458,47.0237288 89.7627119,48.4610169 L89.7627119,52.2305085 L88.7186441,52.2305085 L88.7186441,45.1389831 L89.7627119,45.1389831 L89.7627119,46.7118644 C90.2372881,45.6813559 91.1186441,45.1118644 92.3118644,45.0983051 Z" id="Path" fill="#007163" fill-rule="nonzero"></path>
                <path d="M97.3288136,45.0983051 L97.3288136,46.1152542 C95.8237288,46.1016949 94.9016949,47.0237288 94.779661,48.4610169 L94.779661,52.2305085 L93.7220339,52.2305085 L93.7220339,45.1389831 L94.779661,45.1389831 L94.779661,46.7118644 C95.2542373,45.6813559 96.1220339,45.1118644 97.3288136,45.0983051 Z" id="Path" fill="#007163" fill-rule="nonzero"></path>
                <path d="M103.267797,52.2305085 L103.267797,51.1322034 C102.698305,51.9050847 101.80339,52.2711864 100.664407,52.2711864 C99.2,52.2711864 98.2508475,51.3491525 98.2508475,50.1288136 C98.2508475,48.9084746 99.2271186,48.1084746 100.908475,48.0949153 L103.240678,48.0949153 L103.240678,47.6474576 C103.240678,46.6033898 102.589831,45.979661 101.342373,45.979661 C100.555932,45.979661 99.8237288,46.2644068 99.0915254,46.7932203 L98.6440678,46.0610169 C99.5525424,45.4508475 100.325424,45.0983051 101.545763,45.0983051 C103.294915,45.0983051 104.271186,46.0338983 104.284746,47.5389831 L104.284746,52.2305085 L103.267797,52.2305085 Z M103.254237,49.7898305 L103.254237,48.9355932 L101.044068,48.9355932 C99.8508475,48.9355932 99.2271186,49.2881356 99.2271186,50.0881356 C99.2271186,50.8881356 99.8644068,51.4033898 100.867797,51.4033898 C102.074576,51.4033898 102.983051,50.8067797 103.254237,49.7898305 Z" id="Shape" fill="#007163" fill-rule="nonzero"></path>
                <path d="M109.572881,46.0474576 C108.094915,46.0474576 107.037288,47.1186441 107.037288,48.6915254 C107.037288,50.2644068 108.094915,51.3491525 109.572881,51.3491525 C110.494915,51.3491525 111.267797,51.0237288 111.769492,50.4271186 L112.379661,51.0508475 C111.742373,51.8237288 110.752542,52.2711864 109.532203,52.2711864 C107.457627,52.2711864 106.00678,50.8067797 106.00678,48.6915254 C106.00678,46.5762712 107.471186,45.0983051 109.532203,45.0983051 C110.671186,45.0983051 111.620339,45.4915254 112.271186,46.1423729 L111.688136,46.8745763 C111.122164,46.3268869 110.360247,46.028958 109.572881,46.0474576 L109.572881,46.0474576 Z" id="Path" fill="#007163" fill-rule="nonzero"></path>
                <path d="M120.244068,49.0711864 L114.440678,49.0711864 C114.616949,50.4813559 115.620339,51.4033898 117.016949,51.4033898 C117.843395,51.417973 118.638843,51.0889913 119.213559,50.4949153 L119.79661,51.1050847 C119.118644,51.8508475 118.115254,52.2711864 116.935593,52.2711864 C114.833898,52.2711864 113.39661,50.8067797 113.39661,48.6915254 C113.39661,46.5762712 114.847458,45.1118644 116.922034,45.0983051 C119.213559,45.0983051 120.352542,46.6711864 120.244068,49.0711864 Z M119.294915,48.2440678 C119.227119,46.8610169 118.305085,45.979661 116.922034,45.979661 C115.538983,45.979661 114.589831,46.8610169 114.440678,48.2440678 L119.294915,48.2440678 Z" id="Shape" fill="#007163" fill-rule="nonzero"></path>
                <path d="M38.1830508,36.5016949 C37.1773432,35.9318477 36.3472231,35.0970376 35.7830508,34.0881356 C35.20981,33.0511333 34.9154722,31.8831261 34.9288136,30.6983051 C34.9080466,29.5803506 35.1691858,28.4751722 35.6881356,27.4847458 C36.172828,26.5374422 36.9216788,25.7509134 37.8440678,25.220339 C38.8153929,24.6580831 39.9219463,24.3720672 41.0440678,24.3932203 C42.1288136,24.3932203 43.0644068,24.5288136 43.8237288,24.8135593 C44.5830508,25.0983051 45.1661017,25.4644068 45.5322034,25.8983051 C45.7611706,26.1971936 45.9020616,26.5541175 45.9389831,26.9288136 C45.9983547,27.4418633 46.0255266,27.9581287 46.020339,28.4745763 L45.4644068,28.4745763 C45.2338983,27.3491525 44.8,26.5220339 44.1762712,26.0067797 C43.5525424,25.4915254 42.6983051,25.220339 41.6,25.220339 C40.2169492,25.220339 39.1864407,25.7491525 38.5220339,26.779661 C37.8576271,27.8101695 37.5186441,29.1254237 37.5186441,30.6983051 C37.5186441,32.8135593 37.8847458,34.3322034 38.6305085,35.2542373 C39.3762712,36.1762712 40.3525424,36.6372881 41.6,36.6372881 C42.4600678,36.6553224 43.3144352,36.4936853 44.1084746,36.1627119 L44.1084746,32.8542373 C44.0962884,32.226593 44.3708214,31.627612 44.8542373,31.2271186 C45.3423729,30.8067797 46.3050847,30.5898305 47.7152542,30.5898305 L47.7152542,31.0508475 C46.9152542,31.0508475 46.5220339,31.6474576 46.5220339,32.8135593 L46.5220339,36.1355932 C45.8197865,36.5650846 45.0562326,36.8851372 44.2576271,37.0847458 C43.3874467,37.2934194 42.4947888,37.3936157 41.6,37.3830508 C40.40303,37.3973282 39.2237787,37.0931563 38.1830508,36.5016949 Z" id="Path" fill="#007163" fill-rule="nonzero"></path>
                <path d="M55.7152542,29.0033898 C55.7771105,29.1010911 55.8271768,29.2057752 55.8644068,29.3152542 L54.9152542,30.0338983 C54.8183569,29.9062029 54.7093786,29.788143 54.5898305,29.6813559 C54.3307239,29.4443347 53.991837,29.3136212 53.640678,29.3152542 C52.9220339,29.3152542 52.3661017,29.5050847 51.9864407,29.8847458 L52.0271186,30.1559322 C52.0528704,30.3628668 52.0664531,30.5711346 52.0677966,30.779661 L52.0677966,37.0169492 L49.6542373,37.0169492 L49.6542373,30.6983051 C49.6542373,30.0745763 49.5728814,29.6 49.3966102,29.3016949 C49.220339,29.0033898 48.8949153,28.840678 48.3661017,28.840678 L48.1898305,28.840678 L48.1898305,28.2847458 L50.020339,28.2847458 C50.3580131,28.2694655 50.6951559,28.3248863 51.0101695,28.4474576 C51.2536928,28.5552389 51.454161,28.741388 51.579661,28.9762712 C52.2210513,28.4053077 53.0532514,28.0956519 53.9118644,28.1084746 C54.3820837,28.0894623 54.8465443,28.217426 55.240678,28.4745763 C55.4374582,28.6119764 55.5998662,28.7929454 55.7152542,29.0033898 L55.7152542,29.0033898 Z" id="Path" fill="#007163" fill-rule="nonzero"></path>
                <path d="M58.7118644,36.5966102 C58.0765307,36.2052218 57.5606583,35.6471416 57.220339,34.9830508 C56.8596681,34.2592784 56.6783,33.4593987 56.6915254,32.6508475 C56.6915254,31.6881356 56.8677966,30.8610169 57.220339,30.1830508 C57.5452188,29.5345607 58.0547506,28.9967216 58.6847458,28.6372881 C59.3216163,28.2790515 60.0422684,28.0965487 60.7728814,28.1084746 C61.4955415,28.0953401 62.2110624,28.2533122 62.8610169,28.5694915 C63.4549941,28.8672604 63.9600697,29.3162165 64.3254237,29.8711864 C64.6832413,30.4537534 64.8667461,31.1266044 64.8542373,31.8101695 C64.8542373,32.0542373 64.8542373,32.3118644 64.8271186,32.6101695 L64.7864407,32.9898305 L59.2,32.9898305 C59.2,34.1559322 59.3762712,35.0101695 59.7423729,35.5525424 C60.0603433,36.0756224 60.635659,36.3866038 61.2474576,36.3661017 C61.7740559,36.3821331 62.2934374,36.2404836 62.7389831,35.959322 C63.1881358,35.6515796 63.5784893,35.2658185 63.8915254,34.820339 L64.4745763,35.240678 C64.1236443,35.7946591 63.6620131,36.2701391 63.1186441,36.6372881 C62.5898305,37.0169492 61.8711864,37.1932203 60.9627119,37.1932203 C60.1707727,37.2140409 59.3895171,37.0069611 58.7118644,36.5966102 Z M62.359322,32.1491525 C62.359322,30.9830508 62.2237288,30.1559322 61.9525424,29.6677966 C61.6677966,29.179661 61.2881356,28.9355932 60.7728814,28.9355932 C60.2576271,28.9355932 59.9322034,29.1932203 59.6338983,29.6949153 C59.3355932,30.1966102 59.2,31.0101695 59.2,32.1491525 L62.359322,32.1491525 Z" id="Shape" fill="#007163" fill-rule="nonzero"></path>
                <path d="M68.4474576,36.5966102 C67.8048636,36.2099383 67.2834621,35.6509583 66.9423729,34.9830508 C66.581702,34.2592784 66.4003339,33.4593987 66.4135593,32.6508475 C66.4135593,31.6881356 66.5898305,30.8610169 66.9423729,30.1830508 C67.2672527,29.5345607 67.7767845,28.9967216 68.4067797,28.6372881 C69.0478818,28.2773265 69.7733576,28.0947874 70.5084746,28.1084746 C71.2266214,28.0969689 71.9373673,28.2549124 72.5830508,28.5694915 C73.177028,28.8672604 73.6821036,29.3162165 74.0474576,29.8711864 C74.4093349,30.4526204 74.5975143,31.1253618 74.5898305,31.8101695 C74.5898305,32.0542373 74.5762712,32.3118644 74.5491525,32.6101695 L74.5084746,32.9898305 L68.9220339,32.9898305 C68.9220339,34.1559322 69.0983051,35.0101695 69.4644068,35.5525424 C69.7823772,36.0756224 70.3576929,36.3866038 70.9694915,36.3661017 C71.4963865,36.3846636 72.0165004,36.2428143 72.4610169,35.959322 C72.9131048,35.6551505 73.3040592,35.2687956 73.6135593,34.820339 L74.1966102,35.240678 C73.8466567,35.7909898 73.3902636,36.2658231 72.8542373,36.6372881 C72.3118644,37.0169492 71.5932203,37.1932203 70.6847458,37.1932203 C69.8968427,37.2160682 69.1193664,37.0087411 68.4474576,36.5966102 L68.4474576,36.5966102 Z M72.0813559,32.1491525 C72.0813559,30.9830508 71.9457627,30.1559322 71.6745763,29.6677966 C71.4033898,29.179661 71.0101695,28.9355932 70.5084746,28.9355932 C70.0067797,28.9355932 69.6542373,29.1932203 69.3559322,29.6949153 C69.0576271,30.1966102 68.9220339,31.0101695 68.9220339,32.1491525 L72.0813559,32.1491525 Z" id="Shape" fill="#007163" fill-rule="nonzero"></path>
                <path d="M76.8,30.6983051 C76.8,30.0745763 76.7186441,29.6 76.5559322,29.3016949 C76.3932203,29.0033898 76.040678,28.840678 75.5254237,28.840678 L75.3355932,28.840678 L75.3355932,28.2847458 L77.179661,28.2847458 C77.5172645,28.2706459 77.854167,28.3260271 78.1694915,28.4474576 C78.4102598,28.5593792 78.6095579,28.7444417 78.7389831,28.9762712 C79.3627119,28.3932203 80.2711864,28.1084746 81.4372881,28.1084746 C82.6033898,28.1084746 83.4983051,28.379661 84.0813559,28.9220339 C84.6644068,29.4644068 84.9627119,30.3457627 84.9627119,31.5118644 L84.9627119,37.0169492 L82.5491525,37.0169492 L82.5491525,31.4983051 C82.5491525,30.6440678 82.4,30.020339 82.0881356,29.6271186 C81.7737678,29.2326061 81.2905152,29.0111154 80.7864407,29.0305085 C80.4449043,29.0238275 80.1049737,29.0789514 79.7830508,29.1932203 C79.5233099,29.2715174 79.2861579,29.4110185 79.0915254,29.6 L79.1457627,29.8711864 C79.1984677,30.1069342 79.2212462,30.3483854 79.2135593,30.5898305 L79.2135593,37.0169492 L76.8,37.0169492 L76.8,30.6983051 Z" id="Path" fill="#007163" fill-rule="nonzero"></path>
                <path d="M93.5050847,27.1728814 C93.5050847,26.5491525 93.4237288,26.0745763 93.2474576,25.7762712 C93.0711864,25.4779661 92.7186441,25.3152542 92.2033898,25.3152542 L92.0135593,25.3152542 L92.0135593,24.759322 L97.0305085,24.759322 C98.5943503,24.759322 99.8960452,24.9762712 100.935593,25.4101695 C101.979661,25.8440678 102.508475,26.7118644 102.508475,28.0135593 C102.508475,28.5830508 102.277966,29.1118644 101.830508,29.6135593 C101.383051,30.1152542 100.745763,30.4677966 99.9322034,30.6847458 C102.020339,30.8926554 103.064407,31.8689266 103.064407,33.6135593 C103.064407,34.9016949 102.549153,35.7830508 101.518644,36.2711864 C100.488136,36.759322 99.1864407,37.0169492 97.5864407,37.0169492 L93.5050847,37.0169492 L93.5050847,27.1728814 Z M97.3152542,30.3050847 C98.1152542,30.3050847 98.7525424,30.1288136 99.2135593,29.7491525 C99.6745763,29.3694915 99.9050847,28.759322 99.9050847,27.9186441 C99.9050847,27.0779661 99.6338983,26.4542373 99.0779661,26.0745763 C98.5220339,25.6949153 97.8440678,25.5050847 97.0305085,25.5050847 C96.7711895,25.4997224 96.5120522,25.5224537 96.2576271,25.5728814 L95.9186441,25.640678 L95.9186441,30.3050847 L97.3152542,30.3050847 Z M97.3152542,36.2711864 C98.3322034,36.2711864 99.1186441,36.040678 99.6610169,35.5932203 C100.20339,35.1457627 100.461017,34.5220339 100.461017,33.7084746 C100.461017,32 99.4169492,31.1457627 97.3152542,31.1457627 L95.9186441,31.1457627 L95.9186441,36.0813559 C96.0360622,36.1286862 96.1591222,36.1605906 96.2847458,36.1762712 C96.5926852,36.2388952 96.9060967,36.2706906 97.220339,36.2711864 L97.3152542,36.2711864 Z" id="Shape" fill="#007163" fill-rule="nonzero"></path>
                <path d="M105.450847,36.5152542 C104.894915,36.0677966 104.623729,35.4576271 104.623729,34.6847458 C104.605682,34.1413381 104.757338,33.6058016 105.057627,33.1525424 C105.355932,32.7457627 105.857627,32.4338983 106.589831,32.2169492 C107.322034,32 108.338983,31.9050847 109.640678,31.9050847 L109.911864,31.9050847 C109.911864,30.8338983 109.762712,30.0610169 109.464407,29.6135593 C109.178823,29.1685729 108.67728,28.9100454 108.149153,28.9355932 C107.727816,28.9198145 107.31308,29.0437584 106.969492,29.2881356 C106.657627,29.5322034 106.427119,29.9661017 106.291525,30.6033898 L105.274576,30.6033898 C105.269864,30.2446212 105.29709,29.8861451 105.355932,29.5322034 C105.412219,29.2415929 105.543047,28.9705929 105.735593,28.7457627 C106.115254,28.3254237 107.050847,28.1084746 108.515254,28.1084746 C109.762712,28.1084746 110.698305,28.4338983 111.349153,29.0711864 C112,29.7084746 112.325424,30.6983051 112.325424,32 L112.325424,37.0169492 L110.752542,37.0169492 L110.101695,36.1762712 L110.00678,36.1762712 C109.867218,36.3774496 109.692704,36.5519642 109.491525,36.6915254 C109.071186,37.0305085 108.501695,37.1932203 107.783051,37.1932203 C106.779661,37.1932203 106.00678,36.9762712 105.450847,36.5152542 Z M109.00339,36.1084746 C109.205666,35.9929585 109.388662,35.8465619 109.545763,35.6745763 C109.708315,35.4984194 109.832927,35.2907327 109.911864,35.0644068 L109.911864,32.7457627 L109.640678,32.7457627 C108.759322,32.7457627 108.122034,32.8949153 107.728814,33.220339 C107.335593,33.5457627 107.132203,34.020339 107.132203,34.6847458 C107.132203,35.3491525 107.240678,35.5932203 107.444068,35.8644068 C107.660288,36.1351418 107.992832,36.286298 108.338983,36.2711864 C108.570997,36.2771506 108.800387,36.2209735 109.00339,36.1084746 L109.00339,36.1084746 Z" id="Shape" fill="#007163" fill-rule="nonzero"></path>
                <path d="M114.955932,30.6983051 C114.955932,30.0745763 114.874576,29.6 114.711864,29.3016949 C114.549153,29.0033898 114.19661,28.840678 113.681356,28.840678 L113.491525,28.840678 L113.491525,28.2847458 L115.322034,28.2847458 C116.135593,28.2847458 116.650847,28.5288136 116.908475,28.9898305 L116.976271,28.9898305 C117.619783,28.4119169 118.457183,28.097287 119.322034,28.1084746 C119.870104,28.0956022 120.413527,28.2117183 120.908475,28.4474576 C121.355932,28.6779661 121.681356,28.9084746 121.871186,29.1661017 C122.171401,28.8376656 122.536036,28.5745741 122.942373,28.3932203 C123.439672,28.1848879 123.97648,28.0877072 124.515254,28.1084746 C126.671186,28.1084746 127.755932,29.2474576 127.755932,31.5118644 L127.755932,37.0169492 L125.342373,37.0169492 L125.342373,31.4983051 C125.342373,30.6485876 125.20678,30.0248588 124.935593,29.6271186 C124.707647,29.2543845 124.30131,29.0280701 123.864407,29.0305085 C123.547077,29.0276775 123.232776,29.0923866 122.942373,29.220339 C122.678223,29.3350475 122.445653,29.511801 122.264407,29.7355932 C122.323181,29.8676921 122.37301,30.0035915 122.413559,30.1423729 C122.519863,30.5909208 122.569965,31.050949 122.562712,31.5118644 L122.562712,37.0169492 L120.149153,37.0169492 L120.149153,31.4983051 C120.149153,30.6485876 120.013559,30.0248588 119.742373,29.6271186 C119.514427,29.2543845 119.108089,29.0280701 118.671186,29.0305085 C118.385398,29.0407349 118.106304,29.1198115 117.857627,29.2610169 C117.617517,29.3895735 117.405468,29.564744 117.233898,29.7762712 L117.288136,30.0338983 C117.352899,30.2676732 117.380356,30.5102058 117.369492,30.7525424 L117.369492,37.0169492 L114.955932,37.0169492 L114.955932,30.6983051 Z" id="Path" fill="#007163" fill-rule="nonzero"></path>
                <path d="M133.044068,36.6915254 C132.840789,36.5589897 132.669442,36.3830113 132.542373,36.1762712 L132.447458,36.1762712 L131.79661,37.0169492 L130.223729,37.0169492 L130.223729,27.1728814 C130.223729,26.5491525 130.128814,26.0745763 129.966102,25.7762712 C129.80339,25.4779661 129.437288,25.3152542 128.922034,25.3152542 L128.732203,25.3152542 L128.732203,24.759322 L130.955932,24.759322 C131.314028,24.7407486 131.670385,24.82046 131.986441,24.9898305 C132.234289,25.1675848 132.41185,25.4267272 132.488136,25.7220339 C132.60028,26.1971825 132.650414,26.6848544 132.637288,27.1728814 L132.637288,28.6644068 C132.798024,28.5507976 132.970824,28.4553025 133.152542,28.379661 C133.606646,28.2033254 134.089141,28.1114217 134.576271,28.1084746 C135.868927,28.1084746 136.858757,28.5288136 137.545763,29.3694915 C138.223729,30.2237288 138.576271,31.3084746 138.576271,32.6508475 C138.576271,33.9932203 138.237288,35.0779661 137.559322,35.9186441 C136.881356,36.759322 135.918644,37.1932203 134.671186,37.1932203 C134.00678,37.1932203 133.464407,37.0305085 133.044068,36.6915254 Z M135.633898,35.3627119 C135.918644,34.6847458 136.067797,33.7898305 136.067797,32.6508475 C136.067797,30.1694915 135.444068,28.9355932 134.210169,28.9355932 C133.814029,28.9444133 133.424873,29.0417022 133.071186,29.220339 L132.637288,29.4915254 L132.637288,35.159322 C132.734253,35.3859705 132.872148,35.5928132 133.044068,35.7694915 C133.35818,36.1415847 133.818184,36.3592208 134.305085,36.3661017 C134.901695,36.3661017 135.349153,36.0271186 135.633898,35.3627119 Z" id="Shape" fill="#007163" fill-rule="nonzero"></path>
                <path d="M142.291525,36.5966102 C141.636068,36.2011936 141.101464,35.6337636 140.745763,34.9559322 C140.380594,34.2429684 140.194446,33.4518376 140.20339,32.6508475 C140.196542,31.8457564 140.382515,31.0507224 140.745763,30.3322034 C141.105678,29.6609526 141.639602,29.098928 142.291525,28.7050847 C142.969492,28.2983051 143.755932,28.1084746 144.664407,28.1084746 C145.572881,28.1084746 146.359322,28.2983051 147.023729,28.7050847 C147.682789,29.0943156 148.222205,29.6571844 148.583051,30.3322034 C148.942105,31.0517111 149.123443,31.8468094 149.111864,32.6508475 C149.125004,33.4507104 148.943524,34.2417804 148.583051,34.9559322 C148.226555,35.6376144 147.686415,36.2059356 147.023729,36.5966102 C146.305933,37.0057286 145.490396,37.2119563 144.664407,37.1932203 C143.834299,37.210363 143.014813,37.0043208 142.291525,36.5966102 L142.291525,36.5966102 Z M146.115254,35.3355932 C146.440678,34.6576271 146.616949,33.7627119 146.616949,32.6508475 C146.616949,31.5389831 146.440678,30.6440678 146.115254,29.9525424 C145.789831,29.2610169 145.288136,28.9355932 144.664407,28.9355932 C144.040678,28.9355932 143.552542,29.2745763 143.213559,29.9525424 C142.874576,30.6305085 142.711864,31.5389831 142.711864,32.6508475 C142.711864,33.7627119 142.888136,34.6576271 143.213559,35.3355932 C143.538983,36.0135593 144.027119,36.3661017 144.664407,36.3661017 C145.301695,36.3661017 145.776271,36.0271186 146.115254,35.3355932 L146.115254,35.3355932 Z" id="Shape" fill="#007163" fill-rule="nonzero"></path>
                <path d="M152.786441,36.5966102 C152.124557,36.2092109 151.587994,35.6397011 151.240678,34.9559322 C150.869672,34.2451269 150.683173,33.4525087 150.698305,32.6508475 C150.684353,31.844983 150.87072,31.0482645 151.240678,30.3322034 C151.592555,29.6551804 152.12834,29.0911959 152.786441,28.7050847 C153.464407,28.2983051 154.250847,28.1084746 155.159322,28.1084746 C156.067797,28.1084746 156.854237,28.2983051 157.518644,28.7050847 C158.177704,29.0943156 158.71712,29.6571844 159.077966,30.3322034 C159.43702,31.0517111 159.618358,31.8468094 159.60678,32.6508475 C159.61992,33.4507104 159.438439,34.2417804 159.077966,34.9559322 C158.72147,35.6376144 158.18133,36.2059356 157.518644,36.5966102 C156.800338,37.0044605 155.985157,37.2105982 155.159322,37.1932203 C154.329214,37.210363 153.509728,37.0043208 152.786441,36.5966102 L152.786441,36.5966102 Z M156.610169,35.3355932 C156.935593,34.6576271 157.098305,33.7627119 157.098305,32.6508475 C157.098305,31.5389831 156.935593,30.6440678 156.610169,29.9525424 C156.284746,29.2610169 155.783051,28.9355932 155.159322,28.9355932 C154.535593,28.9355932 154.047458,29.2745763 153.708475,29.9525424 C153.369492,30.6305085 153.20678,31.5389831 153.20678,32.6508475 C153.20678,33.7627119 153.369492,34.6576271 153.708475,35.3355932 C154.047458,36.0135593 154.522034,36.3661017 155.159322,36.3661017 C155.79661,36.3661017 156.271186,36.0271186 156.610169,35.3355932 L156.610169,35.3355932 Z" id="Shape" fill="#007163" fill-rule="nonzero"></path>
                <path d="M24.9220339,27.8237288 C24.9220339,27.8237288 24.6779661,27.5525424 24.3525424,27.159322 C24.0271186,26.7661017 23.8915254,26.5627119 23.7423729,26.3322034 C23.5709944,26.0452686 23.3759672,25.7731377 23.159322,25.5186441 C22.9016949,25.1932203 22.4542373,24.8 22.020339,24.379661 C21.5864407,23.959322 21.1118644,23.5118644 20.8813559,23.3898305 C20.6760501,23.2669991 20.4513938,23.1798874 20.2169492,23.1322034 C19.9728814,23.0779661 19.6745763,23.0508475 19.6338983,23.2813559 C19.6338983,23.2813559 19.4711864,23.3220339 19.4169492,23.579661 C19.3961973,23.8149501 19.4693073,24.0489018 19.620339,24.2305085 C20.0052863,24.6671385 20.4126127,25.0835166 20.840678,25.4779661 C21.5560435,26.0381017 22.3233849,26.5284738 23.1322034,26.9423729 C23.6881356,27.2271186 24.0677966,27.2542373 24.2847458,27.4033898 C24.5016949,27.5525424 24.5288136,27.4847458 24.9220339,27.8237288 Z" id="Path" fill="url(#radialGradient-4)" fill-rule="nonzero"></path>
                <path d="M24.9220339,27.8237288 C24.9220339,27.8237288 24.6779661,27.5525424 24.3525424,27.159322 C24.0271186,26.7661017 23.8915254,26.5627119 23.7423729,26.3322034 C23.5709944,26.0452686 23.3759672,25.7731377 23.159322,25.5186441 C22.9016949,25.1932203 22.4542373,24.8 22.020339,24.379661 C21.5864407,23.959322 21.1118644,23.5118644 20.8813559,23.3898305 C20.6760501,23.2669991 20.4513938,23.1798874 20.2169492,23.1322034 C19.9728814,23.0779661 19.6745763,23.0508475 19.6338983,23.2813559 C19.6338983,23.2813559 19.4711864,23.3220339 19.4169492,23.579661 C19.3961973,23.8149501 19.4693073,24.0489018 19.620339,24.2305085 C20.0052863,24.6671385 20.4126127,25.0835166 20.840678,25.4779661 C21.5560435,26.0381017 22.3233849,26.5284738 23.1322034,26.9423729 C23.6881356,27.2271186 24.0677966,27.2542373 24.2847458,27.4033898 C24.5016949,27.5525424 24.5288136,27.4847458 24.9220339,27.8237288 Z" id="Path" fill="#007163" fill-rule="nonzero"></path>
                <path d="M19.6881356,23.2271186 L23.8372881,26.9152542 L19.5254237,23.4169492 C19.4779546,23.369621 19.4721921,23.2947093 19.5118644,23.240678 C19.532975,23.2147809 19.5637803,23.198672 19.5970932,23.1961094 C19.630406,23.1935469 19.6633127,23.204755 19.6881356,23.2271186 L19.6881356,23.2271186 Z" id="Path" fill="url(#linearGradient-5)" fill-rule="nonzero"></path>
                <polygon id="Path" fill="#F6D678" fill-rule="nonzero" points="20.1220339 23.7423729 18.7118644 23.0372881 19.0779661 22.5627119"></polygon>
                <path d="M17.3694915,31.9864407 C17.3609073,27.9219468 18.3379729,23.9159777 20.2169492,20.3118644 L20.2169492,20.3118644 C20.2169492,20.3118644 21.5050847,17.5186441 21.2881356,16.379661 L21.2881356,16.379661 L21.1661017,16.5016949 C15.4607023,24.4305364 14.570116,34.851959 18.8474576,43.6338983 C18.9521468,43.8380423 19.1604553,43.968235 19.3898305,43.9728814 C19.5935339,43.9626507 19.7793667,43.8534712 19.8874653,43.6805133 C19.995564,43.5075554 20.0122706,43.292672 19.9322034,43.1050847 C18.2324255,39.6459254 17.3553529,35.8406369 17.3694915,31.9864407 L17.3694915,31.9864407 Z" id="Path" fill="url(#linearGradient-6)" fill-rule="nonzero"></path>
                <path d="M6.46779661,18.3186441 C6.46779661,18.3186441 6.65762712,18.9966102 7.02372881,19.9186441 C7.38983051,20.840678 7.55254237,21.2610169 7.79661017,21.7355932 C8.09748664,22.3051078 8.36021154,22.8939739 8.58305085,23.4983051 C8.88135593,24.2440678 9.09830508,25.3694915 9.36949153,26.5084746 C9.64067797,27.6474576 9.93898305,28.8542373 9.91186441,29.3559322 C9.90361917,29.8158583 9.8305843,30.2723262 9.69491525,30.7118644 C9.53220339,31.1728814 9.28813559,31.7016949 8.86779661,31.5389831 C8.86779661,31.5389831 8.65084746,31.7694915 8.16271186,31.5932203 C7.67457627,31.4169492 7.40338983,30.9559322 7.26779661,30.6305085 C7.13220339,30.3050847 6.50847458,28.1627119 6.38644068,27.3898305 C6.1603314,25.6594982 6.09225371,23.9121709 6.18305085,22.1694915 C6.25084746,20.9627119 6.56271186,20.2983051 6.53559322,19.8101695 C6.50847458,19.3220339 6.63050847,19.2949153 6.46779661,18.3186441 Z" id="Path" fill="#007163" fill-rule="nonzero"></path>
                <path d="M8.6779661,31.6474576 L8.40677966,29.9661017 C8.32542373,29.4644068 8.23050847,28.8677966 8.13559322,28.2305085 C8.04067797,27.5932203 7.91864407,26.9288136 7.79661017,26.2644068 L7.63389831,25.2474576 L7.47118644,24.2847458 L7.14576271,22.5627119 C6.9559322,21.559322 6.83389831,20.8813559 6.83389831,20.8813559 C6.83389831,20.8813559 6.96949153,21.5457627 7.18644068,22.5491525 C7.28135593,23.0508475 7.40338983,23.6338983 7.53898305,24.2711864 C7.60677966,24.5830508 7.66101695,24.9084746 7.72881356,25.2338983 C7.79661017,25.559322 7.85084746,25.8983051 7.91864407,26.2372881 C8.04067797,26.9152542 8.17627119,27.579661 8.28474576,28.2033898 C8.39322034,28.8271186 8.51525424,29.4237288 8.59661017,29.9389831 L8.89491525,31.620339 C8.90344405,31.6833646 8.86213796,31.7423733 8.8,31.7559322 C8.73697437,31.764461 8.67796568,31.7231549 8.66440678,31.6610169 C8.67189539,31.6610169 8.6779661,31.6549462 8.6779661,31.6474576 L8.6779661,31.6474576 Z" id="Path" fill="url(#linearGradient-7)" fill-rule="nonzero"></path>
                <path d="M0.108474576,33.6813559 C0.108474576,33.6813559 0.555932203,33.640678 1.16610169,33.5457627 C1.58078539,33.4942265 1.99260745,33.4218182 2.4,33.3288136 C2.79624588,33.2168526 3.19935745,33.1307951 3.60677966,33.0711864 C4.1220339,33.0033898 4.84067797,33.0169492 5.58644068,33.0169492 C6.33220339,33.0169492 7.13220339,32.9762712 7.43050847,33.0711864 C7.71761394,33.1346107 7.99242293,33.2445343 8.2440678,33.3966102 C8.50169492,33.559322 8.81355932,33.7762712 8.65084746,34.020339 C8.65084746,34.020339 8.75932203,34.1966102 8.58305085,34.4677966 C8.40894716,34.6979186 8.15032836,34.8491862 7.86440678,34.8881356 C7.63389831,34.9152542 6.22372881,35.0237288 5.7220339,34.9830508 C4.6170482,34.8828199 3.52335305,34.6831411 2.45423729,34.3864407 C1.70847458,34.1694915 1.34237288,33.8847458 1.03050847,33.8305085 C0.718644068,33.7762712 0.73220339,33.7084746 0.108474576,33.6813559 Z" id="Path" fill="#007163" fill-rule="nonzero"></path>
                <path d="M8.69152542,34.2101695 L8.39322034,34.1830508 L7.60677966,34.1288136 L6.49491525,34.0610169 L5.87118644,34.0067797 L5.22033898,33.9661017 L1.74915254,33.8033898 L5.22033898,33.8576271 L6.49491525,33.8576271 L7.60677966,33.8983051 L8.40677966,33.9254237 L8.70508475,33.9254237 C8.76713825,33.9323603 8.81394582,33.9850188 8.8135617,34.0474576 C8.8135617,34.1148551 8.75892288,34.1694915 8.69152542,34.1694915 L8.69152542,34.2101695 Z" id="Path" fill="url(#linearGradient-8)" fill-rule="nonzero"></path>
                <polygon id="Path" fill="#F6D678" fill-rule="nonzero" points="7.85084746 34.0338983 10.0338983 33.8711864 9.99322034 34.4813559"></polygon>
                <polygon id="Path" fill="#F6D678" fill-rule="nonzero" points="8.56949153 30.3186441 9.23389831 32.6101695 8.63728814 32.7050847"></polygon>
                <path d="M24.4338983,56.3661017 C23.8858164,50.9943557 21.9565782,45.8559489 18.8338983,41.4508475 C16.0825797,37.5594285 12.4851385,34.3421293 8.31186441,32.040678 C7.94576271,31.8372881 6.03389831,30.9152542 3.89152542,31.2949153 L3.97288136,31.3491525 C4.8,31.6610169 5.61355932,32.0135593 6.4,32.3932203 C15.7288136,36.9627119 22.1830508,46.1830508 23.240678,56.4881356 C23.2688055,56.796287 23.5278584,57.0317895 23.8372881,57.0305137 L23.8915254,57.0305137 C24.052632,57.0169242 24.2013271,56.938536 24.3035686,56.8132902 C24.4058101,56.6880443 24.4528425,56.5266662 24.4338983,56.3661017 Z" id="Path" fill="url(#linearGradient-9)" fill-rule="nonzero"></path>
            </g>
        </g>
    </g>
</svg>