<svg id="Layer_1" data-name="Layer 1" xmlns="http://www.w3.org/2000/svg" xmlns:xlink="http://www.w3.org/1999/xlink" viewBox="0 0 159.5 63.79"><defs><radialGradient id="radial-gradient" cx="-454.31" cy="1033.23" r="1.01" gradientTransform="matrix(5.64, -1.51, -1.51, -5.64, 4155.54, 5161.15)" gradientUnits="userSpaceOnUse"><stop offset="0" stop-color="#44ab88"/><stop offset="1" stop-color="#007163"/></radialGradient><linearGradient id="linear-gradient" x1="-444.42" y1="945.14" x2="-443.61" y2="945.05" gradientTransform="matrix(12.86, 0, 0, -3.88, 5737.3, 3685.4)" gradientUnits="userSpaceOnUse"><stop offset="0" stop-color="#00c196"/><stop offset="1" stop-color="#00c196" stop-opacity="0"/></linearGradient><linearGradient id="linear-gradient-2" x1="-472.51" y1="1231.49" x2="-472.09" y2="1232.38" gradientTransform="matrix(52.77, 0, 0, -63.79, 24964.56, 78620.56)" gradientUnits="userSpaceOnUse"><stop offset="0" stop-color="#dba145"/><stop offset="1" stop-color="#ffe789"/></linearGradient><radialGradient id="radial-gradient-2" cx="-234.64" cy="1140.17" r="0.54" gradientTransform="matrix(3.41, 3.27, 3.27, -3.41, -2907.96, 4685.73)" xlink:href="#radial-gradient"/><linearGradient id="linear-gradient-3" x1="-371.24" y1="932.25" x2="-370.19" y2="931.56" gradientTransform="matrix(4.35, 0, 0, -3.72, 1635.02, 3491.3)" xlink:href="#linear-gradient"/><linearGradient id="linear-gradient-4" x1="-392.02" y1="1207.16" x2="-391.93" y2="1207.95" gradientTransform="matrix(5.38, 0, 0, -27.59, 2128.64, 33350.5)" xlink:href="#linear-gradient-2"/><linearGradient id="linear-gradient-5" x1="-247.78" y1="1142.05" x2="-247.74" y2="1141.05" gradientTransform="matrix(2.06, 0, 0, -10.88, 518.78, 12441.37)" gradientUnits="userSpaceOnUse"><stop offset="0" stop-color="#00c196" stop-opacity="0"/><stop offset="1" stop-color="#00c196"/></linearGradient><linearGradient id="linear-gradient-6" x1="-413.79" y1="-1662.65" x2="-412.77" y2="-1662.65" gradientTransform="matrix(7.06, 0, 0, -0.41, 2924.8, -642.32)" xlink:href="#linear-gradient-5"/><linearGradient id="linear-gradient-7" x1="-458.14" y1="1204.4" x2="-457.93" y2="1204.87" gradientTransform="matrix(20.55, 0, 0, -25.83, 9425.3, 31154.92)" gradientUnits="userSpaceOnUse"><stop offset="0.18" stop-color="#dca347"/><stop offset="1" stop-color="#ffe789"/></linearGradient></defs><path d="M37,15.48s-.83.15-2,.28a19.06,19.06,0,0,1-2.36.15,17.63,17.63,0,0,0-2.3.12,28.26,28.26,0,0,0-3.65.81,20.89,20.89,0,0,0-3.35.95,5.48,5.48,0,0,0-1.37.85c-.39.41-.8,1.09-.41,1.47,0,0-.12.35.33.77a2,2,0,0,0,1.52.44,37.14,37.14,0,0,0,4-.82A33.77,33.77,0,0,0,33,17.87c1.26-.73,1.79-1.42,2.34-1.67A8,8,0,0,1,37,15.48Z" transform="translate(-0.11 -0.08)" style="fill:url(#radial-gradient)"/><path d="M37,15.48s-.83.15-2,.28a19.06,19.06,0,0,1-2.36.15,17.63,17.63,0,0,0-2.3.12,28.26,28.26,0,0,0-3.65.81,20.89,20.89,0,0,0-3.35.95,5.48,5.48,0,0,0-1.37.85c-.39.41-.8,1.09-.41,1.47,0,0-.12.35.33.77a2,2,0,0,0,1.52.44,37.14,37.14,0,0,0,4-.82A33.77,33.77,0,0,0,33,17.87c1.26-.73,1.79-1.42,2.34-1.67A8,8,0,0,1,37,15.48Z" transform="translate(-0.11 -0.08)" style="fill:#007163"/><path d="M21.49,20l12.77-3.65-12.7,3.88a.13.13,0,0,1-.15-.08A.12.12,0,0,1,21.49,20Z" transform="translate(-0.11 -0.08)" style="fill:url(#linear-gradient)"/><path d="M19.19,20.53l3-.65-2.66,1.56Z" transform="translate(-0.11 -0.08)" style="fill:#f6d678"/><path d="M62.62,55.53l-.3.27-.35.34-.52.46-.66.55-.4.31-.42.33-.47.37-.52.35-.54.38-.61.38c-.21.14-.42.27-.64.39l-.67.39-.36.21-.38.19-.77.39c-.26.14-.54.24-.81.38l-.44.19-.43.18-.91.36-1,.34-1,.31c-.34.1-.69.21-1,.29l-1.07.27-1.13.22-.57.1-.6.09-.58.08-.61.07-.61.06-.61,0-.64,0-.31,0H41.13l-1.33-.06-.34,0-.34,0-.68-.07-.68-.07-.68-.09a30.14,30.14,0,0,1-5.55-1.34A31.66,31.66,0,0,1,16.37,51.12c-.33-.45-.67-.9-1-1.37-.16-.23-.31-.48-.46-.71l-.12-.17-.11-.19-.22-.35c-.13-.25-.28-.49-.43-.74s-.26-.51-.39-.76l-.4-.76-.35-.77a32.09,32.09,0,0,1-2.18-6.55l0-.2,0-.22-.08-.42L10.43,37c-.1-.57-.17-1.13-.23-1.72s-.1-1.15-.14-1.73l0-.87v-.91l0-.83v-.61c0-.08,0-.15,0-.23l.07-.88c0-.3,0-.61.08-.89l.11-.86.06-.43.08-.44.15-.85.08-.42.09-.42A31.77,31.77,0,0,1,13,18.43l.19-.38.08-.21.11-.19.39-.74.19-.38c.07-.14.15-.25.22-.38l.42-.73c.08-.13.15-.25.23-.36l.23-.36.46-.71c.15-.23.32-.44.49-.67l.49-.68a31.68,31.68,0,0,1,15.24-11A30.25,30.25,0,0,1,37.33.38,35,35,0,0,1,42.64.09l1.25.07.63.06.61.06c.2,0,.4,0,.61.07l.59.08.59.1.56.11a31.14,31.14,0,0,1,4.24,1.12,31.94,31.94,0,0,1,3.52,1.48c.53.27,1,.52,1.49.8l.69.39.63.4.59.39.56.38.52.37.46.36.42.33.2.16L61,7l.65.57c.2.16.37.32.52.46l.35.34.3.27-.33-.23-.41-.29c-.16-.1-.33-.25-.55-.39a32.48,32.48,0,0,0-3.83-2.24L57,5.14l-.7-.31c-.48-.22-1-.41-1.52-.63a31,31,0,0,0-3.51-1.09L50.83,3l-.48-.11-1-.2-1-.18c-.35-.05-.71-.08-1.07-.12l-.55-.06-.55-.05-.57,0L45,2.2H42.64a35.21,35.21,0,0,0-4.9.58l-.63.14a4.89,4.89,0,0,0-.64.14l-1.26.33-1.27.41-1.26.46a30.16,30.16,0,0,0-9.52,6,30.68,30.68,0,0,0-3.93,4.44l-.42.62a6.9,6.9,0,0,0-.42.63l-.41.63-.19.33-.19.32c-.12.23-.24.45-.38.67a1.42,1.42,0,0,0-.18.34l-.17.34c-.11.21-.23.44-.34.67l-.08.18-.08.16-.15.36a28.42,28.42,0,0,0-1.91,5.83l-.1.38c0,.12,0,.25-.07.37l-.13.76c0,.14,0,.26-.06.38l0,.4-.1.76c0,.27,0,.51-.06.76l-.06.74c0,.07,0,.12,0,.19v.63l0,.82v.72l0,.77c0,.52.07,1,.11,1.55s.12,1,.19,1.55l.13.75.07.38,0,.19,0,.19.16.75c.07.26.11.5.19.76l.21.73.11.38L15,41c.16.47.3,1,.5,1.45l.27.7a2.75,2.75,0,0,0,.15.36l.15.35c.11.23.22.46.31.7s.23.45.34.68l.35.68.37.66.19.33.09.16.1.16.39.64c.26.44.57.84.84,1.26A32.55,32.55,0,0,0,23,53.63a30,30,0,0,0,14.53,7.55l.62.14.62.09.63.1.29.05.32,0,1.19.13,1.25.07h2.9l.55,0,.56,0,.56-.06a29.88,29.88,0,0,0,4.09-.7l.94-.23.89-.27.44-.14.42-.15c.28-.09.55-.17.82-.28l.78-.3.38-.15.36-.16.71-.31c.23-.1.44-.22.65-.32a34.21,34.21,0,0,0,3.85-2.21,5.69,5.69,0,0,0,.55-.39l.41-.28Z" transform="translate(-0.11 -0.08)" style="fill:url(#linear-gradient-2)"/><path d="M62.62,55.53l-.3.27-.35.34-.52.46-.66.55-.4.31-.42.33-.47.37-.52.35-.54.38-.61.38c-.21.14-.42.27-.64.39l-.67.39-.36.21-.38.19-.77.39c-.26.14-.54.24-.81.38l-.44.19-.43.18-.91.36-1,.34-1,.31c-.34.1-.69.21-1,.29l-1.07.27-1.13.22-.57.1-.6.09-.58.08-.61.07-.61.06-.61,0-.64,0-.31,0H41.13l-1.33-.06-.34,0-.34,0-.68-.07-.68-.07-.68-.09a30.14,30.14,0,0,1-5.55-1.34A31.66,31.66,0,0,1,16.37,51.12c-.33-.45-.67-.9-1-1.37-.16-.23-.31-.48-.46-.71l-.12-.17-.11-.19-.22-.35c-.13-.25-.28-.49-.43-.74s-.26-.51-.39-.76l-.4-.76-.35-.77a32.09,32.09,0,0,1-2.18-6.55l0-.2,0-.22-.08-.42L10.43,37c-.1-.57-.17-1.13-.23-1.72s-.1-1.15-.14-1.73l0-.87v-.91l0-.83v-.61c0-.08,0-.15,0-.23l.07-.88c0-.3,0-.61.08-.89l.11-.86.06-.43.08-.44.15-.85.08-.42.09-.42A31.77,31.77,0,0,1,13,18.43l.19-.38.08-.21.11-.19.39-.74.19-.38c.07-.14.15-.25.22-.38l.42-.73c.08-.13.15-.25.23-.36l.23-.36.46-.71c.15-.23.32-.44.49-.67l.49-.68a31.68,31.68,0,0,1,15.24-11A30.25,30.25,0,0,1,37.33.38,35,35,0,0,1,42.64.09l1.25.07.63.06.61.06c.2,0,.4,0,.61.07l.59.08.59.1.56.11a31.14,31.14,0,0,1,4.24,1.12,31.94,31.94,0,0,1,3.52,1.48c.53.27,1,.52,1.49.8l.69.39.63.4.59.39.56.38.52.37.46.36.42.33.2.16L61,7l.65.57c.2.16.37.32.52.46l.35.34.3.27-.33-.23-.41-.29c-.16-.1-.33-.25-.55-.39a32.48,32.48,0,0,0-3.83-2.24L57,5.14l-.7-.31c-.48-.22-1-.41-1.52-.63a31,31,0,0,0-3.51-1.09L50.83,3l-.48-.11-1-.2-1-.18c-.35-.05-.71-.08-1.07-.12l-.55-.06-.55-.05-.57,0L45,2.2H42.64a35.21,35.21,0,0,0-4.9.58l-.63.14a4.89,4.89,0,0,0-.64.14l-1.26.33-1.27.41-1.26.46a30.16,30.16,0,0,0-9.52,6,30.68,30.68,0,0,0-3.93,4.44l-.42.62a6.9,6.9,0,0,0-.42.63l-.41.63-.19.33-.19.32c-.12.23-.24.45-.38.67a1.42,1.42,0,0,0-.18.34l-.17.34c-.11.21-.23.44-.34.67l-.08.18-.08.16-.15.36a28.42,28.42,0,0,0-1.91,5.83l-.1.38c0,.12,0,.25-.07.37l-.13.76c0,.14,0,.26-.06.38l0,.4-.1.76c0,.27,0,.51-.06.76l-.06.74c0,.07,0,.12,0,.19v.63l0,.82v.72l0,.77c0,.52.07,1,.11,1.55s.12,1,.19,1.55l.13.75.07.38,0,.19,0,.19.16.75c.07.26.11.5.19.76l.21.73.11.38L15,41c.16.47.3,1,.5,1.45l.27.7a2.75,2.75,0,0,0,.15.36l.15.35c.11.23.22.46.31.7s.23.45.34.68l.35.68.37.66.19.33.09.16.1.16.39.64c.26.44.57.84.84,1.26A32.55,32.55,0,0,0,23,53.63a30,30,0,0,0,14.53,7.55l.62.14.62.09.63.1.29.05.32,0,1.19.13,1.25.07h2.9l.55,0,.56,0,.56-.06a29.88,29.88,0,0,0,4.09-.7l.94-.23.89-.27.44-.14.42-.15c.28-.09.55-.17.82-.28l.78-.3.38-.15.36-.16.71-.31c.23-.1.44-.22.65-.32a34.21,34.21,0,0,0,3.85-2.21,5.69,5.69,0,0,0,.55-.39l.41-.28Z" transform="translate(-0.11 -0.08)" style="fill:none"/><path d="M80.42,42.79v1H77.33v8.45H76.26V43.78H73.18v-1Z" transform="translate(-0.11 -0.08)" style="fill:#007163"/><path d="M86.93,49.07h-5.8A2.5,2.5,0,0,0,83.7,51.4a3,3,0,0,0,2.2-.91l.58.62a3.78,3.78,0,0,1-2.86,1.16,3.59,3.59,0,0,1,0-7.17C85.9,45.1,87,46.67,86.93,49.07Zm-1-.83A2.24,2.24,0,0,0,83.61,46a2.36,2.36,0,0,0-2.48,2.26Z" transform="translate(-0.11 -0.08)" style="fill:#007163"/><path d="M92.31,45.1v1a2.37,2.37,0,0,0-2.55,2.34v3.77h-1V45.14h1v1.57A2.67,2.67,0,0,1,92.31,45.1Z" transform="translate(-0.11 -0.08)" style="fill:#007163"/><path d="M97.33,45.1v1a2.36,2.36,0,0,0-2.55,2.34v3.77H93.72V45.14h1.06v1.57A2.65,2.65,0,0,1,97.33,45.1Z" transform="translate(-0.11 -0.08)" style="fill:#007163"/><path d="M103.27,52.23v-1.1a3,3,0,0,1-2.61,1.14,2.19,2.19,0,0,1-2.41-2.14c0-1.22,1-2,2.66-2h2.33v-.44c0-1-.65-1.67-1.9-1.67a3.79,3.79,0,0,0-2.25.81l-.45-.73a4.75,4.75,0,0,1,2.91-1c1.74,0,2.72.93,2.73,2.44v4.69Zm0-2.44v-.85H101c-1.19,0-1.81.35-1.81,1.15s.63,1.31,1.64,1.31A2.27,2.27,0,0,0,103.25,49.79Z" transform="translate(-0.11 -0.08)" style="fill:#007163"/><path d="M109.57,46.05a2.65,2.65,0,0,0,0,5.3,2.81,2.81,0,0,0,2.2-.92l.61.62a3.59,3.59,0,0,1-2.85,1.22,3.59,3.59,0,0,1,0-7.17,3.8,3.8,0,0,1,2.74,1l-.58.73A3,3,0,0,0,109.57,46.05Z" transform="translate(-0.11 -0.08)" style="fill:#007163"/><path d="M120.24,49.07h-5.8A2.51,2.51,0,0,0,117,51.4a2.93,2.93,0,0,0,2.19-.91l.59.62a3.79,3.79,0,0,1-2.86,1.16,3.59,3.59,0,0,1,0-7.17C119.21,45.1,120.35,46.67,120.24,49.07Zm-.95-.83A2.22,2.22,0,0,0,116.92,46a2.38,2.38,0,0,0-2.48,2.26Z" transform="translate(-0.11 -0.08)" style="fill:#007163"/><path d="M38.18,36.5a6.38,6.38,0,0,1-2.4-2.41,6.94,6.94,0,0,1-.85-3.39,6.7,6.7,0,0,1,.76-3.22,5.51,5.51,0,0,1,2.15-2.26,6.22,6.22,0,0,1,3.2-.83,8.09,8.09,0,0,1,2.78.42,4,4,0,0,1,1.71,1.09,2,2,0,0,1,.41,1A11.35,11.35,0,0,1,46,28.47h-.56A4.17,4.17,0,0,0,44.18,26a3.92,3.92,0,0,0-2.58-.79,3.43,3.43,0,0,0-3.08,1.56,7.17,7.17,0,0,0-1,3.92c0,2.11.36,3.63,1.11,4.55a3.6,3.6,0,0,0,3,1.39,6.2,6.2,0,0,0,2.51-.48V32.85a2.07,2.07,0,0,1,.74-1.62,4.65,4.65,0,0,1,2.87-.64v.46c-.8,0-1.2.6-1.2,1.76v3.33a7.73,7.73,0,0,1-2.26.94,10.86,10.86,0,0,1-2.66.3A6.71,6.71,0,0,1,38.18,36.5Z" transform="translate(-0.11 -0.08)" style="fill:#007163"/><path d="M55.72,29a1.3,1.3,0,0,1,.14.32l-.94.71a3.61,3.61,0,0,0-.33-.35,1.34,1.34,0,0,0-1-.36,2.27,2.27,0,0,0-1.65.56l0,.28c0,.2,0,.41,0,.62V37H49.65V30.7a3,3,0,0,0-.25-1.4,1.09,1.09,0,0,0-1-.46h-.18v-.56H50a2.38,2.38,0,0,1,1,.17,1.22,1.22,0,0,1,.57.53,3.44,3.44,0,0,1,2.33-.87,2.3,2.3,0,0,1,1.33.36A1.62,1.62,0,0,1,55.72,29Z" transform="translate(-0.11 -0.08)" style="fill:#007163"/><path d="M58.71,36.6A4.08,4.08,0,0,1,57.22,35a5.07,5.07,0,0,1-.53-2.33,5.36,5.36,0,0,1,.53-2.47,3.68,3.68,0,0,1,1.46-1.54,4.14,4.14,0,0,1,2.09-.53,4.56,4.56,0,0,1,2.09.46,3.92,3.92,0,0,1,1.47,1.3,3.58,3.58,0,0,1,.52,1.94c0,.24,0,.5,0,.8l0,.38H59.2a4.71,4.71,0,0,0,.54,2.56,1.7,1.7,0,0,0,1.51.82A2.73,2.73,0,0,0,62.74,36a4.45,4.45,0,0,0,1.15-1.14l.58.42a4.87,4.87,0,0,1-1.35,1.4,3.64,3.64,0,0,1-2.16.55A4.15,4.15,0,0,1,58.71,36.6Zm3.65-4.45A5.46,5.46,0,0,0,62,29.67a1.28,1.28,0,0,0-1.18-.73,1.26,1.26,0,0,0-1.14.75,5.2,5.2,0,0,0-.43,2.46Z" transform="translate(-0.11 -0.08)" style="fill:#007163"/><path d="M68.45,36.6A4,4,0,0,1,66.94,35a5.07,5.07,0,0,1-.53-2.33,5.36,5.36,0,0,1,.53-2.47,3.7,3.7,0,0,1,1.47-1.54,4.05,4.05,0,0,1,2.1-.53,4.48,4.48,0,0,1,2.07.46,3.84,3.84,0,0,1,1.47,1.3,3.6,3.6,0,0,1,.54,1.94,7.91,7.91,0,0,1,0,.8l0,.38H68.92a4.71,4.71,0,0,0,.54,2.56,1.7,1.7,0,0,0,1.51.82A2.68,2.68,0,0,0,72.46,36a4.3,4.3,0,0,0,1.15-1.14l.59.42a4.87,4.87,0,0,1-1.35,1.4,3.7,3.7,0,0,1-2.17.55A4,4,0,0,1,68.45,36.6Zm3.63-4.45a5.33,5.33,0,0,0-.41-2.48,1.27,1.27,0,0,0-2.31,0,5.06,5.06,0,0,0-.44,2.46Z" transform="translate(-0.11 -0.08)" style="fill:#007163"/><path d="M76.8,30.7a3.11,3.11,0,0,0-.24-1.4,1.09,1.09,0,0,0-1-.46h-.19v-.56h1.84a2.58,2.58,0,0,1,1,.17,1.22,1.22,0,0,1,.57.53,4.66,4.66,0,0,1,5.34-.06A3.44,3.44,0,0,1,85,31.51V37H82.55V31.5a3,3,0,0,0-.46-1.87,1.58,1.58,0,0,0-1.3-.6,2.85,2.85,0,0,0-1,.16,1.74,1.74,0,0,0-.69.41l.06.27a2.92,2.92,0,0,1,.06.72V37H76.8Z" transform="translate(-0.11 -0.08)" style="fill:#007163"/><path d="M93.51,27.17a2.9,2.9,0,0,0-.26-1.39,1.13,1.13,0,0,0-1-.46H92v-.56h5a10.3,10.3,0,0,1,3.91.65,2.54,2.54,0,0,1,1.57,2.6,2.36,2.36,0,0,1-.68,1.6,3.65,3.65,0,0,1-1.9,1.07q3.13.32,3.13,2.93a2.68,2.68,0,0,1-1.54,2.66,9.11,9.11,0,0,1-3.93.75H93.51Zm3.81,3.14a2.88,2.88,0,0,0,1.89-.56,2.25,2.25,0,0,0,.7-1.83,2.11,2.11,0,0,0-.83-1.85,3.55,3.55,0,0,0-2-.56,3.29,3.29,0,0,0-.77.06l-.34.07v4.67Zm0,6a3.59,3.59,0,0,0,2.34-.68,2.28,2.28,0,0,0,.8-1.88c0-1.71-1-2.56-3.14-2.56h-1.4v4.93a1.61,1.61,0,0,0,.36.1,5,5,0,0,0,.94.09Z" transform="translate(-0.11 -0.08)" style="fill:#007163"/><path d="M105.45,36.52a2.22,2.22,0,0,1-.83-1.84,2.7,2.7,0,0,1,.44-1.53,2.81,2.81,0,0,1,1.53-.93,11.18,11.18,0,0,1,3-.31h.27a4.35,4.35,0,0,0-.45-2.3,1.46,1.46,0,0,0-1.31-.67,1.85,1.85,0,0,0-1.18.35,2.22,2.22,0,0,0-.68,1.31h-1a6.44,6.44,0,0,1,.09-1.07,1.55,1.55,0,0,1,.38-.78c.38-.42,1.31-.64,2.78-.64a3.86,3.86,0,0,1,2.83,1,4,4,0,0,1,1,2.93v5h-1.58l-.65-.84H110a2.1,2.1,0,0,1-.52.51,2.64,2.64,0,0,1-1.71.5A3.55,3.55,0,0,1,105.45,36.52Zm3.55-.41a2.13,2.13,0,0,0,.55-.44,1.7,1.7,0,0,0,.36-.61V32.75h-.27a3,3,0,0,0-1.91.47,1.79,1.79,0,0,0-.6,1.46,1.67,1.67,0,0,0,.31,1.18,1.06,1.06,0,0,0,.9.41A1.27,1.27,0,0,0,109,36.11Z" transform="translate(-0.11 -0.08)" style="fill:#007163"/><path d="M115,30.7a3.09,3.09,0,0,0-.25-1.4,1.07,1.07,0,0,0-1-.46h-.19v-.56h1.83a1.65,1.65,0,0,1,1.59.71H117a3.43,3.43,0,0,1,2.34-.88,3.5,3.5,0,0,1,1.59.34,2.66,2.66,0,0,1,1,.72,3.28,3.28,0,0,1,1.07-.78,3.72,3.72,0,0,1,1.58-.28c2.15,0,3.24,1.14,3.24,3.4V37h-2.42V31.5a3.37,3.37,0,0,0-.4-1.87,1.25,1.25,0,0,0-1.08-.6,2.26,2.26,0,0,0-.92.19,1.9,1.9,0,0,0-.68.52,2.74,2.74,0,0,1,.15.4,5.28,5.28,0,0,1,.15,1.37V37h-2.41V31.5a3.36,3.36,0,0,0-.41-1.87,1.24,1.24,0,0,0-1.07-.6,1.8,1.8,0,0,0-.81.23,2.09,2.09,0,0,0-.63.52l.06.25a2.53,2.53,0,0,1,.08.72V37H115Z" transform="translate(-0.11 -0.08)" style="fill:#007163"/><path d="M133,36.69a1.74,1.74,0,0,1-.5-.51h-.09l-.65.84h-1.58V27.17a3,3,0,0,0-.25-1.39,1.12,1.12,0,0,0-1.05-.46h-.19v-.56H131a2,2,0,0,1,1,.23,1.38,1.38,0,0,1,.5.73,5.91,5.91,0,0,1,.15,1.45v1.49a3.15,3.15,0,0,1,.51-.28,3.9,3.9,0,0,1,1.43-.27,3.62,3.62,0,0,1,3,1.26,5.14,5.14,0,0,1,1,3.28,5,5,0,0,1-1,3.27,3.51,3.51,0,0,1-2.89,1.27,2.52,2.52,0,0,1-1.63-.5Zm2.59-1.33a7,7,0,0,0,.44-2.71c0-2.48-.63-3.71-1.86-3.71a2.49,2.49,0,0,0-1.14.28l-.43.27v5.67a1.9,1.9,0,0,0,.4.61,1.73,1.73,0,0,0,1.27.6A1.41,1.41,0,0,0,135.63,35.36Z" transform="translate(-0.11 -0.08)" style="fill:#007163"/><path d="M142.29,36.6A4.26,4.26,0,0,1,140.75,35a4.91,4.91,0,0,1-.55-2.31,5.08,5.08,0,0,1,.55-2.32,4.21,4.21,0,0,1,1.54-1.62,4.49,4.49,0,0,1,2.37-.6,4.38,4.38,0,0,1,2.36.6,4.12,4.12,0,0,1,1.56,1.62,5.32,5.32,0,0,1,0,4.63A4,4,0,0,1,147,36.6a4.5,4.5,0,0,1-2.36.59A4.66,4.66,0,0,1,142.29,36.6Zm3.83-1.26a6.36,6.36,0,0,0,.5-2.69,6.44,6.44,0,0,0-.5-2.7,1.56,1.56,0,0,0-1.46-1,1.58,1.58,0,0,0-1.45,1,6.11,6.11,0,0,0-.5,2.7,6.36,6.36,0,0,0,.5,2.69,1.6,1.6,0,0,0,1.45,1A1.58,1.58,0,0,0,146.12,35.34Z" transform="translate(-0.11 -0.08)" style="fill:#007163"/><path d="M152.79,36.6A4,4,0,0,1,151.24,35a5.23,5.23,0,0,1,0-4.63,4,4,0,0,1,1.55-1.62,5,5,0,0,1,4.73,0,4.12,4.12,0,0,1,1.56,1.62,5.32,5.32,0,0,1,0,4.63,4.17,4.17,0,0,1-1.56,1.64,5,5,0,0,1-4.73,0Zm3.82-1.26a6.22,6.22,0,0,0,.49-2.69,6.3,6.3,0,0,0-.49-2.7,1.55,1.55,0,0,0-1.45-1,1.58,1.58,0,0,0-1.45,1,6.11,6.11,0,0,0-.5,2.7,6.06,6.06,0,0,0,.5,2.69,1.6,1.6,0,0,0,1.45,1A1.57,1.57,0,0,0,156.61,35.34Z" transform="translate(-0.11 -0.08)" style="fill:#007163"/><path d="M24.92,27.82l-.57-.66a8.15,8.15,0,0,1-.61-.83,5.7,5.7,0,0,0-.58-.81A15.21,15.21,0,0,0,22,24.38a7.75,7.75,0,0,0-1.14-1,2.22,2.22,0,0,0-.66-.26c-.25-.05-.55-.08-.59.15,0,0-.16,0-.21.3a.9.9,0,0,0,.2.65c.39.44.79.85,1.22,1.25a14.09,14.09,0,0,0,2.29,1.46c.56.29.94.31,1.15.46A2.82,2.82,0,0,1,24.92,27.82Z" transform="translate(-0.11 -0.08)" style="fill:url(#radial-gradient-2)"/><path d="M24.92,27.82l-.57-.66a8.15,8.15,0,0,1-.61-.83,5.7,5.7,0,0,0-.58-.81A15.21,15.21,0,0,0,22,24.38a7.75,7.75,0,0,0-1.14-1,2.22,2.22,0,0,0-.66-.26c-.25-.05-.55-.08-.59.15,0,0-.16,0-.21.3a.9.9,0,0,0,.2.65c.39.44.79.85,1.22,1.25a14.09,14.09,0,0,0,2.29,1.46c.56.29.94.31,1.15.46A2.82,2.82,0,0,1,24.92,27.82Z" transform="translate(-0.11 -0.08)" style="fill:#007163"/><path d="M19.69,23.23l4.15,3.69-4.31-3.5a.14.14,0,0,1,0-.18.1.1,0,0,1,.09,0A.09.09,0,0,1,19.69,23.23Z" transform="translate(-0.11 -0.08)" style="fill:url(#linear-gradient-3)"/><path d="M20.12,23.74,18.71,23l.37-.48Z" transform="translate(-0.11 -0.08)" style="fill:#f6d678"/><path d="M17.37,32a25.13,25.13,0,0,1,2.85-11.68c1.88-3.6,1.29-2.79,1.07-3.93l-.12.12a26.53,26.53,0,0,0-2.32,27.13.6.6,0,0,0,.54.34.64.64,0,0,0,.5-.29.61.61,0,0,0,0-.57A25.08,25.08,0,0,1,17.37,32Z" transform="translate(-0.11 -0.08)" style="fill:url(#linear-gradient-4)"/><path d="M6.47,18.32s.19.68.55,1.6.53,1.34.78,1.82a13.84,13.84,0,0,1,.78,1.76,24.54,24.54,0,0,1,.79,3,15.36,15.36,0,0,1,.54,2.85,4.77,4.77,0,0,1-.22,1.35c-.16.46-.4,1-.82.83,0,0-.22.23-.71.05a1.59,1.59,0,0,1-.89-1,27.15,27.15,0,0,1-.88-3.24,28.48,28.48,0,0,1-.21-5.22c.07-1.21.38-1.87.36-2.36A6.52,6.52,0,0,0,6.47,18.32Z" transform="translate(-0.11 -0.08)" style="fill:#007163"/><path d="M8.68,31.65,8.41,30c-.08-.51-.18-1.1-.27-1.74s-.22-1.3-.34-2l-.17-1-.16-1-.32-1.72-.32-1.68s.14.67.36,1.67c.09.5.21,1.08.35,1.72.07.31.12.64.19,1s.12.67.19,1c.12.68.26,1.34.36,2s.24,1.22.32,1.74l.29,1.68a.13.13,0,0,1-.09.14.15.15,0,0,1-.14-.1Z" transform="translate(-0.11 -0.08)" style="fill:url(#linear-gradient-5)"/><path d="M.11,33.68s.45,0,1.06-.13c.41-.06.82-.13,1.23-.22a10,10,0,0,1,1.21-.26,17.07,17.07,0,0,1,2,0,10.75,10.75,0,0,1,1.84,0,2.39,2.39,0,0,1,.81.33c.26.16.57.38.41.62a.43.43,0,0,1-.07.45,1.07,1.07,0,0,1-.72.42A18.66,18.66,0,0,1,5.72,35a19.17,19.17,0,0,1-3.27-.59c-.74-.22-1.11-.51-1.42-.56A3.93,3.93,0,0,0,.11,33.68Z" transform="translate(-0.11 -0.08)" style="fill:#007163"/><path d="M8.69,34.21l-.3,0-.78,0-1.12-.07L5.87,34l-.65,0L1.75,33.8l3.47.06H6.49l1.12,0,.8,0h.3a.11.11,0,0,1,.1.12.12.12,0,0,1-.12.12Z" transform="translate(-0.11 -0.08)" style="fill:url(#linear-gradient-6)"/><path d="M7.85,34,10,33.87l0,.61Z" transform="translate(-0.11 -0.08)" style="fill:#f6d678"/><path d="M8.57,30.32l.66,2.29-.59.1Z" transform="translate(-0.11 -0.08)" style="fill:#f6d678"/><path d="M24.43,56.37a31.13,31.13,0,0,0-5.6-14.92A31.45,31.45,0,0,0,8.31,32a7.38,7.38,0,0,0-4.42-.75l.08.06c.83.31,1.64.66,2.43,1a30.51,30.51,0,0,1,16.84,24.1.6.6,0,0,0,.6.54h.05a.56.56,0,0,0,.41-.22A.54.54,0,0,0,24.43,56.37Z" transform="translate(-0.11 -0.08)" style="fill:url(#linear-gradient-7)"/></svg>