<?xml version="1.0" encoding="UTF-8"?>
<svg width="55px" height="55px" viewBox="0 0 55 55" version="1.1" xmlns="http://www.w3.org/2000/svg" xmlns:xlink="http://www.w3.org/1999/xlink">
    <title>application@2x</title>
    <g id="Web-Dev-Service" stroke="none" stroke-width="1" fill="none" fill-rule="evenodd">
        <g id="Web-Dev-Service_Desktop-1280x850-Rev" transform="translate(-868.000000, -3274.000000)" fill-rule="nonzero">
            <g id="application" transform="translate(868.000000, 3274.000000)">
                <path d="M18.5170341,30.8617234 C16.5683367,30.8617234 14.98998,29.2833667 14.98998,27.3346693 C14.98998,25.3859719 16.5683367,23.8076152 18.5170341,23.8076152 C18.8609218,23.8076152 19.2048096,23.860521 19.5222445,23.957515 C19.4428858,23.6224449 19.3987976,23.2785571 19.3987976,22.9258517 C19.3987976,20.4921844 21.3739479,18.5170341 23.8076152,18.5170341 C24.8048898,18.5170341 25.713988,18.8609218 26.4529058,19.4190782 L26.4529058,7.05410822 C26.4529058,6.08152305 25.6619639,5.29058116 24.6893788,5.29058116 L5.29058116,5.29058116 C4.31799599,5.29058116 3.52705411,6.08152305 3.52705411,7.05410822 L3.52705411,42.3246493 C3.52705411,43.2972345 4.31799599,44.0881764 5.29058116,44.0881764 L24.6893788,44.0881764 C25.6619639,44.0881764 26.4529058,43.2972345 26.4529058,42.3246493 L26.4529058,30.8617234 L18.5170341,30.8617234 Z" id="Path" fill="#FBC935"></path>
                <g id="Group" fill="#000000">
                    <polygon id="Path" points="47.6152305 24.6893788 49.3787575 24.6893788 49.3787575 26.4529058 47.6152305 26.4529058"></polygon>
                    <polygon id="Path" points="44.0881764 24.6893788 45.8517034 24.6893788 45.8517034 26.4529058 44.0881764 26.4529058"></polygon>
                    <polygon id="Path" points="40.5611222 24.6893788 42.3246493 24.6893788 42.3246493 26.4529058 40.5611222 26.4529058"></polygon>
                    <path d="M37.0340681,14.1082164 L52.9058116,14.1082164 C53.8783968,14.1082164 54.6693387,13.3172745 54.6693387,12.3446894 L54.6693387,1.76352705 C54.6693387,0.790941884 53.8783968,0 52.9058116,0 L37.0340681,0 C36.061483,0 35.2705411,0.790941884 35.2705411,1.76352705 L35.2705411,3.52705411 L33.507014,3.52705411 C32.5344289,3.52705411 31.743487,4.31799599 31.743487,5.29058116 L31.743487,19.3987976 L29.9799599,19.3987976 L29.9799599,4.40881764 C29.9799599,1.97779559 28.0021643,0 25.5711423,0 L4.40881764,0 C1.97779559,0 0,1.97779559 0,4.40881764 L0,50.260521 C0,52.6915431 1.97779559,54.6693387 4.40881764,54.6693387 L25.5711423,54.6693387 C28.0021643,54.6693387 29.9799599,52.6915431 29.9799599,50.260521 L29.9799599,31.743487 L31.743487,31.743487 L31.743487,45.8517034 C31.743487,46.8242886 32.5344289,47.6152305 33.507014,47.6152305 L37.4608417,47.6152305 C37.7835671,48.3955912 38.2773547,49.1027655 38.9272144,49.6723848 L44.9699399,54.9594389 L51.0126653,49.6723848 C52.2153908,48.6186774 52.9058116,47.098517 52.9058116,45.4998798 L52.9058116,45.2794389 C52.9058116,44.3253707 52.6262926,43.4021643 52.0972345,42.6076954 C51.2419238,41.326493 49.8125852,40.5611222 48.2721443,40.5611222 C47.0438477,40.5611222 45.8896192,41.0390381 45.0219639,41.9075752 L44.9699399,41.9595992 L44.9179158,41.9075752 C44.0502605,41.0390381 42.8951503,40.5611222 41.6677355,40.5611222 C40.1272946,40.5611222 38.6979559,41.326493 37.8426453,42.6076954 C37.3135872,43.4012826 37.0340681,44.3253707 37.0340681,45.2785571 L37.0340681,45.498998 C37.0340681,45.6171543 37.0455311,45.7335471 37.0525852,45.8508216 L33.507014,45.8508216 L33.507014,31.743487 C33.507014,31.0301403 33.0802405,30.4181964 32.4700601,30.1404409 C33.1075752,29.3759519 33.507014,28.406012 33.507014,27.3346693 C33.507014,27.0331062 33.4761523,26.7377154 33.4179559,26.4529058 L35.2705411,26.4529058 L35.2705411,29.9799599 C35.2705411,30.9525451 36.061483,31.743487 37.0340681,31.743487 L40.5611222,31.743487 L40.5611222,33.2133868 C40.5611222,34.3473347 41.4843287,35.2705411 42.6182766,35.2705411 C43.2619639,35.2705411 43.8774349,34.9628056 44.2636473,34.4478557 L46.2925852,31.743487 L52.9058116,31.743487 C53.8783968,31.743487 54.6693387,30.9525451 54.6693387,29.9799599 L54.6693387,21.1623246 C54.6693387,20.1897395 53.8783968,19.3987976 52.9058116,19.3987976 L37.0340681,19.3987976 C36.061483,19.3987976 35.2705411,20.1897395 35.2705411,21.1623246 L35.2705411,24.6893788 L32.6023246,24.6893788 C31.9665731,23.8490581 31.0486573,23.2327054 29.9799599,23.0149098 L29.9799599,21.1623246 L31.743487,21.1623246 C32.7160721,21.1623246 33.507014,20.3713828 33.507014,19.3987976 L33.507014,5.29058116 L35.2705411,5.29058116 L35.2705411,12.3446894 C35.2705411,13.3172745 36.061483,14.1082164 37.0340681,14.1082164 Z M38.7975952,45.2794389 C38.7975952,44.6745491 38.9748297,44.0890581 39.3098998,43.5873347 C39.8371944,42.7963928 40.7180762,42.3246493 41.6677355,42.3246493 C42.4242886,42.3246493 43.1358717,42.6191583 43.6711022,43.1543888 L44.9699399,44.4532265 L46.2687776,43.1543888 C46.804008,42.6191583 47.5155912,42.3246493 48.2721443,42.3246493 C49.2218036,42.3246493 50.1026854,42.7963928 50.62998,43.5864529 C50.9650501,44.0890581 51.1422846,44.6745491 51.1422846,45.2794389 L51.1422846,45.4998798 C51.1422846,46.5897395 50.6714228,47.6266934 49.8513828,48.3453307 L44.9699399,52.6157114 L40.088497,48.3444489 C39.2684569,47.6266934 38.7975952,46.5897395 38.7975952,45.4998798 L38.7975952,45.2794389 Z M37.0340681,21.1623246 L52.9058116,21.1623246 L52.9066934,29.9799599 L45.4108216,29.9799599 L42.8537074,33.3897395 C42.7011623,33.5925451 42.3246493,33.4682164 42.3246493,33.2133868 L42.3246493,29.9799599 L37.0340681,29.9799599 L37.0340681,21.1623246 Z M25.5711423,52.9058116 L4.40881764,52.9058116 C2.95038076,52.9058116 1.76352705,51.7189579 1.76352705,50.260521 L1.76352705,4.40881764 C1.76352705,2.95038076 2.95038076,1.76352705 4.40881764,1.76352705 L10.5811623,1.76352705 L10.5811623,5.29058116 L12.3446894,5.29058116 L12.3446894,1.76352705 L17.6352705,1.76352705 L17.6352705,5.29058116 L19.3987976,5.29058116 L19.3987976,1.76352705 L25.5711423,1.76352705 C27.0295792,1.76352705 28.2164329,2.95038076 28.2164329,4.40881764 L28.2164329,20.0072144 C27.2676553,18.5787575 25.6469739,17.6352705 23.8076152,17.6352705 C23.5069339,17.6352705 23.2133066,17.6661323 22.9258517,17.7146293 L22.9258517,10.5811623 L7.05410822,10.5811623 L7.05410822,21.1623246 L18.8256513,21.1623246 C18.6298998,21.7151904 18.5170341,22.3068537 18.5170341,22.9258517 C16.086012,22.9258517 14.1082164,24.9036473 14.1082164,27.3346693 C14.1082164,29.7656914 16.086012,31.743487 18.5170341,31.743487 L28.2164329,31.743487 L28.2164329,50.260521 C28.2164329,51.7189579 27.0295792,52.9058116 25.5711423,52.9058116 Z M19.8749499,19.3987976 L8.81763527,19.3987976 L8.81763527,12.3446894 L21.1623246,12.3446894 L21.1623246,18.3512625 C20.6791182,18.6316633 20.2461723,18.9861323 19.8749499,19.3987976 Z M31.743487,27.3346693 C31.743487,28.7931062 30.5566333,29.9799599 29.0981964,29.9799599 L18.5170341,29.9799599 C17.0585972,29.9799599 15.8717435,28.7931062 15.8717435,27.3346693 C15.8717435,25.8762325 17.0585972,24.6893788 18.5170341,24.6893788 C18.7674549,24.6893788 19.0266934,24.7272946 19.2647695,24.800481 L20.7355511,25.2492986 L20.3793186,23.7529459 C20.3140681,23.4751904 20.2805611,23.1974349 20.2805611,22.9258517 C20.2805611,20.9806814 21.8624449,19.3987976 23.8076152,19.3987976 C25.7527856,19.3987976 27.3346693,20.9806814 27.3346693,22.9258517 C27.3346693,23.1974349 27.3011623,23.4751904 27.2350301,23.7529459 L26.8787976,25.2492986 L28.3495792,24.800481 C28.5885371,24.7272946 28.8477756,24.6893788 29.0981964,24.6893788 C30.5566333,24.6893788 31.743487,25.8762325 31.743487,27.3346693 Z M42.8431263,8.00905812 C43.429499,8.53018036 44.1842886,8.81763527 44.9699399,8.81763527 C45.7555912,8.81763527 46.5103808,8.53018036 47.0967535,8.00905812 L47.2166733,7.90236473 L51.658998,12.3446894 L38.2808818,12.3446894 L42.7232064,7.90236473 L42.8431263,8.00905812 Z M48.5366733,6.72873747 L52.9058116,2.8454509 L52.9066934,11.0987575 L48.5366733,6.72873747 Z M45.9248898,6.69082164 C45.398477,7.15903808 44.5414028,7.15991984 44.01499,6.69082164 L38.4722244,1.76352705 L51.4685371,1.76352705 L45.9248898,6.69082164 Z M41.4032064,6.72873747 L37.0340681,11.0978758 L37.0340681,2.8454509 L41.4032064,6.72873747 Z" id="Shape"></path>
                    <polygon id="Path" points="14.1082164 3.52705411 15.8717435 3.52705411 15.8717435 5.29058116 14.1082164 5.29058116"></polygon>
                    <path d="M17.6352705,45.8517034 L12.3446894,45.8517034 C11.3721042,45.8517034 10.5811623,46.6426453 10.5811623,47.6152305 L10.5811623,49.3787575 C10.5811623,50.3513427 11.3721042,51.1422846 12.3446894,51.1422846 L17.6352705,51.1422846 C18.6078557,51.1422846 19.3987976,50.3513427 19.3987976,49.3787575 L19.3987976,47.6152305 C19.3987976,46.6426453 18.6078557,45.8517034 17.6352705,45.8517034 Z M12.3446894,49.3787575 L12.3446894,47.6152305 L17.6352705,47.6152305 L17.6361523,49.3787575 L12.3446894,49.3787575 Z" id="Shape"></path>
                    <polygon id="Path" points="7.05410822 37.0340681 14.1082164 37.0340681 14.1082164 38.7975952 7.05410822 38.7975952"></polygon>
                    <polygon id="Path" points="15.8717435 37.0340681 22.9258517 37.0340681 22.9258517 38.7975952 15.8717435 38.7975952"></polygon>
                    <polygon id="Path" points="7.05410822 29.9799599 14.1082164 29.9799599 14.1082164 31.743487 7.05410822 31.743487"></polygon>
                    <polygon id="Path" points="7.05410822 22.9258517 8.81763527 22.9258517 8.81763527 24.6893788 7.05410822 24.6893788"></polygon>
                    <polygon id="Path" points="10.5811623 22.9258517 12.3446894 22.9258517 12.3446894 24.6893788 10.5811623 24.6893788"></polygon>
                    <polygon id="Path" points="7.05410822 33.507014 22.9258517 33.507014 22.9258517 35.2705411 7.05410822 35.2705411"></polygon>
                </g>
            </g>
        </g>
    </g>
</svg>