<?xml version="1.0" encoding="UTF-8"?>
<svg width="55px" height="55px" viewBox="0 0 55 55" version="1.1" xmlns="http://www.w3.org/2000/svg" xmlns:xlink="http://www.w3.org/1999/xlink">
    <title>graphic-design@2x</title>
    <g id="Web-Dev-Service" stroke="none" stroke-width="1" fill="none" fill-rule="evenodd">
        <g id="Web-Dev-Service_Desktop-1280x850-Rev" transform="translate(-182.000000, -3053.000000)" fill-rule="nonzero">
            <g id="graphic-design" transform="translate(182.000000, 3053.000000)">
                <path d="M55,18.37 L55,11.7912903 L53.3801613,11.22 C53.3251613,11.0807258 53.2675,10.9414516 53.2062903,10.8021774 L53.9479032,9.25064516 L51.3558065,6.65854839 L48.1737903,8.93129032 C47.666371,9.29322581 47.0897581,9.53185484 46.4856452,9.65604839 C48.3875806,10.7170161 49.6774194,12.7466935 49.6774194,15.0806452 C49.6774194,18.5101613 46.8972581,21.2903226 43.4677419,21.2903226 C40.0382258,21.2903226 37.2580645,18.5101613 37.2580645,15.0806452 C37.2580645,11.9270161 39.6097581,9.3216129 42.6551613,8.92330645 L42.6729032,8.92685484 C42.2142742,8.59951613 41.8212903,8.18879032 41.516129,7.71419355 L40.8064516,7.82508065 L40.8064516,7.98387097 C40.8064516,8.9641129 40.0125,9.75806452 39.0322581,9.75806452 L33.2297581,9.75806452 L33.7300806,10.8030645 C33.668871,10.9414516 33.6103226,11.0807258 33.5562097,11.2208871 L31.9354839,11.7912903 L31.9354839,18.37 L33.5553226,18.9412903 C33.6103226,19.0805645 33.6679839,19.2198387 33.7291935,19.3591129 L32.9875806,20.9106452 L37.6377419,25.5608065 L39.1892742,24.8191935 C39.3276613,24.8804032 39.4669355,24.9389516 39.6070968,24.9930645 L40.1783871,26.6129032 L46.7570968,26.6129032 L47.3283871,24.9930645 C47.4676613,24.9380645 47.6069355,24.8804032 47.7462097,24.8191935 L49.2977419,25.5608065 L53.9479032,20.9106452 L53.2062903,19.3591129 C53.2675,19.2207258 53.3260484,19.0814516 53.3801613,18.9412903 L55,18.37 Z" id="Path" fill="#FBC935"></path>
                <polygon id="Path" fill="#FBC935" points="19.516129 21.2903226 30.1612903 21.2903226 30.1612903 32.8225806 19.516129 32.8225806"></polygon>
                <g id="Group" fill="#000000">
                    <polygon id="Path" points="7.09677419 39.0322581 8.87096774 39.0322581 8.87096774 40.8064516 7.09677419 40.8064516"></polygon>
                    <polygon id="Path" points="10.6451613 39.0322581 12.4193548 39.0322581 12.4193548 40.8064516 10.6451613 40.8064516"></polygon>
                    <polygon id="Path" points="14.1935484 39.0322581 15.9677419 39.0322581 15.9677419 40.8064516 14.1935484 40.8064516"></polygon>
                    <path d="M51.4516129,35.483871 L3.5483871,35.483871 L3.5483871,10.3346774 C4.10459677,10.5316129 4.69983871,10.6451613 5.32258065,10.6451613 L37.9420161,10.6451613 C36.96,11.8684677 36.3709677,13.4146774 36.3709677,15.0806452 C36.3709677,18.993629 39.5547581,22.1774194 43.4677419,22.1774194 C47.3807258,22.1774194 50.5645161,18.993629 50.5645161,15.0806452 C50.5645161,13.0829032 49.7217742,11.2155645 48.2970968,9.88935484 C48.4283871,9.81129032 48.5632258,9.74209677 48.6874194,9.6525 L54.7525,5.32258065 L48.6891935,0.991774194 C47.7816935,0.343306452 46.7118548,1.96975053e-16 45.5941129,1.96975053e-16 L45.2419355,1.96975053e-16 C43.7640323,1.96975053e-16 42.4254032,0.606774194 41.4602419,1.58258065 C41.0450806,0.652016129 40.1154032,1.96975053e-16 39.0322581,1.96975053e-16 L5.32258065,1.96975053e-16 C2.38717742,1.96975053e-16 6.30320169e-15,2.38717742 6.30320169e-15,5.32258065 C6.30320169e-15,6.89362903 0.688387097,8.30322581 1.77419355,9.27903226 L1.77419355,39.9193548 C1.77419355,42.3650806 3.76395161,44.3548387 6.20967742,44.3548387 L20.3704032,44.3548387 C20.221371,45.7697581 19.4859677,47.0525 18.333629,47.9032258 L15.9677419,47.9032258 C13.5220161,47.9032258 11.5322581,49.8929839 11.5322581,52.3387097 C11.5322581,53.8059677 12.7262903,55 14.1935484,55 L40.8064516,55 C42.2737097,55 43.4677419,53.8059677 43.4677419,52.3387097 C43.4677419,49.8929839 41.4779839,47.9032258 39.0322581,47.9032258 L36.6672581,47.9032258 C35.5149194,47.0525 34.7795161,45.7697581 34.6304839,44.3548387 L48.7903226,44.3548387 C51.2360484,44.3548387 53.2258065,42.3650806 53.2258065,39.9193548 L53.2258065,21.6318548 L51.4516129,23.4060484 L51.4516129,35.483871 Z M31.0483871,8.87096774 L29.2741935,8.87096774 L29.2741935,1.77419355 L31.0483871,1.77419355 L31.0483871,8.87096774 Z M32.8225806,1.77419355 L34.5967742,1.77419355 L34.5967742,8.87096774 L32.8225806,8.87096774 L32.8225806,1.77419355 Z M48.7903226,15.0806452 C48.7903226,18.0160484 46.4031452,20.4032258 43.4677419,20.4032258 C40.5323387,20.4032258 38.1451613,18.0160484 38.1451613,15.0806452 C38.1451613,12.5160484 39.9956452,10.3355645 42.4857258,9.86717742 C43.2912097,10.3577419 44.2324194,10.6451613 45.2419355,10.6451613 L45.5941129,10.6451613 C45.833629,10.6451613 46.0695968,10.6220968 46.3037903,10.5901613 C47.8420161,11.5633065 48.7903226,13.2470161 48.7903226,15.0806452 L48.7903226,15.0806452 Z M45.2419355,1.77419355 L45.5941129,1.77419355 C46.3392742,1.77419355 47.0525,2.00306452 47.6566129,2.43508065 L51.6991129,5.32258065 L47.6557258,8.21008065 C47.0525,8.64209677 46.3392742,8.87096774 45.5941129,8.87096774 L45.2419355,8.87096774 C43.285,8.87096774 41.6935484,7.27951613 41.6935484,5.32258065 C41.6935484,3.36564516 43.285,1.77419355 45.2419355,1.77419355 L45.2419355,1.77419355 Z M39.9193548,2.66129032 L39.9193548,7.98387097 C39.9193548,8.47354839 39.5219355,8.87096774 39.0322581,8.87096774 L36.3709677,8.87096774 L36.3709677,1.77419355 L39.0322581,1.77419355 C39.5219355,1.77419355 39.9193548,2.1716129 39.9193548,2.66129032 Z M5.32258065,1.77419355 L27.5,1.77419355 L27.5,8.87096774 L5.32258065,8.87096774 C3.36564516,8.87096774 1.77419355,7.27951613 1.77419355,5.32258065 C1.77419355,3.36564516 3.36564516,1.77419355 5.32258065,1.77419355 Z M41.6935484,52.3387097 C41.6935484,52.8283871 41.296129,53.2258065 40.8064516,53.2258065 L14.1935484,53.2258065 C13.703871,53.2258065 13.3064516,52.8283871 13.3064516,52.3387097 C13.3064516,50.8714516 14.5004839,49.6774194 15.9677419,49.6774194 L39.0322581,49.6774194 C40.4995161,49.6774194 41.6935484,50.8714516 41.6935484,52.3387097 Z M34.1789516,47.9032258 L20.8210484,47.9032258 C21.5821774,46.878629 22.0434677,45.6535484 22.1445968,44.3548387 L32.8562903,44.3548387 C32.9574194,45.6535484 33.4187097,46.878629 34.1789516,47.9032258 Z M48.7903226,42.5806452 L6.20967742,42.5806452 C4.74241935,42.5806452 3.5483871,41.3866129 3.5483871,39.9193548 L3.5483871,37.2580645 L51.4516129,37.2580645 L51.4516129,39.9193548 C51.4516129,41.3866129 50.2575806,42.5806452 48.7903226,42.5806452 Z" id="Shape"></path>
                    <path d="M39.9193548,15.0806452 C39.9193548,17.0375806 41.5108065,18.6290323 43.4677419,18.6290323 C45.4246774,18.6290323 47.016129,17.0375806 47.016129,15.0806452 C47.016129,13.1237097 45.4246774,11.5322581 43.4677419,11.5322581 C41.5108065,11.5322581 39.9193548,13.1237097 39.9193548,15.0806452 Z M45.2419355,15.0806452 C45.2419355,16.0591129 44.4462097,16.8548387 43.4677419,16.8548387 C42.4892742,16.8548387 41.6935484,16.0591129 41.6935484,15.0806452 C41.6935484,14.1021774 42.4892742,13.3064516 43.4677419,13.3064516 C44.4462097,13.3064516 45.2419355,14.1021774 45.2419355,15.0806452 Z" id="Shape"></path>
                    <path d="M30.1612903,12.4193548 L5.32258065,12.4193548 L5.32258065,19.516129 L30.1612903,19.516129 L30.1612903,12.4193548 Z M28.3870968,17.7419355 L7.09677419,17.7419355 L7.09677419,14.1935484 L28.3870968,14.1935484 L28.3870968,17.7419355 Z" id="Shape"></path>
                    <path d="M5.32258065,33.7096774 L17.7419355,33.7096774 L17.7419355,21.2903226 L5.32258065,21.2903226 L5.32258065,33.7096774 Z M7.09677419,23.0645161 L15.9677419,23.0645161 L15.9677419,31.9354839 L7.09677419,31.9354839 L7.09677419,23.0645161 Z" id="Shape"></path>
                    <polygon id="Path" points="19.516129 21.2903226 21.2903226 21.2903226 21.2903226 23.0645161 19.516129 23.0645161"></polygon>
                    <polygon id="Path" points="23.0645161 21.2903226 30.1612903 21.2903226 30.1612903 23.0645161 23.0645161 23.0645161"></polygon>
                    <polygon id="Path" points="19.516129 24.8387097 30.1612903 24.8387097 30.1612903 26.6129032 19.516129 26.6129032"></polygon>
                    <polygon id="Path" points="19.516129 28.3870968 30.1612903 28.3870968 30.1612903 30.1612903 19.516129 30.1612903"></polygon>
                    <polygon id="Path" points="19.516129 31.9354839 30.1612903 31.9354839 30.1612903 33.7096774 19.516129 33.7096774"></polygon>
                    <path d="M31.9354839,33.7096774 L49.6774194,33.7096774 L49.6774194,28.3870968 L31.9354839,28.3870968 L31.9354839,33.7096774 Z M33.7096774,30.1612903 L47.9032258,30.1612903 L47.9032258,31.9354839 L33.7096774,31.9354839 L33.7096774,30.1612903 Z" id="Shape"></path>
                </g>
            </g>
        </g>
    </g>
</svg>