<?xml version="1.0" encoding="UTF-8"?>
<svg width="56px" height="56px" viewBox="0 0 56 56" version="1.1" xmlns="http://www.w3.org/2000/svg" xmlns:xlink="http://www.w3.org/1999/xlink">
    <title>social-media@2x</title>
    <g id="Web-Dev-Service" stroke="none" stroke-width="1" fill="none" fill-rule="evenodd">
        <g id="Web-Dev-Service_Desktop-1280x850-Rev" transform="translate(-868.000000, -2814.000000)">
            <g id="social-media" transform="translate(868.000000, 2814.000000)">
                <rect id="Rectangle" fill="#E7F6FE" fill-rule="nonzero" x="27.0666667" y="38.2666667" width="1.86666667" height="1.86666667"></rect>
                <rect id="Rectangle" fill="#FBC935" x="21.3818182" y="12.2181818" width="13.2363636" height="13.2363636"></rect>
                <rect id="Rectangle" fill="#000000" fill-rule="nonzero" x="13.0666667" y="4.66666667" width="27.4983333" height="1.86666667"></rect>
                <path d="M46.2,35 C46.2,33.2033333 44.73,31.7333333 42.9333333,31.7333333 L41.0666667,31.7333333 L41.0666667,14 L39.2,14 L39.2,31.7333333 L36.8666667,31.7333333 C35.07,31.7333333 33.6,33.2033333 33.6,35 C33.6,35.91 33.985,36.7383333 34.5916667,37.3333333 C33.985,37.9283333 33.6,38.7566667 33.6,39.6666667 C33.6,40.2966667 33.7866667,40.88 34.1016667,41.3816667 C32.9816667,41.9066667 32.2,43.0266667 32.2,44.3333333 C32.2,44.835 32.3283333,45.3016667 32.5266667,45.7333333 L25.2,45.7333333 C25.2,42.875 23.765,40.355 21.5833333,38.8383333 C23.695,38.0333333 25.2,35.9916667 25.2,33.6 C25.2,33.0866667 24.78,32.6666667 24.2666667,32.6666667 L16.8,32.6666667 L16.8,16.8 L14.9333333,19.6 L14.9333333,32.6666667 C13.3933333,32.6666667 12.1333333,33.9266667 12.1333333,35.4666667 L12.1333333,56 L14,56 L14,35.4666667 C14,34.9533333 14.42,34.5333333 14.9333333,34.5333333 L23.2166667,34.5333333 C22.7966667,36.1433333 21.3383333,37.3333333 19.6,37.3333333 L16.8,37.3333333 C16.2866667,37.3333333 15.8666667,37.7533333 15.8666667,38.2666667 C15.8666667,38.78 16.2866667,39.2 16.8,39.2 C20.405,39.2 23.3333333,42.1283333 23.3333333,45.7333333 L23.3333333,46.6666667 C23.3333333,47.18 23.7533333,47.6 24.2666667,47.6 L29.7266667,47.6 C29.5283333,48.0316667 29.4,48.4983333 29.4,49 C29.4,50.7966667 30.87,52.2666667 32.6666667,52.2666667 L32.6666667,56 L34.5333333,56 L34.5333333,52.2666667 L38.2666667,52.2666667 L38.7333333,52.2666667 C40.53,52.2666667 42,50.7966667 42,49 C42,48.4866667 41.8716667,48.02 41.6616667,47.5883333 C43.4,47.5183333 44.8,46.095 44.8,44.3333333 C44.8,43.7033333 44.6133333,43.12 44.2983333,42.6183333 C45.4183333,42.0933333 46.2,40.9733333 46.2,39.6666667 C46.2,38.7566667 45.815,37.9283333 45.2083333,37.3333333 C45.815,36.7383333 46.2,35.91 46.2,35 Z M38.7333333,50.4 L38.2666667,50.4 L33.6,50.4 L32.6666667,50.4 C31.8966667,50.4 31.2666667,49.77 31.2666667,49 C31.2666667,48.23 31.8966667,47.6 32.6666667,47.6 L35.4666667,47.6 L38.7333333,47.6 C39.5033333,47.6 40.1333333,48.23 40.1333333,49 C40.1333333,49.77 39.5033333,50.4 38.7333333,50.4 Z M41.5333333,45.7333333 L38.7333333,45.7333333 L35.4666667,45.7333333 C34.6966667,45.7333333 34.0666667,45.1033333 34.0666667,44.3333333 C34.0666667,43.5633333 34.6966667,42.9333333 35.4666667,42.9333333 L36.8666667,42.9333333 L41.5333333,42.9333333 C42.3033333,42.9333333 42.9333333,43.5633333 42.9333333,44.3333333 C42.9333333,45.1033333 42.3033333,45.7333333 41.5333333,45.7333333 Z M44.3333333,39.6666667 C44.3333333,40.4366667 43.7033333,41.0666667 42.9333333,41.0666667 L41.5333333,41.0666667 L36.8666667,41.0666667 C36.0966667,41.0666667 35.4666667,40.4366667 35.4666667,39.6666667 C35.4666667,38.8966667 36.0966667,38.2666667 36.8666667,38.2666667 L42.9333333,38.2666667 C43.7033333,38.2666667 44.3333333,38.8966667 44.3333333,39.6666667 Z M36.8666667,36.4 C36.0966667,36.4 35.4666667,35.77 35.4666667,35 C35.4666667,34.23 36.0966667,33.6 36.8666667,33.6 L42.9333333,33.6 C43.7033333,33.6 44.3333333,34.23 44.3333333,35 C44.3333333,35.77 43.7033333,36.4 42.9333333,36.4 L36.8666667,36.4 Z" id="Shape" fill="#000000" fill-rule="nonzero"></path>
                <path d="M12.6583333,10.465 C12.425,9.28666667 11.3983333,8.4 10.1616667,8.4 C8.77333333,8.4 7.63,9.53166667 7.61833333,10.9316667 C6.87166667,10.8033333 6.16,10.5116667 5.51833333,10.08 L5.19166667,9.85833333 C4.91166667,9.66 4.53833333,9.64833333 4.235,9.81166667 C3.93166667,9.975 3.745,10.29 3.745,10.64 L3.745,11.41 C3.745,12.53 4.08333333,13.6033333 4.71333333,14.5133333 L4.01333333,15.225 C3.745,15.4933333 3.675,15.89 3.815,16.24 C3.955,16.59 4.305,16.8116667 4.67833333,16.8116667 L9.205,16.8116667 C11.0133333,16.8116667 12.495,15.435 12.705,13.6733333 L13.755,12.6116667 C13.9416667,12.425 14.0466667,12.1566667 14.0233333,11.8883333 C14,11.62 13.8716667,11.375 13.6616667,11.2116667 L12.6583333,10.465 Z M11.1066667,12.6 C10.9316667,12.775 10.8383333,13.0083333 10.8383333,13.2533333 C10.8383333,14.175 10.0916667,14.9333333 9.18166667,14.9333333 L6.81333333,14.9333333 C6.965,14.595 6.895,14.1866667 6.62666667,13.9066667 C6.195,13.4633333 5.88,12.915 5.71666667,12.3083333 C6.60333333,12.6816667 7.56,12.88 8.54,12.88 C9.05333333,12.88 9.47333333,12.46 9.47333333,11.9466667 L9.47333333,10.9666667 C9.47333333,10.5816667 9.77666667,10.2666667 10.15,10.2666667 C10.5233333,10.2666667 10.8266667,10.5816667 10.8266667,10.9666667 C10.8266667,11.2583333 10.9666667,11.5383333 11.2,11.7133333 L11.6433333,12.0516667 L11.1066667,12.6 Z" id="Shape" fill="#000000" fill-rule="nonzero"></path>
                <path d="M27.0666667,14.9333333 L27.0666667,17.7333333 L25.2,17.7333333 L25.2,19.6 L27.0666667,19.6 L27.0666667,23.3333333 L28.9333333,23.3333333 L28.9333333,19.6 L30.8,19.6 L30.8,17.7333333 L28.9333333,17.7333333 L28.9333333,15.8666667 L30.8,15.8666667 L30.8,14 L28,14 C27.4866667,14 27.0666667,14.42 27.0666667,14.9333333 Z" id="Path" fill="#000000" fill-rule="nonzero"></path>
                <path d="M36.4,24.2666667 L36.4,13.0666667 C36.4,11.5266667 35.14,10.2666667 33.6,10.2666667 L22.4,10.2666667 C20.86,10.2666667 19.6,11.5266667 19.6,13.0666667 L19.6,24.2666667 C19.6,25.8066667 20.86,27.0666667 22.4,27.0666667 L33.6,27.0666667 C35.14,27.0666667 36.4,25.8066667 36.4,24.2666667 Z M21.4666667,24.2666667 L21.4666667,13.0666667 C21.4666667,12.5533333 21.8866667,12.1333333 22.4,12.1333333 L33.6,12.1333333 C34.1133333,12.1333333 34.5333333,12.5533333 34.5333333,13.0666667 L34.5333333,24.2666667 C34.5333333,24.78 34.1133333,25.2 33.6,25.2 L22.4,25.2 C21.8866667,25.2 21.4666667,24.78 21.4666667,24.2666667 Z" id="Shape" fill="#000000" fill-rule="nonzero"></path>
                <path d="M16.8,18.6666667 L16.8,7.46666667 C16.8,5.92666667 15.54,4.66666667 14,4.66666667 L2.8,4.66666667 C1.26,4.66666667 0,5.92666667 0,7.46666667 L0,18.6666667 C0,20.2066667 1.26,21.4666667 2.8,21.4666667 L14,21.4666667 C15.54,21.4666667 16.8,20.2066667 16.8,18.6666667 Z M1.86666667,18.6666667 L1.86666667,7.46666667 C1.86666667,6.95333333 2.28666667,6.53333333 2.8,6.53333333 L14,6.53333333 C14.5133333,6.53333333 14.9333333,6.95333333 14.9333333,7.46666667 L14.9333333,18.6666667 C14.9333333,19.18 14.5133333,19.6 14,19.6 L2.8,19.6 C2.28666667,19.6 1.86666667,19.18 1.86666667,18.6666667 Z" id="Shape" fill="#000000" fill-rule="nonzero"></path>
                <path d="M53.2,0 L42,0 C40.46,0 39.2,1.26 39.2,2.8 L39.2,14 C39.2,15.54 40.46,16.8 42,16.8 L53.2,16.8 C54.74,16.8 56,15.54 56,14 L56,2.8 C56,1.26 54.74,0 53.2,0 Z M42,1.86666667 L53.2,1.86666667 C53.7133333,1.86666667 54.1333333,2.28666667 54.1333333,2.8 L54.1333333,7.46666667 L52.1733333,7.46666667 C51.7416667,5.34333333 49.8516667,3.73333333 47.6,3.73333333 C45.3483333,3.73333333 43.4583333,5.34333333 43.0266667,7.46666667 L41.0666667,7.46666667 L41.0666667,2.8 C41.0666667,2.28666667 41.4866667,1.86666667 42,1.86666667 Z M50.4,8.4 C50.4,9.94 49.14,11.2 47.6,11.2 C46.06,11.2 44.8,9.94 44.8,8.4 C44.8,6.86 46.06,5.6 47.6,5.6 C49.14,5.6 50.4,6.86 50.4,8.4 Z M53.2,14.9333333 L42,14.9333333 C41.4866667,14.9333333 41.0666667,14.5133333 41.0666667,14 L41.0666667,9.33333333 L43.0266667,9.33333333 C43.4583333,11.4566667 45.3483333,13.0666667 47.6,13.0666667 C49.8516667,13.0666667 51.7416667,11.4566667 52.1733333,9.33333333 L54.1333333,9.33333333 L54.1333333,14 C54.1333333,14.5133333 53.7133333,14.9333333 53.2,14.9333333 Z" id="Shape" fill="#000000" fill-rule="nonzero"></path>
                <rect id="Rectangle" fill="#000000" fill-rule="nonzero" x="27.0666667" y="38.2666667" width="1.86666667" height="1.86666667"></rect>
            </g>
        </g>
    </g>
</svg>