<?xml version="1.0" encoding="UTF-8"?>
<svg width="858px" height="172px" viewBox="0 0 858 172" version="1.1" xmlns="http://www.w3.org/2000/svg" xmlns:xlink="http://www.w3.org/1999/xlink">
    <!-- Generator: Sketch 58 (84663) - https://sketch.com -->
    <title>logo copy 2</title>
    <desc>Created with Sketch.</desc>
    <defs>
        <polygon id="path-1" points="0.276028916 6.96588095 0.276028916 74.831 13.4508145 68.1472857 13.4508145 0.267214286"></polygon>
        <path d="M63.2535181,11.969381 C22.7089735,26.9217619 -3.56786024,49.9147857 0.680746988,63.9064762 L0.680746988,63.9064762 C4.9442747,77.9243333 39.8507422,77.399131 78.6812964,62.7065476 L78.6812964,62.7065476 C117.474549,48.0195714 145.49708,24.7835714 141.229822,10.7844048 L141.229822,10.7844048 C139.170795,4.02779762 130.018945,0.728928571 116.739716,0.727059524 L116.739716,0.727059524 C102.460814,0.727059524 83.4110892,4.53991667 63.2535181,11.969381 M6.92123855,61.424381 C1.91541687,49.6699405 26.192906,27.8581548 61.0564771,14.5225 L61.0564771,14.5225 C95.9331036,1.16815476 129.343793,-0.327083333 134.782308,12.1805833 L134.782308,12.1805833 C140.25253,24.6994643 115.713933,46.9205714 80.8317108,60.2917381 L80.8317108,60.2917381 C62.8916964,67.1492738 45.2668771,70.5733699 31.6519373,70.5733699 L31.6519373,70.5733699 C18.8016723,70.5752381 9.52486265,67.5230833 6.92123855,61.424381" id="path-3"></path>
        <path d="M20.1668964,1.27842857 L0.179045783,11.3937143 C0.179045783,11.3937143 21.580612,2.62227381 27.615947,17.4157857 L27.615947,17.4157857 C31.2733301,26.3591786 24.335306,36.07075 24.335306,36.07075 L24.335306,36.07075 L38.1069108,29.0879881 C38.1069108,29.0879881 44.3791084,21.9837381 40.7963277,11.3675476 L40.7963277,11.3675476 C37.7712,2.3979881 29.4008096,0.947607143 24.2998699,0.945738095 L24.2998699,0.945738095 C21.858506,0.945738095 20.1668964,1.27842857 20.1668964,1.27842857" id="path-5"></path>
        <polygon id="path-7" points="0 155.130952 773.304333 155.130952 773.304333 0.20372619 0 0.20372619"></polygon>
        <path d="M19.3683229,0.564452381 L0.620737349,10.1470595 C0.620737349,10.1470595 21.0636627,2.62040476 24.4748578,19.5820119 L24.4748578,19.5820119 C27.8487518,36.4071786 8.05486747,49.6979762 8.05486747,49.6979762 L8.05486747,49.6979762 L25.7934554,42.9058571 C25.7934554,42.9058571 41.292106,32.2915357 38.073012,16.2625833 L38.073012,16.2625833 C34.9117349,0.586880952 19.4615759,0.564452381 19.370188,0.564452381 L19.370188,0.564452381 C19.3683229,0.564452381 19.3683229,0.564452381 19.3683229,0.564452381" id="path-9"></path>
        <linearGradient x1="50.2591509%" y1="94.2389733%" x2="49.688703%" y2="7.08268153%" id="linearGradient-11">
            <stop stop-color="#841325" offset="0%"></stop>
            <stop stop-color="#FF0019" offset="100%"></stop>
        </linearGradient>
        <polygon id="path-12" points="0.0429736842 6.91875 0.0429736842 75 13.2415 68.296875 13.2415 0.19875"></polygon>
        <linearGradient x1="99.1287446%" y1="39.5747094%" x2="0.914226067%" y2="60.2593126%" id="linearGradient-14">
            <stop stop-color="#666666" offset="0%"></stop>
            <stop stop-color="#999999" offset="5.27206706%"></stop>
            <stop stop-color="#D9D9D9" offset="47.2214851%"></stop>
            <stop stop-color="#666666" offset="73.9227378%"></stop>
            <stop stop-color="#D9D9D9" offset="100%"></stop>
        </linearGradient>
        <path d="M63.1358158,11.811875 C22.5163421,26.811875 -3.80784211,49.87625 0.450289474,63.9125 L0.450289474,63.9125 C4.7215,77.976875 39.6908684,77.448125 78.5913947,62.70875 L78.5913947,62.70875 C117.452684,47.975 145.525711,24.665 141.250763,10.62125 L141.250763,10.62125 C139.188026,3.843125 130.021553,0.533749311 116.718395,0.533749311 L116.718395,0.533749311 C102.413763,0.531875 83.3297105,4.356875 63.1358158,11.811875 M6.70202632,61.424375 C1.68531579,49.630625 26.0084211,27.749375 60.9329474,14.37125 L60.9329474,14.37125 C95.8742895,0.974375 129.345184,-0.52375 134.791632,12.021875 L134.791632,12.021875 C140.271711,24.5825 115.688895,46.8725 80.7456842,60.288125 L80.7456842,60.288125 C62.7733421,67.165625 45.1167632,70.6025 31.4772895,70.6025 L31.4772895,70.6025 C18.602,70.6025 9.30847368,67.5425 6.70202632,61.424375" id="path-15"></path>
        <linearGradient x1="76.8413852%" y1="77.3830902%" x2="32.5493653%" y2="21.7354096%" id="linearGradient-17">
            <stop stop-color="#841325" offset="0%"></stop>
            <stop stop-color="#FF0019" offset="51.2193834%"></stop>
            <stop stop-color="#990000" offset="100%"></stop>
        </linearGradient>
        <path d="M24.7673947,0.753125 C22.4374737,0.771875 20.8399737,1.086875 20.8399737,1.086875 L20.8399737,1.086875 L0.814236842,11.2325 C0.814236842,11.2325 22.2562368,2.435 28.3024474,17.27375 L28.3024474,17.27375 C31.9645526,26.2475 25.0140263,35.988125 25.0140263,35.988125 L25.0140263,35.988125 L38.8141842,28.983125 C38.8141842,28.983125 45.0958158,21.858125 41.5065789,11.208125 L41.5065789,11.208125 C38.5171053,2.331875 30.3184737,0.794375 25.1915263,0.753125 L25.1915263,0.753125 L24.7673947,0.753125 Z" id="path-18"></path>
        <linearGradient x1="65.9188437%" y1="88.5378934%" x2="39.6505369%" y2="10.2215176%" id="linearGradient-20">
            <stop stop-color="#841325" offset="0%"></stop>
            <stop stop-color="#FF0019" offset="51.2193834%"></stop>
            <stop stop-color="#990000" offset="100%"></stop>
        </linearGradient>
        <path d="M19.1752105,0.36875 L0.391973684,9.981875 C0.391973684,9.981875 20.8717368,2.433125 24.2872105,19.44875 L24.2872105,19.44875 C27.6690526,36.325625 7.8395,49.65875 7.8395,49.65875 L7.8395,49.65875 L25.6100526,42.845 C25.6100526,42.845 41.1347632,32.19875 37.9098684,16.11875 L37.9098684,16.11875 C34.7428947,0.393125 19.2667632,0.36875 19.1752105,0.36875 L19.1752105,0.36875 C19.1752105,0.36875 19.1752105,0.36875 19.1752105,0.36875" id="path-21"></path>
        <linearGradient x1="56.7627374%" y1="328.772791%" x2="48.2122891%" y2="16.9691942%" id="linearGradient-23">
            <stop stop-color="#841325" offset="0%"></stop>
            <stop stop-color="#FF0019" offset="100%"></stop>
        </linearGradient>
        <polygon id="path-24" points="13.1985263 0.9994375 0 7.7213125 0 24.4238125 13.1985263 18.4950625"></polygon>
    </defs>
    <g id="Page-1" stroke="none" stroke-width="1" fill="none" fill-rule="evenodd">
        <g id="new-Logo" transform="translate(-87.000000, -143.000000)">
            <g id="logo-copy-2" transform="translate(80.000000, 109.000000)">
                <g id="Group-47">
                    <g id="Group-3" transform="translate(55.951807, 46.522277)">
                        <mask id="mask-2" fill="white">
                            <use xlink:href="#path-1"></use>
                        </mask>
                        <g id="Clip-2"></g>
                        <polygon id="Fill-1" mask="url(#mask-2)" points="0.276028916 6.96588095 0.276028916 74.831 13.4508145 68.1472857 13.4508145 0.267214286"></polygon>
                    </g>
                    <g id="Group-8" transform="translate(5.595181, 41.784182)">
                        <mask id="mask-4" fill="white">
                            <use xlink:href="#path-3"></use>
                        </mask>
                        <g id="Clip-7"></g>
                        <path d="M63.2535181,11.969381 C22.7089735,26.9217619 -3.56786024,49.9147857 0.680746988,63.9064762 L0.680746988,63.9064762 C4.9442747,77.9243333 39.8507422,77.399131 78.6812964,62.7065476 L78.6812964,62.7065476 C117.474549,48.0195714 145.49708,24.7835714 141.229822,10.7844048 L141.229822,10.7844048 C139.170795,4.02779762 130.018945,0.728928571 116.739716,0.727059524 L116.739716,0.727059524 C102.460814,0.727059524 83.4110892,4.53991667 63.2535181,11.969381 M6.92123855,61.424381 C1.91541687,49.6699405 26.192906,27.8581548 61.0564771,14.5225 L61.0564771,14.5225 C95.9331036,1.16815476 129.343793,-0.327083333 134.782308,12.1805833 L134.782308,12.1805833 C140.25253,24.6994643 115.713933,46.9205714 80.8317108,60.2917381 L80.8317108,60.2917381 C62.8916964,67.1492738 45.2668771,70.5733699 31.6519373,70.5733699 L31.6519373,70.5733699 C18.8016723,70.5752381 9.52486265,67.5230833 6.92123855,61.424381" id="Fill-6" mask="url(#mask-4)"></path>
                    </g>
                    <g id="Group-11" transform="translate(55.951807, 34.307992)">
                        <mask id="mask-6" fill="white">
                            <use xlink:href="#path-5"></use>
                        </mask>
                        <g id="Clip-10"></g>
                        <path d="M20.1668964,1.27842857 L0.179045783,11.3937143 C0.179045783,11.3937143 21.580612,2.62227381 27.615947,17.4157857 L27.615947,17.4157857 C31.2733301,26.3591786 24.335306,36.07075 24.335306,36.07075 L24.335306,36.07075 L38.1069108,29.0879881 C38.1069108,29.0879881 44.3791084,21.9837381 40.7963277,11.3675476 L40.7963277,11.3675476 C37.7712,2.3979881 29.4008096,0.947607143 24.2998699,0.945738095 L24.2998699,0.945738095 C21.858506,0.945738095 20.1668964,1.27842857 20.1668964,1.27842857" id="Fill-9" mask="url(#mask-6)"></path>
                    </g>
                    <g id="Group-43" transform="translate(0.000000, 0.665135)">
                        <path d="M202.503205,81.8007381 C209.676227,81.8007381 214.335147,82.1932381 216.481832,82.9782381 C218.628516,83.7632381 220.271634,85.013631 221.413051,86.7312857 C222.552603,88.4508095 223.123311,90.5422738 223.123311,93.0056786 C223.123311,95.9195238 222.384747,98.244619 220.909485,99.9809643 C219.434222,101.71731 217.52067,102.808833 215.166964,103.257405 C213.633885,103.593833 210.028723,103.762048 204.35148,103.762048 L189.78536,103.762048 L189.78536,81.8007381 L202.503205,81.8007381 Z M174.047981,117.662155 L200.561678,117.662155 C210.591972,117.589262 216.912661,117.402357 219.523745,117.10331 C223.69775,116.617357 227.213388,115.318369 230.065066,113.204476 C232.918608,111.090583 235.175331,108.266452 236.835234,104.733952 C238.495138,101.199583 239.32509,97.5624167 239.32509,93.8205833 C239.32509,89.0713333 238.054984,84.937 235.511041,81.4213214 C232.968964,77.9056429 229.320907,75.4198095 224.570598,73.9600833 C227.948222,72.3527024 230.607798,69.9397619 232.556786,66.725 C234.503909,63.508369 235.479335,59.974 235.479335,56.1237619 C235.479335,52.5707024 234.68482,49.3652857 233.099519,46.5019048 C231.514217,43.6422619 229.516738,41.3508095 227.112675,39.6312857 C224.706747,37.913631 221.993085,36.7809881 218.973552,36.2389643 C215.952155,35.6969405 211.364107,35.4259286 205.209408,35.4259286 L174.047981,35.4259286 L174.047981,117.662155 Z M198.843957,49.0924048 C206.225866,49.0924048 210.70201,49.1877262 212.266796,49.3727619 C214.876015,49.7110595 216.851114,50.6754881 218.193957,52.2660476 C219.5368,53.8584762 220.208222,55.9275119 220.208222,58.4731548 C220.208222,61.1309405 219.434222,63.2766071 217.886222,64.9045476 C216.338222,66.5324881 214.223244,67.5156071 211.541287,67.8520357 C210.047374,68.0408095 206.225866,68.1342619 200.074897,68.1342619 L189.78536,68.1342619 L189.78536,49.0924048 L198.843957,49.0924048 Z" id="Fill-12" fill="#717171"></path>
                        <path d="M202.503205,81.8007381 C209.676227,81.8007381 214.335147,82.1932381 216.481832,82.9782381 C218.628516,83.7632381 220.271634,85.013631 221.413051,86.7312857 C222.552603,88.4508095 223.123311,90.5422738 223.123311,93.0056786 C223.123311,95.9195238 222.384747,98.244619 220.909485,99.9809643 C219.434222,101.71731 217.52067,102.808833 215.166964,103.257405 C213.633885,103.593833 210.028723,103.762048 204.35148,103.762048 L189.78536,103.762048 L189.78536,81.8007381 L202.503205,81.8007381 Z M174.047981,117.662155 L200.561678,117.662155 C210.591972,117.589262 216.912661,117.402357 219.523745,117.10331 C223.69775,116.617357 227.213388,115.318369 230.065066,113.204476 C232.918608,111.090583 235.175331,108.266452 236.835234,104.733952 C238.495138,101.199583 239.32509,97.5624167 239.32509,93.8205833 C239.32509,89.0713333 238.054984,84.937 235.511041,81.4213214 C232.968964,77.9056429 229.320907,75.4198095 224.570598,73.9600833 C227.948222,72.3527024 230.607798,69.9397619 232.556786,66.725 C234.503909,63.508369 235.479335,59.974 235.479335,56.1237619 C235.479335,52.5707024 234.68482,49.3652857 233.099519,46.5019048 C231.514217,43.6422619 229.516738,41.3508095 227.112675,39.6312857 C224.706747,37.913631 221.993085,36.7809881 218.973552,36.2389643 C215.952155,35.6969405 211.364107,35.4259286 205.209408,35.4259286 L174.047981,35.4259286 L174.047981,117.662155 Z M198.843957,49.0924048 C206.225866,49.0924048 210.70201,49.1877262 212.266796,49.3727619 C214.876015,49.7110595 216.851114,50.6754881 218.193957,52.2660476 C219.5368,53.8584762 220.208222,55.9275119 220.208222,58.4731548 C220.208222,61.1309405 219.434222,63.2766071 217.886222,64.9045476 C216.338222,66.5324881 214.223244,67.5156071 211.541287,67.8520357 C210.047374,68.0408095 206.225866,68.1342619 200.074897,68.1342619 L189.78536,68.1342619 L189.78536,49.0924048 L198.843957,49.0924048 Z" id="Stroke-14" stroke="#717171" stroke-width="0.392" stroke-linecap="round" stroke-linejoin="round"></path>
                        <path d="M283.743551,105.247754 C282.141464,106.595337 280.166365,107.266325 277.82012,107.266325 C274.392139,107.266325 271.534867,105.965468 269.244573,103.360015 C266.952413,100.758301 265.751315,97.1136583 265.639411,92.431694 L303.05625,92.431694 C303.242756,80.3688607 300.91516,71.4142536 296.071599,65.5697417 C291.229903,59.7270988 284.618264,56.8020393 276.238548,56.8020393 C268.750332,56.8020393 262.567657,59.5981345 257.686794,65.188456 C252.807797,70.7806464 250.368298,78.5110274 250.368298,88.3833369 C250.368298,96.6463964 252.231493,103.492718 255.959748,108.912956 C260.654105,115.680777 267.901729,119.065623 277.702621,119.065623 C283.924462,119.065623 289.094409,117.562908 293.212462,114.55748 C297.330515,111.55392 300.338857,107.174742 302.241218,101.425551 L287.320736,98.7397298 C286.537411,101.732075 285.345638,103.90017 283.743551,105.247754 L283.743551,105.247754 Z M265.91917,82.735075 C265.881869,78.456825 266.926303,75.0701107 269.054336,72.5749321 C271.18237,70.0816226 273.868057,68.8349679 277.113262,68.8349679 C280.173826,68.8349679 282.768124,70.016206 284.894293,72.3786821 C287.022327,74.7430274 288.139498,78.1932893 288.253267,82.735075 L265.91917,82.735075 Z" id="Fill-16" fill="#717171"></path>
                        <path d="M283.743551,105.247754 C282.141464,106.595337 280.166365,107.266325 277.82012,107.266325 C274.392139,107.266325 271.534867,105.965468 269.244573,103.360015 C266.952413,100.758301 265.751315,97.1136583 265.639411,92.431694 L303.05625,92.431694 C303.242756,80.3688607 300.91516,71.4142536 296.071599,65.5697417 C291.229903,59.7270988 284.618264,56.8020393 276.238548,56.8020393 C268.750332,56.8020393 262.567657,59.5981345 257.686794,65.188456 C252.807797,70.7806464 250.368298,78.5110274 250.368298,88.3833369 C250.368298,96.6463964 252.231493,103.492718 255.959748,108.912956 C260.654105,115.680777 267.901729,119.065623 277.702621,119.065623 C283.924462,119.065623 289.094409,117.562908 293.212462,114.55748 C297.330515,111.55392 300.338857,107.174742 302.241218,101.425551 L287.320736,98.7397298 C286.537411,101.732075 285.345638,103.90017 283.743551,105.247754 Z M265.91917,82.735075 C265.881869,78.456825 266.926303,75.0701107 269.054336,72.5749321 C271.18237,70.0816226 273.868057,68.8349679 277.113262,68.8349679 C280.173826,68.8349679 282.768124,70.016206 284.894293,72.3786821 C287.022327,74.7430274 288.139498,78.1932893 288.253267,82.735075 L265.91917,82.735075 Z" id="Stroke-18" stroke="#717171" stroke-width="0.392" stroke-linecap="round" stroke-linejoin="round"></path>
                        <path d="M367.454542,117.663089 L352.53406,117.663089 L352.53406,87.2779821 C352.53406,80.8503274 352.218865,76.6916964 351.588474,74.8039583 C350.958084,72.9180893 349.930436,71.4508869 348.50553,70.4042202 C347.078759,69.3575536 345.364768,68.8342202 343.365424,68.8342202 C340.771125,68.8342202 338.456585,69.5818393 336.419939,71.0770774 C334.383293,72.5723155 332.984498,74.553506 332.223554,77.0187798 C331.464474,79.4859226 331.085867,84.0463988 331.085867,90.6983393 L331.085867,117.663089 L316.165385,117.663089 L316.165385,58.0871964 L330.037703,58.0871964 L330.037703,66.8343393 C334.935351,60.1468869 341.116161,56.8012917 348.578267,56.8012917 C351.845853,56.8012917 354.831814,57.4274226 357.543612,58.6796845 C360.253544,59.9319464 362.303245,61.5318512 363.69458,63.4737917 C365.085915,65.4157321 366.061342,67.6212083 366.618995,70.0864821 C367.176648,72.551756 367.454542,76.0823869 367.454542,80.676506 L367.454542,117.663089 Z" id="Fill-20" fill="#717171"></path>
                        <path d="M367.454542,117.663089 L352.53406,117.663089 L352.53406,87.2779821 C352.53406,80.8503274 352.218865,76.6916964 351.588474,74.8039583 C350.958084,72.9180893 349.930436,71.4508869 348.50553,70.4042202 C347.078759,69.3575536 345.364768,68.8342202 343.365424,68.8342202 C340.771125,68.8342202 338.456585,69.5818393 336.419939,71.0770774 C334.383293,72.5723155 332.984498,74.553506 332.223554,77.0187798 C331.464474,79.4859226 331.085867,84.0463988 331.085867,90.6983393 L331.085867,117.663089 L316.165385,117.663089 L316.165385,58.0871964 L330.037703,58.0871964 L330.037703,66.8343393 C334.935351,60.1468869 341.116161,56.8012917 348.578267,56.8012917 C351.845853,56.8012917 354.831814,57.4274226 357.543612,58.6796845 C360.253544,59.9319464 362.303245,61.5318512 363.69458,63.4737917 C365.085915,65.4157321 366.061342,67.6212083 366.618995,70.0864821 C367.176648,72.551756 367.454542,76.0823869 367.454542,80.676506 L367.454542,117.663089 Z" id="Stroke-22" stroke="#717171" stroke-width="0.392" stroke-linecap="round" stroke-linejoin="round"></path>
                        <path d="M412.893377,105.247754 C411.291291,106.595337 409.316192,107.266325 406.969946,107.266325 C403.541965,107.266325 400.684693,105.965468 398.394399,103.360015 C396.10224,100.758301 394.901141,97.1136583 394.789238,92.431694 L432.206076,92.431694 C432.392582,80.3688607 430.064987,71.4142536 425.221426,65.5697417 C420.379729,59.7270988 413.768091,56.8020393 405.388375,56.8020393 C397.900158,56.8020393 391.717483,59.5981345 386.836621,65.188456 C381.957623,70.7806464 379.518124,78.5110274 379.518124,88.3833369 C379.518124,96.6463964 381.38132,103.492718 385.109575,108.912956 C389.803932,115.680777 397.051556,119.065623 406.852447,119.065623 C413.074288,119.065623 418.244235,117.562908 422.362288,114.55748 C426.480341,111.55392 429.488683,107.174742 431.391045,101.425551 L416.470563,98.7397298 C415.687238,101.732075 414.495464,103.90017 412.893377,105.247754 L412.893377,105.247754 Z M395.068997,82.735075 C395.031695,78.456825 396.076129,75.0701107 398.204163,72.5749321 C400.332197,70.0816226 403.017883,68.8349679 406.263088,68.8349679 C409.323652,68.8349679 411.917951,70.016206 414.04412,72.3786821 C416.172153,74.7430274 417.289324,78.1932893 417.403093,82.735075 L395.068997,82.735075 Z" id="Fill-24" fill="#717171"></path>
                        <path d="M412.893377,105.247754 C411.291291,106.595337 409.316192,107.266325 406.969946,107.266325 C403.541965,107.266325 400.684693,105.965468 398.394399,103.360015 C396.10224,100.758301 394.901141,97.1136583 394.789238,92.431694 L432.206076,92.431694 C432.392582,80.3688607 430.064987,71.4142536 425.221426,65.5697417 C420.379729,59.7270988 413.768091,56.8020393 405.388375,56.8020393 C397.900158,56.8020393 391.717483,59.5981345 386.836621,65.188456 C381.957623,70.7806464 379.518124,78.5110274 379.518124,88.3833369 C379.518124,96.6463964 381.38132,103.492718 385.109575,108.912956 C389.803932,115.680777 397.051556,119.065623 406.852447,119.065623 C413.074288,119.065623 418.244235,117.562908 422.362288,114.55748 C426.480341,111.55392 429.488683,107.174742 431.391045,101.425551 L416.470563,98.7397298 C415.687238,101.732075 414.495464,103.90017 412.893377,105.247754 Z M395.068997,82.735075 C395.031695,78.456825 396.076129,75.0701107 398.204163,72.5749321 C400.332197,70.0816226 403.017883,68.8349679 406.263088,68.8349679 C409.323652,68.8349679 411.917951,70.016206 414.04412,72.3786821 C416.172153,74.7430274 417.289324,78.1932893 417.403093,82.735075 L395.068997,82.735075 Z" id="Stroke-26" stroke="#717171" stroke-width="0.392" stroke-linecap="round" stroke-linejoin="round"></path>
                        <path d="M438.904067,58.0871964 L447.179339,58.0871964 L447.179339,53.5996131 C447.179339,48.5886964 447.694096,44.8487321 448.723609,42.3815893 C449.749392,39.9125774 451.620048,37.9033512 454.331845,36.3520417 C457.043643,34.8007321 460.473489,34.0232083 464.626978,34.0232083 C468.890506,34.0232083 473.06078,34.6923274 477.137802,36.0286964 L475.214925,46.9532798 C472.827648,46.3551845 470.520568,46.0561369 468.288091,46.0561369 C466.092915,46.0561369 464.513209,46.5925536 463.548973,47.6653869 C462.582872,48.7382202 462.101686,50.8016488 462.101686,53.8500655 L462.101686,58.0871964 L473.290183,58.0871964 L473.290183,70.4696369 L462.101686,70.4696369 L462.101686,117.663089 L447.179339,117.663089 L447.179339,70.4696369 L438.904067,70.4696369 L438.904067,58.0871964 Z" id="Fill-28" fill="#717171"></path>
                        <path d="M438.904067,58.0871964 L447.179339,58.0871964 L447.179339,53.5996131 C447.179339,48.5886964 447.694096,44.8487321 448.723609,42.3815893 C449.749392,39.9125774 451.620048,37.9033512 454.331845,36.3520417 C457.043643,34.8007321 460.473489,34.0232083 464.626978,34.0232083 C468.890506,34.0232083 473.06078,34.6923274 477.137802,36.0286964 L475.214925,46.9532798 C472.827648,46.3551845 470.520568,46.0561369 468.288091,46.0561369 C466.092915,46.0561369 464.513209,46.5925536 463.548973,47.6653869 C462.582872,48.7382202 462.101686,50.8016488 462.101686,53.8500655 L462.101686,58.0871964 L473.290183,58.0871964 L473.290183,70.4696369 L462.101686,70.4696369 L462.101686,117.663089 L447.179339,117.663089 L447.179339,70.4696369 L438.904067,70.4696369 L438.904067,58.0871964 Z" id="Stroke-30" stroke="#717171" stroke-width="0.392" stroke-linecap="round" stroke-linejoin="round"></path>
                        <mask id="mask-8" fill="white">
                            <use xlink:href="#path-7"></use>
                        </mask>
                        <g id="Clip-33"></g>
                        <path d="M486.987745,117.662155 L501.908227,117.662155 L501.908227,58.0862619 L486.987745,58.0862619 L486.987745,117.662155 Z M486.987745,50.0250595 L501.908227,50.0250595 L501.908227,35.4240595 L486.987745,35.4240595 L486.987745,50.0250595 Z" id="Fill-32" fill="#717171" mask="url(#mask-8)"></path>
                        <path d="M486.987745,117.662155 L501.908227,117.662155 L501.908227,58.0862619 L486.987745,58.0862619 L486.987745,117.662155 Z M486.987745,50.0250595 L501.908227,50.0250595 L501.908227,35.4240595 L486.987745,35.4240595 L486.987745,50.0250595 Z" id="Stroke-34" stroke="#717171" stroke-width="0.392" stroke-linecap="round" stroke-linejoin="round" mask="url(#mask-8)"></path>
                        <path d="M546.693359,58.0871964 L546.693359,70.7032679 L536.435527,70.7032679 L536.435527,94.7093155 C536.435527,99.5688393 536.538106,102.402315 536.743262,103.206006 C536.946554,104.009696 537.396033,104.675077 538.087971,105.196542 C538.779908,105.719875 539.60986,105.981542 540.583421,105.981542 C542.000867,105.981542 544.018862,105.476899 546.635542,104.467613 L547.974655,116.706137 C544.507508,118.278006 540.572231,119.064875 536.170689,119.064875 C533.486867,119.064875 531.062289,118.586399 528.898819,117.633185 C526.735349,116.681839 525.140722,115.446399 524.116804,113.93247 C523.091021,112.416673 522.391624,110.370065 522.018612,107.788911 C521.682901,105.955375 521.515045,102.254661 521.515045,96.6792917 L521.515045,70.7032679 L514.638568,70.7032679 L514.638568,58.0871964 L521.515045,58.0871964 L521.515045,46.2897679 L536.435527,37.0604107 L536.435527,58.0871964 L546.693359,58.0871964 Z" id="Fill-35" fill="#717171" mask="url(#mask-8)"></path>
                        <path d="M546.693359,58.0871964 L546.693359,70.7032679 L536.435527,70.7032679 L536.435527,94.7093155 C536.435527,99.5688393 536.538106,102.402315 536.743262,103.206006 C536.946554,104.009696 537.396033,104.675077 538.087971,105.196542 C538.779908,105.719875 539.60986,105.981542 540.583421,105.981542 C542.000867,105.981542 544.018862,105.476899 546.635542,104.467613 L547.974655,116.706137 C544.507508,118.278006 540.572231,119.064875 536.170689,119.064875 C533.486867,119.064875 531.062289,118.586399 528.898819,117.633185 C526.735349,116.681839 525.140722,115.446399 524.116804,113.93247 C523.091021,112.416673 522.391624,110.370065 522.018612,107.788911 C521.682901,105.955375 521.515045,102.254661 521.515045,96.6792917 L521.515045,70.7032679 L514.638568,70.7032679 L514.638568,58.0871964 L521.515045,58.0871964 L521.515045,46.2897679 L536.435527,37.0604107 L536.435527,58.0871964 L546.693359,58.0871964 Z" id="Stroke-36" stroke="#717171" stroke-width="0.392" stroke-linecap="round" stroke-linejoin="round" mask="url(#mask-8)"></path>
                        <path d="M587.327613,104.510414 C589.770841,109.278355 593.340567,112.894962 598.038653,115.363974 C602.738605,117.831117 607.67915,119.064688 612.862152,119.064688 C621.215757,119.064688 628.151916,116.102248 633.670629,110.175498 C639.189343,104.248748 641.947767,96.7781643 641.947767,87.7656167 C641.947767,78.8297 639.215453,71.4338786 633.754557,65.5818905 C628.289931,59.7299024 621.288494,56.8029738 612.750249,56.8029738 C607.231535,56.8029738 602.223849,58.0926167 597.730919,60.6737714 C593.237988,63.2549262 589.770841,66.9930214 587.327613,71.8917952 C584.884384,76.790569 583.664634,81.8594262 583.664634,87.0946286 C583.664634,93.9372119 584.884384,99.7424738 587.327613,104.510414 M602.912056,74.3626762 C605.564172,71.2226762 608.852273,69.6526762 612.77636,69.6526762 C616.66128,69.6526762 619.928866,71.2226762 622.580981,74.3626762 C625.233097,77.5045452 626.56102,81.9902595 626.56102,87.8216881 C626.56102,93.8026405 625.233097,98.3649857 622.580981,101.504986 C619.928866,104.644986 616.66128,106.214986 612.77636,106.214986 C608.852273,106.214986 605.564172,104.644986 602.912056,101.504986 C600.261805,98.3649857 598.935747,93.8400214 598.935747,87.933831 C598.935747,82.0276405 600.261805,77.5045452 602.912056,74.3626762" id="Fill-37" fill="#717171" mask="url(#mask-8)"></path>
                        <path d="M587.327613,104.510414 C589.770841,109.278355 593.340567,112.894962 598.038653,115.363974 C602.738605,117.831117 607.67915,119.064688 612.862152,119.064688 C621.215757,119.064688 628.151916,116.102248 633.670629,110.175498 C639.189343,104.248748 641.947767,96.7781643 641.947767,87.7656167 C641.947767,78.8297 639.215453,71.4338786 633.754557,65.5818905 C628.289931,59.7299024 621.288494,56.8029738 612.750249,56.8029738 C607.231535,56.8029738 602.223849,58.0926167 597.730919,60.6737714 C593.237988,63.2549262 589.770841,66.9930214 587.327613,71.8917952 C584.884384,76.790569 583.664634,81.8594262 583.664634,87.0946286 C583.664634,93.9372119 584.884384,99.7424738 587.327613,104.510414 Z M602.912056,74.3626762 C605.564172,71.2226762 608.852273,69.6526762 612.77636,69.6526762 C616.66128,69.6526762 619.928866,71.2226762 622.580981,74.3626762 C625.233097,77.5045452 626.56102,81.9902595 626.56102,87.8216881 C626.56102,93.8026405 625.233097,98.3649857 622.580981,101.504986 C619.928866,104.644986 616.66128,106.214986 612.77636,106.214986 C608.852273,106.214986 605.564172,104.644986 602.912056,101.504986 C600.261805,98.3649857 598.935747,93.8400214 598.935747,87.933831 C598.935747,82.0276405 600.261805,77.5045452 602.912056,74.3626762 Z" id="Stroke-38" stroke="#717171" stroke-width="0.392" stroke-linecap="round" stroke-linejoin="round" mask="url(#mask-8)"></path>
                        <path d="M705.999344,117.663089 L691.078862,117.663089 L691.078862,87.2779821 C691.078862,80.8503274 690.763667,76.6916964 690.133277,74.8039583 C689.502886,72.9180893 688.475238,71.4508869 687.050332,70.4042202 C685.623561,69.3575536 683.909571,68.8342202 681.910226,68.8342202 C679.315927,68.8342202 677.001387,69.5818393 674.964742,71.0770774 C672.928096,72.5723155 671.529301,74.553506 670.768356,77.0187798 C670.009277,79.4859226 669.630669,84.0463988 669.630669,90.6983393 L669.630669,117.663089 L654.710187,117.663089 L654.710187,58.0871964 L668.582506,58.0871964 L668.582506,66.8343393 C673.480154,60.1468869 679.660963,56.8012917 687.123069,56.8012917 C690.390655,56.8012917 693.376616,57.4274226 696.088414,58.6796845 C698.798347,59.9319464 700.848048,61.5318512 702.239383,63.4737917 C703.630718,65.4157321 704.606144,67.6212083 705.163797,70.0864821 C705.72145,72.551756 705.999344,76.0823869 705.999344,80.676506 L705.999344,117.663089 Z" id="Fill-39" fill="#717171" mask="url(#mask-8)"></path>
                        <path d="M705.999344,117.663089 L691.078862,117.663089 L691.078862,87.2779821 C691.078862,80.8503274 690.763667,76.6916964 690.133277,74.8039583 C689.502886,72.9180893 688.475238,71.4508869 687.050332,70.4042202 C685.623561,69.3575536 683.909571,68.8342202 681.910226,68.8342202 C679.315927,68.8342202 677.001387,69.5818393 674.964742,71.0770774 C672.928096,72.5723155 671.529301,74.553506 670.768356,77.0187798 C670.009277,79.4859226 669.630669,84.0463988 669.630669,90.6983393 L669.630669,117.663089 L654.710187,117.663089 L654.710187,58.0871964 L668.582506,58.0871964 L668.582506,66.8343393 C673.480154,60.1468869 679.660963,56.8012917 687.123069,56.8012917 C690.390655,56.8012917 693.376616,57.4274226 696.088414,58.6796845 C698.798347,59.9319464 700.848048,61.5318512 702.239383,63.4737917 C703.630718,65.4157321 704.606144,67.6212083 705.163797,70.0864821 C705.72145,72.551756 705.999344,76.0823869 705.999344,80.676506 L705.999344,117.663089 Z" id="Stroke-40" stroke="#717171" stroke-width="0.392" stroke-linecap="round" stroke-linejoin="round" mask="url(#mask-8)"></path>
                        <path d="M753.614705,105.247754 C752.012618,106.595337 750.03752,107.266325 747.691274,107.266325 C744.263293,107.266325 741.406021,105.965468 739.115727,103.360015 C736.823568,100.758301 735.622469,97.1136583 735.510565,92.431694 L772.927404,92.431694 C773.11391,80.3688607 770.786315,71.4142536 765.942753,65.5697417 C761.101057,59.7270988 754.489418,56.8020393 746.109703,56.8020393 C738.621486,56.8020393 732.438811,59.5981345 727.557948,65.188456 C722.678951,70.7806464 720.239452,78.5110274 720.239452,88.3833369 C720.239452,96.6463964 722.102647,103.492718 725.830903,108.912956 C730.525259,115.680777 737.772883,119.065623 747.573775,119.065623 C753.795616,119.065623 758.965563,117.562908 763.083616,114.55748 C767.201669,111.55392 770.210011,107.174742 772.112373,101.425551 L757.191891,98.7397298 C756.408565,101.732075 755.216792,103.90017 753.614705,105.247754 L753.614705,105.247754 Z M735.790324,82.735075 C735.753023,78.456825 736.797457,75.0701107 738.925491,72.5749321 C741.053524,70.0816226 743.739211,68.8349679 746.984416,68.8349679 C750.04498,68.8349679 752.639279,70.016206 754.765447,72.3786821 C756.893481,74.7430274 758.010652,78.1932893 758.124421,82.735075 L735.790324,82.735075 Z" id="Fill-41" fill="#717171" mask="url(#mask-8)"></path>
                        <path d="M753.614705,105.247754 C752.012618,106.595337 750.03752,107.266325 747.691274,107.266325 C744.263293,107.266325 741.406021,105.965468 739.115727,103.360015 C736.823568,100.758301 735.622469,97.1136583 735.510565,92.431694 L772.927404,92.431694 C773.11391,80.3688607 770.786315,71.4142536 765.942753,65.5697417 C761.101057,59.7270988 754.489418,56.8020393 746.109703,56.8020393 C738.621486,56.8020393 732.438811,59.5981345 727.557948,65.188456 C722.678951,70.7806464 720.239452,78.5110274 720.239452,88.3833369 C720.239452,96.6463964 722.102647,103.492718 725.830903,108.912956 C730.525259,115.680777 737.772883,119.065623 747.573775,119.065623 C753.795616,119.065623 758.965563,117.562908 763.083616,114.55748 C767.201669,111.55392 770.210011,107.174742 772.112373,101.425551 L757.191891,98.7397298 C756.408565,101.732075 755.216792,103.90017 753.614705,105.247754 Z M735.790324,82.735075 C735.753023,78.456825 736.797457,75.0701107 738.925491,72.5749321 C741.053524,70.0816226 743.739211,68.8349679 746.984416,68.8349679 C750.04498,68.8349679 752.639279,70.016206 754.765447,72.3786821 C756.893481,74.7430274 758.010652,78.1932893 758.124421,82.735075 L735.790324,82.735075 Z" id="Stroke-42" stroke="#717171" stroke-width="0.392" stroke-linecap="round" stroke-linejoin="round" mask="url(#mask-8)"></path>
                    </g>
                    <g id="Group-46" transform="translate(70.007229, 67.950849)">
                        <mask id="mask-10" fill="white">
                            <use xlink:href="#path-9"></use>
                        </mask>
                        <g id="Clip-45"></g>
                        <path d="M19.3683229,0.564452381 L0.620737349,10.1470595 C0.620737349,10.1470595 21.0636627,2.62040476 24.4748578,19.5820119 L24.4748578,19.5820119 C27.8487518,36.4071786 8.05486747,49.6979762 8.05486747,49.6979762 L8.05486747,49.6979762 L25.7934554,42.9058571 C25.7934554,42.9058571 41.292106,32.2915357 38.073012,16.2625833 L38.073012,16.2625833 C34.9117349,0.586880952 19.4615759,0.564452381 19.370188,0.564452381 L19.370188,0.564452381 C19.3683229,0.564452381 19.3683229,0.564452381 19.3683229,0.564452381" id="Fill-44" mask="url(#mask-10)"></path>
                    </g>
                </g>
                <g id="B---Logo" transform="translate(7.000000, 35.000000)">
                    <g id="Group-3" transform="translate(50.447368, 12.246687)">
                        <mask id="mask-13" fill="white">
                            <use xlink:href="#path-12"></use>
                        </mask>
                        <use id="Clip-2" fill="url(#linearGradient-11)" xlink:href="#path-12"></use>
                        <polygon id="Fill-1" mask="url(#mask-13)" points="0.0429736842 6.91875 0.0429736842 75 13.2415 68.296875 13.2415 0.19875"></polygon>
                    </g>
                    <g id="Group-6" transform="translate(0.000000, 7.621687)">
                        <mask id="mask-16" fill="white">
                            <use xlink:href="#path-15"></use>
                        </mask>
                        <use id="Clip-5" fill="url(#linearGradient-14)" xlink:href="#path-15"></use>
                        <path d="M63.1358158,11.811875 C22.5163421,26.811875 -3.80784211,49.87625 0.450289474,63.9125 L0.450289474,63.9125 C4.7215,77.976875 39.6908684,77.448125 78.5913947,62.70875 L78.5913947,62.70875 C117.452684,47.975 145.525711,24.665 141.250763,10.62125 L141.250763,10.62125 C139.188026,3.843125 130.021553,0.533749311 116.718395,0.533749311 L116.718395,0.533749311 C102.413763,0.531875 83.3297105,4.356875 63.1358158,11.811875 M6.70202632,61.424375 C1.68531579,49.630625 26.0084211,27.749375 60.9329474,14.37125 L60.9329474,14.37125 C95.8742895,0.974375 129.345184,-0.52375 134.791632,12.021875 L134.791632,12.021875 C140.271711,24.5825 115.688895,46.8725 80.7456842,60.288125 L80.7456842,60.288125 C62.7733421,67.165625 45.1167632,70.6025 31.4772895,70.6025 L31.4772895,70.6025 C18.602,70.6025 9.30847368,67.5425 6.70202632,61.424375" id="Fill-4" mask="url(#mask-16)"></path>
                    </g>
                    <g id="Group-9" transform="translate(49.578947, 0.121687)">
                        <mask id="mask-19" fill="white">
                            <use xlink:href="#path-18"></use>
                        </mask>
                        <use id="Clip-8" fill="url(#linearGradient-17)" xlink:href="#path-18"></use>
                        <path d="M24.7673947,0.753125 C22.4374737,0.771875 20.8399737,1.086875 20.8399737,1.086875 L0.814236842,11.2325 C0.814236842,11.2325 22.2562368,2.435 28.3024474,17.27375 C31.9645526,26.2475 25.0140263,35.988125 25.0140263,35.988125 L38.8141842,28.983125 C38.8141842,28.983125 45.0958158,21.858125 41.5065789,11.208125 C38.5171053,2.331875 30.3184737,0.794375 25.1915263,0.753125 L24.7673947,0.753125 Z" id="Fill-7" mask="url(#mask-19)"></path>
                    </g>
                    <g id="Group-12" transform="translate(64.526316, 33.871687)">
                        <mask id="mask-22" fill="white">
                            <use xlink:href="#path-21"></use>
                        </mask>
                        <use id="Clip-11" fill="url(#linearGradient-20)" xlink:href="#path-21"></use>
                        <path d="M19.1752105,0.36875 L0.391973684,9.981875 C0.391973684,9.981875 20.8717368,2.433125 24.2872105,19.44875 L24.2872105,19.44875 C27.6690526,36.325625 7.8395,49.65875 7.8395,49.65875 L7.8395,49.65875 L25.6100526,42.845 C25.6100526,42.845 41.1347632,32.19875 37.9098684,16.11875 L37.9098684,16.11875 C34.7428947,0.393125 19.2667632,0.36875 19.1752105,0.36875 L19.1752105,0.36875 C19.1752105,0.36875 19.1752105,0.36875 19.1752105,0.36875" id="Fill-10" mask="url(#mask-22)"></path>
                    </g>
                    <g id="Group-3" transform="translate(50.447368, 11.125000)">
                        <mask id="mask-25" fill="white">
                            <use xlink:href="#path-24"></use>
                        </mask>
                        <use id="Clip-2" fill="url(#linearGradient-23)" xlink:href="#path-24"></use>
                    </g>
                </g>
                <g id="Group" transform="translate(400.000000, 128.000000)">
                    <path d="M0,1.37109375 L16.1698359,1.37109375 L16.1698359,76.3813477 L0,76.3813477 L0,1.37109375 Z M46.4452734,27.2504883 L46.4452734,33.0776367 C51.4529782,28.393043 56.7090779,26.0507812 62.2137305,26.0507812 C66.9156212,26.0507812 70.805135,27.9741019 73.8823887,31.8208008 C76.9596423,35.6674997 78.4982461,40.5805365 78.4982461,46.5600586 L78.4982461,76.3813477 L63.5898867,76.3813477 L63.5898867,48.9023437 C63.5898867,46.0839703 62.8158066,43.703623 61.267623,41.7612305 C59.7194395,39.8188379 57.8368001,38.8476562 55.6196484,38.8476562 C52.9437757,38.8476562 50.7457703,40.0759155 49.0255664,42.5324707 C47.3053625,44.989026 46.4452734,48.1596485 46.4452734,52.0444336 L46.4452734,76.3813477 L31.7662734,76.3813477 L31.7662734,27.2504883 L46.4452734,27.2504883 Z M125.688938,0.114257812 L140.482617,0.114257812 L140.482617,76.3813477 L126.032977,76.3813477 L126.032977,67.9833984 L125.803617,67.9833984 C121.522221,74.115265 116.208782,77.1811523 109.863141,77.1811523 C104.205581,77.1811523 99.3795258,74.7246339 95.3848301,69.8115234 C91.3901343,64.8984129 89.3928164,58.8999378 89.3928164,51.815918 C89.3928164,44.7318982 91.4570301,38.6858161 95.5855195,33.6774902 C99.7140089,28.6691644 104.664299,26.1650391 110.436539,26.1650391 C113.72404,26.1650391 116.495438,26.7648866 118.750816,27.9645996 C121.006195,29.1643126 123.318879,31.1161974 125.688938,33.8203125 L125.688938,0.114257812 Z M114.851707,40.6757812 C112.443422,40.6757812 110.188077,41.7802624 108.085605,43.9892578 C105.983134,46.1982532 104.931914,49.1879694 104.931914,52.9584961 C104.931914,55.9673002 105.858899,58.5380753 107.712896,60.6708984 C109.566894,62.8037216 111.812682,63.8701172 114.450328,63.8701172 C117.584922,63.8701172 120.203415,62.7180291 122.305887,60.4138184 C124.408358,58.1096076 125.459578,55.2436695 125.459578,51.815918 C125.459578,48.8452 124.437028,46.2458607 122.391896,44.0178223 C120.346765,41.7897838 117.833394,40.6757812 114.851707,40.6757812 Z M153.95748,51.9301758 C153.95748,44.3510363 156.384843,38.1621334 161.239641,33.3632812 C166.094438,28.5644291 172.325306,26.1650391 179.93243,26.1650391 C187.004379,26.1650391 192.938994,28.6120361 197.736451,33.5061035 C202.533909,38.400171 204.932602,44.4652958 204.932602,51.7016602 C204.932602,59.090369 202.533909,65.2221436 197.736451,70.097168 C192.938994,74.9721923 186.927927,77.409668 179.70307,77.409668 C171.560772,77.409668 165.234339,74.8293715 160.723582,69.6687012 C156.212825,64.5080308 153.95748,58.5952482 153.95748,51.9301758 Z M190.482961,51.9301758 C190.482961,48.6166827 189.393515,45.7221803 187.21459,43.246582 C185.035665,40.7709837 182.493624,39.5332031 179.588391,39.5332031 C176.568477,39.5332031 173.969097,40.6948126 171.790172,43.0180664 C169.611247,45.3413202 168.521801,48.1215658 168.521801,51.3588867 C168.521801,54.9008966 169.60169,57.9096556 171.761502,60.3852539 C173.921314,62.8608522 176.53025,64.0986328 179.588391,64.0986328 C182.493624,64.0986328 185.035665,62.8894164 187.21459,60.4709473 C189.393515,58.0524781 190.482961,55.2055828 190.482961,51.9301758 Z M233.430504,27.2504883 L233.430504,33.0776367 C238.438209,28.393043 243.694308,26.0507812 249.198961,26.0507812 C253.900852,26.0507812 257.790365,27.9741019 260.867619,31.8208008 C263.944873,35.6674997 265.483477,40.5805365 265.483477,46.5600586 L265.483477,76.3813477 L250.575117,76.3813477 L250.575117,48.9023437 C250.575117,46.0839703 249.801037,43.703623 248.252854,41.7612305 C246.70467,39.8188379 244.822031,38.8476562 242.604879,38.8476562 C239.929006,38.8476562 237.731001,40.0759155 236.010797,42.5324707 C234.290593,44.989026 233.430504,48.1596485 233.430504,52.0444336 L233.430504,76.3813477 L218.751504,76.3813477 L218.751504,27.2504883 L233.430504,27.2504883 Z M325.862332,55.3007812 L290.713008,55.3007812 C290.904142,58.4619299 291.945805,61.0327049 293.838029,63.0131836 C295.730254,64.9936622 297.937816,65.9838867 300.460781,65.9838867 C304.971538,65.9838867 308.50746,63.9463094 311.068652,59.8710937 L324.543516,64.3271484 C319.535811,73.0488717 311.756783,77.409668 301.206199,77.409668 C293.446168,77.409668 287.27264,75.0674062 282.68543,70.3828125 C278.098219,65.6982188 275.804648,59.3950591 275.804648,51.4731445 C275.804648,44.3510386 278.222454,38.3716062 283.058139,33.534668 C287.893823,28.6977297 293.847551,26.2792969 300.9195,26.2792969 C308.029676,26.2792969 313.964291,28.8215078 318.723521,33.9060059 C323.482752,38.9905039 325.862332,45.3412705 325.862332,52.9584961 L325.862332,55.3007812 Z M290.827688,45.4746094 L310.667273,45.4746094 C309.29111,39.3427428 306.13745,36.2768555 301.206199,36.2768555 C298.377419,36.2768555 296.036066,37.0766522 294.182068,38.6762695 C292.328071,40.2758869 291.209955,42.5419775 290.827688,45.4746094 Z M372.479625,34.1630859 L362.502492,40.21875 C359.635486,37.3242043 356.959653,35.8769531 354.474914,35.8769531 C353.251658,35.8769531 352.200438,36.2197231 351.321223,36.9052734 C350.442007,37.5908237 350.002406,38.428706 350.002406,39.4189453 C350.002406,41.0185627 350.508903,42.1801722 351.521912,42.9038086 C352.534921,43.627445 355.239423,44.7414476 359.6355,46.2458496 C364.031577,47.7502517 367.500603,49.6830937 370.042682,52.0444336 C372.584761,54.4057735 373.855781,57.6811314 373.855781,61.8706055 C373.855781,66.0981657 371.944472,69.7258149 368.121797,72.7536621 C364.299122,75.7815093 359.71198,77.2954102 354.360234,77.2954102 C350.728693,77.2954102 347.106762,76.2861429 343.494334,74.2675781 C339.881906,72.2490133 336.814255,69.1640833 334.291289,65.0126953 L346.160637,59.6425781 C348.836509,64.2509996 351.607908,66.5551758 354.474914,66.5551758 C355.774624,66.5551758 356.940522,66.1362347 357.972645,65.2983398 C359.004767,64.460445 359.52082,63.5083061 359.52082,62.4418945 C359.52082,61.0707939 358.928315,60.0329625 357.743285,59.3283691 C356.558256,58.6237758 355.679054,58.2714844 355.105652,58.2714844 C354.876292,58.0048815 353.500149,57.4716837 350.977184,56.671875 C341.114681,53.4726403 336.183504,48.2739618 336.183504,41.0756836 C336.183504,36.733865 337.951465,33.1823869 341.487439,30.4211426 C345.023414,27.6598983 349.639225,26.2792969 355.335012,26.2792969 C361.642426,26.2792969 367.35724,28.9072003 372.479625,34.1630859 Z M386.986605,27.2504883 L401.665605,27.2504883 L401.665605,76.3813477 L386.986605,76.3813477 L386.986605,27.2504883 Z M449.544375,76.3813477 L449.544375,67.9833984 L449.315016,67.9833984 C447.02141,71.2588054 444.708727,73.6296313 442.376895,75.0959473 C440.045063,76.5622632 437.158986,77.2954102 433.718578,77.2954102 C427.946338,77.2954102 423.034274,74.819849 418.982238,69.8686523 C414.930202,64.9174557 412.904215,58.8999378 412.904215,51.815918 C412.904215,44.8080704 415.063994,38.8000739 419.383617,33.791748 C423.70324,28.7834222 428.825548,26.2792969 434.750695,26.2792969 C437.579475,26.2792969 440.121516,26.9077086 442.376895,28.1645508 C444.632273,29.421393 447.021409,31.4208847 449.544375,34.1630859 L449.544375,27.3647461 L464.223375,27.3647461 L464.223375,76.3813477 L449.544375,76.3813477 Z M438.764484,40.9042969 C441.593264,40.9042969 444.03974,42.0182994 446.103984,44.2463379 C448.168229,46.4743764 449.200336,49.1118012 449.200336,52.1586914 C449.200336,55.4340984 448.168229,58.2238654 446.103984,60.5280762 C444.03974,62.8322869 441.555038,63.984375 438.649805,63.984375 C435.629891,63.984375 433.192972,62.9846291 431.338975,60.9851074 C429.484977,58.9855857 428.557992,56.3481609 428.557992,53.0727539 C428.557992,49.5688301 429.53276,46.6648064 431.482324,44.3605957 C433.431889,42.056385 435.859251,40.9042969 438.764484,40.9042969 Z" id="Indonesia" fill="#9A0F0F" fill-rule="nonzero"></path>
                    <ellipse id="Oval" fill="#FFFFFF" cx="438.672559" cy="51.3099191" rx="11.184" ry="12.0714286"></ellipse>
                </g>
                <rect id="Rectangle" fill="#9A0F0F" x="787" y="133" width="15" height="15"></rect>
            </g>
        </g>
    </g>
</svg>