<?xml version="1.0" encoding="UTF-8"?>
<svg width="28px" height="25px" viewBox="0 0 28 25" version="1.1" xmlns="http://www.w3.org/2000/svg" xmlns:xlink="http://www.w3.org/1999/xlink">
    <title>B246A5F5-8C17-40F7-BC4E-9B3F33603176@2x</title>
    <g id="Index-WhitePaper" stroke="none" stroke-width="1" fill="none" fill-rule="evenodd">
        <g id="index-white-paper" transform="translate(-196.000000, -1068.000000)" fill-rule="nonzero">
            <g id="Group-6" transform="translate(188.000000, 864.000000)">
                <g id="Group-7" transform="translate(0.000000, 197.000000)">
                    <g id="download-to-storage-drive" transform="translate(8.000000, 8.000000)">
                        <polygon id="Path" fill="#FFCA00" points="0 20.56 27.2 20.56 27.2 23.76 0 23.76"></polygon>
                        <path d="M25.1504034,15.1576639 C24.8819664,14.8890252 24.5554454,14.754605 24.1717479,14.754605 L17.4921849,14.754605 L15.5344706,16.7122689 C14.9778319,17.2495966 14.3252941,17.5183866 13.5767563,17.5183866 C12.8283697,17.5183866 12.1756303,17.2499496 11.619042,16.7122689 L9.67569748,14.754605 L2.98191597,14.754605 C2.59811765,14.754605 2.27184874,14.8891765 2.00305882,15.1576639 C1.73431933,15.4263025 1.6,15.7526218 1.6,16.1366723 L1.6,20.742958 C1.6,21.1268571 1.73431933,21.4531261 2.00305882,21.7218151 C2.27179832,21.9904538 2.59806723,22.1246723 2.98191597,22.1246723 L24.1717983,22.1246723 C24.5554958,22.1246723 24.8820168,21.9904538 25.1504538,21.7218151 C25.4192941,21.4531261 25.5535126,21.1268571 25.5535126,20.742958 L25.5535126,16.1366723 C25.5535126,15.7526218 25.4192941,15.4263025 25.1504034,15.1576639 Z M19.752521,20.0087899 C19.5699496,20.1911597 19.3539496,20.2822689 19.1044202,20.2822689 C18.8548908,20.2822689 18.6391933,20.1911597 18.4566723,20.0087899 C18.2744538,19.8264202 18.1833445,19.6105714 18.1833445,19.3611933 C18.1833445,19.1117143 18.2744538,18.8955126 18.4566723,18.7134454 C18.6391933,18.5309244 18.8548908,18.4396134 19.1044202,18.4396134 C19.3539496,18.4396134 19.5698992,18.5309244 19.752521,18.7134454 C19.9346891,18.8954622 20.0258487,19.1116639 20.0258487,19.3611933 C20.0258487,19.610521 19.9346891,19.8264202 19.752521,20.0087899 Z M23.4374286,20.0087899 C23.2552101,20.1911597 23.0392101,20.2822689 22.7896303,20.2822689 C22.5401513,20.2822689 22.3243025,20.1911597 22.1418824,20.0087899 C21.9597143,19.8264202 21.868605,19.6105714 21.868605,19.3611933 C21.868605,19.1117143 21.9597143,18.8955126 22.1418824,18.7134454 C22.3242521,18.5309244 22.5401008,18.4396134 22.7896303,18.4396134 C23.0391597,18.4396134 23.2551597,18.5309244 23.4374286,18.7134454 C23.6197983,18.8954622 23.7110588,19.1116639 23.7110588,19.3611933 C23.7110588,19.610521 23.6199496,19.8264202 23.4374286,20.0087899 Z" id="Shape" stroke="#000000"></path>
                        <path d="M12.9290084,15.4023025 C13.1018487,15.5844706 13.3177479,15.6756303 13.5767563,15.6756303 C13.8359664,15.6756303 14.0516134,15.5844706 14.2245042,15.4023025 L20.6735966,8.95315966 C20.9710252,8.67489076 21.0383361,8.33894118 20.8751261,7.94546218 C20.7122689,7.57129412 20.4290588,7.38418487 20.0258487,7.38398319 L16.3405882,7.38398319 L16.3405882,0.934941176 C16.3405882,0.685462185 16.2492773,0.469512605 16.0672605,0.287193277 C15.8847395,0.104823529 15.6688908,0.0136134454 15.4195126,0.0136134454 L11.734,0.0136134454 C11.4846218,0.0136134454 11.2686723,0.104823529 11.0862521,0.287193277 C10.9039832,0.469512605 10.8127731,0.685411765 10.8127731,0.934941176 L10.8127731,7.38403361 L7.12761345,7.38403361 C6.72435294,7.38403361 6.44139496,7.57134454 6.27823529,7.94551261 C6.11517647,8.33884034 6.18228571,8.67494118 6.47986555,8.95321008 L12.9290084,15.4023025 Z" id="Path" stroke="#000000"></path>
                    </g>
                </g>
            </g>
        </g>
    </g>
</svg>