<?xml version="1.0" encoding="UTF-8"?>
<svg width="60px" height="60px" viewBox="0 0 60 60" version="1.1" xmlns="http://www.w3.org/2000/svg" xmlns:xlink="http://www.w3.org/1999/xlink">
    <title>5F991611-2811-4438-808C-2CC25CF30102@2x</title>
    <g id="Index-WhitePaper" stroke="none" stroke-width="1" fill="none" fill-rule="evenodd">
        <g id="index-white-paper" transform="translate(-220.000000, -659.000000)">
            <g id="Group-8" transform="translate(188.000000, 639.000000)">
                <g id="Icon" transform="translate(32.000000, 20.000000)">
                    <rect id="Rectangle" fill="#FFFFFF" x="0" y="0" width="60" height="60" rx="10"></rect>
                    <g id="teamwork-(1)" transform="translate(10.000000, 10.000000)" fill-rule="nonzero">
                        <path d="M23.1662162,12.87 L16.7312162,12.87 L16.7312162,9.16351351 C15.5163514,8.18797297 14.8006757,6.71175676 14.8006757,5.14810811 C14.8006757,2.30945946 17.1101351,0 19.9486486,0 C22.7871622,0 25.0966216,2.30945946 25.0966216,5.14797297 C25.0966216,6.7122973 24.3810811,8.18851351 23.1660811,9.16337838 L23.1662162,12.87 L23.1662162,12.87 Z" id="Path" fill="#F9BA48"></path>
                        <path d="M23.8095946,9.65256757 L20.592027,9.65256757 L20.592027,6.96013514 C21.3391892,6.69378378 21.8790541,5.98581081 21.8790541,5.14797297 C21.8790541,4.08364865 21.0128378,3.21743243 19.9485135,3.21743243 C18.8841892,3.21743243 18.017973,4.08364865 18.017973,5.14797297 C18.017973,5.98581081 18.5578378,6.69364865 19.305,6.96013514 L19.305,9.65256757 L16.0874324,9.65256757 L16.0874324,10.9395946 L23.8094595,10.9395946 L23.8095946,9.65256757 L23.8095946,9.65256757 Z M19.9486486,4.50445946 C20.3039189,4.50445946 20.5921622,4.79337838 20.5921622,5.14797297 C20.5921622,5.50256757 20.3039189,5.79148649 19.9486486,5.79148649 C19.5933784,5.79148649 19.3051351,5.50256757 19.3051351,5.14797297 C19.305,4.79337838 19.5933784,4.50445946 19.9486486,4.50445946 Z" id="Shape" fill="#333333"></path>
                        <path d="M25.6068919,27.7728378 L24.9093243,28.8552703 C27.0412162,30.2297297 28.3140541,32.5586486 28.3140541,35.0843243 L28.3140541,38.61 L20.317973,38.61 L25.0090541,30.5687838 L23.8964865,29.9201351 L19.9486486,36.6897297 L16.0001351,29.9202703 L14.8875676,30.5689189 L19.5793243,38.6101351 L11.5831081,38.6101351 L11.5831081,35.0844595 C11.5831081,32.5581081 12.8559459,30.2291892 14.9878378,28.8547297 L14.2902703,27.7722973 C11.7889189,29.3862162 10.2960811,32.1191892 10.2960811,35.0844595 L10.2960811,39.8971622 L29.6010811,39.8971622 L29.6010811,35.0844595 C29.6010811,32.1190541 28.1082432,29.3860811 25.6068919,27.7728378 Z" id="Path" fill="#333333"></path>
                        <path d="M12.8102703,21.9047297 C12.8102703,25.8222973 15.9968919,29.0089189 19.9144595,29.0089189 C23.832027,29.0089189 27.0186486,25.8222973 27.0186486,21.9047297 C27.0186486,17.9877027 23.832027,14.8005405 19.9144595,14.8005405 C15.9968919,14.8005405 12.8102703,17.9878378 12.8102703,21.9047297 Z M25.7317568,21.9047297 C25.7317568,25.1118919 23.1217568,27.722027 19.9144595,27.722027 C16.7071622,27.722027 14.0971622,25.112027 14.0971622,21.9047297 C14.0971622,18.6968919 16.7071622,16.0874324 19.9144595,16.0874324 C23.1217568,16.0874324 25.7317568,18.6968919 25.7317568,21.9047297 Z" id="Shape" fill="#333333"></path>
                        <path d="M11.2214865,24.2754054 C10.6893243,24.4272973 10.15,24.5044595 9.61918919,24.5044595 C6.41202703,24.5044595 3.80189189,21.8944595 3.80189189,18.6871622 C3.80189189,15.4793243 6.41189189,12.8698649 9.61918919,12.8698649 C11.3701351,12.8698649 13.0110811,13.6485135 14.1224324,15.0068919 L15.1191892,14.1916216 C13.762027,12.5339189 11.7575676,11.5828378 9.61851351,11.5828378 C5.70094595,11.5828378 2.51432432,14.7701351 2.51432432,18.687027 C2.51432432,22.6045946 5.70094595,25.7912162 9.61851351,25.7912162 C10.2690541,25.7912162 10.9267568,25.6972973 11.5740541,25.5125676 L11.2214865,24.2754054 Z" id="Path" fill="#333333"></path>
                        <path d="M1.28716216,31.8667568 C1.28716216,29.3404054 2.56,27.0114865 4.69189189,25.637027 L3.99432432,24.5545946 C1.49310811,26.1686486 0.000135135135,28.9014865 0.000135135135,31.8667568 L0.000135135135,36.6794595 L8.36567568,36.6794595 L8.36567568,35.3924324 L1.28716216,35.3924324 L1.28716216,31.8667568 Z" id="Path" fill="#333333"></path>
                        <path d="M37.3148649,18.6872973 C37.3148649,14.7702703 34.1282432,11.5831081 30.2106757,11.5831081 C28.0722973,11.5831081 26.0678378,12.5341892 24.7106757,14.1918919 L25.7074324,15.0071622 C26.8187838,13.6487838 28.4602703,12.8701351 30.2106757,12.8701351 C33.4178378,12.8701351 36.027973,15.4795946 36.027973,18.6874324 C36.027973,21.8945946 33.417973,24.5047297 30.2106757,24.5047297 C29.6797297,24.5047297 29.1405405,24.4275676 28.6083784,24.2756757 L28.2537838,25.5124324 C28.9010811,25.6977027 29.5594595,25.7922973 30.2106757,25.7922973 C34.1282432,25.7914865 37.3148649,22.6048649 37.3148649,18.6872973 Z" id="Path" fill="#333333"></path>
                        <path d="M35.902973,24.5554054 L35.2054054,25.6378378 C37.3372973,27.0122973 38.6101351,29.3412162 38.6101351,31.8668919 L38.6101351,35.3925676 L32.1751351,35.3925676 L32.1751351,35.3925676 L30.8881081,35.3925676 L30.8881081,36.6795946 L39.8971622,36.6795946 L39.8971622,31.8668919 C39.8971622,28.9014865 38.4040541,26.1686486 35.902973,24.5554054 Z" id="Path" fill="#333333"></path>
                    </g>
                </g>
            </g>
        </g>
    </g>
</svg>