<?xml version="1.0" encoding="UTF-8" standalone="no"?>
<svg
   xmlns:dc="http://purl.org/dc/elements/1.1/"
   xmlns:cc="http://creativecommons.org/ns#"
   xmlns:rdf="http://www.w3.org/1999/02/22-rdf-syntax-ns#"
   xmlns:svg="http://www.w3.org/2000/svg"
   xmlns="http://www.w3.org/2000/svg"
   version="1.1"
   id="Capa_1"
   x="0px"
   y="0px"
   width="508.044px"
   height="508.044px"
   viewBox="0 0 508.044 508.044"
   style="enable-background:new 0 0 508.044 508.044;"
   xml:space="preserve"><metadata
   id="metadata45"><rdf:RDF><cc:Work
       rdf:about=""><dc:format>image/svg+xml</dc:format><dc:type
         rdf:resource="http://purl.org/dc/dcmitype/StillImage" /><dc:title></dc:title></cc:Work></rdf:RDF></metadata><defs
   id="defs43" />
<g
   transform="rotate(180,254.02225,254.02221)"
   id="g8"
   style="fill:#999999">
	<g
   id="g6"
   style="fill:#999999">
		<path
   d="m 0.108,352.536 c 0,66.794 54.144,120.938 120.937,120.938 66.794,0 120.938,-54.144 120.938,-120.938 0,-66.794 -54.144,-120.937 -120.938,-120.937 -13.727,0 -26.867,2.393 -39.168,6.61 C 109.093,82.118 230.814,-18.543 117.979,64.303 -7.138,156.17 -0.026,348.84 0.114,352.371 c 0,0.055 -0.006,0.104 -0.006,0.165 z"
   id="path2"
   style="fill:#999999" />
		<path
   d="m 266.169,352.536 c 0,66.794 54.144,120.938 120.938,120.938 66.794,0 120.938,-54.144 120.938,-120.938 0,-66.794 -54.145,-120.937 -120.939,-120.937 -13.728,0 -26.867,2.393 -39.168,6.61 C 375.154,82.118 496.875,-18.543 384.04,64.303 258.923,156.17 266.034,348.84 266.175,352.371 c 0,0.055 -0.006,0.104 -0.006,0.165 z"
   id="path4"
   style="fill:#999999" />
	</g>
</g>
<g
   id="g10">
</g>
<g
   id="g12">
</g>
<g
   id="g14">
</g>
<g
   id="g16">
</g>
<g
   id="g18">
</g>
<g
   id="g20">
</g>
<g
   id="g22">
</g>
<g
   id="g24">
</g>
<g
   id="g26">
</g>
<g
   id="g28">
</g>
<g
   id="g30">
</g>
<g
   id="g32">
</g>
<g
   id="g34">
</g>
<g
   id="g36">
</g>
<g
   id="g38">
</g>
</svg>