<svg xmlns="http://www.w3.org/2000/svg" width="303" height="400" viewBox="0 0 303 400">
  <defs>
    <style>
      .cls-1 {
        fill-rule: evenodd;
      }
    </style>
  </defs>
  <path id="Ellipse_1_copy" data-name="Ellipse 1 copy" class="cls-1" d="M302.187,7.051l0-.28a1.975,1.975,0,0,0-3.948-.047l0,0.28A1.975,1.975,0,0,0,302.187,7.051Zm-7.526-.088,0-.28a1.975,1.975,0,0,0-3.948-.047l0,0.28A1.974,1.974,0,0,0,294.661,6.962Zm-7.55-.089,0-.28a1.975,1.975,0,0,0-3.948-.047l0,0.28A1.975,1.975,0,0,0,287.111,6.873Zm-7.533-.089,0-.28a1.975,1.975,0,0,0-3.948-.047l0,0.28A1.975,1.975,0,0,0,279.578,6.785ZM272.049,6.7l0-.28a1.975,1.975,0,0,0-3.948-.047l0,0.28A1.975,1.975,0,0,0,272.049,6.7Zm-7.511-.088,0-.28a1.975,1.975,0,0,0-3.948-.047l0,0.28A1.975,1.975,0,0,0,264.538,6.608ZM257,6.519l0-.28a1.975,1.975,0,0,0-3.948-.047l0,0.28A1.975,1.975,0,0,0,257,6.519ZM249.46,6.43l0-.28a1.975,1.975,0,0,0-3.948-.047l0,0.28A1.975,1.975,0,0,0,249.46,6.43Zm-7.527-.089,0-.28a1.975,1.975,0,0,0-3.948-.047l0,0.28A1.975,1.975,0,0,0,241.933,6.342Zm-7.539-.089,0-.28a1.975,1.975,0,0,0-3.948-.047l0,0.28A1.975,1.975,0,0,0,234.394,6.253Zm-7.536-.089,0-.28a1.975,1.975,0,0,0-3.948-.047l0,0.28A1.975,1.975,0,0,0,226.858,6.164Zm-7.5-.149V5.735a1.974,1.974,0,0,0-3.948,0v0.28A1.974,1.974,0,0,0,219.36,6.015Zm-6.975.374-0.072-.271A1.975,1.975,0,0,0,208.5,7.137l0.073,0.271A1.974,1.974,0,0,0,212.385,6.39Zm-6.457,2.159-0.16-.23a1.975,1.975,0,0,0-3.244,2.251l0.159,0.23A1.975,1.975,0,0,0,205.928,8.549ZM200.805,12.8l-0.241-.143a1.974,1.974,0,0,0-2.018,3.393l0.24,0.143A1.975,1.975,0,0,0,200.805,12.8Zm-2.945,6.1-0.275-.05a1.974,1.974,0,0,0-.706,3.883l0.276,0.05A1.974,1.974,0,0,0,197.86,18.907Zm-0.788,7.118h-0.28a1.974,1.974,0,0,0,0,3.948h0.28A1.974,1.974,0,0,0,197.072,26.025Zm0,7.531h-0.28a1.974,1.974,0,0,0,0,3.948h0.28A1.974,1.974,0,0,0,197.072,33.556Zm0,7.524h-0.28a1.974,1.974,0,0,0,0,3.948h0.28A1.974,1.974,0,0,0,197.072,41.08Zm0,7.536h-0.28a1.974,1.974,0,0,0,0,3.948h0.28A1.974,1.974,0,0,0,197.072,48.617Zm0,7.522h-0.28a1.974,1.974,0,0,0,0,3.948h0.28A1.974,1.974,0,0,0,197.072,56.139Zm0,7.536h-0.28a1.974,1.974,0,0,0,0,3.948h0.28A1.974,1.974,0,0,0,197.072,63.675Zm0,7.529h-0.28a1.974,1.974,0,0,0,0,3.948h0.28A1.974,1.974,0,0,0,197.072,71.2Zm0,7.534h-0.28a1.974,1.974,0,0,0,0,3.948h0.28A1.974,1.974,0,0,0,197.072,78.737Zm0,7.534h-0.28a1.974,1.974,0,0,0,0,3.948h0.28A1.974,1.974,0,0,0,197.072,86.271Zm0,7.548h-0.28a1.974,1.974,0,0,0,0,3.948h0.28A1.974,1.974,0,0,0,197.072,93.82Zm0,7.532h-0.28a1.974,1.974,0,0,0,0,3.948h0.28A1.974,1.974,0,0,0,197.072,101.352Zm0,7.523h-0.28a1.974,1.974,0,0,0,0,3.948h0.28A1.974,1.974,0,0,0,197.072,108.875Zm0,7.523h-0.28a1.974,1.974,0,0,0,0,3.948h0.28A1.974,1.974,0,0,0,197.072,116.4Zm0,7.532h-0.28a1.974,1.974,0,0,0,0,3.948h0.28A1.974,1.974,0,0,0,197.072,123.93Zm0,7.548h-0.28a1.974,1.974,0,0,0,0,3.948h0.28A1.974,1.974,0,0,0,197.072,131.478Zm0,7.532h-0.28a1.974,1.974,0,0,0,0,3.948h0.28A1.974,1.974,0,0,0,197.072,139.01Zm0,7.533h-0.28a1.974,1.974,0,0,0,0,3.948h0.28A1.974,1.974,0,0,0,197.072,146.543Zm0,7.527h-0.28a1.974,1.974,0,0,0,0,3.948h0.28A1.974,1.974,0,0,0,197.072,154.07Zm0,7.534h-0.28a1.974,1.974,0,0,0,0,3.948h0.28A1.974,1.974,0,0,0,197.072,161.6Zm0,7.52h-0.28a1.974,1.974,0,0,0,0,3.948h0.28A1.974,1.974,0,0,0,197.072,169.124Zm0,7.532h-0.28a1.974,1.974,0,0,0,0,3.948h0.28A1.974,1.974,0,0,0,197.072,176.656Zm0,7.519h-0.28a1.974,1.974,0,0,0,0,3.948h0.28A1.974,1.974,0,0,0,197.072,184.175Zm0,7.546h-0.28a1.974,1.974,0,0,0,0,3.948h0.28A1.974,1.974,0,0,0,197.072,191.721Zm0.1,7.453-0.28.009a1.975,1.975,0,0,0,.134,3.946l0.28-.009A1.975,1.975,0,0,0,197.17,199.174Zm-0.2,8.035-0.274-.057a1.974,1.974,0,0,0-.807,3.864l0.274,0.057A1.974,1.974,0,0,0,196.973,207.209Zm-2.271,7.865-0.241-.142a1.974,1.974,0,0,0-2,3.4l0.241,0.142A1.974,1.974,0,0,0,194.7,215.074Zm-5.03,6.721-0.161-.229a1.974,1.974,0,0,0-3.232,2.267l0.161,0.229A1.974,1.974,0,0,0,189.672,221.8Zm-7.259,4-0.065-.273a1.975,1.975,0,0,0-3.841.919l0.065,0.272A1.975,1.975,0,0,0,182.413,225.793Zm-7.9,1.279v-0.28a1.974,1.974,0,0,0-3.948,0v0.28A1.974,1.974,0,0,0,174.514,227.072Zm-7.54,0v-0.28a1.974,1.974,0,0,0-3.948,0v0.28A1.974,1.974,0,0,0,166.974,227.072Zm-7.546,0v-0.28a1.974,1.974,0,0,0-3.948,0v0.28A1.974,1.974,0,0,0,159.428,227.072Zm-7.521,0v-0.28a1.974,1.974,0,0,0-3.948,0v0.28A1.974,1.974,0,0,0,151.907,227.072Zm-7.534,0v-0.28a1.974,1.974,0,0,0-3.948,0v0.28A1.974,1.974,0,0,0,144.373,227.072Zm-7.539,0v-0.28a1.974,1.974,0,0,0-3.948,0v0.28A1.974,1.974,0,0,0,136.834,227.072Zm-7.517,0v-0.28a1.974,1.974,0,0,0-3.948,0v0.28A1.974,1.974,0,0,0,129.317,227.072Zm-7.542,0v-0.28a1.974,1.974,0,0,0-3.948,0v0.28A1.974,1.974,0,0,0,121.775,227.072Zm-7.513,0v-0.28a1.974,1.974,0,0,0-3.948,0v0.28A1.974,1.974,0,0,0,114.262,227.072Zm-7.551,0v-0.28a1.974,1.974,0,0,0-3.948,0v0.28A1.974,1.974,0,0,0,106.711,227.072Zm-7.527,0v-0.28a1.974,1.974,0,0,0-3.948,0v0.28A1.974,1.974,0,0,0,99.184,227.072Zm-7.519,0v-0.28a1.974,1.974,0,0,0-3.948,0v0.28A1.974,1.974,0,0,0,91.665,227.072Zm-7.55,0v-0.28a1.974,1.974,0,0,0-3.948,0v0.28A1.974,1.974,0,0,0,84.116,227.072Zm-7.517,0v-0.28a1.974,1.974,0,0,0-3.948,0v0.28A1.974,1.974,0,0,0,76.6,227.072Zm-7.543,0v-0.28a1.974,1.974,0,0,0-3.948,0v0.28A1.974,1.974,0,0,0,69.056,227.072Zm-7.531,0v-0.28a1.974,1.974,0,0,0-3.948,0v0.28A1.974,1.974,0,0,0,61.525,227.072Zm-7.532,0v-0.28a1.974,1.974,0,0,0-3.948,0v0.28A1.974,1.974,0,0,0,53.994,227.072Zm-7.536,0v-0.28a1.974,1.974,0,0,0-3.948,0v0.28A1.974,1.974,0,0,0,46.458,227.072Zm-6.42.446-0.142-.242a1.975,1.975,0,0,0-3.406,2l0.142,0.241A1.974,1.974,0,0,0,40.037,227.518Zm-5.217,3.908-0.238-.148a1.975,1.975,0,0,0-2.076,3.359l0.238,0.147A1.974,1.974,0,0,0,34.82,231.426Zm-3.128,6.117-0.272-.068a1.915,1.915,0,0,0-2.356,1.46,2,2,0,0,0,.077,1.244A10,10,0,0,1,33,240.21a2.123,2.123,0,0,0,.086-0.27A1.914,1.914,0,0,0,31.691,237.543Zm-2.862,22.214a1.953,1.953,0,0,0-.969,1.742,1.907,1.907,0,0,0,1.932,1.959h0.28A1.907,1.907,0,0,0,32,261.5a1.993,1.993,0,0,0-.648-1.513A8.535,8.535,0,0,1,28.829,259.757Zm1.243,7.267h-0.28a1.974,1.974,0,0,0,0,3.948h0.28A1.974,1.974,0,0,0,30.072,267.024Zm0,7.554h-0.28a1.974,1.974,0,0,0,0,3.948h0.28A1.974,1.974,0,0,0,30.072,274.578Zm0,7.505h-0.28a1.974,1.974,0,0,0,0,3.948h0.28A1.974,1.974,0,0,0,30.072,282.083Zm0,7.55h-0.28a1.974,1.974,0,0,0,0,3.948h0.28A1.974,1.974,0,0,0,30.072,289.633Zm0,7.536h-0.28a1.974,1.974,0,0,0,0,3.948h0.28A1.974,1.974,0,0,0,30.072,297.169Zm0,7.531h-0.28a1.974,1.974,0,0,0,0,3.948h0.28A1.974,1.974,0,0,0,30.072,304.7Zm0,7.512h-0.28a1.974,1.974,0,0,0,0,3.948h0.28A1.974,1.974,0,0,0,30.072,312.212Zm0,7.545h-0.28a1.974,1.974,0,0,0,0,3.948h0.28A1.974,1.974,0,0,0,30.072,319.757Zm0,7.536h-0.28a1.974,1.974,0,0,0,0,3.948h0.28A1.974,1.974,0,0,0,30.072,327.293Zm0,7.524h-0.28a1.974,1.974,0,0,0,0,3.948h0.28A1.974,1.974,0,0,0,30.072,334.817Zm0,7.537h-0.28a1.974,1.974,0,0,0,0,3.948h0.28A1.974,1.974,0,0,0,30.072,342.354Zm0,7.529h-0.28a1.974,1.974,0,0,0,0,3.948h0.28A1.974,1.974,0,0,0,30.072,349.883Zm0,7.537h-0.28a1.974,1.974,0,0,0,0,3.948h0.28A1.974,1.974,0,0,0,30.072,357.42Zm0,7.524h-0.28a1.974,1.974,0,0,0,0,3.948h0.28A1.974,1.974,0,0,0,30.072,364.944Zm0.049,7.5-0.28,0a1.975,1.975,0,0,0,.052,3.948l0.28,0A1.975,1.975,0,0,0,30.121,372.443Zm-0.546,8.18-0.267-.084a1.975,1.975,0,0,0-1.183,3.768l0.267,0.084A1.975,1.975,0,0,0,29.574,380.623Zm-3.288,7.67-0.212-.183a1.974,1.974,0,0,0-2.584,2.984l0.212,0.183A1.974,1.974,0,0,0,26.286,388.293Zm-6.237,5.646-0.115-.255a1.974,1.974,0,0,0-3.6,1.622l0.115,0.255A1.974,1.974,0,0,0,20.049,393.939ZM12.337,396.6l-0.032-.278a1.915,1.915,0,0,0-2.2-1.691,1.908,1.908,0,0,0-1.725,2.145l0.032,0.278a1.907,1.907,0,0,0,2.169,1.694A1.915,1.915,0,0,0,12.337,396.6Zm-7.752.47v-0.28A1.915,1.915,0,0,0,2.6,394.86a1.908,1.908,0,0,0-1.96,1.932v0.28A1.908,1.908,0,0,0,2.6,399,1.915,1.915,0,0,0,4.585,397.072ZM31,240a10,10,0,1,1-10,10A10,10,0,0,1,31,240Z"/>
</svg>
