<?xml version="1.0" encoding="UTF-8"?>
<svg width="40px" height="40px" viewBox="0 0 40 40" version="1.1" xmlns="http://www.w3.org/2000/svg" xmlns:xlink="http://www.w3.org/1999/xlink">
    <title>35F46523-174C-43AC-817E-EA8D6F4B8E20@1x</title>
    <g id="Page-1" stroke="none" stroke-width="1" fill="none" fill-rule="evenodd">
        <g id="Web-Sistem---Landing-Page" transform="translate(-798.000000, -8957.000000)">
            <g id="folder-(5)" transform="translate(798.000000, 8957.000000)">
                <rect id="Rectangle" fill="#FFCA13" x="1" y="2" width="5" height="35"></rect>
                <rect id="Rectangle" fill="#FFCA13" x="15" y="24" width="15" height="10"></rect>
                <rect id="Rectangle-Copy-9" fill="#FFCA13" x="1" y="2" width="6" height="35"></rect>
                <rect id="Rectangle-Copy-25" fill="#FFCA13" x="5" y="3" width="28" height="6"></rect>
                <path d="M38.046875,11.978125 L37.1484375,11.978125 L37.1484375,9.21875 C37.1484375,8.18046875 36.3351562,7.3296875 35.3125,7.26953125 L35.3125,4.4921875 C35.3125,3.41484375 34.4367188,2.5390625 33.359375,2.5390625 L15.0382813,2.5390625 C15.0171875,2.5140625 13.5726563,0.79375 13.5507812,0.7703125 C13.1078125,0.28046875 12.4742188,0 11.8132812,0 L1.953125,0 C0.87578125,0 0,0.87578125 0,1.953125 L0,36.484375 C0,38.4226563 1.57734375,40 3.515625,40 L38.046875,40 C39.1242188,40 40,39.1242188 40,38.046875 L40,13.93125 C40,12.8539062 39.1242188,11.978125 38.046875,11.978125 Z M34.8046875,9.609375 L34.8046875,11.978125 L9.8828125,11.978125 L9.8828125,9.609375 L34.8046875,9.609375 Z M4.6875,13.93125 L4.6875,36.484375 C4.6875,37.1304687 4.16171875,37.65625 3.515625,37.65625 C2.86953125,37.65625 2.34375,37.1304687 2.34375,36.484375 L2.34375,2.34375 L11.8125,2.34375 L13.3609375,4.1859375 C13.7328125,4.62890625 14.278125,4.8828125 14.85625,4.8828125 L32.96875,4.8828125 L32.96875,7.265625 L9.4921875,7.265625 C8.41484375,7.265625 7.5390625,8.14140625 7.5390625,9.21875 L7.5390625,11.978125 L6.640625,11.978125 C5.56328125,11.978125 4.6875,12.8539062 4.6875,13.93125 Z M37.65625,37.65625 L6.83046875,37.65625 C6.95015625,37.3183594 7.00804687,37.3909375 7.03125,35.839375 C7.06359375,33.6739062 7.03125,28.345 7.03125,14.321875 L37.65625,14.321875 L37.65625,37.65625 Z" id="Shape" fill="#000000" fill-rule="nonzero"></path>
                <path d="M16.015625,35.28125 L28.671875,35.28125 C29.9640625,35.28125 31.015625,34.2296875 31.015625,32.9375 L31.015625,24.0117188 C31.015625,22.71875 29.9640625,21.6679688 28.671875,21.6679688 L26.9140625,21.6679688 L26.9140625,19.040625 C26.9140625,17.7484375 25.8625,16.696875 24.5703125,16.696875 L20.1171875,16.696875 C18.825,16.696875 17.7734375,17.7484375 17.7734375,19.040625 L17.7734375,21.6679688 L16.015625,21.6679688 C14.7234375,21.6679688 13.671875,22.71875 13.671875,24.0117188 L13.671875,32.9375 C13.671875,34.2296875 14.7234375,35.28125 16.015625,35.28125 Z M20.1171875,19.040625 L24.5703125,19.040625 L24.5703125,21.6679688 L20.1171875,21.6679688 L20.1171875,19.040625 Z M16.015625,24.0117187 L28.671875,24.0117187 L28.6734375,32.9367187 C28.6734375,32.9367187 28.6726562,32.9375 28.671875,32.9375 L16.015625,32.9375 L16.015625,24.0117187 Z" id="Shape" fill="#000000" fill-rule="nonzero"></path>
                <path d="M23.1314844,26.3942188 L21.5559375,26.3942188 C20.90875,26.3942188 20.3840625,26.9189063 20.3840625,27.5660938 C20.3840625,28.0785938 20.7135938,28.5130469 21.1717969,28.6722656 L21.1717969,29.42875 C21.1717969,30.0759375 21.6964844,30.600625 22.3436719,30.600625 C22.9908594,30.600625 23.5155469,30.0759375 23.5155469,29.42875 L23.5155469,28.6722656 C23.9738281,28.513125 24.3032813,28.0785938 24.3032813,27.5660938 C24.3033594,26.9189063 23.77875,26.3942188 23.1314844,26.3942188 L23.1314844,26.3942188 Z" id="Path" fill="#000000" fill-rule="nonzero"></path>
            </g>
        </g>
    </g>
</svg>