<?xml version="1.0" encoding="UTF-8"?>
<svg width="99px" height="99px" viewBox="0 0 99 99" version="1.1" xmlns="http://www.w3.org/2000/svg" xmlns:xlink="http://www.w3.org/1999/xlink">
    <!-- Generator: Sketch 52.1 (67048) - http://www.bohemiancoding.com/sketch -->
    <title>Group 42</title>
    <desc>Created with Sketch.</desc>
    <g id="Page-1" stroke="none" stroke-width="1" fill="none" fill-rule="evenodd">
        <g id="Web-Sistem---Landing-Page-" transform="translate(-631.000000, -6266.000000)">
            <g id="Group-42" transform="translate(631.000000, 6266.000000)">
                <circle id="Oval-Copy-14" fill="#FFF4CF" cx="49.5" cy="49.5" r="49.5"></circle>
                <g id="experience-(1)" transform="translate(7.000000, 7.000000)">
                    <path d="M32.8803898,54.4551521 C37.9313216,46.4850507 41.314908,42.5 43.0311489,42.5 C44.7473897,42.5 48.2586671,46.1666667 53.5649809,53.5 C52.2776321,53.8700712 50.676843,54.1884552 48.7626138,54.4551521 C48.7626138,56.2686102 51.8104925,66.0981516 57.90625,83.9437764 L27.9238338,83.9437764 C32.4248821,69.8851742 35.1460809,60.0556327 36.0874302,54.4551521 C35.1853552,54.4264185 34.1163417,54.4264185 32.8803898,54.4551521 Z" id="Rectangle" fill="#FFCA13"></path>
                    <rect id="Rectangle" fill="#FFCA13" x="43" y="2" width="12" height="8"></rect>
                    <path d="M29.0888445,41.061669 C28.4731945,40.7258955 27.7025429,40.9523668 27.3665663,41.5668357 L23.3505982,48.9141823 L18.4636044,39.9728322 C18.2410722,39.5657529 17.8139379,39.3125 17.3496031,39.3125 C16.8854359,39.3125 16.4581339,39.5657529 16.2357693,39.9726648 L8.81763985,53.5443749 C8.81646687,53.5465509 8.81529388,53.5485595 8.81412089,53.5507355 L6.5304852,57.7286549 C6.19450857,58.3432912 6.42106239,59.1134277 7.03620963,59.4488664 C7.22941714,59.5543187 7.4377059,59.6041993 7.64331354,59.6041993 C8.09256709,59.6041993 8.52791237,59.3653415 8.75832029,58.9436997 L10.2406391,56.2319019 L11.7140768,57.7037146 C12.2097471,58.1988383 13.0132423,58.1988383 13.5089126,57.7037146 L14.3036942,56.9098095 L16.452269,59.0560148 C16.7001041,59.3035766 17.0248536,59.4272738 17.3496031,59.4272738 C17.4405933,59.4272738 17.5312483,59.4165612 17.6205628,59.3971446 L9.29755859,74.6244556 C8.96174953,75.2390919 9.18813578,76.0092284 9.80328302,76.3446671 C9.99649053,76.4501194 10.2047793,76.5 10.4103869,76.5 C10.8596405,76.5 11.2949858,76.2611422 11.5253937,75.8395004 L29.5944013,42.7815457 C29.9305456,42.1674116 29.7039917,41.3972751 29.0888445,41.061669 Z M19.4983454,54.2209434 L17.3497706,56.3671487 L15.2011959,54.2209434 C14.7055256,53.7258198 13.9020304,53.7258198 13.4063601,54.2209434 L12.6115785,55.0148486 L11.5084692,53.9129558 L17.3497706,43.2259518 L21.9046419,51.5598632 L20.6401633,53.873453 C20.2396724,53.795117 19.8086839,53.9109472 19.4983454,54.2209434 Z" id="Shape" fill="#000000" fill-rule="nonzero"></path>
                    <path d="M5.71702164,62.8420186 C5.10471382,62.5081306 4.33749479,62.733276 4.0033268,63.3445992 L0.15472536,70.3840573 C-0.179609384,70.995547 0.045837286,71.7617408 0.657978356,72.0954623 C0.850074927,72.2003748 1.05751254,72.25 1.2621154,72.25 C1.70917348,72.25 2.14239127,72.012365 2.3716732,71.5928818 L6.22027464,64.5534236 C6.55460938,63.9421005 6.32916271,63.1759066 5.71702164,62.8420186 Z" id="Path" fill="#000000" fill-rule="nonzero"></path>
                    <path d="M84.8480289,63.2896632 L76.0536704,47.1023979 C76.0528511,47.1009158 76.0520318,47.0994336 76.0512124,47.0977868 L73.5358699,42.4679605 C73.2073187,41.8632539 72.4533714,41.6406059 71.8518194,41.9709549 C71.2501036,42.3009745 71.0287207,43.0586693 71.3571081,43.6633759 L73.4191973,47.4589311 L72.3404677,48.5430225 L71.5632515,47.7619431 C71.0783721,47.2748183 70.2927987,47.2748183 69.8079193,47.7619431 L67.7069938,49.8734759 L65.6060683,47.7619431 C65.1211889,47.2748183 64.3356155,47.2748183 63.8507361,47.7619431 L63.0735198,48.5430225 L61.9942986,47.4582723 L67.7068299,36.9444134 L68.5731893,38.5390142 C68.9015766,39.1435562 69.6553601,39.3660394 70.2572397,39.0361845 C70.8589556,38.7061649 71.0803385,37.9483054 70.7519511,37.3437635 L68.7963747,33.7441781 C68.5789246,33.3436752 68.1610664,33.0945137 67.7069938,33.0945137 C67.2530851,33.0945137 66.8353907,33.3436752 66.6176129,33.7440134 L59.9859574,45.9491406 L44.2913672,17.0604011 L44.2913672,12.8055522 L57.2816774,12.8055522 C57.7411576,12.8055522 58.1629486,12.5506269 58.3781046,12.1427134 C58.5934244,11.7347999 58.5668782,11.2409232 58.309117,10.8586999 L55.3056178,6.4027761 L58.309117,1.94685234 C58.5668782,1.56462901 58.5934244,1.07075232 58.3781046,0.662838833 C58.1627847,0.255090025 57.7409937,0 57.2816774,0 L43.0504102,0 C42.3649589,0 41.8092894,0.558431424 41.8092894,1.24728977 L41.8092894,17.0604011 L30.9644762,37.0221425 C30.6360888,37.6268492 30.8574717,38.3845439 31.4590237,38.7145636 C32.0610672,39.0450772 32.8146868,38.8222646 33.1430742,38.217558 L36.0983968,32.7778331 L37.5392702,34.2258684 C38.0239857,34.7129932 38.809723,34.7129932 39.2944385,34.2258684 L40.0716548,33.444789 L42.1727441,35.5563218 C42.4151019,35.7998842 42.7326741,35.921583 43.0502464,35.921583 C43.3678186,35.921583 43.6855547,35.7997195 43.9279125,35.5563218 L46.0288379,33.444789 L46.8060542,34.2258684 C47.2909336,34.7129932 48.076507,34.7129932 48.5613864,34.2258684 L50.0022598,32.7778331 L73.4023192,75.8501709 C73.6277987,76.265001 74.0533586,76.5 74.4928471,76.5 C74.6937468,76.5 74.8975961,76.4507605 75.0863696,76.3471765 C75.6880855,76.0171569 75.9094684,75.2594621 75.581081,74.6547555 L63.0299315,51.5520638 C63.3619239,51.5637561 63.6976853,51.4435394 63.9511859,51.1887787 L64.7284022,50.4076993 L66.8293277,52.5192321 C67.0716854,52.7627945 67.3894215,52.8844933 67.7069938,52.8844933 C68.024566,52.8844933 68.3423021,52.7626298 68.5846599,52.5192321 L70.6855854,50.4076993 L71.4628016,51.1887787 C71.947681,51.6759035 72.7332544,51.6759035 73.2181338,51.1887787 L74.6590072,49.7407435 L82.669267,64.484914 C82.8947466,64.899744 83.3203065,65.1347431 83.759795,65.1347431 C83.9606947,65.1347431 84.1645439,65.0855036 84.3533175,64.9819196 C84.9550333,64.6520646 85.1764162,63.8943699 84.8480289,63.2896632 Z M52.7791324,7.10250336 L54.9418353,10.3111373 L44.2913672,10.3111373 L44.2913672,2.49474422 L54.9418353,2.49474422 L52.7791324,5.70337821 C52.4943333,6.12578358 52.4943333,6.67993331 52.7791324,7.10250336 Z M47.6838842,31.5801122 L46.9066679,30.7990328 C46.4217885,30.311908 45.6362151,30.311908 45.1513357,30.7990328 L43.0504102,32.9105656 L40.9493209,30.7990328 C40.4646053,30.311908 39.6788681,30.311908 39.1941525,30.7990328 L38.4169363,31.5801122 L37.3382067,30.4960208 L43.0504102,19.9816677 L48.7626138,30.4960208 L47.6838842,31.5801122 Z" id="Shape" fill="#000000" fill-rule="nonzero"></path>
                    <path d="M50.6633741,55.6370812 L53.8415096,55.6370812 C54.3327566,55.6370812 54.7796793,55.3581462 54.9884217,54.9213451 C55.197164,54.4845441 55.1297576,53.9687279 54.8156405,53.5976359 L44.0053634,40.8239572 C43.7646741,40.5396012 43.4077381,40.375 43.0312325,40.375 C42.6547269,40.375 42.2976236,40.5394369 42.0571016,40.8239572 L31.2468244,53.5976359 C30.9327074,53.9687279 30.8654683,54.4845441 31.0740433,54.9213451 C31.2826184,55.3581462 31.7297084,55.6370812 32.2209553,55.6370812 L35.3990909,55.6370812 L26.6195354,83.3865138 C26.5001107,83.7641767 26.5705278,84.1750226 26.8092099,84.4935474 C27.0478921,84.8120721 27.4265721,85 27.8293378,85 L58.2331272,85 C58.6357256,85 59.0145729,84.8120721 59.253255,84.4935474 C59.4921044,84.1751869 59.5623543,83.7641767 59.4429296,83.3865138 L50.6633741,55.6370812 Z M29.5494549,82.5115976 L38.3290103,54.7621649 C38.448435,54.384502 38.3780179,53.9736561 38.1393358,53.6551314 C37.9006536,53.3366067 37.5219736,53.1486787 37.119208,53.1486787 L34.9210575,53.1486787 L43.0312325,43.5656681 L51.1412402,53.1486787 L48.9430897,53.1486787 C48.5404913,53.1486787 48.1616441,53.3366067 47.9229619,53.6551314 C47.6841125,53.9734918 47.6138627,54.384502 47.7332874,54.7621649 L56.5128428,82.5115976 L29.5494549,82.5115976 Z" id="Shape" fill="#000000" fill-rule="nonzero"></path>
                </g>
            </g>
        </g>
    </g>
</svg>