<?xml version="1.0" encoding="UTF-8"?>
<svg width="43px" height="41px" viewBox="0 0 43 41" version="1.1" xmlns="http://www.w3.org/2000/svg" xmlns:xlink="http://www.w3.org/1999/xlink">
    <!-- Generator: Sketch 52.1 (67048) - http://www.bohemiancoding.com/sketch -->
    <title>Group 39</title>
    <desc>Created with Sketch.</desc>
    <g id="Page-1" stroke="none" stroke-width="1" fill="none" fill-rule="evenodd">
        <g id="Web-Sistem---Landing-Page-" transform="translate(-967.000000, -5010.000000)">
            <g id="Group-39" transform="translate(967.000000, 5010.000000)">
                <g id="smartphone-(2)">
                    <rect id="Rectangle" fill="#FFCA13" transform="translate(8.990874, 20.479774) rotate(-1.000000) translate(-8.990874, -20.479774) " x="2.99087422" y="3.4797739" width="12" height="34"></rect>
                    <path d="M27,5.125 C27,2.29941667 24.728625,0 21.9375,0 L5.0625,0 C2.271375,0 0,2.29941667 0,5.125 L0,35.875 C0,38.7005833 2.271375,41 5.0625,41 L21.9375,41 C24.728625,41 27,38.7005833 27,35.875 L27,5.125 Z M23.625,35.875 C23.625,36.818 22.869,37.5833333 21.9375,37.5833333 L5.0625,37.5833333 C4.131,37.5833333 3.375,36.818 3.375,35.875 L3.375,5.125 C3.375,4.182 4.131,3.41666667 5.0625,3.41666667 L5.90625,3.41666667 C6.83775,3.41666667 7.59375,4.182 7.59375,5.125 C7.59375,6.068 8.34975,6.83333333 9.28125,6.83333333 L17.71875,6.83333333 C18.65025,6.83333333 19.40625,6.068 19.40625,5.125 C19.40625,4.182 20.16225,3.41666667 21.09375,3.41666667 L21.9375,3.41666667 C22.869,3.41666667 23.625,4.182 23.625,5.125 L23.625,35.875 Z" id="Shape" fill="#000000" fill-rule="nonzero"></path>
                </g>
                <rect id="Rectangle" fill="#FFFFFF" x="21" y="6" width="8" height="29"></rect>
                <g id="Group-26" transform="translate(28.000000, 22.000000) scale(-1, 1) rotate(4.000000) translate(-28.000000, -22.000000) translate(14.000000, 8.000000)">
                    <polygon id="Rectangle-Copy-13" fill="#FFCA13" transform="translate(8.394883, 19.803169) rotate(-315.000000) translate(-8.394883, -19.803169) " points="6.79488329 10.3031693 9.99488329 10.3031693 9.99488329 29.3031693 6.79488329 29.3031693"></polygon>
                    <path d="M17.6727033,16.3099445 C17.4021201,17.0728841 17.5713119,17.9583097 18.1808355,18.5678324 L19.0557458,19.4426178 C19.4778284,19.8646998 20.032295,20.0757717 20.5866998,20.0757717 C21.1411664,20.0757717 21.695633,19.8646998 22.1177156,19.4426178 L27.3668685,14.1934723 C28.2110335,13.3493084 28.2110335,11.9756707 27.3669303,11.1315068 L26.4919581,10.2565358 C25.8825582,9.6471368 24.9971314,9.47788336 24.2341289,9.74852802 L18.2514816,3.76588905 C18.5221266,3.00294947 18.3528729,2.11758572 17.7434112,1.508063 L16.868439,0.633091999 C16.0243358,-0.211010046 14.6506343,-0.211071908 13.8064692,0.633153861 L8.55731638,5.88236126 C7.7131513,6.72652517 7.7131513,8.10016283 8.55731638,8.9443886 L9.43222674,9.81917401 C9.85430929,10.241256 10.4087759,10.4523279 10.9631807,10.4523279 C11.2093285,10.4523279 11.4554763,10.4105094 11.6900559,10.3273055 L12.6692652,11.3065134 L1.30105988,21.2967967 C0.509415401,21.9924308 0.0359257659,22.9955172 0.00196367942,24.0487735 C-0.031998407,25.1020916 0.375917801,26.1336344 1.12116599,26.8788815 C1.83758662,27.5953012 2.8186517,28 3.82928668,28 C3.86986797,28 3.91044926,27.9993195 3.95109241,27.9980823 C5.00441199,27.9641203 6.00756171,27.4906313 6.70325865,26.6989879 L16.6935559,15.3307366 L17.6727033,16.3099445 Z M24.7421374,11.5689304 C24.8025144,11.5085535 24.8817593,11.4784269 24.9609423,11.4784269 C25.0401253,11.4784269 25.119432,11.5085535 25.1796235,11.5688686 L26.0545338,12.4437777 C26.1751023,12.564346 26.1751023,12.760633 26.0545338,12.8812014 L20.805381,18.1303469 C20.6848125,18.2509152 20.4885252,18.2509771 20.3679567,18.130285 L19.4930464,17.2554996 C19.3724779,17.1349313 19.3724779,16.9386443 19.4930464,16.818076 L24.7421374,11.5689304 Z M17.0872439,5.22619487 L22.773821,10.912764 L18.8369409,14.8497005 L13.1503638,9.16306949 L17.0872439,5.22619487 Z M11.1819856,8.5069031 C11.0613552,8.62753329 10.865068,8.62747143 10.7445614,8.50684123 L9.869651,7.63205582 C9.7490825,7.51148749 9.7490825,7.31520051 9.869651,7.19463218 L15.118742,1.94548664 C15.179119,1.88510968 15.2583639,1.85498307 15.3375469,1.85498307 C15.4167299,1.85498307 15.4960367,1.88510968 15.5562281,1.94542478 L16.4311385,2.82033392 C16.551707,2.94090225 16.551707,3.13718923 16.4311385,3.25775756 L11.1819856,8.5069031 Z M5.3092047,25.47388 C4.94551963,25.8877344 4.44196519,26.1254068 3.89133399,26.1431611 C3.34088837,26.1602968 2.82292015,25.9561534 2.43343874,25.5666106 C2.04389546,25.177006 1.83913316,24.6592241 1.85688747,24.1085937 C1.87464179,23.5580251 2.11231453,23.0544714 2.5261076,22.6908487 L10.7247656,15.4859475 L12.514116,17.2752335 L5.3092047,25.47388 Z M13.7417,15.8783358 L12.1216652,14.2583651 L13.9843217,12.6215062 L15.3785612,14.0157438 L13.7417,15.8783358 Z" id="Shape" fill="#000000" fill-rule="nonzero"></path>
                </g>
            </g>
        </g>
    </g>
</svg>