<?xml version="1.0" encoding="UTF-8"?>
<svg width="40px" height="40px" viewBox="0 0 40 40" version="1.1" xmlns="http://www.w3.org/2000/svg" xmlns:xlink="http://www.w3.org/1999/xlink">
    <title>F5A01A3A-50A3-4A2B-A4BD-E2587FBF7C2D@1x</title>
    <g id="Page-1" stroke="none" stroke-width="1" fill="none" fill-rule="evenodd">
        <g id="Web-Sistem---Landing-Page" transform="translate(-1055.000000, -8957.000000)">
            <g id="idea" transform="translate(1055.000000, 8957.000000)">
                <rect id="Rectangle" fill="#FFCA13" x="14.5454545" y="30.9090909" width="11.8181818" height="2.72727273"></rect>
                <ellipse id="Oval" fill="#FFCA13" cx="23.6363636" cy="10.4545455" rx="8.18181818" ry="8.63636364"></ellipse>
                <path d="M19.9545175,4.89795918 C19.3033911,4.89795918 18.7755102,5.42589872 18.7755102,6.07709751 C18.7755102,6.7282963 19.3033911,7.25623583 19.9545175,7.25623583 C23.8557742,7.25623583 27.0297405,10.4300045 27.0297405,14.3310658 C27.0297405,14.9822646 27.5576213,15.5102041 28.2087478,15.5102041 C28.8598742,15.5102041 29.3877551,14.9822646 29.3877551,14.3310658 C29.3877551,9.12965079 25.156062,4.89795918 19.9545175,4.89795918 Z" id="Path" fill="#000000" fill-rule="nonzero"></path>
                <path d="M17.4267375,0.313934343 C12.2016999,1.42031178 7.96507868,5.67237629 6.85029604,11.0000356 C5.90898743,15.4988299 7.06895041,20.0154374 10.0327349,23.3917598 C11.4815128,25.0420677 12.3123378,27.2205242 12.3123378,29.3746046 L12.3123378,31.718459 C12.3123378,33.2779035 13.3197978,34.6027282 14.7095946,35.0615768 C15.1666408,37.7980269 17.5104676,40 20.4077923,40 C23.3043459,40 25.6487895,37.79873 26.1059899,35.0615768 C27.4957867,34.6027282 28.5032468,33.2779035 28.5032468,31.7183809 L28.5032468,29.3745264 C28.5032468,27.2162271 29.3368473,25.0639437 30.8503118,23.3141782 C33.0656907,20.7531266 34.2857143,17.4670426 34.2857143,14.0614221 C34.2857143,5.18876099 26.2712914,-1.55849286 17.4267375,0.313934343 Z M20.4077923,37.6562237 C18.9211584,37.6562237 17.6177131,36.619615 17.1363805,35.2264279 L23.6791269,35.2264279 C23.1978714,36.619615 21.8944261,37.6562237 20.4077923,37.6562237 Z M26.1902598,31.718459 C26.1902598,32.3646597 25.6714568,32.8903863 25.0337663,32.8903863 L15.7818183,32.8903863 C15.1441277,32.8903863 14.6253248,32.3646597 14.6253248,31.718459 L14.6253248,30.5465318 L26.1902598,30.5465318 L26.1902598,31.718459 Z M29.1109456,21.7693437 C27.4980226,23.6340362 26.5056741,25.8825739 26.2538669,28.2026773 L14.5619489,28.2026773 C14.3104501,25.8813239 13.3206459,23.6106758 11.7610758,21.833956 C9.29095993,19.0200806 8.32575045,15.2484281 9.11301413,11.4862292 C10.0319639,7.09431467 13.563124,3.52657753 17.8998976,2.60833348 C25.3033064,1.04052923 31.9727273,6.67453033 31.9727273,14.0614221 C31.9727273,16.8984235 30.9564008,19.6358111 29.1109456,21.7693437 Z" id="Shape" fill="#000000" fill-rule="nonzero"></path>
                <path d="M3.67346939,13.877551 L1.2244898,13.877551 C0.548244898,13.877551 0,14.4257959 0,15.1020408 C0,15.7782857 0.548244898,16.3265306 1.2244898,16.3265306 L3.67346939,16.3265306 C4.34971429,16.3265306 4.89795918,15.7782857 4.89795918,15.1020408 C4.89795918,14.4257959 4.34971429,13.877551 3.67346939,13.877551 Z" id="Path" fill="#000000" fill-rule="nonzero"></path>
                <path d="M3.73147443,8.57141363 L2.04081633,6.8807679 C1.5740184,6.41389369 0.817035853,6.41389369 0.350158223,6.8807679 C-0.116719408,7.34764212 -0.116719408,8.10453942 0.350158223,8.57141363 L2.04081633,10.2620594 C2.50761426,10.7289336 3.2645968,10.7290133 3.73147443,10.2620594 C4.19835206,9.79518514 4.19835206,9.03828784 3.73147443,8.57141363 Z" id="Path" fill="#000000" fill-rule="nonzero"></path>
                <path d="M3.73147443,20.7583189 C3.2645968,20.2914447 2.50761426,20.2914447 2.04081633,20.7583189 L0.350158223,22.4489646 C-0.116719408,22.9158389 -0.116719408,23.6727362 0.350158223,24.1396104 C0.816956154,24.6064846 1.5739387,24.6065643 2.04081633,24.1396104 L3.73147443,22.4489646 C4.19835206,21.9820904 4.19835206,21.2251931 3.73147443,20.7583189 Z" id="Path" fill="#000000" fill-rule="nonzero"></path>
                <path d="M38.7755102,13.877551 L36.3265306,13.877551 C35.6502857,13.877551 35.1020408,14.4257959 35.1020408,15.1020408 C35.1020408,15.7782857 35.6502857,16.3265306 36.3265306,16.3265306 L38.7755102,16.3265306 C39.4517551,16.3265306 40,15.7782857 40,15.1020408 C40,14.4257959 39.4517551,13.877551 38.7755102,13.877551 Z" id="Path" fill="#000000" fill-rule="nonzero"></path>
                <path d="M39.6498418,6.88077303 C39.1830438,6.41389198 38.4260613,6.41389198 37.9591837,6.88077303 L36.2685256,8.57144351 C35.8016479,9.03832456 35.8016479,9.79523295 36.2685256,10.262114 C36.7353235,10.7289153 37.492306,10.728995 37.9591837,10.262114 L39.6498418,8.57144351 C40.1167194,8.10456247 40.1167194,7.34765408 39.6498418,6.88077303 Z" id="Path" fill="#000000" fill-rule="nonzero"></path>
                <path d="M39.6498418,22.4489945 L37.9591837,20.7583241 C37.4923857,20.291443 36.7354032,20.291443 36.2685256,20.7583241 C35.8016479,21.2252051 35.8016479,21.9821135 36.2685256,22.4489945 L37.9591837,24.139665 C38.4259816,24.6064664 39.1829641,24.6065461 39.6498418,24.139665 C40.1167194,23.672784 40.1167194,22.9158756 39.6498418,22.4489945 Z" id="Path" fill="#000000" fill-rule="nonzero"></path>
            </g>
        </g>
    </g>
</svg>