<svg width="50" height="50" xmlns="http://www.w3.org/2000/svg"><g fill="none" fill-rule="evenodd"><rect width="50" height="50" rx="4" fill="#FBC935"/><g fill="#000" fill-rule="nonzero"><path d="M34.434 30.824l-1.789-.457c-.084-.23-.18-.46-.288-.688l.944-1.592a.581.581 0 00-.089-.706l-2.464-2.464a.582.582 0 00-.706-.089l-1.592.944a8.087 8.087 0 00-.688-.288l-.457-1.79a.581.581 0 00-.563-.436h-3.484a.581.581 0 00-.563.437l-.457 1.789c-.23.084-.46.18-.688.288l-1.592-.944a.581.581 0 00-.706.089l-2.464 2.464a.58.58 0 00-.089.706l.944 1.592a8.087 8.087 0 00-.288.688l-1.79.457a.581.581 0 00-.436.563v1.742H21.516a3.484 3.484 0 116.968 0H34.87v-1.742a.581.581 0 00-.437-.563z"/><path d="M40.097 15.129h-.58V7H10.483v8.129h-.58A2.907 2.907 0 007 18.032v18.58c0 1.602 1.302 2.904 2.903 2.904h8.13v2.323H16.29V43h17.42v-1.161h-1.742v-2.323h8.129c1.6 0 2.903-1.302 2.903-2.903v-18.58c0-1.602-1.302-2.904-2.903-2.904zM17.928 27.883l1.826-1.826 1.753 1.04.286-.15c.367-.19.74-.346 1.106-.462l.307-.098.503-1.968h2.582l.503 1.969.307.097c.367.116.738.272 1.106.463l.286.149 1.753-1.04 1.826 1.827-1.04 1.752.15.287c.19.367.346.738.461 1.105l.097.307 1.97.503v.71H16.29v-.71l1.97-.504.096-.307a6.98 6.98 0 01.462-1.105l.149-.286-1.039-1.753zm14.717 2.484c-.084-.23-.18-.46-.288-.688l1.173-1.98-3.101-3.1-1.98 1.173a8.166 8.166 0 00-.687-.288l-.57-2.226h-4.385l-.57 2.226c-.228.084-.458.18-.687.288l-1.98-1.174-3.1 3.101 1.173 1.98a8.205 8.205 0 00-.289.688l-2.225.57v1.611h-3.484V12.806h26.71v19.742H34.87v-1.611l-2.226-.57zm5.71-22.206v3.484h-26.71V8.161h26.71zm-28.452 8.13h.58V33.71h29.033V16.29h.58c.961 0 1.743.782 1.743 1.742v16.839H8.16V18.032c0-.96.782-1.742 1.742-1.742zm20.903 25.548H19.194v-2.323h11.612v2.323zm9.29-3.484H9.904c-.96 0-1.742-.782-1.742-1.742v-.58H41.84v.58c0 .96-.782 1.742-1.742 1.742z"/><path d="M27.581 16.193l2.76 1.84-2.76 1.839.644.966 4.209-2.806-4.209-2.805zM21.775 15.227l-4.209 2.805 4.209 2.806.644-.966-2.76-1.84 2.76-1.84zM26.713 14.734l-2.324 6.967-1.101-.367 2.323-6.967zM17.452 9.323h1.161v1.161h-1.161zM15.129 9.323h1.161v1.161h-1.161zM12.806 9.323h1.161v1.161h-1.161z"/></g></g></svg>