<svg xmlns="http://www.w3.org/2000/svg" xmlns:xlink="http://www.w3.org/1999/xlink" viewBox="0 0 140.21 156.05"><defs><style>.cls-1{fill:url(#linear-gradient);}.cls-2{fill:url(#linear-gradient-2);}.cls-3{fill:#fff;}</style><linearGradient id="linear-gradient" x1="72.49" y1="29.45" x2="56.49" y2="88.2" gradientTransform="translate(-0.26 0.23) rotate(-0.19)" gradientUnits="userSpaceOnUse"><stop offset="0" stop-color="#4d4d4d"/><stop offset="1" stop-color="#1a1a1a"/></linearGradient><linearGradient id="linear-gradient-2" x1="0.11" y1="92.42" x2="138.34" y2="92.42" gradientTransform="translate(-0.26 0.23) rotate(-0.19)" gradientUnits="userSpaceOnUse"><stop offset="0" stop-color="#4d4d4d"/><stop offset="1"/></linearGradient></defs><title>New Logo Dokodemo</title><g id="Layer_2" data-name="Layer 2"><g id="Layer_3" data-name="Layer 3"><path d="M0,45.8l.21,64.91A13,13,0,0,0,6.8,122l57.11,32.38a13,13,0,0,0,12.9,0l56.89-32.76a13,13,0,0,0,6.51-11.31L140,45.34a13,13,0,0,0-6.59-11.26L76.31,1.69a13,13,0,0,0-12.9,0L6.51,34.49A13,13,0,0,0,0,45.8Z"/><path class="cls-1" d="M138.21,38.81a12.82,12.82,0,0,0-4.8-4.73L76.31,1.69a13,13,0,0,0-12.9,0L6.51,34.49A13,13,0,0,0,0,45.8l.21,64.91A13,13,0,0,0,2,117.24Z"/><path class="cls-2" d="M10.69,44.33C5.36,41,7.12,34.11,16.11,29c0,0-2.69,1.53-7.47,4.3-2.92,1.55-5.28,3.14-6.89,6h0a12.69,12.69,0,0,0-1.25,3l0,.08v0a10.54,10.54,0,0,0-.27,1.24v0A13.18,13.18,0,0,0,0,45.8l.21,64.91A13,13,0,0,0,6.8,122l57.11,32.38a13,13,0,0,0,12.9,0l56.89-32.76a13,13,0,0,0,4.77-4.76Z"/><path class="cls-3" d="M42.2,70.52a7.11,7.11,0,0,1-5.6,2.3H30.07a1,1,0,0,1-1-1V41.14a1,1,0,0,1,1-1H36.6a7.11,7.11,0,0,1,5.6,2.29c2.11,2.25,2.34,5.19,2.34,14S44.31,68.27,42.2,70.52ZM39.26,44.91a3.47,3.47,0,0,0-2.8-1.24H33V69.28h3.44A3.44,3.44,0,0,0,39.26,68c1.24-1.51,1.33-4,1.33-11.56S40.5,46.43,39.26,44.91Z"/><path class="cls-3" d="M42.2,113.8a7.08,7.08,0,0,1-5.6,2.3H30.07a1,1,0,0,1-1-1V84.42a1,1,0,0,1,1-1H36.6a7.11,7.11,0,0,1,5.6,2.29c2.11,2.25,2.34,5.19,2.34,14.05S44.31,111.56,42.2,113.8ZM39.26,88.19A3.47,3.47,0,0,0,36.46,87H33v25.62h3.44a3.47,3.47,0,0,0,2.8-1.24c1.24-1.52,1.33-4,1.33-11.57S40.5,89.71,39.26,88.19Z"/><path class="cls-3" d="M50.42,115.1V84.42a1,1,0,0,1,1-1H62a1,1,0,0,1,1,1V86a1,1,0,0,1-1,1H54.36v11h6.48a1,1,0,0,1,1,1v1.54a1,1,0,0,1-1,1H54.36v11.11H62a1,1,0,0,1,1,1v1.53a1,1,0,0,1-1,1H51.42A1,1,0,0,1,50.42,115.1Z"/><path class="cls-3" d="M85.3,115.1V92.83l-5,14.6a1,1,0,0,1-.94.68h-1a1,1,0,0,1-.94-.67L72.59,93.2v21.9a1,1,0,0,1-1,1h-2a1,1,0,0,1-1-1V84.42a1,1,0,0,1,1-1h2a1,1,0,0,1,.93.66L79,101.6l6.33-17.52a1,1,0,0,1,.94-.66h2a1,1,0,0,1,1,1V115.1a1,1,0,0,1-1,1h-2A1,1,0,0,1,85.3,115.1Z"/><path class="cls-3" d="M88.54,71.38,80.05,54.16,87.4,41.64a1,1,0,0,0-.86-1.5H84.81a1,1,0,0,0-.86.49L74.47,56.71V41.14a1,1,0,0,0-1-1h-2a1,1,0,0,0-1,1V71.82a1,1,0,0,0,1,1h2a1,1,0,0,0,1-1V63.68l3.06-5.22L84.7,72.28a1,1,0,0,0,.89.54h2A1,1,0,0,0,88.54,71.38Z"/><path class="cls-3" d="M105,39.77h-3.6A6.19,6.19,0,0,0,95.17,46V66.63a6.19,6.19,0,0,0,6.19,6.19H105a6.19,6.19,0,0,0,6.18-6.19V46A6.19,6.19,0,0,0,105,39.77Zm2.18,27a2.08,2.08,0,0,1-2.08,2.08h-3.81a2.08,2.08,0,0,1-2.08-2.08V45.85a2.08,2.08,0,0,1,2.08-2.08h3.81a2.08,2.08,0,0,1,2.08,2.08Z"/><path class="cls-3" d="M105,83.24h-3.6a6.19,6.19,0,0,0-6.19,6.18V110.1a6.19,6.19,0,0,0,6.19,6.18H105a6.18,6.18,0,0,0,6.18-6.18V89.42A6.18,6.18,0,0,0,105,83.24Zm2.18,27a2.08,2.08,0,0,1-2.08,2.08h-3.81a2.08,2.08,0,0,1-2.08-2.08V89.32a2.08,2.08,0,0,1,2.08-2.08h3.81a2.08,2.08,0,0,1,2.08,2.08Z"/><path class="cls-3" d="M58.53,39.77h-3.6A6.19,6.19,0,0,0,48.74,46V66.63a6.19,6.19,0,0,0,6.19,6.19h3.6a6.19,6.19,0,0,0,6.18-6.19V46A6.19,6.19,0,0,0,58.53,39.77Zm.1,29H54.82a2.08,2.08,0,0,1-2.08-2.08V59.32L55.05,57a1,1,0,0,0,0-1.41l-2.31-2.32V45.85a2.08,2.08,0,0,1,2.08-2.08h3.81a2.08,2.08,0,0,1,2.08,2.08v7.42L58.4,55.59a1,1,0,0,0,0,1.41l2.31,2.32v7.42A2.08,2.08,0,0,1,58.63,68.82Z"/></g></g></svg>