<?xml version="1.0" encoding="UTF-8"?>
<svg width="60px" height="60px" viewBox="0 0 60 60" version="1.1" xmlns="http://www.w3.org/2000/svg" xmlns:xlink="http://www.w3.org/1999/xlink">
    <title>1DFE0AB1-C1E4-46E4-9977-43878BE7959D@2.00x</title>
    <g id="homepage" stroke="none" stroke-width="1" fill="none" fill-rule="evenodd">
        <g id="Homepage" transform="translate(-1085.000000, -712.000000)" fill-rule="nonzero">
            <g id="Group-14" transform="translate(1065.000000, 692.000000)">
                <g id="seo-and-web" transform="translate(20.000000, 20.000000)">
                    <g id="Group" transform="translate(7.741935, 3.870968)" fill="#FBB03B">
                        <polygon id="Path" points="0 31.9354839 17.4193548 31.9354839 17.4193548 35.8064516 0 35.8064516"></polygon>
                        <polygon id="Path" points="0 41.6129032 17.4193548 41.6129032 17.4193548 45.483871 0 45.483871"></polygon>
                        <circle id="Oval" cx="37.7419355" cy="10.6451613" r="10.6451613"></circle>
                        <polygon id="Path" points="23.2258065 26.1290323 30.9677419 26.1290323 30.9677419 37.7419355 23.2258065 37.7419355"></polygon>
                    </g>
                    <path d="M26.1290323,29.0322581 L6.77419355,29.0322581 C5.17354839,29.0322581 3.87096774,30.3348387 3.87096774,31.9354839 L3.87096774,33.8709677 C3.87096774,35.4716129 5.17354839,36.7741935 6.77419355,36.7741935 L26.1290323,36.7741935 C27.7296774,36.7741935 29.0322581,35.4716129 29.0322581,33.8709677 L29.0322581,31.9354839 C29.0322581,30.3348387 27.7296774,29.0322581 26.1290323,29.0322581 Z M27.0967742,33.8709677 C27.0967742,34.4041935 26.6632258,34.8387097 26.1290323,34.8387097 L6.77419355,34.8387097 C6.24,34.8387097 5.80645161,34.4041935 5.80645161,33.8709677 L5.80645161,31.9354839 C5.80645161,31.4022581 6.24,30.9677419 6.77419355,30.9677419 L26.1290323,30.9677419 C26.6632258,30.9677419 27.0967742,31.4022581 27.0967742,31.9354839 L27.0967742,33.8709677 Z" id="Shape" fill="#000000"></path>
                    <path d="M26.1290323,38.7096774 L6.77419355,38.7096774 C5.17354839,38.7096774 3.87096774,40.0122581 3.87096774,41.6129032 L3.87096774,43.5483871 C3.87096774,45.1490323 5.17354839,46.4516129 6.77419355,46.4516129 L26.1290323,46.4516129 C27.7296774,46.4516129 29.0322581,45.1490323 29.0322581,43.5483871 L29.0322581,41.6129032 C29.0322581,40.0122581 27.7296774,38.7096774 26.1290323,38.7096774 Z M27.0967742,43.5483871 C27.0967742,44.0816129 26.6632258,44.516129 26.1290323,44.516129 L6.77419355,44.516129 C6.24,44.516129 5.80645161,44.0816129 5.80645161,43.5483871 L5.80645161,41.6129032 C5.80645161,41.0796774 6.24,40.6451613 6.77419355,40.6451613 L26.1290323,40.6451613 C26.6632258,40.6451613 27.0967742,41.0796774 27.0967742,41.6129032 L27.0967742,43.5483871 Z" id="Shape" fill="#000000"></path>
                    <path d="M26.1290323,48.3870968 L6.77419355,48.3870968 C5.17354839,48.3870968 3.87096774,49.6896774 3.87096774,51.2903226 L3.87096774,53.2258065 C3.87096774,54.8264516 5.17354839,56.1290323 6.77419355,56.1290323 L26.1290323,56.1290323 C27.7296774,56.1290323 29.0322581,54.8264516 29.0322581,53.2258065 L29.0322581,51.2903226 C29.0322581,49.6896774 27.7296774,48.3870968 26.1290323,48.3870968 Z M27.0967742,53.2258065 C27.0967742,53.7590323 26.6632258,54.1935484 26.1290323,54.1935484 L6.77419355,54.1935484 C6.24,54.1935484 5.80645161,53.7590323 5.80645161,53.2258065 L5.80645161,51.2903226 C5.80645161,50.7570968 6.24,50.3225806 6.77419355,50.3225806 L26.1290323,50.3225806 C26.6632258,50.3225806 27.0967742,50.7570968 27.0967742,51.2903226 L27.0967742,53.2258065 Z" id="Shape" fill="#000000"></path>
                    <path d="M45.483871,0 C37.4796774,0 30.9677419,6.51193548 30.9677419,14.516129 C30.9677419,15.51 31.0693548,16.4806452 31.26,17.4193548 L0,17.4193548 L0,60 L60,60 L60,14.516129 C60,6.51193548 53.4880645,0 45.483871,0 Z M50.3225806,48.3870968 L54.1935484,48.3870968 L54.1935484,54.1935484 L48.3870968,54.1935484 L50.3225806,51.6125806 L50.3225806,48.3870968 Z M48.3870968,50.9680645 L45.9677419,54.1935484 L45,54.1935484 L42.5806452,50.9680645 L42.5806452,50.7241935 L44.516129,48.7887097 L44.516129,47.0196774 L42.5806452,45.0841935 L42.5806452,44.9177419 L44.516129,42.9822581 L44.516129,41.2132258 L42.5806452,39.2777419 L42.5806452,28.74 C43.5193548,28.9306452 44.49,29.0322581 45.483871,29.0322581 C46.4777419,29.0322581 47.4483871,28.9306452 48.3870968,28.74 L48.3870968,50.9680645 Z M42.5806452,54.1935484 L36.7741935,54.1935484 L36.7741935,48.3870968 L42.18,48.3870968 L40.6451613,49.9219355 L40.6451613,51.6135484 L42.5806452,54.1935484 Z M36.4267742,23.2258065 L40.7245161,23.2258065 C41.4667742,24.7354839 42.2970968,25.946129 43.023871,26.8519355 C40.4574194,26.3409677 38.1745161,25.0432258 36.4267742,23.2258065 Z M45.483871,2.31580645 C46.1070968,2.96903226 47.103871,4.14580645 48.0358065,5.80645161 L42.9309677,5.80645161 C43.863871,4.14580645 44.8606452,2.96903226 45.483871,2.31580645 Z M48.9745161,7.74193548 C49.6509677,9.37451613 50.1629032,11.3196774 50.283871,13.5483871 L40.6858065,13.5483871 C40.8058065,11.3196774 41.3187097,9.37451613 41.9951613,7.74193548 L48.9745161,7.74193548 Z M58.0151613,13.5483871 L52.2183871,13.5483871 C52.113871,11.3535484 51.6735484,9.41419355 51.063871,7.74193548 L56.0680645,7.74193548 C57.1606452,9.44322581 57.8525806,11.4212903 58.0151613,13.5483871 Z M45.483871,26.7164516 C44.8606452,26.0632258 43.863871,24.8864516 42.9319355,23.2258065 L48.0367742,23.2258065 C47.103871,24.8874194 46.1070968,26.0632258 45.483871,26.7164516 Z M41.9932258,21.2903226 C41.3167742,19.6577419 40.8048387,17.7125806 40.683871,15.483871 L50.2819355,15.483871 C50.1619355,17.7125806 49.6490323,19.6577419 48.9725806,21.2903226 L41.9932258,21.2903226 Z M38.7483871,13.5483871 L32.9516129,13.5483871 C33.1151613,11.4212903 33.806129,9.44322581 34.8987097,7.74193548 L39.9029032,7.74193548 C39.2932258,9.41419355 38.8529032,11.3535484 38.7483871,13.5483871 Z M38.7483871,15.483871 C38.8529032,17.6787097 39.2932258,19.6180645 39.9029032,21.2903226 L34.8987097,21.2903226 C33.806129,19.5890323 33.1141935,17.6109677 32.9516129,15.483871 L38.7483871,15.483871 Z M47.943871,26.8519355 C48.6706452,25.946129 49.5009677,24.7354839 50.2432258,23.2258065 L54.5409677,23.2258065 C52.7932258,25.0432258 50.5103226,26.3409677 47.943871,26.8519355 Z M56.0680645,21.2903226 L51.063871,21.2903226 C51.6745161,19.6180645 52.1148387,17.6787097 52.2183871,15.483871 L58.0151613,15.483871 C57.8525806,17.6109677 57.1606452,19.5890323 56.0680645,21.2903226 Z M54.5409677,5.80645161 L50.2432258,5.80645161 C49.5009677,4.29677419 48.6706452,3.08612903 47.943871,2.18032258 C50.5103226,2.69129032 52.7932258,3.98903226 54.5409677,5.80645161 Z M43.023871,2.18032258 C42.2970968,3.08612903 41.4677419,4.29677419 40.7245161,5.80645161 L36.4267742,5.80645161 C38.1745161,3.98903226 40.4574194,2.69129032 43.023871,2.18032258 Z M31.8145161,19.3548387 C32.61,21.5951613 33.9367742,23.5790323 35.6477419,25.1612903 L1.93548387,25.1612903 L1.93548387,19.3548387 L31.8145161,19.3548387 Z M58.0645161,58.0645161 L1.93548387,58.0645161 L1.93548387,27.0967742 L38.2722581,27.0967742 C39.0232258,27.5293548 39.8167742,27.8912903 40.6451613,28.1854839 L40.6451613,40.0780645 L42.5806452,42.0135484 L42.5806452,42.18 L40.6451613,44.1154839 L40.6451613,45.8845161 L41.2122581,46.4516129 L34.8387097,46.4516129 L34.8387097,56.1290323 L56.1290323,56.1290323 L56.1290323,46.4516129 L50.3225806,46.4516129 L50.3225806,28.1854839 C53.6080645,27.0183871 56.3487097,24.7093548 58.0645161,21.7277419 L58.0645161,58.0645161 Z" id="Shape" fill="#000000"></path>
                    <polygon id="Path" fill="#000000" points="42.5806452 9.67741935 44.516129 9.67741935 44.516129 11.6129032 42.5806452 11.6129032"></polygon>
                    <polygon id="Path" fill="#000000" points="46.4516129 9.67741935 48.3870968 9.67741935 48.3870968 11.6129032 46.4516129 11.6129032"></polygon>
                    <polygon id="Path" fill="#000000" points="42.5806452 17.4193548 44.516129 17.4193548 44.516129 19.3548387 42.5806452 19.3548387"></polygon>
                    <polygon id="Path" fill="#000000" points="46.4516129 17.4193548 48.3870968 17.4193548 48.3870968 19.3548387 46.4516129 19.3548387"></polygon>
                    <polygon id="Path" fill="#000000" points="3.87096774 21.2903226 5.80645161 21.2903226 5.80645161 23.2258065 3.87096774 23.2258065"></polygon>
                    <polygon id="Path" fill="#000000" points="7.74193548 21.2903226 9.67741935 21.2903226 9.67741935 23.2258065 7.74193548 23.2258065"></polygon>
                    <polygon id="Path" fill="#000000" points="11.6129032 21.2903226 13.5483871 21.2903226 13.5483871 23.2258065 11.6129032 23.2258065"></polygon>
                    <polygon id="Path" fill="#000000" points="54.1935484 27.0967742 56.1290323 27.0967742 56.1290323 29.0322581 54.1935484 29.0322581"></polygon>
                    <polygon id="Path" fill="#000000" points="54.1935484 30.9677419 56.1290323 30.9677419 56.1290323 32.9032258 54.1935484 32.9032258"></polygon>
                    <polygon id="Path" fill="#000000" points="54.1935484 34.8387097 56.1290323 34.8387097 56.1290323 36.7741935 54.1935484 36.7741935"></polygon>
                    <polygon id="Path" fill="#000000" points="30.9677419 29.0322581 38.7096774 29.0322581 38.7096774 30.9677419 30.9677419 30.9677419"></polygon>
                    <polygon id="Path" fill="#000000" points="30.9677419 32.9032258 38.7096774 32.9032258 38.7096774 34.8387097 30.9677419 34.8387097"></polygon>
                    <polygon id="Path" fill="#000000" points="30.9677419 36.7741935 38.7096774 36.7741935 38.7096774 38.7096774 30.9677419 38.7096774"></polygon>
                    <polygon id="Path" fill="#000000" points="30.9677419 40.6451613 38.7096774 40.6451613 38.7096774 42.5806452 30.9677419 42.5806452"></polygon>
                </g>
            </g>
        </g>
    </g>
</svg>