<svg width="50" height="50" xmlns="http://www.w3.org/2000/svg"><g fill="none" fill-rule="evenodd"><rect width="50" height="50" rx="4" fill="#FBC935"/><g fill-rule="nonzero"><path fill="#F0BC5E" d="M10.194 33.129v5.484h3.29v-2.194h12.064v2.194h3.29v-5.484z"/><path d="M34.323 24.355H11.29a1.098 1.098 0 01-1.096-1.097V12.29c0-.605.491-1.096 1.096-1.096h23.033c.604 0 1.096.491 1.096 1.096v10.968c0 .605-.492 1.097-1.096 1.097z" fill="#000"/><g fill="#000"><path d="M10.194 33.129h1.096v1.097h-1.096zM16.774 33.129h1.097v1.097h-1.097zM14.58 33.129h1.097v1.097h-1.096zM23.355 33.129h1.097v1.097h-1.097zM27.742 33.129h1.097v1.097h-1.097zM18.968 33.129h1.097v1.097h-1.097zM12.387 33.129h1.097v1.097h-1.097zM21.161 33.129h1.097v1.097h-1.097zM25.548 33.129h1.097v1.097h-1.097zM16.774 35.323h1.097v1.096h-1.097zM21.161 35.323h1.097v1.096h-1.097zM18.968 35.323h1.097v1.096h-1.097zM14.58 35.323h1.097v1.096h-1.096zM27.742 35.323h1.097v1.096h-1.097zM12.387 35.323h1.097v1.096h-1.097zM25.548 35.323h1.097v1.096h-1.097zM23.355 35.323h1.097v1.096h-1.097zM10.194 35.323h1.096v1.096h-1.096z"/><path d="M38.161 30.935h-.548c0-.604.492-1.096 1.097-1.096h1.096c1.21 0 2.194-.984 2.194-2.194s-.984-2.193-2.194-2.193h-2.193v-13.71A2.745 2.745 0 0034.87 9h-24.13A2.745 2.745 0 008 11.742V26a2.745 2.745 0 002.742 2.742h6.032v2.193H9.645c-.907 0-1.645.739-1.645 1.646v8.774C8 42.262 8.738 43 9.645 43h19.742c.907 0 1.645-.738 1.645-1.645V32.58c0-.907-.738-1.646-1.645-1.646h-.548v-2.193h6.032a2.747 2.747 0 002.687-2.194h2.248a1.098 1.098 0 010 2.194H38.71c-1.21 0-2.194.984-2.194 2.193h-.548a3.843 3.843 0 00-3.839 3.84v3.29A4.941 4.941 0 0037.065 43 4.941 4.941 0 0042 38.065v-3.29a3.843 3.843 0 00-3.839-3.84zm-8.774 10.968H9.645a.549.549 0 01-.548-.548v-.549h20.838v.549a.549.549 0 01-.548.548zm-6.032-2.193h-7.678v-.549c0-.302.247-.548.549-.548h6.58c.303 0 .549.246.549.548v.549zm6.58-7.13v7.13h-5.483v-.549c0-.907-.739-1.645-1.646-1.645h-6.58c-.907 0-1.645.738-1.645 1.645v.549H9.097v-7.13c0-.302.246-.548.548-.548h19.742c.302 0 .548.246.548.549zm-2.193-1.645H17.87v-2.193h9.87v2.193zM36.516 26c0 .907-.738 1.645-1.645 1.645h-24.13A1.647 1.647 0 019.098 26V11.742c0-.907.738-1.645 1.645-1.645H34.87c.907 0 1.645.738 1.645 1.645V26zm0 6.032h1.097v1.645a.549.549 0 01-1.097 0v-1.645zm.549 9.871a3.843 3.843 0 01-3.84-3.838v-.549h7.678v.549a3.843 3.843 0 01-3.838 3.838zm3.838-5.484h-7.677v-1.645c0-1.324.944-2.431 2.193-2.686v1.59c0 .906.738 1.645 1.646 1.645.907 0 1.645-.739 1.645-1.646v-1.59a2.747 2.747 0 012.193 2.687v1.645z"/><path d="M12.387 25.452h1.097v1.096h-1.097zM10.194 25.452h1.096v1.096h-1.096zM14.58 25.452h1.097v1.096h-1.096zM27.742 37.516h1.097v1.097h-1.097zM25.548 37.516h1.097v1.097h-1.097zM12.387 37.516h1.097v1.097h-1.097zM10.194 37.516h1.096v1.097h-1.096z"/></g></g></g></svg>