<svg width="50" height="50" xmlns="http://www.w3.org/2000/svg"><g fill="none" fill-rule="evenodd"><rect fill="#FBC935" width="50" height="50" rx="4"/><g fill="#000" fill-rule="nonzero"><path d="M23.786 31.338a2.78 2.78 0 011.837.69l2.891 2.532c.609.527.956 1.298.956 2.104 0 .678-.243 1.326-.69 1.837l-.12.138-6.694-6.692-.011-.018a2.79 2.79 0 011.72-.591h.11zM17.301 24.854v.11a2.76 2.76 0 01-.596 1.721l-6.7-6.699-.005-.005.14-.122a2.78 2.78 0 011.836-.69c.806 0 1.576.348 2.104.956l2.532 2.892c.446.51.69 1.159.69 1.837zM30.05 7c-4.154 0-7.533 3.38-7.533 7.533v3.477h.593c0-.076-.01-.15-.003-.227.115-1.206 1.196-2.09 2.407-2.09h.339a5.935 5.935 0 004.197-1.74 5.934 5.934 0 004.197 1.74h.34c1.21 0 2.291.884 2.406 2.09.007.077-.003.15-.003.227h.593v-3.477C37.583 10.38 34.203 7 30.05 7z"/><path d="M41.962 29.976a4.072 4.072 0 00-2.942-3.9L33.85 24.6v-1.512a5.228 5.228 0 001.41-2.137 2.891 2.891 0 001.858-.919 2.914 2.914 0 00.74-2.231c-.14-1.466-1.45-2.615-2.984-2.615h-.339a5.32 5.32 0 01-3.787-1.569l-.41-.409-.41.41a5.32 5.32 0 01-3.787 1.568h-.439v.002c-1.49.048-2.747 1.179-2.884 2.613a2.914 2.914 0 00.74 2.232c.483.53 1.15.847 1.858.918a5.224 5.224 0 001.445 2.168V24.6l-5.17 1.477a4.071 4.071 0 00-2.943 3.9v3.068a2.135 2.135 0 01-.989-.545l-1.258-1.26a2.235 2.235 0 01-.65-1.568c0-.584.237-1.155.65-1.569l.68-.68a3.35 3.35 0 00.988-2.385v-.11c0-.818-.297-1.606-.834-2.222l-2.53-2.891a3.374 3.374 0 00-4.761-.318L7.857 21.41a5.437 5.437 0 00-1.159 6.758 36.604 36.604 0 0012.786 13.257l1.304.797a5.312 5.312 0 006.763-1.035l1.952-2.231a3.371 3.371 0 00.763-2.91h11.696v-6.07zm-6.304-3.654l-2.01 3.616-2.452-2.043 2.216-2.215 2.246.642zm1.046-8.412c.048.498-.11.975-.444 1.341-.2.22-.455.375-.731.469.014-.158.024-.317.024-.479V16.47c.624.236 1.089.786 1.151 1.44zm-12.288 1.342a1.726 1.726 0 01-.444-1.342c.063-.655.527-1.204 1.15-1.44v2.771c0 .162.01.321.025.48a1.743 1.743 0 01-.731-.47zm1.866-.01v-2.904a6.462 6.462 0 004.056-1.525 6.462 6.462 0 004.056 1.525v2.903a4.061 4.061 0 01-4.056 4.057 4.061 4.061 0 01-4.056-4.057zm4.056 5.215c.847 0 1.644-.207 2.352-.567v.872l-2.352 2.352-2.318-2.317v-.89c.7.349 1.485.55 2.318.55zm-3.066 1.23l2.208 2.208-2.452 2.043-2.004-3.608 2.248-.643zm1.36 12.506l-1.952 2.231a4.152 4.152 0 01-5.288.808l-1.304-.797A35.441 35.441 0 017.708 27.6a4.279 4.279 0 01.911-5.317l2.187-1.914a2.218 2.218 0 013.126.208l2.53 2.892c.353.404.548.922.548 1.458v.111c0 .592-.23 1.148-.649 1.566l-.68.68a3.4 3.4 0 00-.989 2.388c0 .89.36 1.76.99 2.388l1.258 1.259c.637.638 1.486.989 2.388.989.902 0 1.75-.351 2.388-.99l.68-.68a2.203 2.203 0 011.567-.648h.11c.536 0 1.054.195 1.458.548l2.892 2.53a2.215 2.215 0 01.209 3.125zm12.17-3.306H37.31v-4.056H36.15v4.056h-6.368a3.381 3.381 0 00-.596-.69l-2.891-2.53a3.375 3.375 0 00-2.222-.836h-.11c-.902 0-1.749.35-2.386.988l-.68.68a2.137 2.137 0 01-.989.546v-3.069c0-1.287.864-2.432 2.101-2.785l1.87-.534 2.816 5.067 3.064-2.553v4.557h1.159v-4.557l3.064 2.553 2.82-5.076 1.9.543a2.908 2.908 0 012.1 2.786v4.91z"/></g></g></svg>