<svg width="50" height="50" xmlns="http://www.w3.org/2000/svg"><g fill="none" fill-rule="evenodd"><rect width="50" height="50" rx="4" fill="#FBC935"/><g fill="#000" fill-rule="nonzero"><path d="M36.645 36.645a2.454 2.454 0 01-2.451-2.451c0-1.353 1.1-2.452 2.451-2.452 1.352 0 2.452 1.1 2.452 2.452 0 1.352-1.1 2.451-2.452 2.451zM21.024 12.144c.178-.387.299-.628.299-.628H26.838c1.016 0 1.84.823 1.84 1.839v1.226c.677 0 1.225.548 1.225 1.225v.106c0 .325-.13.637-.359.867l-.867.866V22.492l.665.899a9.234 9.234 0 011.711.873 5.482 5.482 0 001.915-4.167v-6.13C32.968 9.575 29.393 6 25 6h-3.677a3.068 3.068 0 00-3.065 3.065 3.069 3.069 0 002.743 3.047l.023.032z"/><path d="M42.161 29.29h-6.657a9.913 9.913 0 00-6.214-6.574V17.9l.687-.687c.348-.347.54-.81.54-1.3v-.106c0-.799-.513-1.48-1.227-1.733v-.718c0-1.352-1.1-2.452-2.451-2.452v1.226c.676 0 1.226.55 1.226 1.226v1.839h.612c.339 0 .613.275.613.612v.105a.61.61 0 01-.18.434l-1.045 1.046v5.7l-.865 3.748h-1.947l-.866-3.748v-1.605c1.766-.66 1.839-1.834 1.839-2.002L25 19.456c-.001.01-.14 1.037-2.819 1.225a.73.73 0 01-.7-.41.747.747 0 01-.057-.511l.629-2.516-1.925-.642c.18-1.323 1.07-3.405 1.576-4.472h.843v-1.227h-1.604l-.17.34c-.077.155-1.903 3.829-1.903 5.79v.441l1.72.573-.354 1.415c-.114.455-.061.936.148 1.356a1.954 1.954 0 001.884 1.086c.327-.023.618-.062.893-.107v.918a9.814 9.814 0 00-6.287 6.835l-2.444-3.973a2.524 2.524 0 00-2.132-1.19c-.61 0-1.186.216-1.642.613h-.367a1.841 1.841 0 00-1.838 1.839c0 1.013.825 1.838 1.838 1.838h1.387l1.574 5.118a4.019 4.019 0 003.86 2.85c1.203 0 2.32-.55 3.075-1.438l.465 5.116h-2.393v.612A3.068 3.068 0 0021.323 44H42.16A1.841 1.841 0 0044 42.161V31.13a1.841 1.841 0 00-1.839-1.839zm.613 1.839v9.194H30.516V31.129c0-.338.275-.613.613-.613h11.032c.339 0 .613.275.613.613zm-15.857-3.064l-.566 2.451h-.25l-.566-2.451h1.382zm-16.627-.613a.614.614 0 010-1.226h.868l.238-.24a1.27 1.27 0 01.903-.373c.44 0 .857.233 1.088.607l2.152 3.497-1.908 1.144-1.05-3.41h-2.29zm11.096 7.412a6.888 6.888 0 00-.325-1.556l-.06-.18a5.738 5.738 0 01-.291-1.85c0-1.513.589-2.936 1.659-4.006l-.867-.867c-1.301 1.302-2.018 3.032-2.018 4.931 0 .707.111 1.407.325 2.082l-.066.177a2.824 2.824 0 01-2.633 1.824 2.799 2.799 0 01-2.687-1.985l-.42-1.366 2.177-1.307 1.556 2.527 1.044-.642-.946-1.537a8.602 8.602 0 015.495-7.15l1.796 7.783h2.202l1.795-7.779a8.687 8.687 0 015.097 5.327h-1.562a6.876 6.876 0 00-1.708-2.885l-.866.867a5.668 5.668 0 011.298 2.018h-.252a1.841 1.841 0 00-1.839 1.839V40.323h-7.408l-.496-5.459zm6.066 7.91h-6.13c-.799 0-1.48-.512-1.733-1.226h12.048a1.842 1.842 0 01-1.734 1.226h-2.451zm14.71 0h-9.823c.27-.358.474-.77.566-1.226h9.87v.613a.614.614 0 01-.614.613z"/><path d="M8.786 22.716l.78-.364.295.81h3.31l.294-.81.78.364 2.342-2.341-.366-.78.811-.294v-3.31l-.81-.295.366-.78-2.341-2.341-.78.364-.295-.81H9.86l-.294.81-.78-.365-2.341 2.341.365.78L6 15.99v3.31l.81.294-.366.78 2.342 2.342zm-1.56-5.867l.504-.183.272-.125.26-.632-.343-.734 1.127-1.126.736.344.66-.274.278-.764h1.592l.184.504.13.274.625.26.736-.345 1.126 1.126-.343.734.273.663.763.278v1.593l-.504.183-.271.125-.261.632.343.734-1.126 1.126-.736-.344-.66.274-.279.763H10.72l-.184-.504-.13-.274-.624-.26-.736.345-1.126-1.126.343-.734-.273-.662-.764-.279V16.85z"/><path d="M11.516 20.71a3.068 3.068 0 003.065-3.065 3.068 3.068 0 00-3.065-3.064 3.068 3.068 0 00-3.064 3.064 3.068 3.068 0 003.064 3.065zm0-4.904c1.014 0 1.839.825 1.839 1.84a1.841 1.841 0 01-1.839 1.838 1.841 1.841 0 01-1.839-1.839c0-1.014.825-1.839 1.84-1.839z"/></g></g></svg>