<svg xmlns="http://www.w3.org/2000/svg" width="648" height="340" viewBox="0 0 648 340">
  <defs>
    <style>
      .cls-1 {
        fill: #3a3c3b;
        fill-rule: evenodd;
      }
    </style>
  </defs>
  <path id="_..............................................................._copy" data-name="............................................................... copy" class="cls-1" d="M288,127a10,10,0,1,1-10,10A10,10,0,0,1,288,127ZM4.147,4.064H3.856a1.983,1.983,0,0,0-2,2.059,1.976,1.976,0,0,0,2,2.03h0.29a1.976,1.976,0,0,0,2-2.03A1.983,1.983,0,0,0,4.147,4.064Zm0,7.778H3.856a2.045,2.045,0,0,0,0,4.09h0.29A2.045,2.045,0,0,0,4.147,11.843Zm0,7.775H3.856a2.045,2.045,0,0,0,0,4.09h0.29A2.045,2.045,0,0,0,4.147,19.617Zm0,7.763H3.856a2.045,2.045,0,0,0,0,4.09h0.29A2.045,2.045,0,0,0,4.147,27.38Zm0,7.773H3.856a2.045,2.045,0,0,0,0,4.09h0.29A2.045,2.045,0,0,0,4.147,35.153Zm0,7.756H3.856a2.045,2.045,0,0,0,0,4.09h0.29A2.045,2.045,0,0,0,4.147,42.91Zm0,7.782H3.856a2.045,2.045,0,0,0,0,4.09h0.29A2.045,2.045,0,0,0,4.147,50.692Zm0,7.772H3.856a2.045,2.045,0,0,0,0,4.09h0.29A2.045,2.045,0,0,0,4.147,58.464Zm0,7.778H3.856a2.045,2.045,0,0,0,0,4.09h0.29A2.045,2.045,0,0,0,4.147,66.242Zm0,7.77H3.856a2.045,2.045,0,0,0,0,4.09h0.29A2.045,2.045,0,0,0,4.147,74.012Zm0,7.76H3.856a2.045,2.045,0,0,0,0,4.09h0.29A2.045,2.045,0,0,0,4.147,81.772Zm0,7.781H3.856a2.045,2.045,0,0,0,0,4.09h0.29A2.045,2.045,0,0,0,4.147,89.554Zm0,7.776H3.856a2.045,2.045,0,0,0,0,4.09h0.29A2.045,2.045,0,0,0,4.147,97.329Zm0,7.776H3.856a2.045,2.045,0,0,0,0,4.09h0.29A2.045,2.045,0,0,0,4.147,105.105Zm0,7.776H3.856a2.045,2.045,0,0,0,0,4.09h0.29A2.045,2.045,0,0,0,4.147,112.881ZM4.8,119.852l-0.273.1A2.045,2.045,0,0,0,5.888,123.8l0.273-.1A2.045,2.045,0,0,0,4.8,119.852Zm2.72,6.708-0.242.159a2.044,2.044,0,0,0,2.242,3.418l0.242-.159A2.044,2.044,0,0,0,7.52,126.56Zm4.226,5.651-0.175.231a2.045,2.045,0,0,0,3.262,2.466l0.175-.231A2.045,2.045,0,0,0,11.746,132.211Zm5.832,3.676-0.067.282a2.045,2.045,0,0,0,3.978.942l0.067-.282A2.045,2.045,0,0,0,17.578,135.887Zm7.167,0.967v0.29a2.045,2.045,0,0,0,4.09,0v-0.29A2.045,2.045,0,0,0,24.745,136.854Zm7.761-.011v0.29a2.045,2.045,0,0,0,4.09-.006v-0.29A2.045,2.045,0,0,0,32.505,136.843Zm7.794-.012v0.29a2.045,2.045,0,0,0,4.09-.007v-0.29A2.045,2.045,0,0,0,40.3,136.831Zm7.77-.013v0.29a2.045,2.045,0,0,0,4.09-.007v-0.29A2.045,2.045,0,0,0,48.07,136.818Zm7.776-.014v0.29a2.045,2.045,0,0,0,4.09-.006V136.8A2.045,2.045,0,0,0,55.845,136.8Zm7.746-.013v0.29a2.045,2.045,0,0,0,4.09-.007v-0.29A2.045,2.045,0,0,0,63.591,136.791Zm7.784-.014v0.29a2.045,2.045,0,0,0,4.09-.006V136.77A2.045,2.045,0,0,0,71.375,136.777Zm7.76-.014v0.29a2.045,2.045,0,0,0,4.09-.006v-0.29A2.045,2.045,0,0,0,79.134,136.763Zm7.78-.014v0.29a2.045,2.045,0,0,0,4.09-.006v-0.291A2.045,2.045,0,0,0,86.914,136.749Zm7.785-.014v0.29a2.045,2.045,0,0,0,4.09-.007v-0.29A2.045,2.045,0,0,0,94.7,136.735Zm7.76-.016v0.291a2.045,2.045,0,0,0,4.09-.009v-0.29A2.045,2.045,0,0,0,102.459,136.719Zm7.774-.014V137a2.045,2.045,0,0,0,4.09-.008V136.7A2.045,2.045,0,0,0,110.233,136.705Zm7.764-.014v0.29a2.045,2.045,0,0,0,4.09-.009v-0.29A2.045,2.045,0,0,0,118,136.691Zm7.777-.015v0.29a2.045,2.045,0,0,0,4.09-.008v-0.29A2.045,2.045,0,0,0,125.774,136.676Zm7.78-.014v0.29a2.045,2.045,0,0,0,4.09-.009v-0.29A2.045,2.045,0,0,0,133.554,136.662Zm7.76-.015v0.29a2.045,2.045,0,0,0,4.09-.008v-0.29A2.045,2.045,0,0,0,141.314,136.647Zm7.779-.014v0.29a2.045,2.045,0,0,0,4.09-.009v-0.29A2.045,2.045,0,0,0,149.093,136.633Zm7.779-.015v0.29a2.045,2.045,0,0,0,4.09-.008v-0.291A2.045,2.045,0,0,0,156.872,136.618Zm7.763-.015v0.291a2.045,2.045,0,0,0,4.09-.009V136.6A2.045,2.045,0,0,0,164.635,136.6Zm7.775-.014v0.29a2.045,2.045,0,0,0,4.09-.009v-0.29A2.045,2.045,0,0,0,172.41,136.589Zm7.775-.015v0.29a2.045,2.045,0,0,0,4.09-.008v-0.29A2.045,2.045,0,0,0,180.185,136.574Zm7.784-.015v0.29a2.045,2.045,0,0,0,4.09-.008v-0.29A2.045,2.045,0,0,0,187.969,136.559Zm7.76-.014v0.29a2.045,2.045,0,0,0,4.09-.009v-0.29A2.045,2.045,0,0,0,195.729,136.545Zm7.772-.015v0.29a2.045,2.045,0,0,0,4.09-.009v-0.29A2.045,2.045,0,0,0,203.5,136.53Zm7.774-.015v0.29a2.045,2.045,0,0,0,4.09-.008v-0.29A2.045,2.045,0,0,0,211.275,136.515Zm7.769-.015v0.29a2.045,2.045,0,0,0,4.09-.008v-0.29A2.045,2.045,0,0,0,219.044,136.5Zm7.777-.014v0.29a2.045,2.045,0,0,0,4.09-.009v-0.29A2.045,2.045,0,0,0,226.821,136.486Zm7.779-.015v0.29a2.045,2.045,0,0,0,4.09-.009v-0.29A2.045,2.045,0,0,0,234.6,136.471Zm7.75-.015v0.29a2.045,2.045,0,0,0,4.09-.009v-0.29A2.045,2.045,0,0,0,242.35,136.456Zm7.785-.015v0.29a2.045,2.045,0,0,0,4.09-.008v-0.291A2.045,2.045,0,0,0,250.135,136.441Zm7.767-.015v0.29a2.045,2.045,0,0,0,4.09-.008v-0.29A2.045,2.045,0,0,0,257.9,136.426Zm7.764-.015v0.29a2.045,2.045,0,0,0,4.09-.008V136.4A2.045,2.045,0,0,0,265.666,136.411Zm7.781-.015v0.291a2.045,2.045,0,0,0,4.09-.009v-0.29A2.045,2.045,0,0,0,273.447,136.4Zm24.448,2.048a2.191,2.191,0,0,0,.925.2,1.976,1.976,0,0,0,2.026-2.006v-0.29a1.977,1.977,0,0,0-2.035-2,2.16,2.16,0,0,0-1.11.3A9.3,9.3,0,0,1,297.9,138.444Zm6.623-2.107v0.29a2.045,2.045,0,0,0,4.09-.009v-0.29A2.045,2.045,0,0,0,304.518,136.337Zm7.8-.015v0.29a2.045,2.045,0,0,0,4.09-.009v-0.29A2.045,2.045,0,0,0,312.313,136.322Zm7.776-.015v0.29a2.045,2.045,0,0,0,4.09-.009V136.3A2.045,2.045,0,0,0,320.089,136.307Zm7.751-.015v0.29a2.045,2.045,0,0,0,4.09-.009v-0.29A2.045,2.045,0,0,0,327.84,136.292Zm7.765-.015v0.29a2.045,2.045,0,0,0,4.09-.009v-0.29A2.045,2.045,0,0,0,335.605,136.277Zm7.773-.015v0.29a2.045,2.045,0,0,0,4.09-.008v-0.291A2.045,2.045,0,0,0,343.378,136.262Zm7.775-.015v0.29a2.045,2.045,0,0,0,4.09-.008v-0.291A2.045,2.045,0,0,0,351.153,136.247Zm7.769-.015v0.29a2.045,2.045,0,0,0,4.09-.008v-0.291A2.045,2.045,0,0,0,358.922,136.232Zm7.8-.015v0.29a2.045,2.045,0,0,0,4.09-.009v-0.29A2.045,2.045,0,0,0,366.722,136.217Zm7.757-.015v0.29a2.045,2.045,0,0,0,4.09-.009v-0.29A2.045,2.045,0,0,0,374.479,136.2Zm7.771-.015v0.29a2.045,2.045,0,0,0,4.09-.009v-0.29A2.045,2.045,0,0,0,382.25,136.187Zm7.776-.015v0.29a2.045,2.045,0,0,0,4.09-.009v-0.29A2.045,2.045,0,0,0,390.026,136.172Zm7.772-.015v0.29a2.045,2.045,0,0,0,4.09-.009v-0.29A2.045,2.045,0,0,0,397.8,136.157Zm7.777-.015v0.29a2.045,2.045,0,0,0,4.09-.009v-0.29A2.045,2.045,0,0,0,405.575,136.142Zm7.749-.015v0.29a2.045,2.045,0,0,0,4.09-.009v-0.29A2.045,2.045,0,0,0,413.324,136.127Zm7.793-.015v0.29a2.045,2.045,0,0,0,4.09-.009V136.1A2.045,2.045,0,0,0,421.117,136.112Zm7.777-.015v0.29a2.045,2.045,0,0,0,4.09-.009v-0.29A2.045,2.045,0,0,0,428.894,136.1Zm7.747-.015v0.29a2.045,2.045,0,0,0,4.09-.009v-0.29A2.045,2.045,0,0,0,436.641,136.082Zm7.777-.015v0.29a2.045,2.045,0,0,0,4.09-.009v-0.29A2.045,2.045,0,0,0,444.418,136.067Zm7.783-.016v0.291a2.045,2.045,0,0,0,4.09-.009v-0.29A2.045,2.045,0,0,0,452.2,136.051Zm7.763-.015v0.29a2.045,2.045,0,0,0,4.09-.008v-0.29A2.045,2.045,0,0,0,459.964,136.036Zm7.787-.015v0.29a2.045,2.045,0,0,0,4.09-.008v-0.29A2.045,2.045,0,0,0,467.751,136.021Zm7.773-.015v0.29a2.045,2.045,0,0,0,4.09-.008V136A2.045,2.045,0,0,0,475.524,136.006Zm7.751-.015v0.29a2.045,2.045,0,0,0,4.09-.008v-0.291A2.045,2.045,0,0,0,483.275,135.991Zm7.775-.015v0.29a2.045,2.045,0,0,0,4.09-.009v-0.29A2.045,2.045,0,0,0,491.05,135.976Zm7.788-.015v0.29a2.045,2.045,0,0,0,4.09-.009v-0.29A2.045,2.045,0,0,0,498.838,135.961Zm7.77-.015v0.29a2.045,2.045,0,0,0,4.09-.009v-0.29A2.045,2.045,0,0,0,506.608,135.946Zm7.77-.015v0.29a2.045,2.045,0,0,0,4.09-.009v-0.29A2.045,2.045,0,0,0,514.378,135.931Zm7.772-.016v0.29a2.045,2.045,0,0,0,4.09-.008v-0.29A2.045,2.045,0,0,0,522.15,135.915Zm7.757-.015v0.29a2.045,2.045,0,0,0,4.089-.008v-0.29A2.045,2.045,0,0,0,529.907,135.9Zm7.786-.015v0.29a2.045,2.045,0,0,0,4.09-.008v-0.291A2.045,2.045,0,0,0,537.693,135.885Zm7.766-.015v0.29a2.045,2.045,0,0,0,4.089-.009v-0.29A2.045,2.045,0,0,0,545.459,135.87Zm7.987-.131-0.029.289a2.045,2.045,0,0,0,4.069.409l0.029-.289A2.045,2.045,0,0,0,553.446,135.739Zm8.406,1.636-0.131.259a2.045,2.045,0,0,0,3.651,1.842l0.131-.259A2.045,2.045,0,0,0,561.852,137.375Zm7.3,4.865-0.234.171a2.044,2.044,0,0,0,2.4,3.307l0.235-.171A2.045,2.045,0,0,0,569.147,142.24Zm4.163,7.624-0.285.053a2.045,2.045,0,0,0,.76,4.017l0.285-.054A2.044,2.044,0,0,0,573.31,149.864Zm0.884,8.319-0.289-.028a2.044,2.044,0,0,0-.4,4.068l0.289,0.029A2.045,2.045,0,0,0,574.194,158.183Zm-1.559,8.436-0.258-.132a2.045,2.045,0,0,0-1.863,3.641l0.258,0.132A2.045,2.045,0,0,0,572.635,166.619Zm-5.042,7.236-0.16-.241a2.046,2.046,0,0,0-3.4,2.268l0.161,0.241A2.045,2.045,0,0,0,567.593,173.855Zm-7.8,3.879-0.038-.287a2.046,2.046,0,0,0-4.054.544l0.039,0.288A2.045,2.045,0,0,0,559.788,177.734Zm-8.047.413v-0.291a2.045,2.045,0,0,0-4.09,0v0.291A2.045,2.045,0,0,0,551.741,178.147Zm-7.753,0v-0.291a2.045,2.045,0,0,0-4.09,0v0.291A2.045,2.045,0,0,0,543.988,178.147Zm-7.777,0v-0.291a2.045,2.045,0,0,0-4.09,0v0.291A2.045,2.045,0,0,0,536.211,178.147Zm-7.779,0v-0.291a2.045,2.045,0,0,0-4.09,0v0.291A2.045,2.045,0,0,0,528.432,178.147Zm-7.774,0v-0.291a2.045,2.045,0,0,0-4.09,0v0.291A2.045,2.045,0,0,0,520.658,178.147Zm-7.78,0v-0.291a2.045,2.045,0,0,0-4.09,0v0.291A2.045,2.045,0,0,0,512.878,178.147Zm-7.749,0v-0.291a2.045,2.045,0,0,0-4.09,0v0.291A2.045,2.045,0,0,0,505.129,178.147Zm-7.769,0v-0.291a2.045,2.045,0,0,0-4.09,0v0.291A2.045,2.045,0,0,0,497.36,178.147Zm-7.788,0v-0.291a2.045,2.045,0,0,0-4.09,0v0.291A2.045,2.045,0,0,0,489.572,178.147Zm-7.764,0v-0.291a2.045,2.045,0,0,0-4.09,0v0.291A2.045,2.045,0,0,0,481.808,178.147Zm-7.768,0v-0.291a2.045,2.045,0,0,0-4.09,0v0.291A2.045,2.045,0,0,0,474.04,178.147Zm-7.775,0v-0.291a2.045,2.045,0,0,0-4.09,0v0.291A2.045,2.045,0,0,0,466.265,178.147Zm-7.787,0v-0.291a2.045,2.045,0,0,0-4.09,0v0.291A2.045,2.045,0,0,0,458.478,178.147Zm-7.766,0v-0.291a2.045,2.045,0,0,0-4.09,0v0.291A2.045,2.045,0,0,0,450.712,178.147Zm-7.767,0v-0.291a2.045,2.045,0,0,0-4.09,0v0.291A2.045,2.045,0,0,0,442.945,178.147Zm-7.772,0v-0.291a2.045,2.045,0,0,0-4.09,0v0.291A2.045,2.045,0,0,0,435.173,178.147Zm-7.781,0v-0.291a2.045,2.045,0,0,0-4.09,0v0.291A2.045,2.045,0,0,0,427.392,178.147Zm-7.771,0v-0.291a2.045,2.045,0,0,0-4.09,0v0.291A2.045,2.045,0,0,0,419.621,178.147Zm-7.76,0v-0.291a2.045,2.045,0,0,0-4.09,0v0.291A2.045,2.045,0,0,0,411.861,178.147Zm-7.786,0v-0.291a2.045,2.045,0,0,0-4.09,0v0.291A2.045,2.045,0,0,0,404.075,178.147Zm-7.774,0v-0.291a2.045,2.045,0,0,0-4.09,0v0.291A2.045,2.045,0,0,0,396.3,178.147Zm-7.769,0v-0.291a2.045,2.045,0,0,0-4.09,0v0.291A2.045,2.045,0,0,0,388.532,178.147Zm-6.643,1.131-0.125-.261a2.046,2.046,0,0,0-3.686,1.773l0.126,0.261A2.045,2.045,0,0,0,381.889,179.278ZM375.7,182.74l-0.2-.208a2.045,2.045,0,0,0-2.937,2.844l0.2,0.209A2.045,2.045,0,0,0,375.7,182.74Zm-4.641,5.238-0.263-.122a2.045,2.045,0,0,0-1.724,3.707l0.263,0.122A2.045,2.045,0,0,0,371.063,187.978Zm-2.489,6.626-0.289-.034a2.045,2.045,0,0,0-.475,4.062l0.288,0.034A2.045,2.045,0,0,0,368.574,194.6Zm-0.454,7.21-0.288.04a2.045,2.045,0,0,0,.555,4.051l0.288-.039A2.045,2.045,0,0,0,368.12,201.814Zm1.386,6.907-0.257.133a2.045,2.045,0,0,0,1.869,3.636l0.258-.133A2.045,2.045,0,0,0,369.506,208.721Zm3.672,5.9-0.188.221a2.046,2.046,0,0,0,3.118,2.647l0.188-.221A2.046,2.046,0,0,0,373.178,214.616Zm5.715,4.13-0.1.271a2.045,2.045,0,0,0,3.814,1.474l0.105-.271A2.045,2.045,0,0,0,378.893,218.746Zm6.627,2.117,0,0.29a2.045,2.045,0,0,0,4.088-.071l0-.29A2.045,2.045,0,0,0,385.52,220.863Zm7.756-.137,0,0.29a2.045,2.045,0,0,0,4.088-.071l-0.005-.29A2.045,2.045,0,0,0,393.276,220.726Zm7.774-.137,0,0.29a2.045,2.045,0,0,0,4.088-.071l0-.29A2.045,2.045,0,0,0,401.05,220.589Zm7.756-.136,0,0.289a2.045,2.045,0,0,0,4.088-.071l0-.289A2.045,2.045,0,0,0,408.806,220.453Zm7.787-.138,0,0.29a2.045,2.045,0,0,0,4.088-.071l0-.29A2.045,2.045,0,0,0,416.593,220.315Zm7.778-.137,0,0.29a2.044,2.044,0,0,0,4.087-.071l0-.29A2.044,2.044,0,0,0,424.371,220.178Zm7.758-.136,0,0.29a2.044,2.044,0,0,0,4.087-.071l0-.29A2.044,2.044,0,0,0,432.129,220.042Zm7.756-.137,0,0.29a2.045,2.045,0,0,0,4.088-.071l0-.29A2.045,2.045,0,0,0,439.885,219.905Zm7.794-.137,0.005,0.289a2.045,2.045,0,0,0,4.088-.071l0-.289A2.045,2.045,0,0,0,447.679,219.768Zm7.752-.137,0,0.29a2.045,2.045,0,0,0,4.088-.071l0-.29A2.045,2.045,0,0,0,455.431,219.631Zm7.781-.137,0,0.29a2.045,2.045,0,0,0,4.088-.071l0-.29A2.045,2.045,0,0,0,463.212,219.494Zm7.781-.137,0,0.29a2.045,2.045,0,0,0,4.088-.071l0-.29A2.045,2.045,0,0,0,470.993,219.357Zm7.755-.137,0,0.29a2.045,2.045,0,0,0,4.088-.071l0-.29A2.045,2.045,0,0,0,478.748,219.22Zm7.774-.137,0,0.29a2.045,2.045,0,0,0,4.088-.071l0-.29A2.045,2.045,0,0,0,486.522,219.083Zm7.779-.137,0,0.29a2.045,2.045,0,0,0,4.088-.071l0-.29A2.045,2.045,0,0,0,494.3,218.946Zm7.771-.137,0,0.29a2.045,2.045,0,0,0,4.088-.071l0-.29A2.045,2.045,0,0,0,502.072,218.809Zm7.752-.136,0,0.289a2.045,2.045,0,0,0,4.088-.071l0-.289A2.045,2.045,0,0,0,509.824,218.673Zm7.782-.138,0,0.29a2.045,2.045,0,0,0,4.088-.071l0-.29A2.045,2.045,0,0,0,517.606,218.535Zm7.776-.137,0,0.29a2.045,2.045,0,0,0,4.088-.071l0-.29A2.045,2.045,0,0,0,525.382,218.4Zm7.773-.137,0,0.29a2.045,2.045,0,0,0,4.088-.071l0-.29A2.045,2.045,0,0,0,533.155,218.261Zm7.765-.136,0,0.289a2.045,2.045,0,0,0,4.088-.071l0-.289A2.045,2.045,0,0,0,540.92,218.125Zm7.782-.138,0,0.29a2.045,2.045,0,0,0,4.088-.071l0-.29A2.045,2.045,0,0,0,548.7,217.987Zm7.772-.137,0,0.29a2.045,2.045,0,0,0,4.088-.071l0-.29A2.045,2.045,0,0,0,556.474,217.85Zm7.754-.136,0,0.29a2.045,2.045,0,0,0,4.088-.071l0-.29A2.045,2.045,0,0,0,564.228,217.714Zm7.764-.137,0,0.29a2.045,2.045,0,0,0,4.088-.071l0-.29A2.045,2.045,0,0,0,571.992,217.577Zm7.78-.137,0,0.29a2.044,2.044,0,0,0,4.087-.071l0-.29A2.044,2.044,0,0,0,579.772,217.44Zm7.761-.137,0,0.29a2.045,2.045,0,0,0,4.088-.071l0-.29A2.045,2.045,0,0,0,587.533,217.3Zm7.783-.137,0,0.29a2.045,2.045,0,0,0,4.088-.071l0-.29A2.045,2.045,0,0,0,595.316,217.166Zm7.756-.137,0,0.29a2.044,2.044,0,0,0,4.087-.071l0-.29A2.044,2.044,0,0,0,603.072,217.029Zm7.782-.137,0,0.29a2.045,2.045,0,0,0,4.088-.071l0-.29A2.045,2.045,0,0,0,610.854,216.892Zm8.2,0.053L619,217.23a2.045,2.045,0,0,0,4.019.755l0.054-.285A2.045,2.045,0,0,0,619.052,216.945Zm8.152,2.147-0.136.256a2.045,2.045,0,0,0,3.61,1.922l0.136-.256A2.045,2.045,0,0,0,627.2,219.092Zm7.131,4.71-0.219.189a2.044,2.044,0,0,0,2.665,3.1L637,226.9A2.045,2.045,0,0,0,634.335,223.8Zm4.891,6.941-0.271.1a2.045,2.045,0,0,0,1.454,3.821l0.271-.1A2.045,2.045,0,0,0,639.226,230.743Zm2.395,7.95-0.288.033a2.045,2.045,0,0,0,.467,4.062l0.288-.033A2.045,2.045,0,0,0,641.621,238.693Zm0.525,8h-0.29a2.045,2.045,0,0,0,0,4.09h0.29A2.045,2.045,0,0,0,642.146,246.694Zm0,7.773h-0.29a2.045,2.045,0,0,0,0,4.09h0.29A2.045,2.045,0,0,0,642.146,254.467Zm0,7.759h-0.29a2.045,2.045,0,0,0,0,4.09h0.29A2.045,2.045,0,0,0,642.146,262.226Zm0,7.776h-0.29a2.045,2.045,0,0,0,0,4.09h0.29A2.045,2.045,0,0,0,642.146,270Zm0,7.778h-0.29a2.045,2.045,0,0,0,0,4.09h0.29A2.045,2.045,0,0,0,642.146,277.78Zm0,7.779h-0.29a2.045,2.045,0,0,0,0,4.09h0.29A2.045,2.045,0,0,0,642.146,285.559Zm0,7.754h-0.29a2.045,2.045,0,0,0,0,4.09h0.29A2.045,2.045,0,0,0,642.146,293.313Zm0,7.771h-0.29a2.045,2.045,0,0,0,0,4.09h0.29A2.045,2.045,0,0,0,642.146,301.084Zm0,7.778h-0.29a2.045,2.045,0,0,0,0,4.09h0.29A2.045,2.045,0,0,0,642.146,308.862Zm0,7.771h-0.29a2.045,2.045,0,0,0,0,4.09h0.29A2.045,2.045,0,0,0,642.146,316.633Zm0,7.762h-0.29a2.045,2.045,0,0,0,0,4.09h0.29A2.045,2.045,0,0,0,642.146,324.4Zm0,7.77h-0.29a2.045,2.045,0,0,0,0,4.09h0.29A2.045,2.045,0,0,0,642.146,332.165Z"/>
</svg>
