<svg id="Layer_1" data-name="Layer 1" xmlns="http://www.w3.org/2000/svg" viewBox="0 0 450.21 450.21"><path d="M368.13,2.91H88.35A85.22,85.22,0,0,0,3.13,88.12V367.9a85.22,85.22,0,0,0,85.22,85.22H368.13a85.21,85.21,0,0,0,85.22-85.22V88.12A85.21,85.21,0,0,0,368.13,2.91ZM357.69,174,207.62,324l0,.05-.05,0a1.8,1.8,0,0,1-.19.2,29.85,29.85,0,0,1-42.2,0L98.79,257.92A29.84,29.84,0,0,1,141,215.72c.37.37.72.74,1.06,1.12L186.25,261,314.42,132.86c.34-.39.7-.76,1.06-1.12A29.85,29.85,0,1,1,357.69,174Z" transform="translate(-3.13 -2.91)" style="fill:#fff"/></svg>