<svg id="Layer_1" data-name="Layer 1" xmlns="http://www.w3.org/2000/svg" viewBox="0 0 63 55.48"><path d="M7,2H7.5a6,6,0,0,1,6,5.51Q15.61,33.73,13,43c-2.69,0-7.54-.57-12,1.56Q.94,35.14,1,8H1A6,6,0,0,1,7,2Z" style="fill:#ffca13;fill-rule:evenodd"/><path d="M25,17H51v7H25Z" style="fill:#ffca13;fill-rule:evenodd"/><path d="M61.77,3.74H13.48A7.18,7.18,0,0,0,0,7.26V48.13a7.33,7.33,0,0,0,7.28,7.35H61.77A1.24,1.24,0,0,0,63,54.24V5A1.24,1.24,0,0,0,61.77,3.74ZM2.46,7.26h0A4.78,4.78,0,0,1,6,2.65V32.14a1.23,1.23,0,1,0,2.46,0V2.65a4.78,4.78,0,0,1,3.12,2.73.16.16,0,0,0,0,.08A4.7,4.7,0,0,1,11.91,7h0V42.65a7.12,7.12,0,0,0-4.73-1.8H6.35l-.24,0h0L6,41H5.94l-.07,0h0l-.23,0H5.54l-.07,0h0l-.31.09h0a5.74,5.74,0,0,0-.9.34h0l-.07,0h0l-.28.14h0l-.06,0h0l-.07,0h0l-.2.11h0l-.07,0h0l-.06,0h0l-.06,0h0l-.06,0h0l-.07,0h0l-.06,0h0l-.05,0h0L3,42.2H3l0,0H3l-.06,0h0l-.05,0h0l0,0h0l0,0h0l0,0h0l0,0h0l0,0h0l0,0h0ZM7.28,53a4.84,4.84,0,0,1-4.82-4.86v0a4.73,4.73,0,1,1,9.46,0,1.23,1.23,0,1,0,2.46,0v-27a6.15,6.15,0,0,0,1.86,3.54V47.51a1.19,1.19,0,0,0,.18.64L19.32,53ZM19,16.8h0l.05,0h0a4,4,0,0,1,1-.22h.61a2.6,2.6,0,0,1,.39.05h.12A3.64,3.64,0,0,1,24,20h0v.36h0a3.64,3.64,0,0,1-3.52,3.46h-.19a3.66,3.66,0,0,1-1.39-7h0l0,0h0Zm0-2.6V12.91h2.67v1.26h0a6.23,6.23,0,0,0-2.67,0Zm-.29,33V26.08a6.13,6.13,0,0,0,1.6.24h.17a6.07,6.07,0,0,0,1.6-.24V47.16L20.39,50ZM60.54,53H21.45l2.91-4.84a1.28,1.28,0,0,0,.17-.64V25.31H51.45a1.24,1.24,0,0,0,1.19-.9l4-3h1.13a1.24,1.24,0,0,0,0-2.48H56.61l-4-3a1.24,1.24,0,0,0-1.2-1H24.12V11.66a1.24,1.24,0,0,0-1.23-1.24H17.76a1.24,1.24,0,0,0-1.23,1.24v3.77a6.15,6.15,0,0,0-2.15,3.79V7.13h0V7.06h0V7h0a6.48,6.48,0,0,0-.06-.77H60.54ZM26.47,20.1h0V20h0a6.15,6.15,0,0,0-.59-2.49H50.22v1.41H34.13a1.24,1.24,0,0,0,0,2.48H50.22v1.41H25.88a6.19,6.19,0,0,0,.59-2.49h0v-.08h0V20.1Zm26.21,1.18V19.1l1.46,1.08Z"/><path d="M5.75,37.68a.92.92,0,0,0,.13.24,1.84,1.84,0,0,0,.17.22,1.92,1.92,0,0,0,.22.18l.24.13.27.08.27,0,.28,0,.26-.08.25-.13.21-.18a1.84,1.84,0,0,0,.17-.22.7.7,0,0,0,.13-.24.79.79,0,0,0,.08-.26,1.33,1.33,0,0,0,0-.28,1.24,1.24,0,0,0,0-.27.92.92,0,0,0-.08-.27.94.94,0,0,0-.13-.24,1.84,1.84,0,0,0-.17-.22L7.84,36a1.19,1.19,0,0,0-.25-.13,1.12,1.12,0,0,0-.26-.08,1.28,1.28,0,0,0-.55,0,1.38,1.38,0,0,0-.27.08,1.41,1.41,0,0,0-.24.13,1.84,1.84,0,0,0-.22.17,1.84,1.84,0,0,0-.17.22,1.41,1.41,0,0,0-.13.24,1.38,1.38,0,0,0-.08.27,1.24,1.24,0,0,0,0,.27,1.33,1.33,0,0,0,0,.28A1.12,1.12,0,0,0,5.75,37.68Z"/><path d="M28.32,20.76a1.41,1.41,0,0,0,.13.24,1.2,1.2,0,0,0,.17.21,1.24,1.24,0,0,0,.22.18,1.36,1.36,0,0,0,.24.13l.26.08a1.33,1.33,0,0,0,.28,0,1.24,1.24,0,0,0,.27,0l.27-.08a1.83,1.83,0,0,0,.24-.13,1.24,1.24,0,0,0,.22-.18,1.2,1.2,0,0,0,.17-.21,1.41,1.41,0,0,0,.13-.24,1.38,1.38,0,0,0,.08-.27,1.24,1.24,0,0,0,0-.27,1.27,1.27,0,0,0,0-.28,1.12,1.12,0,0,0-.08-.26,1.19,1.19,0,0,0-.13-.25,1.73,1.73,0,0,0-.17-.21A1.24,1.24,0,0,0,30.4,19a1.83,1.83,0,0,0-.24-.13l-.27-.08a1.69,1.69,0,0,0-.55,0l-.26.08a1.36,1.36,0,0,0-.24.13,1.24,1.24,0,0,0-.22.18,1.73,1.73,0,0,0-.17.21,1.19,1.19,0,0,0-.13.25.79.79,0,0,0-.08.26,1.27,1.27,0,0,0,0,.28,1.24,1.24,0,0,0,0,.27A.92.92,0,0,0,28.32,20.76Z"/><path d="M46.67,28.33A1.24,1.24,0,0,0,46.09,30a12.76,12.76,0,0,1-17,17A1.24,1.24,0,1,0,28,49.26,15.24,15.24,0,0,0,48.32,28.91,1.24,1.24,0,0,0,46.67,28.33Z"/></svg>