<svg id="Layer_1" data-name="Layer 1" xmlns="http://www.w3.org/2000/svg" viewBox="0 0 63 55"><path d="M22,37H53v4H22Z" transform="translate(0)" style="fill:#ffca13;fill-rule:evenodd"/><path d="M21,10H32v9H21Z" transform="translate(0)" style="fill:#ffca13;fill-rule:evenodd"/><rect x="1" y="2" width="11" height="41" rx="2" style="fill:#ffca13"/><rect x="22.44" y="37.71" width="29.12" height="2.59" style="fill:none"/><path d="M39.07,13.11,38.79,13a1.42,1.42,0,0,0-.58,0l-.28.08-.26.14a2.11,2.11,0,0,0-.23.19A1.52,1.52,0,0,0,37,14.5a1.36,1.36,0,0,0,0,.29,1.31,1.31,0,0,0,.09.28,1.26,1.26,0,0,0,.13.26,1.57,1.57,0,0,0,.42.42l.26.14.28.08a1.42,1.42,0,0,0,.58,0l.28-.08a1.59,1.59,0,0,0,.26-.14,1.57,1.57,0,0,0,.42-.42,2.15,2.15,0,0,0,.14-.26,2.29,2.29,0,0,0,.08-.28,1.36,1.36,0,0,0,0-.29,1.52,1.52,0,0,0-.44-1.06,1.45,1.45,0,0,0-.23-.19Z" transform="translate(0)"/><path d="M61.63,3.71H13.38A7.16,7.16,0,0,0,2,2.17a6.94,6.94,0,0,0-2,5v40.5a7,7,0,0,0,2,5.06A7.43,7.43,0,0,0,7.32,55H61.77A1.23,1.23,0,0,0,63,53.77V5.08A1.37,1.37,0,0,0,61.63,3.71Zm-57.9.17A4.67,4.67,0,0,1,7.09,2.46,4.75,4.75,0,0,1,11.82,7.2V42.28a7.24,7.24,0,0,0-3.4-1.66V12.85a1.23,1.23,0,1,0-2.46,0V40.59a7.31,7.31,0,0,0-3.5,1.61v-35A4.51,4.51,0,0,1,3.73,3.88ZM60.54,52.54H7.32a5,5,0,0,1-3.53-1.49,4.62,4.62,0,0,1-1.33-3.3v0h0v-.36a4.5,4.5,0,0,1,1.27-3A4.67,4.67,0,0,1,7.09,43a4.75,4.75,0,0,1,4.73,4.74,1.23,1.23,0,0,0,2.46,0V7.2a7,7,0,0,0-.08-1H60.54Z" transform="translate(0)"/><path d="M21.22,32h18a1.24,1.24,0,0,0,1.22-1.25,1.63,1.63,0,0,1,0-.36V20.06a1.22,1.22,0,1,0-2.44,0V29.5H33.3V25.83a1.23,1.23,0,0,0-1.23-1.25,5.82,5.82,0,0,0-5.69,4.92H22.44v-18h8.41v6.25h-5a1.25,1.25,0,0,0,0,2.5h6.24A1.24,1.24,0,0,0,33.3,19V11.5H46.88a5.83,5.83,0,0,0,4.68,4.58v3.79H45.18a1.26,1.26,0,0,0,0,2.51h6.38V29.5H45.79a1.25,1.25,0,0,0,0,2.5h7A1.24,1.24,0,0,0,54,30.75V10.25A1.24,1.24,0,0,0,52.78,9H21.22A1.24,1.24,0,0,0,20,10.25v20.5A1.24,1.24,0,0,0,21.22,32Zm9.63-4.69V29.5h-2A3.41,3.41,0,0,1,30.85,27.31ZM51.56,11.5v2a3.38,3.38,0,0,1-2.14-2Z" transform="translate(0)"/><path d="M21.22,43H52.78A1.3,1.3,0,0,0,54,41.65v-5.3A1.3,1.3,0,0,0,52.78,35H21.22A1.3,1.3,0,0,0,20,36.35v5.3A1.3,1.3,0,0,0,21.22,43Zm1.22-5.29H51.56v2.58H22.44Z" transform="translate(0)"/><path d="M52.21,45l-.28.08a1.59,1.59,0,0,0-.26.14,1.57,1.57,0,0,0-.42.42,1.05,1.05,0,0,0-.13.26,1.31,1.31,0,0,0-.09.28,1.36,1.36,0,0,0,0,.29,1.52,1.52,0,0,0,.44,1.06,1.45,1.45,0,0,0,.23.19l.26.14.28.08a1.36,1.36,0,0,0,.29,0,1.5,1.5,0,1,0-.29-3Z" transform="translate(0)"/><path d="M20.23,48H46.77a1.53,1.53,0,0,0,0-3H20.23a1.53,1.53,0,0,0,0,3Z" transform="translate(0)"/><path d="M7.5,10a1.36,1.36,0,0,1-.29,0,1.31,1.31,0,0,1-.28-.09,1.26,1.26,0,0,1-.26-.13,1.57,1.57,0,0,1-.42-.42,2.15,2.15,0,0,1-.14-.26A2.29,2.29,0,0,1,6,8.79a1.42,1.42,0,0,1,0-.58,2.29,2.29,0,0,1,.08-.28,2.15,2.15,0,0,1,.14-.26,1.57,1.57,0,0,1,.42-.42,1.26,1.26,0,0,1,.26-.13A1.31,1.31,0,0,1,7.21,7a1.42,1.42,0,0,1,.58,0,1.31,1.31,0,0,1,.28.09,1.26,1.26,0,0,1,.26.13,1.57,1.57,0,0,1,.42.42,1.26,1.26,0,0,1,.13.26A1.31,1.31,0,0,1,9,8.21a1.42,1.42,0,0,1,0,.58,1.31,1.31,0,0,1-.09.28,1.26,1.26,0,0,1-.13.26,1.57,1.57,0,0,1-.42.42,1.26,1.26,0,0,1-.26.13,1.31,1.31,0,0,1-.28.09A1.36,1.36,0,0,1,7.5,10Z" transform="translate(0)"/></svg>