<svg id="Layer_1" data-name="Layer 1" xmlns="http://www.w3.org/2000/svg" viewBox="0 0 31 31"><path d="M8.82,17a1.22,1.22,0,0,1-.91-.42L5.77,14H1.5A1.5,1.5,0,0,1,0,12.5V1.5A1.5,1.5,0,0,1,1.5,0h13A1.5,1.5,0,0,1,16,1.5v11A1.5,1.5,0,0,1,14.5,14H10v1.82A1.18,1.18,0,0,1,8.82,17Z" transform="translate(0 0)" style="fill:#f0bc5e"/><path d="M8,12l3.86-3.37A3.32,3.32,0,0,0,13,6.14V6.06a3.06,3.06,0,0,0-.94-2.22A2.95,2.95,0,0,0,8,3.78a2.95,2.95,0,0,0-4.06.06A3.06,3.06,0,0,0,3,6.06v.08A3.32,3.32,0,0,0,4.14,8.63ZM4,6.06a2.12,2.12,0,0,1,.65-1.53,1.93,1.93,0,0,1,2.7,0L8,5.17l.65-.64a2,2,0,0,1,2.7,0A2.12,2.12,0,0,1,12,6.06v.08a2.35,2.35,0,0,1-.8,1.76L8,10.69,4.8,7.9A2.35,2.35,0,0,1,4,6.14Z" transform="translate(0 0)"/><path d="M24.77,6.69A1.93,1.93,0,0,0,23.28,6a1.49,1.49,0,0,0-1.45,1.14,4.21,4.21,0,0,1-1.09,1.91l-.15.15A1,1,0,0,0,20,9H18a1,1,0,0,0-1,1v5a1,1,0,0,0,1,1h2a1,1,0,0,0,.94-.67A6.43,6.43,0,0,0,23.8,16H26a2,2,0,0,0,2-2V11a2,2,0,0,0-2-2h-.91l.12-.72A2,2,0,0,0,24.77,6.69ZM18,15V10h2v5Zm8-5a1,1,0,0,1,1,1v3a1,1,0,0,1-1,1H23.8a5.42,5.42,0,0,1-2.8-.78v-4l.45-.45A5.25,5.25,0,0,0,22.8,7.38.49.49,0,0,1,23.28,7a1,1,0,0,1,.94,1.11L23.91,10Z" transform="translate(0 0)"/><path d="M6,19a2,2,0,0,0-2,2,2,2,0,0,0,.58,1.4A3,3,0,0,0,3,25v1H4V25a2,2,0,0,1,2.07-2,2.11,2.11,0,0,1,1.22.39,2.71,2.71,0,0,0-.11.51l-.22,2L8,26l.23-2a2.3,2.3,0,0,1,4.56,0L13,26l1-.11-.22-2a3.75,3.75,0,0,0-.22-.83A2.13,2.13,0,0,1,14,23a2,2,0,0,1,2,2v1h1V25a3,3,0,0,0-1.55-2.63A2,2,0,1,0,12,21a1.72,1.72,0,0,0,0,.39,3.49,3.49,0,0,0-.44-.2A2,2,0,0,0,12,20a2,2,0,0,0-4,0,2,2,0,0,0,.72,1.52,3.22,3.22,0,0,0-1,.95,1.43,1.43,0,0,0-.27-.15A2,2,0,0,0,6,19Zm0,3a1,1,0,1,1,1-1A1,1,0,0,1,6,22Zm8-2a1,1,0,1,1-1,1A1,1,0,0,1,14,20Zm-4-1a1,1,0,1,1-1,1A1,1,0,0,1,10,19Z" transform="translate(0 0)"/><path d="M29.5,4H16V5H29.5a.5.5,0,0,1,.5.5v11a.5.5,0,0,1-.5.5H23.77l-2.45,2.93a.19.19,0,0,1-.32-.11V17H14.5a.5.5,0,0,1-.5-.5V14H13v1H10v.82A1.1,1.1,0,0,1,10,16h3v.5A1.5,1.5,0,0,0,14.5,18H18v8.5a.5.5,0,0,1-.5.5H11v2.82a.19.19,0,0,1-.32.11L8.23,27H2.5a.5.5,0,0,1-.5-.5v-10a.5.5,0,0,1,.5-.5H7.43L6.6,15H2.5A1.5,1.5,0,0,0,1,16.5v10A1.5,1.5,0,0,0,2.5,28H7.77l2.14,2.58a1.22,1.22,0,0,0,.91.42A1.18,1.18,0,0,0,12,29.82V28h5.5A1.5,1.5,0,0,0,19,26.5V18h1v1.82A1.18,1.18,0,0,0,21.18,21a1.22,1.22,0,0,0,.91-.42L24.23,18H29.5A1.5,1.5,0,0,0,31,16.5V5.5A1.5,1.5,0,0,0,29.5,4Z" transform="translate(0 0)"/></svg>