<svg id="Layer_1" data-name="Layer 1" xmlns="http://www.w3.org/2000/svg" viewBox="0 0 33 33"><path d="M17.62,1.91a1.84,1.84,0,0,1-1-.57l-.37-.4A2.81,2.81,0,0,0,14.2,0H9.51A5.77,5.77,0,0,0,4,6a6.38,6.38,0,0,0,.64,2.79l.1.22a1.58,1.58,0,0,1,1.39-.89h.54V4.63h0a2.64,2.64,0,0,0,0,.29A1.44,1.44,0,0,0,7.4,6.19l0,0A1.26,1.26,0,0,0,8,6.37h8A1.38,1.38,0,0,1,17.33,7.8v.31h.54A1.57,1.57,0,0,1,19.23,9l.1-.2a6.82,6.82,0,0,0,.67-3V5.05A3.15,3.15,0,0,0,17.62,1.91Z" style="fill:#f0bc5e"/><rect x="10" y="23" width="6" height="3" style="fill:#f0bc5e"/><path d="M12.24,12.88A2.75,2.75,0,0,0,14.85,11l0-.09-1-.34,0,.08a1.67,1.67,0,0,1-3.19,0l0-.08-1,.34,0,.09A2.74,2.74,0,0,0,12.24,12.88Z"/><rect x="13.84" y="27.56" width="1.06" height="1.09"/><rect x="11.71" y="27.56" width="1.06" height="1.09"/><rect x="13.84" y="29.74" width="1.06" height="1.09"/><rect x="11.71" y="29.74" width="1.06" height="1.09"/><path d="M30.34,16.68H24a1.63,1.63,0,0,0-1.6,1.64V19a9.94,9.94,0,0,0-7.65-4v0a3.79,3.79,0,0,0,3.41-3.79V10.7a2.18,2.18,0,0,0,0-4.35h0a1.85,1.85,0,0,0-1.82-1.63h-8a.73.73,0,0,1-.35-.09l-.06,0a.8.8,0,0,1,.36-1.51h.81V2H8.24A1.87,1.87,0,0,0,6.4,3.63V6.35h0a2.18,2.18,0,0,0,0,4.35h0v.55A3.79,3.79,0,0,0,9.79,15v0A10.25,10.25,0,0,0,0,25.39v.54a4.9,4.9,0,0,0,3.19,4.61V33H26.08a1.62,1.62,0,0,0,1.6-1.63v-.55h2.66a1.62,1.62,0,0,0,1.6-1.63V28.11A1.63,1.63,0,0,0,31.52,27a1.63,1.63,0,0,0,.42-1.09V24.84a1.63,1.63,0,0,0-.42-1.09,1.58,1.58,0,0,0,.42-1.08V21.58a1.63,1.63,0,0,0-.42-1.09,1.63,1.63,0,0,0,.42-1.09V18.32A1.63,1.63,0,0,0,30.34,16.68ZM18.1,7.44a1.09,1.09,0,0,1,0,2.17ZM6.39,9.61h0a1.09,1.09,0,0,1,0-2.17.22.22,0,0,0,0,.08Zm17,15.23A.54.54,0,0,1,24,24.3h.53v1.09H23.42Zm-8.7-8.69-.65,4L12.9,18.35l1.72-2.2ZM13.38,21H11.11l1.13-1.74Zm-2.64-5.51.23-.48h2.54l.23.48-1.5,1.92Zm3.1-9.18a.54.54,0,0,1,.53-.54h1.88a.79.79,0,0,1,.78.8v.83A.54.54,0,0,1,16.5,8H14.37a.54.54,0,0,1-.53-.54Zm-1-.54a1.62,1.62,0,0,0-.1.54H11.71a1.62,1.62,0,0,0-.1-.54ZM7.45,6.89V5.6h0a1.81,1.81,0,0,0,.82.2h1.82a.54.54,0,0,1,.54.54V7.44a.54.54,0,0,1-.54.54H8a.54.54,0,0,1-.53-.54Zm0,4.36V9a1.61,1.61,0,0,0,.53.1h2.13a1.62,1.62,0,0,0,1.6-1.63h1.06a1.62,1.62,0,0,0,1.6,1.63H16.5A1.51,1.51,0,0,0,17,9v2.28A2.68,2.68,0,0,1,14.37,14H10.11A2.69,2.69,0,0,1,7.45,11.25Zm2.42,4.9,1.71,2.19-1.16,1.79-.65-4ZM1.06,25.93v-.54a9.2,9.2,0,0,1,7.65-9.13L9.48,21H9.05a1.62,1.62,0,0,0-1.6,1.63v2.72H7.36a1.59,1.59,0,0,0-1.13.47l-.58.6a1.61,1.61,0,0,1-1.39-1.62V21.58H3.19v3.26a2.73,2.73,0,0,0,2.13,2.67v2.23H4.79A3.78,3.78,0,0,1,1.06,25.93Zm7.46,1.63a1.09,1.09,0,0,1,0,2.18H6.39v-2.5L7,26.63a.55.55,0,0,1,.38-.16h.09A.54.54,0,0,1,8,27v.54ZM7.45,31.91H4.26V30.79a4.58,4.58,0,0,0,.53,0H7.45Zm8.52,0H8.52V30.82a2.15,2.15,0,0,0,2.13-2.17A2.18,2.18,0,0,0,9,26.52a1.6,1.6,0,0,0-.45-.71V22.67a.54.54,0,0,1,.53-.55h6.39a.54.54,0,0,1,.53.55Zm2.54-2.72a1.67,1.67,0,0,0-.41,1.09v1.09a1.91,1.91,0,0,0,.09.54H17V22.67A1.61,1.61,0,0,0,15.44,21H15l.78-4.79a9,9,0,0,1,6.63,4.91,1.85,1.85,0,0,0-.06.42v1.09a1.63,1.63,0,0,0,.42,1.08,1.63,1.63,0,0,0-.42,1.09v.55H21.29V21.58H20.23v3.81h-.54A1.61,1.61,0,0,0,18.1,27v1.09A1.66,1.66,0,0,0,18.51,29.19Zm8.1,2.18a.54.54,0,0,1-.53.54H19.69a.54.54,0,0,1-.53-.54V30.28a.54.54,0,0,1,.53-.54h.54v1.08h1.06V29.74h1.06v1.08h1.07V29.74h1.06v1.08h1.07V29.74h.53a.54.54,0,0,1,.53.54Zm0-3.26a.54.54,0,0,1-.53.54H19.69a.54.54,0,0,1-.53-.54V27a.54.54,0,0,1,.53-.55h.54v1.09h1.06V26.47h1.06v1.09h1.07V26.47h1.06v1.09h1.07V26.47h.53a.54.54,0,0,1,.53.55Zm4.26,1.08a.54.54,0,0,1-.53.55H27.58a1.59,1.59,0,0,0-.32-.55,1.62,1.62,0,0,0,.42-1.08v-.55h1.06v1.09h1.07V27.56h.53a.54.54,0,0,1,.53.55Zm0-3.26a.54.54,0,0,1-.53.54H27.58a1.6,1.6,0,0,0-1.5-1.08h-.53V24.3h1.06v1.09h1.07V24.3h1.06v1.09h1.07V24.3h.53a.54.54,0,0,1,.53.54Zm0-3.26a.54.54,0,0,1-.53.54H24a.54.54,0,0,1-.53-.54V21.58A.54.54,0,0,1,24,21h.53v1.08h1.07V21h1.06v1.08h1.07V21h1.06v1.08h1.07V21h.53a.54.54,0,0,1,.53.54Zm0-3.27a.54.54,0,0,1-.53.55H24a.54.54,0,0,1-.53-.55V18.32a.54.54,0,0,1,.53-.55h.53v1.09h1.07V17.77h1.06v1.09h1.07V17.77h1.06v1.09h1.07V17.77h.53a.54.54,0,0,1,.53.55Z"/><path d="M29.81,2.54v12H28.74V4.72H25.55v9.79H24.48V6.89H21.29V15.6H33V2.54Zm-6.39,12H22.35V8h1.07Zm4.26,0H26.61V5.81h1.07Zm4.26,0H30.87V3.63h1.07Z"/></svg>