<?xml version="1.0" encoding="UTF-8"?>
<svg width="50px" height="50px" viewBox="0 0 50 50" version="1.1" xmlns="http://www.w3.org/2000/svg" xmlns:xlink="http://www.w3.org/1999/xlink">
    <title>authentication</title>
    <g id="Web-Dev-Service" stroke="none" stroke-width="1" fill="none" fill-rule="evenodd">
        <g id="Web-Dev-Service_Desktop-1280x850-Rev" transform="translate(-185.000000, -2577.000000)" fill-rule="nonzero">
            <g id="authentication" transform="translate(185.000000, 2577.000000)">
                <polygon id="Path" fill="#FBC935" points="23.3770161 40.3225806 28.7802419 34.9193548 34.4254032 40.5645161 29.0221774 45.9677419"></polygon>
                <polygon id="Path" fill="#FBC935" points="3.22580645 11.2903226 3.22580645 28.2258065 32.2580645 28.2258065 32.2580645 11.2903226"></polygon>
                <g id="Group" fill="#000000">
                    <path d="M50,24.1532258 C50,21.5120968 47.8427419,19.3548387 45.2016129,19.3548387 C43.921371,19.3548387 42.7116935,19.858871 41.8044355,20.7560484 L35.483871,27.0866935 L35.483871,0 L8.53830645,0 L0,8.53830645 L0,46.7741935 L19.6370968,46.7741935 L19.5362903,46.9959677 C19.4153226,47.2681452 19.3548387,47.5604839 19.3548387,47.8629032 C19.3548387,49.0423387 20.3125,50 21.4919355,50 C21.7943548,50 22.0866935,49.9395161 22.358871,49.8185484 L29.203629,46.7741935 L35.483871,46.7741935 L35.483871,40.6552419 L48.5987903,27.5403226 C49.4959677,26.6431452 50,25.4334677 50,24.1532258 L50,24.1532258 Z M31.4516129,42.4092742 L26.9455645,37.9032258 L38.7096774,26.1391129 L43.2157258,30.6451613 L31.4516129,42.4092742 Z M8.06451613,2.75201613 L8.06451613,8.06451613 L2.75201613,8.06451613 L8.06451613,2.75201613 Z M1.61290323,45.1612903 L1.61290323,9.67741935 L9.67741935,9.67741935 L9.67741935,1.61290323 L33.8709677,1.61290323 L33.8709677,28.6995968 L22.7116935,39.858871 L20.3528226,45.1612903 L1.61290323,45.1612903 Z M21.703629,48.3467742 C21.3709677,48.4879032 20.9677419,48.2358871 20.9677419,47.8629032 C20.9677419,47.7923387 20.9879032,47.7217742 21.0080645,47.6512097 L24.0625,40.7862903 L25.8064516,39.0423387 L30.3125,43.5483871 L28.5685484,45.2923387 L21.703629,48.3467742 Z M33.8709677,45.1612903 L30.9778226,45.1612903 L33.8709677,42.2681452 L33.8709677,45.1612903 Z M47.4495968,26.4012097 L44.3548387,29.5060484 L39.8487903,25 L42.9435484,21.9052419 C43.5483871,21.3004032 44.3447581,20.9677419 45.1915323,20.9677419 C46.9455645,20.9677419 48.3770161,22.3991935 48.3770161,24.1532258 C48.3870968,25 48.0544355,25.8064516 47.4495968,26.4012097 Z" id="Shape"></path>
                    <path d="M32.2580645,3.22580645 L11.2903226,3.22580645 L11.2903226,8.06451613 L32.2580645,8.06451613 L32.2580645,3.22580645 Z M22.5806452,4.83870968 L25.8064516,4.83870968 L25.8064516,6.4516129 L22.5806452,6.4516129 L22.5806452,4.83870968 Z M20.9677419,6.4516129 L17.7419355,6.4516129 L17.7419355,4.83870968 L20.9677419,4.83870968 L20.9677419,6.4516129 Z M12.9032258,4.83870968 L16.1290323,4.83870968 L16.1290323,6.4516129 L12.9032258,6.4516129 L12.9032258,4.83870968 Z M30.6451613,6.4516129 L27.4193548,6.4516129 L27.4193548,4.83870968 L30.6451613,4.83870968 L30.6451613,6.4516129 Z" id="Shape"></path>
                    <polygon id="Path" points="6.4516129 11.2903226 8.06451613 11.2903226 8.06451613 12.9032258 6.4516129 12.9032258"></polygon>
                    <polygon id="Path" points="3.22580645 11.2903226 4.83870968 11.2903226 4.83870968 12.9032258 3.22580645 12.9032258"></polygon>
                    <polygon id="Path" points="9.67741935 11.2903226 32.2580645 11.2903226 32.2580645 12.9032258 9.67741935 12.9032258"></polygon>
                    <polygon id="Path" points="3.22580645 14.516129 32.2580645 14.516129 32.2580645 16.1290323 3.22580645 16.1290323"></polygon>
                    <polygon id="Path" points="30.6350806 17.7419355 32.2580645 17.7419355 32.2580645 19.3548387 30.6350806 19.3548387"></polygon>
                    <polygon id="Path" points="3.22580645 17.7419355 29.0826613 17.7419355 29.0826613 19.3548387 3.22580645 19.3548387"></polygon>
                    <polygon id="Path" points="3.22580645 20.9677419 32.2580645 20.9677419 32.2580645 22.5806452 3.22580645 22.5806452"></polygon>
                    <polygon id="Path" points="3.22580645 24.1935484 32.2580645 24.1935484 32.2580645 25.8064516 3.22580645 25.8064516"></polygon>
                    <polygon id="Path" points="3.22580645 27.4193548 32.2580645 27.4193548 32.2580645 29.0322581 3.22580645 29.0322581"></polygon>
                </g>
            </g>
        </g>
    </g>
</svg>