<?xml version="1.0" encoding="UTF-8"?>
<svg width="55px" height="55px" viewBox="0 0 55 55" version="1.1" xmlns="http://www.w3.org/2000/svg" xmlns:xlink="http://www.w3.org/1999/xlink">
    <title>control-panel@2x</title>
    <g id="Web-Dev-Service" stroke="none" stroke-width="1" fill="none" fill-rule="evenodd">
        <g id="Web-Dev-Service_Desktop-1280x850-Rev" transform="translate(-526.000000, -3274.000000)" fill-rule="nonzero">
            <g id="control-panel" transform="translate(526.000000, 3274.000000)">
                <path d="M49.72,10.89 L36.806,10.89 L25.674,10.89 L22.594,10.89 L22.462,11.011 C22.583,11.627 22.649,12.276 22.649,12.925 C22.649,13.585 22.583,14.223 22.462,14.839 L24.343,16.533 L21.637,21.23 L19.228,20.449 C18.271,21.285 17.149,21.945 15.906,22.363 L15.378,24.838 L11,24.838 L11,25.553 L11,35.53 C11,35.717 11.033,35.893 11.077,36.058 C11.11,36.168 11.154,36.278 11.209,36.377 C11.231,36.432 11.264,36.476 11.297,36.52 C11.429,36.707 11.583,36.872 11.77,36.993 C11.814,37.026 11.869,37.059 11.913,37.081 C12.012,37.136 12.122,37.18 12.232,37.213 C12.397,37.268 12.573,37.29 12.76,37.29 L49.72,37.29 C49.907,37.29 50.083,37.257 50.248,37.213 C50.358,37.18 50.468,37.136 50.567,37.081 C50.622,37.059 50.666,37.026 50.71,36.993 C50.842,36.905 50.963,36.795 51.073,36.663 C51.117,36.619 51.15,36.564 51.183,36.52 C51.216,36.476 51.249,36.421 51.271,36.377 C51.326,36.278 51.37,36.168 51.403,36.058 C51.458,35.893 51.48,35.717 51.48,35.53 L51.48,25.564 L51.48,12.65 C51.48,11.682 50.688,10.89 49.72,10.89 Z" id="Path" fill="#FBC935"></path>
                <polygon id="Path" fill="#000000" points="12.76 39.05 14.52 39.05 14.52 40.81 12.76 40.81"></polygon>
                <polygon id="Path" fill="#000000" points="16.28 39.05 18.04 39.05 18.04 40.81 16.28 40.81"></polygon>
                <polygon id="Path" fill="#000000" points="19.8 39.05 21.56 39.05 21.56 40.81 19.8 40.81"></polygon>
                <path d="M40.92,21.45 L47.96,21.45 L47.96,14.41 L40.92,14.41 L40.92,21.45 Z M42.68,16.17 L46.2,16.17 L46.2,19.69 L42.68,19.69 L42.68,16.17 Z" id="Shape" fill="#000000"></path>
                <path d="M39.16,14.41 L32.12,14.41 L32.12,21.45 L39.16,21.45 L39.16,14.41 Z M37.4,19.69 L33.88,19.69 L33.88,16.17 L37.4,16.17 L37.4,19.69 Z" id="Shape" fill="#000000"></path>
                <path d="M30.305,14.41 L14.52,14.41 L14.52,27.61 L30.305,27.61 L30.305,14.41 Z M28.545,25.85 L16.28,25.85 L16.28,16.17 L28.545,16.17 L28.545,25.85 Z" id="Shape" fill="#000000"></path>
                <path d="M25.96,28.49 L20.68,28.49 L20.68,30.25 L14.52,30.25 L14.52,32.01 L20.68,32.01 L20.68,33.77 L25.96,33.77 L25.96,32.01 L47.96,32.01 L47.96,30.25 L25.96,30.25 L25.96,28.49 Z M24.2,32.01 L22.44,32.01 L22.44,30.25 L24.2,30.25 L24.2,32.01 Z" id="Shape" fill="#000000"></path>
                <polygon id="Path" fill="#000000" points="32.12 23.21 47.96 23.21 47.96 24.97 32.12 24.97"></polygon>
                <polygon id="Path" fill="#000000" points="32.12 26.73 33.88 26.73 33.88 28.49 32.12 28.49"></polygon>
                <polygon id="Path" fill="#000000" points="35.64 26.73 47.96 26.73 47.96 28.49 35.64 28.49"></polygon>
                <g id="Group" transform="translate(0.880000, 0.990000)" fill="#FFFFFF">
                    <path d="M21.769,11.935 C21.769,11.275 21.703,10.637 21.582,10.021 L23.463,8.327 L20.757,3.63 L18.348,4.4 C17.391,3.564 16.269,2.904 15.026,2.486 L14.498,0.011 L9.075,0.011 L8.547,2.486 C7.315,2.904 6.193,3.564 5.225,4.4 L2.816,3.619 L0.099,8.316 L1.98,10.01 C1.859,10.626 1.793,11.275 1.793,11.924 C1.793,12.584 1.859,13.222 1.98,13.838 L0.099,15.532 L2.816,20.24 L5.225,19.459 C6.182,20.295 7.304,20.955 8.547,21.373 L9.075,23.848 L14.498,23.848 L15.026,21.373 C16.258,20.955 17.38,20.295 18.348,19.459 L20.757,20.24 L23.474,15.543 L21.593,13.849 C21.703,13.222 21.769,12.584 21.769,11.935 Z" id="Path"></path>
                    <path d="M11.781,17.292 C8.822,17.292 6.413,14.894 6.413,11.924 C6.413,8.954 8.811,6.556 11.781,6.556 C14.751,6.556 17.149,8.954 17.149,11.924 C17.149,14.894 14.751,17.292 11.781,17.292 Z" id="Path"></path>
                </g>
                <path d="M50.6,7.37 L35.53,7.37 L26.95,7.37 L23.221,7.37 L24.244,9.13 L26.95,9.13 L35.53,9.13 L50.6,9.13 C52.052,9.13 53.24,10.318 53.24,11.77 L53.24,26.73 L53.24,39.93 C53.24,41.382 52.052,42.57 50.6,42.57 L11.88,42.57 C10.428,42.57 9.24,41.382 9.24,39.93 L9.24,26.73 L9.24,22.297 C8.624,22.066 8.03,21.791 7.48,21.45 L7.48,26.73 L7.48,39.93 C7.48,40.535 7.601,41.118 7.821,41.646 C7.931,41.91 8.074,42.163 8.228,42.394 C8.272,42.449 8.305,42.515 8.349,42.57 C8.437,42.68 8.525,42.79 8.613,42.9 C8.855,43.164 9.119,43.395 9.405,43.593 C9.581,43.714 9.768,43.813 9.955,43.912 C10.021,43.945 10.087,43.967 10.153,44 C10.285,44.055 10.417,44.11 10.56,44.143 C10.626,44.165 10.703,44.187 10.769,44.198 C10.912,44.231 11.055,44.264 11.198,44.286 C11.418,44.319 11.638,44.341 11.869,44.341 L24.156,44.341 C24.013,45.749 23.276,47.014 22.132,47.861 L19.8,47.861 C19.569,47.861 19.349,47.883 19.129,47.916 C18.986,47.938 18.843,47.971 18.7,48.004 C18.634,48.026 18.557,48.037 18.491,48.059 C18.348,48.103 18.216,48.147 18.084,48.202 C18.018,48.235 17.952,48.257 17.886,48.29 C17.699,48.378 17.512,48.488 17.336,48.609 C17.039,48.807 16.775,49.038 16.544,49.302 C16.445,49.401 16.357,49.511 16.28,49.632 C16.236,49.687 16.192,49.742 16.159,49.808 C16.005,50.039 15.862,50.292 15.752,50.556 C15.532,51.084 15.411,51.656 15.411,52.272 C15.411,53.724 16.599,54.912 18.051,54.912 L44.451,54.912 C45.903,54.912 47.091,53.724 47.091,52.272 C47.091,51.667 46.97,51.084 46.75,50.556 C46.64,50.292 46.497,50.039 46.343,49.808 C46.299,49.753 46.266,49.687 46.222,49.632 C46.134,49.522 46.046,49.412 45.958,49.302 C45.716,49.038 45.452,48.807 45.166,48.609 C44.99,48.488 44.803,48.389 44.616,48.29 C44.55,48.257 44.484,48.235 44.418,48.202 C44.286,48.147 44.154,48.092 44.011,48.059 C43.945,48.037 43.868,48.015 43.802,48.004 C43.659,47.971 43.516,47.938 43.373,47.916 C43.153,47.883 42.933,47.861 42.702,47.861 L40.359,47.861 C39.215,47.014 38.489,45.749 38.335,44.341 L50.6,44.341 C50.831,44.341 51.051,44.319 51.271,44.286 C51.414,44.264 51.557,44.231 51.7,44.198 C51.766,44.176 51.843,44.165 51.909,44.143 C52.052,44.099 52.184,44.055 52.316,44 C52.382,43.967 52.448,43.945 52.514,43.912 C52.701,43.824 52.888,43.714 53.064,43.593 C53.361,43.395 53.625,43.164 53.856,42.9 C53.955,42.801 54.043,42.691 54.12,42.57 C54.164,42.515 54.208,42.46 54.241,42.394 C54.395,42.163 54.538,41.91 54.648,41.646 C54.868,41.118 54.9890459,40.546 54.9890459,39.93 L54.9890459,26.73 L54.9890459,11.77 C55,9.339 53.031,7.37 50.6,7.37 Z M25.927,44.33 L36.553,44.33 C36.652,45.617 37.114,46.838 37.862,47.85 L24.618,47.85 C25.366,46.838 25.828,45.617 25.927,44.33 Z M42.68,49.61 C44.132,49.61 45.32,50.798 45.32,52.25 C45.32,52.734 44.924,53.13 44.44,53.13 L18.04,53.13 C17.556,53.13 17.16,52.734 17.16,52.25 C17.16,50.798 18.348,49.61 19.8,49.61 L42.68,49.61 Z" id="Shape" fill="#000000"></path>
                <path d="M12.661,6.589 C9.174,6.589 6.325,9.427 6.325,12.925 C6.325,16.423 9.174,19.25 12.661,19.25 C16.148,19.25 18.997,16.412 18.997,12.914 C18.997,9.416 16.159,6.589 12.661,6.589 Z M12.661,17.314 C10.241,17.314 8.272,15.345 8.272,12.925 C8.272,10.505 10.241,8.536 12.661,8.536 C15.081,8.536 17.05,10.505 17.05,12.925 C17.05,15.345 15.092,17.314 12.661,17.314 Z" id="Shape" fill="#000000"></path>
                <path d="M24.992,15.818 L23.507,14.476 C23.584,13.959 23.617,13.442 23.617,12.925 C23.617,12.408 23.584,11.891 23.507,11.374 L24.992,10.032 C25.333,9.724 25.41,9.218 25.179,8.822 L22.462,4.125 C22.231,3.729 21.758,3.542 21.329,3.685 L19.426,4.301 C18.601,3.652 17.699,3.135 16.742,2.75 L16.324,0.792 C16.225,0.341 15.829,0.022 15.378,0.022 L9.955,0.022 C9.493,0.022 9.108,0.341 9.009,0.792 L8.591,2.75 C7.623,3.135 6.721,3.663 5.907,4.301 L4.004,3.685 C3.564,3.542 3.091,3.729 2.871,4.125 L0.143,8.822 C-0.088,9.218 -4.26741975e-16,9.724 0.33,10.021 L1.815,11.363 C1.738,11.88 1.705,12.397 1.705,12.914 C1.705,13.431 1.738,13.948 1.815,14.465 L0.33,15.818 C-0.011,16.126 -0.088,16.632 0.143,17.028 L2.86,21.714 C3.091,22.11 3.564,22.297 3.993,22.154 L5.896,21.538 C6.721,22.187 7.623,22.704 8.58,23.089 L8.998,25.047 C9.097,25.498 9.493,25.817 9.944,25.817 L15.367,25.817 C15.829,25.817 16.214,25.498 16.313,25.047 L16.731,23.089 C17.699,22.704 18.601,22.176 19.415,21.538 L21.318,22.154 C21.758,22.297 22.231,22.11 22.451,21.714 L25.168,17.017 C25.41,16.621 25.333,16.126 24.992,15.818 Z M21.516,11.187 C21.626,11.759 21.681,12.342 21.681,12.914 C21.681,13.497 21.626,14.08 21.516,14.641 C21.45,14.971 21.571,15.312 21.813,15.543 L23.111,16.72 L21.186,20.053 L19.525,19.514 C19.206,19.404 18.843,19.481 18.59,19.701 C17.71,20.471 16.698,21.054 15.598,21.428 C15.279,21.538 15.037,21.813 14.96,22.143 L14.597,23.848 L10.747,23.848 L10.384,22.143 C10.318,21.813 10.076,21.538 9.746,21.428 C8.646,21.054 7.634,20.471 6.754,19.701 C6.501,19.481 6.138,19.404 5.819,19.514 L4.158,20.053 L2.233,16.72 L3.52,15.554 C3.773,15.323 3.883,14.982 3.817,14.652 C3.707,14.08 3.652,13.497 3.652,12.925 C3.652,12.353 3.707,11.759 3.817,11.198 C3.883,10.868 3.762,10.527 3.52,10.296 L2.211,9.108 L4.136,5.775 L5.797,6.314 C6.116,6.424 6.479,6.347 6.732,6.127 C7.612,5.357 8.624,4.774 9.724,4.4 C10.043,4.29 10.285,4.015 10.362,3.685 L10.725,1.98 L14.575,1.98 L14.938,3.685 C15.004,4.015 15.246,4.29 15.576,4.4 C16.676,4.774 17.688,5.357 18.568,6.127 C18.821,6.347 19.184,6.424 19.503,6.314 L21.164,5.775 L23.089,9.108 L21.791,10.285 C21.56,10.516 21.45,10.857 21.516,11.187 Z" id="Shape" fill="#000000"></path>
            </g>
        </g>
    </g>
</svg>