<?xml version="1.0" encoding="UTF-8"?>
<svg width="55px" height="55px" viewBox="0 0 55 55" version="1.1" xmlns="http://www.w3.org/2000/svg" xmlns:xlink="http://www.w3.org/1999/xlink">
    <title>css@2x</title>
    <g id="Web-Dev-Service" stroke="none" stroke-width="1" fill="none" fill-rule="evenodd">
        <g id="Web-Dev-Service_Desktop-1280x850-Rev" transform="translate(-527.000000, -3053.000000)" fill-rule="nonzero">
            <g id="css" transform="translate(527.000000, 3053.000000)">
                <path d="M30.9490323,19.516129 L7.98387097,19.516129 C7.00540323,19.516129 6.20967742,20.3118548 6.20967742,21.2903226 L6.20967742,42.5806452 C6.20967742,43.5591129 7.00540323,44.3548387 7.98387097,44.3548387 L39.9193548,44.3548387 C40.8978226,44.3548387 41.6935484,43.5591129 41.6935484,42.5806452 L41.6935484,25.7258065 C37.0992742,25.7258065 33.0975806,23.2250806 30.9490323,19.516129 Z" id="Path" fill="#FBC935"></path>
                <g id="Group" fill="#000000">
                    <path d="M37.2580645,15.0806452 L37.2580645,14.1935484 L35.483871,14.1935484 L35.483871,15.0806452 C35.483871,15.5703226 35.0855645,15.9677419 34.5967742,15.9677419 C34.1079839,15.9677419 33.7096774,15.5703226 33.7096774,15.0806452 L33.7096774,11.5322581 C33.7096774,11.0425806 34.1079839,10.6451613 34.5967742,10.6451613 C35.0855645,10.6451613 35.483871,11.0425806 35.483871,11.5322581 L35.483871,12.4193548 L37.2580645,12.4193548 L37.2580645,11.5322581 C37.2580645,10.065 36.0640323,8.87096774 34.5967742,8.87096774 C33.1295161,8.87096774 31.9354839,10.065 31.9354839,11.5322581 L31.9354839,15.0806452 C31.9354839,16.5479032 33.1295161,17.7419355 34.5967742,17.7419355 C36.0640323,17.7419355 37.2580645,16.5479032 37.2580645,15.0806452 Z" id="Path"></path>
                    <path d="M41.6935484,15.9677419 C41.2047581,15.9677419 40.8064516,15.5703226 40.8064516,15.0806452 L39.0322581,15.0806452 C39.0322581,16.5479032 40.2262903,17.7419355 41.6935484,17.7419355 C43.1608065,17.7419355 44.3548387,16.5479032 44.3548387,15.0806452 C44.3548387,13.6133871 43.1608065,12.4193548 41.6935484,12.4193548 C41.2047581,12.4193548 40.8064516,12.0219355 40.8064516,11.5322581 C40.8064516,11.0425806 41.2047581,10.6451613 41.6935484,10.6451613 C42.1823387,10.6451613 42.5806452,11.0425806 42.5806452,11.5322581 L44.3548387,11.5322581 C44.3548387,10.065 43.1608065,8.87096774 41.6935484,8.87096774 C40.2262903,8.87096774 39.0322581,10.065 39.0322581,11.5322581 C39.0322581,12.9995161 40.2262903,14.1935484 41.6935484,14.1935484 C42.1823387,14.1935484 42.5806452,14.5909677 42.5806452,15.0806452 C42.5806452,15.5703226 42.1823387,15.9677419 41.6935484,15.9677419 Z" id="Path"></path>
                    <path d="M48.7903226,15.9677419 C48.3015323,15.9677419 47.9032258,15.5703226 47.9032258,15.0806452 L46.1290323,15.0806452 C46.1290323,16.5479032 47.3230645,17.7419355 48.7903226,17.7419355 C50.2575806,17.7419355 51.4516129,16.5479032 51.4516129,15.0806452 C51.4516129,13.6133871 50.2575806,12.4193548 48.7903226,12.4193548 C48.3015323,12.4193548 47.9032258,12.0219355 47.9032258,11.5322581 C47.9032258,11.0425806 48.3015323,10.6451613 48.7903226,10.6451613 C49.2791129,10.6451613 49.6774194,11.0425806 49.6774194,11.5322581 L51.4516129,11.5322581 C51.4516129,10.065 50.2575806,8.87096774 48.7903226,8.87096774 C47.3230645,8.87096774 46.1290323,10.065 46.1290323,11.5322581 C46.1290323,12.9995161 47.3230645,14.1935484 48.7903226,14.1935484 C49.2791129,14.1935484 49.6774194,14.5909677 49.6774194,15.0806452 C49.6774194,15.5703226 49.2791129,15.9677419 48.7903226,15.9677419 Z" id="Path"></path>
                    <path d="M36.3709677,34.5967742 C36.3709677,33.1295161 35.1769355,31.9354839 33.7096774,31.9354839 L32.8225806,31.9354839 L32.8225806,33.7096774 L33.7096774,33.7096774 C34.1984677,33.7096774 34.5967742,34.1070968 34.5967742,34.5967742 C34.5967742,35.2807258 34.8637903,35.8990323 35.2887097,36.3709677 C34.8629032,36.8429032 34.5967742,37.4612097 34.5967742,38.1451613 C34.5967742,38.6348387 34.1984677,39.0322581 33.7096774,39.0322581 L32.8225806,39.0322581 L32.8225806,40.8064516 L33.7096774,40.8064516 C35.1769355,40.8064516 36.3709677,39.6124194 36.3709677,38.1451613 C36.3709677,37.6554839 36.7692742,37.2580645 37.2580645,37.2580645 L38.1451613,37.2580645 L38.1451613,35.483871 L37.2580645,35.483871 C36.7692742,35.483871 36.3709677,35.0864516 36.3709677,34.5967742 Z" id="Path"></path>
                    <path d="M27.5,34.5967742 C27.5,35.0864516 27.1016935,35.483871 26.6129032,35.483871 L25.7258065,35.483871 L25.7258065,37.2580645 L26.6129032,37.2580645 C27.1016935,37.2580645 27.5,37.6554839 27.5,38.1451613 C27.5,39.6124194 28.6940323,40.8064516 30.1612903,40.8064516 L31.0483871,40.8064516 L31.0483871,39.0322581 L30.1612903,39.0322581 C29.6725,39.0322581 29.2741935,38.6348387 29.2741935,38.1451613 C29.2741935,37.4612097 29.0071774,36.8429032 28.5822581,36.3709677 C29.0080645,35.8990323 29.2741935,35.2807258 29.2741935,34.5967742 C29.2741935,34.1070968 29.6725,33.7096774 30.1612903,33.7096774 L31.0483871,33.7096774 L31.0483871,31.9354839 L30.1612903,31.9354839 C28.6940323,31.9354839 27.5,33.1295161 27.5,34.5967742 Z" id="Path"></path>
                    <polygon id="Path" points="9.75806452 23.0645161 11.5322581 23.0645161 11.5322581 24.8387097 9.75806452 24.8387097"></polygon>
                    <polygon id="Path" points="16.8548387 23.0645161 18.6290323 23.0645161 18.6290323 24.8387097 16.8548387 24.8387097"></polygon>
                    <polygon id="Path" points="13.3064516 23.0645161 15.0806452 23.0645161 15.0806452 24.8387097 13.3064516 24.8387097"></polygon>
                    <polygon id="Path" points="6.20967742 26.6129032 41.6935484 26.6129032 41.6935484 28.3870968 6.20967742 28.3870968"></polygon>
                    <polygon id="Path" points="13.3064516 33.7096774 16.8548387 33.7096774 16.8548387 31.9354839 13.3064516 31.9354839 13.3064516 30.1612903 11.5322581 30.1612903 11.5322581 40.8064516 13.3064516 40.8064516 13.3064516 37.2580645 18.6290323 37.2580645 18.6290323 35.483871 13.3064516 35.483871"></polygon>
                    <path d="M55,13.3064516 C55,5.96927419 49.0307258,0 41.6935484,0 C34.356371,0 28.3870968,5.96927419 28.3870968,13.3064516 C28.3870968,14.2175 28.4802419,15.1072581 28.655,15.9677419 L7.09677419,15.9677419 C4.65104839,15.9677419 2.66129032,17.9575 2.66129032,20.4032258 L2.66129032,46.1290323 C1.19403226,46.1290323 0,47.3230645 0,48.7903226 C0,52.213629 2.78548387,55 6.20967742,55 L41.6935484,55 C45.1177419,55 47.9032258,52.213629 47.9032258,48.7903226 C47.9032258,47.3230645 46.7091935,46.1290323 45.2419355,46.1290323 L45.2419355,26.1179032 C50.8590323,24.5592742 55,19.4141129 55,13.3064516 Z M41.6935484,1.77419355 C48.0522581,1.77419355 53.2258065,6.94774194 53.2258065,13.3064516 C53.2258065,19.6651613 48.0522581,24.8387097 41.6935484,24.8387097 C35.3348387,24.8387097 30.1612903,19.6651613 30.1612903,13.3064516 C30.1612903,6.94774194 35.3348387,1.77419355 41.6935484,1.77419355 Z M46.1290323,48.7903226 C46.1290323,51.2360484 44.1392742,53.2258065 41.6935484,53.2258065 L6.20967742,53.2258065 C3.76395161,53.2258065 1.77419355,51.2360484 1.77419355,48.7903226 C1.77419355,48.3006452 2.1725,47.9032258 2.66129032,47.9032258 L16.0573387,47.9032258 C16.4698387,49.9249194 18.2608871,51.4516129 20.4032258,51.4516129 L27.5,51.4516129 C29.6414516,51.4516129 31.4333871,49.9249194 31.8458871,47.9032258 L45.2419355,47.9032258 C45.7307258,47.9032258 46.1290323,48.3006452 46.1290323,48.7903226 Z M17.9051613,47.9032258 L29.9971774,47.9032258 C29.6299194,48.9331452 28.6541129,49.6774194 27.4991129,49.6774194 L20.4023387,49.6774194 C19.2482258,49.6774194 18.2724194,48.9331452 17.9051613,47.9032258 L17.9051613,47.9032258 Z M43.4677419,46.1290323 L4.43548387,46.1290323 L4.43548387,20.4032258 C4.43548387,18.9359677 5.62951613,17.7419355 7.09677419,17.7419355 L29.1633065,17.7419355 C30.9960484,22.9021774 35.9132258,26.6129032 41.6935484,26.6129032 C42.2967742,26.6129032 42.8858065,26.5587903 43.4677419,26.4807258 L43.4677419,46.1290323 Z" id="Shape"></path>
                </g>
            </g>
        </g>
    </g>
</svg>