<?xml version="1.0" encoding="UTF-8"?>
<svg width="55px" height="55px" viewBox="0 0 55 55" version="1.1" xmlns="http://www.w3.org/2000/svg" xmlns:xlink="http://www.w3.org/1999/xlink">
    <title>interpreter@2x</title>
    <g id="Web-Dev-Service" stroke="none" stroke-width="1" fill="none" fill-rule="evenodd">
        <g id="Web-Dev-Service_Desktop-1280x850-Rev" transform="translate(-526.000000, -2814.000000)" fill-rule="nonzero">
            <g id="interpreter" transform="translate(526.000000, 2814.000000)">
                <path d="M31.9754032,26.0841935 L31.2683871,25.731129 C30.5862097,25.3895968 30.1612903,24.7029839 30.1612903,23.9391935 C30.1612903,23.5426613 30.2775,23.1585484 30.4975,22.8285484 C31.4378226,21.4171774 31.9354839,19.7751613 31.9354839,18.0799194 L31.9354839,15.0806452 C31.4458065,15.0806452 31.0483871,14.6832258 31.0483871,14.1935484 L31.0483871,13.3064516 L31.0483871,7.49064516 C29.5083871,4.1241129 26.1152419,1.77419355 22.1774194,1.77419355 L19.0033871,1.77419355 C15.1391935,1.77419355 11.5526613,3.69387097 9.40854839,6.90959677 L6.85459677,10.7400806 C5.85217742,12.2428226 5.32258065,13.9912903 5.32258065,15.7991935 C5.32258065,17.2079032 5.65524194,18.6183871 6.28508065,19.8771774 L6.86080645,21.0295161 C7.01516129,21.3373387 7.09677419,21.6815323 7.09677419,22.0257258 C7.09677419,22.8755645 6.62483871,23.6393548 5.86459677,24.0190323 L5.46895161,24.2168548 C4.28467742,24.8085484 3.5483871,25.9999194 3.5483871,27.3589516 C3.5483871,28.2593548 3.89967742,29.1056452 4.53572581,29.7425806 L5.08927419,30.296129 C5.82645161,29.966129 6.6283871,29.7514516 7.47822581,29.691129 L13.3064516,29.2741935 L13.3348387,21.2903226 L12.1878226,20.1433065 C11.7859677,19.7414516 11.5606452,19.1967742 11.5606452,18.6290323 C11.5606452,17.6487903 12.3545968,16.8548387 13.3348387,16.8548387 L13.5947581,15.8142742 C13.9682258,14.3195161 15.2633871,13.2372581 16.8007258,13.1343548 L25.0001613,12.5870161 C25.1287903,12.5781452 25.2520968,12.5515323 25.3745161,12.5258065 L25.3754032,12.5355645 C26.1533871,14.0933065 27.5,17.2478226 27.5,20.4032258 L25.7258065,21.2903226 C25.7258065,23.7395968 23.7395968,25.7258065 21.2903226,25.7258065 L20.4032258,25.7258065 L20.4032258,29.2741935 L26.7708065,29.911129 C28.3560484,30.0699194 29.7860484,30.9295161 30.6695968,32.2548387 L30.8576613,32.5378226 L32.2876613,31.5841935 C33.1783065,30.9907258 33.7096774,29.9945161 33.7096774,28.8883065 C33.7096774,27.6942742 33.0452419,26.62 31.9754032,26.0841935 L31.9754032,26.0841935 Z" id="Path" fill="#FBC935"></path>
                <g id="Group" fill="#000000">
                    <path d="M53.2258065,12.4193548 L49.6774194,12.4193548 L49.6774194,1.77419355 C49.6774194,0.795725806 48.8816935,0 47.9032258,0 L31.9354839,0 C30.9570161,0 30.1612903,0.795725806 30.1612903,1.77419355 L30.1612903,14.1935484 C30.1612903,15.1720161 30.9570161,15.9677419 31.9354839,15.9677419 L33.7096774,15.9677419 L33.7096774,17.5325806 C33.7096774,18.5545161 34.4894355,19.3883871 35.483871,19.4948387 L35.483871,28.3870968 C35.483871,29.3655645 36.2795968,30.1612903 37.2580645,30.1612903 L37.7424194,30.1612903 C37.5614516,30.4726613 37.4195161,30.8106452 37.3405645,31.1725806 C36.2654032,31.5141129 35.483871,32.5227419 35.483871,33.7096774 C35.483871,34.5187097 35.7987903,35.2798387 36.3709677,35.851129 L37.2580645,36.7382258 L37.2580645,40.5376613 L31.4076613,31.7625 C30.3724194,30.2100806 28.7144355,29.213871 26.858629,29.0284677 L21.2903226,28.471371 L21.2903226,26.6129032 C24.035,26.6129032 26.3006452,24.5246774 26.583629,21.853629 L28.3870968,20.9514516 L28.3870968,20.4032258 C28.3870968,17.5778226 27.3846774,14.7941129 26.5756452,13.0004032 C27.6552419,12.3829839 28.3870968,11.2306452 28.3870968,9.91419355 C28.3870968,8.37685484 27.4077419,7.01782258 25.9493548,6.53169355 L25.1190323,6.25491935 L24.5575,7.93774194 L25.3887097,8.21451613 C26.1205645,8.45846774 26.6129032,9.14064516 26.6129032,9.91330645 C26.6129032,10.8527419 25.8792742,11.6378226 24.9416129,11.7008065 L16.7421774,12.2481452 C14.8145161,12.3767742 13.2044355,13.7225 12.7333871,15.5978226 L12.6171774,16.0644355 C11.4967742,16.3784677 10.6735484,17.4083871 10.6735484,18.6272581 C10.6735484,19.4371774 10.9884677,20.1974194 11.5606452,20.7687097 L12.4459677,21.6549194 L12.4220161,28.4465323 L7.41435484,28.8049194 C3.25741935,29.1029839 -3.15160084e-15,32.6008065 -3.15160084e-15,36.7692742 L-3.15160084e-15,46.1290323 C-3.15160084e-15,49.0644355 2.38717742,51.4516129 5.32258065,51.4516129 L6.9033871,51.4516129 C6.80491935,52.0078226 6.68072581,52.5587097 6.50153226,53.0954032 L5.86548387,55 L27.8433065,55 L27.2081452,53.0954032 C26.8133871,51.9093548 26.6129032,50.673629 26.6129032,49.4237097 C26.6129032,47.9387097 26.8923387,46.4874194 27.4441129,45.1115323 L27.7324194,44.3903226 C27.9266935,43.9041935 28.0712903,43.4047581 28.1795161,42.8991129 L34.2516935,49.5558871 C35.3490323,50.7605645 36.913871,51.4516129 38.5443548,51.4516129 C41.7476613,51.4516129 44.3548387,48.8453226 44.3548387,45.641129 L44.3548387,31.9354839 C44.3548387,31.286129 44.1667742,30.6855645 43.8616129,30.1612903 L46.4679032,30.1612903 L47.6947581,32.6141129 C48.0327419,33.2891935 48.7122581,33.7096774 49.4680645,33.7096774 C50.5618548,33.7096774 51.4516129,32.8199194 51.4516129,31.726129 L51.4516129,30.1612903 L53.2258065,30.1612903 C54.2042742,30.1612903 55,29.3655645 55,28.3870968 L55,14.1935484 C55,13.2150806 54.2042742,12.4193548 53.2258065,12.4193548 L53.2258065,12.4193548 Z M31.9354839,14.1935484 L31.9354839,1.77419355 L47.9032258,1.77419355 L47.9032258,14.1935484 L37.5969355,14.1935484 L35.8812903,17.6257258 C35.7925806,17.801371 35.4829839,17.7277419 35.483871,17.5334677 L35.483871,14.1935484 L31.9354839,14.1935484 Z M24.8387097,36.3709677 C24.8387097,36.8606452 24.4412903,37.2580645 23.9516129,37.2580645 C22.7770968,37.2580645 21.661129,36.8890323 20.726129,36.2157258 C21.0747581,35.7659677 21.2903226,35.208871 21.2903226,34.5967742 C21.2903226,33.9846774 21.0747581,33.4275806 20.726129,32.9778226 C21.661129,32.3045161 22.7770968,31.9354839 23.9516129,31.9354839 C24.4412903,31.9354839 24.8387097,32.3329032 24.8387097,32.8225806 L24.8387097,36.3709677 Z M15.9677419,49.6774194 L15.9677419,45.6091935 L16.8548387,44.7220968 C17.0925806,44.4852419 17.4066129,44.3548387 17.7419355,44.3548387 C18.2316129,44.3548387 18.6290323,44.7522581 18.6290323,45.2419355 L18.6290323,46.1290323 L19.516129,46.1290323 C20.4945968,46.1290323 21.2903226,46.9247581 21.2903226,47.9032258 C21.2903226,48.8816935 20.4945968,49.6774194 19.516129,49.6774194 L15.9677419,49.6774194 Z M13.3064516,31.9354839 C14.4694355,31.9354839 15.5756452,32.2965323 16.5283871,32.981371 C16.1824194,33.431129 15.9677419,33.9864516 15.9677419,34.5967742 C15.9677419,35.208871 16.1833065,35.7659677 16.5319355,36.2157258 C15.5969355,36.8890323 14.4809677,37.2580645 13.3064516,37.2580645 C12.8167742,37.2580645 12.4193548,36.8606452 12.4193548,36.3709677 L12.4193548,32.8225806 C12.4193548,32.3329032 12.8167742,31.9354839 13.3064516,31.9354839 Z M19.516129,34.5967742 C19.516129,35.0864516 19.1187097,35.483871 18.6290323,35.483871 C18.1393548,35.483871 17.7419355,35.0864516 17.7419355,34.5967742 C17.7419355,34.1070968 18.1393548,33.7096774 18.6290323,33.7096774 C19.1187097,33.7096774 19.516129,34.1070968 19.516129,34.5967742 Z M22.3016129,30.3555645 C21.8296774,30.4646774 21.3710484,30.6208065 20.9301613,30.8230645 L21.0774194,30.2331452 L22.3016129,30.3555645 Z M13.3348387,17.7419355 L14.0276613,17.7419355 L14.4543548,16.0298387 C14.7364516,14.9041129 15.7025,14.0968548 16.8592742,14.0187903 L24.8484677,13.4856452 C25.5528226,14.9990323 26.4754032,17.4083871 26.5987097,19.8620968 L24.8387097,20.7420968 L24.8387097,21.2903226 C24.8387097,21.5981452 24.7872581,21.8917742 24.7127419,22.1774194 L23.273871,22.1774194 C22.3885484,22.1774194 21.5919355,21.6850806 21.1962903,20.8937903 L19.6092742,21.6877419 C20.3091935,23.0840323 21.7134677,23.9516129 23.273871,23.9516129 L23.6118548,23.9516129 C22.9882258,24.4971774 22.1818548,24.8387097 21.2894355,24.8387097 L17.7410484,24.8387097 L17.7410484,26.6129032 L19.5152419,26.6129032 L19.5152419,29.1668548 L18.8179839,31.955 C18.755,31.9496774 18.6937903,31.9354839 18.6290323,31.9354839 C18.4569355,31.9354839 18.2901613,31.955 18.1278226,31.9860484 C17.1129839,31.0918548 15.8932258,30.506371 14.5767742,30.2766129 L14.1953226,29.131371 L14.2245968,20.9239516 L12.815,19.516129 C12.5772581,19.2792742 12.4477419,18.9643548 12.4477419,18.6290323 C12.4477419,18.1402419 12.8451613,17.7419355 13.3348387,17.7419355 Z M1.77419355,46.1290323 L1.77419355,36.7692742 C1.77419355,33.5269355 4.30685484,30.8062097 7.54120968,30.5755645 L12.6828226,30.2083065 L12.6934677,30.2393548 C11.5216129,30.5179032 10.6451613,31.5673387 10.6451613,32.8225806 L10.6451613,36.3709677 C10.6451613,37.8382258 11.8391935,39.0322581 13.3064516,39.0322581 C14.9325,39.0322581 16.4733871,38.4982258 17.7419355,37.5250806 L17.7419355,42.5806452 C16.9329032,42.5806452 16.1717742,42.8955645 15.6004839,43.4677419 L14.7133871,44.3548387 L7.87475806,44.3548387 L7.62459677,43.7320968 C7.27419355,42.8547581 7.09677419,41.9312903 7.09677419,40.9865323 C7.09677419,39.8448387 7.36733871,38.701371 7.87653226,37.6812097 L8.30943548,36.8145161 C8.67669355,36.0817742 8.87096774,35.2594355 8.87096774,34.4362097 L8.87096774,33.7096774 L7.09677419,33.7096774 L7.09677419,34.4362097 C7.09677419,34.9844355 6.96725806,35.5326613 6.72153226,36.0232258 L6.29040323,36.886371 C5.65701613,38.1531452 5.32258065,39.5698387 5.32258065,40.9865323 C5.32258065,42.1441935 5.53991935,43.2770161 5.96483871,44.3548387 L3.5483871,44.3548387 L3.5483871,46.1290323 L14.1935484,46.1290323 L14.1935484,49.6774194 L5.32258065,49.6774194 C3.36564516,49.6774194 1.77419355,48.0859677 1.77419355,46.1290323 Z M8.70153226,51.4516129 L17.7419355,51.4516129 L17.7419355,53.2258065 L8.32008065,53.2258065 C8.49129032,52.6447581 8.60927419,52.0504032 8.70153226,51.4516129 Z M26.0841935,43.7312097 L25.7958871,44.4515323 C25.1607258,46.0385484 24.8387097,47.7116129 24.8387097,49.4237097 C24.8387097,50.7135484 25.0241129,51.9909677 25.3895968,53.2258065 L19.516129,53.2258065 L19.516129,51.4516129 C21.4730645,51.4516129 23.0645161,49.8601613 23.0645161,47.9032258 C23.0645161,46.208871 21.8695968,44.7868548 20.2790323,44.4373387 C20.1335484,43.981371 19.863871,43.5839516 19.516129,43.2708065 L19.516129,37.5250806 C20.7846774,38.4982258 22.3255645,39.0322581 23.9516129,39.0322581 C24.7766129,39.0322581 25.5049194,38.6472581 25.9937097,38.0564516 C26.3920161,38.9799194 26.6129032,39.9814516 26.6129032,40.9865323 C26.6129032,41.9312903 26.4354839,42.8547581 26.0841935,43.7312097 Z M38.5443548,49.6774194 C37.4115323,49.6774194 36.3248387,49.1975 35.5628226,48.3609677 L28.3560484,40.4604839 C28.2833065,39.2220968 27.9737097,37.996129 27.4183871,36.8854839 L26.9872581,36.0223387 C26.7424194,35.5335484 26.6129032,34.9853226 26.6129032,34.4362097 L26.6129032,32.8225806 C26.6129032,31.9390323 26.1755645,31.1610484 25.5120161,30.6766935 L26.6829839,30.7937903 C28.0083065,30.9259677 29.1925806,31.6383065 29.9324194,32.7462903 L37.2580645,43.7365323 L37.2580645,46.1290323 L39.0322581,46.1290323 L39.0322581,37.2580645 L42.5806452,37.2580645 L42.5806452,45.641129 C42.5806452,47.8668548 40.7700806,49.6774194 38.5443548,49.6774194 Z M42.5806452,31.9354839 L42.5806452,35.483871 L38.5124194,35.483871 L37.6253226,34.5967742 C37.3884677,34.3590323 37.2580645,34.045 37.2580645,33.7096774 C37.2580645,33.22 37.6554839,32.8225806 38.1451613,32.8225806 L39.0322581,32.8225806 L39.0322581,31.9354839 C39.0322581,30.9570161 39.8279839,30.1612903 40.8064516,30.1612903 C41.7849194,30.1612903 42.5806452,30.9570161 42.5806452,31.9354839 Z M53.2258065,28.3870968 L49.6774194,28.3870968 L49.6774194,31.726129 C49.6774194,31.9221774 49.3669355,31.9940323 49.2808871,31.8192742 L47.5643548,28.3870968 L37.2580645,28.3870968 L37.2580645,18.7248387 C37.3325806,18.6272581 37.4106452,18.5332258 37.4674194,18.4205645 L38.6933871,15.9677419 L44.3548387,15.9677419 L44.3548387,17.7419355 L40.8064516,17.7419355 L40.8064516,19.516129 L42.5806452,19.516129 L42.5806452,20.6622581 C42.5806452,22.0887097 43.065,23.4229032 43.9077419,24.493629 C43.8305645,24.5379839 43.7587097,24.5885484 43.6779839,24.6293548 L41.2970161,25.8198387 L42.0909677,27.4068548 L44.4719355,26.216371 C44.7425,26.0806452 44.9997581,25.9271774 45.2428226,25.758629 C45.4858871,25.9271774 45.7431452,26.0815323 46.0137097,26.216371 L48.3946774,27.4068548 L49.188629,25.8198387 L46.8076613,24.6293548 C46.7269355,24.5894355 46.6550806,24.5379839 46.5779032,24.493629 C47.418871,23.4229032 47.9032258,22.0887097 47.9032258,20.6622581 L47.9032258,19.516129 L49.6774194,19.516129 L49.6774194,17.7419355 L46.1290323,17.7419355 L46.1290323,15.9677419 L47.9032258,15.9677419 C48.8816935,15.9677419 49.6774194,15.1720161 49.6774194,14.1935484 L53.2258065,14.1935484 L53.2258065,28.3870968 Z M45.2419355,23.3146774 C44.6795161,22.5641935 44.3548387,21.6442742 44.3548387,20.6622581 L44.3548387,19.516129 L46.1290323,19.516129 L46.1290323,20.6622581 C46.1290323,21.6442742 45.8043548,22.5641935 45.2419355,23.3146774 L45.2419355,23.3146774 Z" id="Shape"></path>
                    <path d="M39.0322581,10.6451613 L40.8064516,10.6451613 L40.8064516,12.4193548 L42.5806452,12.4193548 L42.5806452,6.20967742 C42.5806452,4.74241935 41.3866129,3.5483871 39.9193548,3.5483871 C38.4520968,3.5483871 37.2580645,4.74241935 37.2580645,6.20967742 L37.2580645,12.4193548 L39.0322581,12.4193548 L39.0322581,10.6451613 Z M39.9193548,5.32258065 C40.4090323,5.32258065 40.8064516,5.7208871 40.8064516,6.20967742 L40.8064516,8.87096774 L39.0322581,8.87096774 L39.0322581,6.20967742 C39.0322581,5.7208871 39.4296774,5.32258065 39.9193548,5.32258065 Z" id="Shape"></path>
                    <path d="M22.1774194,18.6290323 C23.6446774,18.6290323 24.8387097,17.435 24.8387097,15.9677419 L23.0645161,15.9677419 C23.0645161,16.4565323 22.6670968,16.8548387 22.1774194,16.8548387 C21.6877419,16.8548387 21.2903226,16.4565323 21.2903226,15.9677419 L19.516129,15.9677419 C19.516129,17.435 20.7101613,18.6290323 22.1774194,18.6290323 Z" id="Path"></path>
                </g>
            </g>
        </g>
    </g>
</svg>