<?xml version="1.0" encoding="UTF-8"?>
<svg width="55px" height="55px" viewBox="0 0 55 55" version="1.1" xmlns="http://www.w3.org/2000/svg" xmlns:xlink="http://www.w3.org/1999/xlink">
    <title>learning@2x</title>
    <g id="Web-Dev-Service" stroke="none" stroke-width="1" fill="none" fill-rule="evenodd">
        <g id="Web-Dev-Service_Desktop-1280x850-Rev" transform="translate(-182.000000, -2813.000000)" fill-rule="nonzero">
            <g id="learning" transform="translate(182.000000, 2813.000000)">
                <polygon id="Path" fill="#FBC935" points="45.2419355 20.4032258 38.1451613 20.4032258 38.1451613 5.32258065 45.2419355 5.32258065"></polygon>
                <circle id="Oval" fill="#FBC935" cx="27.5" cy="29.2741935" r="7.98387097"></circle>
                <polygon id="Path" fill="#FBC935" points="12.4193548 4.43548387 12.4193548 7.98387097 12.4193548 15.0806452 15.9677419 15.0806452 15.9677419 7.98387097 21.2903226 7.98387097 21.2903226 4.43548387"></polygon>
                <polygon id="Path" fill="#FBC935" points="40.8064516 29.2741935 46.1290323 29.2741935 46.1290323 39.9193548 40.8064516 39.9193548"></polygon>
                <polygon id="Path" fill="#FBC935" points="8.87096774 22.1774194 14.1935484 22.1774194 14.1935484 39.9193548 8.87096774 39.9193548"></polygon>
                <g id="Group" fill="#000000">
                    <path d="M52.3387097,46.1290323 L52.3156452,46.1290323 C52.8789516,45.3856452 53.2258065,44.4701613 53.2258065,43.4677419 L53.2258065,15.0806452 C53.2258065,12.6349194 51.2360484,10.6451613 48.7903226,10.6451613 L46.1290323,10.6451613 L46.1290323,4.43548387 C46.1290323,1.98975806 44.1392742,0 41.6935484,0 C39.2478226,0 37.2580645,1.98975806 37.2580645,4.43548387 L37.2580645,10.6451613 L24.8387097,10.6451613 L24.8387097,0 L8.87096774,0 L8.87096774,10.6451613 L6.20967742,10.6451613 C3.76395161,10.6451613 1.77419355,12.6349194 1.77419355,15.0806452 L1.77419355,43.4677419 C1.77419355,44.4701613 2.12104839,45.3856452 2.68435484,46.1290323 L2.66129032,46.1290323 C1.19403226,46.1290323 0,47.3230645 0,48.7903226 C0,52.2145161 2.78548387,55 6.20967742,55 L48.7903226,55 C52.2145161,55 55,52.2145161 55,48.7903226 C55,47.3230645 53.8059677,46.1290323 52.3387097,46.1290323 Z M39.0322581,4.43548387 C39.0322581,2.96822581 40.2262903,1.77419355 41.6935484,1.77419355 C43.1608065,1.77419355 44.3548387,2.96822581 44.3548387,4.43548387 L44.3548387,20.193871 L42.1841129,24.5362097 C41.9969355,24.9096774 41.3901613,24.9096774 41.203871,24.5362097 L39.0322581,20.193871 L39.0322581,4.43548387 Z M39.6159677,25.3283871 C40.0116129,26.1205645 40.8073387,26.6129032 41.6935484,26.6129032 C42.5797581,26.6129032 43.3754839,26.1205645 43.771129,25.3292742 L46.1290323,20.6125806 L46.1290323,15.9677419 L47.9032258,15.9677419 L47.9032258,42.5806452 L7.09677419,42.5806452 L7.09677419,15.9677419 L8.87096774,15.9677419 L8.87096774,19.516129 L18.9962903,19.516129 L22.5446774,15.9677419 L37.2580645,15.9677419 L37.2580645,20.6125806 L39.6159677,25.3283871 Z M19.516129,16.4875806 L19.516129,14.1935484 L21.8101613,14.1935484 L19.516129,16.4875806 Z M37.2580645,12.4193548 L37.2580645,14.1935484 L24.318871,14.1935484 L24.8387097,13.6737097 L24.8387097,12.4193548 L37.2580645,12.4193548 Z M10.6451613,1.77419355 L23.0645161,1.77419355 L23.0645161,12.4193548 L17.7419355,12.4193548 L17.7419355,17.7419355 L10.6451613,17.7419355 L10.6451613,1.77419355 Z M3.5483871,43.4677419 L3.5483871,15.0806452 C3.5483871,13.6133871 4.74241935,12.4193548 6.20967742,12.4193548 L8.87096774,12.4193548 L8.87096774,14.1935484 L7.09677419,14.1935484 C6.11830645,14.1935484 5.32258065,14.9892742 5.32258065,15.9677419 L5.32258065,42.5806452 C5.32258065,43.5591129 6.11830645,44.3548387 7.09677419,44.3548387 L47.9032258,44.3548387 C48.8816935,44.3548387 49.6774194,43.5591129 49.6774194,42.5806452 L49.6774194,15.9677419 C49.6774194,14.9892742 48.8816935,14.1935484 47.9032258,14.1935484 L46.1290323,14.1935484 L46.1290323,12.4193548 L48.7903226,12.4193548 C50.2575806,12.4193548 51.4516129,13.6133871 51.4516129,15.0806452 L51.4516129,43.4677419 C51.4516129,44.935 50.2575806,46.1290323 48.7903226,46.1290323 L6.20967742,46.1290323 C4.74241935,46.1290323 3.5483871,44.935 3.5483871,43.4677419 Z M22.1774194,47.9032258 L32.8225806,47.9032258 L32.8225806,48.7903226 C32.8225806,49.2791129 32.4242742,49.6774194 31.9354839,49.6774194 L23.0645161,49.6774194 C22.5757258,49.6774194 22.1774194,49.2791129 22.1774194,48.7903226 L22.1774194,47.9032258 Z M48.7903226,53.2258065 L6.20967742,53.2258065 C3.76395161,53.2258065 1.77419355,51.2360484 1.77419355,48.7903226 C1.77419355,48.3015323 2.1725,47.9032258 2.66129032,47.9032258 L6.20967742,47.9032258 L20.4032258,47.9032258 L20.4032258,48.7903226 C20.4032258,50.2575806 21.5972581,51.4516129 23.0645161,51.4516129 L31.9354839,51.4516129 C33.4027419,51.4516129 34.5967742,50.2575806 34.5967742,48.7903226 L34.5967742,47.9032258 L48.7903226,47.9032258 L52.3387097,47.9032258 C52.8275,47.9032258 53.2258065,48.3015323 53.2258065,48.7903226 C53.2258065,51.2360484 51.2360484,53.2258065 48.7903226,53.2258065 Z" id="Shape"></path>
                    <polygon id="Path" points="47.9032258 49.6774194 49.6774194 49.6774194 49.6774194 51.4516129 47.9032258 51.4516129"></polygon>
                    <polygon id="Path" points="44.3548387 49.6774194 46.1290323 49.6774194 46.1290323 51.4516129 44.3548387 51.4516129"></polygon>
                    <polygon id="Path" points="40.8064516 49.6774194 42.5806452 49.6774194 42.5806452 51.4516129 40.8064516 51.4516129"></polygon>
                    <polygon id="Path" points="40.8064516 5.32258065 42.5806452 5.32258065 42.5806452 20.4032258 40.8064516 20.4032258"></polygon>
                    <path d="M27.5,17.7419355 C21.1412903,17.7419355 15.9677419,22.9154839 15.9677419,29.2741935 C15.9677419,35.6329032 21.1412903,40.8064516 27.5,40.8064516 C33.8587097,40.8064516 39.0322581,35.6329032 39.0322581,29.2741935 C39.0322581,22.9154839 33.8587097,17.7419355 27.5,17.7419355 Z M27.5,39.0322581 C26.546371,39.0322581 25.5306452,37.6776613 24.8307258,35.483871 L30.1692742,35.483871 C29.4693548,37.6776613 28.453629,39.0322581 27.5,39.0322581 Z M24.3783065,33.7096774 C24.1618548,32.6371774 24.016371,31.4449194 23.9702419,30.1612903 L31.0297581,30.1612903 C30.983629,31.4449194 30.8372581,32.6371774 30.6216935,33.7096774 L24.3783065,33.7096774 Z M17.7871774,30.1612903 L22.1969355,30.1612903 C22.2377419,31.4200806 22.3601613,32.6123387 22.5597581,33.7096774 L18.818871,33.7096774 C18.2635484,32.6265323 17.9016129,31.4298387 17.7871774,30.1612903 Z M27.5,19.516129 C28.453629,19.516129 29.4693548,20.8707258 30.1692742,23.0645161 L24.8307258,23.0645161 C25.5306452,20.8707258 26.546371,19.516129 27.5,19.516129 Z M30.6216935,24.8387097 C30.8381452,25.9112097 30.983629,27.1034677 31.0297581,28.3870968 L23.9702419,28.3870968 C24.016371,27.1034677 24.1627419,25.9112097 24.3783065,24.8387097 L30.6216935,24.8387097 Z M22.1969355,28.3870968 L17.7871774,28.3870968 C17.9025,27.1185484 18.2635484,25.9218548 18.8197581,24.8387097 L22.5606452,24.8387097 C22.3601613,25.9360484 22.2368548,27.1283065 22.1969355,28.3870968 Z M32.8030645,30.1612903 L37.2128226,30.1612903 C37.0975,31.4298387 36.7364516,32.6265323 36.1802419,33.7096774 L32.4393548,33.7096774 C32.6398387,32.6123387 32.7631452,31.4200806 32.8030645,30.1612903 Z M32.8030645,28.3870968 C32.7622581,27.1283065 32.6398387,25.9360484 32.4402419,24.8387097 L36.181129,24.8387097 C36.7364516,25.9218548 37.0983871,27.1185484 37.2137097,28.3870968 L32.8030645,28.3870968 Z M35.0216935,23.0645161 L32.028629,23.0645161 C31.7021774,21.9157258 31.2852419,20.9159677 30.7946774,20.1007258 C32.4570968,20.6995161 33.9154839,21.7276613 35.0216935,23.0645161 Z M24.2053226,20.1007258 C23.7147581,20.9159677 23.2978226,21.9157258 22.971371,23.0645161 L19.9783065,23.0645161 C21.0845161,21.7276613 22.5429032,20.6995161 24.2053226,20.1007258 L24.2053226,20.1007258 Z M19.9783065,35.483871 L22.971371,35.483871 C23.2978226,36.6326613 23.7147581,37.6324194 24.2053226,38.4476613 C22.5429032,37.848871 21.0845161,36.8207258 19.9783065,35.483871 Z M30.7946774,38.4476613 C31.2852419,37.6324194 31.7021774,36.6326613 32.028629,35.483871 L35.0216935,35.483871 C33.9154839,36.8207258 32.4570968,37.848871 30.7946774,38.4476613 Z" id="Shape"></path>
                    <polygon id="Path" points="12.4193548 14.1935484 15.9677419 14.1935484 15.9677419 15.9677419 12.4193548 15.9677419"></polygon>
                    <polygon id="Path" points="12.4193548 10.6451613 15.9677419 10.6451613 15.9677419 12.4193548 12.4193548 12.4193548"></polygon>
                    <polygon id="Path" points="12.4193548 7.09677419 21.2903226 7.09677419 21.2903226 8.87096774 12.4193548 8.87096774"></polygon>
                    <polygon id="Path" points="12.4193548 3.5483871 21.2903226 3.5483871 21.2903226 5.32258065 12.4193548 5.32258065"></polygon>
                    <polygon id="Path" points="40.8064516 28.3870968 46.1290323 28.3870968 46.1290323 30.1612903 40.8064516 30.1612903"></polygon>
                    <polygon id="Path" points="40.8064516 31.9354839 46.1290323 31.9354839 46.1290323 33.7096774 40.8064516 33.7096774"></polygon>
                    <polygon id="Path" points="40.8064516 35.483871 46.1290323 35.483871 46.1290323 37.2580645 40.8064516 37.2580645"></polygon>
                    <polygon id="Path" points="40.8064516 39.0322581 46.1290323 39.0322581 46.1290323 40.8064516 40.8064516 40.8064516"></polygon>
                    <polygon id="Path" points="8.87096774 28.3870968 14.1935484 28.3870968 14.1935484 30.1612903 8.87096774 30.1612903"></polygon>
                    <polygon id="Path" points="8.87096774 24.8387097 14.1935484 24.8387097 14.1935484 26.6129032 8.87096774 26.6129032"></polygon>
                    <polygon id="Path" points="8.87096774 21.2903226 14.1935484 21.2903226 14.1935484 23.0645161 8.87096774 23.0645161"></polygon>
                    <polygon id="Path" points="8.87096774 31.9354839 14.1935484 31.9354839 14.1935484 33.7096774 8.87096774 33.7096774"></polygon>
                    <polygon id="Path" points="8.87096774 35.483871 14.1935484 35.483871 14.1935484 37.2580645 8.87096774 37.2580645"></polygon>
                    <polygon id="Path" points="8.87096774 39.0322581 14.1935484 39.0322581 14.1935484 40.8064516 8.87096774 40.8064516"></polygon>
                </g>
            </g>
        </g>
    </g>
</svg>