<?xml version="1.0" encoding="UTF-8"?>
<svg width="55px" height="55px" viewBox="0 0 55 55" version="1.1" xmlns="http://www.w3.org/2000/svg" xmlns:xlink="http://www.w3.org/1999/xlink">
    <title>search SEO@2x</title>
    <g id="Web-Dev-Service" stroke="none" stroke-width="1" fill="none" fill-rule="evenodd">
        <g id="Web-Dev-Service_Desktop-1280x850-Rev" transform="translate(-869.000000, -2576.000000)" fill-rule="nonzero">
            <g id="search-SEO" transform="translate(869.000000, 2576.000000)">
                <g id="Group">
                    <path d="M32.3176179,43.6724566 C20.274938,43.6724566 10.4813896,33.8789082 10.4813896,21.8362283 C10.4813896,9.79354839 20.274938,0 32.3176179,0 C44.3602978,0 54.1538462,9.79354839 54.1538462,21.8362283 C54.1538462,33.8789082 44.3602978,43.6724566 32.3176179,43.6724566 Z M32.3176179,6.11414392 C23.6486352,6.11414392 16.5955335,13.1672457 16.5955335,21.8362283 C16.5955335,30.5052109 23.6486352,37.5583127 32.3176179,37.5583127 C40.9866005,37.5583127 48.0397022,30.5052109 48.0397022,21.8362283 C48.0397022,13.1672457 40.9866005,6.11414392 32.3176179,6.11414392 Z" id="Shape" fill="#FBC935"></path>
                    <g transform="translate(0.000000, 5.240695)" fill="#000000" id="Shape">
                        <path d="M32.3176179,0 C23.1682382,0 15.7220844,7.44615385 15.7220844,16.5955335 C15.7220844,25.7449132 23.1682382,33.191067 32.3176179,33.191067 C41.4669975,33.191067 48.9131514,25.7449132 48.9131514,16.5955335 C48.9131514,7.44615385 41.4669975,0 32.3176179,0 Z M32.3176179,31.4441687 C24.1290323,31.4441687 17.4689826,24.7841191 17.4689826,16.5955335 C17.4689826,8.40694789 24.1290323,1.74689826 32.3176179,1.74689826 C40.5062035,1.74689826 47.1662531,8.40694789 47.1662531,16.5955335 C47.1662531,24.7841191 40.5062035,31.4441687 32.3176179,31.4441687 Z"></path>
                        <path d="M18.1895782,36.3245658 L19.9364764,34.5776675 C19.4560794,34.239206 18.9756824,33.8898263 18.5280397,33.5186104 L16.9558313,35.0908189 L13.8223325,31.9573201 L15.3945409,30.3851117 C15.0233251,29.9265509 14.6739454,29.457072 14.3354839,28.9766749 L12.5885856,30.7235732 L10.5905707,28.7146402 C9.59702233,27.7210918 7.8719603,27.7210918 6.88933002,28.7146402 C6.39801489,29.2059553 6.12506203,29.8719603 6.12506203,30.5707196 C6.12506203,31.2694789 6.39801489,31.9245658 6.88933002,32.426799 L7.57717122,33.1146402 L1.70322581,38.9885856 C0.600496278,40.0913151 0,41.5434243 0,43.0937965 C0,46.3037221 2.60942928,48.9131514 5.81935484,48.9131514 C7.36972705,48.9131514 8.83275434,48.3126551 9.93548387,47.2099256 L15.8094293,41.3359801 L16.4972705,42.0238213 C16.9885856,42.5151365 17.6545906,42.7880893 18.3533499,42.7880893 C19.0521092,42.7880893 19.707196,42.5151365 20.2094293,42.0238213 C20.7007444,41.5325062 20.9736973,40.8665012 20.9736973,40.1677419 C20.9736973,39.4689826 20.7007444,38.8138958 20.2094293,38.3116625 L18.1895782,36.3245658 Z M8.69081886,45.9761787 C7.92655087,46.7404467 6.90024814,47.1662531 5.81935484,47.1662531 C3.57022333,47.1662531 1.74689826,45.342928 1.74689826,43.0937965 C1.74689826,42.0019851 2.17270471,40.9866005 2.9369727,40.2223325 L8.81091811,34.3483871 L14.5647643,40.1022333 L8.69081886,45.9761787 Z M18.9647643,40.8009926 C18.6263027,41.1394541 18.0694789,41.1394541 17.7310174,40.8009926 L8.12307692,31.1930521 C7.95930521,31.0292804 7.8719603,30.8109181 7.8719603,30.5707196 C7.8719603,30.3305211 7.95930521,30.1230769 8.12307692,29.9483871 C8.28684864,29.7846154 8.50521092,29.6972705 8.74540943,29.6972705 C8.98560794,29.6972705 9.19305211,29.7846154 9.36774194,29.9483871 L18.9756824,39.5563275 C19.1394541,39.7200993 19.226799,39.9384615 19.226799,40.17866 C19.226799,40.4188586 19.128536,40.6263027 18.9647643,40.8009926 Z"></path>
                    </g>
                </g>
                <g id="Group" transform="translate(23.801489, 16.049628)" fill="#000000">
                    <path d="M1.61588089,8.36327543 L1.61588089,9.05111663 C1.61588089,10.0009926 1.92158809,10.525062 2.65310174,10.525062 C3.3955335,10.525062 3.64665012,9.89181141 3.64665012,8.93101737 C3.64665012,7.6426799 3.36277916,7.20595533 2.13995037,6.24516129 C0.906203474,5.27344913 0.262034739,4.66203474 0.262034739,2.96972705 C0.262034739,1.47394541 0.709677419,3.09995085e-15 2.67493797,0.0108578311 C4.6292804,0.0108578311 5.01141439,1.37568238 5.01141439,2.70769231 L5.01141439,3.28635236 L3.48287841,3.28635236 L3.48287841,2.75136476 C3.48287841,1.88883375 3.33002481,1.34292804 2.65310174,1.34292804 C1.98709677,1.34292804 1.81240695,1.92158809 1.81240695,2.75136476 C1.81240695,3.66848635 1.98709677,4.07245658 3.02431762,4.83672457 C4.69478908,6.08138958 5.20794045,6.791067 5.20794045,8.71265509 C5.20794045,10.3394541 4.68387097,11.857072 2.62034739,11.857072 C0.600496278,11.857072 0.0873449132,10.5578164 0.0873449132,9.04019851 L0.0873449132,8.36327543 L1.61588089,8.36327543 L1.61588089,8.36327543 Z" id="Path"></path>
                    <polygon id="Path" points="10.4377171 6.29975186 7.88287841 6.29975186 7.88287841 10.2739454 10.808933 10.2739454 10.6124069 11.6933002 6.34342432 11.6933002 6.34342432 0.18560794 10.5796526 0.18560794 10.5796526 1.61588089 7.88287841 1.61588089 7.88287841 4.88039702 10.4377171 4.88039702 10.4377171 6.29975186"></polygon>
                    <path d="M16.9558313,3.14441687 L16.9558313,8.70173697 C16.9558313,10.8307692 16.0605459,11.857072 14.2153846,11.857072 C12.3811414,11.857072 11.6168734,10.7543424 11.6168734,8.7235732 L11.6168734,3.13349876 C11.6168734,1.03722084 12.6322581,0.0218362283 14.3136476,0.0218362283 C16.0387097,0.0218362283 16.9558313,1.09181141 16.9558313,3.14441687 Z M13.1890819,3.0133995 L13.1890819,8.8764268 C13.1890819,9.97915633 13.582134,10.4486352 14.2808933,10.4486352 C15.0233251,10.4486352 15.3836228,10.0009926 15.3836228,8.83275434 L15.3836228,3.00248139 C15.3836228,1.95434243 15.0451613,1.41935484 14.2808933,1.41935484 C13.5602978,1.43027295 13.1890819,1.92158809 13.1890819,3.0133995 Z" id="Shape"></path>
                </g>
            </g>
        </g>
    </g>
</svg>