<?xml version="1.0" encoding="UTF-8"?>
<svg width="80px" height="80px" viewBox="0 0 80 80" version="1.1" xmlns="http://www.w3.org/2000/svg" xmlns:xlink="http://www.w3.org/1999/xlink">
    <!-- Generator: Sketch 52.1 (67048) - http://www.bohemiancoding.com/sketch -->
    <title>mainframe</title>
    <desc>Created with Sketch.</desc>
    <g id="DevOps" stroke="none" stroke-width="1" fill="none" fill-rule="evenodd">
        <g id="Desktop-HD-JP" transform="translate(-992.000000, -630.000000)" fill-rule="nonzero">
            <g id="Group-11" transform="translate(972.000000, 618.000000)">
                <g id="mainframe" transform="translate(20.000000, 12.000000)">
                    <g id="Group" transform="translate(10.322581, 0.000000)" fill="#FBB03B">
                        <polygon id="Path" points="12.9032258 33.5483871 0 33.5483871 0 25.8064516 12.9032258 25.8064516"></polygon>
                        <polygon id="Path" points="12.9032258 64.516129 0 64.516129 0 56.7741935 12.9032258 56.7741935"></polygon>
                        <polygon id="Path" points="30.9677419 49.0322581 18.0645161 49.0322581 18.0645161 41.2903226 30.9677419 41.2903226"></polygon>
                        <path d="M66.5548387,17.3845161 C66.083871,15.4309677 65.3148387,13.5767742 64.2619355,11.8541935 L65.7354839,8.90709677 L60.7703226,3.94193548 L57.8245161,5.41677419 C56.1032258,4.36258065 54.2490323,3.59354839 52.2941935,3.12387097 L51.2529032,1.71905501e-15 L44.2322581,1.71905501e-15 L43.1909677,3.12258065 C41.236129,3.59225806 39.3819355,4.36129032 37.6606452,5.41548387 L34.7148387,3.94064516 L29.7496774,8.90580645 L31.2258065,11.8567742 C30.9058065,12.3909677 30.5935484,12.9793548 30.2812903,13.636129 L30.0503226,14.12 L30.0748387,14.1935484 L34.8387097,14.1935484 C35.6335484,14.1935484 36.3780645,14.3883871 37.0516129,14.7096774 C39.3703226,11.283871 43.2929032,9.03225806 47.7419355,9.03225806 C54.8683871,9.03225806 60.6451613,14.8090323 60.6451613,21.9354839 C60.6451613,29.0619355 54.8683871,34.8387097 47.7419355,34.8387097 C44.8335484,34.8387097 42.1587097,33.8645161 40,32.24 L40,39.6283871 C41.0580645,40.0954839 42.1251613,40.483871 43.1909677,40.7445161 L44.2309677,43.8709677 L51.2516129,43.8709677 L52.2929032,40.7483871 C54.2477419,40.2787097 56.1019355,39.5096774 57.8232258,38.4554839 L60.7690323,39.9303226 L65.7341935,34.9651613 L64.2606452,32.0180645 C65.3135484,30.2967742 66.0825806,28.4425806 66.5535484,26.4890323 L69.6774194,25.4464516 L69.6774194,18.4258065 L66.5548387,17.3845161 Z" id="Path"></path>
                    </g>
                    <polygon id="Path" fill="#000000" points="38.7096774 25.8064516 41.2903226 25.8064516 41.2903226 28.3870968 38.7096774 28.3870968"></polygon>
                    <polygon id="Path" fill="#000000" points="38.7096774 30.9677419 41.2903226 30.9677419 41.2903226 33.5483871 38.7096774 33.5483871"></polygon>
                    <polygon id="Path" fill="#000000" points="33.5483871 30.9677419 36.1290323 30.9677419 36.1290323 33.5483871 33.5483871 33.5483871"></polygon>
                    <polygon id="Path" fill="#000000" points="33.5483871 25.8064516 36.1290323 25.8064516 36.1290323 28.3870968 33.5483871 28.3870968"></polygon>
                    <polygon id="Path" fill="#000000" points="38.7096774 56.7741935 41.2903226 56.7741935 41.2903226 59.3548387 38.7096774 59.3548387"></polygon>
                    <polygon id="Path" fill="#000000" points="38.7096774 61.9354839 41.2903226 61.9354839 41.2903226 64.516129 38.7096774 64.516129"></polygon>
                    <polygon id="Path" fill="#000000" points="33.5483871 61.9354839 36.1290323 61.9354839 36.1290323 64.516129 33.5483871 64.516129"></polygon>
                    <polygon id="Path" fill="#000000" points="33.5483871 56.7741935 36.1290323 56.7741935 36.1290323 59.3548387 33.5483871 59.3548387"></polygon>
                    <polygon id="Path" fill="#000000" points="10.3225806 41.2903226 12.9032258 41.2903226 12.9032258 43.8709677 10.3225806 43.8709677"></polygon>
                    <polygon id="Path" fill="#000000" points="10.3225806 46.4516129 12.9032258 46.4516129 12.9032258 49.0322581 10.3225806 49.0322581"></polygon>
                    <polygon id="Path" fill="#000000" points="15.483871 46.4516129 18.0645161 46.4516129 18.0645161 49.0322581 15.483871 49.0322581"></polygon>
                    <polygon id="Path" fill="#000000" points="15.483871 41.2903226 18.0645161 41.2903226 18.0645161 43.8709677 15.483871 43.8709677"></polygon>
                    <polygon id="Path" fill="#000000" points="5.16129032 72.2580645 7.74193548 72.2580645 7.74193548 74.8387097 5.16129032 74.8387097"></polygon>
                    <polygon id="Path" fill="#000000" points="10.3225806 72.2580645 12.9032258 72.2580645 12.9032258 74.8387097 10.3225806 74.8387097"></polygon>
                    <polygon id="Path" fill="#000000" points="15.483871 72.2580645 18.0645161 72.2580645 18.0645161 74.8387097 15.483871 74.8387097"></polygon>
                    <path d="M58.0645161,7.74193548 C53.6916129,7.74193548 49.6103226,9.76903226 46.9264516,13.1793548 C46.3625806,13.0180645 45.7780645,12.9032258 45.1612903,12.9032258 L6.4516129,12.9032258 C2.89419355,12.9032258 0,15.7974194 0,19.3548387 L0,73.5483871 C0,77.1058065 2.89419355,80 6.4516129,80 L45.1612903,80 C48.7187097,80 51.6129032,77.1058065 51.6129032,73.5483871 L51.6129032,34.5651613 C53.6025806,35.5909677 55.7935484,36.1290323 58.0645161,36.1290323 C65.8903226,36.1290323 72.2580645,29.7612903 72.2580645,21.9354839 C72.2580645,14.1096774 65.8903226,7.74193548 58.0645161,7.74193548 Z M7.74193548,54.1935484 L43.8709677,54.1935484 L43.8709677,67.0967742 L7.74193548,67.0967742 L7.74193548,54.1935484 Z M43.8709677,51.6129032 L7.74193548,51.6129032 L7.74193548,38.7096774 L43.8709677,38.7096774 L43.8709677,51.6129032 Z M43.8709677,36.1290323 L7.74193548,36.1290323 L7.74193548,23.2258065 L43.8709677,23.2258065 L43.8709677,36.1290323 Z M43.8709677,20.6451613 L7.74193548,20.6451613 L7.74193548,15.483871 L43.8709677,15.483871 L43.8709677,20.6451613 Z M49.0322581,73.5483871 C49.0322581,75.6825806 47.2954839,77.4193548 45.1612903,77.4193548 L6.4516129,77.4193548 C4.31741935,77.4193548 2.58064516,75.6825806 2.58064516,73.5483871 L2.58064516,19.3548387 C2.58064516,17.6748387 3.66322581,16.2554839 5.16129032,15.7212903 L5.16129032,67.0967742 C5.16129032,68.52 6.31870968,69.6774194 7.74193548,69.6774194 L43.8709677,69.6774194 C45.2941935,69.6774194 46.4516129,68.52 46.4516129,67.0967742 L46.4516129,15.7212903 C47.9496774,16.2554839 49.0322581,17.6748387 49.0322581,19.3548387 L49.0322581,73.5483871 Z M58.0645161,33.5483871 C55.7483871,33.5483871 53.5329032,32.8593548 51.6129032,31.5651613 L51.6129032,28.243871 C53.2541935,29.9225806 55.5380645,30.9677419 58.0645161,30.9677419 C63.043871,30.9677419 67.0967742,26.916129 67.0967742,21.9354839 C67.0967742,16.9548387 63.043871,12.9032258 58.0645161,12.9032258 C55.1432258,12.9032258 52.5483871,14.3032258 50.8967742,16.4619355 C50.4903226,15.6606452 49.9277419,14.963871 49.24,14.3974194 C51.436129,11.8283871 54.6451613,10.3225806 58.0645161,10.3225806 C64.4683871,10.3225806 69.6774194,15.5329032 69.6774194,21.9354839 C69.6774194,28.3380645 64.4683871,33.5483871 58.0645161,33.5483871 Z M58.0645161,15.483871 C61.6219355,15.483871 64.516129,18.3780645 64.516129,21.9354839 C64.516129,25.4929032 61.6219355,28.3870968 58.0645161,28.3870968 C54.5070968,28.3870968 51.6129032,25.4929032 51.6129032,21.9354839 C51.6129032,18.3780645 54.5070968,15.483871 58.0645161,15.483871 Z" id="Shape" fill="#000000"></path>
                </g>
            </g>
        </g>
    </g>
</svg>