<?xml version="1.0" encoding="UTF-8"?>
<svg width="80px" height="75px" viewBox="0 0 80 75" version="1.1" xmlns="http://www.w3.org/2000/svg" xmlns:xlink="http://www.w3.org/1999/xlink">
    <!-- Generator: Sketch 52.1 (67048) - http://www.bohemiancoding.com/sketch -->
    <title>Group 7</title>
    <desc>Created with Sketch.</desc>
    <g id="DevOps" stroke="none" stroke-width="1" fill="none" fill-rule="evenodd">
        <g id="Desktop-HD-JP" transform="translate(-612.000000, -639.000000)">
            <g id="Group-11" transform="translate(592.000000, 618.000000)">
                <g id="Group-7" transform="translate(20.000000, 21.000000)">
                    <g id="computer-(1)" fill="#000000" fill-rule="nonzero">
                        <path d="M74.140625,0.078125 L5.859375,0.078125 C2.6284375,0.078125 0,2.7065625 0,5.9375 L0,57.5 C0,60.7309375 2.6284375,63.359375 5.859375,63.359375 L30.8682812,63.359375 L29.4578125,68.2959375 C28.8914062,70.2784375 26.6710937,71.953125 24.609375,71.953125 L15.78125,71.953125 C15.1340625,71.953125 14.609375,72.4776563 14.609375,73.125 C14.609375,73.7723437 15.1340625,74.296875 15.78125,74.296875 L64.21875,74.296875 C64.8659375,74.296875 65.390625,73.7723437 65.390625,73.125 C65.390625,72.4776563 64.8659375,71.953125 64.21875,71.953125 L55.390625,71.953125 C53.3289063,71.953125 51.1085938,70.2782813 50.5421875,68.2959375 L49.1317188,63.359375 L74.140625,63.359375 C77.3715625,63.359375 80,60.7309375 80,57.5 L80,5.9375 C80,2.7065625 77.3715625,0.078125 74.140625,0.078125 Z M5.859375,2.421875 L74.140625,2.421875 C76.0792187,2.421875 77.65625,3.9990625 77.65625,5.9375 L77.65625,46.953125 L2.34375,46.953125 L2.34375,5.9375 C2.34375,3.9990625 3.92078125,2.421875 5.859375,2.421875 Z M48.2885938,68.9398437 C48.6101562,70.065625 49.249375,71.0998437 50.0873438,71.953125 L29.9126562,71.953125 C30.750625,71.0998437 31.3898437,70.0654687 31.7114062,68.9398437 L33.3057813,63.359375 L46.6940625,63.359375 L48.2885938,68.9398437 Z M74.140625,61.015625 L5.859375,61.015625 C3.92078125,61.015625 2.34375,59.4384375 2.34375,57.5 L2.34375,49.296875 L77.65625,49.296875 L77.65625,57.5 C77.65625,59.4384375 76.0792187,61.015625 74.140625,61.015625 Z" id="Shape"></path>
                        <path d="M5.859375,44.609375 L74.140625,44.609375 C74.7878125,44.609375 75.3125,44.0848437 75.3125,43.4375 L75.3125,5.9375 C75.3125,5.29015625 74.7878125,4.765625 74.140625,4.765625 L5.859375,4.765625 C5.2121875,4.765625 4.6875,5.29015625 4.6875,5.9375 L4.6875,22.34375 C4.6875,22.9910938 5.2121875,23.515625 5.859375,23.515625 C6.5065625,23.515625 7.03125,22.9910938 7.03125,22.34375 L7.03125,7.109375 L72.96875,7.109375 L72.96875,42.265625 L7.03125,42.265625 L7.03125,27.03125 C7.03125,26.3839063 6.5065625,25.859375 5.859375,25.859375 C5.2121875,25.859375 4.6875,26.3839063 4.6875,27.03125 L4.6875,43.4375 C4.6875,44.0848437 5.2121875,44.609375 5.859375,44.609375 Z" id="Path"></path>
                        <path d="M40,51.640625 C38.0614062,51.640625 36.484375,53.2178125 36.484375,55.15625 C36.484375,57.0946875 38.0614062,58.671875 40,58.671875 C41.9385938,58.671875 43.515625,57.0946875 43.515625,55.15625 C43.515625,53.2178125 41.9385937,51.640625 40,51.640625 Z M40,56.328125 C39.35375,56.328125 38.828125,55.8025 38.828125,55.15625 C38.828125,54.51 39.35375,53.984375 40,53.984375 C40.64625,53.984375 41.171875,54.51 41.171875,55.15625 C41.171875,55.8025 40.64625,56.328125 40,56.328125 Z" id="Shape"></path>
                    </g>
                    <g id="cloud-coding" transform="translate(20.000000, 12.000000)" fill="#FBB03B" fill-rule="nonzero">
                        <path d="M35.714375,11.5564062 C35.5826562,7.75726562 32.4510156,4.7071875 28.6203906,4.7071875 C28.3111719,4.7071875 28.0024219,4.7275 27.6960156,4.7678125 C26.2517187,1.8890625 23.2752344,0.0159375 20,0.0159375 C16.7247656,0.0159375 13.7482813,1.8890625 12.3039844,4.7678125 C11.9975781,4.72742188 11.6888281,4.7071875 11.3796094,4.7071875 C7.54898438,4.7071875 4.41726563,7.75726562 4.285625,11.5564063 C1.72101563,12.5992969 0,15.1025781 0,17.9375781 C0,21.736875 3.0909375,24.8278125 6.8903125,24.8278125 L33.1096875,24.8278125 C36.9089844,24.8278125 40,21.736875 40,17.9375781 C40,15.1025781 38.2789844,12.5992969 35.714375,11.5564062 Z M23.5136719,11.7167969 L25.3089844,10.2101562 L29.4614063,15.1585156 L25.3089844,20.106875 L23.5136719,18.6002344 L26.401875,15.1585156 L23.5136719,11.7167969 Z M16.4863281,18.6001562 L14.6910156,20.1067969 L10.5385938,15.1584375 L14.6910156,10.2100781 L16.4863281,11.7167187 L13.598125,15.1584375 L16.4863281,18.6001562 Z M18.828125,10.2371875 L21.171875,10.2371875 L21.171875,20.0796875 L18.828125,20.0796875 L18.828125,10.2371875 Z" id="Shape"></path>
                    </g>
                    <polygon id="Path" fill="#000000" points="43.5136719 23.7167969 45.3089844 22.2101562 49.4614062 27.1585156 45.3089844 32.106875 43.5136719 30.6002344 46.401875 27.1585156"></polygon>
                    <polygon id="Path" fill="#000000" points="36.4863281 30.6001562 34.6910156 32.1067969 30.5385938 27.1584375 34.6910156 22.2100781 36.4863281 23.7167187 33.598125 27.1584375"></polygon>
                    <polygon id="Path" fill="#000000" points="38.828125 22.2371875 41.171875 22.2371875 41.171875 32.0796875 38.828125 32.0796875"></polygon>
                </g>
            </g>
        </g>
    </g>
</svg>