<?xml version="1.0" encoding="UTF-8"?>
<svg width="80px" height="71px" viewBox="0 0 80 71" version="1.1" xmlns="http://www.w3.org/2000/svg" xmlns:xlink="http://www.w3.org/1999/xlink">
    <!-- Generator: Sketch 52.1 (67048) - http://www.bohemiancoding.com/sketch -->
    <title>Group 2</title>
    <desc>Created with Sketch.</desc>
    <g id="DevOps" stroke="none" stroke-width="1" fill="none" fill-rule="evenodd">
        <g id="Desktop-HD-JP" transform="translate(-232.000000, -639.000000)">
            <g id="Group-11" transform="translate(212.000000, 618.000000)">
                <g id="Group-2" transform="translate(20.000000, 21.000000)">
                    <g id="invoice-(1)" fill="#000000" fill-rule="nonzero">
                        <path d="M79.9998438,63.1359375 C79.9990625,63.0839062 79.9948438,63.0314062 79.9870313,62.9798437 C79.9714063,62.8765625 79.9439062,62.7810937 79.9023438,62.6857812 C79.8795313,62.6334375 79.8529688,62.5826562 79.8228125,62.5342187 C79.8203125,62.5301562 73.7010937,52.7182812 73.7010937,52.7182812 L73.7010937,13.8692187 C73.7010937,11.504375 71.7771875,9.58046875 69.4123438,9.58046875 L62.21875,9.58046875 L62.21875,6.543125 C62.21875,6.1828125 62.0607812,5.85328125 61.7775,5.6278125 C61.7721875,5.62359375 55.0485938,0.27296875 55.0485938,0.27296875 C54.848125,0.1134375 54.5765625,0.01859375 54.3201563,0.01859375 C54.3053125,0.01859375 18.95125,0.01859375 18.95125,0.01859375 C18.3053125,0.01859375 17.7815625,0.54234375 17.7815625,1.18828125 L17.7815625,9.580625 L10.5878125,9.580625 C8.22296875,9.580625 6.2990625,11.5045312 6.2990625,13.869375 L6.2990625,52.7184375 C6.2990625,52.7184375 0.19484375,62.5064062 0.17734375,62.534375 C0.10859375,62.6446875 0.04234375,62.816875 0.01859375,62.9521875 C0.006875,63.018125 8.8817842e-15,63.0860937 8.8817842e-15,63.1532812 L8.8817842e-15,66.6139062 C8.8817842e-15,68.643125 1.6509375,70.2940625 3.68015625,70.2940625 L20.9929688,70.2940625 C21.6389063,70.2940625 22.1626563,69.7703125 22.1626563,69.124375 C22.1626563,68.4784375 21.6389063,67.9546875 20.9929688,67.9546875 L3.68015625,67.9546875 C2.94078125,67.9546875 2.339375,67.353125 2.339375,66.6139062 L2.339375,64.3229687 L77.660625,64.3229687 L77.660625,66.6139062 C77.660625,67.3532812 77.0590625,67.9546875 76.3198438,67.9546875 L26.4951563,67.9546875 C25.8492188,67.9546875 25.3254688,68.4784375 25.3254688,69.124375 C25.3254688,69.7703125 25.8492188,70.2940625 26.4951563,70.2940625 L76.3198438,70.2940625 C78.3490625,70.2940625 80,68.643125 80,66.6139062 C80,66.6139062 80,63.1545312 80,63.1532812 C80,63.1475 80,63.1417187 79.9998438,63.1359375 Z M62.2185938,11.9196875 L69.4121875,11.9196875 C70.4871875,11.9196875 71.3615625,12.7942187 71.3615625,13.8690625 L71.3615625,51.8832812 L68.4859375,51.8832812 L68.4859375,16.8085937 C68.4859375,15.6764062 67.5648438,14.7554687 66.4328125,14.7554687 L62.2185938,14.7554687 L62.2185938,11.9196875 Z M55.4896875,3.61390625 L57.7007813,5.3734375 L55.4896875,5.3734375 L55.4896875,3.61390625 Z M20.1207812,2.3578125 L53.1503125,2.3578125 L53.1503125,5.915 C53.1503125,6.90625 53.956875,7.7128125 54.948125,7.7128125 L59.8792187,7.7128125 L59.8792187,32.0775 C59.8792187,32.7234375 60.4029687,33.2471875 61.0489063,33.2471875 C61.6948438,33.2471875 62.2185938,32.7234375 62.2185938,32.0775 L62.2185938,17.0948437 L66.1465625,17.0948437 L66.1465625,51.8834375 L62.2185938,51.8834375 L62.2185938,37.5510937 C62.2185938,36.9051562 61.6948438,36.3814062 61.0489063,36.3814062 C60.4029687,36.3814062 59.8792187,36.9051562 59.8792187,37.5510937 L59.8792187,51.8834375 L20.1207812,51.8834375 L20.1207812,2.3578125 Z M8.63828125,13.8692187 C8.63828125,12.7942187 9.5128125,11.9198437 10.5876563,11.9198437 L17.78125,11.9198437 L17.78125,14.755625 L13.5671875,14.755625 C12.435,14.755625 11.5140625,15.6767187 11.5140625,16.80875 L11.5140625,51.8834375 L8.63828125,51.8834375 L8.63828125,13.8692187 Z M17.7814062,17.0948437 L17.7814062,51.8834375 L13.8534375,51.8834375 L13.8534375,17.0948437 L17.7814062,17.0948437 Z M31.0235938,61.9835937 L31.9064063,59.2728125 L48.0935938,59.2728125 L48.9764063,61.9835937 L31.0235938,61.9835937 Z M51.4365625,61.9835937 L50.2960938,58.4817187 C49.9945313,57.5557812 49.1376563,56.9335937 48.16375,56.9335937 L31.8360938,56.9335937 C30.8621875,56.9335937 30.0053125,57.5557812 29.70375,58.4817187 L28.5632813,61.9835937 L3.27765625,61.9835937 L8.11765625,54.2228125 L71.8823438,54.2228125 L76.7223438,61.9835937 L51.4365625,61.9835937 Z" id="Shape"></path>
                        <path d="M23.0976563,30.77875 L37.895625,30.77875 C38.5415625,30.77875 39.0653125,30.255 39.0653125,29.6090625 C39.0653125,28.963125 38.5415625,28.439375 37.895625,28.439375 L23.0976563,28.439375 C22.4517188,28.439375 21.9279688,28.963125 21.9279688,29.6090625 C21.9279688,30.255 22.4517188,30.77875 23.0976563,30.77875 Z" id="Path"></path>
                        <path d="M56.9095313,32.8128125 L23.0976563,32.8128125 C22.4517188,32.8128125 21.9279688,33.3365625 21.9279688,33.9825 C21.9279688,34.6284375 22.4517188,35.1521875 23.0976563,35.1521875 L56.9095313,35.1521875 C57.5554688,35.1521875 58.0792188,34.6284375 58.0792188,33.9825 C58.0792188,33.3365625 57.5554688,32.8128125 56.9095313,32.8128125 Z" id="Path"></path>
                        <path d="M56.9095312,37.4794792 L23.0976562,37.4794792 C22.4517187,37.4794792 21.9279687,38.0032292 21.9279687,38.6491667 C21.9279687,39.2951042 22.4517187,39.8188542 23.0976562,39.8188542 L56.9095312,39.8188542 C57.5554687,39.8188542 58.0792187,39.2951042 58.0792187,38.6491667 C58.0792187,38.0032292 57.5554687,37.4794792 56.9095312,37.4794792 Z" id="Path"></path>
                        <path d="M56.9095312,42.1461458 L23.0976562,42.1461458 C22.4517187,42.1461458 21.9279687,42.6698958 21.9279687,43.3158333 C21.9279687,43.9617708 22.4517187,44.4855208 23.0976562,44.4855208 L56.9095312,44.4855208 C57.5554687,44.4855208 58.0792187,43.9617708 58.0792187,43.3158333 C58.0792187,42.6698958 57.5554687,42.1461458 56.9095312,42.1461458 Z" id="Path"></path>
                        <path d="M56.9095312,46.8128125 L23.0976562,46.8128125 C22.4517187,46.8128125 21.9279687,47.3365625 21.9279687,47.9825 C21.9279687,48.6284375 22.4517187,49.1521875 23.0976562,49.1521875 L56.9095312,49.1521875 C57.5554687,49.1521875 58.0792187,48.6284375 58.0792187,47.9825 C58.0792187,47.3365625 57.5554687,46.8128125 56.9095312,46.8128125 Z" id="Path"></path>
                    </g>
                    <g id="money" transform="translate(30.000000, 8.000000)" fill="#FBB03B" fill-rule="nonzero">
                        <path d="M14.7559766,8.36191406 C16.7073828,8.36191406 18.4565234,9.24328125 19.6271875,10.6285156 C19.8712109,10.0512891 20,9.42648438 20,8.788125 C20,6.18222656 17.88,4.0621875 15.2741016,4.0621875 L14.9321484,4.0621875 L14.9321484,3.79238281 C14.9321484,1.71078125 13.2385937,0.017265625 11.1569922,0.017265625 C9.07539062,0.017265625 7.38183594,1.71078125 7.38183594,3.79238281 L7.38183594,3.813125 C7.13671875,3.76597656 6.88667969,3.74222656 6.633125,3.74222656 C4.45449219,3.74222656 2.68210937,5.51464844 2.68210937,7.69324219 C2.68210937,7.80417969 2.68683594,7.915 2.69617187,8.02546875 C1.20507812,8.05136719 -2.22044605e-15,9.27238281 -2.22044605e-15,10.7695703 C-2.22044605e-15,12.2828516 1.23117187,13.5140234 2.74445312,13.5140234 L8.49765625,13.5140234 C9.07042969,10.5817969 11.6586328,8.36191406 14.7559766,8.36191406 Z" id="Path"></path>
                        <path d="M14.7559766,9.49472656 C11.8644141,9.49472656 9.51199219,11.8471875 9.51199219,14.73875 C9.51199219,17.6303125 11.8644141,19.9827344 14.7559766,19.9827344 C17.6475391,19.9827344 20,17.6303125 20,14.73875 C20,11.8471875 17.6475391,9.49472656 14.7559766,9.49472656 Z M15.2239844,16.7752344 L15.2239844,17.4048828 L14.4241016,17.4048828 L14.4241016,16.8035938 C13.8568359,16.7695703 13.3066406,16.6164063 12.96625,16.4065234 L13.3973438,15.4308203 C13.7717578,15.6520703 14.2709375,15.7938672 14.7077344,15.7938672 C15.0878125,15.7938672 15.2239453,15.7144531 15.2239453,15.5783203 C15.2239453,15.0791016 13.0286328,15.481875 13.0286328,14.0013281 C13.0286328,13.3603125 13.4937891,12.8214063 14.4241016,12.6909375 L14.4241016,12.0726172 L15.2239844,12.0726172 L15.2239844,12.6796094 C15.6437109,12.7192969 16.0521875,12.8270703 16.3755078,13.0086328 L15.9727344,13.9786328 C15.5813281,13.7800781 15.2126172,13.6836328 14.8666016,13.6836328 C14.4751953,13.6836328 14.3503906,13.7971094 14.3503906,13.9332422 C14.3503906,14.4097266 16.5457031,14.0126563 16.5457031,15.4761719 C16.5457031,16.0888281 16.1032031,16.6220313 15.2239844,16.7752344 Z" id="Shape"></path>
                    </g>
                    <path d="M44.7559766,16.3619141 C46.7073828,16.3619141 48.4565234,17.2432813 49.6271875,18.6285156 C49.8712109,18.0512891 50,17.4264844 50,16.788125 C50,14.1822266 47.88,12.0621875 45.2741016,12.0621875 L44.9321484,12.0621875 L44.9321484,11.7923828 C44.9321484,9.71078125 43.2385937,8.01726563 41.1569922,8.01726563 C39.0753906,8.01726563 37.3818359,9.71078125 37.3818359,11.7923828 L37.3818359,11.813125 C37.1367188,11.7659766 36.8866797,11.7422266 36.633125,11.7422266 C34.4544922,11.7422266 32.6821094,13.5146484 32.6821094,15.6932422 C32.6821094,15.8041797 32.6868359,15.915 32.6961719,16.0254688 C31.2050781,16.0513672 30,17.2723828 30,18.7695703 C30,20.2828516 31.2311719,21.5140234 32.7444531,21.5140234 L38.4976562,21.5140234 C39.0704297,18.5817969 41.6586328,16.3619141 44.7559766,16.3619141 Z" id="Path" stroke="#000000" fill-rule="nonzero"></path>
                    <path d="M45.2239844,24.7752344 L45.2239844,25.4048828 L44.4241016,25.4048828 L44.4241016,24.8035938 C43.8568359,24.7695703 43.3066406,24.6164063 42.96625,24.4065234 L43.3973437,23.4308203 C43.7717578,23.6520703 44.2709375,23.7938672 44.7077344,23.7938672 C45.0878125,23.7938672 45.2239453,23.7144531 45.2239453,23.5783203 C45.2239453,23.0791016 43.0286328,23.481875 43.0286328,22.0013281 C43.0286328,21.3603125 43.4937891,20.8214063 44.4241016,20.6909375 L44.4241016,20.0726172 L45.2239844,20.0726172 L45.2239844,20.6796094 C45.6437109,20.7192969 46.0521875,20.8270703 46.3755078,21.0086328 L45.9727344,21.9786328 C45.5813281,21.7800781 45.2126172,21.6836328 44.8666016,21.6836328 C44.4751953,21.6836328 44.3503906,21.7971094 44.3503906,21.9332422 C44.3503906,22.4097266 46.5457031,22.0126563 46.5457031,23.4761719 C46.5457031,24.0888281 46.1032031,24.6220313 45.2239844,24.7752344 Z" id="Path" fill="#000000"></path>
                    <path d="M44.7559766,17.4947266 C41.8644141,17.4947266 39.5119922,19.8471875 39.5119922,22.73875 C39.5119922,25.6303125 41.8644141,27.9827344 44.7559766,27.9827344 C47.6475391,27.9827344 50,25.6303125 50,22.73875 C50,19.8471875 47.6475391,17.4947266 44.7559766,17.4947266 Z" id="Path" stroke="#000000"></path>
                </g>
            </g>
        </g>
    </g>
</svg>