<?xml version="1.0" encoding="UTF-8"?>
<svg width="60px" height="60px" viewBox="0 0 60 60" version="1.1" xmlns="http://www.w3.org/2000/svg" xmlns:xlink="http://www.w3.org/1999/xlink">
    <title>E99A3DDF-95C2-41CB-A696-7A06AE435F5F@2.00x</title>
    <g id="homepage" stroke="none" stroke-width="1" fill="none" fill-rule="evenodd">
        <g id="Homepage" transform="translate(-825.000000, -712.000000)" fill-rule="nonzero">
            <g id="Group-13" transform="translate(805.000000, 692.000000)">
                <g id="programming" transform="translate(20.000000, 20.000000)">
                    <g id="Group" transform="translate(3.870968, 11.612903)" fill="#FBB03B">
                        <path d="M28.0645161,32.9022581 L28.0645161,31.9354839 C28.0645161,29.7977419 29.7977419,28.0645161 31.9354839,28.0645161 L32.9032258,28.0645161 C32.9032258,27.5632258 32.8722581,27.0706452 32.8287097,26.5809677 C32.2625806,25.5909677 31.9354839,24.4470968 31.9354839,23.2258065 C31.9354839,23.0254839 31.9480645,22.8270968 31.9654839,22.6306452 C29.7193548,16.2193548 23.6303226,11.6129032 16.4516129,11.6129032 C7.36548387,11.6129032 0,18.9783871 0,28.0645161 C0,37.1506452 7.36548387,44.516129 16.4516129,44.516129 C18.5235484,44.516129 20.4977419,44.1164516 22.323871,43.4177419 C22.6470968,39.1229032 24.8148387,35.3429032 28.0645161,32.9022581 Z" id="Path"></path>
                        <polygon id="Path" points="42.5806452 0 52.2580645 0 52.2580645 16.4516129 46.4516129 16.4516129 46.4516129 12.5806452 42.5806452 12.5806452"></polygon>
                        <path d="M38.7096774,36.7741935 C37.1090323,36.7741935 35.8064516,35.4716129 35.8064516,33.8709677 C35.8064516,32.2703226 37.1090323,30.9677419 38.7096774,30.9677419 C40.3103226,30.9677419 41.6129032,32.2703226 41.6129032,33.8709677 C41.6129032,35.4716129 40.3103226,36.7741935 38.7096774,36.7741935 Z" id="Path"></path>
                    </g>
                    <path d="M60,0 L17.4193548,0 L17.4193548,19.5870968 C7.58709677,21.0029032 0,29.46 0,39.6774194 C0,50.8829032 9.11612903,60 20.3225806,60 C22.4341935,60 24.5041935,59.6622581 26.4929032,59.0274194 C27.1751613,59.6254839 28.0567742,60 29.0322581,60 L33.8709677,60 L51.2903226,60 L56.1290323,60 C58.263871,60 60,58.263871 60,56.1290323 C60,51.3832258 57.8796774,47.0245161 54.1935484,44.0670968 L54.1935484,43.5483871 C54.1935484,40.8803226 52.0229032,38.7096774 49.3548387,38.7096774 L49.2793548,38.7096774 C49.9548387,37.5445161 50.3225806,36.2206452 50.3225806,34.8387097 C50.3225806,34.1690323 50.2287097,33.5235484 50.0680645,32.9032258 L60,32.9032258 L60,0 Z M58.0645161,1.93548387 L58.0645161,7.74193548 L19.3548387,7.74193548 L19.3548387,1.93548387 L58.0645161,1.93548387 Z M30.9677419,43.5483871 L30.9677419,44.0680645 C30.783871,44.2151613 30.6058065,44.3680645 30.4296774,44.5219355 C30.7016129,43.2880645 30.8845161,41.9951613 30.9435484,40.6451613 L31.9606452,40.6451613 C31.346129,41.456129 30.9677419,42.4548387 30.9677419,43.5483871 Z M25.3770968,57.3474194 C24.5932258,57.5709677 23.7967742,57.7412903 22.9887097,57.8593548 C23.6506452,57.1722581 24.4170968,56.3119355 25.2096774,55.2919355 C25.1941935,55.5716129 25.1612903,55.8464516 25.1612903,56.1290323 C25.1612903,56.5577419 25.2474194,56.9622581 25.3770968,57.3474194 L25.3770968,57.3474194 Z M1.98483871,40.6451613 L9.7016129,40.6451613 C9.82548387,43.4903226 10.4883871,46.0858065 11.4174194,48.3870968 L4.13516129,48.3870968 C2.87903226,46.0616129 2.13096774,43.4322581 1.98483871,40.6451613 Z M20.3235484,21.6116129 C21.4741935,22.6645161 24.0725806,25.2696774 26.1425806,29.0322581 L14.5093548,29.0322581 C16.5783871,25.2745161 19.173871,22.6664516 20.3235484,21.6116129 L20.3235484,21.6116129 Z M27.0929032,30.9677419 C28.1090323,33.2458065 28.8416129,35.85 28.9829032,38.7096774 L11.6622581,38.7096774 C11.8045161,35.8529032 12.5390323,33.2477419 13.5570968,30.9677419 L27.0929032,30.9677419 Z M9.7016129,38.7096774 L1.98483871,38.7096774 C2.13096774,35.9225806 2.87903226,33.2932258 4.13516129,30.9677419 L11.4174194,30.9677419 C10.4883871,33.2690323 9.82548387,35.8645161 9.7016129,38.7096774 Z M11.6622581,40.6451613 L28.9829032,40.6451613 C28.8406452,43.5019355 28.106129,46.1070968 27.0880645,48.3870968 L13.5522581,48.3870968 C12.5370968,46.1090323 11.8035484,43.5048387 11.6622581,40.6451613 Z M26.1358065,50.3225806 C24.0667742,54.0803226 21.4712903,56.6883871 20.3216129,57.7432258 C19.1709677,56.6903226 16.5725806,54.0851613 14.5025806,50.3225806 L26.1358065,50.3225806 Z M30.9435484,38.7096774 C30.8196774,35.8645161 30.1567742,33.2690323 29.2277419,30.9677419 L35.8867742,30.9677419 C35.223871,32.1077419 34.8387097,33.4277419 34.8387097,34.8387097 C34.8387097,36.2235484 35.2054839,37.5454839 35.8809677,38.7096774 L35.8064516,38.7096774 L30.9435484,38.7096774 Z M28.3567742,29.0322581 C26.6806452,25.6809677 24.5370968,23.1029032 22.98,21.4877419 C27.9396774,22.2106452 32.3941935,24.9329032 35.3080645,29.0322581 L28.3567742,29.0322581 Z M17.6448387,21.5080645 C16.0896774,23.1251613 13.9567742,25.6954839 12.2883871,29.0322581 L5.3583871,29.0322581 C8.20258065,25.046129 12.5893548,22.2503226 17.6448387,21.5080645 Z M5.3583871,50.3225806 L12.2883871,50.3225806 C13.9567742,53.6593548 16.0896774,56.2306452 17.6448387,57.8467742 C12.5893548,57.1045161 8.20258065,54.3087097 5.3583871,50.3225806 Z M27.0967742,56.1290323 C27.0967742,52.5280645 28.496129,49.1845161 30.9677419,46.6693548 L30.9677419,54.1935484 L29.0322581,54.1935484 L29.0322581,55.1612903 C29.0322581,56.2548387 29.4106452,57.2535484 30.0251613,58.0645161 L29.0322581,58.0645161 C27.9648387,58.0645161 27.0967742,57.1964516 27.0967742,56.1290323 L27.0967742,56.1290323 Z M33.8709677,58.0645161 C32.6090323,58.0645161 31.5329032,57.2554839 31.1332258,56.1290323 L54.0270968,56.1290323 C53.6274194,57.2554839 52.5512903,58.0645161 51.2893548,58.0645161 L33.8709677,58.0645161 Z M58.0645161,56.1290323 C58.0645161,57.1964516 57.1964516,58.0645161 56.1290323,58.0645161 L55.136129,58.0645161 C55.7506452,57.2535484 56.1290323,56.2548387 56.1290323,55.1612903 L56.1290323,54.1935484 L54.1935484,54.1935484 L54.1935484,46.6693548 C56.6651613,49.1835484 58.0645161,52.5280645 58.0645161,56.1290323 Z M52.2580645,43.5483871 L52.2580645,54.1935484 L32.9032258,54.1935484 L32.9032258,43.5483871 C32.9032258,41.9477419 34.2058065,40.6451613 35.8064516,40.6451613 L39.6774194,40.6451613 L49.3548387,40.6451613 C50.9554839,40.6451613 52.2580645,41.9477419 52.2580645,43.5483871 Z M39.6774194,38.7096774 L38.2616129,38.7096774 C37.3035484,37.6432258 36.7741935,36.2854839 36.7741935,34.8387097 C36.7741935,31.6364516 39.3783871,29.0322581 42.5806452,29.0322581 C45.7829032,29.0322581 48.3870968,31.6364516 48.3870968,34.8387097 C48.3870968,36.2816129 47.8577419,37.6422581 46.8996774,38.7096774 L39.6774194,38.7096774 Z M49.2754839,30.9677419 C47.9341935,28.6577419 45.4393548,27.0967742 42.5806452,27.0967742 C40.6732258,27.0967742 38.9264516,27.7935484 37.5754839,28.9422581 C33.8758065,23.0012903 27.3745161,19.3548387 20.3225806,19.3548387 C19.9954839,19.3548387 19.6780645,19.3887097 19.3548387,19.4041935 L19.3548387,9.67741935 L58.0645161,9.67741935 L58.0645161,30.9677419 L49.2754839,30.9677419 Z" id="Shape" fill="#000000"></path>
                    <polygon id="Path" fill="#000000" points="21.2903226 3.87096774 23.2258065 3.87096774 23.2258065 5.80645161 21.2903226 5.80645161"></polygon>
                    <polygon id="Path" fill="#000000" points="25.1612903 3.87096774 27.0967742 3.87096774 27.0967742 5.80645161 25.1612903 5.80645161"></polygon>
                    <polygon id="Path" fill="#000000" points="29.0322581 3.87096774 30.9677419 3.87096774 30.9677419 5.80645161 29.0322581 5.80645161"></polygon>
                    <path d="M21.2903226,17.4193548 L38.7096774,17.4193548 L38.7096774,11.6129032 L21.2903226,11.6129032 L21.2903226,17.4193548 Z M23.2258065,13.5483871 L36.7741935,13.5483871 L36.7741935,15.483871 L23.2258065,15.483871 L23.2258065,13.5483871 Z" id="Shape" fill="#000000"></path>
                    <polygon id="Path" fill="#000000" points="54.1935484 11.6129032 56.1290323 11.6129032 56.1290323 13.5483871 54.1935484 13.5483871"></polygon>
                    <polygon id="Path" fill="#000000" points="50.3225806 11.6129032 52.2580645 11.6129032 52.2580645 13.5483871 50.3225806 13.5483871"></polygon>
                    <polygon id="Path" fill="#000000" points="46.4516129 11.6129032 48.3870968 11.6129032 48.3870968 13.5483871 46.4516129 13.5483871"></polygon>
                    <polygon id="Path" fill="#000000" points="46.4516129 15.483871 56.1290323 15.483871 56.1290323 17.4193548 46.4516129 17.4193548"></polygon>
                    <polygon id="Path" fill="#000000" points="46.4516129 19.3548387 56.1290323 19.3548387 56.1290323 21.2903226 46.4516129 21.2903226"></polygon>
                    <polygon id="Path" fill="#000000" points="46.4516129 23.2258065 56.1290323 23.2258065 56.1290323 25.1612903 46.4516129 25.1612903"></polygon>
                    <polygon id="Path" fill="#000000" points="50.3225806 27.0967742 56.1290323 27.0967742 56.1290323 29.0322581 50.3225806 29.0322581"></polygon>
                    <polygon id="Path" fill="#000000" points="13.5483871 42.5806452 15.483871 42.5806452 15.483871 44.516129 13.5483871 44.516129"></polygon>
                    <polygon id="Path" fill="#000000" points="17.4193548 42.5806452 19.3548387 42.5806452 19.3548387 44.516129 17.4193548 44.516129"></polygon>
                    <polygon id="Path" fill="#000000" points="21.2903226 42.5806452 23.2258065 42.5806452 23.2258065 44.516129 21.2903226 44.516129"></polygon>
                    <polygon id="Path" fill="#000000" points="25.1612903 34.8387097 27.0967742 34.8387097 27.0967742 36.7741935 25.1612903 36.7741935"></polygon>
                    <polygon id="Path" fill="#000000" points="21.2903226 34.8387097 23.2258065 34.8387097 23.2258065 36.7741935 21.2903226 36.7741935"></polygon>
                    <polygon id="Path" fill="#000000" points="17.4193548 34.8387097 19.3548387 34.8387097 19.3548387 36.7741935 17.4193548 36.7741935"></polygon>
                </g>
            </g>
        </g>
    </g>
</svg>