<?xml version="1.0" encoding="UTF-8"?>
<svg width="52px" height="45px" viewBox="0 0 52 45" version="1.1" xmlns="http://www.w3.org/2000/svg" xmlns:xlink="http://www.w3.org/1999/xlink">
    <title>responsive@2x</title>
    <g id="Web-Dev-Service" stroke="none" stroke-width="1" fill="none" fill-rule="evenodd">
        <g id="Web-Dev-Service_Desktop-1280x850-Rev" transform="translate(-870.000000, -3058.000000)" fill-rule="nonzero">
            <g id="responsive" transform="translate(870.000000, 3058.000000)">
                <path d="M41.6574519,24.6634615 C41.8088942,24.4038462 42.0901442,24.2307692 42.4038462,24.2307692 L45.3245192,24.2307692 L45.3245192,4.97596154 C45.3245192,4.02403846 44.5456731,3.24519231 43.59375,3.24519231 L8.32932692,3.24519231 C7.37740385,3.24519231 6.59855769,4.02403846 6.59855769,4.97596154 L6.59855769,19.0384615 L18.1730769,19.0384615 C18.6490385,19.0384615 19.0384615,19.4278846 19.0384615,19.9038462 L19.0384615,24.6634615 L41.6574519,24.6634615 Z" id="Path" fill="#FBC935"></path>
                <path d="M49.3269231,22.5 L48.4615385,22.5 L48.4615385,4.32692308 C48.4615385,1.93629808 46.5252404,0 44.1346154,0 L7.78846154,0 C5.39783654,0 3.46153846,1.93629808 3.46153846,4.32692308 L3.46153846,17.3076923 L2.59615385,17.3076923 C1.15745192,17.3076923 0,18.4651442 0,19.9038462 L0,42.4038462 C0,43.8425481 1.15745192,45 2.59615385,45 L35.4807692,45 C35.9567308,45 36.3461538,44.6105769 36.3461538,44.1346154 C36.3461538,41.7439904 34.4098558,39.8076923 32.0192308,39.8076923 L29.4230769,39.8076923 L29.4230769,34.6153846 L39.8076923,34.6153846 L39.8076923,42.4038462 C39.8076923,43.8425481 40.9651442,45 42.4038462,45 L49.3269231,45 C50.765625,45 51.9230769,43.8425481 51.9230769,42.4038462 L51.9230769,25.0961538 C51.9230769,23.6574519 50.765625,22.5 49.3269231,22.5 Z M19.0384615,42.4038462 C19.0384615,42.8798077 18.6490385,43.2692308 18.1730769,43.2692308 L2.59615385,43.2692308 C2.12019231,43.2692308 1.73076923,42.8798077 1.73076923,42.4038462 L1.73076923,41.5384615 L19.0384615,41.5384615 L19.0384615,42.4038462 Z M19.0384615,39.8076923 L1.73076923,39.8076923 L1.73076923,19.9038462 C1.73076923,19.4278846 2.12019231,19.0384615 2.59615385,19.0384615 L18.1730769,19.0384615 C18.6490385,19.0384615 19.0384615,19.4278846 19.0384615,19.9038462 L19.0384615,39.8076923 Z M32.0192308,41.5384615 C33.1225962,41.5384615 34.0961538,42.2307692 34.4639423,43.2692308 L20.6069712,43.2692308 C20.7043269,42.9879808 20.7584135,42.6959135 20.7692308,42.4038462 L20.7692308,41.5384615 L32.0192308,41.5384615 Z M20.7692308,39.8076923 L20.7692308,34.6153846 L22.5,34.6153846 L22.5,39.8076923 L20.7692308,39.8076923 Z M24.2307692,39.8076923 L24.2307692,34.6153846 L27.6923077,34.6153846 L27.6923077,39.8076923 L24.2307692,39.8076923 Z M39.8076923,32.8846154 L20.7692308,32.8846154 L20.7692308,27.6923077 L39.8076923,27.6923077 L39.8076923,32.8846154 Z M39.8076923,25.0961538 L39.8076923,25.9615385 L20.7692308,25.9615385 L20.7692308,19.9038462 C20.7692308,19.4927885 20.6610577,19.0925481 20.4771635,18.7247596 C20.4879808,18.7139423 20.5096154,18.7139423 20.5204327,18.6923077 L29.0877404,10.125 C29.4230769,9.77884615 29.4122596,9.23798077 29.0661058,8.90264423 C28.7307692,8.578125 28.2007212,8.578125 27.8653846,8.90264423 L19.2980769,17.4699519 C19.2764423,17.4915865 19.265625,17.5240385 19.2548077,17.5456731 C18.9194712,17.3942308 18.5516827,17.3076923 18.1838942,17.3076923 L5.19230769,17.3076923 L5.19230769,4.32692308 C5.19230769,2.88822115 6.34975962,1.73076923 7.78846154,1.73076923 L44.1346154,1.73076923 C45.5733173,1.73076923 46.7307692,2.88822115 46.7307692,4.32692308 L46.7307692,22.5 L42.4038462,22.5 C40.9651442,22.5 39.8076923,23.6574519 39.8076923,25.0961538 Z M50.1923077,42.4038462 C50.1923077,42.8798077 49.8028846,43.2692308 49.3269231,43.2692308 L42.4038462,43.2692308 C41.9278846,43.2692308 41.5384615,42.8798077 41.5384615,42.4038462 L41.5384615,41.5384615 L50.1923077,41.5384615 L50.1923077,42.4038462 Z M50.1923077,39.8076923 L41.5384615,39.8076923 L41.5384615,25.0961538 C41.5384615,24.6201923 41.9278846,24.2307692 42.4038462,24.2307692 L49.3269231,24.2307692 C49.8028846,24.2307692 50.1923077,24.6201923 50.1923077,25.0961538 L50.1923077,39.8076923 Z" id="Shape" fill="#000000"></path>
                <path d="M10.3413462,27.84375 C10.0060096,27.5084135 9.45432692,27.5084135 9.11899038,27.84375 L5.45192308,31.5108173 C5.10576923,31.8461538 5.09495192,32.3870192 5.43028846,32.7331731 C5.765625,33.0793269 6.30649038,33.0901442 6.65264423,32.7548077 C6.66346154,32.7439904 6.66346154,32.7439904 6.67427885,32.7331731 L10.3413462,29.0661058 C10.4927885,28.7956731 10.1899038,28.2872596 10.3413462,27.84375 Z" id="Path" fill="#000000"></path>
                <path d="M15.5120192,27.84375 C15.1766827,27.5192308 14.6466346,27.5192308 14.3112981,27.84375 L10.6442308,31.5108173 C10.2980769,31.8461538 10.2872596,32.3870192 10.6225962,32.7331731 C10.9579327,33.0793269 11.4987981,33.0901442 11.8449519,32.7548077 C11.8557692,32.7439904 11.8557692,32.7439904 11.8665865,32.7331731 L15.5336538,29.0661058 C15.8689904,28.7199519 15.8581731,28.1682692 15.5120192,27.84375 Z" id="Path" fill="#000000"></path>
                <path d="M34.3449519,8.90264423 C34.0096154,8.578125 33.4795673,8.578125 33.1442308,8.90264423 L24.5769231,17.4699519 C24.2307692,17.8052885 24.2199519,18.3461538 24.5552885,18.6923077 C24.890625,19.0384615 25.4314904,19.0492788 25.7776442,18.7139423 C25.7884615,18.703125 25.7884615,18.703125 25.7992788,18.6923077 L34.3665865,10.125 C34.6911058,9.78966346 34.6802885,9.23798077 34.3449519,8.90264423 Z" id="Path" fill="#000000"></path>
                <path d="M47.6826923,30.1802885 C47.3473558,29.8557692 46.8173077,29.8557692 46.4819712,30.1802885 L44.0264423,32.6358173 C43.6802885,32.9711538 43.6694712,33.5120192 44.0048077,33.8581731 C44.3401442,34.2043269 44.8810096,34.2151442 45.2271635,33.8798077 C45.2379808,33.8689904 45.2379808,33.8689904 45.2487981,33.8581731 L47.6935096,31.4134615 C48.0288462,31.0673077 48.0288462,30.515625 47.6826923,30.1802885 Z" id="Path" fill="#000000"></path>
                <path d="M25.9831731,29.4230769 L25.9831731,29.4230769 C25.4963942,29.4230769 25.1069712,29.8125 25.1177885,30.2884615 C25.1286058,30.7644231 25.5072115,31.1538462 25.9831731,31.1538462 C26.4591346,31.1538462 26.8485577,30.7644231 26.8485577,30.2884615 C26.8485577,29.8125 26.4591346,29.4230769 25.9831731,29.4230769 Z" id="Path" fill="#000000"></path>
            </g>
        </g>
    </g>
</svg>