<?xml version="1.0" encoding="UTF-8"?>
<svg width="55px" height="55px" viewBox="0 0 55 55" version="1.1" xmlns="http://www.w3.org/2000/svg" xmlns:xlink="http://www.w3.org/1999/xlink">
    <title>web-development@2x</title>
    <g id="Web-Dev-Service" stroke="none" stroke-width="1" fill="none" fill-rule="evenodd">
        <g id="Web-Dev-Service_Desktop-1280x850-Rev" transform="translate(-527.000000, -2575.000000)" fill-rule="nonzero">
            <g id="web-development" transform="translate(527.000000, 2575.000000)">
                <polygon id="Path" fill="#FBC935" points="21.2903226 33.7096774 7.09677419 33.7096774 7.09677419 23.0645161 21.2903226 23.0645161"></polygon>
                <polygon id="Path" fill="#FBC935" points="35.483871 31.0483871 23.0645161 31.0483871 23.0645161 23.0645161 35.483871 23.0645161"></polygon>
                <g id="Group" fill="#000000">
                    <polygon id="Path" points="40.8064516 39.0322581 42.5806452 39.0322581 42.5806452 40.8064516 40.8064516 40.8064516"></polygon>
                    <polygon id="Path" points="33.7096774 39.0322581 35.483871 39.0322581 35.483871 40.8064516 33.7096774 40.8064516"></polygon>
                    <polygon id="Path" points="37.2580645 39.0322581 39.0322581 39.0322581 39.0322581 40.8064516 37.2580645 40.8064516"></polygon>
                    <path d="M51.4649194,3.22282258 C49.1859677,1.02903226 46.1884677,-0.113548387 43.0179839,0.00887096774 C37.8639516,0.205806452 33.4639516,3.99548387 32.2654839,8.87096774 L4.43548387,8.87096774 C1.98975806,8.87096774 0,10.8607258 0,13.3064516 L0,39.9193548 C0,42.3650806 1.98975806,44.3548387 4.43548387,44.3548387 L15.0478226,44.3548387 C14.8987903,45.7697581 14.1633871,47.0525 13.0110484,47.9032258 L10.6451613,47.9032258 C9.17790323,47.9032258 7.98387097,49.0972581 7.98387097,50.5645161 L7.98387097,52.3387097 C7.98387097,53.8059677 9.17790323,55 10.6451613,55 L37.2580645,55 C38.7253226,55 39.9193548,53.8059677 39.9193548,52.3387097 L39.9193548,50.5645161 C39.9193548,49.0972581 38.7253226,47.9032258 37.2580645,47.9032258 L34.8930645,47.9032258 C33.7407258,47.0525 33.0053226,45.7697581 32.8562903,44.3548387 L43.4677419,44.3548387 C45.9134677,44.3548387 47.9032258,42.3650806 47.9032258,39.9193548 L47.9032258,30.0628226 C48.9987903,28.9424194 49.6774194,27.4121774 49.6774194,25.7258065 L49.6774194,23.4175806 C49.6774194,22.1614516 50.2362903,20.9585484 51.251129,20.0297581 C53.6329839,17.8501613 55,14.7533065 55,11.5322581 C55,8.36887097 53.743871,5.4175 51.4649194,3.22282258 Z M42.5806452,31.8645161 L42.5806452,35.483871 L5.32258065,35.483871 L5.32258065,21.2903226 L36.7142742,21.2903226 C37.0664516,21.9157258 37.2580645,22.6005645 37.2580645,23.3049194 L37.2580645,25.7258065 C37.2580645,28.8475 39.5760484,31.4316129 42.5806452,31.8645161 Z M5.32258065,19.516129 L5.32258065,14.1935484 L32.2645968,14.1935484 C32.7391935,16.1850806 33.7380645,18.021371 35.1795968,19.516129 L5.32258065,19.516129 Z M38.1451613,50.5645161 L38.1451613,52.3387097 C38.1451613,52.8283871 37.7468548,53.2258065 37.2580645,53.2258065 L10.6451613,53.2258065 C10.156371,53.2258065 9.75806452,52.8283871 9.75806452,52.3387097 L9.75806452,50.5645161 C9.75806452,50.0748387 10.156371,49.6774194 10.6451613,49.6774194 L37.2580645,49.6774194 C37.7468548,49.6774194 38.1451613,50.0748387 38.1451613,50.5645161 Z M32.4047581,47.9032258 L15.4984677,47.9032258 C16.2595968,46.878629 16.7208871,45.6535484 16.8220161,44.3548387 L31.0820968,44.3548387 C31.1832258,45.6535484 31.6445161,46.878629 32.4047581,47.9032258 Z M43.4677419,42.5806452 L4.43548387,42.5806452 C2.96822581,42.5806452 1.77419355,41.3866129 1.77419355,39.9193548 L1.77419355,13.3064516 C1.77419355,11.8391935 2.96822581,10.6451613 4.43548387,10.6451613 L31.9842742,10.6451613 C31.9683065,10.8509677 31.9434677,11.0541129 31.9390323,11.2616935 C31.9301613,11.6502419 31.9452419,12.036129 31.9754032,12.4193548 L5.32258065,12.4193548 C4.3441129,12.4193548 3.5483871,13.2150806 3.5483871,14.1935484 L3.5483871,35.483871 C3.5483871,36.4623387 4.3441129,37.2580645 5.32258065,37.2580645 L42.5806452,37.2580645 C43.5591129,37.2580645 44.3548387,36.4623387 44.3548387,35.483871 L44.3548387,31.8645161 C44.981129,31.7740323 45.5772581,31.5912903 46.1290323,31.3278226 L46.1290323,39.9193548 C46.1290323,41.3866129 44.935,42.5806452 43.4677419,42.5806452 L43.4677419,42.5806452 Z M43.4677419,30.1612903 C41.0220161,30.1612903 39.0322581,28.1715323 39.0322581,25.7258065 L39.0322581,24.8387097 L47.9032258,24.8387097 L47.9032258,25.7258065 C47.9032258,28.1715323 45.9134677,30.1612903 43.4677419,30.1612903 Z M40.8064516,10.6451613 L39.9193548,10.6451613 C39.4305645,10.6451613 39.0322581,10.2477419 39.0322581,9.75806452 C39.0322581,9.2683871 39.4305645,8.87096774 39.9193548,8.87096774 C40.4081452,8.87096774 40.8064516,9.2683871 40.8064516,9.75806452 L40.8064516,10.6451613 Z M44.3548387,23.0645161 L42.5806452,23.0645161 L42.5806452,12.4193548 L44.3548387,12.4193548 L44.3548387,23.0645161 Z M50.0535484,18.7212903 C48.7601613,19.9037903 48.0176613,21.4358065 47.9227419,23.0645161 L46.1290323,23.0645161 L46.1290323,12.4193548 L47.016129,12.4193548 C48.4833871,12.4193548 49.6774194,11.2253226 49.6774194,9.75806452 C49.6774194,8.29080645 48.4833871,7.09677419 47.016129,7.09677419 C45.548871,7.09677419 44.3548387,8.29080645 44.3548387,9.75806452 L44.3548387,10.6451613 L42.5806452,10.6451613 L42.5806452,9.75806452 C42.5806452,8.29080645 41.3866129,7.09677419 39.9193548,7.09677419 C38.4520968,7.09677419 37.2580645,8.29080645 37.2580645,9.75806452 C37.2580645,11.2253226 38.4520968,12.4193548 39.9193548,12.4193548 L40.8064516,12.4193548 L40.8064516,23.0645161 L39.0189516,23.0645161 C38.9497581,21.468629 38.2037097,19.9135484 36.9333871,18.7674194 C34.8212097,16.8619355 33.6475806,14.1412097 33.7123387,11.3025 C33.8285484,6.24516129 38.0325,1.97379032 43.0845161,1.78129032 C43.2140323,1.77685484 43.3417742,1.77419355 43.4704032,1.77419355 C46.0092742,1.77419355 48.3991129,2.73403226 50.2345161,4.50112903 C52.1630645,6.35870968 53.2258065,8.855 53.2258065,11.5322581 C53.2258065,14.2565323 52.0699194,16.876129 50.0535484,18.7212903 Z M46.1290323,10.6451613 L46.1290323,9.75806452 C46.1290323,9.2683871 46.5273387,8.87096774 47.016129,8.87096774 C47.5049194,8.87096774 47.9032258,9.2683871 47.9032258,9.75806452 C47.9032258,10.2477419 47.5049194,10.6451613 47.016129,10.6451613 L46.1290323,10.6451613 Z" id="Shape"></path>
                    <polygon id="Path" points="7.09677419 15.9677419 8.87096774 15.9677419 8.87096774 17.7419355 7.09677419 17.7419355"></polygon>
                    <polygon id="Path" points="14.1935484 15.9677419 15.9677419 15.9677419 15.9677419 17.7419355 14.1935484 17.7419355"></polygon>
                    <polygon id="Path" points="10.6451613 15.9677419 12.4193548 15.9677419 12.4193548 17.7419355 10.6451613 17.7419355"></polygon>
                    <polygon id="Path" points="23.0645161 23.0645161 24.8387097 23.0645161 24.8387097 24.8387097 23.0645161 24.8387097"></polygon>
                    <polygon id="Path" points="26.6129032 23.0645161 35.483871 23.0645161 35.483871 24.8387097 26.6129032 24.8387097"></polygon>
                    <polygon id="Path" points="23.0645161 26.6129032 35.483871 26.6129032 35.483871 28.3870968 23.0645161 28.3870968"></polygon>
                    <polygon id="Path" points="23.0645161 30.1612903 35.483871 30.1612903 35.483871 31.9354839 23.0645161 31.9354839"></polygon>
                </g>
            </g>
        </g>
    </g>
</svg>