<?xml version="1.0" encoding="UTF-8"?>
<svg width="55px" height="55px" viewBox="0 0 55 55" version="1.1" xmlns="http://www.w3.org/2000/svg" xmlns:xlink="http://www.w3.org/1999/xlink">
    <title>web-programming@2x</title>
    <g id="Web-Dev-Service" stroke="none" stroke-width="1" fill="none" fill-rule="evenodd">
        <g id="Web-Dev-Service_Desktop-1280x850-Rev" transform="translate(-183.000000, -3272.000000)" fill-rule="nonzero">
            <g id="web-programming" transform="translate(183.000000, 3272.000000)">
                <path d="M34.5967742,40.8064516 C33.1295161,40.8064516 31.9354839,39.6124194 31.9354839,38.1451613 C31.9354839,36.6779032 33.1295161,35.483871 34.5967742,35.483871 C36.0640323,35.483871 37.2580645,36.6779032 37.2580645,38.1451613 C37.2580645,39.6124194 36.0640323,40.8064516 34.5967742,40.8064516 Z" id="Path" fill="#F0BC5E"></path>
                <polygon id="Path" fill="#FBC935" points="3.5483871 39.0322581 26.6129032 39.0322581 26.6129032 51.4516129 3.5483871 51.4516129"></polygon>
                <g id="Group" fill="#000000">
                    <polygon id="Path" points="48.5304032 13.0465323 51.818871 9.75806452 48.5304032 6.46959677 47.2760484 7.72395161 49.3101613 9.75806452 47.2760484 11.7921774"></polygon>
                    <polygon id="Path" points="43.2078226 11.7921774 41.1737097 9.75806452 43.2078226 7.72395161 41.9534677 6.46959677 38.665 9.75806452 41.9534677 13.0465323"></polygon>
                    <polygon id="Path" transform="translate(45.704113, 9.763831) rotate(-84.260902) translate(-45.704113, -9.763831) " points="41.2463959 8.87672278 50.1618299 8.87672278 50.1618299 10.6509385 41.2463959 10.6509385"></polygon>
                    <path d="M52.3387097,31.9354839 L42.5806452,31.9354839 L42.5806452,19.1382258 C43.4278226,19.378629 44.3184677,19.516129 45.2419355,19.516129 C50.6221774,19.516129 55,15.1383065 55,9.75806452 C55,4.37782258 50.6221774,-3.15160084e-15 45.2419355,-3.15160084e-15 C39.8616935,-3.15160084e-15 35.483871,4.37782258 35.483871,9.75806452 C35.483871,10.0579032 35.5025,10.3524194 35.5291129,10.6451613 L2.66129032,10.6451613 C1.19403226,10.6451613 0,11.8391935 0,13.3064516 L0,52.3387097 C0,53.8059677 1.19403226,55 2.66129032,55 L39.9193548,55 C41.3866129,55 42.5806452,53.8059677 42.5806452,52.3387097 L42.5806452,51.4516129 L52.3387097,51.4516129 C53.8059677,51.4516129 55,50.2575806 55,48.7903226 L55,34.5967742 C55,33.1295161 53.8059677,31.9354839 52.3387097,31.9354839 Z M53.2258065,34.5967742 L53.2258065,47.3620968 L50.4633871,42.7589516 C49.7412903,41.5542742 48.4204032,40.8064516 47.016129,40.8064516 C45.6118548,40.8064516 44.2909677,41.5542742 43.568871,42.7580645 L41.415,46.3481452 L39.9193548,44.3548387 C39.086371,43.2441935 37.7592742,42.5806452 36.3709677,42.5806452 C34.9826613,42.5806452 33.6555645,43.2441935 32.8225806,44.3548387 L30.1612903,47.9032258 L30.1612903,34.5967742 C30.1612903,34.1079839 30.5595968,33.7096774 31.0483871,33.7096774 L52.3387097,33.7096774 C52.8275,33.7096774 53.2258065,34.1079839 53.2258065,34.5967742 Z M31.0483871,49.6774194 L34.2419355,45.4193548 C34.741371,44.7531452 35.5379839,44.3548387 36.3709677,44.3548387 C37.2039516,44.3548387 37.9996774,44.7531452 38.5,45.4193548 L40.4285484,47.9910484 L39.4172581,49.6774194 L31.0483871,49.6774194 Z M37.2580645,31.9354839 L31.0483871,31.9354839 C29.581129,31.9354839 28.3870968,33.1295161 28.3870968,34.5967742 L28.3870968,35.483871 L24.8387097,35.483871 L24.8387097,26.6129032 L37.2580645,26.6129032 L37.2580645,31.9354839 Z M45.2419355,1.77419355 C49.6437097,1.77419355 53.2258065,5.35629032 53.2258065,9.75806452 C53.2258065,14.1598387 49.6437097,17.7419355 45.2419355,17.7419355 C40.8401613,17.7419355 37.2580645,14.1598387 37.2580645,9.75806452 C37.2580645,5.35629032 40.8401613,1.77419355 45.2419355,1.77419355 Z M36.5608065,14.1935484 L31.9354839,14.1935484 L31.9354839,15.9677419 L37.7202419,15.9677419 C38.5647581,16.9887903 39.6168548,17.828871 40.8064516,18.4391935 L40.8064516,21.2903226 L26.6129032,21.2903226 L26.6129032,12.4193548 L35.8617742,12.4193548 C36.0383065,13.0385484 36.2725,13.631129 36.5608065,14.1935484 Z M2.66129032,12.4193548 L24.8387097,12.4193548 L24.8387097,21.2903226 L1.77419355,21.2903226 L1.77419355,13.3064516 C1.77419355,12.8176613 2.1725,12.4193548 2.66129032,12.4193548 Z M40.8064516,52.3387097 C40.8064516,52.8275 40.4081452,53.2258065 39.9193548,53.2258065 L2.66129032,53.2258065 C2.1725,53.2258065 1.77419355,52.8275 1.77419355,52.3387097 L1.77419355,23.0645161 L40.8064516,23.0645161 L40.8064516,31.9354839 L39.0322581,31.9354839 L39.0322581,24.8387097 L23.0645161,24.8387097 L23.0645161,37.2580645 L28.3870968,37.2580645 L28.3870968,48.7903226 C28.3870968,50.2575806 29.581129,51.4516129 31.0483871,51.4516129 L40.8064516,51.4516129 L40.8064516,52.3387097 Z M41.4859677,49.6774194 L45.0893548,43.6708871 C45.493871,42.9984677 46.2319355,42.5806452 47.016129,42.5806452 C47.8003226,42.5806452 48.5383871,42.9984677 48.9420161,43.6708871 L52.5232258,49.6392742 C52.4620161,49.6534677 52.4043548,49.6774194 52.3387097,49.6774194 L41.4859677,49.6774194 Z" id="Shape"></path>
                    <path d="M8.87096774,14.1935484 L3.5483871,14.1935484 L3.5483871,19.516129 L8.87096774,19.516129 L8.87096774,14.1935484 Z M7.09677419,17.7419355 L5.32258065,17.7419355 L5.32258065,15.9677419 L7.09677419,15.9677419 L7.09677419,17.7419355 Z" id="Shape"></path>
                    <path d="M15.9677419,14.1935484 L10.6451613,14.1935484 L10.6451613,19.516129 L15.9677419,19.516129 L15.9677419,14.1935484 Z M14.1935484,17.7419355 L12.4193548,17.7419355 L12.4193548,15.9677419 L14.1935484,15.9677419 L14.1935484,17.7419355 Z" id="Shape"></path>
                    <path d="M23.0645161,14.1935484 L17.7419355,14.1935484 L17.7419355,19.516129 L23.0645161,19.516129 L23.0645161,14.1935484 Z M21.2903226,17.7419355 L19.516129,17.7419355 L19.516129,15.9677419 L21.2903226,15.9677419 L21.2903226,17.7419355 Z" id="Shape"></path>
                    <polygon id="Path" points="28.3870968 14.1935484 30.1612903 14.1935484 30.1612903 15.9677419 28.3870968 15.9677419"></polygon>
                    <polygon id="Path" points="28.3870968 17.7419355 30.1612903 17.7419355 30.1612903 19.516129 28.3870968 19.516129"></polygon>
                    <polygon id="Path" points="31.9354839 17.7419355 39.0322581 17.7419355 39.0322581 19.516129 31.9354839 19.516129"></polygon>
                    <path d="M19.516129,24.8387097 L3.5483871,24.8387097 L3.5483871,37.2580645 L19.516129,37.2580645 L19.516129,24.8387097 Z M17.7419355,35.483871 L5.32258065,35.483871 L5.32258065,26.6129032 L17.7419355,26.6129032 L17.7419355,35.483871 Z" id="Shape"></path>
                    <polygon id="Path" points="3.5483871 39.0322581 5.32258065 39.0322581 5.32258065 40.8064516 3.5483871 40.8064516"></polygon>
                    <polygon id="Path" points="7.09677419 39.0322581 26.6129032 39.0322581 26.6129032 40.8064516 7.09677419 40.8064516"></polygon>
                    <polygon id="Path" points="3.5483871 42.5806452 26.6129032 42.5806452 26.6129032 44.3548387 3.5483871 44.3548387"></polygon>
                    <polygon id="Path" points="7.09677419 46.1290323 8.87096774 46.1290323 8.87096774 47.9032258 7.09677419 47.9032258"></polygon>
                    <polygon id="Path" points="3.5483871 46.1290323 5.32258065 46.1290323 5.32258065 47.9032258 3.5483871 47.9032258"></polygon>
                    <polygon id="Path" points="10.6451613 46.1290323 26.6129032 46.1290323 26.6129032 47.9032258 10.6451613 47.9032258"></polygon>
                    <polygon id="Path" points="24.8387097 49.6774194 26.6129032 49.6774194 26.6129032 51.4516129 24.8387097 51.4516129"></polygon>
                    <polygon id="Path" points="3.5483871 49.6774194 23.0645161 49.6774194 23.0645161 51.4516129 3.5483871 51.4516129"></polygon>
                </g>
            </g>
        </g>
    </g>
</svg>