<?xml version="1.0" encoding="UTF-8"?>
<svg width="82px" height="80px" viewBox="0 0 82 80" version="1.1" xmlns="http://www.w3.org/2000/svg" xmlns:xlink="http://www.w3.org/1999/xlink">
    <title>DBEDB18D-A8A4-4C20-B70F-2E603A734633@3x</title>
    <g id="Layanan-Kami" stroke="none" stroke-width="1" fill="none" fill-rule="evenodd">
        <g id="Layanan-Kami-Baru" transform="translate(-1089.000000, -1834.000000)" fill-rule="nonzero">
            <g id="9551193021643302827" transform="translate(1089.000000, 1834.000000)">
                <path d="M73.1659023,22.6672745 C76.8477616,22.6672745 79.8324983,25.6520112 79.8324983,29.3338705 C79.8324983,33.0157298 76.8477616,36.0004665 73.1659023,36.0004665 L27.8330496,36.0004665 C24.1511903,36.0004665 21.1664536,33.0157298 21.1664536,29.3338705 C21.1664536,25.6520112 24.1511903,22.6672745 27.8330496,22.6672745 L29.1663688,22.6672745 C28.7930394,21.6272856 27.8330496,20.5072974 27.8330496,19.3339765 C27.8302486,14.7978019 30.8831042,10.8287553 35.2681349,9.66755162 C39.6531656,8.50634791 44.2702608,10.4443083 46.5128515,14.3873623 C46.6201122,8.61264223 50.433242,3.5635972 55.9582764,1.88047745 C61.4833108,0.197357701 67.4638007,2.2629218 70.7724241,6.99704348 C74.0810475,11.7311652 73.9653897,18.057257 70.4859307,22.6672745 L73.1659023,22.6672745 Z" id="Path" fill="#53B7E8"></path>
                <rect id="Rectangle" fill="#FFFFFF" x="3.83330404" y="33.3338281" width="61.3326831" height="37.3329375" rx="2"></rect>
                <path d="M65.1659871,36.0004665 L65.1659871,68.0001272 C65.1615941,69.4710475 63.9702689,70.6623726 62.4993487,70.6667656 L59.8327103,70.6667656 C61.3036305,70.6623726 62.4949557,69.4710475 62.4993487,68.0001272 L62.4993487,36.0004665 C62.4949557,34.5295463 61.3036305,33.3382211 59.8327103,33.3338281 L62.4993487,33.3338281 C63.9702689,33.3382211 65.1615941,34.5295463 65.1659871,36.0004665 Z" id="Path" fill="#3C3E3E"></path>
                <path d="M73.1659023,14.6673593 C73.162057,17.5537863 72.2216337,20.3610199 70.4859307,22.6672745 L67.8192923,22.6672745 C70.7116524,18.8265313 71.3099066,13.7252076 69.3846456,9.31948115 C67.4593846,4.91375473 63.3093973,1.8873679 58.5260575,1.40083334 C58.9527196,1.36083376 59.392715,1.33416738 59.8327103,1.33416738 C67.1964289,1.33416738 73.1659023,7.30364076 73.1659023,14.6673593 L73.1659023,14.6673593 Z" id="Path" fill="#2488FF"></path>
                <path d="M79.8324983,29.3338705 C79.8324983,33.0157298 76.8477616,36.0004665 73.1659023,36.0004665 L70.4992639,36.0004665 C74.1811232,36.0004665 77.1658599,33.0157298 77.1658599,29.3338705 C77.1658599,25.6520112 74.1811232,22.6672745 70.4992639,22.6672745 L73.1659023,22.6672745 C76.8477616,22.6672745 79.8324983,25.6520112 79.8324983,29.3338705 L79.8324983,29.3338705 Z" id="Path" fill="#2488FF"></path>
                <path d="M67.6726272,74.6667232 L67.0593004,76.7467012 C66.727452,77.8844669 65.6845001,78.6666808 64.4993275,78.6666808 L4.49996364,78.6666808 C3.31479102,78.6666808 2.27183912,77.8844669 1.93999078,76.7467012 L1.32666395,74.6667232 L30.499688,74.6667232 L30.499688,76.0000424 L38.4996032,76.0000424 L38.4996032,74.6667232 L67.6726272,74.6667232 Z" id="Path" fill="#F9BA48"></path>
                <path d="M67.6726272,74.6667232 L67.0593004,76.7467012 C66.727452,77.8844669 65.6845001,78.6666808 64.4993275,78.6666808 L61.8326891,78.6666808 C63.0178617,78.6666808 64.0608136,77.8844669 64.392662,76.7467012 L65.0059888,74.6667232 L67.6726272,74.6667232 Z" id="Path" fill="#FFCD00"></path>
                <circle id="Oval" fill="#F9BA48" cx="55.8327527" cy="52.0002969" r="3.99995759"></circle>
                <path d="M33.1663264,41.3337433 L33.1663264,49.3336585 C33.1663264,51.0803066 29.8330284,52.5602909 25.1664112,53.0936186 C22.5093727,53.4136152 19.8235345,53.4136152 17.166496,53.0936186 C12.4998788,52.5602909 9.16658083,51.0803066 9.16658083,49.3336585 L9.16658083,41.3337433 C9.16658083,43.5470532 14.5398572,45.3337009 21.1664536,45.3337009 C27.79305,45.3337009 33.1663264,43.5470532 33.1663264,41.3337433 Z" id="Path" fill="#FFDAAA"></path>
                <path d="M33.1663264,38.6671049 L33.1663264,41.3337433 C33.1663264,43.5470532 27.79305,45.3337009 21.1664536,45.3337009 C14.5398572,45.3337009 9.16658083,43.5470532 9.16658083,41.3337433 L9.16658083,33.3338281 C9.16658083,35.547138 14.5398572,37.3337857 21.1664536,37.3337857 C27.79305,37.3337857 33.1663264,35.547138 33.1663264,33.3338281 L33.1663264,38.6671049 Z" id="Path" fill="#FFDAAA"></path>
                <path d="M33.1663264,26.6672321 L33.1663264,33.3338281 C33.1663264,35.547138 27.79305,37.3337857 21.1664536,37.3337857 C14.5398572,37.3337857 9.16658083,35.547138 9.16658083,33.3338281 L9.16658083,25.3339129 C9.16658083,27.5472228 14.5398572,29.3338705 21.1664536,29.3338705 C27.79305,29.3338705 33.1663264,27.5472228 33.1663264,25.3339129 L33.1663264,26.6672321 Z" id="Path" fill="#FFDAAA"></path>
                <path d="M29.0330369,22.3206115 C31.5663433,23.0406039 33.1663264,24.1205925 33.1663264,25.3339129 C33.1663264,27.5472228 27.79305,29.3338705 21.1664536,29.3338705 C14.5398572,29.3338705 9.16658083,27.5472228 9.16658083,25.3339129 C9.16658083,23.1206031 14.5398572,21.3339553 21.1664536,21.3339553 C23.821397,21.3021343 26.4681888,21.6341048 29.0330369,22.3206115 L29.0330369,22.3206115 Z" id="Path" fill="#F9BA48"></path>
                <path d="M33.1663264,41.3337433 L33.1663264,49.3336585 C33.1663264,51.5469683 27.79305,53.3336161 21.1664536,53.3336161 C20.6864587,53.3336161 20.2064638,53.3202829 19.7398021,53.3069497 C25.779738,53.1069518 30.499688,51.4136364 30.499688,49.3336585 L30.499688,43.8403834 C32.166337,43.1603906 33.1663264,42.2803999 33.1663264,41.3337433 Z" id="Path" fill="#FFC477"></path>
                <path d="M33.1663264,33.3338281 L33.1663264,41.3337433 C33.1663264,42.2803999 32.166337,43.1603906 30.499688,43.8403834 L30.499688,35.8404682 C32.166337,35.1604754 33.1663264,34.2804847 33.1663264,33.3338281 Z" id="Path" fill="#FFC477"></path>
                <path d="M33.1663264,25.3339129 L33.1663264,33.3338281 C33.1663264,34.2804847 32.166337,35.1604754 30.499688,35.8404682 L30.499688,27.840553 C32.166337,27.1605602 33.1663264,26.2805696 33.1663264,25.3339129 Z" id="Path" fill="#FFC477"></path>
                <path d="M33.1663264,25.3339129 C33.1663264,27.5472228 27.79305,29.3338705 21.1664536,29.3338705 C20.7131251,29.3338705 20.2731297,29.3205373 19.8331344,29.3072041 C25.8330708,29.0938731 30.499688,27.4005577 30.499688,25.3339129 C30.499688,23.2672682 25.8330708,21.5739528 19.8331344,21.3606217 C20.2731297,21.3472885 20.7131251,21.3339553 21.1664536,21.3339553 C27.79305,21.3339553 33.1663264,23.1206031 33.1663264,25.3339129 Z" id="Path" fill="#CCA400"></path>
                <path d="M67.6659606,73.333404 L38.4996032,73.333404 C37.7632313,73.333404 37.166284,73.9303514 37.166284,74.6667232 L31.8330072,74.6667232 C31.8330072,73.9303514 31.2360598,73.333404 30.499688,73.333404 L1.33333055,73.333404 C0.913658593,73.333404 0.518478363,73.5309941 0.266675191,73.8667317 C0.0148720176,74.2024693 -0.0641640283,74.6371675 0.053344119,75.0400526 L0.660004354,77.1200305 C1.16388768,78.8224396 2.72456365,79.9929465 4.49996364,80 L64.4993275,80 C66.2747275,79.9929465 67.8354035,78.8224396 68.3392868,77.1200305 L68.945947,75.0400526 C69.0634552,74.6371675 68.9844191,74.2024693 68.732616,73.8667317 C68.4808128,73.5309941 68.0856326,73.333404 67.6659606,73.333404 L67.6659606,73.333404 Z M4.49996364,77.3333616 C3.9082614,77.3307192 3.38819052,76.9406661 3.21997721,76.3733718 L3.11064504,76.0000424 L29.1663688,76.0000424 C29.1663688,76.7364143 29.7633161,77.3333616 30.499688,77.3333616 L4.49996364,77.3333616 Z M65.7793139,76.3733718 C65.6111006,76.9406661 65.0910297,77.3307192 64.4993275,77.3333616 L38.4996032,77.3333616 C39.235975,77.3333616 39.8329224,76.7364143 39.8329224,76.0000424 L65.8886461,76.0000424 L65.7793139,76.3733718 Z" id="Shape" fill="#000000"></path>
                <rect id="Rectangle" fill="#000000" x="19.8331344" y="32.0005089" width="2.66663839" height="2.66663839"></rect>
                <rect id="Rectangle" fill="#000000" x="19.8331344" y="40.0004241" width="2.66663839" height="2.66663839"></rect>
                <rect id="Rectangle" fill="#000000" x="19.8331344" y="48.0003393" width="2.66663839" height="2.66663839"></rect>
                <path d="M73.1659023,21.3339553 L72.8885719,21.3339553 C73.9507422,19.2724931 74.5030691,16.9863716 74.4992215,14.6673593 C74.4991178,7.26194825 68.9785488,1.01837793 61.6288818,0.111455477 C54.2792148,-0.795466977 47.4064863,3.91881505 45.6061945,11.1020638 C42.3206234,7.9900594 37.497437,7.13363632 33.3413353,8.92426941 C29.1852335,10.7149025 26.4947554,14.8085458 26.4997304,19.3339765 C26.5065406,19.7068454 26.5667061,20.0768182 26.6783952,20.4326316 C24.8555336,20.1419395 23.0123453,19.9974806 21.1664536,20.0006361 C14.7451884,20.0006361 7.83326163,21.6699518 7.83326163,25.3339129 L7.83326163,32.0005089 L6.49994244,32.0005089 C4.29082686,32.0005089 2.49998485,33.7913509 2.49998485,36.0004665 L2.49998485,68.0001272 C2.49998485,70.2092428 4.29082686,72.0000848 6.49994244,72.0000848 L62.4993487,72.0000848 C64.7084643,72.0000848 66.4993063,70.2092428 66.4993063,68.0001272 L66.4993063,37.3337857 L73.1659023,37.3337857 C77.5841334,37.3337857 81.1658175,33.7521017 81.1658175,29.3338705 C81.1658175,24.9156394 77.5841334,21.3339553 73.1659023,21.3339553 Z M21.1664536,22.6672745 C28.1650461,22.6672745 31.8330072,24.6485869 31.8330072,25.3339129 C31.8330072,26.019239 28.1650461,28.0005513 21.1664536,28.0005513 C14.1678611,28.0005513 10.4999,26.019239 10.4999,25.3339129 C10.4999,24.6485869 14.1678611,22.6672745 21.1664536,22.6672745 Z M21.1664536,52.0002969 C14.1678611,52.0002969 10.4999,50.0189845 10.4999,49.3336585 L10.4999,44.6990409 C13.8717349,46.1171058 17.5105779,46.7884723 21.1664536,46.6670201 C24.8223293,46.7884723 28.4611724,46.1171058 31.8330072,44.6990409 L31.8330072,49.3336585 C31.8330072,50.0189845 28.1650461,52.0002969 21.1664536,52.0002969 Z M10.4999,28.6992106 C13.8717349,30.1172754 17.5105779,30.7886419 21.1664536,30.6671897 C24.8223293,30.7886419 28.4611724,30.1172754 31.8330072,28.6992106 L31.8330072,33.3338281 C31.8330072,34.0191542 28.1650461,36.0004665 21.1664536,36.0004665 C14.1678611,36.0004665 10.4999,34.0191542 10.4999,33.3338281 L10.4999,28.6992106 Z M21.1664536,44.0003817 C14.1678611,44.0003817 10.4999,42.0190694 10.4999,41.3337433 L10.4999,36.6991258 C13.8717349,38.1171906 17.5105779,38.7885571 21.1664536,38.6671049 C24.8223293,38.7885571 28.4611724,38.1171906 31.8330072,36.6991258 L31.8330072,41.3337433 C31.8330072,42.0190694 28.1650461,44.0003817 21.1664536,44.0003817 Z M63.8326679,68.0001272 C63.8326679,68.7364991 63.2357206,69.3334464 62.4993487,69.3334464 L6.49994244,69.3334464 C5.76357058,69.3334464 5.16662324,68.7364991 5.16662324,68.0001272 L5.16662324,36.0004665 C5.16662324,35.2640946 5.76357058,34.6671473 6.49994244,34.6671473 L7.83326163,34.6671473 L7.83326163,49.3336585 C7.83326163,51.9736305 11.4252235,53.5722802 15.8331768,54.2669395 L15.8331768,64.0001696 L13.1665384,64.0001696 L13.1665384,66.666808 L17.166496,66.666808 C17.9028679,66.666808 18.4998152,66.0698607 18.4998152,65.3334888 L18.4998152,54.5669363 C19.3851392,54.632269 20.2797963,54.6669353 21.1664536,54.6669353 C22.0531109,54.6669353 22.947768,54.632269 23.833092,54.5669363 L23.833092,61.3335312 C23.833092,62.0699031 24.4300393,62.6668504 25.1664112,62.6668504 L43.83288,62.6668504 L43.83288,60.000212 L26.4997304,60.000212 L26.4997304,54.2669395 C30.9076837,53.5762802 34.4996456,51.9776304 34.4996456,49.3336585 L34.4996456,40.0004241 L45.1661991,40.0004241 L45.1661991,52.0002969 C45.1661991,52.7366687 45.7631465,53.3336161 46.4995183,53.3336161 L50.6888073,53.3336161 C51.3602229,55.9339975 53.8604893,57.6294708 56.5247461,57.2910658 C59.1890029,56.9526608 61.1860071,54.6859592 61.1860071,52.0002969 C61.1860071,49.3146345 59.1890029,47.0479329 56.5247461,46.7095279 C53.8604893,46.3711229 51.3602229,48.0665963 50.6888073,50.6669777 L47.8328375,50.6669777 L47.8328375,38.6671049 C47.8328375,37.930733 47.2358902,37.3337857 46.4995183,37.3337857 L34.4996456,37.3337857 L34.4996456,34.6671473 L62.4993487,34.6671473 C63.2357206,34.6671473 63.8326679,35.2640946 63.8326679,36.0004665 L63.8326679,68.0001272 Z M53.1661143,52.0002969 C53.1661143,50.5275531 54.360009,49.3336585 55.8327527,49.3336585 C57.3054964,49.3336585 58.4993911,50.5275531 58.4993911,52.0002969 C58.4993911,53.4730406 57.3054964,54.6669353 55.8327527,54.6669353 C54.360009,54.6669353 53.1661143,53.4730406 53.1661143,52.0002969 Z M73.1659023,34.6671473 L66.2539756,34.6671473 C65.6909755,33.0746964 64.188378,32.0075107 62.4993487,32.0005089 L34.4996456,32.0005089 L34.4996456,28.0005513 L46.4995183,28.0005513 C47.2358902,28.0005513 47.8328375,27.403604 47.8328375,26.6672321 L47.8328375,21.3339553 L57.1660719,21.3339553 L57.1660719,18.6673169 L46.4995183,18.6673169 C45.7631465,18.6673169 45.1661991,19.2642643 45.1661991,20.0006361 L45.1661991,25.3339129 L34.4996456,25.3339129 C34.4996456,23.4352664 32.6329987,22.0752808 29.9530271,21.2006234 C29.902361,21.1072911 29.8596948,21.0179587 29.8076953,20.9246263 C29.4858933,20.4446383 29.2674887,19.9029404 29.1663688,19.3339765 C29.1746078,15.4084342 31.8203952,11.9786349 35.6152504,10.9741328 C39.4101056,9.9696307 43.4062575,11.6413017 45.3555305,15.0486886 C45.65276,15.5688449 46.2604253,15.8268912 46.8411117,15.6795435 C47.421798,15.5321959 47.8329095,15.0156379 47.8461707,14.4166953 C47.9397923,9.21771826 51.3711763,4.67058855 56.3450259,3.15436023 C61.3188754,1.63813191 66.7033211,3.49784404 69.681226,7.76049698 C72.6591309,12.0231499 72.5528309,17.7187171 69.417942,21.867283 C69.1149276,22.2713023 69.0661868,22.8118458 69.2920404,23.263553 C69.5178941,23.7152603 69.9795733,24.0005937 70.4845974,24.0005937 L73.1659023,24.0005937 C76.1113897,24.0005937 78.4991791,26.3883831 78.4991791,29.3338705 C78.4991791,32.279358 76.1113897,34.6671473 73.1659023,34.6671473 Z" id="Shape" fill="#000000"></path>
                <path d="M31.8330072,18.6673169 L34.4996456,18.6673169 C34.4996456,16.7486706 35.2476376,16.0006785 37.166284,16.0006785 L37.166284,13.3340402 C35.7104376,13.1817703 34.2636078,13.6945321 33.2285534,14.7295864 C32.1934991,15.7646407 31.6807373,17.2114705 31.8330072,18.6673169 L31.8330072,18.6673169 Z" id="Path" fill="#000000"></path>
                <path d="M59.8327103,5.33412497 L59.8327103,8.00076336 C63.5127422,8.00517147 66.4948982,10.9873275 66.4993063,14.6673593 L69.1659447,14.6673593 C69.1600666,9.5151931 64.9848766,5.34000309 59.8327103,5.33412497 L59.8327103,5.33412497 Z" id="Path" fill="#000000"></path>
                <path d="M71.8325831,50.6669777 L69.1659447,50.6669777 L69.1659447,53.3336161 L73.1659023,53.3336161 C73.9022741,53.3336161 74.4992215,52.7366687 74.4992215,52.0002969 L74.4992215,40.0004241 L71.8325831,40.0004241 L71.8325831,50.6669777 Z" id="Path" fill="#000000"></path>
                <rect id="Rectangle" fill="#000000" x="7.83326163" y="64.0001696" width="2.66663839" height="2.66663839"></rect>
                <rect id="Rectangle" fill="#000000" x="46.4995183" y="60.000212" width="2.66663839" height="2.66663839"></rect>
                <rect id="Rectangle" fill="#000000" x="59.8327103" y="18.6673169" width="2.66663839" height="2.66663839"></rect>
                <path d="M59.8327103,37.3337857 L54.4994335,37.3337857 L54.4994335,40.0004241 L58.4993911,40.0004241 L58.4993911,44.0003817 L61.1660295,44.0003817 L61.1660295,38.6671049 C61.1660295,37.930733 60.5690822,37.3337857 59.8327103,37.3337857 Z" id="Path" fill="#000000"></path>
                <path d="M58.4993911,64.0001696 L54.4994335,64.0001696 L54.4994335,66.666808 L59.8327103,66.666808 C60.5690822,66.666808 61.1660295,66.0698607 61.1660295,65.3334888 L61.1660295,60.000212 L58.4993911,60.000212 L58.4993911,64.0001696 Z" id="Path" fill="#000000"></path>
                <g id="car-svgrepo-com" transform="translate(47.000000, 2.000000)">
                    <circle id="Oval" stroke="#000000" stroke-width="2" fill="#FFFFFF" cx="13" cy="13" r="13"></circle>
                    <g id="Group" transform="translate(4.667839, 6.339543)">
                        <g id="Path">
                            <g transform="translate(0.074379, 0.000000)">
                                <path d="M6.85377014,3.30648647 C6.61298544,3.2457462 6.30552493,3.20320823 5.93534565,3.21488144 C5.53905003,3.22793961 5.20092261,3.2922412 4.93659363,3.36505038 C4.56028096,3.46912002 4.29971115,3.93664201 4.32642104,4.32462789 C4.33295013,4.41148449 4.3560987,4.49200986 4.39032693,4.56719325 L7.5052936,4.58381274 C7.5052936,4.58282349 7.5052936,4.18633002 7.5052936,4.18553861 C7.50470004,3.848994 7.23265487,3.40105926 6.85377014,3.30648647 Z" fill="#2B2A2C"></path>
                                <path d="M11.1613828,3.34763948 C10.8956689,3.27601741 10.5577393,3.21428789 10.161048,3.20340608 C9.79086873,3.19351353 9.48340823,3.23842571 9.24321707,3.30035309 C8.86472805,3.39749795 8.59525494,3.84701549 8.5960446,4.1827687 C8.5960446,4.18435151 8.5966399,4.58124068 8.59644205,4.58321919 L11.7157614,4.54226402 C11.7488026,4.46806989 11.770764,4.38873162 11.7770953,4.30325998 C11.8008374,3.9152741 11.5380912,3.44953277 11.1613828,3.34763948 Z" fill="#414042"></path>
                                <path d="M7.9554047,5.30735397 L7.95144768,4.56838036 C7.82561442,4.57312879 3.39256417,4.58460415 3.06037228,4.67680273 C2.68326821,4.78027882 2.49530973,4.58955042 2.6328162,4.22352601 L3.53105989,1.83506833 C3.66896206,1.46924177 4.08919765,1.10559157 4.47421576,1.03575016 C5.75668616,0.8040666 6.91787388,0.833150702 7.94195083,0.820092533 L7.93977447,0.00316561653 C7.87883635,0.00316561653 7.82363591,0.000791404134 7.76230209,0.00114261899 L7.76190639,0.00633123307 C5.96086843,0.0393723556 4.72528873,0.124250449 4.03597573,0.284311935 C3.65570604,0.373938453 3.19530668,0.756780203 3.02040637,1.10658083 C2.63894958,1.87008797 2.00602412,3.18085106 1.75297265,4.18989133 C1.65760845,4.56897391 1.27575596,4.92668858 0.932286565,5.11345996 C0.523328479,5.33544882 -0.00295526996,6.18660396 0,7.00966426 L0.00654157965,9.87850425 C0.00772868585,10.2694579 0.488110995,10.6635771 0.878866786,10.6618025 L7.79039694,10.6422092 L7.96767146,10.6418135 L7.9647037,8.71692083 L7.9554047,5.30735397 Z" fill="#FF4756"></path>
                                <path d="M7.9654951,8.71751438 C7.9654951,8.71751438 7.9654951,8.71751438 7.9650994,8.71711868 L7.96806716,10.6420114 L8.14534169,10.64122 L15.0562783,10.621237 C15.4476276,10.6200499 15.92524,10.3003226 15.924647,9.90917116 L15.9177217,7.17427632 C15.9161389,6.35002892 15.3878766,5.29251514 14.9775336,5.07309835 C14.6334706,4.88870118 14.2490461,4.53316288 14.1515055,4.154476 C13.8929142,3.14682069 13.2524704,1.83942106 12.866463,1.07848598 C12.6893864,0.729674611 12.2274042,0.349404925 11.845156,0.261954768 C11.155843,0.10525675 9.91947191,0.0273034426 8.11744469,0.00494627583 L8.11744469,0 C8.05591302,0.000197851033 8.00091043,0.00257206343 7.94036802,0.0029677655 L7.94036802,0.0029677655 L7.94254438,0.819894682 C7.94294008,0.819894682 7.94313793,0.819894682 7.94313793,0.819894682 C8.96741273,0.82701732 10.1295897,0.791008431 11.4138408,1.0153715 C11.7982653,1.08363011 12.2216665,1.4449061 12.3609537,1.8093477 L13.2726512,4.19266125 C13.4125319,4.55789426 13.2255627,4.75000761 12.8480629,4.64870788 C12.515871,4.55888351 8.11526833,4.56204913 7.95184338,4.56838036 L7.9558004,5.30735397 C7.9561961,5.30715612 7.9561961,5.30715612 7.9561961,5.30715612 L7.9654951,8.71751438 Z" fill="#FF4756"></path>
                            </g>
                            <path d="M4.48666788,12.4242535 C4.48666788,13.0342282 3.992436,13.528658 3.38265912,13.528658 L3.38265912,13.528658 C2.77288223,13.528658 2.27825465,13.0342282 2.27825465,12.4242535 L2.27825465,11.4029465 C2.27825465,10.7933674 2.77288223,10.2989377 3.38265912,10.2989377 L3.38265912,10.2989377 C3.992436,10.2989377 4.48666788,10.7933674 4.48666788,11.4029465 L4.48666788,12.4242535 Z" fill="#212022"></path>
                            <path d="M13.6736828,12.4242535 C13.6736828,13.0342282 13.1790552,13.528658 12.5692783,13.528658 L12.5692783,13.528658 C11.9595014,13.528658 11.4650717,13.0342282 11.4650717,12.4242535 L11.4650717,11.4029465 C11.4650717,10.7933674 11.9595014,10.2989377 12.5692783,10.2989377 L12.5692783,10.2989377 C13.1790552,10.2989377 13.6736828,10.7933674 13.6736828,11.4029465 L13.6736828,12.4242535 Z" fill="#373638"></path>
                            <path d="M0.794767601,9.46400633 C0.355736158,9.46400633 0,9.82904149 0,10.2793504 L0,10.7961373 C0,11.2462484 0.355736158,11.6114814 0.794767601,11.6114814 L8.02523362,11.6114814 L8.02523362,9.46400633 L0.794767601,9.46400633 Z" fill="#2B2A2C"></path>
                            <path d="M15.2040605,9.46400633 L8.02523362,9.46400633 L8.02523362,11.6114814 L15.2040605,11.6114814 C15.643092,11.6114814 15.9988281,11.2462484 15.9988281,10.7961373 L15.9988281,10.2793504 C15.9988281,9.82904149 15.643092,9.46400633 15.2040605,9.46400633 Z" fill="#414042"></path>
                        </g>
                        <path d="M5.70127538,7.10146714 C5.49847807,7.10146714 5.33366816,7.22077131 5.33366816,7.36817033 C5.33366816,7.51556935 5.49847807,7.63487353 5.70127538,7.63487353 L8.05352631,7.63487353 L8.05352631,7.10166499 L5.70127538,7.10166499 L5.70127538,7.10146714 Z" id="Path" fill="#2B2A2C"></path>
                        <path d="M10.4295194,7.10146714 L8.05332846,7.10146714 L8.05332846,7.63467568 L10.4295194,7.63467568 C10.6323167,7.63467568 10.7971268,7.5153715 10.7971268,7.36797248 C10.7973244,7.22057346 10.6325145,7.10146714 10.4295194,7.10146714 Z" id="Path" fill="#414042"></path>
                        <path d="M5.68920647,7.80522327 C5.48640916,7.80522327 5.3217971,7.92472529 5.3217971,8.07192646 C5.3217971,8.21932548 5.48640916,8.33862965 5.68920647,8.33862965 L8.04165525,8.33862965 L8.04165525,7.80542112 L5.68920647,7.80542112 L5.68920647,7.80522327 Z" id="Path" fill="#2B2A2C"></path>
                        <path d="M10.4178462,7.80522327 L8.04165525,7.80522327 L8.04165525,8.3384318 L10.4178462,8.3384318 C10.6206435,8.3384318 10.7854534,8.21912763 10.7854534,8.07172861 C10.7852555,7.92472529 10.6206435,7.80522327 10.4178462,7.80522327 Z" id="Path" fill="#414042"></path>
                        <path d="M5.67753325,8.5093751 C5.47473594,8.5093751 5.30992603,8.62867927 5.30992603,8.77588044 C5.30992603,8.92327946 5.47473594,9.04258363 5.67753325,9.04258363 L8.02978419,9.04258363 L8.02978419,8.50957295 L5.67753325,8.50957295 L5.67753325,8.5093751 Z" id="Path" fill="#2B2A2C"></path>
                        <path d="M10.4057773,8.5093751 L8.02958634,8.5093751 L8.02958634,9.04238578 L10.4057773,9.04238578 C10.6085746,9.04238578 10.7733846,8.92308161 10.7733846,8.77568259 C10.7735823,8.62848142 10.6087724,8.5093751 10.4057773,8.5093751 Z" id="Path" fill="#414042"></path>
                        <circle id="Oval" fill="#F8BB17" cx="14.087785" cy="6.68993699" r="1"></circle>
                        <circle id="Oval" fill="#F8BB17" cx="1.8469394" cy="6.71803184" r="1"></circle>
                    </g>
                </g>
            </g>
        </g>
    </g>
</svg>