<?xml version="1.0" encoding="UTF-8"?>
<svg width="80px" height="86px" viewBox="0 0 80 86" version="1.1" xmlns="http://www.w3.org/2000/svg" xmlns:xlink="http://www.w3.org/1999/xlink">
    <title>80241214-87E0-42CA-93BF-1199741F9FCD@3x</title>
    <g id="Layanan-Kami" stroke="none" stroke-width="1" fill="none" fill-rule="evenodd">
        <g id="Layanan-Kami-Baru" transform="translate(-306.000000, -1839.000000)" fill-rule="nonzero">
            <g id="ecommerce-svgrepo-com" transform="translate(306.000000, 1839.000000)">
                <g id="Group" transform="translate(2.666667, 29.333333)" fill="#FFFFFF">
                    <polygon id="Path" points="37.508 53.3333333 21.1586667 53.3333333 22.6666667 51.0706667 22.6666667 45.3333333 36 45.3333333 36 51.0706667"></polygon>
                    <rect id="Rectangle" x="0" y="34.6666667" width="58.6666667" height="8"></rect>
                    <path d="M58.6666667,32 L0,32 L0,0 L4,0 L4,24 L38.6666667,24 L38.6666667,0 L58.6666667,0 L58.6666667,5.33333333 L46.6666667,5.33333333 C44.4613333,5.33333333 42.6666667,7.128 42.6666667,9.33333333 L42.6666667,25.3333333 C42.6666667,27.5386667 44.4613333,29.3333333 46.6666667,29.3333333 L58.6666667,29.3333333 L58.6666667,32 Z" id="Path"></path>
                </g>
                <path d="M78.6666667,38.6666667 L78.6666667,54.6666667 C78.6666667,56.14 77.4733333,57.3333333 76,57.3333333 L49.3333333,57.3333333 C47.86,57.3333333 46.6666667,56.14 46.6666667,54.6666667 L46.6666667,38.6666667 C46.6666667,37.1933333 47.86,36 49.3333333,36 L76,36 C77.4733333,36 78.6666667,37.1933333 78.6666667,38.6666667 Z" id="Path" fill="#53B7E8"></path>
                <g id="Group" transform="translate(25.333333, 64.000000)" fill="#DCDDDE">
                    <rect id="Rectangle" x="6.66666667" y="0" width="30.6666667" height="8"></rect>
                    <path d="M17.3333333,20 L14.6666667,16 L14.6666667,9.33333333 L6.66666667,9.33333333 L6.66666667,10.6666667 L0,10.6666667 L0,12 L4,12 C5.47333333,12 6.66666667,13.1933333 6.66666667,14.6666667 L6.66666667,20 L17.3333333,20 Z" id="Path"></path>
                </g>
                <rect id="Rectangle" fill="#F9BA48" x="9.33333333" y="16" width="29.3333333" height="34.6666667"></rect>
                <g id="Group" fill="#0C3847">
                    <rect id="Rectangle" x="72" y="66.6666667" width="2.66666667" height="2.66666667"></rect>
                    <rect id="Rectangle" x="72" y="61.3333333" width="2.66666667" height="2.66666667"></rect>
                    <rect id="Rectangle" x="66.6666667" y="72" width="2.66666667" height="2.66666667"></rect>
                    <rect id="Rectangle" x="72" y="72" width="2.66666667" height="2.66666667"></rect>
                    <rect id="Rectangle" x="12" y="56" width="2.66666667" height="2.66666667"></rect>
                    <rect id="Rectangle" x="17.3333333" y="56" width="2.66666667" height="2.66666667"></rect>
                    <rect id="Rectangle" x="22.6666667" y="56" width="2.66666667" height="2.66666667"></rect>
                    <rect id="Rectangle" x="28" y="56" width="2.66666667" height="2.66666667"></rect>
                    <rect id="Rectangle" x="33.3333333" y="56" width="2.66666667" height="2.66666667"></rect>
                    <rect id="Rectangle" x="30.6666667" y="66.6666667" width="2.66666667" height="2.66666667"></rect>
                    <path d="M76,34.6666667 L64,34.6666667 L64,26.6666667 L41.3333333,26.6666667 L41.3333333,13.3333333 L32,13.3333333 L32,6.66666667 L31.88,6.66666667 C31.2413333,2.88933333 27.956,0 24,0 C20.044,0 16.7586667,2.88933333 16.12,6.66666667 L16,6.66666667 L16,13.3333333 L6.66666667,13.3333333 L6.66666667,26.6666667 L0,26.6666667 L0,74.6666667 L22.6666667,74.6666667 L22.6666667,79.596 L18.8413333,85.3333333 L45.1573333,85.3333333 L41.3333333,79.596 L41.3333333,74.6666667 L64,74.6666667 L64,58.6666667 L76,58.6666667 C78.2053333,58.6666667 80,56.872 80,54.6666667 L80,38.6666667 C80,36.4613333 78.2053333,34.6666667 76,34.6666667 Z M77.3333333,38.6666667 L77.3333333,40 L48,40 L48,38.6666667 C48,37.9306667 48.5986667,37.3333333 49.3333333,37.3333333 L76,37.3333333 C76.7346667,37.3333333 77.3333333,37.9306667 77.3333333,38.6666667 Z M18.6666667,8 C18.6666667,5.05866667 21.0586667,2.66666667 24,2.66666667 C26.9413333,2.66666667 29.3333333,5.05866667 29.3333333,8 L29.3333333,13.3333333 L18.6666667,13.3333333 L18.6666667,8 Z M9.33333333,16 L16,16 L16,22.6666667 L18.6666667,22.6666667 L18.6666667,16 L29.3333333,16 L29.3333333,22.6666667 L32,22.6666667 L32,16 L38.6666667,16 L38.6666667,50.6666667 L9.33333333,50.6666667 L9.33333333,16 Z M40.1746667,82.6666667 L23.8253333,82.6666667 L25.3333333,80.404 L25.3333333,74.6666667 L38.6666667,74.6666667 L38.6666667,80.404 L40.1746667,82.6666667 Z M61.3333333,72 L2.66666667,72 L2.66666667,64 L61.3333333,64 L61.3333333,72 Z M61.3333333,61.3333333 L2.66666667,61.3333333 L2.66666667,29.3333333 L6.66666667,29.3333333 L6.66666667,53.3333333 L41.3333333,53.3333333 L41.3333333,29.3333333 L61.3333333,29.3333333 L61.3333333,34.6666667 L49.3333333,34.6666667 C47.128,34.6666667 45.3333333,36.4613333 45.3333333,38.6666667 L45.3333333,54.6666667 C45.3333333,56.872 47.128,58.6666667 49.3333333,58.6666667 L61.3333333,58.6666667 L61.3333333,61.3333333 Z M76,56 L49.3333333,56 C48.5986667,56 48,55.4026667 48,54.6666667 L48,45.3333333 L77.3333333,45.3333333 L77.3333333,54.6666667 C77.3333333,55.4026667 76.7346667,56 76,56 Z" id="Shape"></path>
                </g>
                <g id="Group" transform="translate(50.666667, 50.666667)" fill="#FFFFFF">
                    <rect id="Rectangle" x="0" y="0" width="10.6666667" height="2.66666667"></rect>
                    <rect id="Rectangle" x="13.3333333" y="0" width="5.33333333" height="2.66666667"></rect>
                </g>
                <g id="Group" transform="translate(14.666667, 26.666667)" fill="#0C3847">
                    <polygon id="Rectangle" transform="translate(9.332114, 9.334208) rotate(135.000000) translate(-9.332114, -9.334208) " points="-1.42769982 8.0008873 20.0919271 8.0008873 20.0919271 10.6675284 -1.42769982 10.6675284"></polygon>
                    <path d="M4,8 C6.20533333,8 8,6.20533333 8,4 C8,1.79466667 6.20533333,0 4,0 C1.79466667,0 0,1.79466667 0,4 C0,6.20533333 1.79466667,8 4,8 Z M4,2.66666667 C4.73466667,2.66666667 5.33333333,3.264 5.33333333,4 C5.33333333,4.736 4.73466667,5.33333333 4,5.33333333 C3.26533333,5.33333333 2.66666667,4.736 2.66666667,4 C2.66666667,3.264 3.26533333,2.66666667 4,2.66666667 Z" id="Shape"></path>
                    <path d="M14.6666667,10.6666667 C12.4613333,10.6666667 10.6666667,12.4613333 10.6666667,14.6666667 C10.6666667,16.872 12.4613333,18.6666667 14.6666667,18.6666667 C16.872,18.6666667 18.6666667,16.872 18.6666667,14.6666667 C18.6666667,12.4613333 16.872,10.6666667 14.6666667,10.6666667 Z M14.6666667,16 C13.932,16 13.3333333,15.4026667 13.3333333,14.6666667 C13.3333333,13.9306667 13.932,13.3333333 14.6666667,13.3333333 C15.4013333,13.3333333 16,13.9306667 16,14.6666667 C16,15.4026667 15.4013333,16 14.6666667,16 Z" id="Shape"></path>
                </g>
            </g>
        </g>
    </g>
</svg>