<?xml version="1.0" encoding="UTF-8"?>
<svg width="61px" height="110px" viewBox="0 0 61 110" version="1.1" xmlns="http://www.w3.org/2000/svg" xmlns:xlink="http://www.w3.org/1999/xlink">
    <title>1E57838E-2B34-48B2-B834-2B94075A5347@3x</title>
    <g id="Layanan-Kami" stroke="none" stroke-width="1" fill="none" fill-rule="evenodd">
        <g id="Layanan-Kami-Baru" transform="translate(-853.000000, -1259.000000)">
            <g id="Group-2" transform="translate(853.000000, 1259.000000)">
                <g id="idea-svgrepo-com-(2)" transform="translate(1.000000, 0.000000)">
                    <path d="M47.1430179,30 C47.1430179,20.5317513 39.4682487,12.8572071 30.000225,12.8572071 C22.6031065,12.8572071 16.6072915,18.8530221 16.6072915,26.2501406 C16.6072915,27.2840182 16.7357668,28.2868457 16.9576174,29.2534481 L12.8572071,36.4287161 L17.1430179,37.5001688 L17.1430179,45.0001125 L21.4288286,45.0001125 L21.4288286,50.3573759 L38.5716214,50.3573759 L38.5716214,44.8255121 C43.6908342,41.8618047 47.1430179,36.3407409 47.1430179,30 Z" id="Path" fill="#F9BA48" fill-rule="nonzero"></path>
                    <path d="M38.5713964,49.2859232 L35.3570384,49.2859232 L35.3570384,38.6262966 C36.0203401,37.7510444 36.4284911,36.6730667 36.4284911,35.4913637 L36.4284911,35.2236131 C36.4284911,32.3436059 34.0853352,30.00045 31.205328,30.00045 L28.794672,30.00045 C27.0963677,30.00045 25.7144143,28.6182715 25.7144143,26.9201923 L25.7144143,26.6524416 C25.7144143,24.9541374 27.0965927,23.5721839 28.794672,23.5721839 L31.205328,23.5721839 C32.9036323,23.5721839 34.2855857,24.9543624 34.2855857,26.6524416 L34.2855857,26.786317 L36.4284911,26.786317 L36.4284911,26.6524416 C36.4284911,23.7724344 34.0853352,21.4292786 31.205328,21.4292786 L31.0714527,21.4292786 L31.0714527,18.2142455 L28.9285473,18.2142455 L28.9285473,21.4286036 L28.794672,21.4286036 C25.9146648,21.4286036 23.5715089,23.7717594 23.5715089,26.6517666 L23.5715089,26.9195173 C23.5715089,29.7995245 25.9146648,32.1426804 28.794672,32.1426804 L31.205328,32.1426804 C32.9036323,32.1426804 34.2855857,33.5248588 34.2855857,35.2229381 L34.2855857,35.4906887 C34.2855857,37.188993 32.9034073,38.5709464 31.205328,38.5709464 L28.794672,38.5709464 C27.0963677,38.5709464 25.7144143,37.4994937 25.7144143,35.3565884 L23.5715089,35.3565884 C23.5715089,36.4280411 23.9796599,37.7490194 24.6429616,38.6256216 L24.6429616,49.2852482 L21.4286036,49.2852482 C19.6564991,49.2852482 18.2142455,50.7275018 18.2142455,52.4996062 C18.2142455,53.6405841 18.816347,54.6393616 19.7152243,55.209288 C19.4494986,55.6775142 19.2854732,56.2100905 19.2854732,56.785417 C19.2854732,57.9263948 19.8875747,58.9251723 20.786452,59.4950987 C20.5207263,59.9633249 20.3567009,60.4959012 20.3567009,61.0712277 C20.3567009,62.8433321 21.7989545,64.2855857 23.5710589,64.2855857 L36.4282661,64.2855857 C38.2003705,64.2855857 39.6426241,62.8433321 39.6426241,61.0712277 C39.6426241,60.4959012 39.4785987,59.9633249 39.212873,59.4950987 C40.1117503,58.9251723 40.7138518,57.9266198 40.7138518,56.785417 C40.7138518,56.2100905 40.5498264,55.6775142 40.2841007,55.209288 C41.182978,54.6393616 41.7850797,53.6408091 41.7850797,52.4996062 C41.7857545,50.7279518 40.3437259,49.2859232 38.5713964,49.2859232 Z M26.785642,40.3104258 C27.4048435,40.5696264 28.0832202,40.7143018 28.794672,40.7143018 L28.9285473,40.7143018 L28.9285473,43.9286598 L31.0714527,43.9286598 L31.0714527,40.7143018 L31.205328,40.7143018 C31.9167798,40.7143018 32.5949315,40.5696264 33.214358,40.3104258 L33.214358,49.2856982 L26.785867,49.2856982 L26.785867,40.3104258 L26.785642,40.3104258 L26.785642,40.3104258 Z M21.4286036,51.4286036 L38.5713964,51.4286036 C39.1629229,51.4286036 39.6428491,51.9085298 39.6428491,52.5000563 C39.6428491,53.0915827 39.1629229,53.5715089 38.5713964,53.5715089 L37.4999437,53.5715089 L22.4998312,53.5715089 L21.4283786,53.5715089 C20.8368521,53.5715089 20.3569259,53.0915827 20.3569259,52.5000563 C20.3571509,51.9087548 20.8370771,51.4286036 21.4286036,51.4286036 Z M38.5713964,56.785867 C38.5713964,57.3773934 38.0914702,57.8573196 37.4999437,57.8573196 L36.4284911,57.8573196 L23.5712839,57.8573196 L22.4998312,57.8573196 C21.9083048,57.8573196 21.4283786,57.3773934 21.4283786,56.785867 C21.4283786,56.1943405 21.9083048,55.7144143 22.4998312,55.7144143 L37.4999437,55.7144143 C38.0914702,55.7144143 38.5713964,56.1943405 38.5713964,56.785867 Z M36.4287161,62.1429054 L23.5715089,62.1429054 C22.9799824,62.1429054 22.5000563,61.6629792 22.5000563,61.0714527 C22.5000563,60.4799262 22.9799824,60 23.5715089,60 L36.4287161,60 C37.0202426,60 37.5001688,60.4799262 37.5001688,61.0714527 C37.4999437,61.6629792 37.0200176,62.1429054 36.4287161,62.1429054 Z" id="Shape" fill="#333333" fill-rule="nonzero"></path>
                    <rect id="Rectangle" fill="#333333" fill-rule="nonzero" x="28.9285473" y="0" width="2.14290536" height="7.49994375"></rect>
                    <polygon id="Rectangle" fill="#333333" fill-rule="nonzero" transform="translate(16.875359, 7.267229) rotate(-29.992901) translate(-16.875359, -7.267229) " points="15.8038903 3.51709017 17.946827 3.51709017 17.946827 11.0173685 15.8038903 11.0173685"></polygon>
                    <polygon id="Rectangle" fill="#333333" fill-rule="nonzero" transform="translate(7.265950, 16.876178) rotate(-59.999272) translate(-7.265950, -16.876178) " points="6.19452081 13.1264007 8.33737902 13.1264007 8.33737902 20.6259544 6.19452081 20.6259544"></polygon>
                    <rect id="Rectangle" fill="#333333" fill-rule="nonzero" x="0" y="28.9285473" width="7.49994375" height="2.14290536"></rect>
                    <polygon id="Rectangle" fill="#333333" fill-rule="nonzero" transform="translate(7.265532, 43.126848) rotate(-29.992901) translate(-7.265532, -43.126848) " points="3.51539272 42.0553796 11.015671 42.0553796 11.015671 44.1983163 3.51539272 44.1983163"></polygon>
                    <polygon id="Rectangle" fill="#333333" fill-rule="nonzero" transform="translate(52.732815, 43.127890) rotate(-59.999272) translate(-52.732815, -43.127890) " points="51.6613862 39.3781131 53.8042444 39.3781131 53.8042444 46.8776669 51.6613862 46.8776669"></polygon>
                    <rect id="Rectangle" fill="#333333" fill-rule="nonzero" x="52.5000563" y="28.9285473" width="7.49994375" height="2.14290536"></rect>
                    <polygon id="Rectangle" fill="#333333" fill-rule="nonzero" transform="translate(52.734602, 16.876426) rotate(-29.992901) translate(-52.734602, -16.876426) " points="48.9844633 15.8049581 56.4847416 15.8049581 56.4847416 17.9478948 48.9844633 17.9478948"></polygon>
                    <polygon id="Rectangle" fill="#333333" fill-rule="nonzero" transform="translate(43.124054, 7.265158) rotate(-60.007099) translate(-43.124054, -7.265158) " points="39.3739148 6.19368922 46.8741931 6.19368922 46.8741931 8.33662589 39.3739148 8.33662589"></polygon>
                    <rect id="Rectangle" fill="#F9BA48" x="22.2857143" y="16.7142857" width="15.4285714" height="32.5714286"></rect>
                    <rect id="Rectangle" fill="#333333" x="28.2857143" y="20.1428571" width="4.28571429" height="17.1428571"></rect>
                    <rect id="Rectangle" fill="#333333" x="28.2857143" y="39.8571429" width="4.28571429" height="4.28571429"></rect>
                </g>
                <g id="insurance-svgrepo-com-(1)" transform="translate(0.000000, 52.329143)" fill-rule="nonzero">
                    <path d="M58.9402071,1.8745084 C58.1253111,0.841817785 56.9568489,0.188300542 55.6500812,0.0343905623 C52.952522,-0.283832324 50.5002319,1.65244591 50.182009,4.3497383 L48.360163,19.812223 C47.4283008,19.5484154 46.4394892,19.5660204 45.4984243,19.8735736 C44.2779475,20.2720858 43.2803335,21.1112552 42.6794977,22.2418401 L33.0175787,36.3830196 C32.4378155,37.1528363 31.0539594,39.0114927 29.9999295,40.5894034 C28.9458995,39.0114927 27.5620434,37.1529696 26.9822803,36.3830196 L17.3204946,22.2417067 C16.7196589,21.1111219 15.7220448,20.2722191 14.501568,19.8734402 C13.5603698,19.5660204 12.5715582,19.5480153 11.6398293,19.8120896 L9.81798331,4.34933819 C9.49976042,1.65231254 7.04800379,-0.284099066 4.34991117,0.0342571915 C3.04341017,0.188300542 1.87494801,0.841684414 1.05978528,1.87437503 C0.24475592,2.90706564 -0.119479915,4.19556158 0.0345634357,5.50206258 C0.03523029,5.5069973 0.0357637735,5.51179866 0.0364306278,5.51660001 L1.93536502,20.255281 C2.41483328,23.9771284 3.62063928,27.5053213 5.51877344,30.7418321 C5.53784548,30.7741079 5.55798448,30.8055834 5.57959056,30.8362587 L15.7872632,45.3472756 C16.2752672,46.1066893 16.646705,46.9305212 16.8925075,47.7983654 L16.8925075,53.2312276 C16.8925075,53.3481939 16.9075784,53.4646267 16.9374535,53.5778585 C17.5305537,55.8286253 19.6614201,57.1722034 22.6379911,57.1722034 L37.3621347,57.1722034 C40.3387056,57.1722034 42.469572,55.8284919 43.0625388,53.5779919 C43.0922805,53.46476 43.1074848,53.3483273 43.1074848,53.231361 L43.1074848,47.7984988 C43.3532873,46.9306546 43.7245918,46.1068227 44.2127292,45.347409 L54.4204018,30.8363921 C54.4420079,30.8058501 54.4622802,30.7742412 54.4812189,30.7419655 C56.3793531,27.5054547 57.5848923,23.9772618 58.0646273,20.2554144 L59.9635617,5.51673338 C59.9642286,5.51179866 59.964762,5.5069973 59.9654289,5.50219595 C60.1194723,4.19556158 59.7553698,2.90719901 58.9402071,1.8745084 Z M28.6400801,54.4515711 L22.6381244,54.4515711 C21.6823888,54.4515711 20.0525968,54.2625845 19.6134066,53.0301044 L19.6134066,47.6161808 C19.6134066,47.4993479 19.598469,47.3829152 19.5684606,47.2698167 C19.2485039,46.0546747 18.7404942,44.9036841 18.0583023,43.848854 C18.0488329,43.8339164 18.0386967,43.8192456 18.0285606,43.8048416 L7.83782606,29.3178314 C6.14214887,26.4119469 5.06411216,23.2462561 4.63399112,19.9078499 L2.7361237,5.17703778 C2.66917152,4.59434047 2.83228409,4.02031226 3.1957197,3.55964929 C3.56062239,3.09738587 4.08356955,2.80477019 4.66853417,2.73581745 C5.87767444,2.59431096 6.97411633,3.460288 7.11628968,4.66756107 L9.10538277,21.5504455 C8.06108889,22.9340349 7.78381086,24.8222996 8.52908726,26.5082407 C8.56456391,26.5886633 8.60244124,26.6682858 8.64258587,26.747508 C8.66819307,26.7980556 8.69686781,26.8470027 8.72874345,26.8939493 L12.6259735,32.6685076 C12.8888475,33.0578172 13.3177682,33.2680097 13.7546912,33.2680097 C14.0164982,33.2680097 14.281106,33.1925218 14.5143716,33.0351441 C15.1370802,32.6147592 15.3012597,31.7694546 14.8810081,31.1466127 L11.0364595,25.450343 C11.0299244,25.4362057 11.0233892,25.4220684 11.0171208,25.4080644 C10.5537904,24.3592359 10.9760425,23.1360917 11.9764574,22.5880708 C12.5015385,22.3223961 13.0982398,22.2765165 13.6571971,22.4591012 C14.2170879,22.6419527 14.6721493,23.0319291 14.9387577,23.5571436 C14.9652985,23.6096917 14.995307,23.6602392 15.0285163,23.7089196 L24.7540532,37.9433254 C24.7659232,37.9606636 24.7783267,37.9777351 24.7908636,37.9944064 C26.366507,40.0855282 28.1806175,42.6571853 28.6400801,43.5367661 L28.6400801,54.4515711 L28.6400801,54.4515711 Z M57.2644021,5.17703778 L55.3665347,19.9077166 C54.9364137,23.2461227 53.858377,26.4116802 52.1626998,29.317698 L41.9719653,43.8047082 C41.9616957,43.8191123 41.9518263,43.8337831 41.9422236,43.8487206 C41.2600316,44.9035508 40.752022,46.0546747 40.4320652,47.2696833 C40.4021902,47.3827818 40.3871193,47.4992146 40.3871193,47.6160474 L40.3871193,53.029971 C39.947929,54.2625845 38.318137,54.4514377 37.3624014,54.4514377 L31.3605791,54.4514377 L31.3605791,43.5370329 C31.8200417,42.657452 33.6341522,40.0859283 35.2097956,37.9945398 C35.2224659,37.9778684 35.2348693,37.9606636 35.246606,37.9434588 L44.9721429,23.709053 C45.0053522,23.660506 45.0353607,23.6096917 45.0619015,23.5572769 C45.3285098,23.0320625 45.7835712,22.642086 46.3434621,22.4592346 C46.9025528,22.2766499 47.4995208,22.3225295 48.0240684,22.5882042 C49.0242165,23.1362251 49.4466021,24.3593693 48.9835384,25.4076643 C48.9771366,25.421935 48.9706015,25.4362057 48.9639329,25.4504764 L45.1193843,31.1467461 C44.6989994,31.7694546 44.8631789,32.6148926 45.4860208,33.0352775 C45.7192865,33.1927885 45.9838943,33.2681431 46.2457013,33.2681431 C46.6824909,33.2681431 47.1116783,33.0580839 47.3744189,32.668641 L51.271649,26.8940826 C51.3033913,26.8470027 51.332066,26.798189 51.3578066,26.7476414 C51.3979512,26.6684191 51.4356952,26.5887967 51.4715719,26.5078406 C52.2165816,24.8221662 51.9391702,22.9340349 50.8950097,21.5505789 L52.8841028,4.66782782 C53.0265429,3.460288 54.1221845,2.59391085 55.3318583,2.73581745 C55.9168229,2.80477019 56.4397701,3.09738587 56.8046728,3.55964929 C57.1682417,4.02044563 57.3313543,4.59447384 57.2644021,5.17703778 Z" id="Shape" fill="#333333"></path>
                    <path d="M33.8090014,43.4334037 C33.0578567,43.4334037 32.448752,44.0423751 32.448752,44.7936532 L32.448752,45.0657297 C32.448752,45.8170078 33.0578567,46.4259792 33.8090014,46.4259792 C34.5601461,46.4259792 35.1692509,45.8170078 35.1692509,45.0657297 L35.1692509,44.7936532 C35.1692509,44.0423751 34.5602795,43.4334037 33.8090014,43.4334037 Z" id="Path" fill="#000000"></path>
                    <path d="M33.8090014,47.6501904 C33.0578567,47.6501904 32.448752,48.2591618 32.448752,49.0104398 L32.448752,52.2750919 C32.448752,53.02637 33.0578567,53.6353414 33.8090014,53.6353414 C34.5601461,53.6353414 35.1692509,53.02637 35.1692509,52.2750919 L35.1692509,49.0104398 C35.1692509,48.2591618 34.5602795,47.6501904 33.8090014,47.6501904 Z" id="Path" fill="#000000"></path>
                </g>
            </g>
        </g>
    </g>
</svg>