<?xml version="1.0" encoding="UTF-8"?>
<svg width="70px" height="87px" viewBox="0 0 70 87" version="1.1" xmlns="http://www.w3.org/2000/svg" xmlns:xlink="http://www.w3.org/1999/xlink">
    <title>1DE65FAE-59A8-496C-B028-0E6CCC2B275B@3x</title>
    <g id="Layanan-Kami" stroke="none" stroke-width="1" fill="none" fill-rule="evenodd">
        <g id="Layanan-Kami-Baru" transform="translate(-705.000000, -1837.000000)">
            <g id="Group-3" transform="translate(705.000000, 1837.000000)">
                <circle id="Oval" fill="#F9BA48" cx="35" cy="49" r="35"></circle>
                <g id="app-development" transform="translate(10.000000, 0.000000)">
                    <rect id="Rectangle" fill="#FFFFFF" x="3" y="9" width="44" height="65"></rect>
                    <path d="M9.33163265,38.5102041 C8.67857143,38.5102041 8.14795918,37.9812925 8.14795918,37.3265306 C8.14795918,36.6751701 8.67857143,36.1445578 9.33163265,36.1445578 L40.6683673,36.1445578 C41.3214286,36.1445578 41.8520408,36.6751701 41.8520408,37.3265306 C41.8520408,37.9812925 41.3214286,38.5102041 40.6683673,38.5102041 L9.33163265,38.5102041 Z M9.33163265,45.4897959 C8.67857143,45.4897959 8.14795918,44.9608844 8.14795918,44.3078231 C8.14795918,43.6547619 8.67857143,43.1241497 9.33163265,43.1241497 L39.5119048,43.1241497 C40.164966,43.1241497 40.6955782,43.6547619 40.6955782,44.3078231 C40.6955782,44.9608844 40.164966,45.4897959 39.5119048,45.4897959 L9.33163265,45.4897959 Z M9.33163265,52.4710884 C8.67857143,52.4710884 8.14795918,51.9404762 8.14795918,51.287415 C8.14795918,50.6343537 8.67857143,50.1054422 9.33163265,50.1054422 L35.1054422,50.1054422 C35.7585034,50.1054422 36.2891156,50.6343537 36.2891156,51.287415 C36.2891156,51.9404762 35.7585034,52.4710884 35.1054422,52.4710884 L9.33163265,52.4710884 Z M9.33163265,66.4319728 C8.67857143,66.4319728 8.14795918,65.9013605 8.14795918,65.2482993 C8.14795918,64.5952381 8.67857143,64.0646259 9.33163265,64.0646259 L17.5646259,64.0646259 C18.2176871,64.0646259 18.7482993,64.5952381 18.7482993,65.2482993 C18.7482993,65.9013605 18.2176871,66.4319728 17.5646259,66.4319728 L9.33163265,66.4319728 Z M9.33163265,59.4506803 C8.67857143,59.4506803 8.14795918,58.9217687 8.14795918,58.2687075 C8.14795918,57.6156463 8.67857143,57.085034 9.33163265,57.085034 L22.4268707,57.085034 C23.079932,57.085034 23.6105442,57.6156463 23.6105442,58.2687075 C23.6105442,58.9217687 23.079932,59.4506803 22.4268707,59.4506803 L9.33163265,59.4506803 Z M9.39115646,0 L40.6105442,0 C45.7959184,0 50,4.21088435 50,9.39285714 L50,77.537415 C50,82.7227891 45.7959184,86.9285714 40.6105442,86.9285714 L9.39115646,86.9285714 C4.20578231,86.9285714 0,82.7227891 0,77.537415 L0,9.38095238 C0,4.18367347 4.19727891,0 9.39115646,0 Z M3.23469388,73.8826531 L46.7517007,73.8826531 L46.7517007,9.30272109 L3.23469388,9.30272109 L3.23469388,73.8826531 Z M24.9880952,76.8214286 C27.1122449,76.8214286 28.8486395,78.5323129 28.8486395,80.6819728 C28.8486395,82.8095238 27.1394558,84.5442177 24.9880952,84.5442177 C22.8639456,84.5442177 21.1258503,82.835034 21.1258503,80.6819728 C21.1258503,78.5595238 22.8367347,76.8214286 24.9880952,76.8214286 Z" id="Shape" fill="#000000"></path>
                    <path d="M20.2397959,14.7619048 C20.2397959,13.8384354 20.5034014,12.9812925 20.9591837,12.2517007 L29.0408163,12.2517007 C29.4965986,12.9761905 29.7602041,13.8384354 29.7602041,14.7619048 C29.7602041,17.3894558 27.627551,19.5204082 25,19.5204082 C22.372449,19.5204082 20.2397959,17.3894558 20.2397959,14.7619048 Z" id="Path" fill="#53B7E8"></path>
                    <path d="M38.7380952,14.9421769 L38.7380952,15.9387755 C38.7380952,16.8707483 37.9761905,17.6343537 37.042517,17.6343537 L35.3078231,17.6343537 C35.0867347,18.6122449 34.7312925,19.5391156 34.2619048,20.3945578 L35.420068,21.5527211 C36.0782313,22.212585 36.0782313,23.2908163 35.420068,23.9506803 L34.0102041,25.3605442 C33.3503401,26.0204082 32.2721088,26.0204082 31.6122449,25.3605442 L30.5561224,24.3061224 C29.6681367,24.8585287 28.7029286,25.2757921 27.6921769,25.5442177 L27.6921769,26.9846939 C27.6921769,27.9166667 26.9285714,28.6802721 25.9965986,28.6802721 L24.0034014,28.6802721 C23.0697279,28.6802721 22.3078231,27.9166667 22.3078231,26.9846939 L22.3078231,25.5646259 C21.2873663,25.3012365 20.3122193,24.8861828 19.414966,24.3333333 L18.3877551,25.3605442 C17.7278912,26.0204082 16.6479592,26.0204082 15.9897959,25.3605442 L14.579932,23.9506803 C13.920068,23.292517 13.920068,22.212585 14.579932,21.5527211 L15.6904762,20.4438776 C15.1998187,19.563709 14.8384033,18.6174995 14.6173469,17.6343537 L12.9557823,17.6343537 C12.0238095,17.6343537 11.2602041,16.8707483 11.2602041,15.9387755 L11.2602041,13.9455782 C11.2602041,13.0391156 11.9795918,12.2942177 12.8758503,12.2517007 L18.5527211,12.2517007 C18.2804701,13.0006422 18.1417454,13.791546 18.1428571,14.5884354 C18.1428571,14.7057823 18.1445578,14.8248299 18.1513605,14.9421769 C18.1445578,15.0595238 18.1428571,15.1768707 18.1428571,15.2942177 C18.1428571,19.0612245 21.1955782,22.1156463 24.962585,22.1156463 C28.7295918,22.1156463 31.7823129,19.0612245 31.7823129,15.2942177 C31.7823129,15.1768707 31.7806122,15.0595238 31.7738095,14.9421769 C31.7806122,14.8248299 31.7823129,14.7057823 31.7823129,14.5884354 C31.7823129,13.7670068 31.6377551,12.9795918 31.372449,12.2517007 L37.1241497,12.2517007 C38.0187075,12.2942177 38.7380952,13.0391156 38.7380952,13.9455782 L38.7380952,14.9421769 L38.7380952,14.9421769 Z" id="Path" fill="#53B7E8"></path>
                    <path d="M30.6139456,66.3537415 C31.0292819,66.717846 31.0711439,67.3495813 30.707483,67.7653061 C30.3452381,68.1802721 29.712585,68.2210884 29.297619,67.8588435 L26.1462585,65.0969388 C25.7312925,64.7346939 25.6904762,64.1020408 26.0527211,63.6870748 L26.1547619,63.5867347 L29.297619,60.8333333 C29.4969476,60.6587 29.757506,60.5704396 30.0219317,60.5879829 C30.2863573,60.6055262 30.532972,60.727435 30.707483,60.9268707 C30.8820733,61.1262187 30.9703055,61.3867668 30.9527631,61.6511787 C30.9352207,61.9155905 30.8133412,62.1621989 30.6139456,62.3367347 L28.3214286,64.3452381 L30.6139456,66.3537415 L30.6139456,66.3537415 Z" id="Path" fill="#F9BA48"></path>
                    <path d="M38.1751701,67.8588435 C37.7597509,68.2215495 37.1291677,68.1797135 36.7653061,67.7653061 C36.4030612,67.3486395 36.4438776,66.7176871 36.8588435,66.3537415 L39.1513605,64.3452381 L36.8588435,62.3367347 C36.4436907,61.9732412 36.4018126,61.3420236 36.7653061,60.9268707 C37.1287997,60.5117179 37.7600172,60.4698398 38.1751701,60.8333333 L41.3197279,63.5867347 L41.420068,63.6870748 C41.5947014,63.8864034 41.6829618,64.1469618 41.6654184,64.4113874 C41.6478751,64.6758131 41.5259664,64.9224278 41.3265306,65.0969388 L38.1751701,67.8588435 L38.1751701,67.8588435 Z" id="Path" fill="#F9BA48"></path>
                    <path d="M33.5544218,60.2619048 C33.6802721,59.7244898 34.2193878,59.3894558 34.7585034,59.5136054 C35.2959184,59.6394558 35.6309524,60.1785714 35.5068027,60.7176871 L33.7057823,68.4285714 C33.579932,68.9659864 33.0408163,69.3027211 32.5034014,69.1768707 C31.9649104,69.0510485 31.6295721,68.5134425 31.7534014,67.9744898 L33.5544218,60.2619048 L33.5544218,60.2619048 Z" id="Path" fill="#F9BA48"></path>
                </g>
            </g>
        </g>
    </g>
</svg>