<?xml version="1.0" encoding="UTF-8"?>
<svg width="100px" height="100px" viewBox="0 0 100 100" version="1.1" xmlns="http://www.w3.org/2000/svg" xmlns:xlink="http://www.w3.org/1999/xlink">
    <title>F750C92C-5E18-4876-B2A6-D3BF8F55E657@3x</title>
    <g id="Layanan-Kami" stroke="none" stroke-width="1" fill="none" fill-rule="evenodd">
        <g id="Layanan-Kami-Baru" transform="translate(-833.000000, -1412.000000)">
            <g id="users-svgrepo-com-(1)" transform="translate(833.000000, 1412.000000)">
                <path d="M18.1420202,79.0047475 C22.7990963,79.0047475 27.0217293,80.8997147 30.0803013,83.9583208 C33.1388957,87.0169492 35.0338384,91.2396581 35.0338384,95.8967677 L35.0338384,95.8967677 L35.0338384,98.6871717 L1.25,98.6871717 L1.25,95.8967677 C1.25,91.2396489 3.14495053,87.0169326 6.2035797,83.9583034 C9.26217756,80.8997056 13.4848553,79.0047475 18.1420202,79.0047475 Z" id="Path" stroke="#333333" stroke-width="2.5" fill="#FFFFFF"></path>
                <path d="M81.8579798,79.0047475 C86.5151447,79.0047475 90.7378224,80.8997056 93.7964203,83.9583034 C96.8550495,87.0169326 98.75,91.2396489 98.75,95.8967677 L98.75,95.8967677 L98.75,98.6871717 L64.9659596,98.6871717 L64.9659596,95.8967677 C64.9659596,91.2396489 66.8609101,87.0169326 69.9195393,83.9583034 C72.9781372,80.8997056 77.2008149,79.0047475 81.8579798,79.0047475 Z" id="Path" stroke="#333333" stroke-width="2.5" fill="#FFFFFF"></path>
                <path d="M50,27.1031313 C54.6571888,27.1031313 58.8798878,28.9980588 61.9384903,32.0566613 C64.9970927,35.1152637 66.8920202,39.3379627 66.8920202,43.9951515 L66.8920202,43.9951515 L66.8920202,46.7855556 L33.1079798,46.7855556 L33.1079798,43.9951515 C33.1079798,39.3380328 35.0029303,35.1153164 38.0615595,32.0566873 C41.1201574,28.9980894 45.3428351,27.1031313 50,27.1031313 Z" id="Path" stroke="#333333" stroke-width="2.5" fill="#FFFFFF"></path>
                <circle id="Oval" stroke="#333333" stroke-width="2.5" fill="#FFFFFF" cx="50" cy="11" r="9.75"></circle>
                <circle id="Oval" stroke="#333333" stroke-width="2.5" fill="#FFFFFF" cx="18" cy="63" r="9.75"></circle>
                <circle id="Oval" stroke="#333333" stroke-width="2.5" fill="#FFFFFF" cx="82" cy="63" r="9.75"></circle>
                <polygon id="Path" fill="#F9BA48" fill-rule="nonzero" points="54.040404 67.2519192 54.040404 54.0729293 45.959596 54.0729293 45.959596 67.2519192 34.5462626 73.8414141 38.5866667 80.839596 50 74.250101 61.4133333 80.839596 65.4537374 73.8414141"></polygon>
            </g>
        </g>
    </g>
</svg>