<?xml version="1.0" encoding="UTF-8"?>
<svg width="95px" height="64px" viewBox="0 0 95 64" version="1.1" xmlns="http://www.w3.org/2000/svg" xmlns:xlink="http://www.w3.org/1999/xlink">
    <title>985AB85D-35CC-4F7C-85BC-3FA307F4F268@3x</title>
    <g id="Layanan-Kami" stroke="none" stroke-width="1" fill="none" fill-rule="evenodd">
        <g id="Layanan-Kami-Baru" transform="translate(-292.000000, -2082.000000)">
            <g id="video-promotion-advertising-marketing-svgrepo-com" transform="translate(292.000000, 2082.000000)">
                <circle id="Oval" cx="7.825" cy="11.5" r="1.342"></circle>
                <path d="M3.857,14.509 C4.2063232,14.3853518 4.59538297,14.4650109 4.868,14.716 C5.34118609,15.1511936 5.90458332,15.4765981 6.518,15.669 C6.87174759,15.7795179 7.13536311,16.0766145 7.203,16.441 L7.363,17.306 C7.67049248,17.3310053 7.97950752,17.3310053 8.287,17.306 L8.447,16.441 C8.51446308,16.0768651 8.7776409,15.7798281 9.131,15.669 C9.74483896,15.4768837 10.3086217,15.1514537 10.782,14.716 C11.054617,14.4650109 11.4436768,14.3853518 11.793,14.509 L12.622,14.803 C12.7973028,14.5492165 12.9518059,14.2816788 13.084,14.003 L12.415,13.432 C12.1329934,13.1914837 12.0071477,12.8147163 12.088,12.453 C12.2290002,11.8254898 12.2290002,11.1745102 12.088,10.547 C12.0071477,10.1852837 12.1329934,9.80851626 12.415,9.568 L13.084,9 C12.951802,8.72132327 12.7972992,8.4537858 12.622,8.2 L11.793,8.494 C11.4436768,8.61764823 11.054617,8.53798911 10.782,8.287 C10.3086217,7.85154633 9.74483896,7.52611634 9.131,7.334 C8.7776409,7.2231719 8.51446308,6.92613494 8.447,6.562 L8.287,5.697 L8.287,5.697 C7.97983921,5.67204884 7.67116079,5.67204884 7.364,5.697 L7.204,6.562 C7.13636311,6.92638552 6.87274759,7.22348213 6.519,7.334 C5.90558332,7.52640187 5.34218609,7.85180645 4.869,8.287 C4.59638297,8.53798911 4.2073232,8.61764823 3.858,8.494 L3.028,8.2 C2.85305984,8.45401275 2.69857396,8.72152077 2.566,9 L3.236,9.571 C3.51764012,9.81174124 3.64308896,10.1884726 3.562,10.55 C3.42199001,11.1776197 3.42199001,11.8283803 3.562,12.456 C3.64308896,12.8175274 3.51764012,13.1942588 3.236,13.435 L2.565,14 C2.69757023,14.2784812 2.85205628,14.5459895 3.027,14.8 L3.857,14.509 Z M7.825,8.158 C9.67073563,8.158 11.167,9.65426437 11.167,11.5 C11.167,13.3457356 9.67073563,14.842 7.825,14.842 C5.97926437,14.842 4.483,13.3457356 4.483,11.5 C4.48410331,9.65472156 5.97972156,8.15910331 7.825,8.158 L7.825,8.158 Z" id="Shape" fill="#F9BA48" fill-rule="nonzero"></path>
                <path d="M0.422,14.035 C0.750280013,14.9939999 1.26175651,15.8800837 1.928,16.644 C2.1978173,16.9532702 2.62921132,17.0662732 3.016,16.929 L3.989,16.584 C4.40569789,16.8983354 4.85942856,17.1602969 5.34,17.364 L5.528,18.379 C5.60230033,18.7824711 5.91549535,19.0996306 6.318,19.179 C7.31277319,19.3749752 8.33622681,19.3749752 9.331,19.179 C9.73389273,19.0999966 10.0475597,18.7827607 10.122,18.379 L10.31,17.364 C10.790352,17.1598567 11.2440306,16.8979253 11.661,16.584 L12.634,16.929 C13.0204975,17.0658173 13.4513523,16.9528517 13.721,16.644 C14.3875176,15.8801083 14.8993271,14.9940361 15.228,14.035 C15.3603918,13.6460459 15.2414004,13.2156935 14.928,12.95 L14.143,12.28 C14.2070254,11.7619708 14.2070254,11.2380292 14.143,10.72 L14.928,10.05 C15.2414004,9.78430646 15.3603918,9.35395406 15.228,8.965 C14.8993271,8.00596389 14.3875176,7.11989165 13.721,6.356 C13.4513523,6.04714828 13.0204975,5.93418267 12.634,6.071 L11.66,6.416 C11.2435198,6.10187817 10.7901469,5.83992939 10.31,5.636 L10.122,4.621 C10.0475597,4.21723926 9.73389273,3.90000337 9.331,3.821 C8.33622681,3.62502482 7.31277319,3.62502482 6.318,3.821 C5.91549535,3.90036936 5.60230033,4.21752888 5.528,4.621 L5.339,5.636 C4.85896928,5.84016224 4.40562387,6.10209514 3.989,6.416 L3.016,6.071 C2.62921132,5.9337268 2.1978173,6.04672983 1.928,6.356 C1.26177728,7.11993117 0.75030325,8.00601067 0.422,8.965 C0.289608155,9.35395406 0.408599602,9.78430646 0.722,10.05 L1.507,10.72 C1.44297465,11.2380292 1.44297465,11.7619708 1.507,12.28 L0.722,12.95 C0.408599602,13.2156935 0.289608155,13.6460459 0.422,14.035 Z M3.235,13.435 C3.51664012,13.1942588 3.64208896,12.8175274 3.561,12.456 C3.42099001,11.8283803 3.42099001,11.1776197 3.561,10.55 C3.64208896,10.1884726 3.51664012,9.81174124 3.235,9.571 L2.565,9 C2.69757396,8.72152077 2.85205984,8.45401275 3.027,8.2 L3.857,8.494 C4.2063232,8.61764823 4.59538297,8.53798911 4.868,8.287 C5.34118609,7.85180645 5.90458332,7.52640187 6.518,7.334 C6.87174759,7.22348213 7.13536311,6.92638552 7.203,6.562 L7.363,5.697 C7.67016079,5.67204884 7.97883921,5.67204884 8.286,5.697 L8.286,5.697 L8.446,6.562 C8.51346308,6.92613494 8.7766409,7.2231719 9.13,7.334 C9.74383896,7.52611634 10.3076217,7.85154633 10.781,8.287 C11.053617,8.53798911 11.4426768,8.61764823 11.792,8.494 L12.621,8.2 C12.7962992,8.4537858 12.950802,8.72132327 13.083,9 L12.414,9.571 C12.1319934,9.81151626 12.0061477,10.1882837 12.087,10.55 C12.2280002,11.1775102 12.2280002,11.8284898 12.087,12.456 C12.0061477,12.8177163 12.1319934,13.1944837 12.414,13.435 L13.083,14.006 C12.9508059,14.2846788 12.7963028,14.5522165 12.621,14.806 L11.792,14.512 C11.4426768,14.3883518 11.053617,14.4680109 10.781,14.719 C10.3076217,15.1544537 9.74383896,15.4798837 9.13,15.672 C8.7766409,15.7828281 8.51346308,16.0798651 8.446,16.444 L8.286,17.309 C7.97850752,17.3340053 7.66949248,17.3340053 7.362,17.309 L7.202,16.444 C7.13436311,16.0796145 6.87074759,15.7825179 6.517,15.672 C5.90358332,15.4795981 5.34018609,15.1541936 4.867,14.719 C4.59438297,14.4680109 4.2053232,14.3883518 3.856,14.512 L3.026,14.806 C2.85105628,14.5519895 2.69657023,14.2844812 2.564,14.006 L3.235,13.435 Z" id="Shape" fill="#000000" fill-rule="nonzero"></path>
                <path d="M7.825,14.842 C9.67073563,14.842 11.167,13.3457356 11.167,11.5 C11.167,9.65426437 9.67073563,8.158 7.825,8.158 C5.97926437,8.158 4.483,9.65426437 4.483,11.5 C4.48410331,13.3452784 5.97972156,14.8408967 7.825,14.842 L7.825,14.842 Z M7.825,10.158 C8.56616613,10.158 9.167,10.7588339 9.167,11.5 C9.167,12.2411661 8.56616613,12.842 7.825,12.842 C7.08383387,12.842 6.483,12.2411661 6.483,11.5 C6.4835515,10.7590624 7.08406242,10.1585515 7.825,10.158 L7.825,10.158 Z" id="Shape" fill="#000000" fill-rule="nonzero"></path>
                <rect id="Rectangle" fill="#FFFFFF" fill-rule="nonzero" x="30" y="51.846" width="3.091" height="4.154"></rect>
                <path d="M34.091,49.846 L29,49.846 C28.4477153,49.846 28,50.2937153 28,50.846 L28,57 C28,57.5522847 28.4477153,58 29,58 L34.091,58 C34.6432847,58 35.091,57.5522847 35.091,57 L35.091,50.846 C35.091,50.2937153 34.6432847,49.846 34.091,49.846 Z M33.091,56 L30,56 L30,51.846 L33.091,51.846 L33.091,56 Z" id="Shape" fill="#000000" fill-rule="nonzero"></path>
                <rect id="Rectangle" fill="#FFFFFF" fill-rule="nonzero" x="37.636" y="49.297" width="3.091" height="6.703"></rect>
                <path d="M41.727,47.3 L36.636,47.3 C36.0837153,47.3 35.636,47.7477153 35.636,48.3 L35.636,57 C35.636,57.5522847 36.0837153,58 36.636,58 L41.727,58 C42.2792847,58 42.727,57.5522847 42.727,57 L42.727,48.3 C42.727,48.0347835 42.6216432,47.7804296 42.4341068,47.5928932 C42.2465704,47.4053568 41.9922165,47.3 41.727,47.3 Z M40.727,56 L37.636,56 L37.636,49.3 L40.727,49.3 L40.727,56 Z" id="Shape" fill="#000000" fill-rule="nonzero"></path>
                <rect id="Rectangle" fill="#FFFFFF" fill-rule="nonzero" x="45.273" y="45.341" width="3.091" height="10.659"></rect>
                <path d="M49.364,43.341 L44.273,43.341 C43.7207153,43.341 43.273,43.7887153 43.273,44.341 L43.273,57 C43.273,57.5522847 43.7207153,58 44.273,58 L49.364,58 C49.9162847,58 50.364,57.5522847 50.364,57 L50.364,44.341 C50.364,44.0757835 50.2586432,43.8214296 50.0711068,43.6338932 C49.8835704,43.4463568 49.6292165,43.341 49.364,43.341 Z M48.364,56 L45.273,56 L45.273,45.341 L48.364,45.341 L48.364,56 Z" id="Shape" fill="#000000" fill-rule="nonzero"></path>
                <rect id="Rectangle" fill="#FFFFFF" fill-rule="nonzero" x="52.909" y="42" width="3.091" height="14"></rect>
                <path d="M57,40 L51.909,40 C51.3567153,40 50.909,40.4477153 50.909,41 L50.909,57 C50.909,57.5522847 51.3567153,58 51.909,58 L57,58 C57.5522847,58 58,57.5522847 58,57 L58,41 C58,40.4477153 57.5522847,40 57,40 Z M56,56 L52.909,56 L52.909,42 L56,42 L56,56 Z" id="Shape" fill="#000000" fill-rule="nonzero"></path>
                <path d="M18,30.923 L25.129,28.072 C25.4369694,27.9489625 25.7859033,27.9866097 26.0605411,28.1725061 C26.3351789,28.3584024 26.4997901,28.6683627 26.5,29 L26.5,36 L56,36 L56,6 L18,6 L18,30.923 Z M37,11 C41.418278,11 45,14.581722 45,19 C45,23.418278 41.418278,27 37,27 C32.581722,27 29,23.418278 29,19 C29,14.581722 32.581722,11 37,11 Z M29,31 L45,31 C45.5522847,31 46,31.4477153 46,32 C46,32.5522847 45.5522847,33 45,33 L29,33 C28.4477153,33 28,32.5522847 28,32 C28,31.4477153 28.4477153,31 29,31 Z" id="Shape" fill="#53B7E8" fill-rule="nonzero"></path>
                <path d="M29,33 L45,33 C45.5522847,33 46,32.5522847 46,32 C46,31.4477153 45.5522847,31 45,31 L29,31 C28.4477153,31 28,31.4477153 28,32 C28,32.5522847 28.4477153,33 29,33 Z" id="Path" fill="#000000" fill-rule="nonzero"></path>
                <path d="M37,25 C40.3137085,25 43,22.3137085 43,19 C43,15.6862915 40.3137085,13 37,13 C33.6862915,13 31,15.6862915 31,19 C31,22.3137085 33.6862915,25 37,25 L37,25 Z M33.5499995,16.2 C33.5496625,15.8526947 33.7295503,15.5300858 34.0251817,15.3478137 C34.3208131,15.1655417 34.6898464,15.1497124 35,15.306 L40.6,18.106 C40.9383149,18.2755612 41.151933,18.6215717 41.151933,19 C41.151933,19.3784283 40.9383149,19.7244388 40.6,19.894 L35,22.694 C34.6898464,22.8502876 34.3208131,22.8344583 34.0251817,22.6521863 C33.7295503,22.4699142 33.5496625,22.1473053 33.5499995,21.8 L33.5499995,16.2 Z" id="Shape" fill="#FFFFFF" fill-rule="nonzero"></path>
                <path d="M37,27 C41.418278,27 45,23.418278 45,19 C45,14.581722 41.418278,11 37,11 C32.581722,11 29,14.581722 29,19 C29,23.418278 32.581722,27 37,27 Z M37,13 C40.3137085,13 43,15.6862915 43,19 C43,22.3137085 40.3137085,25 37,25 C33.6862915,25 31,22.3137085 31,19 C31,15.6862915 33.6862915,13 37,13 Z" id="Shape" fill="#000000" fill-rule="nonzero"></path>
                <rect id="Rectangle" fill="#61729B" fill-rule="nonzero" x="18" y="2" width="38" height="2"></rect>
                <polygon id="Path" fill="#FFFFFF" fill-rule="nonzero" points="35.55 17.818 35.55 20.182 37.914 19"></polygon>
                <path d="M34.024,22.651 C34.318967,22.8329789 34.6871298,22.8492492 34.997,22.694 L40.597,19.894 C40.9353149,19.7244388 41.148933,19.3784283 41.148933,19 C41.148933,18.6215717 40.9353149,18.2755612 40.597,18.106 L34.997,15.306 C34.6870975,15.1511412 34.3191208,15.1677146 34.0243943,15.3498055 C33.7296678,15.5318963 33.550185,15.8535599 33.5499999,16.2 L33.5499999,21.8 C33.5498214,22.1466485 33.7291807,22.4686629 34.024,22.651 L34.024,22.651 Z M35.55,17.818 L37.914,19 L35.55,20.182 L35.55,17.818 Z" id="Shape" fill="#0C3847" fill-rule="nonzero"></path>
                <polygon id="Path" fill="#F9BA48" fill-rule="nonzero" points="20.908 31.914 9 36.677 9 45.823 20.908 50.586"></polygon>
                <polygon id="Path" fill="#F9BA48" fill-rule="nonzero" points="22.908 51.386 24.5 52.023 24.5 30.477 22.908 31.114"></polygon>
                <path d="M6.25,45.5 L7,45.5 L7,37 L6.25,37 C3.90278981,37 2,38.9027898 2,41.25 C2,43.5972102 3.90278981,45.5 6.25,45.5 Z" id="Path" fill="#F9BA48" fill-rule="nonzero"></path>
                <g id="house-real-estate-svgrepo-com" transform="translate(65.000000, 0.000000)" fill-rule="nonzero">
                    <polygon id="Path" fill="#F9BA48" points="1.40818359 8.38775391 1.40818359 21.5510156 3.30609375 21.5510156 3.30609375 10.2857227 19.7142773 10.2857227 19.7142773 21.5510156 21.5510156 21.5510156 21.5510156 8.38775391"></polygon>
                    <rect id="Rectangle" fill="#FFFFFF" x="3.28136719" y="10.2869531" width="16.4057227" height="11.25"></rect>
                    <rect id="Rectangle" fill="#999999" x="3.28136719" y="14.505293" width="8.90630859" height="1.40625"></rect>
                    <g id="Group" transform="translate(4.224492, 0.428555)">
                        <rect id="Rectangle" fill="#F2BF7E" x="7.04080078" y="11.7550781" width="1" height="2.32652344"></rect>
                        <rect id="Rectangle" fill="#F2BF7E" x="4.71427734" y="11.7550781" width="1" height="2.32652344"></rect>
                        <rect id="Rectangle" fill="#F2BF7E" x="2.32652344" y="11.7550781" width="1" height="2.32652344"></rect>
                        <rect id="Rectangle" fill="#F2BF7E" x="0" y="11.7550781" width="1" height="2.32652344"></rect>
                        <path d="M14.0816016,0 L14.0816016,7.95919922 L17.3265234,7.95919922 L17.3265234,21.1224609 L24.3673242,21.1224609 L24.3673242,0 L14.0816016,0 Z M22.4694141,14.5714453 L17.326582,14.5714453 L17.326582,7.95919922 L15.9183984,7.95919922 L15.9183984,1.89796875 L22.4694141,1.89796875 L22.4694141,14.5714453 Z" id="Shape" fill="#F9BA48"></path>
                    </g>
                    <rect id="Rectangle" fill="#53B7E8" x="23.4373242" y="16.8489844" width="2.81244141" height="4.68732422"></rect>
                    <rect id="Rectangle" fill="#000000" x="0" y="21.0612305" width="30" height="1"></rect>
                    <polygon id="Path" fill="#000000" points="22.0408008 20.5714453 21.1224609 20.5714453 21.1224609 8.87753906 1.83673828 8.87753906 1.83673828 20.5714453 0.918339844 20.5714453 0.918339844 7.95919922 22.0408008 7.95919922"></polygon>
                    <polygon id="Path" fill="#000000" points="29.0816602 20.5714453 28.1632617 20.5714453 28.1632617 0.918339844 18.734707 0.918339844 18.734707 7.46935547 17.8163086 7.46935547 17.8163086 0 29.0816602 0"></polygon>
                    <rect id="Rectangle" fill="#999999" x="13.1020312" y="15.4285547" width="1.89796875" height="1"></rect>
                    <rect id="Rectangle" fill="#F2F2F2" x="14.5102148" y="16.8367383" width="1.89796875" height="1"></rect>
                    <rect id="Rectangle" fill="#999999" x="15.9183398" y="18.2448633" width="1.89796875" height="1"></rect>
                    <rect id="Rectangle" fill="#F2F2F2" x="14.5102148" y="19.6530469" width="1.89796875" height="1"></rect>
                    <polygon id="Rectangle" fill="#000000" transform="translate(5.625388, 19.193065) rotate(-135.000000) translate(-5.625388, -19.193065) " points="5.1662229 18.5301714 6.08455394 18.5301714 6.08455394 19.8559595 5.1662229 19.8559595"></polygon>
                    <polygon id="Rectangle" fill="#000000" transform="translate(8.789728, 18.841099) rotate(-135.000000) translate(-8.789728, -18.841099) " points="8.33056249 17.0181775 9.24889353 17.0181775 9.24889353 20.6640215 8.33056249 20.6640215"></polygon>
                    <polygon id="Rectangle" fill="#000000" transform="translate(17.226613, 12.747506) rotate(-135.000000) translate(-17.226613, -12.747506) " points="16.7674472 11.5874488 17.6857783 11.5874488 17.6857783 13.9075632 16.7674472 13.9075632"></polygon>
                    <polygon id="Rectangle" fill="#000000" transform="translate(11.484927, 18.958431) rotate(-135.000000) translate(-11.484927, -18.958431) " points="11.0257618 17.9641048 11.9440928 17.9641048 11.9440928 19.9527576 11.0257618 19.9527576"></polygon>
                    <polygon id="Path" fill="#000000" points="27.1836914 15.4285547 22.4694141 15.4285547 22.4694141 14.5102148 26.265293 14.5102148 26.265293 2.75507812 20.6326758 2.75507812 20.6326758 7.46935547 19.7142773 7.46935547 19.7142773 1.83673828 27.1836914 1.83673828"></polygon>
                    <polygon id="Path" fill="#000000" points="26.6939062 20.5714453 25.7755078 20.5714453 25.7755078 17.3265234 23.8775391 17.3265234 23.8775391 20.5714453 22.9591992 20.5714453 22.9591992 16.408125 26.6939062 16.408125"></polygon>
                    <polygon id="Rectangle" fill="#000000" transform="translate(22.500155, 5.130647) rotate(-135.000000) translate(-22.500155, -5.130647) " points="22.0409891 4.4677821 22.9593202 4.4677821 22.9593202 5.79351157 22.0409891 5.79351157"></polygon>
                    <polygon id="Rectangle" fill="#000000" transform="translate(23.906571, 6.536529) rotate(-135.000000) translate(-23.906571, -6.536529) " points="23.4474053 5.21074088 24.3657363 5.21074088 24.3657363 7.86231701 23.4474053 7.86231701"></polygon>
                    <polygon id="Rectangle" fill="#000000" transform="translate(23.671958, 9.114444) rotate(-135.000000) translate(-23.671958, -9.114444) " points="23.2127928 8.12008791 24.1311238 8.12008791 24.1311238 10.1087993 23.2127928 10.1087993"></polygon>
                    <polygon id="Rectangle" fill="#000000" transform="translate(24.609236, 11.458332) rotate(-135.000000) translate(-24.609236, -11.458332) " points="24.1500703 10.4640059 25.0684014 10.4640059 25.0684014 12.4526588 24.1500703 12.4526588"></polygon>
                    <rect id="Rectangle" fill="#53B7E8" x="3.30609375" y="11.6938477" width="9.36732422" height="1"></rect>
                    <path d="M2.81630859,9.85710938 L2.81630859,20.5713867 L3.73464844,20.5713867 L3.73464844,16.3468945 L12.673418,16.3468945 L12.673418,14.0203711 L3.73470703,14.0203711 L3.73470703,10.7754492 L19.2244922,10.7754492 L19.2244922,20.5713867 L20.142832,20.5713867 L20.142832,9.85710938 L2.81630859,9.85710938 Z M11.7550781,14.9387695 L11.7550781,15.4285547 L3.73470703,15.4285547 L3.73470703,14.9387695 L11.7550781,14.9387695 Z" id="Shape" fill="#000000"></path>
                </g>
                <rect id="Rectangle" fill="#000000" x="79" y="24" width="3" height="6"></rect>
                <rect id="Rectangle" fill="#000000" x="79" y="39" width="3" height="6"></rect>
                <rect id="Rectangle" fill="#000000" x="79" y="33" width="3" height="3"></rect>
                <g id="money-cash-svgrepo-com" transform="translate(68.000000, 47.000000)" fill-rule="nonzero">
                    <rect id="Rectangle" fill="#8BBE4D" x="6.70617187" y="0.764953125" width="16.5284062" height="9.09628125"></rect>
                    <rect id="Rectangle" fill="#5A9449" x="14.9461406" y="0.764953125" width="8.28895312" height="9.09628125"></rect>
                    <g id="Group" transform="translate(5.941500, 0.000047)" fill="#528443">
                        <circle id="Oval" cx="9.02915625" cy="5.31304687" r="3.17582812"></circle>
                        <path d="M18.0585,9.86109375 L18.0585,0.764953125 C18.0585,0.34246875 17.7160313,-1.33226763e-15 17.2935469,-1.33226763e-15 L0.764953125,-1.33226763e-15 C0.34246875,-1.33226763e-15 6.66133815e-16,0.34246875 6.66133815e-16,0.764953125 L6.66133815e-16,9.86109375 C6.66133815e-16,10.2835781 0.34246875,10.6260469 0.764953125,10.6260469 L17.2935469,10.6260469 C17.7160313,10.6260469 18.0585,10.2835781 18.0585,9.86109375 Z M1.52990625,6.7786875 L1.52990625,3.84740625 C2.66915625,3.56559375 3.56554688,2.66920312 3.84735938,1.52995312 L14.2110938,1.52995312 C14.4929063,2.66920312 15.3892969,3.56559375 16.5285469,3.84740625 L16.5285469,6.7786875 C15.3892969,7.0605 14.4929063,7.95689062 14.2110938,9.09614063 L3.84735938,9.09614063 C3.56554688,7.95689062 2.66910938,7.0605 1.52990625,6.7786875 Z" id="Shape"></path>
                    </g>
                    <g id="Group" transform="translate(14.970703, 0.000000)" fill="#366626">
                        <path d="M8.26429688,0 L0,0 L0,1.52995313 L5.18189063,1.52995313 C5.46370313,2.66920313 6.36009375,3.56559375 7.49934375,3.84740625 L7.49934375,6.7786875 C6.36009375,7.0605 5.46370313,7.95689062 5.18189063,9.09614063 L0,9.09614063 L0,10.6260938 L8.26429688,10.6260938 C8.68678125,10.6260938 9.02925,10.283625 9.02925,9.86114063 L9.02925,0.765 C9.02925,0.342515625 8.68682812,0 8.26429688,0 Z" id="Path"></path>
                        <path d="M4.6875e-05,2.13726562 L4.6875e-05,8.48892187 C1.75401562,8.48892187 3.175875,7.0670625 3.175875,5.31309375 C3.17578125,3.559125 1.75392187,2.13726562 4.6875e-05,2.13726562 Z" id="Path"></path>
                    </g>
                    <rect id="Rectangle" fill="#8BBE4D" x="3.7935" y="3.77723437" width="16.5284062" height="9.09628125"></rect>
                    <rect id="Rectangle" fill="#5A9449" x="11.9495156" y="3.8611875" width="8.28895312" height="9.09628125"></rect>
                    <g id="Group" transform="translate(2.944641, 3.096141)" fill="#528443">
                        <circle id="Oval" cx="9.02934375" cy="5.3131875" r="3.17582812"></circle>
                        <path d="M18.0585,9.86109375 L18.0585,0.764953125 C18.0585,0.34246875 17.7160313,-1.33226763e-15 17.2935469,-1.33226763e-15 L0.764953125,-1.33226763e-15 C0.34246875,-1.33226763e-15 6.66133815e-16,0.34246875 6.66133815e-16,0.764953125 L6.66133815e-16,9.86109375 C6.66133815e-16,10.2835781 0.34246875,10.6260469 0.764953125,10.6260469 L17.2935469,10.6260469 C17.7160313,10.6260469 18.0585,10.283625 18.0585,9.86109375 Z M1.52995313,6.77864062 L1.52995313,3.84735938 C2.66920313,3.56554687 3.56559375,2.66915625 3.84740625,1.52990625 L14.2111406,1.52990625 C14.4929531,2.66915625 15.3893437,3.56554687 16.5285937,3.84735938 L16.5285937,6.77864062 C15.3893438,7.06045312 14.4929531,7.95684375 14.2111406,9.09609375 L3.84740625,9.09609375 C3.56554688,7.9569375 2.66915625,7.0605 1.52995313,6.77864062 Z" id="Shape"></path>
                    </g>
                    <g id="Group" transform="translate(11.973891, 3.096141)" fill="#366626">
                        <path d="M8.26429687,2.66453526e-15 L-2.66453526e-15,2.66453526e-15 L-2.66453526e-15,1.52995313 L5.18189062,1.52995313 C5.46370312,2.66920313 6.36009375,3.56559375 7.49934375,3.84740625 L7.49934375,6.7786875 C6.36009375,7.0605 5.46370312,7.95689063 5.18189062,9.09614063 L-2.66453526e-15,9.09614063 L-2.66453526e-15,10.6260938 L8.26429687,10.6260938 C8.68678125,10.6260938 9.02925,10.283625 9.02925,9.86114063 L9.02925,0.764953125 C9.02925,0.34246875 8.68678125,2.66453526e-15 8.26429687,2.66453526e-15 Z" id="Path"></path>
                        <path d="M-2.66453526e-15,2.13721875 L-2.66453526e-15,8.488875 C1.75396875,8.488875 3.17582812,7.06701563 3.17582812,5.31304688 C3.17582812,3.55907813 1.75396875,2.13721875 -2.66453526e-15,2.13721875 Z" id="Path"></path>
                    </g>
                    <rect id="Rectangle" fill="#8BBE4D" x="0.84871875" y="6.67842188" width="16.5284062" height="9.09628125"></rect>
                    <rect id="Rectangle" fill="#5A9449" x="9.0045" y="6.762375" width="8.28895313" height="9.09628125"></rect>
                    <g id="Group" transform="translate(0.000000, 5.997375)" fill="#528443">
                        <circle id="Oval" cx="9.02901562" cy="5.31314062" r="3.17582812"></circle>
                        <path d="M18.0585938,9.86109375 L18.0585938,0.764953125 C18.0585938,0.34246875 17.716125,0 17.2936406,0 L0.764953125,0 C0.34246875,0 0,0.34246875 0,0.764953125 L0,9.86109375 C0,10.2835781 0.34246875,10.6260469 0.764953125,10.6260469 L17.2935469,10.6260469 C17.7160313,10.6260469 18.0585938,10.2835781 18.0585938,9.86109375 Z M1.52995313,6.77864062 L1.52995313,3.84735937 C2.66920313,3.56554687 3.56559375,2.66915625 3.84740625,1.52990625 L14.2111406,1.52990625 C14.4929531,2.66915625 15.3893437,3.56554687 16.5285937,3.84735937 L16.5285937,6.77864062 C15.3893438,7.06045312 14.4929531,7.95684375 14.2111406,9.09609375 L3.84745312,9.09609375 C3.56559375,7.95689063 2.66915625,7.0605 1.52995313,6.77864062 Z" id="Shape"></path>
                    </g>
                    <g id="Group" transform="translate(9.029250, 5.997328)" fill="#366626">
                        <path d="M8.26429688,1.33226763e-15 L2.66453526e-15,1.33226763e-15 L2.66453526e-15,1.52995313 L5.18189063,1.52995313 C5.46370313,2.66920313 6.36009375,3.56559375 7.49934375,3.84740625 L7.49934375,6.7786875 C6.36009375,7.0605 5.46370313,7.95689063 5.18189063,9.09614063 L2.66453526e-15,9.09614063 L2.66453526e-15,10.6260938 L8.26429688,10.6260938 C8.68678125,10.6260938 9.02925002,10.283625 9.02925002,9.86114063 L9.02925002,0.765 C9.02934375,0.342515625 8.68678125,1.33226763e-15 8.26429688,1.33226763e-15 Z" id="Path"></path>
                        <path d="M2.66453526e-15,2.13726563 L2.66453526e-15,8.48892188 C1.75396875,8.48892188 3.17582813,7.0670625 3.17582813,5.31309375 C3.17582813,3.559125 1.75396875,2.13726563 2.66453526e-15,2.13726563 Z" id="Path"></path>
                    </g>
                </g>
                <polygon id="Path" fill="#FD9200" fill-rule="nonzero" points="9 56 10.5 56 10.5 48.577 9 47.977"></polygon>
                <path d="M57,0 L17,0 C16.4477153,0 16,0.44771525 16,1 L16,31.723 L7.807,35 L6.25,35 C2.79822031,35 0,37.7982203 0,41.25 C0,44.7017797 2.79822031,47.5 6.25,47.5 L7,47.5 L7,57 C7,57.5522847 7.44771525,58 8,58 L11.5,58 C12.0522847,58 12.5,57.5522847 12.5,57 L12.5,49.377 L25.129,54.428 C25.4369694,54.5510375 25.7859033,54.5133903 26.0605411,54.3274939 C26.3351789,54.1415976 26.4997901,53.8316373 26.5,53.5 L26.5,38 L57,38 C57.5522847,38 58,37.5522847 58,37 L58,1 C58,0.44771525 57.5522847,0 57,0 Z M24.5,52.023 L22.908,51.386 L22.908,31.114 L24.5,30.477 L24.5,52.023 Z M10.5,56 L9,56 L9,47.977 L10.5,48.577 L10.5,56 Z M6.25,37 L7,37 L7,45.5 L6.25,45.5 C3.90278981,45.5 2,43.5972102 2,41.25 C2,38.9027898 3.90278981,37 6.25,37 Z M9,45.823 L9,36.677 L20.908,31.914 L20.908,50.586 L9,45.823 Z M56,36 L26.5,36 L26.5,29 C26.4997901,28.6683627 26.3351789,28.3584024 26.0605411,28.1725061 C25.7859033,27.9866097 25.4369694,27.9489625 25.129,28.072 L18,30.923 L18,6 L56,6 L56,36 Z M56,4 L18,4 L18,2 L56,2 L56,4 Z" id="Shape" fill="#000000" fill-rule="nonzero"></path>
            </g>
        </g>
    </g>
</svg>