<?xml version="1.0" encoding="UTF-8"?>
<svg width="70px" height="70px" viewBox="0 0 70 70" version="1.1" xmlns="http://www.w3.org/2000/svg" xmlns:xlink="http://www.w3.org/1999/xlink">
    <title>6C7CF80B-EFD1-40F7-92CE-5F88E2183D08@3x</title>
    <g id="Layanan-Kami" stroke="none" stroke-width="1" fill="none" fill-rule="evenodd">
        <g id="Layanan-Kami-Baru" transform="translate(-705.000000, -2066.000000)" fill-rule="nonzero">
            <g id="website-svgrepo-com" transform="translate(705.000000, 2066.000000)">
                <rect id="Rectangle" fill="#F9BA48" x="4.51622081" y="13.5484253" width="36.1290552" height="24.8387403"></rect>
                <path d="M0,0 L0,70 L70,70 L70,0 L0,0 Z M67.7418896,2.25811041 L67.7418896,9.03220453 L2.25811041,9.03220453 L2.25811041,2.25811041 L67.7418896,2.25811041 Z M2.25811041,67.7418896 L2.25811041,11.2903149 L67.7418896,11.2903149 L67.7418896,67.7418896 L2.25811041,67.7418896 Z" id="Shape" fill="#333333"></path>
                <circle id="Oval" fill="#333333" cx="5.64527601" cy="5.64527601" r="1.1290552"></circle>
                <circle id="Oval" fill="#333333" cx="9.03220453" cy="5.64527601" r="1.1290552"></circle>
                <circle id="Oval" fill="#333333" cx="12.4193701" cy="5.64527601" r="1.1290552"></circle>
                <rect id="Rectangle" fill="#333333" x="42.9031493" y="13.5484253" width="22.5806299" height="2.25811041"></rect>
                <rect id="Rectangle" fill="#333333" x="42.9031493" y="19.1934643" width="22.5806299" height="2.25811041"></rect>
                <rect id="Rectangle" fill="#333333" x="42.9031493" y="24.8387403" width="22.5806299" height="2.25811041"></rect>
                <rect id="Rectangle" fill="#333333" x="42.9031493" y="30.4837792" width="22.5806299" height="2.25811041"></rect>
                <rect id="Rectangle" fill="#333333" x="42.9031493" y="36.1290552" width="22.5806299" height="2.25811041"></rect>
                <rect id="Rectangle" fill="#333333" x="4.51622081" y="41.7740941" width="60.9677955" height="2.25811041"></rect>
                <path d="M22.5806299,47.4193701 L4.51622081,47.4193701 L4.51622081,59.8387403 L22.5806299,59.8387403 L22.5806299,47.4193701 Z M20.3225195,57.5806299 L6.77409412,57.5806299 L6.77409412,49.6774805 L20.3225195,49.6774805 C20.3225195,49.6774805 20.3225195,57.5806299 20.3225195,57.5806299 Z" id="Shape" fill="#333333"></path>
                <rect id="Rectangle" fill="#333333" x="4.51622081" y="63.2259059" width="60.9677955" height="2.25811041"></rect>
                <path d="M25.9677955,47.4193701 L25.9677955,59.8387403 L44.0322045,59.8387403 L44.0322045,47.4193701 L25.9677955,47.4193701 Z M41.7740941,57.5806299 L28.2256688,57.5806299 L28.2256688,49.6774805 L41.7740941,49.6774805 L41.7740941,57.5806299 Z" id="Shape" fill="#333333"></path>
                <path d="M47.4193701,59.8387403 L65.4837792,59.8387403 L65.4837792,47.4193701 L47.4193701,47.4193701 L47.4193701,59.8387403 Z M49.6774805,49.6774805 L63.2259059,49.6774805 L63.2259059,57.5806299 L49.6774805,57.5806299 L49.6774805,49.6774805 L49.6774805,49.6774805 Z" id="Shape" fill="#333333"></path>
                <g id="lock-svgrepo-com-(1)" transform="translate(16.333333, 16.333333)">
                    <path d="M4.33802817,4.23943662 C4.33802817,2.77160563 5.53216901,1.57746479 7,1.57746479 C8.46783099,1.57746479 9.66197183,2.77160563 9.66197183,4.23943662 L9.66197183,6.90140845 L11.2394366,6.90140845 L11.2394366,4.23943662 C11.2394366,1.90179155 9.33764507,0 7,0 C4.66235493,0 2.76056338,1.90179155 2.76056338,4.23943662 L2.76056338,6.90140845 L4.33802817,6.90140845 L4.33802817,4.23943662 Z" id="Path" fill="#0C3847"></path>
                    <path d="M7,6.90140845 L7,10.7043211 C7.86981408,10.7043211 8.57746479,11.4119718 8.57746479,12.2817859 C8.57746479,12.8643831 8.25976338,13.3738254 7.78873239,13.6470423 L7.78873239,15.6411944 L7,15.6411944 L7,19.5211268 L14,19.5211268 L14,6.90140845 L7,6.90140845 Z" id="Path" fill="#000000"></path>
                    <path d="M6.21126761,15.6411944 L6.21126761,13.6470423 C5.74023662,13.3738648 5.42253521,12.8643831 5.42253521,12.2817859 C5.42253521,11.4119718 6.13018592,10.7043211 7,10.7043211 L7,6.90140845 L0,6.90140845 L0,19.5211268 L7,19.5211268 L7,15.6411944 L6.21126761,15.6411944 Z" id="Path" fill="#000000"></path>
                    <path d="M5.42253521,12.2817859 C5.42253521,12.8643831 5.74023662,13.3738648 6.21126761,13.6470423 L6.21126761,15.6411944 L7.78873239,15.6411944 L7.78873239,13.6470423 C8.25976338,13.3738648 8.57746479,12.8643831 8.57746479,12.2817859 C8.57746479,11.4119718 7.86981408,10.7043211 7,10.7043211 C6.13018592,10.7043211 5.42253521,11.4119718 5.42253521,12.2817859 Z" id="Path" fill="#FFFFFF"></path>
                </g>
            </g>
        </g>
    </g>
</svg>