<?xml version="1.0" encoding="UTF-8"?>
<svg width="63px" height="56px" viewBox="0 0 63 56" version="1.1" xmlns="http://www.w3.org/2000/svg" xmlns:xlink="http://www.w3.org/1999/xlink">
    <!-- Generator: Sketch 52.1 (67048) - http://www.bohemiancoding.com/sketch -->
    <title>plan (2)</title>
    <desc>Created with Sketch.</desc>
    <g id="Blog" stroke="none" stroke-width="1" fill="none" fill-rule="evenodd">
        <g id="DM---Landing-Page" transform="translate(-821.000000, -3810.000000)">
            <g id="plan-(2)" transform="translate(821.000000, 3810.000000)">
                <path d="M6.9898722,2 L7.50298873,2.00000494 C10.6281505,2.00000494 13.2299775,4.39886463 13.4832478,7.51374664 C14.9041339,24.9887248 14.7430513,36.8174759 13,43 C10.3050059,42.9459868 5.46432102,42.4291153 1,44.5634582 C0.964994146,38.2761549 0.961620653,26.0852122 0.989879519,7.99063018 L0.989878969,7.99063018 C0.995048369,4.68058418 3.67982217,2 6.9898722,2 Z" id="Rectangle" fill="#FFCA13"></path>
                <rect id="Rectangle" fill="#FFCA13" x="25" y="17" width="26" height="7"></rect>
                <path d="M61.7695312,3.7431091 L13.4781855,3.7431091 C12.2501777,1.51257183 9.89149219,0 7.18925977,0 C3.22518164,0 0,3.25568758 0,7.25766173 L0,48.1302666 C0,52.1815543 3.26554102,55.4776119 7.27945312,55.4776119 L61.7695312,55.4776119 C62.4489961,55.4776119 63,54.9214993 63,54.2354572 L63,4.98526384 C63,4.29922178 62.4489961,3.7431091 61.7695312,3.7431091 Z M2.46056836,7.25766173 L2.4609375,7.25766173 C2.4609375,5.05519715 3.94623633,3.19631258 5.95891406,2.64827391 L5.95891406,32.1449773 C5.95891406,32.8310193 6.50991797,33.387132 7.18938281,33.387132 C7.86884766,33.387132 8.41985156,32.8310193 8.41985156,32.1449773 L8.41985156,2.64827391 C9.82270898,3.03023649 10.9693828,4.04917603 11.5355215,5.37741209 C11.5445039,5.40449107 11.5543477,5.43144582 11.5651758,5.45802794 C11.7698027,5.9602311 11.8863281,6.48615942 11.912291,7.02475771 C11.9124141,7.02711781 11.9125371,7.02960211 11.9126602,7.03196221 C11.9133984,7.04835865 11.9141367,7.06463088 11.914752,7.08102732 C11.914998,7.08798339 11.9152441,7.09481524 11.9153672,7.10177131 C11.9157363,7.11419285 11.9162285,7.12673862 11.9164746,7.13916016 C11.9167207,7.15058799 11.9169668,7.16214003 11.9170898,7.17356785 C11.9172129,7.18151764 11.917459,7.18959165 11.917459,7.19754144 C11.9177051,7.21754013 11.9178281,7.23753882 11.9178281,7.25753751 L11.9178281,42.6471472 C10.6530293,41.5300774 8.99804883,40.8522336 7.18925977,40.8522336 C7.16292773,40.8522336 7.13671875,40.8523578 7.11050977,40.8527304 C7.10767969,40.8527304 7.10484961,40.8527304 7.10189648,40.8528547 C7.07667187,40.8531031 7.05157031,40.8535999 7.02646875,40.854221 C7.02290039,40.8543452 7.01920898,40.8543452 7.01564062,40.8544695 C6.99103125,40.8550905 6.96642187,40.8557116 6.94193555,40.8565811 C6.937875,40.8567053 6.9339375,40.8568296 6.92987695,40.8569538 C6.90514453,40.8578233 6.88041211,40.858817 6.85580273,40.8600592 C6.85248047,40.8601834 6.84928125,40.8604318 6.84595898,40.860556 C6.82061133,40.8617982 6.79538672,40.8630403 6.77003906,40.8645309 C6.76807031,40.8646551 6.76597852,40.8647793 6.76400977,40.8649036 C6.73804687,40.8663941 6.71208398,40.8681332 6.68612109,40.8698722 C6.68550586,40.8698722 6.68501367,40.8699964 6.68439844,40.8699964 C6.6583125,40.8718596 6.63222656,40.8738471 6.60626367,40.8759587 C6.60392578,40.8762072 6.60158789,40.8763314 6.59925,40.8765798 C6.57414844,40.8786915 6.54904687,40.8808031 6.52394531,40.8831632 C6.52074609,40.8834117 6.51754687,40.8837843 6.51434766,40.8840327 C6.48961523,40.8863928 6.46488281,40.8888771 6.44027344,40.8913615 C6.43719727,40.8917341 6.43424414,40.8919825 6.43116797,40.8923552 C6.40618945,40.8949637 6.38121094,40.8978207 6.35623242,40.9006776 C6.35389453,40.900926 6.35155664,40.9012987 6.34921875,40.9015471 C6.26948437,40.9109875 6.19011914,40.92167 6.11112305,40.9337189 C6.10964648,40.9339674 6.10804687,40.9342158 6.10644727,40.9344642 C6.08122266,40.9383149 6.05599805,40.9422898 6.03089648,40.9463889 C6.0283125,40.9467616 6.02585156,40.9472584 6.02339062,40.9476311 C5.99816602,40.9518544 5.97294141,40.9560777 5.9477168,40.9605495 C5.94636328,40.9607979 5.94500977,40.9610463 5.94365625,40.9612948 C5.91769336,40.9658907 5.89173047,40.9706109 5.86589062,40.9755795 C5.86539844,40.9757038 5.86490625,40.9757038 5.86441406,40.975828 C5.78467969,40.990858 5.7054375,41.0072545 5.6266875,41.0248931 C5.62594922,41.0250173 5.62521094,41.0252657 5.62434961,41.02539 C5.59875586,41.0311039 5.57328516,41.0370662 5.54781445,41.0430285 C5.54658398,41.043277 5.54535352,41.0436496 5.54412305,41.0438981 C5.51889844,41.0498604 5.49367383,41.0560712 5.46844922,41.0622819 C5.46721875,41.0625304 5.46598828,41.062903 5.46475781,41.0631515 C5.36053711,41.0891125 5.25730078,41.1174336 5.15492578,41.1479906 C5.15455664,41.1481148 5.15406445,41.1482391 5.15369531,41.1483633 C4.84423242,41.2407796 4.54338281,41.3536914 4.25274609,41.4854841 C4.25237695,41.4856083 4.25213086,41.4857325 4.25176172,41.4858567 C4.22764453,41.4967877 4.20365039,41.5078429 4.1797793,41.5190222 C4.17965625,41.5190222 4.17965625,41.5191465 4.1795332,41.5191465 C4.08380273,41.563864 3.98930273,41.610569 3.8960332,41.6593857 C3.89480273,41.6600068 3.89357227,41.6606279 3.8923418,41.661249 C3.86994727,41.6729252 3.84755273,41.6848499 3.82528125,41.6967746 C3.82405078,41.6973957 3.82294336,41.6980167 3.82171289,41.6986378 C3.79944141,41.7106867 3.77704687,41.7227356 3.75489844,41.735033 L3.75169922,41.736772 C3.6834082,41.7744093 3.61585547,41.8132887 3.54891797,41.8530377 C3.54793359,41.8536587 3.54682617,41.8542798 3.5458418,41.8549009 C3.52480078,41.8674466 3.50388281,41.8801166 3.48296484,41.8927866 C3.48050391,41.8942772 3.47816602,41.8957678 3.47570508,41.8972584 C3.45552539,41.9096799 3.4353457,41.9221015 3.41516602,41.9346472 C3.41233594,41.9363862 3.40962891,41.9381253 3.40679883,41.9398643 C3.38674219,41.95241 3.36668555,41.96508 3.346875,41.9778742 C3.34466016,41.9793648 3.34232227,41.9807312 3.34010742,41.9822217 C3.31955859,41.9953886 3.29925586,42.0085554 3.27883008,42.0219707 C3.27759961,42.0228402 3.27636914,42.0235855 3.27513867,42.024455 C3.2544668,42.0381187 3.23379492,42.0517824 3.21324609,42.0656945 C3.21263086,42.0660672 3.21201562,42.0665641 3.21140039,42.0669367 C3.19158984,42.0802278 3.17190234,42.093643 3.15233789,42.1071825 C3.14913867,42.1094184 3.14593945,42.1116543 3.14274023,42.1137659 C3.1242832,42.1265601 3.10582617,42.1393543 3.08749219,42.1522727 C3.08367773,42.1550055 3.07986328,42.157614 3.07604883,42.1603467 C3.05796094,42.1731409 3.03987305,42.1860593 3.02178516,42.1989778 C3.0179707,42.2017105 3.01415625,42.2044432 3.0103418,42.207176 C2.99213086,42.2203428 2.97404297,42.2335097 2.95595508,42.2468007 C2.95275586,42.2491608 2.94967969,42.2515209 2.94660352,42.2537568 C2.92814648,42.2674205 2.9098125,42.2810842 2.89147852,42.2949963 C2.88938672,42.2966111 2.88729492,42.2981017 2.88532617,42.2997165 C2.8685918,42.3123865 2.85198047,42.3250565 2.83536914,42.3378507 C2.83118555,42.3410803 2.82687891,42.3443099 2.82269531,42.3476637 C2.80596094,42.3605821 2.78934961,42.3736247 2.77273828,42.3866673 C2.76793945,42.3903938 2.76314062,42.3942445 2.7583418,42.3979709 C2.7423457,42.4106409 2.72634961,42.4234351 2.71035352,42.4363535 C2.7050625,42.4405768 2.69977148,42.4449244 2.69448047,42.4491477 C2.67885352,42.4618177 2.66334961,42.4744877 2.6478457,42.4872819 C2.64243164,42.4917536 2.63701758,42.4962254 2.63148047,42.5008214 C2.61646875,42.5133671 2.60133398,42.5259129 2.58632227,42.5384586 C2.58041602,42.5434273 2.57450977,42.5485201 2.56848047,42.5534887 C2.55617578,42.5639228 2.54387109,42.5744811 2.53156641,42.5850394 C2.52418359,42.5913744 2.51680078,42.5978336 2.50941797,42.6041686 C2.49711328,42.6148512 2.48493164,42.6255337 2.47262695,42.6362162 C2.46856641,42.6398185 2.46450586,42.6432965 2.46056836,42.6471472 L2.46056836,7.25766173 Z M7.27945312,52.9933025 C4.62250195,52.9933025 2.4609375,50.8118303 2.4609375,48.1302666 L2.4609375,48.1098953 C2.4609375,45.4778936 4.58201953,43.3365431 7.18938281,43.3365431 C9.79674609,43.3365431 11.9179512,45.4778936 11.9179512,48.1098953 C11.9179512,48.7959374 12.4689551,49.35205 13.1484199,49.35205 C13.8278848,49.35205 14.3788887,48.7959374 14.3788887,48.1098953 L14.3788887,21.1330271 C14.5940977,22.5184022 15.269748,23.7516135 16.2423105,24.6674542 L16.2423105,47.5114252 C16.2423105,47.7382426 16.303834,47.9607125 16.4201133,48.1547371 L19.3216816,52.9933025 L7.27945312,52.9933025 Z M19.0093887,16.7972859 C19.0156641,16.7946774 19.0220625,16.7920689 19.0284609,16.7894604 C19.0326445,16.7877213 19.0368281,16.7861065 19.0410117,16.7843675 C19.0572539,16.7777841 19.0736191,16.7713249 19.0899844,16.7648657 C19.0903535,16.7647415 19.0908457,16.764493 19.0912148,16.7643688 C19.1009355,16.7606424 19.1107793,16.7569159 19.1205,16.7531894 C19.1209922,16.7530652 19.1214844,16.7528168 19.1219766,16.7525684 C19.4330391,16.6350605 19.7593594,16.561525 20.0928164,16.5340733 C20.0939238,16.5339491 20.0951543,16.5338249 20.0962617,16.5338249 C20.1056133,16.5330796 20.1149648,16.5323343 20.1243164,16.5317132 C20.1278848,16.5314648 20.1314531,16.5312164 20.1351445,16.530968 C20.1489258,16.5299742 20.1628301,16.5291047 20.1766113,16.5283594 C20.1827637,16.5279868 20.188916,16.5276141 20.1950684,16.5273657 C20.2015898,16.5269931 20.2081113,16.5267446 20.2145098,16.526372 C20.2218926,16.5259993 20.2292754,16.5256267 20.2367813,16.5253783 C20.2425645,16.5251298 20.2483477,16.5248814 20.2542539,16.524633 C20.2669277,16.5241361 20.2796016,16.5237635 20.2923984,16.5233908 C20.2957207,16.5232666 20.299043,16.5232666 20.3022422,16.5231424 C20.3133164,16.5228939 20.3243906,16.5226455 20.3354648,16.5225213 C20.3390332,16.5225213 20.3426016,16.5223971 20.3461699,16.5223971 C20.3601973,16.5222729 20.3742246,16.5221487 20.388252,16.5221487 C20.4020332,16.5221487 20.4158145,16.5222729 20.4294727,16.5223971 C20.433041,16.5223971 20.4366094,16.5225213 20.4401777,16.5225213 C20.4535898,16.5227697 20.4668789,16.5230182 20.480291,16.5232666 C20.4820137,16.5232666 20.4836133,16.5233908 20.4853359,16.5233908 C20.4966563,16.5236392 20.5079766,16.5240119 20.5192969,16.5245087 C20.5250801,16.5247572 20.5309863,16.5248814 20.5367695,16.5251298 C20.5455059,16.5255025 20.5542422,16.5258751 20.5629785,16.5262478 C20.5718379,16.5267446 20.5805742,16.5271173 20.5893105,16.5276141 C20.595709,16.5279868 20.6021074,16.5283594 20.6085059,16.5287321 C20.6165039,16.5292289 20.624625,16.5297258 20.632623,16.5302227 C20.6360684,16.5304711 20.6395137,16.5307195 20.643082,16.530968 C20.6604316,16.5322101 20.6776582,16.5335765 20.6948848,16.5349428 C20.695623,16.5350671 20.6963613,16.5350671 20.6970996,16.5350671 C20.8287598,16.5463707 20.9594355,16.5648788 21.0883887,16.5904672 C21.0917109,16.5910882 21.0950332,16.5918335 21.0982324,16.5924546 C21.1086914,16.5945663 21.1190273,16.5966779 21.1294863,16.5989138 C21.1380996,16.600777 21.1468359,16.6025161 21.1554492,16.6045035 C21.1598789,16.6054972 21.1643086,16.606491 21.1687383,16.6074847 C21.1804277,16.6100932 21.1919941,16.6127017 21.2036836,16.6154345 C21.2041758,16.6155587 21.204791,16.6156829 21.2052832,16.6158071 C22.7503828,16.9770257 23.9199434,18.3391726 24.0047227,19.9861456 C24.0048457,19.989251 24.0049688,19.9922321 24.0052148,19.9953375 C24.0058301,20.007138 24.0063223,20.0189385 24.0068145,20.0307389 C24.0070605,20.0373224 24.0073066,20.0439058 24.0075527,20.0504892 C24.0077988,20.0598054 24.008168,20.0692457 24.0084141,20.0786861 C24.0086602,20.0880023 24.0087832,20.0974426 24.0090293,20.1067588 C24.0091523,20.1138391 24.0093984,20.1207952 24.0093984,20.1278754 C24.0096445,20.1446445 24.0097676,20.1612894 24.0097676,20.1780585 C24.0097676,20.1948276 24.0096445,20.2115967 24.0093984,20.2282415 C24.0092754,20.2353218 24.0091523,20.2422779 24.0090293,20.2493582 C24.0089063,20.2586743 24.0086602,20.2679905 24.0084141,20.2774309 C24.008168,20.2868712 24.0077988,20.2961874 24.0075527,20.3056278 C24.0073066,20.3122112 24.0070605,20.3187946 24.0068145,20.325378 C24.0063223,20.3371785 24.0058301,20.348979 24.0052148,20.3607795 C24.0050918,20.3638848 24.0049688,20.366866 24.0047227,20.3699714 C23.9072695,22.2648785 22.3739824,23.7825431 20.4849668,23.8329746 C20.4822598,23.8330988 20.4796758,23.8330988 20.4769688,23.833223 C20.4649102,23.8334715 20.4528516,23.8337199 20.440793,23.8339683 C20.4378398,23.8339683 20.4347637,23.8340925 20.4318105,23.8340925 C20.417168,23.8342168 20.4025254,23.834341 20.3880059,23.834341 C20.3733633,23.834341 20.3587207,23.8342168 20.3440781,23.8340925 C20.341125,23.8340925 20.3381719,23.8339683 20.3352188,23.8339683 C20.3231602,23.8338441 20.3111016,23.8335957 20.299043,23.833223 C20.2963359,23.8330988 20.293752,23.8330988 20.2910449,23.8329746 C18.3385371,23.7809283 16.7661211,22.161407 16.7661211,20.1781827 C16.7662441,18.698528 17.6413535,17.4214687 18.8965547,16.8465995 C18.8981543,16.8458542 18.8996309,16.8451089 18.9012305,16.8444878 C18.913043,16.8391465 18.9248555,16.8338053 18.936791,16.828464 C18.9377754,16.8279671 18.9388828,16.8275945 18.9398672,16.8270976 C18.9516797,16.8218806 18.9633691,16.8167878 18.9753047,16.8116949 C18.9799805,16.8097075 18.9847793,16.80772 18.9894551,16.8056084 C18.9960996,16.8027514 19.0027441,16.8000187 19.0093887,16.7972859 Z M18.9905625,14.2014309 L18.9905625,12.9057393 L21.6637559,12.9057393 L21.6637559,14.1736067 L21.6636328,14.1736067 C21.2521641,14.0846684 20.8254375,14.037715 20.3881289,14.037715 C19.9072617,14.037715 19.4394375,14.0944814 18.9905625,14.2014309 Z M18.703125,47.164864 L18.703125,26.0810263 C19.217584,26.230209 19.7534531,26.3102038 20.3011348,26.3179052 C20.3065488,26.3180294 20.3119629,26.3180294 20.317377,26.3181536 C20.3408789,26.318402 20.3645039,26.3186505 20.3880059,26.3186505 C20.4116309,26.3186505 20.4351328,26.3185262 20.4586348,26.3181536 C20.4640488,26.3180294 20.4694629,26.3180294 20.474877,26.3179052 C21.0225586,26.310328 21.5583047,26.2303333 22.0728867,26.0810263 L22.0728867,47.164864 L20.3881289,49.9744938 L18.703125,47.164864 Z M60.5390625,52.9933025 L21.4544531,52.9933025 L24.3558984,48.1547371 C24.4721777,47.9607125 24.5337012,47.7382426 24.5337012,47.5114252 L24.5337012,25.3132504 L51.4541426,25.3132504 C52.0165898,25.3132504 52.4910586,24.9322815 52.6377305,24.4118187 L56.6187891,21.4202132 L57.7513125,21.4202132 C58.4307773,21.4202132 58.9817812,20.8641006 58.9817812,20.1780585 C58.9817812,19.4920164 58.4307773,18.9359037 57.7513125,18.9359037 L56.6149746,18.9359037 L52.6501582,15.9922454 C52.5197285,15.4475606 52.0338164,15.0428666 51.4541426,15.0428666 L24.1245703,15.0428666 L24.1245703,11.6633362 C24.1245703,10.9772941 23.5735664,10.4211814 22.8941016,10.4211814 L17.7599707,10.4211814 C17.0803828,10.4211814 16.529502,10.9772941 16.529502,11.6633362 L16.529502,15.434518 C15.4032539,16.3698605 14.6146465,17.7050526 14.3787656,19.2230899 L14.3787656,7.25766173 C14.3787656,7.23828411 14.3786426,7.2189065 14.3785195,7.19952888 C14.3785195,7.19431183 14.3783965,7.189219 14.3783965,7.18400195 C14.3781504,7.16723286 14.3780273,7.15046377 14.3776582,7.13369468 C14.3776582,7.13083773 14.3775352,7.12810499 14.3775352,7.12524803 C14.377166,7.10450405 14.3766738,7.08376006 14.3761816,7.06301608 C14.3761816,7.06276765 14.3761816,7.06251922 14.3761816,7.06227078 C14.3755664,7.04102994 14.3749512,7.01966488 14.3742129,6.99842403 C14.3742129,6.9981756 14.3742129,6.99792717 14.3742129,6.99767874 C14.3651074,6.73719889 14.3423438,6.48019707 14.3065371,6.22741858 L60.5390625,6.22741858 L60.5390625,52.9933025 Z M26.4702129,20.1036534 C26.4702129,20.1014175 26.4702129,20.0991817 26.4700898,20.0969458 C26.4697207,20.07173 26.4692285,20.0466385 26.4686133,20.0214228 C26.4686133,20.0206775 26.4686133,20.0199322 26.4686133,20.0190627 C26.4467109,19.1397413 26.2431914,18.2945793 25.8795879,17.5273003 L50.2237969,17.5273003 L50.2237969,18.936028 L34.1292656,18.936028 C33.4498008,18.936028 32.8987969,19.4921406 32.8987969,20.1781827 C32.8987969,20.8642248 33.4498008,21.4203374 34.1292656,21.4203374 L50.2237969,21.4203374 L50.2237969,22.8290651 L25.8795879,22.8290651 C26.2431914,22.0616619 26.4467109,21.2164999 26.4686133,20.3374269 C26.4686133,20.3366816 26.4686133,20.3359364 26.4686133,20.3351911 C26.4692285,20.3100995 26.4697207,20.2848838 26.4700898,20.2596681 C26.4700898,20.2574322 26.4700898,20.2551963 26.4702129,20.2529604 C26.470459,20.2281173 26.4707051,20.20315 26.4707051,20.1783069 C26.4707051,20.1533396 26.470582,20.1284965 26.4702129,20.1036534 Z M52.6847344,21.2796013 L52.6847344,19.1017314 L54.1425938,20.1840208 L52.6847344,21.2796013 Z" id="Shape" fill="#000000" fill-rule="nonzero"></path>
                <path d="M8.4344762,36.8663323 C8.41613946,36.776041 8.38948067,36.6871606 8.35421771,36.6025126 C8.31895475,36.5178645 8.27508763,36.4360381 8.22445003,36.3584441 C8.17367137,36.2822609 8.1144296,36.2088992 8.04954576,36.1440024 C7.98466192,36.0791056 7.91272549,36.019852 7.83500593,35.9690632 C7.75883794,35.9182743 7.67702788,35.8745395 7.59112732,35.8392695 C7.50635517,35.8039995 7.41763357,35.7771943 7.3273604,35.7588539 C7.14540354,35.7221731 6.95780461,35.7221731 6.77584775,35.7588539 C6.6869851,35.7771943 6.59812244,35.8039995 6.51208083,35.8392695 C6.42744973,35.8745395 6.34563967,35.9182743 6.26947168,35.9690632 C6.19189318,36.019852 6.11981569,36.0791056 6.05493185,36.1440024 C5.99004801,36.2088992 5.93080624,36.2822609 5.87861707,36.3584441 C5.82797946,36.4360381 5.78411234,36.5178645 5.74884938,36.6025126 C5.71358643,36.6871606 5.68692763,36.776041 5.66859089,36.8663323 C5.65025415,36.9580343 5.64179104,37.0497363 5.64179104,37.1414383 C5.64179104,37.2345512 5.65039521,37.3262532 5.66859089,37.4179552 C5.68692763,37.5082465 5.71358643,37.5971269 5.74884938,37.6817749 C5.78411234,37.7664229 5.82797946,37.8482494 5.87861707,37.9244326 C5.93080624,38.0020266 5.99004801,38.0739774 6.05493185,38.1388743 C6.11981569,38.2051819 6.19189318,38.2630247 6.26947168,38.3152243 C6.34563967,38.3660131 6.42744973,38.409748 6.51208083,38.445018 C6.59812244,38.480288 6.6869851,38.5070932 6.77584775,38.5254336 C6.86753144,38.543774 6.9607667,38.5522388 7.05230933,38.5522388 C7.14399302,38.5522388 7.23722828,38.543774 7.3273604,38.5254336 C7.41763357,38.5070932 7.50635517,38.480288 7.59112732,38.445018 C7.67702788,38.409748 7.75883794,38.3660131 7.83500593,38.3152243 C7.91272549,38.2630247 7.98466192,38.2051819 8.04954576,38.1388743 C8.1144296,38.0739774 8.17367137,38.0020266 8.22445003,37.9244326 C8.27508763,37.8482494 8.31895475,37.7664229 8.35421771,37.6817749 C8.38948067,37.5971269 8.41613946,37.5082465 8.4344762,37.4179552 C8.45281294,37.3262532 8.46268657,37.2345512 8.46268657,37.1414383 C8.46268657,37.0497363 8.45281294,36.9580343 8.4344762,36.8663323 Z" id="Path" fill="#000000" fill-rule="nonzero"></path>
                <path d="M31.0016404,19.9409591 C30.9833036,19.8506679 30.9565038,19.7617875 30.9212408,19.6771394 C30.8859779,19.5910806 30.8422518,19.5092542 30.7914732,19.433071 C30.7408355,19.3554769 30.6814527,19.2835261 30.6165689,19.2186293 C30.551685,19.1537325 30.4797486,19.0944788 30.4021701,19.04369 C30.3260021,18.9929012 30.2441921,18.9491664 30.1581504,18.9138964 C30.0735193,18.8786264 29.9847977,18.8518212 29.8945246,18.8334808 C29.7125677,18.7967999 29.5263793,18.7967999 29.3444224,18.8334808 C29.2541493,18.8518212 29.1652866,18.8786264 29.079245,18.9138964 C28.9944729,18.9491664 28.9126628,18.9929012 28.8366359,19.04369 C28.7589163,19.0944788 28.6869799,19.1537325 28.622096,19.2186293 C28.5572122,19.2835261 28.4979704,19.3554769 28.4457812,19.433071 C28.3950026,19.5092542 28.3512765,19.5910806 28.3160136,19.6771394 C28.2821611,19.7617875 28.2539508,19.8506679 28.235614,19.9409591 C28.2186878,20.0312503 28.2089552,20.1243632 28.2089552,20.2160652 C28.2089552,20.3077672 28.2186878,20.4008801 28.235614,20.4925821 C28.2538097,20.5814625 28.2821611,20.670343 28.3160136,20.7564018 C28.3512765,20.8410498 28.3950026,20.9228762 28.4457812,20.9990595 C28.4979704,21.0766535 28.5572122,21.1486043 28.622096,21.2135011 C28.6869799,21.278398 28.7589163,21.3376516 28.8366359,21.3898512 C28.9126628,21.44064 28.9944729,21.4843748 29.079245,21.5196448 C29.1651456,21.5549148 29.2541493,21.5818611 29.3444224,21.6000605 C29.4346956,21.6184009 29.5277898,21.6268657 29.6194735,21.6268657 C29.7110161,21.6268657 29.8042514,21.6184009 29.8945246,21.6000605 C29.9847977,21.5817201 30.0736604,21.5549148 30.1581504,21.5196448 C30.2441921,21.4843748 30.3260021,21.4407811 30.4021701,21.3898512 C30.4797486,21.3376516 30.551685,21.278398 30.6165689,21.2135011 C30.6814527,21.1486043 30.7408355,21.0766535 30.7914732,20.9990595 C30.8422518,20.9228762 30.8859779,20.8410498 30.9212408,20.7564018 C30.9565038,20.670343 30.9833036,20.5814625 31.0016404,20.4925821 C31.0199771,20.4008801 31.0298507,20.3077672 31.0298507,20.2160652 C31.0298507,20.1243632 31.0199771,20.0312503 31.0016404,19.9409591 Z" id="Path" fill="#000000" fill-rule="nonzero"></path>
                <path d="M48.3209683,28.9089624 C48.0235103,28.2928727 47.2825899,28.0350439 46.6672407,28.3326245 C46.0513963,28.630205 45.7933187,29.3706271 46.0910243,29.9863452 C48.4501309,34.8684995 47.4578201,40.7261187 43.621826,44.5619732 C39.7858319,48.3980754 33.9283125,49.3902583 29.0461382,47.0311613 C28.4302937,46.7335808 27.6899925,46.9914096 27.3922868,47.6073754 C27.094705,48.2232174 27.3527826,48.9636394 27.9685033,49.26122 C30.0785725,50.280771 32.3404666,50.7761194 34.5860141,50.7761194 C38.5446075,50.7761194 42.4506936,49.2358334 45.3731376,46.3134014 C49.953272,41.7331621 51.1380265,34.738842 48.3209683,28.9089624 Z" id="Path" fill="#000000" fill-rule="nonzero"></path>
            </g>
        </g>
    </g>
</svg>