<?xml version="1.0" encoding="UTF-8"?>
<svg width="63px" height="55px" viewBox="0 0 63 55" version="1.1" xmlns="http://www.w3.org/2000/svg" xmlns:xlink="http://www.w3.org/1999/xlink">
    <!-- Generator: Sketch 52.1 (67048) - http://www.bohemiancoding.com/sketch -->
    <title>blueprint (1)</title>
    <desc>Created with Sketch.</desc>
    <g id="Blog" stroke="none" stroke-width="1" fill="none" fill-rule="evenodd">
        <g id="DM---Landing-Page" transform="translate(-463.000000, -3810.000000)">
            <g id="blueprint-(1)" transform="translate(463.000000, 3810.000000)">
                <path d="M7.49970699,10 C7.40242229,10 7.30337955,9.99003716 7.20726703,9.97011133 C7.11115451,9.95077166 7.01680018,9.92205517 6.9265481,9.88454786 C6.835124,9.84704055 6.74838831,9.80074244 6.66751322,9.74682568 C6.58487978,9.69290893 6.50810708,9.62961535 6.43895288,9.56046133 C6.37038484,9.49130716 6.30709122,9.41512052 6.25141625,9.33248712 C6.19749947,9.25161207 6.15237351,9.16487642 6.11486618,9.07286635 C6.07735886,8.98320048 6.04747017,8.88884606 6.02988869,8.79273358 C6.00996285,8.69662111 6,8.59757842 6,8.49970775 C6,8.40242325 6.00996285,8.30338056 6.02988869,8.20726794 C6.04747017,8.11115562 6.07735886,8.01680119 6.11486618,7.92537713 C6.15237351,7.83512525 6.19749947,7.7483896 6.25141625,7.6675144 C6.30709122,7.58488115 6.37038484,7.50810835 6.43895288,7.43954034 C6.50810708,7.37038632 6.58487978,7.30709259 6.66751322,7.25317599 C6.74838831,7.19750104 6.835124,7.15296112 6.9265481,7.11545381 C7.01680018,7.07794651 7.11115451,7.04747182 7.20726703,7.02989019 C7.4006641,6.99062485 7.59874974,6.98945267 7.79214696,7.02989019 C7.88825933,7.04747182 7.98319982,7.07794651 8.07286573,7.11545381 C8.16428984,7.15296112 8.25161169,7.19750104 8.33248678,7.25317599 C8.41512007,7.30709259 8.4913069,7.37038632 8.56046096,7.43954034 C8.62961516,7.50810835 8.69232276,7.58488115 8.74623939,7.6675144 C8.80074233,7.7483896 8.84704048,7.83512525 8.8845478,7.92537713 C8.92205513,8.01680119 8.95194366,8.11115562 8.97011131,8.20726794 C8.98945099,8.30338056 9,8.40242325 9,8.49970775 C9,8.59757842 8.98945099,8.69662111 8.97011131,8.79273358 C8.95194366,8.88884606 8.92205513,8.98320048 8.8845478,9.07286635 C8.84704048,9.16487642 8.80074233,9.25161207 8.74623939,9.33248712 C8.69232276,9.41512052 8.62961516,9.49130716 8.56046096,9.56046133 C8.4913069,9.62961535 8.41512007,9.69290893 8.33248678,9.74682568 C8.25161169,9.80074244 8.16428984,9.84704055 8.07286573,9.88454786 C7.9826138,9.92205517 7.88825933,9.95077166 7.79214696,9.97011133 C7.69603429,9.99003716 7.59757756,10 7.49970699,10 Z" id="Path" fill="#000000" fill-rule="nonzero"></path>
                <rect id="Rectangle" fill="#FFCA13" x="22" y="37" width="31" height="4"></rect>
                <rect id="Rectangle-Copy-29" fill="#FFCA13" x="21" y="10" width="11" height="9"></rect>
                <rect id="Rectangle-Copy-30" fill="#FFCA13" x="1" y="2" width="11" height="41" rx="2"></rect>
                <path d="M38.5,16 C38.4027343,16 38.303125,15.9912083 38.2076172,15.9712807 C38.1115234,15.9519391 38.0166015,15.9232198 37.9269531,15.8857088 C37.8355468,15.8481978 37.7482422,15.8018952 37.6673829,15.7479731 C37.5847656,15.6922927 37.5085938,15.629579 37.439453,15.5604182 C37.3703125,15.4912572 37.3076172,15.4150631 37.2537109,15.3324217 C37.1998047,15.2515386 37.1529297,15.1642083 37.1154297,15.0739475 C37.0779297,14.9825144 37.0498047,14.8899092 37.0298829,14.7937873 C37.0105468,14.695907 37,14.5986128 37,14.4995604 C37,14.105109 37.1605468,13.7176908 37.439453,13.4387028 C37.5085938,13.3695419 37.5853514,13.3068283 37.6679688,13.2529061 C37.7488281,13.198398 37.8355468,13.1520955 37.9269531,13.1145845 C38.0171875,13.0770735 38.1115234,13.048354 38.2076172,13.0290125 C38.4009765,12.9903292 38.6007813,12.9903292 38.7941406,13.0290125 C38.8884764,13.048354 38.9833984,13.0770735 39.0748047,13.1145845 C39.164453,13.1520955 39.2517579,13.198398 39.3326172,13.2529061 C39.4152343,13.3068283 39.4914063,13.3695419 39.5605468,13.4387028 C39.8394531,13.7176908 40,14.105109 40,14.4995604 C40,14.5986128 39.9912109,14.695907 39.971875,14.7937873 C39.9525389,14.8899092 39.923828,14.9825144 39.8863281,15.0739475 C39.8488281,15.1642083 39.8025389,15.2515386 39.7480468,15.3324217 C39.6929687,15.4150631 39.6296875,15.4912572 39.5605468,15.5604182 C39.4919922,15.629579 39.4152343,15.6922927 39.3326172,15.7479731 C39.2517579,15.8018952 39.165039,15.8481978 39.0748047,15.8857088 C38.9833984,15.9232198 38.8884765,15.9519391 38.7941406,15.9712807 C38.6962889,15.9912083 38.5972656,16 38.5,16 Z" id="Path" fill="#000000" fill-rule="nonzero"></path>
                <path d="M61.6349513,3.71037852 L13.3751919,3.71037852 C12.1471287,1.49944894 9.78857444,0 7.08683544,0 C5.16663484,0 3.30026714,0.790373679 1.96694145,2.16811569 C0.645151375,3.53479341 -0.0517925748,5.32576185 0.0030016343,7.21390337 L0.0030016343,47.2987878 C-0.00084357336,47.4358885 -0.00084357336,47.5734703 0.0030016343,47.7120142 C-0.0344891404,49.5967883 0.684564692,51.3920862 2.02894539,52.767904 C3.41514275,54.1865357 5.34495637,55 7.32427708,55 L61.7695335,55 C62.4491741,55 63,54.4487107 63,53.7684988 L63,5.07657521 C63,4.32324287 62.3876507,3.71037852 61.6349513,3.71037852 Z M3.73477561,3.88163416 C4.62013473,2.96666728 5.8102265,2.46300248 7.08683544,2.46300248 C9.69388623,2.46300248 11.8149989,4.58541791 11.8149989,7.19514219 L11.8149989,42.279458 C10.8690778,41.4510811 9.70542186,40.866599 8.42256448,40.6246282 L8.42256448,12.8456163 C8.42256448,12.1654042 7.87173843,11.6141151 7.19209803,11.6141151 C6.51293826,11.6141151 5.96163158,12.1654042 5.96163158,12.8456163 L5.96163158,40.5904733 C4.67540962,40.7982891 3.4584014,41.3572753 2.4639346,42.2024892 L2.4639346,7.19514219 C2.4639346,7.18167264 2.4639346,7.16868424 2.46345385,7.15569572 C2.42404054,5.93237239 2.87537182,4.76966207 3.73477561,3.88163416 Z M60.5390671,52.5369975 L7.32427708,52.5369975 C6.0029675,52.5369975 4.71434232,51.9934051 3.78860851,51.0457265 C2.90709472,50.143748 2.4365374,48.974303 2.4639346,47.7514607 C2.4639346,47.7379911 2.4639346,47.7245216 2.4639346,47.710571 C2.4639346,47.7057604 2.4639346,47.7004689 2.4639346,47.6951772 L2.4639346,47.3435259 C2.50430915,46.2356558 2.94891138,45.1936903 3.73477561,44.3816692 C4.62013473,43.4667022 5.8102265,42.9630375 7.08683544,42.9630375 C9.69388623,42.9630375 11.8149989,45.085934 11.8149989,47.6951772 C11.8149989,48.3753892 12.3658249,48.9266785 13.0454653,48.9266785 C13.7251058,48.9266785 14.2759318,48.3753892 14.2759318,47.6951772 L14.2759318,7.19514219 C14.2759318,6.84830144 14.2514186,6.50723335 14.2038342,6.173381 L60.5390671,6.173381 L60.5390671,52.5369975 Z" id="Shape" fill="#000000" fill-rule="nonzero"></path>
                <path d="M21.221237,31.9995115 L39.2387755,31.9995115 C39.913318,31.9995115 40.4600124,31.4398343 40.4600124,30.7492727 C40.4600124,30.6892027 40.4557189,30.6301094 40.4476092,30.5719928 C40.4557189,30.5138762 40.4600124,30.4547829 40.4600124,30.3942244 L40.4600124,20.0631489 C40.4600124,19.3725873 39.913318,18.81291 39.2387755,18.81291 C38.56471,18.81291 38.0175385,19.3725873 38.0175385,20.0631489 L38.0175385,29.4990338 L33.2957403,29.4990338 L33.2957403,25.8254804 C33.2957403,25.1349187 32.749046,24.5752415 32.0745033,24.5752415 C29.2179538,24.5752415 26.8389269,26.7074849 26.3761927,29.4990338 L22.4424739,29.4990338 L22.4424739,11.5004778 L30.8532664,11.5004778 L30.8532664,17.7482535 L25.826159,17.7482535 C25.1516164,17.7482535 24.6049221,18.3084191 24.6049221,18.9984924 C24.6049221,19.6890541 25.1516164,20.2487312 25.826159,20.2487312 L32.0745033,20.2487312 C32.749046,20.2487312 33.2957403,19.6890541 33.2957403,18.9984924 L33.2957403,11.5004778 L46.877708,11.5004778 C47.3728815,13.8466291 49.2304973,15.6799872 51.5575261,16.0843615 L51.5575261,19.8746364 L45.1818106,19.8746364 C44.507268,19.8746364 43.9605736,20.4348019 43.9605736,21.1248753 C43.9605736,21.8154368 44.507268,22.3751141 45.1818106,22.3751141 L51.5575261,22.3751141 L51.5575261,29.4995222 L45.792429,29.4995222 C45.1178865,29.4995222 44.5711921,30.0591994 44.5711921,30.7497611 C44.5711921,31.4398343 45.1178865,32 45.792429,32 L52.778763,32 C53.4533057,32 54,31.4398343 54,30.7497611 L54,10.2502389 C54,9.55967731 53.4533057,9 52.778763,9 L21.221237,9 C20.5466944,9 20,9.55967731 20,10.2502389 L20,30.7492727 C20,31.4398343 20.5466944,31.9995115 21.221237,31.9995115 Z M30.8532664,27.3125809 L30.8532664,29.4990338 L28.8806825,29.4990338 C29.178359,28.4998195 29.9115783,27.6930247 30.8532664,27.3125809 Z M51.5575261,11.5004778 L51.5575261,13.5199066 C50.5814907,13.2156492 49.7934112,12.4645291 49.4217926,11.5004778 L51.5575261,11.5004778 Z" id="Shape" fill="#000000" fill-rule="nonzero"></path>
                <path d="M52.778763,43 L21.221237,43 C20.5466944,43 20,42.3942116 20,41.6467557 L20,36.3532443 C20,35.6057884 20.5466944,35 21.221237,35 L52.778763,35 C53.4533057,35 54,35.6057884 54,36.3532443 L54,41.6467557 C54,42.3942116 53.4533057,43 52.778763,43 Z M22.4424739,40.2935113 L51.5575261,40.2935113 L51.5575261,37.7064887 L22.4424739,37.7064887 L22.4424739,40.2935113 Z" id="Shape" fill="#000000" fill-rule="nonzero"></path>
                <path d="M52.5,48 C52.4021486,48 52.303125,47.9912079 52.2070314,47.9718653 C52.1109375,47.9519366 52.0166016,47.9238019 51.9269532,47.886289 C51.835547,47.8487762 51.7482423,47.8018851 51.6673828,47.7479603 C51.5847657,47.6922773 51.5085939,47.6295604 51.4394532,47.560396 C51.1605469,47.281394 51,46.8945425 51,46.4994852 C51,46.4021861 51.0099611,46.3031287 51.0298829,46.207002 C51.0492189,46.1108752 51.0779298,46.016507 51.1154298,45.9262415 C51.1529298,45.8348039 51.1992189,45.7480554 51.253125,45.6665822 C51.3070314,45.5845227 51.3703125,45.5077386 51.4394532,45.4385742 C51.5080078,45.369996 51.5847657,45.3066931 51.6673828,45.2527683 C51.7482423,45.1988436 51.834961,45.1519525 51.9269532,45.1144396 C52.0166016,45.0769267 52.1109375,45.0487921 52.2070314,45.0288634 C52.6945314,44.9298059 53.2119141,45.0904079 53.5599611,45.4385742 C53.8394532,45.7175762 54,46.1050138 54,46.4994852 C54,46.8945425 53.8394532,47.281394 53.5599611,47.560396 C53.2810548,47.8393979 52.894336,48 52.5,48 Z" id="Path" fill="#000000" fill-rule="nonzero"></path>
                <path d="M46.7680871,48 L20.2319129,48 C19.5514736,48 19,47.3285155 19,46.5 C19,45.6720704 19.5514736,45 20.2319129,45 L46.7680871,45 C47.4485265,45 48,45.6720704 48,46.5 C48,47.3285155 47.4485265,48 46.7680871,48 Z" id="Path" fill="#000000" fill-rule="nonzero"></path>
            </g>
        </g>
    </g>
</svg>