<?xml version="1.0" encoding="UTF-8"?>
<svg width="64px" height="59px" viewBox="0 0 64 59" version="1.1" xmlns="http://www.w3.org/2000/svg" xmlns:xlink="http://www.w3.org/1999/xlink">
    <!-- Generator: sketchtool 58 (101010) - https://sketch.com -->
    <title>D9C22B5E-CB9F-4B58-84B8-BA27A2273CD2@1.00x</title>
    <desc>Created with sketchtool.</desc>
    <g id="Blog" stroke="none" stroke-width="1" fill="none" fill-rule="evenodd">
        <g id="DM---Landing-Page" transform="translate(-641.000000, -3806.000000)">
            <g id="blueprint-(2)" transform="translate(641.000000, 3806.000000)">
                <path d="M56.7587184,37.3966668 C56.0731043,37.3966668 55.5174369,37.9508941 55.5174369,38.6347313 L55.5174369,39.4597852 L24.0684047,39.4597852 C23.7832979,39.4597852 23.5515273,39.2286154 23.5515273,38.9442475 L23.5515273,7.47612907 L24.37921,7.47612907 C25.0643392,7.47612907 25.6204915,6.92190168 25.6204915,6.23806453 C25.6204915,5.55422726 25.0643392,5 24.37921,5 L20.2412816,5 C19.5556674,5 19,5.55422726 19,6.23806453 C19,6.92190168 19.5556674,7.47612907 20.2412816,7.47612907 L21.0689641,7.47612907 L21.0689641,38.9442475 C21.0689641,40.5938716 22.414494,41.9363979 24.0684047,41.9363979 L55.5174369,41.9363979 L55.5174369,42.7619355 C55.5174369,43.445289 56.0731043,44 56.7587184,44 C57.4443325,44 58,43.445289 58,42.7619355 L58,38.6347313 C58,37.9508941 57.4443325,37.3966668 56.7587184,37.3966668 Z" id="Path" fill="#000000" fill-rule="nonzero"></path>
                <rect id="Rectangle" fill="#FFCA13" x="2" y="9" width="12" height="48"></rect>
                <rect id="Rectangle-Copy-31" fill="#FFCA13" x="41" y="11" width="13" height="13"></rect>
                <path d="M29.6952245,35.6582472 L31.2301989,35.6582472 C31.9103787,35.6582472 32.4616419,35.1052597 32.4616419,34.4229521 C32.4616419,33.7406447 31.9103787,33.187657 31.2301989,33.187657 L29.6952245,33.187657 C29.56727,33.187657 29.4628859,33.083429 29.4628859,32.9545916 L29.4628859,24.6578479 L48.0066847,24.6578479 C48.6868646,24.6578479 49.2381277,24.1048604 49.2381277,23.4225528 C49.2381277,22.7402452 48.6868646,22.1872577 48.0066847,22.1872577 L41.8311908,22.1872577 L41.8311908,11.4705902 L53.3052566,11.4705902 C53.4332111,11.4705902 53.5375951,11.5753007 53.5375951,11.7036556 L53.5375951,32.9545916 C53.5375951,33.083429 53.4332111,33.187657 53.3052566,33.187657 L38.6780235,33.187657 C38.1421534,33.187657 37.6216764,33.3797069 37.2132798,33.7285813 L34.7604957,35.82424 C34.2424237,36.2662441 34.1803706,37.0460241 34.6214774,37.5657167 C34.8648797,37.8523437 35.211223,38 35.5594905,38 C35.8418565,38 36.1256656,37.9030101 36.3570423,37.7051699 L38.7530646,35.6587299 L53.3047756,35.6587299 C54.7911656,35.6587299 56,34.4456314 56,32.9550742 L56,11.7036556 C56,10.2126158 54.7911656,9 53.3047756,9 L29.6952245,9 C28.2088345,9 27,10.2126158 27,11.7036556 L27,32.9545916 C27,34.4456314 28.2088345,35.6582472 29.6952245,35.6582472 L29.6952245,35.6582472 Z M29.4628859,11.7036556 C29.4628859,11.5753007 29.56727,11.4705902 29.6952245,11.4705902 L39.3683049,11.4705902 L39.3683049,22.1872577 L29.4628859,22.1872577 L29.4628859,11.7036556 Z" id="Shape" fill="#000000" fill-rule="nonzero"></path>
                <path d="M14.5,28 C13.6720704,28 13,28.6728479 13,29.5008783 C13,30.3289089 13.6720704,31 14.5,31 C15.3285156,31 16,30.3289089 16,29.5008783 L16,29.4973648 C16,28.6693344 15.3285156,28 14.5,28 Z" id="Path" fill="#000000" fill-rule="nonzero"></path>
                <path d="M58.9506836,0 L8.19677737,0 C8.1396485,0 8.08300775,0 8.0268555,0.00195584433 C7.95605475,0 7.88476562,0 7.8134765,0 C3.43212887,0 0,2.23846377 0,5.09595246 L0,53.9040475 C0,56.7615362 3.43212887,59 7.8134765,59 C12.1948242,59 15.6269531,56.7615362 15.6269531,53.9040475 L15.6269531,48.9156666 L58.9506836,48.9156666 C61.7348632,48.9156666 64,46.6473762 64,43.8593201 L64,5.05634652 C64,2.26829049 61.7348633,0 58.9506836,0 L58.9506836,0 Z M7.8134765,2.50348074 C10.8544922,2.50348074 13.1269531,3.87208284 13.1269531,5.09595246 C13.1269531,6.31982195 10.8544922,7.68842405 7.8134765,7.68842405 C4.772461,7.68842405 2.5,6.31982195 2.5,5.09595246 C2.5,3.87208284 4.772461,2.50348074 7.8134765,2.50348074 Z M61.5,43.8593201 C61.5,45.2665501 60.3564452,46.4121859 58.9506836,46.4121859 L15.6269531,46.4121859 L15.6269531,34.5069615 C15.6269531,33.8155706 15.0673827,33.2552211 14.3769531,33.2552211 C13.6865235,33.2552211 13.1269531,33.8155706 13.1269531,34.5069615 L13.1269531,53.9040475 C13.1269531,55.1279172 10.8544922,56.4965193 7.8134765,56.4965193 C4.772461,56.4965193 2.5,55.1279172 2.5,53.9040475 L2.5,8.86290864 C3.88427737,9.69169758 5.743164,10.1919048 7.8134765,10.1919048 C9.883789,10.1919048 11.7426757,9.69169758 13.1269531,8.86290864 L13.1269531,24.4930385 C13.1269531,25.1844294 13.6870117,25.7447789 14.3769531,25.7447789 C15.0673827,25.7447789 15.6269531,25.1844294 15.6269531,24.4930385 L15.6269531,5.09595246 C15.6269531,4.14296722 15.2456055,3.25892558 14.5737305,2.50348074 L58.9506836,2.50348074 C60.3564452,2.50348074 61.5,3.64862766 61.5,5.05634652 L61.5,43.8593201 Z" id="Shape" fill="#000000" fill-rule="nonzero"></path>
            </g>
        </g>
    </g>
</svg>