<?xml version="1.0" encoding="UTF-8"?>
<svg width="22px" height="15px" viewBox="0 0 22 15" version="1.1" xmlns="http://www.w3.org/2000/svg" xmlns:xlink="http://www.w3.org/1999/xlink">
    <!-- Generator: sketchtool 58 (101010) - https://sketch.com -->
    <title>AC8C079F-CB64-42AE-B1C6-0671C567E6A7@1.00x</title>
    <desc>Created with sketchtool.</desc>
    <g id="Blog" stroke="none" stroke-width="1" fill="none" fill-rule="evenodd">
        <g id="DM---Landing-Page" transform="translate(-325.000000, -5109.000000)" fill="#000000" fill-rule="nonzero">
            <g id="Group-17" transform="translate(199.000000, 4839.000000)">
                <g id="arrow-pointing-to-right" transform="translate(126.000000, 270.000000)">
                    <path d="M21.7003599,6.78331322 L15.1535324,0.296817969 C14.7540941,-0.0989393229 14.1062855,-0.0989393229 13.7068472,0.296817969 C13.3073271,0.692656341 13.3073271,1.33433288 13.7068472,1.73017126 L18.5073903,6.48647498 L1.02294179,6.48647498 C0.458032418,6.48647498 0,6.94028641 0,7.49998986 C0,8.05961224 0.458032418,8.51350475 1.02294179,8.51350475 L18.5073903,8.51350475 L13.7070109,13.2698085 C13.3074907,13.6656468 13.3074907,14.3073234 13.7070109,14.7031618 C13.9066891,14.9009188 14.1685622,15 14.4303535,15 C14.6921447,15 14.953936,14.9009188 15.1536961,14.7031618 L21.7003599,8.21666651 C22.09988,7.82082814 22.09988,7.17915159 21.7003599,6.78331322 Z" id="Path"></path>
                </g>
            </g>
        </g>
    </g>
</svg>