<?xml version="1.0" encoding="UTF-8"?>
<svg width="56px" height="56px" viewBox="0 0 56 56" version="1.1" xmlns="http://www.w3.org/2000/svg" xmlns:xlink="http://www.w3.org/1999/xlink">
    <!-- Generator: Sketch 52.1 (67048) - http://www.bohemiancoding.com/sketch -->
    <title>chat</title>
    <desc>Created with Sketch.</desc>
    <g id="Blog" stroke="none" stroke-width="1" fill="none" fill-rule="evenodd">
        <g id="DM---Landing-Page" transform="translate(-645.000000, -3349.000000)">
            <g id="chat" transform="translate(645.000000, 3349.000000)">
                <path d="M44.9779985,46 C44.7562233,46 44.5344481,45.9369049 44.343475,45.8107148 C44.2805506,45.769362 42.7897284,44.7803041 41.2799849,43.4028705 C39.1035957,41.4179338 38,39.6329401 38,38.0981952 C38,35.8382834 39.8974101,34 42.23001,34 C43.2874026,34 44.2739503,34.372602 45.0312422,35.022737 C45.7819336,34.4037232 46.7451597,34.0498792 47.76955,34.0498792 C50.1021499,34.0498792 52,35.8881625 52,38.1480745 C52,39.68623 50.9179658,41.4085548 48.6927332,43.4139549 C47.1724289,44.7837147 45.6723661,45.7710672 45.6090018,45.8124201 C45.4180287,45.9377576 45.1980135,46 44.9779985,46 Z M42.23001,36.1827483 C41.1396153,36.1827483 40.2529545,37.0422055 40.2529545,38.0981952 C40.2529545,39.5787977 42.8385718,42.0301265 44.9806387,43.5704135 C47.1389866,42.0331107 49.7466055,39.5967031 49.7466055,38.1480745 C49.7466055,37.0920847 48.8599447,36.2326275 47.76955,36.2326275 C47.028099,36.2326275 46.3552929,36.6299559 46.0129495,37.269433 C45.817576,37.6347875 45.4285894,37.8671309 45.0022001,37.8586045 C44.577571,37.8547677 44.1912245,37.6198664 44.0033317,37.2511014 C43.6667085,36.5920136 42.9873019,36.1827483 42.23001,36.1827483 Z" id="Shape" fill="#000000" fill-rule="nonzero"></path>
                <rect id="Rectangle" fill="#FFCA13" x="28" y="37" width="5" height="13"></rect>
                <polygon id="Rectangle-Copy-25" fill="#FFCA13" points="3.98565197 2 36 2 19.992826 17 19.8517761 17"></polygon>
                <polygon id="Rectangle-Copy-17" fill="#FFCA13" points="30.1509704 29.2432712 30.2363552 28.6044896 35.5916069 37 24.8811035 37"></polygon>
                <path d="M27,6 C26.9339844,6 26.8691406,5.99297052 26.8039062,5.98008296 C26.7398437,5.96719551 26.6769531,5.94805958 26.6171875,5.92306568 C26.5570312,5.89807178 26.4988281,5.86721991 26.4449218,5.83090068 C26.3898437,5.79497195 26.3390625,5.75318525 26.2929687,5.7071027 C26.2460937,5.66102025 26.2050781,5.61025135 26.1679687,5.55518669 C26.1320312,5.50129365 26.1011718,5.44310475 26.0761718,5.38218202 C26.0511718,5.32204051 26.0320312,5.25916526 26.0191406,5.19511839 C26.0058594,5.13107153 26,5.06507204 26,5.00024407 C26,4.93541609 26.0058594,4.8694166 26.0191406,4.80419813 C26.0320312,4.74132287 26.0511718,4.67844762 26.0761718,4.617525 C26.1011718,4.55738338 26.1320312,4.49919448 26.1679687,4.44530144 C26.2050781,4.39023678 26.2460937,4.33946788 26.2929687,4.29338543 C26.3390625,4.24730288 26.3898437,4.20551618 26.4449218,4.16841594 C26.4988281,4.13248711 26.5570312,4.10241635 26.6171875,4.07742245 C26.6769531,4.05242855 26.7398437,4.03251151 26.8039062,4.01962406 C26.9332031,3.99345865 27.0660156,3.99345865 27.1949218,4.01962406 C27.2589844,4.03251151 27.321875,4.05242855 27.3820312,4.07742245 C27.4421875,4.10241635 27.5,4.13248711 27.5550781,4.16841594 C27.6089844,4.20551618 27.6609375,4.24730288 27.7070312,4.29338543 C27.753125,4.33946788 27.7949218,4.39023678 27.8308594,4.44530144 C27.8671875,4.49919448 27.8980468,4.55738338 27.9230468,4.617525 C27.9480468,4.67844762 27.9671875,4.74132287 27.9800781,4.80419813 C27.9929687,4.8694166 28,4.93541609 28,5.00024407 C28,5.06507204 27.9929687,5.13107153 27.9800781,5.19511839 C27.9671875,5.25916526 27.9480468,5.32204051 27.9230468,5.38218202 C27.8980468,5.44310475 27.8671875,5.50129365 27.8308594,5.55518669 C27.7949218,5.61025135 27.753125,5.66102025 27.7070312,5.7071027 C27.6609375,5.75318525 27.6101562,5.79497195 27.5550781,5.83090068 C27.5,5.86721991 27.4421875,5.89807178 27.3820312,5.92306568 C27.321875,5.94805958 27.2589844,5.96719551 27.1949218,5.98008296 C27.1308594,5.99297052 27.0648437,6 27,6 Z" id="Path" fill="#000000" fill-rule="nonzero"></path>
                <path d="M52.3342285,23.4387207 L39.7035522,23.4387207 L39.7035522,2.15844727 C39.7035522,0.968139594 38.7349854,0 37.545105,0 L2.15844727,0 C0.968139594,0 0,0.968139594 0,2.15844727 L0,26.8498535 C0,28.0401612 0.968139594,29.0083008 2.15844727,29.0083008 L5.68664556,29.0083008 L5.68664556,32.5975952 C5.68664556,32.9872436 5.89343256,33.3469849 6.23010259,33.5430909 C6.40014648,33.642212 6.59027097,33.6913452 6.78039556,33.6913452 C6.96667475,33.6913452 7.15252683,33.6439208 7.3200073,33.5490723 L15.3287354,29.0083008 L20.2647095,29.0083008 L20.2647095,47.8998413 C20.2647095,49.9211426 21.9091797,51.5656128 23.930481,51.5656128 L39.6646729,51.5656128 L48.038269,55.8786621 C48.1959229,55.9598388 48.3676758,56 48.5390014,56 C48.7368164,56 48.9342042,55.9465943 49.1085206,55.8402099 C49.4345093,55.6415405 49.6327514,55.2877807 49.6327514,54.90625 L49.6327514,51.5656128 L52.3342285,51.5656128 C54.3555298,51.5656128 56,49.9211426 56,47.8998413 L56,27.1044922 C56,25.0831909 54.3555298,23.4387207 52.3342285,23.4387207 Z M34.0198974,23.4387207 L24.8811035,14.5041504 L37.4793091,2.1875 L37.5160522,2.1875 L37.5160522,23.4387207 L34.0198974,23.4387207 Z M34.3501587,2.1875 L19.8519897,16.3622436 L9.1571655,5.90625 L22.6226807,5.90625 C23.2268066,5.90625 23.7164307,5.41662603 23.7164307,4.8125 C23.7164307,4.20837397 23.2268066,3.71875 22.6226807,3.71875 L6.91967773,3.71875 L5.3533935,2.1875 L34.3501587,2.1875 Z M2.22210691,26.8225098 C2.21057134,26.8220825 2.19903567,26.8216552 2.1875,26.821228 L2.1875,2.1875 L2.22424322,2.1875 L14.8224487,14.5041504 L2.22210691,26.8225098 Z M15.0403443,26.8208008 C14.8510742,26.8208008 14.6656495,26.8699341 14.5007324,26.9630737 L7.87414556,30.7202759 L7.87414556,27.9145508 C7.87414556,27.3104248 7.38452148,26.8208008 6.78039556,26.8208008 L5.3533935,26.8208008 L16.3865966,16.0336914 L19.0872193,18.673645 C19.1337891,18.7193604 19.1833496,18.7599487 19.2350464,18.7954102 C19.605896,19.0487671 20.0976563,19.0487671 20.4685059,18.7954102 C20.5202026,18.7599487 20.5697632,18.7193604 20.6163331,18.673645 L23.3165284,16.0336914 L30.8907471,23.4391479 L23.9300537,23.4391479 C22.0044556,23.4391479 20.4206543,24.9315185 20.2753906,26.8208008 L15.0403443,26.8208008 Z M28.243103,49.3781128 L28.243103,37.9069824 L29.2159424,37.9069824 C29.8200684,37.9069824 30.3096924,37.4173583 30.3096924,36.8132324 C30.3096924,36.2091065 29.8200684,35.7194824 29.2159424,35.7194824 L26.6981811,35.7194824 L30.1507568,30.1289673 L33.6037598,35.7194824 L33.1525879,35.7194824 C32.548462,35.7194824 32.0588379,36.2091065 32.0588379,36.8132324 L32.0588379,49.3781128 L28.243103,49.3781128 Z M53.8125,47.8998413 C53.8125,48.7150268 53.1494141,49.3781128 52.3342285,49.3781128 L48.5390014,49.3781128 C47.9353027,49.3781128 47.4452514,49.8677368 47.4452514,50.4718628 L47.4452514,53.1126708 L40.4307251,49.4994507 C40.2756348,49.4195557 40.1038818,49.3781128 39.9295654,49.3781128 L34.2463379,49.3781128 L34.2463379,37.9069824 L35.5648193,37.9069824 C35.9613037,37.9069824 36.3270263,37.6925049 36.5201417,37.3460083 C36.7132568,36.9995117 36.7038574,36.5761108 36.4953613,36.2385865 L31.0812988,27.4727784 C30.8822021,27.1497802 30.5301513,26.9536743 30.1507568,26.9536743 C29.7713623,26.9536743 29.4193115,27.1502075 29.2202148,27.4727784 L23.8061523,36.2385865 C23.5980835,36.5761108 23.5882568,36.9999389 23.7817993,37.3460083 C23.9749146,37.6925049 24.3402099,37.9069824 24.7366943,37.9069824 L26.055603,37.9069824 L26.055603,49.3781128 L23.9300537,49.3781128 C23.1152954,49.3781128 22.4517823,48.7150268 22.4517823,47.8998413 L22.4517823,27.1044922 C22.4517823,26.2893066 23.1152954,25.6262207 23.9300537,25.6262207 L52.3342285,25.6262207 C53.1494141,25.6262207 53.8125,26.2893066 53.8125,27.1044922 L53.8125,47.8998413 Z" id="Shape" fill="#000000" fill-rule="nonzero"></path>
            </g>
        </g>
    </g>
</svg>