<svg id="Layer_1" data-name="Layer 1" xmlns="http://www.w3.org/2000/svg" viewBox="0 0 33 33"><path d="M10.07,0a1.23,1.23,0,0,0-.88.37,2.2,2.2,0,0,1-1.6.69h-4A2.59,2.59,0,0,0,1,3.47,4.18,4.18,0,0,0,0,6.24v.22a5.44,5.44,0,0,0,2.21,4.4l1.9,1.4V9.72A.54.54,0,0,0,4,9.34l-.51-.52a1.32,1.32,0,0,1-.36-.91,1,1,0,0,1,1-1V6.33A1.56,1.56,0,0,1,5.66,4.75h3.6s.1.14.25.38a2.61,2.61,0,0,0,1.8-2.5V1.27A1.25,1.25,0,0,0,10.07,0Z" style="fill:#f0bc5e"/><path d="M32,3.48A3.65,3.65,0,0,0,28.37,0H24.25a2.59,2.59,0,0,0-2.56,2.63,2.61,2.61,0,0,0,1.8,2.5c.15-.24.25-.38.25-.38h3.6a1.56,1.56,0,0,1,1.55,1.58v.53a1,1,0,0,1,1,1,1.32,1.32,0,0,1-.36.91L29,9.34a.54.54,0,0,0-.15.38v2.54l1.9-1.4A5.44,5.44,0,0,0,33,6.46V6.24A4.19,4.19,0,0,0,32,3.48Z" style="fill:#f0bc5e"/><path d="M29.36,14.06V9.41l.54-.54a1.85,1.85,0,0,0,.54-1.31A1.62,1.62,0,0,0,29.36,6V5.94a2.16,2.16,0,0,0-2.15-2.17h-4L23,4a9.5,9.5,0,0,0-1.73,5.19v.39l1.62.55v1a2.4,2.4,0,0,0,.69,1.68,2.37,2.37,0,0,0,1.42.68,3.82,3.82,0,0,1-.88,2,9.63,9.63,0,0,0-2.28,5.61H20.43l-.62-.61a1.57,1.57,0,0,0-2.53.41l-.11.22-.2,0H15.69l-.1-.2A1.59,1.59,0,0,0,14.17,20a1.54,1.54,0,0,0-1.12.47l-.61.61H11l-.1-.76a9.77,9.77,0,0,0-2.14-4.82,4,4,0,0,1-.87-2,2.32,2.32,0,0,0,1.41-.68,2.37,2.37,0,0,0,.7-1.68v-1l1.61-.55V9.18A9.53,9.53,0,0,0,9.86,4L9.7,3.77h-4A2.17,2.17,0,0,0,3.5,5.94V6A1.62,1.62,0,0,0,2.42,7.56,1.89,1.89,0,0,0,3,8.87l.54.54v4.87a2.72,2.72,0,0,0-1.24,1.09,2.8,2.8,0,0,0-.37,1.39h0V33H11V26.5h1.08a1.08,1.08,0,0,0,1.08-1.08h6.47a1.07,1.07,0,0,0,1.07,1.08h1.08V33h7.54a2.17,2.17,0,0,0,2.16-2.17V29.6a1.08,1.08,0,0,0,.54-.93V16.76A2.7,2.7,0,0,0,29.36,14.06ZM9.8,20.48l.08.57a2.67,2.67,0,0,1-2.23-2.22l-.36-2.14c.35,0,.69.06,1,.07A8.51,8.51,0,0,1,9.8,20.48ZM4,7h.54V5.94A1.08,1.08,0,0,1,5.66,4.85H9.14a8.65,8.65,0,0,1,1.35,4l-1.6.54v1.79a1.32,1.32,0,0,1-.38.92,1.28,1.28,0,0,1-.92.38H5.66v1.08H6.77a5,5,0,0,0,.73,2.12A4.46,4.46,0,0,1,7,15.56a2.71,2.71,0,0,0-2.41-1.5V9.41a1.07,1.07,0,0,0-.32-.77L3.73,8.1a.74.74,0,0,1-.23-.54A.54.54,0,0,1,4,7Zm2.69,24.9a1.09,1.09,0,0,1,1.08-1.09V29.75a2.16,2.16,0,0,0-2.15,2.17H3V28.67h7v3.25ZM10,27.59H3V22.4a7.06,7.06,0,0,0,6.37,4.1H10Zm2.15-2.17H9.33a6,6,0,0,1-5.87-5.09L3,17a1.75,1.75,0,0,1,.2-1.11,1.64,1.64,0,0,1,1.21-.78h.19a1.62,1.62,0,0,1,1.6,1.46L6.59,19a3.76,3.76,0,0,0,3.72,3.17h1.81v3.24ZM31,16.76V26.5H27.75V16.76a1.62,1.62,0,1,1,3.23,0Zm0,11.91H27.75V27.59H31ZM24,11.13V9.34L22.37,8.8a8.77,8.77,0,0,1,1.35-4h3.49a1.09,1.09,0,0,1,1.08,1.09V7h.53a.54.54,0,0,1,.54.54.77.77,0,0,1-.22.54l-.54.54a1.11,1.11,0,0,0-.31.77v4.88a2.68,2.68,0,0,0-1.19,1,9.46,9.46,0,0,1-1.75.32,5,5,0,0,0,.75-2.12h1.11V12.43H25.28a1.26,1.26,0,0,1-.92-.38A1.28,1.28,0,0,1,24,11.13Zm.52,5.63a11.47,11.47,0,0,0,2.19-.24c0,.08,0,.16,0,.24V27.59H22.9V21.75A8.57,8.57,0,0,1,24.5,16.76ZM13.2,24.34V21.86l.61-.62a.52.52,0,0,1,.81.13l.4.8H17a.55.55,0,0,1,.54.55,1.63,1.63,0,0,1-1.62,1.62Zm4.83,0a2.63,2.63,0,0,0,.56-1.62,1.63,1.63,0,0,0-.46-1.13l.11-.22a.53.53,0,0,1,.81-.13l.62.62v2.48Zm2.71,1.08V22.17h1.08v3.25Zm2.16,3.25h3.77a1.08,1.08,0,0,0,.54.93v1.23a2.12,2.12,0,0,0,.3,1.09H22.9Zm6.46,3.25a1.08,1.08,0,0,1-1.07-1.09V29.75h2.15v1.08A1.08,1.08,0,0,1,29.36,31.92Z"/><path d="M15.74,28,15,27.2l-2.53,2.55L15,32.3l.77-.77L14.5,30.29h6.24V29.21H14.5Z"/><path d="M17.67,12.59l.76.77L21,10.81,18.43,8.26,17.67,9l1.23,1.24H12.66v1.08H18.9Z"/></svg>