<?xml version="1.0" encoding="UTF-8"?>
<svg width="35px" height="34px" viewBox="0 0 35 34" version="1.1" xmlns="http://www.w3.org/2000/svg" xmlns:xlink="http://www.w3.org/1999/xlink">
    <!-- Generator: Sketch 52.1 (67048) - http://www.bohemiancoding.com/sketch -->
    <title>shop</title>
    <desc>Created with Sketch.</desc>
    <g id="Blog" stroke="none" stroke-width="1" fill="none" fill-rule="evenodd">
        <g id="DM---Landing-Page" transform="translate(-745.000000, -862.000000)" fill-rule="nonzero">
            <g id="shop" transform="translate(745.000000, 862.000000)">
                <path d="M32.7419355,13.6521477 L35,13.6521477 L35,10.2608591 L33.1828301,10.2608591 L32.6182538,8 L2.38174624,8 L1.81729032,10.2608591 L0,10.2608591 L0,13.6521477 L2.25806452,13.6521477 L2.25806452,19.8695705 L2.25806452,22.6957046 L2.25806452,30.6087114 L0,30.6087114 L0,34 L35,34 L35,30.6087114 L32.7419355,30.6087114 L32.7419355,23.1032621 L33.3498667,23.3061968 L35,22.4798679 L35,20.2540974 L32.7097806,17.0436775 L32.7419355,17.0436775 L32.7419355,13.6521477 Z M3.26341505,9.13042954 L31.7364645,9.13042954 L32.0187527,10.2608591 L2.98124731,10.2608591 L3.26341505,9.13042954 Z M1.12903226,12.5217182 L1.12903226,11.3912886 L1.53488172,11.3912886 L33.4649978,11.3912886 L33.8708473,11.3912886 L33.8708473,12.5217182 L32.7418151,12.5217182 L31.6129032,12.5217182 L3.38709677,12.5217182 L2.25806452,12.5217182 L1.12903226,12.5217182 Z M31.6129032,13.6521477 L31.6129032,15.9130068 L15.2418753,15.9130068 L14.3646624,15.9130068 L3.38709677,15.9130068 L3.38709677,13.6521477 L31.6129032,13.6521477 Z M31.0483269,21.7234749 L29.9192946,22.1005259 L28.7902624,21.7234749 L28.7902624,20.8977489 L27.3467871,17.0435569 L29.0059527,17.0435569 L31.0483269,21.1334811 L31.0483269,21.7234749 Z M12.4193548,30.6085908 L12.4193548,23.0449018 L12.9404559,23.3060763 L14.1129634,22.9144352 L14.1129634,30.6087114 L12.4193548,30.6087114 L12.4193548,30.6085908 Z M12.4193548,21.162179 L14.9901763,17.0434363 L15.2419957,17.0434363 L16.0221419,17.0434363 L14.1129634,20.8665189 L14.1129634,21.7233543 L13.0274065,22.0856947 L12.4194753,21.7809912 L12.4194753,21.5650339 L12.4194753,21.162179 L12.4193548,21.162179 Z M11.2903226,21.5651545 L5.08058495,21.5651545 L3.38709677,21.5651545 L3.38709677,20.9998794 L11.2903226,20.9998794 L11.2903226,21.5651545 Z M6.2096172,22.695584 L11.2903226,22.695584 L11.2903226,30.6085908 L6.2096172,30.6085908 L6.2096172,22.695584 Z M15.2418753,21.1333605 L17.2842495,17.0434363 L18.9434151,17.0434363 L17.4999398,20.8970254 L17.4999398,21.7227514 L16.3709075,22.0998024 L15.2418753,21.7227514 L15.2418753,21.1333605 Z M26.1410409,17.0434363 L27.6612301,21.102854 L27.6612301,21.7234749 L26.5321978,22.1005259 L25.4031656,21.7234749 L25.4031656,21 L24.9131355,17.0434363 L26.1410409,17.0434363 Z M23.7756731,17.0434363 L24.2741333,21.0355708 L24.2741333,21.7234749 L23.1451011,22.1005259 L22.0160688,21.7234749 L22.0160688,21.0355708 L22.514529,17.0434363 L23.7756731,17.0434363 Z M20.8916129,20.9299435 L20.888843,21.7229926 L19.7581247,22.1000436 L18.6290925,21.7229926 L18.6290925,21.1023717 L20.1492817,17.0435569 L21.3765849,17.0435569 L20.8916129,20.9299435 Z M18.0645161,22.7260905 L19.7580043,23.2913656 L21.4514925,22.7260905 L23.1449806,23.2913656 L24.8384688,22.7260905 L26.531957,23.2913656 L28.2254452,22.7260905 L28.7899011,22.9143146 L28.7899011,27.7824567 L18.0645161,27.7824567 L18.0645161,22.7260905 Z M3.38709677,17.0434363 L13.6590624,17.0434363 L11.8948817,19.8695705 L3.38709677,19.8695705 L3.38709677,17.0434363 Z M3.38709677,22.695584 L5.08058495,22.695584 L5.08058495,30.6085908 L3.38709677,30.6085908 L3.38709677,22.695584 Z M33.8709677,32.8694499 L1.12903226,32.8694499 L1.12903226,31.7390203 L2.25806452,31.7390203 L3.38709677,31.7390203 L5.08058495,31.7390203 L12.4192344,31.7390203 L33.8709677,31.7390203 L33.8709677,32.8694499 Z M31.6129032,30.6085908 L15.2418753,30.6085908 L15.2418753,22.9143146 L16.3709075,23.2913656 L16.9353634,23.1031416 L16.9353634,28.9130068 L29.9191742,28.9130068 L29.9191742,23.2913656 L31.6126624,22.7260905 L31.6126624,30.6085908 L31.6129032,30.6085908 Z M33.8709677,21.7811117 L33.2630366,22.0852124 L32.1774796,21.722872 L32.1774796,20.8660366 L30.2683011,17.0434363 L31.3223054,17.0434363 L33.8710882,20.6155937 L33.8710882,21.7811117 L33.8709677,21.7811117 Z" id="Shape" fill="#333333"></path>
                <path d="M30,9 L5,9 L5,1.6874625 C5,0.757090095 5.76472727,0 6.70448485,0 L28.2953939,0 C29.2351515,0 29.9998788,0.757090095 29.9998788,1.6874625 L30,9 Z" id="Path" fill="#F9BA48"></path>
                <path d="M9.28569687,6.800128 L8.71430313,6.800128 C8.39940873,6.800128 8.14290939,6.530688 8.14290939,6.200064 L7,6.200064 C7,7.192448 7.7691323,8 8.71430313,8 L9.28569687,8 C10.2308677,8 11,7.192448 11,6.200064 C11,5.20768 10.2308677,4.400128 9.28569687,4.400128 L8.71430313,4.400128 C8.39940873,4.400128 8.14290939,4.130688 8.14290939,3.800064 C8.14290939,3.46944 8.39953065,3.2 8.71430313,3.2 L9.28569687,3.2 C9.60059127,3.2 9.85709061,3.46944 9.85709061,3.800064 L11,3.800064 C11,2.80768 10.2308677,2 9.28569687,2 L8.71430313,2 C7.7691323,2 7,2.807552 7,3.800064 C7,4.792576 7.7691323,5.600128 8.71430313,5.600128 L9.28569687,5.600128 C9.60059127,5.600128 9.85709061,5.869568 9.85709061,6.200192 C9.85721252,6.530688 9.60059127,6.800128 9.28569687,6.800128 Z" id="Path" fill="#333333"></path>
                <polygon id="Path" fill="#333333" points="14 5.6 16 5.6 16 8 17 8 17 2 16 2 16 4.4 14 4.4 14 2 13 2 13 8 14 8"></polygon>
                <path d="M20,8 C21.10304,8 22,6.923648 22,5.6 L22,4.4 C22,3.076352 21.10304,2 20,2 C18.89696,2 18,3.076352 18,4.4 L18,5.6 C18,6.92352 18.89696,8 20,8 Z M19,4.4 C19,3.73824 19.4485333,3.2 20,3.2 C20.5514667,3.2 21,3.73824 21,4.4 L21,5.6 C21,6.26176 20.5514667,6.8 20,6.8 C19.4485333,6.8 19,6.26176 19,5.6 L19,4.4 Z" id="Shape" fill="#333333"></path>
                <path d="M25.1428746,5.600128 L26.2857491,5.600128 C27.2308911,5.600128 28,4.792576 28,3.800064 C28,2.807552 27.2308911,2 26.2857491,2 L24,2 L24,8 L25.1428746,8 L25.1428746,5.600128 Z M25.1428746,3.200128 L26.2857491,3.200128 C26.6006339,3.200128 26.8571254,3.469568 26.8571254,3.800192 C26.8571254,4.130816 26.600512,4.400256 26.2857491,4.400256 L25.1428746,4.400256 L25.1428746,3.200128 Z" id="Shape" fill="#333333"></path>
            </g>
        </g>
    </g>
</svg>