<?xml version="1.0" encoding="UTF-8"?>
<svg width="31px" height="31px" viewBox="0 0 31 31" version="1.1" xmlns="http://www.w3.org/2000/svg" xmlns:xlink="http://www.w3.org/1999/xlink">
    <!-- Generator: sketchtool 58 (101010) - https://sketch.com -->
    <title>20ECCEEC-D959-4818-8ED6-C6A37C2202B9@1.00x</title>
    <desc>Created with sketchtool.</desc>
    <g id="Blog" stroke="none" stroke-width="1" fill="none" fill-rule="evenodd">
        <g id="DM---Landing-Page" transform="translate(-407.000000, -982.000000)" fill-rule="nonzero">
            <g id="performance" transform="translate(407.000000, 982.000000)">
                <path d="M8.819,17 C8.4675,17 8.137,16.845 7.912,16.575 L5.766,14 L1.5,14 C0.673,14 0,13.327 0,12.5 L0,1.5 C0,0.673 0.673,0 1.5,0 L14.5,0 C15.327,0 16,0.673 16,1.5 L16,12.5 C16,13.327 15.327,14 14.5,14 L10,14 L10,15.819 C10,16.47 9.47,17 8.819,17 Z" id="Path" fill="#F0BC5E"></path>
                <path d="M8,12 L4.1395,8.63174828 C3.4155,8.00010906 3,7.09215836 3,6.14052787 L3,6.06347475 C3,5.22276148 3.3335,4.43259897 3.9395,3.83776857 C4.4895,3.2974152 5.2215,3 6,3 C6.75,3 7.457,3.27631148 8,3.77985604 C8.543,3.27631148 9.25,3 10,3 C10.7785,3 11.5105,3.2974152 12.0605,3.83776857 C12.6665,4.43259897 13,5.22276148 13,6.06347475 L13,6.14052787 C13,7.09166758 12.5845,7.99961828 11.86,8.6312575 L8,12 Z M6,3.98156833 C5.489,3.98156833 5.008,4.17690043 4.6465,4.53173738 C4.2295,4.94105137 4,5.48484022 4,6.06347475 L4,6.14052787 C4,6.81142982 4.293,7.45239394 4.804,7.89802596 L8,10.6866616 L11.196,7.89802596 C11.707,7.45239394 12,6.8119206 12,6.14052787 L12,6.06347475 C12,5.48484022 11.7705,4.94105137 11.3535,4.53173738 C10.6305,3.82255426 9.3695,3.82255426 8.6465,4.53173738 L8,5.1663213 L7.3535,4.53173738 C6.992,4.17690043 6.511,3.98156833 6,3.98156833 L6,3.98156833 Z" id="Shape" fill="#000000"></path>
                <path d="M10,22 C8.897,22 8,21.103 8,20 C8,18.897 8.897,18 10,18 C11.103,18 12,18.897 12,20 C12,21.103 11.103,22 10,22 Z M10,19 C9.4485,19 9,19.4485 9,20 C9,20.5515 9.4485,21 10,21 C10.5515,21 11,20.5515 11,20 C11,19.4485 10.5515,19 10,19 Z" id="Shape" fill="#000000"></path>
                <path d="M13.0051473,26 L12.7809551,24.0069238 C12.6518444,22.8565776 11.6710037,21.9891197 10.5,21.9891197 C9.32899628,21.9891197 8.34815556,22.8565776 8.21854447,24.0069238 L7.9943523,26 L7,25.8907023 L7.22419216,23.8976261 C7.4098513,22.2457962 8.81805834,21 10.5,21 C12.1819417,21 13.5901487,22.2457962 13.7758078,23.8976261 L14,25.8907023 L13.0051473,26 Z" id="Path" fill="#000000"></path>
                <path d="M6,23 C4.897,23 4,22.103 4,21 C4,19.897 4.897,19 6,19 C7.103,19 8,19.897 8,21 C8,22.103 7.103,23 6,23 Z M6,20 C5.4485,20 5,20.4485 5,21 C5,21.5515 5.4485,22 6,22 C6.5515,22 7,21.5515 7,21 C7,20.4485 6.5515,20 6,20 Z" id="Shape" fill="#000000"></path>
                <path d="M4.03712923,26 L3,26 L3,25 C3,23.3455 4.39545737,22 6.11138768,22 C6.80107861,22 7.45395146,22.213 8,22.6155 L7.369944,23.4095 C7.0064302,23.1415 6.57135449,23 6.11138768,23 C4.96743414,23 4.03712923,23.897 4.03712923,25 L4.03712923,26 Z" id="Path" fill="#000000"></path>
                <g id="Group" transform="translate(12.000000, 6.000000)" fill="#000000">
                    <path d="M2,13 C0.897,13 0,13.897 0,15 C0,15.533 0.213,16.0155 0.554,16.3745 C0.425,16.446 0.2985,16.5245 0.179,16.616 L0.7865,17.41 C1.137,17.1415 1.5565,17 2,17 C3.103,17 4,17.897 4,19 L4,20 L5,20 L5,19 C5,17.87 4.3715,16.885 3.4465,16.3735 C3.7875,16.0145 4,15.533 4,15 C4,13.897 3.103,13 2,13 Z M1,15 C1,14.4485 1.4485,14 2,14 C2.5515,14 3,14.4485 3,15 C3,15.5515 2.5515,16 2,16 C1.4485,16 1,15.5515 1,15 Z" id="Shape"></path>
                    <path d="M12.7735,0.692 C12.401,0.252 11.857,0 11.281,0 C10.5915,0 9.993,0.4675 9.8255,1.136 C9.6445,1.861 9.2695,2.523 8.741,3.052 L8.5935,3.1995 C8.427,3.076 8.223,3 8,3 L6,3 C5.4485,3 5,3.4485 5,4 L5,9 C5,9.5515 5.4485,10 6,10 L8,10 C8.4365,10 8.804,9.7175 8.9405,9.327 C9.8275,9.767 10.802,10 11.8025,10 L14,10 C15.103,10 16,9.103 16,8 L16,5 C16,3.897 15.103,3 14,3 L13.09,3 L13.2105,2.278 C13.305,1.7095 13.146,1.1315 12.7735,0.692 Z M6,9 L6,4 L8,4 L8.0005,9 L6,9 Z M14,4 C14.5515,4 15,4.4485 15,5 L15,8 C15,8.5515 14.5515,9 14,9 L11.8025,9 C10.81,9 9.8475,8.7295 9,8.221 L9,4.207 L9.448,3.759 C10.1045,3.1025 10.571,2.279 10.796,1.3785 C10.8515,1.156 11.051,1 11.281,1 C11.5625,1 11.8285,1.123 12.0105,1.3385 C12.1925,1.5535 12.2705,1.836 12.224,2.114 L11.91,4 L14,4 Z" id="Shape"></path>
                </g>
                <path d="M29.5,4 L16,4 L16,5 L29.5,5 C29.7755,5 30,5.224 30,5.5 L30,16.5 C30,16.776 29.7755,17 29.5,17 L23.766,17 L21.32,19.9345 C21.221,20.0525 21,19.973 21,19.819 L21,17 L14.5,17 C14.2245,17 14,16.776 14,16.5 L14,14 L13,14 L13,15 L10,15 L10,15.819 C10,15.881 9.991,15.9405 9.9815,16 L13,16 L13,16.5 C13,17.327 13.673,18 14.5,18 L18,18 L18,26.5 C18,26.776 17.7755,27 17.5,27 L11,27 L11,29.819 C11,29.9735 10.779,30.0535 10.68,29.9345 L8.234,27 L2.5,27 C2.2245,27 2,26.776 2,26.5 L2,16.5 C2,16.224 2.2245,16 2.5,16 L7.4325,16 L6.599,15 L2.5,15 C1.673,15 1,15.673 1,16.5 L1,26.5 C1,27.327 1.673,28 2.5,28 L7.766,28 L9.912,30.575 C10.137,30.845 10.4675,31 10.819,31 C11.47,31 12,30.47 12,29.819 L12,28 L17.5,28 C18.327,28 19,27.327 19,26.5 L19,18 L20,18 L20,19.819 C20,20.47 20.53,21 21.181,21 C21.5325,21 21.863,20.845 22.088,20.575 L24.234,18 L29.5,18 C30.327,18 31,17.327 31,16.5 L31,5.5 C31,4.673 30.327,4 29.5,4 Z" id="Path" fill="#000000"></path>
            </g>
        </g>
    </g>
</svg>