<?xml version="1.0" encoding="UTF-8"?>
<svg width="33px" height="33px" viewBox="0 0 33 33" version="1.1" xmlns="http://www.w3.org/2000/svg" xmlns:xlink="http://www.w3.org/1999/xlink">
    <!-- Generator: sketchtool 58 (101010) - https://sketch.com -->
    <title>0E8FA92F-5C32-4DA2-91E6-EC7C628EEA8C@1.00x</title>
    <desc>Created with sketchtool.</desc>
    <g id="Blog" stroke="none" stroke-width="1" fill="none" fill-rule="evenodd">
        <g id="DM---Landing-Page" transform="translate(-746.000000, -920.000000)" fill-rule="nonzero">
            <g id="connection" transform="translate(746.000000, 920.000000)">
                <path d="M10.0728,0 C9.74108571,0 9.42942857,0.132444051 9.19491429,0.373059538 C8.766,0.813132599 8.19617143,1.05533108 7.58931429,1.05533108 L3.6,1.05533108 C2.25411429,1.05533108 1.14685714,2.12121548 1.03731429,3.47362226 C0.366685714,4.23346064 0,5.20858656 0,6.24175569 L0,6.46073689 C0,8.20256084 0.824914286,9.84676666 2.20577143,10.8588292 L4.11428571,12.2571429 L4.11428571,9.71696094 C4.11428571,9.57712957 4.06028571,9.44257486 3.9636,9.3439014 L3.44931429,8.81623586 C3.21634286,8.57667571 3.08571429,8.25268906 3.08571429,7.91498312 C3.08571429,7.3319127 3.546,6.85965204 4.11428571,6.85965204 L4.11428571,6.33198649 C4.11428571,5.45764469 4.80497143,4.74898987 5.65714286,4.74898987 L9.25714286,4.74898987 C9.25714286,4.74898987 9.35742857,4.88671058 9.50605714,5.13365805 C10.5726857,4.7959521 11.3142857,3.77808528 11.3142857,2.62724673 L11.3142857,1.27378462 C11.3142857,0.571461781 10.7573143,0 10.0728,0 Z" id="Path" fill="#F0BC5E"></path>
                <path d="M31.9652571,3.47626059 C31.8552,1.54025571 30.2856,0 28.3714286,0 L24.2463429,0 C22.8346286,0 21.6857143,1.17880482 21.6857143,2.62724673 C21.6857143,3.77755761 22.4268,4.79542444 23.4934286,5.13365805 C23.6425714,4.88671058 23.7428571,4.74898987 23.7428571,4.74898987 L27.3428571,4.74898987 C28.1950286,4.74898987 28.8857143,5.45764469 28.8857143,6.33198649 L28.8857143,6.85965204 C29.454,6.85965204 29.9142857,7.3319127 29.9142857,7.91498312 C29.9142857,8.25268906 29.7836571,8.57667571 29.5506857,8.8157082 L29.0364,9.34337374 C28.9397143,9.44257486 28.8857143,9.57660191 28.8857143,9.71643328 L28.8857143,12.2571429 L30.7942286,10.8583015 C32.1750857,9.846239 33,8.20203317 33,6.46073689 L33,6.24175569 C33,5.21016955 32.6343429,4.23662663 31.9652571,3.47626059 Z" id="Path" fill="#F0BC5E"></path>
                <g id="Group" transform="translate(1.885714, 3.771429)" fill="#000000">
                    <path d="M27.477551,10.284127 L27.477551,5.63678413 L28.0163265,5.09551429 C28.3638367,4.74639524 28.555102,4.28252698 28.555102,3.78888889 C28.555102,3.08307302 28.1046857,2.48118095 27.477551,2.25763651 L27.477551,2.16507937 C27.477551,0.971038095 26.5109878,-7.10542736e-15 25.322449,-7.10542736e-15 L21.2816327,-7.10542736e-15 L21.12,0.216507937 C21.0494204,0.310688889 19.3959184,2.55912381 19.3959184,5.41269841 L19.3959184,5.80295397 L21.0122449,6.34422381 L21.0122449,7.35369206 C21.0122449,7.99184921 21.2595429,8.59211746 21.7083429,9.04299524 C22.0946449,9.43108571 22.5930122,9.65787778 23.1285551,9.71741746 C23.0299592,10.448673 22.7271673,11.1409571 22.2449633,11.7060429 C20.8980245,13.2843857 20.1049469,15.2578556 19.9637878,17.3206349 L18.5414204,17.3206349 L17.9272163,16.7035873 C17.6287347,16.4037238 17.2311184,16.2380952 16.8081796,16.2380952 C16.204751,16.2380952 15.6627429,16.5747651 15.3938939,17.1144111 L15.2796735,17.3406619 C15.2155592,17.3325429 15.1519837,17.3206349 15.0851755,17.3206349 L13.8012735,17.3206349 L13.6999837,17.1171175 C13.4300571,16.5747651 12.8875102,16.2380952 12.2835429,16.2380952 C11.8611429,16.2380952 11.4635265,16.4031825 11.1639673,16.7035873 L10.550302,17.3206349 L9.08806531,17.3206349 L8.97977143,16.5601508 C8.72708571,14.7831619 7.98896327,13.1155095 6.84568163,11.7368952 C6.3667102,11.1593603 6.07253878,10.4557095 5.97340408,9.71687619 C6.50625306,9.65625397 7.00138776,9.4294619 7.38553469,9.04353651 C7.83433469,8.59211746 8.08163265,7.99239048 8.08163265,7.35369206 L8.08163265,6.34422381 L9.69795918,5.80295397 L9.69795918,5.41269841 C9.69795918,2.55912381 8.04445714,0.310688889 7.97387755,0.215966667 L7.8122449,-7.10542736e-15 L3.77142857,-7.10542736e-15 C2.5828898,-7.10542736e-15 1.61632653,0.971038095 1.61632653,2.16507937 L1.61632653,2.25763651 C0.989191837,2.48118095 0.53877551,3.08307302 0.53877551,3.78888889 C0.53877551,4.28252698 0.730040816,4.74693651 1.07755102,5.09551429 L1.61632653,5.63678413 L1.61632653,10.5120016 C1.10772245,10.733381 0.672930612,11.1068571 0.374987755,11.602119 C0.135771429,11.9999524 0.0118530612,12.4800587 0.00646530612,12.9904762 L7.10542736e-15,12.9904762 L7.10542736e-15,29.2285714 L9.15918367,29.2285714 L9.15918367,22.7333333 L10.2345796,22.7333333 C10.828849,22.7333333 11.3121306,22.2478143 11.3121306,21.6507937 L17.7795918,21.6507937 C17.7795918,22.2478143 18.2628735,22.7333333 18.8571429,22.7333333 L19.9346939,22.7333333 L19.9346939,29.2285714 L27.477551,29.2285714 C28.6660898,29.2285714 29.6326531,28.2575333 29.6326531,27.0634921 L29.6326531,25.8304794 C29.9532245,25.6426587 30.1714286,25.2973286 30.1714286,24.8984127 L30.1714286,12.9904762 C30.1714286,11.4981952 28.9629551,10.284127 27.477551,10.284127 Z M7.91299592,16.7133302 L7.99381224,17.2822048 C6.86507755,17.1025032 5.95724082,16.2261873 5.76328163,15.0608333 L5.40661224,12.9228175 C5.74981224,12.9590825 6.0940898,12.9807333 6.43782857,12.9845222 C7.21312653,14.091419 7.72173061,15.3666508 7.91299592,16.7133302 L7.91299592,16.7133302 Z M2.15510204,3.24761905 L2.69387755,3.24761905 L2.69387755,2.16507937 C2.69387755,1.56805873 3.17715918,1.08253968 3.77142857,1.08253968 L7.2578449,1.08253968 C7.61289796,1.63517619 8.49595102,3.17996032 8.6085551,5.02677302 L7.00408163,5.56425397 L7.00408163,7.35423333 C7.00408163,7.69793968 6.86507755,8.03515079 6.62262857,8.27818095 C6.37748571,8.525 6.05098776,8.66031746 5.70347755,8.66031746 L3.77142857,8.66031746 L3.77142857,9.74285714 L4.88346122,9.74285714 C4.96643265,10.494681 5.21696327,11.2183587 5.61404082,11.8603048 C5.44163265,11.8440667 5.27084082,11.8180857 5.0995102,11.792646 C4.65609796,10.8935968 3.74071837,10.2846683 2.69387755,10.284127 L2.69387755,5.63678413 C2.69387755,5.34774603 2.58181224,5.07602857 2.3781551,4.87142857 L1.83937959,4.33015873 C1.69768163,4.18780476 1.61632653,3.99024127 1.61632653,3.78888889 C1.61632653,3.49064921 1.85823673,3.24761905 2.15510204,3.24761905 L2.15510204,3.24761905 Z M4.84897959,28.1460317 C4.84897959,27.5490111 5.33226122,27.0634921 5.92653061,27.0634921 L5.92653061,25.9809524 C4.73799184,25.9809524 3.77142857,26.9519905 3.77142857,28.1460317 L1.07755102,28.1460317 L1.07755102,24.8984127 L8.08163265,24.8984127 L8.08163265,28.1460317 L4.84897959,28.1460317 Z M8.08163265,23.815873 L1.07755102,23.815873 L1.07755102,18.6283429 C2.20089796,21.0629746 4.66633469,22.7333333 7.43995102,22.7333333 L8.08163265,22.7333333 L8.08163265,23.815873 Z M10.2345796,21.6507937 L7.43995102,21.6507937 C4.51817143,21.6507937 1.99616327,19.4624397 1.57268571,16.5590683 L1.09263673,13.2654413 C1.04414694,12.8535349 1.11688163,12.4616556 1.2979102,12.1612508 C1.5619102,11.722281 1.99993469,11.4370317 2.508,11.3769508 C2.55918367,11.3704556 2.62653061,11.3666667 2.6928,11.3666667 C3.51012245,11.3666667 4.19867755,11.9837143 4.29835102,12.8280952 L4.70027755,15.2405349 C5.00576327,17.0738159 6.57036735,18.4042571 8.42106122,18.4037159 L8.4216,18.4037159 L10.2340408,18.4037159 L10.2340408,21.6507937 L10.2345796,21.6507937 Z M29.0938776,12.9904762 L29.0944163,22.7333333 L25.8612245,22.7333333 L25.8612245,12.9904762 C25.8612245,12.0952159 26.5864163,11.3666667 27.477551,11.3666667 C28.3686857,11.3666667 29.0938776,12.0952159 29.0938776,12.9904762 Z M29.0944163,24.8984127 L25.8612245,24.8984127 L25.8612245,23.815873 L29.0944163,23.815873 L29.0944163,24.8984127 Z M22.0897959,7.35369206 L22.0897959,5.56425397 L20.4853224,5.02677302 C20.5973878,3.17941905 21.4809796,1.63463492 21.8360327,1.08253968 L25.322449,1.08253968 C25.9167184,1.08253968 26.4,1.56805873 26.4,2.16507937 L26.4,3.24761905 L26.9387755,3.24761905 C27.2356408,3.24761905 27.477551,3.49064921 27.477551,3.78888889 C27.477551,3.99024127 27.3961959,4.18780476 27.254498,4.33015873 L26.7157224,4.87142857 C26.5120653,5.07602857 26.4,5.34774603 26.4,5.63678413 L26.4,10.5136254 C25.9107918,10.7295921 25.4997061,11.0879127 25.2136163,11.5355429 C24.640898,11.6957587 24.0563265,11.8040127 23.4652898,11.8597635 C23.8720653,11.2216063 24.1285224,10.4979286 24.2114939,9.74339841 L25.322449,9.74285714 L25.322449,8.66031746 L23.3904,8.66031746 C23.0428898,8.66031746 22.7163918,8.52445873 22.4707102,8.27763968 C22.2288,8.03460952 22.0897959,7.69793968 22.0897959,7.35369206 Z M22.6140245,12.9877698 C23.3526857,12.9828984 24.0870367,12.9022492 24.8079184,12.7501524 C24.8009143,12.8308016 24.7836735,12.9082032 24.7836735,12.9904762 L24.7836735,23.815873 L21.0122449,23.815873 L21.0122449,17.9809841 C21.0122449,16.1839683 21.5774204,14.4378317 22.6140245,12.9877698 Z M11.3121306,20.568254 L11.3121306,18.0865317 L11.9263347,17.4694841 C12.1574694,17.2378206 12.5911837,17.308727 12.7361143,17.6010127 L13.1353469,18.4031746 L15.0851755,18.4031746 C15.3825796,18.4031746 15.6244898,18.6462048 15.6244898,18.9444444 C15.6244898,19.8397048 14.8987592,20.568254 14.0076245,20.568254 L11.3121306,20.568254 Z M16.1492571,20.568254 C16.4913796,20.1146698 16.7020408,19.5560794 16.7020408,18.9444444 C16.7020408,18.5070984 16.5274776,18.1114302 16.2467755,17.8191444 L16.3566857,17.6010127 C16.5026939,17.3071032 16.9337143,17.2367381 17.1653878,17.4689429 L17.7795918,18.0859905 L17.7795918,20.568254 L16.1492571,20.568254 Z M18.8571429,21.6507937 L18.8571429,18.4031746 L19.9346939,18.4031746 L19.9346939,21.6507937 L18.8571429,21.6507937 Z M21.0122449,24.8984127 L24.7836735,24.8984127 C24.7836735,25.2973286 25.0018776,25.6426587 25.322449,25.8304794 L25.322449,27.0634921 C25.322449,27.4597016 25.4366694,27.8261413 25.6220082,28.1460317 L21.0122449,28.1460317 L21.0122449,24.8984127 Z M27.477551,28.1460317 C26.8832816,28.1460317 26.4,27.6605127 26.4,27.0634921 L26.4,25.9809524 L28.555102,25.9809524 L28.555102,27.0634921 C28.555102,27.6605127 28.0718204,28.1460317 27.477551,28.1460317 Z" id="Shape"></path>
                    <polygon id="Path" points="13.850302 24.1985508 13.0884735 23.4331952 10.5524571 25.9809524 13.0884735 28.5287095 13.850302 27.763354 12.6148898 26.5222222 18.8571429 26.5222222 18.8571429 25.4396825 12.6148898 25.4396825"></polygon>
                    <polygon id="Path" points="15.782351 8.81890952 16.5441796 9.58426508 19.0801959 7.03650794 16.5441796 4.48875079 15.782351 5.25410635 17.0177633 6.4952381 10.7755102 6.4952381 10.7755102 7.57777778 17.0177633 7.57777778"></polygon>
                </g>
            </g>
        </g>
    </g>
</svg>