<?xml version="1.0" encoding="UTF-8"?>
<svg width="31px" height="31px" viewBox="0 0 31 31" version="1.1" xmlns="http://www.w3.org/2000/svg" xmlns:xlink="http://www.w3.org/1999/xlink">
    <!-- Generator: Sketch 52.1 (67048) - http://www.bohemiancoding.com/sketch -->
    <title>reviewer</title>
    <desc>Created with Sketch.</desc>
    <g id="Blog" stroke="none" stroke-width="1" fill="none" fill-rule="evenodd">
        <g id="DM---Landing-Page" transform="translate(-407.000000, -922.000000)" fill-rule="nonzero">
            <g id="reviewer" transform="translate(407.000000, 922.000000)">
                <path d="M28.3055289,2.63394778 C27.3705679,1.00920012 25.6186409,0 23.7342194,0 L22.2652806,0 C20.3803592,0 18.6289321,1.00920012 17.6934711,2.63394778 C17.23949,3.42274217 17,4.31925737 17,5.2276864 L17,15 C17.2129911,14.794983 17.4389817,14.6013833 17.6904712,14.4350862 C18.224949,14.0811464 18.824424,13.8349274 19.4543977,13.7098322 L20.9998333,13.4030513 L21.463314,11.5618691 L21.4728136,11.5618691 C20.3058623,10.9984446 19.4998958,9.81351557 19.4998958,8.4389582 L19.4998958,6.3317007 C19.4998958,6.10980574 19.6498896,5.92166661 19.8633807,5.85614058 C21.0363318,5.49723665 22.1347861,4.83006255 22.99975,3.97127445 C23.864714,4.83006255 24.9631682,5.49723665 26.1361193,5.85614058 C26.3496104,5.92166661 26.4996042,6.10980574 26.4996042,6.3317007 L26.4996042,8.4389582 C26.4996042,9.81351557 25.6936378,10.9984446 24.5266864,11.5618691 L24.536186,11.5618691 L24.9996667,13.4030513 L26.5456023,13.7098322 C27.175576,13.8349274 27.7745511,14.0811464 28.3095288,14.4350862 C28.5610183,14.6013833 28.7870089,14.794983 29,15 L29,5.2276864 C28.9995,4.31925737 28.76001,3.42274217 28.3055289,2.63394778 Z" id="Path" fill="#F0BC5E"></path>
                <path d="M12.0455,0.990933333 C11.133,0.342933333 10.072,0 8.976,0 L7.444,0 C6.09,0 4.7665,0.272 3.51,0.808 L2.242,1.3488 L3.2205,2.91466667 L2,3.3488 L2,4.18026667 C2,5.1696 2.126,6.15466667 2.3745,7.10826667 L2.5,8 C2.5,7.11626667 3.1715,6.4 4,6.4 L4.5415,6.4 L4.5415,6.4112 C4.6365,6.05813333 4.897,5.77386667 5.242,5.6736 C6.056,5.43626667 7.3245,4.9872 7.914,4.3584 L8,4.26666667 L8.086,4.3584 C8.7995,5.11946667 9.7135,5.61813333 10.696,5.79466667 C11.026,5.8544 11.286,6.096 11.4135,6.4096 L11.4135,6.4 L12,6.4 C12.8285,6.4 13.5,7.11626667 13.5,8 L13.5365,6.98133333 C13.84,6.3344 14,5.61066667 14,4.88746667 C14,3.31786667 13.2695,1.86133333 12.0455,0.990933333 Z" id="Path" fill="#F0BC5E"></path>
                <g id="Group" transform="translate(0.000000, 3.000000)" fill="#000000">
                    <path d="M25.796,18.9189189 L25.704,18.9189189 C25.273,18.9189189 24.8485,19.0500901 24.4985,19.2806486 C24.143,19.0475676 23.723,18.9189189 23.296,18.9189189 L23.204,18.9189189 C22.6245,18.9189189 22.0575,19.156036 21.6435,19.5737658 C21.2285,19.993009 21,20.5504865 21,21.1427748 C21,21.8036757 21.2885,22.4247207 21.791,22.8474955 L24.5,25.1253333 L27.209,22.8474955 C27.7115,22.4247207 28,21.8031712 28,21.1427748 C28,20.5504865 27.7715,19.9935135 27.3515,19.5692252 C26.9425,19.156036 26.3755,18.9189189 25.796,18.9189189 Z M26.5685,22.0725766 L24.5,23.8116036 L22.4315,22.0725766 C22.157,21.842018 22,21.502991 22,21.1427748 C22,20.8198919 22.125,20.5156757 22.3565,20.2820901 C22.579,20.0570811 22.888,19.9279279 23.204,19.9279279 L23.296,19.9279279 C23.612,19.9279279 23.921,20.0570811 24.1655,20.3027748 L24.521,20.6211171 L24.8565,20.2820901 C25.079,20.0570811 25.388,19.9279279 25.704,19.9279279 L25.796,19.9279279 C26.112,19.9279279 26.421,20.0570811 26.6485,20.2866306 C26.875,20.5156757 27,20.8198919 27,21.1427748 C27,21.502991 26.843,21.842018 26.5685,22.0725766 Z" id="Shape"></path>
                    <path d="M17.796,18.9189189 L17.704,18.9189189 C17.273,18.9189189 16.8485,19.0500901 16.4985,19.2806486 C16.143,19.0475676 15.723,18.9189189 15.296,18.9189189 L15.204,18.9189189 C14.6245,18.9189189 14.0575,19.156036 13.6435,19.5737658 C13.2285,19.993009 13,20.5504865 13,21.1427748 C13,21.8036757 13.2885,22.4247207 13.791,22.8474955 L16.5,25.1253333 L19.209,22.8474955 C19.7115,22.4247207 20,21.8031712 20,21.1427748 C20,20.5504865 19.7715,19.9935135 19.3515,19.5692252 C18.9425,19.156036 18.3755,18.9189189 17.796,18.9189189 Z M18.5685,22.0725766 L16.5,23.8116036 L14.4315,22.0725766 C14.157,21.842018 14,21.502991 14,21.1427748 C14,20.8198919 14.125,20.5156757 14.3565,20.2820901 C14.579,20.0570811 14.888,19.9279279 15.204,19.9279279 L15.296,19.9279279 C15.612,19.9279279 15.921,20.0570811 16.1655,20.3027748 L16.521,20.6211171 L16.8565,20.2820901 C17.079,20.0570811 17.388,19.9279279 17.704,19.9279279 L17.796,19.9279279 C18.112,19.9279279 18.421,20.0570811 18.6485,20.2866306 C18.875,20.5156757 19,20.8198919 19,21.1427748 C19,21.502991 18.843,21.842018 18.5685,22.0725766 Z" id="Shape"></path>
                    <path d="M4,20.4324324 C3.4485,20.4324324 3,20.884973 3,21.4414414 L3,22.4504505 C3,23.0069189 3.4485,23.4594595 4,23.4594595 L5.4,23.4594595 L12,26.2342342 L12,17.6576577 L5.4,20.4324324 L4,20.4324324 Z M4,21.4414414 L5,21.4414414 L5,22.4504505 L4,22.4504505 L4,21.4414414 Z M11,24.7207207 L6,22.6184505 L6,21.2729369 L11,19.1711712 L11,24.7207207 Z" id="Shape"></path>
                    <path d="M28.587,10.971964 C27.9945,10.5734054 27.3415,10.3004685 26.644,10.1597117 L25.408,9.91048649 L25.1125,8.71834234 C26.244,8.00396396 27,6.73967568 27,5.2972973 L27,3.15567568 C27,2.71171171 26.712,2.32374775 26.2835,2.19005405 C25.2065,1.85506306 24.166,1.21938739 23.3535,0.400072072 L23,0.0433873874 L22.6465,0.400072072 C21.834,1.21938739 20.7935,1.85506306 19.7165,2.19005405 C19.288,2.32324324 19,2.71171171 19,3.15567568 L19,5.2972973 C19,6.73967568 19.756,8.00396396 20.887,8.71783784 L20.5915,9.90998198 L19.3555,10.1592072 C18.658,10.299964 18.005,10.5729009 17.4125,10.9714595 C16.561,11.5440721 15.9115,12.3391712 15.4995,13.2477838 C15.0875,12.3391712 14.438,11.5445766 13.5865,10.9714595 C12.994,10.5729009 12.341,10.299964 11.6435,10.1592072 L10.4075,9.90998198 L10.112,8.71783784 C10.9695,8.1765045 11.6075,7.31884685 11.8675,6.30630631 L12,6.30630631 C13.103,6.30630631 14,5.40122523 14,4.28828829 C14,3.17535135 13.103,2.27027027 12,2.27027027 L11.6925,2.27027027 C11.474,1.97866667 11.1555,1.7692973 10.779,1.70472072 C9.8875,1.55286486 9.0785,1.1310991 8.4385,0.485837838 L8,0.0443963964 L7.5605,0.486342342 C7.18,0.869765766 6.2875,1.27589189 5.1105,1.60028829 C4.733,1.70472072 4.425,1.95142342 4.229,2.27027027 L4,2.27027027 C2.897,2.27027027 2,3.17535135 2,4.28828829 C2,5.40122523 2.897,6.30630631 4,6.30630631 L4.1315,6.30630631 C4.3915,7.31884685 5.0295,8.17700901 5.887,8.71783784 L5.5915,9.90998198 L4.3555,10.1592072 C3.658,10.299964 3.005,10.5729009 2.4125,10.9714595 C0.902,11.988036 -1.59872116e-14,13.6887207 -1.59872116e-14,15.5210811 L-1.59872116e-14,26.4864865 C-1.59872116e-14,27.3209369 0.673,28 1.5,28 L29.5,28 C30.327,28 31,27.3209369 31,26.4864865 L31,15.5210811 C31,13.6887207 30.098,11.988036 28.587,10.971964 Z M30,15.5210811 L30,15.9847207 C29.843,15.9282162 29.676,15.8918919 29.5,15.8918919 L28,15.8918919 L28,13.3340541 C28,12.5187748 27.343,11.8558559 26.5345,11.8558559 C26.526,11.8558559 26.518,11.8588829 26.509,11.8588829 L26.786,11.2343063 C27.228,11.3604324 27.6465,11.5516396 28.032,11.810955 C29.264,12.6398559 30,14.0267387 30,15.5210811 Z M22.377,15.8918919 L21.482,13.8738739 L24.473,13.8738739 L23.223,15.8918919 L22.377,15.8918919 Z M20,5.2972973 L20.011,3.15416216 C21.089,2.81866667 22.1345,2.22032432 23,1.44843243 C23.865,2.22032432 24.9115,2.81866667 26,3.15517117 L26,5.2972973 C26,6.9667027 24.6545,8.32432432 23,8.32432432 C21.3455,8.32432432 20,6.9667027 20,5.2972973 Z M21.408,10.7741982 L21.81,9.1507027 C22.186,9.26926126 22.586,9.33333333 23,9.33333333 C23.414,9.33333333 23.814,9.26926126 24.19,9.1507027 L24.592,10.7741982 L25.7875,11.0153514 L24.967,12.8648649 L21.0345,12.8648649 L20.214,11.0153514 L21.408,10.7741982 Z M17.968,11.8114595 C18.354,11.5521441 18.773,11.3609369 19.2155,11.2343063 L21.281,15.8918919 L16,15.8918919 L16,15.5210811 C16,14.0267387 16.736,12.6398559 17.968,11.8114595 Z M13.032,11.8114595 C14.264,12.6398559 15,14.0267387 15,15.5210811 L15,15.8918919 L9.89,15.8918919 L9.527,14.4268108 L9.723,13.9919279 L10.8825,14.6936937 L11.4155,11.141982 L11.4475,11.1485405 C12.016,11.2635676 12.5495,11.4865586 13.032,11.8114595 Z M8,12.9486126 L8.8605,13.4692613 L8.678,13.8738739 L7.322,13.8738739 L7.14,13.4692613 L8,12.9486126 Z M7.3905,14.8828829 L8.61,14.8828829 L8.86,15.8918919 L7.14,15.8918919 L7.3905,14.8828829 Z M10.4345,10.9442162 L10.1175,13.0535495 L8.8065,12.259964 L10.1645,10.8897297 L10.4345,10.9442162 Z M13,4.28828829 C13,4.84475676 12.5515,5.2972973 12,5.2972973 L12,3.27927928 C12.5515,3.27927928 13,3.73181982 13,4.28828829 Z M3,4.28828829 C3,3.73181982 3.4485,3.27927928 4,3.27927928 L4,5.2972973 C3.4485,5.2972973 3,4.84475676 3,4.28828829 Z M5,5.2972973 L5,3.06234234 C5,2.83581982 5.154,2.63502703 5.374,2.57448649 C6.2125,2.34342342 7.295,1.96857658 7.9885,1.44237838 C8.73,2.09974775 9.6305,2.53261261 10.612,2.6996036 C10.8335,2.73744144 11,2.94832432 11,3.18998198 L11,5.2972973 C11,6.9667027 9.6545,8.32432432 8,8.32432432 C6.3455,8.32432432 5,6.9667027 5,5.2972973 Z M8,9.33333333 C8.414,9.33333333 8.814,9.26926126 9.19,9.1507027 L9.4465,10.1874595 L8,11.646991 L6.5535,10.1874595 L6.81,9.1507027 C7.186,9.26926126 7.586,9.33333333 8,9.33333333 Z M5.8355,10.8897297 L7.1935,12.259964 L5.8825,13.0535495 L5.5655,10.9442162 L5.8355,10.8897297 Z M2.968,11.8114595 C3.451,11.4865586 3.984,11.2640721 4.5525,11.149045 L4.5845,11.1424865 L5.1175,14.6941982 L6.277,13.9924324 L6.473,14.4273153 L6.11,15.8918919 L1.5,15.8918919 C1.324,15.8918919 1.157,15.9282162 1,15.9847207 L1,15.5210811 C1,14.0267387 1.736,12.6398559 2.968,11.8114595 Z M30,26.4864865 C30,26.7644685 29.776,26.990991 29.5,26.990991 L1.5,26.990991 C1.224,26.990991 1,26.7644685 1,26.4864865 L1,17.4054054 C1,17.1274234 1.224,16.9009009 1.5,16.9009009 L23.7775,16.9009009 L26.1405,13.0858378 C26.226,12.9476036 26.3735,12.8648649 26.5345,12.8648649 C26.791,12.8648649 27,13.0752432 27,13.3340541 L27,16.9009009 L29.5,16.9009009 C29.776,16.9009009 30,17.1274234 30,17.4054054 L30,26.4864865 Z" id="Shape"></path>
                </g>
            </g>
        </g>
    </g>
</svg>