<?xml version="1.0" encoding="UTF-8"?>
<svg width="33px" height="33px" viewBox="0 0 33 33" version="1.1" xmlns="http://www.w3.org/2000/svg" xmlns:xlink="http://www.w3.org/1999/xlink">
    <!-- Generator: Sketch 52.1 (67048) - http://www.bohemiancoding.com/sketch -->
    <title>accounting</title>
    <desc>Created with Sketch.</desc>
    <g id="Blog" stroke="none" stroke-width="1" fill="none" fill-rule="evenodd">
        <g id="DM---Landing-Page" transform="translate(-746.000000, -980.000000)" fill-rule="nonzero">
            <g id="accounting" transform="translate(746.000000, 980.000000)">
                <path d="M17.6234667,1.90519405 C17.2565333,1.82525584 16.9226667,1.63120293 16.6581333,1.34388878 L16.2864,0.940142885 C15.7285333,0.334234408 14.9861333,0 14.1968,0 L9.51146667,0 C6.47253333,0 4,2.68546051 4,5.98551844 C4,6.95694149 4.2208,7.92430971 4.63893333,8.78335586 L4.74453333,9 C5.01866667,8.47113342 5.5344,8.10967368 6.13333333,8.10967368 L6.66666667,8.10967368 L6.66666667,4.9075111 L6.66666667,4.63409925 L6.69333333,4.61961769 C6.67573333,4.71287893 6.66666667,4.80903649 6.66666667,4.9075111 C6.66666667,5.44970071 6.9488,5.94554933 7.39573333,6.18826028 L7.45493333,6.22069898 C7.63786667,6.32033211 7.84,6.37188646 8.0448,6.37188646 L16.0149333,6.37188646 C16.7429333,6.37188646 17.3333333,7.01312995 17.3333333,7.80382313 L17.3333333,8.10967368 L17.8666667,8.10967368 C18.448,8.10967368 18.9514667,8.44970071 19.232,8.95307975 L19.3285333,8.75323422 C19.7674667,7.84379224 20,6.8196563 20,5.79262406 L20,5.05348523 C20,3.52828731 19.0005333,2.20467272 17.6234667,1.90519405 Z" id="Path" fill="#F0BC5E"></path>
                <polygon id="Path" fill="#F0BC5E" points="16 26 10 26 10 23 16 23"></polygon>
                <g id="Group" transform="translate(0.000000, 2.000000)" fill="#000000">
                    <path d="M12.2419355,10.877193 C13.4267419,10.877193 14.4742258,10.106 14.8484032,8.95736842 L14.8755484,8.87361404 L13.8658548,8.52935088 L13.8387097,8.61364912 C13.6093065,9.31685965 12.9674032,9.78947368 12.2419355,9.78947368 C11.5164677,9.78947368 10.8745645,9.31685965 10.6451613,8.61310526 L10.6180161,8.52935088 L9.60832258,8.87361404 L9.63546774,8.95682456 C10.0096452,10.106 11.057129,10.877193 12.2419355,10.877193 Z" id="Path"></path>
                    <polygon id="Path" points="13.8387097 25.5614035 14.9032258 25.5614035 14.9032258 26.6491228 13.8387097 26.6491228"></polygon>
                    <polygon id="Path" points="11.7096774 25.5614035 12.7741935 25.5614035 12.7741935 26.6491228 11.7096774 26.6491228"></polygon>
                    <polygon id="Path" points="13.8387097 27.7368421 14.9032258 27.7368421 14.9032258 28.8245614 13.8387097 28.8245614"></polygon>
                    <polygon id="Path" points="11.7096774 27.7368421 12.7741935 27.7368421 12.7741935 28.8245614 11.7096774 28.8245614"></polygon>
                    <path d="M30.3387097,14.6842105 L23.9516129,14.6842105 C23.0712581,14.6842105 22.3548387,15.4162456 22.3548387,16.3157895 L22.3548387,17.0347719 C20.5302581,14.6249298 17.7582581,13.1570526 14.7025645,13.0580702 L14.6919194,13.0363158 C16.5963387,12.868807 18.0967742,11.2339649 18.0967742,9.24561404 L18.0967742,8.70175439 C19.2709355,8.70175439 20.2258065,7.72607018 20.2258065,6.52631579 C20.2258065,5.3265614 19.2709355,4.35087719 18.0967742,4.35087719 L18.0712258,4.35087719 C17.9472097,3.43175439 17.1812903,2.71929825 16.2487742,2.71929825 L14.9032258,2.71929825 L14.3709677,2.71929825 L10.1129032,2.71929825 L9.58064516,2.71929825 L8.29417742,2.71929825 C8.17335484,2.71929825 8.052,2.68992982 7.94395161,2.63445614 L7.88433871,2.604 C7.61767742,2.46803509 7.4516129,2.19392982 7.4516129,1.8882807 C7.4516129,1.44721053 7.80343548,1.0877193 8.23509677,1.0877193 L9.0483871,1.0877193 L9.0483871,3.55271368e-15 L8.23509677,3.55271368e-15 C7.30151613,3.55271368e-15 6.52708065,0.711368421 6.40412903,1.63157895 L6.39774194,4.35087719 L6.38709677,4.35087719 C5.21293548,4.35087719 4.25806452,5.3265614 4.25806452,6.52631579 C4.25806452,7.72607018 5.21293548,8.70175439 6.38709677,8.70175439 L6.38816129,8.70175439 L6.38709677,9.24561404 C6.38709677,11.2339649 7.88753226,12.868807 9.79195161,13.0357719 L9.78130645,13.0580702 C4.35812903,13.2375439 0,17.801614 0,23.3859649 L0,23.9298246 C0,26.0557719 1.33596774,27.8646491 3.19354839,28.5390351 L3.19354839,31 L19.6935484,31 L26.0806452,31 C26.961,31 27.6774194,30.2679649 27.6774194,29.3684211 L27.6774194,28.8245614 L30.3387097,28.8245614 C31.2190645,28.8245614 31.9354839,28.0925263 31.9354839,27.1929825 L31.9354839,26.1052632 C31.9354839,25.6859474 31.7752742,25.3068772 31.5203226,25.0175439 C31.7758065,24.7282105 31.9354839,24.3491404 31.9354839,23.9298246 L31.9354839,22.8421053 C31.9354839,22.4227895 31.7752742,22.0437193 31.5203226,21.754386 C31.7758065,21.4650526 31.9354839,21.0859825 31.9354839,20.6666667 L31.9354839,19.5789474 C31.9354839,19.1596316 31.7752742,18.7805614 31.5203226,18.4912281 C31.7758065,18.2018947 31.9354839,17.8228246 31.9354839,17.4035088 L31.9354839,16.3157895 C31.9354839,15.4162456 31.2190645,14.6842105 30.3387097,14.6842105 Z M23.4193548,16.3157895 C23.4193548,16.0161228 23.6583387,15.7719298 23.9516129,15.7719298 L24.483871,15.7719298 L24.483871,16.8596491 L25.5483871,16.8596491 L25.5483871,15.7719298 L26.6129032,15.7719298 L26.6129032,16.8596491 L27.6774194,16.8596491 L27.6774194,15.7719298 L28.7419355,15.7719298 L28.7419355,16.8596491 L29.8064516,16.8596491 L29.8064516,15.7719298 L30.3387097,15.7719298 C30.6319839,15.7719298 30.8709677,16.0161228 30.8709677,16.3157895 L30.8709677,17.4035088 C30.8709677,17.7031754 30.6319839,17.9473684 30.3387097,17.9473684 L23.9516129,17.9473684 C23.6583387,17.9473684 23.4193548,17.7031754 23.4193548,17.4035088 L23.4193548,16.3157895 Z M30.8709677,19.5789474 L30.8709677,20.6666667 C30.8709677,20.9663333 30.6319839,21.2105263 30.3387097,21.2105263 L23.9516129,21.2105263 C23.6583387,21.2105263 23.4193548,20.9663333 23.4193548,20.6666667 L23.4193548,19.5789474 C23.4193548,19.2792807 23.6583387,19.0350877 23.9516129,19.0350877 L24.483871,19.0350877 L24.483871,20.122807 L25.5483871,20.122807 L25.5483871,19.0350877 L26.6129032,19.0350877 L26.6129032,20.122807 L27.6774194,20.122807 L27.6774194,19.0350877 L28.7419355,19.0350877 L28.7419355,20.122807 L29.8064516,20.122807 L29.8064516,19.0350877 L30.3387097,19.0350877 C30.6319839,19.0350877 30.8709677,19.2792807 30.8709677,19.5789474 Z M30.8709677,22.8421053 L30.8709677,23.9298246 C30.8709677,24.2294912 30.6319839,24.4736842 30.3387097,24.4736842 L27.5794839,24.4736842 C27.359129,23.8422632 26.7736452,23.3859649 26.0806452,23.3859649 L25.5483871,23.3859649 L25.5483871,22.2982456 L26.6129032,22.2982456 L26.6129032,23.3859649 L27.6774194,23.3859649 L27.6774194,22.2982456 L28.7419355,22.2982456 L28.7419355,23.3859649 L29.8064516,23.3859649 L29.8064516,22.2982456 L30.3387097,22.2982456 C30.6319839,22.2982456 30.8709677,22.5424386 30.8709677,22.8421053 Z M19.6935484,26.6491228 C19.4002742,26.6491228 19.1612903,26.4049298 19.1612903,26.1052632 L19.1612903,25.0175439 C19.1612903,24.7178772 19.4002742,24.4736842 19.6935484,24.4736842 L20.2258065,24.4736842 L20.2258065,25.5614035 L21.2903226,25.5614035 L21.2903226,24.4736842 L22.3548387,24.4736842 L22.3548387,25.5614035 L23.4193548,25.5614035 L23.4193548,24.4736842 L24.483871,24.4736842 L24.483871,25.5614035 L25.5483871,25.5614035 L25.5483871,24.4736842 L26.0806452,24.4736842 C26.3739194,24.4736842 26.6129032,24.7178772 26.6129032,25.0175439 L26.6129032,26.1052632 C26.6129032,26.4049298 26.3739194,26.6491228 26.0806452,26.6491228 L19.6935484,26.6491228 Z M23.4193548,22.8421053 C23.4193548,22.5424386 23.6583387,22.2982456 23.9516129,22.2982456 L24.483871,22.2982456 L24.483871,23.3859649 L23.4193548,23.3859649 L23.4193548,22.8421053 Z M22.4149839,19.1590877 C22.3798548,19.2939649 22.3548387,19.4326491 22.3548387,19.5789474 L22.3548387,20.6666667 C22.3548387,21.0859825 22.5150484,21.4650526 22.77,21.754386 C22.5145161,22.0437193 22.3548387,22.4227895 22.3548387,22.8421053 L22.3548387,23.3859649 L21.2903226,23.3859649 L21.2903226,19.5789474 L20.2258065,19.5789474 L20.2258065,23.3859649 L19.6935484,23.3859649 C18.8131935,23.3859649 18.0967742,24.118 18.0967742,25.0175439 L18.0967742,26.1052632 C18.0967742,26.5245789 18.2569839,26.9036491 18.5119355,27.1929825 C18.2564516,27.4823158 18.0967742,27.861386 18.0967742,28.2807018 L18.0967742,29.3684211 C18.0967742,29.5598596 18.1350968,29.7415088 18.1947097,29.9122807 L17.0322581,29.9122807 L17.0322581,20.6666667 C17.0322581,19.7671228 16.3158387,19.0350877 15.4354839,19.0350877 L14.9990323,19.0350877 L15.7787903,14.2534737 C18.6194516,14.701614 21.072629,16.492 22.4149839,19.1590877 Z M6.38709677,25.2427018 L6.98375806,24.6330351 C7.08435484,24.5302456 7.21848387,24.4736842 7.36059677,24.4736842 L7.4516129,24.4736842 C7.7448871,24.4736842 7.98387097,24.7178772 7.98387097,25.0175439 L7.98387097,25.5614035 L8.51612903,25.5614035 C9.10320968,25.5614035 9.58064516,26.0492456 9.58064516,26.6491228 C9.58064516,27.249 9.10320968,27.7368421 8.51612903,27.7368421 L6.38709677,27.7368421 L6.38709677,25.2427018 Z M10.6451613,26.6491228 C10.6451613,25.609807 9.92874194,24.7385439 8.97387097,24.5242632 C8.8871129,24.2447193 8.72477419,24.0005263 8.51612903,23.8085439 L8.51612903,20.6666667 C8.51612903,20.367 8.7551129,20.122807 9.0483871,20.122807 L15.4354839,20.122807 C15.7287581,20.122807 15.9677419,20.367 15.9677419,20.6666667 L15.9677419,29.9122807 L8.51612903,29.9122807 L8.51612903,28.8245614 C9.69029032,28.8245614 10.6451613,27.8488772 10.6451613,26.6491228 Z M13.5097742,13.0526316 L13.7429032,13.5285088 L12.2419355,15.4450702 L10.7415,13.5285088 L10.9740968,13.0526316 L13.5097742,13.0526316 Z M12.2419355,17.2963684 L13.3761774,19.0350877 L11.1071613,19.0350877 L12.2419355,17.2963684 Z M12.900871,16.3451579 L14.6200645,14.1495965 C14.6525323,14.1506842 14.6844677,14.1517719 14.7169355,14.1528596 L14.0675806,18.1333684 L12.900871,16.3451579 Z M9.867,14.1528596 L11.583,16.344614 L10.4162903,18.1328246 L9.768,14.1582982 C9.80153226,14.1566667 9.834,14.1539474 9.867,14.1528596 Z M19.1612903,6.52631579 C19.1612903,7.12619298 18.6838548,7.61403509 18.0967742,7.61403509 L18.0967742,5.43859649 C18.6838548,5.43859649 19.1612903,5.9264386 19.1612903,6.52631579 Z M14.9032258,3.80701754 L16.2487742,3.80701754 C16.6804355,3.80701754 17.0322581,4.16650877 17.0322581,4.60757895 L17.0322581,4.89473684 L17.0322581,5.43859649 C17.0322581,5.73826316 16.7932742,5.98245614 16.5,5.98245614 L14.3709677,5.98245614 C14.0776935,5.98245614 13.8387097,5.73826316 13.8387097,5.43859649 L13.8387097,4.35087719 C13.8387097,4.05121053 14.0776935,3.80701754 14.3709677,3.80701754 L14.9032258,3.80701754 Z M12.7741935,4.35087719 L11.7096774,4.35087719 C11.7096774,4.1594386 11.6713548,3.97778947 11.6117419,3.80701754 L12.8726613,3.80701754 C12.8125161,3.97778947 12.7741935,4.1594386 12.7741935,4.35087719 Z M7.4516129,3.59926316 L7.46758065,3.60742105 C7.72306452,3.73794737 8.0088871,3.80701754 8.29417742,3.80701754 L9.58064516,3.80701754 L10.1129032,3.80701754 C10.4061774,3.80701754 10.6451613,4.05121053 10.6451613,4.35087719 L10.6451613,5.43859649 C10.6451613,5.73826316 10.4061774,5.98245614 10.1129032,5.98245614 L7.98387097,5.98245614 C7.69059677,5.98245614 7.4516129,5.73826316 7.4516129,5.43859649 L7.4516129,4.89473684 L7.4516129,3.59926316 Z M6.38709677,7.61403509 C5.80001613,7.61403509 5.32258065,7.12619298 5.32258065,6.52631579 C5.32258065,5.9264386 5.80001613,5.43859649 6.38709677,5.43859649 C6.38709677,5.46742105 6.39401613,5.49461404 6.3956129,5.5234386 L6.39082258,7.61403509 L6.38709677,7.61403509 Z M7.4516129,9.24561404 L7.4516129,6.97010526 C7.61874194,7.03101754 7.79651613,7.07017544 7.98387097,7.07017544 L10.1129032,7.07017544 C10.9932581,7.07017544 11.7096774,6.33814035 11.7096774,5.43859649 L12.7741935,5.43859649 C12.7741935,6.33814035 13.4906129,7.07017544 14.3709677,7.07017544 L16.5,7.07017544 C16.6873548,7.07017544 16.865129,7.03101754 17.0322581,6.97010526 L17.0322581,9.24561404 C17.0322581,10.7450351 15.8384032,11.9649123 14.3709677,11.9649123 L10.1129032,11.9649123 C8.64546774,11.9649123 7.4516129,10.7450351 7.4516129,9.24561404 Z M1.06451613,23.9298246 L1.06451613,23.3859649 C1.06451613,18.7778421 4.38420968,14.9577719 8.70614516,14.263807 L9.48483871,19.0350877 L9.0483871,19.0350877 C8.16803226,19.0350877 7.4516129,19.7671228 7.4516129,20.6666667 L7.4516129,23.3859649 L7.36059677,23.3859649 C6.93425806,23.3859649 6.53293548,23.5556491 6.23114516,23.8640175 L5.64779032,24.4600877 C4.86483871,24.3562105 4.25806452,23.6698596 4.25806452,22.8421053 L4.25806452,19.5789474 L3.19354839,19.5789474 L3.19354839,22.8421053 C3.19354839,24.1549825 4.10956452,25.2535789 5.32258065,25.5064737 L5.32258065,27.7368421 L4.79032258,27.7368421 C2.73580645,27.7368421 1.06451613,26.0291228 1.06451613,23.9298246 Z M4.25806452,28.7924737 C4.43317742,28.8125965 4.61041935,28.8245614 4.79032258,28.8245614 L7.4516129,28.8245614 L7.4516129,29.9122807 L4.25806452,29.9122807 L4.25806452,28.7924737 Z M26.6129032,29.3684211 C26.6129032,29.6680877 26.3739194,29.9122807 26.0806452,29.9122807 L19.6935484,29.9122807 C19.4002742,29.9122807 19.1612903,29.6680877 19.1612903,29.3684211 L19.1612903,28.2807018 C19.1612903,27.9810351 19.4002742,27.7368421 19.6935484,27.7368421 L20.2258065,27.7368421 L20.2258065,28.8245614 L21.2903226,28.8245614 L21.2903226,27.7368421 L22.3548387,27.7368421 L22.3548387,28.8245614 L23.4193548,28.8245614 L23.4193548,27.7368421 L24.483871,27.7368421 L24.483871,28.8245614 L25.5483871,28.8245614 L25.5483871,27.7368421 L26.0806452,27.7368421 C26.3739194,27.7368421 26.6129032,27.9810351 26.6129032,28.2807018 L26.6129032,29.3684211 Z M30.8709677,27.1929825 C30.8709677,27.4926491 30.6319839,27.7368421 30.3387097,27.7368421 L27.5794839,27.7368421 C27.5086935,27.5334386 27.4011774,27.3501579 27.2622581,27.1929825 C27.5177419,26.9036491 27.6774194,26.5245789 27.6774194,26.1052632 L27.6774194,25.5614035 L28.7419355,25.5614035 L28.7419355,26.6491228 L29.8064516,26.6491228 L29.8064516,25.5614035 L30.3387097,25.5614035 C30.6319839,25.5614035 30.8709677,25.8055965 30.8709677,26.1052632 L30.8709677,27.1929825 Z" id="Shape"></path>
                    <path d="M29.8064516,0.543859649 L29.8064516,12.5087719 L28.7419355,12.5087719 L28.7419355,2.71929825 L25.5483871,2.71929825 L25.5483871,12.5087719 L24.483871,12.5087719 L24.483871,4.89473684 L21.2903226,4.89473684 L21.2903226,13.5964912 L33,13.5964912 L33,0.543859649 L29.8064516,0.543859649 Z M23.4193548,12.5087719 L22.3548387,12.5087719 L22.3548387,5.98245614 L23.4193548,5.98245614 L23.4193548,12.5087719 Z M26.6129032,3.80701754 L27.6774194,3.80701754 L27.6774194,12.5087719 L26.6129032,12.5087719 L26.6129032,3.80701754 Z M31.9354839,12.5087719 L30.8709677,12.5087719 L30.8709677,1.63157895 L31.9354839,1.63157895 L31.9354839,12.5087719 Z" id="Shape"></path>
                </g>
            </g>
        </g>
    </g>
</svg>