<?xml version="1.0" encoding="UTF-8"?>
<svg width="29px" height="29px" viewBox="0 0 29 29" version="1.1" xmlns="http://www.w3.org/2000/svg" xmlns:xlink="http://www.w3.org/1999/xlink">
    <!-- Generator: sketchtool 58 (101010) - https://sketch.com -->
    <title>FCE87887-5915-4FDC-9717-9C46D8FF68AC@1.00x</title>
    <desc>Created with sketchtool.</desc>
    <g id="Blog" stroke="none" stroke-width="1" fill="none" fill-rule="evenodd">
        <g id="DM---Landing-Page" transform="translate(-409.000000, -866.000000)" fill-rule="nonzero">
            <g id="awareness" transform="translate(409.000000, 866.000000)">
                <path d="M25.0740741,1 L1.92592593,1 C1.41435185,1 1,1.39777778 1,1.88888889 L1,5 L26,5 L26,1.88888889 C26,1.39777778 25.5856481,1 25.0740741,1 Z" id="Path" fill="#F0BC5E"></path>
                <polygon id="Path" fill="#F0BC5E" points="17 7 24 7 24 11 17 11"></polygon>
                <g id="Group" fill="#000000">
                    <path d="M27.1290323,13.5645161 L27.1290323,12.9180968 C27.1290323,12.2726129 26.7702742,11.6926129 26.1935484,11.4044839 L26.1935484,1.40322581 C26.1935484,0.629580645 25.5639677,-3.55271368e-15 24.7903226,-3.55271368e-15 L1.40322581,-3.55271368e-15 C0.629580645,-3.55271368e-15 0,0.629580645 0,1.40322581 L0,29 L26.1935484,29 L26.1935484,19.4664839 C26.7702742,19.1778871 27.1290323,18.5983548 27.1290323,17.952871 L27.1290323,17.3064516 C28.160871,17.3064516 29,16.4673226 29,15.4354839 C29,14.4036452 28.160871,13.5645161 27.1290323,13.5645161 Z M0.935483871,1.40322581 C0.935483871,1.1455 1.1455,0.935483871 1.40322581,0.935483871 L24.7903226,0.935483871 C25.0480484,0.935483871 25.2580645,1.1455 25.2580645,1.40322581 L25.2580645,11.2258065 L24.3225806,11.2258065 L24.3225806,12.3399677 L23.2037419,12.8993871 C22.9455484,13.0284839 22.6564839,13.0967742 22.3674194,13.0967742 L20.1129032,13.0967742 C18.8233387,13.0967742 17.7741935,14.1459194 17.7741935,15.4354839 C17.7741935,16.5646129 18.5791774,17.5094516 19.6451613,17.7269516 L19.6451613,17.9210645 L12.5336129,17.3354516 L12.2665323,16.2680645 C13.0687097,15.7661774 13.6655484,14.9710161 13.9087742,14.0322581 L14.0322581,14.0322581 C15.0640968,14.0322581 15.9032258,13.193129 15.9032258,12.1612903 C15.9032258,11.4718387 15.5243548,10.8754677 14.9677419,10.5508548 L14.9677419,9.82258065 C14.9677419,7.50164516 13.079,5.61290323 10.7580645,5.61290323 L9.82258065,5.61290323 C7.50164516,5.61290323 5.61290323,7.50164516 5.61290323,9.82258065 L5.61290323,10.5503871 C5.05629032,10.875 4.67741935,11.4718387 4.67741935,12.1612903 C4.67741935,13.193129 5.51654839,14.0322581 6.5483871,14.0322581 L6.67140323,14.0322581 C6.91462903,14.9710161 7.51146774,15.7666452 8.31364516,16.2680645 L8.03720968,17.3733387 L6.88095161,17.6044032 C6.22891935,17.7344355 5.61758065,17.9879516 5.06330645,18.357 C3.65025806,19.3004355 2.80645161,20.8771935 2.80645161,22.5755645 L2.80645161,28.0645161 L0.935483871,28.0645161 L0.935483871,1.40322581 Z M24.3225806,17.485129 L23.622371,17.1352581 C23.2350806,16.9416129 22.8010161,16.8387097 22.3674194,16.8387097 L21.516129,16.8387097 L21.516129,14.0322581 L22.3674194,14.0322581 C22.8010161,14.0322581 23.2346129,13.9298226 23.622371,13.7361774 L24.3225806,13.3858387 L24.3225806,17.485129 Z M14.0322581,21.023129 L14.0322581,28.0645161 L12.5668226,28.0645161 L11.7038387,22.0222258 L11.9625,21.1938548 L12.9868548,21.8084677 L13.5102581,18.3546613 L19.6451613,18.8602903 L19.6451613,21.3182742 L14.0322581,21.023129 Z M5.61290323,23.3870968 L5.61290323,28.0645161 L3.74193548,28.0645161 L3.74193548,22.5755645 C3.74193548,21.1905806 4.42998387,19.9047581 5.5825,19.1357903 C6.03480645,18.8345645 6.53341935,18.6282903 7.06477419,18.5216452 L7.09470968,18.5155645 L7.59379032,21.808 L8.61814516,21.1933871 L8.87680645,22.0217581 L8.01382258,28.0645161 L6.5483871,28.0645161 L6.5483871,23.3870968 L5.61290323,23.3870968 Z M6.5483871,11.2258065 L6.5483871,13.0967742 C6.03246774,13.0967742 5.61290323,12.6772097 5.61290323,12.1612903 C5.61290323,11.645371 6.03246774,11.2258065 6.5483871,11.2258065 Z M7.01612903,10.2903226 L6.5483871,10.2903226 L6.5483871,9.82258065 C6.5483871,8.01709677 8.01709677,6.5483871 9.82258065,6.5483871 L10.7580645,6.5483871 C12.5635484,6.5483871 14.0322581,8.01709677 14.0322581,9.82258065 L14.0322581,10.2903226 L13.5645161,10.2903226 C12.8427903,10.2903226 12.1725161,9.93156452 11.772129,9.33098387 L11.2258065,8.5115 L10.8366452,9.09524194 C10.3380323,9.84362903 9.5031129,10.2903226 8.6041129,10.2903226 L7.01612903,10.2903226 Z M14.0322581,11.2258065 C14.5481774,11.2258065 14.9677419,11.645371 14.9677419,12.1612903 C14.9677419,12.6772097 14.5481774,13.0967742 14.0322581,13.0967742 L14.0322581,11.2258065 Z M7.48387097,11.2258065 L8.6041129,11.2258065 C9.59432258,11.2258065 10.5265323,10.8240161 11.2019516,10.1270806 C11.685129,10.7014677 12.3582097,11.078 13.0972419,11.1902581 L13.0972419,13.0967742 C13.0972419,14.6445323 11.8385484,15.9032258 10.2907903,15.9032258 C8.74303226,15.9032258 7.48433871,14.6445323 7.48433871,13.0967742 L7.48433871,11.2258065 L7.48387097,11.2258065 Z M10.8820161,21.516129 L9.69862903,21.516129 L9.44324194,20.6989839 L10.2903226,20.1905484 L11.1374032,20.6985161 L10.8820161,21.516129 Z M11.0447903,19.5520806 L12.3390323,18.2578387 L12.5761774,18.2774839 L12.2716774,20.2883065 L11.0447903,19.5520806 Z M10.2903226,16.8387097 C10.6776129,16.8387097 11.0513387,16.7793065 11.4030806,16.6698548 L11.6435,17.6310645 L10.2903226,18.9837742 L8.93714516,17.6305968 L9.17756452,16.6693871 C9.52930645,16.7793065 9.90303226,16.8387097 10.2903226,16.8387097 L10.2903226,16.8387097 Z M8.26546774,18.2816935 L9.53585484,19.5520806 L8.30943548,20.2883065 L8.0128871,18.3322097 L8.26546774,18.2816935 Z M9.76037097,22.4516129 L10.8198065,22.4516129 L11.6219839,28.0645161 L8.95866129,28.0645161 L9.76037097,22.4516129 Z M20.1129032,16.8387097 C19.3392581,16.8387097 18.7096774,16.209129 18.7096774,15.4354839 C18.7096774,14.6618387 19.3392581,14.0322581 20.1129032,14.0322581 L20.5806452,14.0322581 L20.5806452,16.8387097 L20.1129032,16.8387097 Z M20.5806452,17.7741935 L21.516129,17.7741935 L21.516129,21.983871 C21.516129,22.2420645 21.3061129,22.4516129 21.0483871,22.4516129 C20.7906613,22.4516129 20.5806452,22.2420645 20.5806452,21.983871 L20.5806452,17.7741935 Z M22.4516129,19.1053871 C22.9876452,19.2227903 23.3870968,19.6989516 23.3870968,20.2630484 C23.3870968,20.5890645 23.2575323,20.8935645 23.0227258,21.1190161 C22.8608871,21.2747742 22.6625645,21.3786129 22.4516129,21.4244516 L22.4516129,19.1053871 Z M14.9677419,28.0645161 L14.9677419,22.009129 L19.6727581,22.2565645 C19.7999839,22.9001774 20.3678226,23.3870968 21.0483871,23.3870968 C21.6877903,23.3870968 22.2228871,22.9544355 22.3912742,22.3688226 C22.8702419,22.3257903 23.3188065,22.1326129 23.6714839,21.7930323 C24.0910484,21.389371 24.3225806,20.8453871 24.3225806,20.2625806 C24.3225806,19.1830323 23.5049677,18.2845 22.4516129,18.1605484 L22.4516129,17.7835484 C22.7121452,17.7957097 22.9708065,17.8546452 23.2037419,17.9715806 L24.3225806,18.531 L24.3225806,19.6451613 L25.2580645,19.6451613 L25.2580645,28.0645161 L14.9677419,28.0645161 Z M26.1935484,17.952871 C26.1935484,18.2414677 26.0331129,18.5010645 25.7753871,18.6296935 C25.6706129,18.6820806 25.5536774,18.7096774 25.4367419,18.7096774 L25.2580645,18.7096774 L25.2580645,12.1612903 L25.4367419,12.1612903 C25.5536774,12.1612903 25.6706129,12.1888871 25.7753871,12.2412742 C26.0331129,12.370371 26.1935484,12.6295 26.1935484,12.9180968 L26.1935484,17.952871 Z M27.1290323,16.3709677 L27.1290323,14.5 C27.6449516,14.5 28.0645161,14.9195645 28.0645161,15.4354839 C28.0645161,15.9514032 27.6449516,16.3709677 27.1290323,16.3709677 Z" id="Shape"></path>
                    <polygon id="Path" points="22.4516129 25.2580645 23.3870968 25.2580645 23.3870968 26.1935484 22.4516129 26.1935484"></polygon>
                    <polygon id="Path" points="20.5806452 25.2580645 21.516129 25.2580645 21.516129 26.1935484 20.5806452 26.1935484"></polygon>
                    <polygon id="Path" points="18.7096774 25.2580645 19.6451613 25.2580645 19.6451613 26.1935484 18.7096774 26.1935484"></polygon>
                    <polygon id="Path" points="3.27419355 1.87096774 4.20967742 1.87096774 4.20967742 2.80645161 3.27419355 2.80645161"></polygon>
                    <polygon id="Path" points="5.14516129 1.87096774 6.08064516 1.87096774 6.08064516 2.80645161 5.14516129 2.80645161"></polygon>
                    <polygon id="Path" points="7.01612903 1.87096774 7.9516129 1.87096774 7.9516129 2.80645161 7.01612903 2.80645161"></polygon>
                    <polygon id="Path" points="16.8387097 6.5483871 23.3870968 6.5483871 23.3870968 7.48387097 16.8387097 7.48387097"></polygon>
                    <polygon id="Path" points="16.8387097 8.41935484 23.3870968 8.41935484 23.3870968 9.35483871 16.8387097 9.35483871"></polygon>
                    <polygon id="Path" points="16.8387097 10.2903226 23.3870968 10.2903226 23.3870968 11.2258065 16.8387097 11.2258065"></polygon>
                </g>
            </g>
        </g>
    </g>
</svg>