<svg id="Layer_1" data-name="Layer 1" xmlns="http://www.w3.org/2000/svg" viewBox="0 0 56 59"><path d="M34,14h4V28H34Z" transform="translate(0 0)" style="fill:#ffca13;fill-rule:evenodd"/><path d="M34,36H51v8H34Z" transform="translate(0 0)" style="fill:#ffca13;fill-rule:evenodd"/><path d="M36,29H50v7H36Z" transform="translate(0 0)" style="fill:#ffca13;fill-rule:evenodd"/><path d="M33,44H51v8H33Z" transform="translate(0 0)" style="fill:#ffca13;fill-rule:evenodd"/><path d="M32,51H50v7H32Z" transform="translate(0 0)" style="fill:#ffca13;fill-rule:evenodd"/><path d="M54.81,7H51.19A1.37,1.37,0,0,0,50,8.5,1.37,1.37,0,0,0,51.19,10h3.62A1.37,1.37,0,0,0,56,8.5,1.37,1.37,0,0,0,54.81,7Z" transform="translate(0 0)"/><path d="M52.44,13.83l-2.77-1.67a1.08,1.08,0,0,0-1.52.42,1.18,1.18,0,0,0,.41,1.59l2.77,1.67a1,1,0,0,0,.55.16,1.11,1.11,0,0,0,1-.58A1.18,1.18,0,0,0,52.44,13.83Z" transform="translate(0 0)"/><path d="M49.12,4a1,1,0,0,0,.55-.16l2.77-1.67A1.18,1.18,0,0,0,52.85.58,1.08,1.08,0,0,0,51.33.16L48.56,1.83a1.18,1.18,0,0,0-.41,1.59A1.11,1.11,0,0,0,49.12,4Z" transform="translate(0 0)"/><path d="M23.19,10h3.62A1.37,1.37,0,0,0,28,8.5,1.37,1.37,0,0,0,26.81,7H23.19A1.37,1.37,0,0,0,22,8.5,1.37,1.37,0,0,0,23.19,10Z" transform="translate(0 0)"/><path d="M27.33,12.16l-2.77,1.67a1.18,1.18,0,0,0-.41,1.59,1.11,1.11,0,0,0,1,.58,1,1,0,0,0,.55-.16l2.77-1.67a1.18,1.18,0,0,0,.41-1.59A1.08,1.08,0,0,0,27.33,12.16Z" transform="translate(0 0)"/><path d="M24.56,2.17l2.77,1.67a1,1,0,0,0,.55.16,1.11,1.11,0,0,0,1-.58,1.18,1.18,0,0,0-.41-1.59L25.67.16a1.08,1.08,0,0,0-1.52.42A1.18,1.18,0,0,0,24.56,2.17Z" transform="translate(0 0)"/><path d="M53,39.84a4.77,4.77,0,0,0-2.57-4.25,4.77,4.77,0,0,0,1-3,4.7,4.7,0,0,0-4.63-4.75H44.46V14.18a1.25,1.25,0,0,0-.08-.42L39.44.73a1.12,1.12,0,0,0-1-.73,1.11,1.11,0,0,0-1,.73l-4.94,13a1.25,1.25,0,0,0-.08.42v6.51h-1.4A12.41,12.41,0,0,0,23.75,23,12.9,12.9,0,0,0,19.1,29l-.67,1.8H16.28v-.52a3.24,3.24,0,0,0-3.19-3.27H3.19A3.24,3.24,0,0,0,0,30.32V55.73A3.24,3.24,0,0,0,3.19,59h9.9a3.24,3.24,0,0,0,3.19-3.27v-.16h2.54a16.3,16.3,0,0,0,10,3.43h18a4.7,4.7,0,0,0,4.63-4.75,4.77,4.77,0,0,0-1-3,4.81,4.81,0,0,0,1-7.85A4.85,4.85,0,0,0,53,39.84Zm-18.42-12V15.33h2.69V27.89Zm4.94-12.56h2.69V27.89H39.52Zm-1.13-11,3.3,8.7h-6.6Zm-5.5,38a1.16,1.16,0,0,0,0,2.31H48.37a2.45,2.45,0,0,1,0,4.89H32.89a1.16,1.16,0,0,0,0,2.31H46.8a2.45,2.45,0,0,1,0,4.9h-18a14.07,14.07,0,0,1-8.87-3.18,1,1,0,0,0-.7-.25H16.28V48.21a1.13,1.13,0,1,0-2.25,0v7.52a1,1,0,0,1-.94,1H3.19a1,1,0,0,1-.94-1V30.32a1,1,0,0,1,.94-1h9.9a1,1,0,0,1,.94,1v7.52a1.13,1.13,0,1,0,2.25,0v-4.7H19.2a1.11,1.11,0,0,0,1.05-.74l.95-2.54A10.49,10.49,0,0,1,30.93,23h1.4v4.9h-3a1.15,1.15,0,0,0,0,2.3H46.8a2.45,2.45,0,0,1,0,4.9H32.89a1.16,1.16,0,0,0,0,2.31H48.37a2.45,2.45,0,0,1,0,4.89Z" transform="translate(0 0)"/><path d="M15.5,42a1.5,1.5,0,0,0,0,3,1.5,1.5,0,0,0,1.06-.44,1.5,1.5,0,0,0,0-2.12A1.5,1.5,0,0,0,15.5,42Z" transform="translate(0 0)"/></svg>