<?xml version="1.0" encoding="UTF-8"?>
<svg width="64px" height="57px" viewBox="0 0 64 57" version="1.1" xmlns="http://www.w3.org/2000/svg" xmlns:xlink="http://www.w3.org/1999/xlink">
    <!-- Generator: sketchtool 58 (101010) - https://sketch.com -->
    <title>3E632FB4-3D0A-4AE4-86AD-761DC1E9D864@1.00x</title>
    <desc>Created with sketchtool.</desc>
    <g id="Blog" stroke="none" stroke-width="1" fill="none" fill-rule="evenodd">
        <g id="DM---Landing-Page" transform="translate(-381.000000, -2956.000000)">
            <g id="coding" transform="translate(381.000000, 2956.000000)">
                <circle id="Oval" fill="#FFCA13" cx="59.5" cy="39.5" r="3.5"></circle>
                <rect id="Rectangle" fill="#FFCA13" x="2" y="2" width="45" height="11"></rect>
                <path d="M59.890133,28.1458453 L48.7744047,28.1458453 C48.7744047,26.8616185 48.7744047,6.07809577 48.7744047,4.67102332 C48.7744047,2.09540998 46.6891588,0 44.1260388,0 L4.64836592,0 C2.08524593,0 0,2.09553559 0,4.67102332 L0,35.5062838 C0,38.0818971 2.08524593,40.1773071 4.64836592,40.1773071 L31.1815641,40.1773071 L31.1815641,50.777077 L31.1815641,52.8703516 C31.1815641,55.1475179 33.0250605,57 35.2911811,57 L59.890258,57 C62.1563786,57 64,55.1473923 64,52.8703516 C64,46.5346317 64,38.7704858 64,32.2756193 C64,29.998453 62.1562536,28.1458453 59.890133,28.1458453 Z M33.6814342,38.9212167 L33.6814342,37.1770096 L54.3533938,37.1770096 C52.5415224,41.6755717 57.0232636,46.1789069 61.4998799,44.3583295 L61.4998799,45.3329301 L57.5745125,48.0890436 C56.6528893,48.7359301 55.3913918,48.6422258 54.5747684,47.8662132 L48.130031,41.7421445 C45.6606608,39.3957676 41.7160435,39.470505 39.3365482,41.9084508 L33.6814342,47.7025446 L33.6814342,38.9212167 Z M57.2783881,37.1770096 L61.4998799,37.1770096 L61.4998799,41.4192036 C60.947006,41.9502787 60.2157574,42.2482233 59.4400089,42.2482233 C56.814014,42.2482233 55.4787666,39.0686817 57.2783881,37.1770096 L57.2783881,37.1770096 Z M61.4998799,32.2756193 L61.4998799,34.6648288 C60.6758815,34.6648288 34.5060576,34.6648288 33.6814342,34.6648288 L33.6814342,32.2756193 C33.6814342,31.3836695 34.4035578,30.6581517 35.2911811,30.6581517 L59.890133,30.6581517 C60.7777563,30.6580261 61.4998799,31.3836695 61.4998799,32.2756193 L61.4998799,32.2756193 Z M4.64836592,37.6651263 C3.46374323,37.6651263 2.49999512,36.6966806 2.49999512,35.5062838 L2.49999512,13.6722926 L32.8749358,13.6722926 C33.5651844,13.6722926 34.1249333,13.109941 34.1249333,12.4162022 C34.1249333,11.7224635 33.5651844,11.1601119 32.8749358,11.1601119 L2.49999512,11.1601119 L2.49999512,4.67114893 C2.49999512,3.48075207 3.46374323,2.51230638 4.64836592,2.51230638 L44.1261638,2.51230638 C45.3107865,2.51230638 46.2745346,3.48075207 46.2745346,4.67114893 L46.2745346,11.1601119 L42.8749163,11.1601119 C42.1846676,11.1601119 41.6249187,11.7224635 41.6249187,12.4162022 C41.6249187,13.109941 42.1846676,13.6722926 42.8749163,13.6722926 L46.2745346,13.6722926 L46.2745346,28.1458453 L35.2910561,28.1458453 C33.0249355,28.1458453 31.1814391,29.998453 31.1814391,32.2754937 L31.1814391,37.6651263 L4.64836592,37.6651263 L4.64836592,37.6651263 Z M61.4998799,52.8703516 C61.4998799,53.7623014 60.7777563,54.4878192 59.890133,54.4878192 L35.2910561,54.4878192 C34.4034328,54.4878192 33.6814342,53.7621758 33.6814342,52.8703516 L33.6814342,51.2903155 L41.1215447,43.6674798 C42.5530419,42.2007431 44.9266623,42.1556494 46.4122844,43.567495 L52.8570218,49.6915637 C54.5315185,51.282779 57.1177634,51.4747096 59.0063848,50.1485294 L61.4998799,48.397665 L61.4998799,52.8703516 Z" id="Shape" fill="#000000" fill-rule="nonzero"></path>
                <path d="M7.49993506,3 C5.57007404,3 4,4.57007404 4,6.49993506 C4,8.42979608 5.57007404,10 7.49993506,10 C9.42979608,10 11,8.42992596 11,6.49993506 C11,4.56994415 9.42992596,3 7.49993506,3 Z M7.49993506,7.40226003 C7.00246785,7.40226003 6.59773997,6.99753215 6.59773997,6.49993506 C6.59773997,6.00246785 7.00246785,5.59773997 7.49993506,5.59773997 C7.99740226,5.59773997 8.40213018,6.00246785 8.40213018,6.49993506 C8.40226003,6.99753215 7.99740226,7.40226003 7.49993506,7.40226003 Z" id="Shape" fill="#000000" fill-rule="nonzero"></path>
                <path d="M15.5,3 C13.5701032,3 12,4.57007404 12,6.49993506 C12,8.42979608 13.5701032,10 15.5,10 C17.4298968,10 19,8.42992596 19,6.49993506 C19,4.56994415 17.4298968,3 15.5,3 L15.5,3 Z M15.5,7.40226003 C15.0025236,7.40226003 14.5977882,6.99753215 14.5977882,6.49993506 C14.5977882,6.00246785 15.0025236,5.59773997 15.5,5.59773997 C15.9974764,5.59773997 16.4022118,6.00246785 16.4022118,6.49993506 C16.4022118,6.99753215 15.9974764,7.40226003 15.5,7.40226003 L15.5,7.40226003 Z" id="Shape" fill="#000000" fill-rule="nonzero"></path>
                <path d="M23.4999351,3 C21.570074,3 20,4.57007404 20,6.49993506 C20,8.42979608 21.570074,10 23.4999351,10 C25.4297961,10 27,8.42992596 27,6.49993506 C27,4.56994415 25.4297961,3 23.4999351,3 Z M23.4999351,7.40226003 C23.0024679,7.40226003 22.59774,6.99753215 22.59774,6.49993506 C22.59774,6.00246785 23.0024679,5.59773997 23.4999351,5.59773997 C23.9975321,5.59773997 24.40226,6.00246785 24.40226,6.49993506 C24.40226,6.99753215 23.9975321,7.40226003 23.4999351,7.40226003 Z" id="Shape" fill="#000000" fill-rule="nonzero"></path>
                <path d="M20.6917935,22.0103011 C21.1496115,21.5017983 21.0906078,20.7339372 20.5599551,20.2953504 C20.0291756,19.8565205 19.228121,19.9133046 18.7703031,20.4216858 L16.6731973,22.7508038 C15.7755797,23.7481113 15.7755797,25.2519761 16.6733242,26.2492837 L18.7703031,28.5784016 C19.2272328,29.0859317 20.0285411,29.1440532 20.5599551,28.704737 C21.0906078,28.2661503 21.1496115,27.4982891 20.6917935,26.9897863 L18.5949415,24.6607899 C18.5124633,24.5692302 18.5124633,24.4309788 18.5948147,24.3394191 L20.6917935,22.0103011 Z" id="Path" fill="#000000" fill-rule="nonzero"></path>
                <path d="M31.3266758,22.7507171 L29.2296969,20.4215886 C28.7720058,19.9132051 27.9705706,19.856664 27.4400449,20.2952527 C26.9093922,20.7338414 26.8503885,21.501706 27.3082065,22.0102111 L29.4050585,24.3392181 C29.4875367,24.4307782 29.4875367,24.5690303 29.4051853,24.6605904 L27.3082065,26.9897189 C26.8503885,27.498224 26.9093922,28.2660886 27.4400449,28.7046773 C27.9717126,29.1442387 28.7728941,29.0857521 29.2296969,28.5783414 L31.3268027,26.2492129 C32.2244203,25.2520224 32.2244203,23.7480292 31.3266758,22.7507171 L31.3266758,22.7507171 Z" id="Path" fill="#000000" fill-rule="nonzero"></path>
                <path d="M24.9569693,19.0200678 C24.2698277,18.8957802 23.6138968,19.3617302 23.4919601,20.0599489 L22.0197485,28.4914727 C21.8826487,29.276744 22.4766636,30 23.265398,30 C23.8664889,30 24.3994723,29.5624256 24.5081412,28.9402175 L25.9803528,20.5086937 C26.1022895,19.8103466 25.6439845,19.1439702 24.9569693,19.0200678 L24.9569693,19.0200678 Z" id="Path" fill="#000000" fill-rule="nonzero"></path>
                <path d="M37.5008995,14 C38.3287028,14 39,13.32845 39,12.5 C39,11.67155 38.3287028,11 37.5008995,11 L37.4971517,11 C36.6693484,11 36,11.67155 36,12.5 C36,13.32845 36.6730961,14 37.5008995,14 Z" id="Path" fill="#000000" fill-rule="nonzero"></path>
            </g>
        </g>
    </g>
</svg>