<?xml version="1.0" encoding="UTF-8"?>
<svg width="53px" height="58px" viewBox="0 0 53 58" version="1.1" xmlns="http://www.w3.org/2000/svg" xmlns:xlink="http://www.w3.org/1999/xlink">
    <!-- Generator: Sketch 52.1 (67048) - http://www.bohemiancoding.com/sketch -->
    <title>advertising</title>
    <desc>Created with Sketch.</desc>
    <g id="Blog" stroke="none" stroke-width="1" fill="none" fill-rule="evenodd">
        <g id="DM---Landing-Page" transform="translate(-924.000000, -2955.000000)">
            <g id="advertising" transform="translate(924.000000, 2955.000000)">
                <path d="M4.94358683,58 L48.0562997,58 C50.7822928,58 53,55.7867109 53,53.0661484 L53,4.93385156 C53,2.21328906 50.7822928,0 48.0564132,0 L48.0559591,0 L4.95788876,0 L4.94358683,0 C2.21770715,0 0,2.21328906 0,4.93385156 L0,53.0662617 C0,55.7867109 2.21770715,58 4.94358683,58 Z M48.0559591,2.265625 C49.5300795,2.265625 50.7293984,3.46255469 50.7293984,4.93373828 L50.7293984,7.63130469 L45.2455165,7.63130469 C44.6186152,7.63130469 44.1104427,8.13846484 44.1104427,8.76411719 C44.1104427,9.38976953 44.6186152,9.89692969 45.2455165,9.89692969 L50.7298524,9.89692969 L50.7298524,53.0662617 C50.7298524,54.5374453 49.5305335,55.7344883 48.0562997,55.7344883 L4.94358683,55.7344883 C3.46935301,55.7344883 2.27003405,54.5375586 2.27003405,53.0662617 L2.27003405,9.10305469 C3.04211124,9.60228516 3.96061294,9.89409766 4.94665153,9.89636328 C4.95039728,9.89636328 4.95414302,9.89692969 4.95788876,9.89692969 L35.2585698,9.89692969 C35.8854711,9.89692969 36.3936436,9.38976953 36.3936436,8.76411719 C36.3936436,8.13846484 35.8854711,7.63130469 35.2585698,7.63130469 L9.12270148,7.63130469 C9.59795687,6.89928125 9.87150965,6.04389453 9.91066969,5.17264844 C9.95652667,4.15039844 9.68036322,3.12486328 9.12270148,2.265625 L48.0559591,2.265625 Z M4.95800227,2.265625 C6.44029512,2.265625 7.646084,3.469125 7.646084,4.94846484 C7.646084,5.45687109 7.50363224,5.93276563 7.25641317,6.33842578 C6.78444949,7.11281641 5.9307605,7.63107813 4.95811578,7.63107813 C3.47593644,7.63107813 2.27003405,6.42757813 2.27003405,4.94835156 C2.27014756,3.469125 3.47593644,2.265625 4.95800227,2.265625 Z" id="Shape" fill="#000000" fill-rule="nonzero"></path>
                <rect id="Rectangle" fill="#FFCA13" x="8" y="16" width="36" height="13"></rect>
                <rect id="Rectangle-Copy-11" fill="#FFCA13" x="9" y="39" width="18" height="13"></rect>
                <path d="M7,15.1324651 L7,29.8675349 C7,30.4929954 7.51274198,31 8.14528027,31 L44.8547197,31 C45.487258,31 46,30.4929954 46,29.8675349 L46,15.1324651 C46,14.5070046 45.487258,14 44.8547197,14 L8.14528027,14 C7.51274198,14 7,14.5070046 7,15.1324651 Z M9.29056054,16.2649302 L43.7094395,16.2649302 L43.7094395,28.7350698 L9.29056054,28.7350698 L9.29056054,16.2649302 Z" id="Shape" fill="#000000" fill-rule="nonzero"></path>
                <path d="M19.5481047,18.7696958 C19.5447818,18.7601078 19.5412445,18.7506353 19.5376,18.7411629 C19.365665,18.2907586 18.9627326,18 18.5109209,18 C18.5104922,18 18.5100634,18 18.5096346,18 C18.057287,18.0005776 17.6543546,18.2924913 17.48317,18.7437043 C17.4802758,18.751444 17.4773816,18.7591837 17.4745947,18.7670389 L15.0634317,25.5899884 C14.8738102,26.1265691 15.1236733,26.7272622 15.6216845,26.9316134 C16.1194812,27.1359646 16.6769836,26.8666923 16.8666052,26.3299961 L17.2305199,25.3003851 L19.7728851,25.3003851 L20.132405,26.3271082 C20.2781852,26.7434347 20.6453157,27 21.0351708,27 C21.1483649,27 21.2634884,26.9782826 21.3756106,26.9327686 C21.8740505,26.7300347 22.1257359,26.1301502 21.937615,25.5929919 L19.5481047,18.7696958 Z M17.9652096,23.2210628 L18.5073836,21.686985 L19.0446268,23.2210628 L17.9652096,23.2210628 Z" id="Shape" fill="#000000" fill-rule="nonzero"></path>
                <path d="M27.0764933,18 L25.0873155,18 C24.7985737,18 24.5216714,18.1124187 24.3177399,18.3123137 C24.1138084,18.5122086 23.9995198,18.7833848 24.000003,19.0659092 L24.000003,19.0708741 L24.000003,19.0711105 L24.000003,25.8245091 C24.000003,26.4448808 24.4396397,27 25.105679,27 C25.1658437,26.9997636 26.5856321,26.9944441 27.1536925,26.9847508 C29.3824415,26.9466868 31,25.0605109 31,22.5000591 C31.0001208,19.808393 29.4233969,18 27.0764933,18 Z M27.1157574,24.8573061 C26.8974492,24.8609706 26.5394818,24.8641623 26.1852595,24.8665266 C26.1827224,24.0720299 26.1798229,23.0344914 26.1798229,22.4924936 C26.1798229,22.0374992 26.1781316,20.9558679 26.1766818,20.1279175 L27.0766141,20.1279175 C28.6994884,20.1279175 28.8256167,21.9436396 28.8256167,22.5000591 C28.8254958,23.658764 28.2968204,24.837092 27.1157574,24.8573061 Z" id="Shape" fill="#000000" fill-rule="nonzero"></path>
                <path d="M36.0272713,21.5788366 C35.2792093,21.2764991 34.5808142,20.9479368 34.337963,20.8318309 C34.2476978,20.7406791 34.2464324,20.6227247 34.2551848,20.5557183 C34.2668897,20.4666461 34.3282616,20.2484132 34.6458769,20.143629 C35.4500382,19.8781451 36.2113869,20.5291468 36.2377494,20.552137 C36.6390919,20.9157044 37.2334078,20.8572471 37.5689496,20.4197416 C37.906284,19.9801566 37.8544026,19.3243027 37.4531655,18.9548433 C37.3908446,18.8975413 35.9058984,17.5562582 34.0984861,18.152384 C33.166414,18.4600358 32.5065082,19.2676938 32.3764884,20.2601971 C32.2539556,21.1956293 32.6242958,22.0955945 33.3429372,22.6088865 C33.3848009,22.6388083 33.4288789,22.6650332 33.4745388,22.6874457 C33.5113408,22.7053526 34.3859427,23.1319985 35.3705289,23.5298778 C35.7553158,23.6853788 36.1482223,23.9634553 36.0970791,24.2775766 C36.0548991,24.536822 35.7247353,24.9204914 35.1504549,24.9204914 C34.5667894,24.9204914 34.0067447,24.6647118 33.6523274,24.236102 C33.30023,23.810727 32.7002198,23.778379 32.3117421,24.1638968 C31.92337,24.5495302 31.893844,25.207117 32.2458359,25.6326076 C32.9646882,26.5016111 34.0234058,27 35.1504549,27 C36.5590554,27 37.7430474,26.0087676 37.9656523,24.6429925 C38.1340559,23.608437 37.7135215,22.2602222 36.0272713,21.5788366 Z" id="Path" fill="#000000" fill-rule="nonzero"></path>
                <path d="M20.6177918,35.9256714 C21.0121572,36.0872798 21.4805287,35.9801417 21.7591281,35.6550225 C22.0317189,35.3370125 22.0781856,34.8729141 21.8716895,34.508344 C21.6615883,34.1373657 21.2244616,33.9342038 20.8050603,34.0192134 C20.3960739,34.1021203 20.0714084,34.4403564 20.010421,34.8540898 C19.9442261,35.3034692 20.1988912,35.7511464 20.6177918,35.9256714 Z" id="Path" fill="#000000" fill-rule="nonzero"></path>
                <path d="M25.1646137,35.5576866 C25.4686708,36.0133372 26.1012944,36.1368116 26.5568276,35.8347511 C27.0121598,35.5327909 27.1374189,34.8974499 26.8350694,34.4434054 C26.531615,33.9877547 25.8970829,33.862373 25.4418511,34.165337 C24.9833045,34.4705095 24.865579,35.1007309 25.1646137,35.5576866 Z" id="Path" fill="#000000" fill-rule="nonzero"></path>
                <path d="M30.1653698,35.5575514 C30.4754966,36.0095029 31.0978585,36.1391767 31.5578782,35.8345636 C32.0141833,35.5324597 32.1361658,34.8971381 31.8349744,34.4434803 C31.5323774,33.9878152 30.897265,33.8622564 30.4424659,34.1654644 C29.9875665,34.4687728 29.862572,35.1033918 30.1653698,35.5575514 Z" id="Path" fill="#000000" fill-rule="nonzero"></path>
                <path d="M26.8468591,39 L9.15325622,39 C8.51631281,39 8,39.5247494 8,40.1721004 L8,50.8278996 C8,51.4752506 8.51631281,52 9.15325622,52 L26.8467438,52 C27.4836872,52 28,51.4752506 28,50.8278996 L28,40.1721004 C28.0001153,39.5247494 27.4838025,39 26.8468591,39 Z M25.6936029,49.6557992 L10.3065124,49.6557992 L10.3065124,41.3442008 L25.6936029,41.3442008 L25.6936029,49.6557992 Z" id="Shape" fill="#000000" fill-rule="nonzero"></path>
                <path d="M44.8315624,39 L31.1684376,39 C30.5231095,39 30,39.4477 30,40 C30,40.5523 30.5231095,41 31.1684376,41 L44.8315624,41 C45.4768905,41 46,40.5523 46,40 C46,39.4477 45.4768905,39 44.8315624,39 Z" id="Path" fill="#000000" fill-rule="nonzero"></path>
                <path d="M44.8315624,45 L31.1684376,45 C30.5231095,45 30,45.4477 30,46 C30,46.5523 30.5231095,47 31.1684376,47 L44.8315624,47 C45.4768905,47 46,46.5523 46,46 C46,45.4477 45.4768905,45 44.8315624,45 Z" id="Path" fill="#000000" fill-rule="nonzero"></path>
                <path d="M44.8454474,50 L36.1545526,50 C35.5168932,50 35,50.4477 35,51 C35,51.5523 35.5168932,52 36.1545526,52 L44.8454474,52 C45.4831068,52 46,51.5523 46,51 C46,50.4477 45.4831068,50 44.8454474,50 Z" id="Path" fill="#000000" fill-rule="nonzero"></path>
                <path d="M39.0747771,9.38078575 C39.2383,9.77406302 39.6471073,10.0302998 40.0726272,9.9971173 C40.5083547,9.96313285 40.8779325,9.64434067 40.9748053,9.21727945 C41.1732545,8.34240544 40.1566904,7.66341819 39.4238395,8.17809714 C39.0458554,8.44345654 38.8967433,8.95282229 39.0747771,9.38078575 Z" id="Path" fill="#000000" fill-rule="nonzero"></path>
                <path d="M31.9254378,50.6183455 C31.7636777,50.2232392 31.3523705,49.9709243 30.9272496,50.0026891 C30.5095361,50.0338527 30.1490792,50.3306584 30.0369683,50.734282 C29.7991328,51.5899282 30.7576818,52.3131039 31.5152317,51.8609813 C31.9350473,51.6103699 32.1133238,51.0697667 31.9254378,50.6183455 Z" id="Path" fill="#000000" fill-rule="nonzero"></path>
            </g>
        </g>
    </g>
</svg>