<?xml version="1.0" encoding="UTF-8"?>
<svg width="56px" height="59px" viewBox="0 0 56 59" version="1.1" xmlns="http://www.w3.org/2000/svg" xmlns:xlink="http://www.w3.org/1999/xlink">
    <!-- Generator: Sketch 52.1 (67048) - http://www.bohemiancoding.com/sketch -->
    <title>pencil (1)</title>
    <desc>Created with Sketch.</desc>
    <g id="Blog" stroke="none" stroke-width="1" fill="none" fill-rule="evenodd">
        <g id="DM---Landing-Page" transform="translate(-743.000000, -2954.000000)">
            <g id="pencil-(1)" transform="translate(743.000000, 2954.000000)">
                <rect id="Rectangle" fill="#FFCA13" x="34" y="14" width="4" height="14"></rect>
                <rect id="Rectangle-Copy-12" fill="#FFCA13" x="34" y="36" width="17" height="8"></rect>
                <rect id="Rectangle-Copy-15" fill="#FFCA13" x="36" y="29" width="14" height="7"></rect>
                <rect id="Rectangle-Copy-13" fill="#FFCA13" x="33" y="44" width="18" height="8"></rect>
                <rect id="Rectangle-Copy-14" fill="#FFCA13" x="32" y="51" width="18" height="7"></rect>
                <path d="M54.8066114,7 L51.1933886,7 C50.5342801,7 50,7.6717 50,8.5 C50,9.3283 50.5342801,10 51.1933886,10 L54.8066114,10 C55.4657199,10 56,9.3283 56,8.5 C56,7.6717 55.4657199,7 54.8066114,7 Z" id="XMLID_635_" fill="#000000" fill-rule="nonzero"></path>
                <path d="M52.4420988,13.8258695 L49.6733127,12.1561857 C49.139923,11.8346446 48.4577373,12.0254723 48.1496606,12.5825772 C47.8415839,13.1396821 48.0243999,13.8521986 48.5579012,14.1739727 L51.3266873,15.8436565 C51.5023646,15.9495553 51.6941038,16 51.8833891,16 C52.2688754,16 52.6437652,15.7909983 52.8503394,15.417265 C53.1584161,14.8601601 52.9756001,14.1476436 52.4420988,13.8258695 Z" id="XMLID_636_" fill="#000000" fill-rule="nonzero"></path>
                <path d="M49.1166109,4 C49.3057847,4 49.4976354,3.94955548 49.6733127,3.84365695 L52.4420988,2.17409488 C52.9756001,1.85243828 53.1584161,1.13992404 52.8503394,0.582704348 C52.5423743,0.0254846607 51.860077,-0.165458904 51.3266873,0.156314205 L48.5579012,1.82587627 C48.0243999,2.14753288 47.8415839,2.86004712 48.1496606,3.4172668 C48.3562348,3.79099893 48.7311246,4 49.1166109,4 Z" id="XMLID_637_" fill="#000000" fill-rule="nonzero"></path>
                <path d="M23.1933886,10 L26.8066114,10 C27.4657199,10 28,9.3283 28,8.5 C28,7.6717 27.4657199,7 26.8066114,7 L23.1933886,7 C22.5342801,7 22,7.6717 22,8.5 C22,9.3283 22.5342801,10 23.1933886,10 Z" id="XMLID_638_" fill="#000000" fill-rule="nonzero"></path>
                <path d="M27.3266873,12.1562599 L24.5579012,13.8259114 C24.0243999,14.1476794 23.8415839,14.8601821 24.1496606,15.4172762 C24.3563464,15.7910023 24.7311246,16 25.1166109,16 C25.3057847,16 25.4976354,15.9495563 25.6733127,15.8436595 L28.4420988,14.1740079 C28.9756001,13.85224 29.1584161,13.1397373 28.8503394,12.5826431 C28.5422627,12.0254325 27.8601886,11.8346085 27.3266873,12.1562599 Z" id="XMLID_639_" fill="#000000" fill-rule="nonzero"></path>
                <path d="M24.5579012,2.17404762 L27.3266873,3.8436529 C27.5023646,3.94955418 27.6941038,4 27.8833891,4 C28.2688754,4 28.6437652,3.79099352 28.8503394,3.41725172 C29.1584161,2.86001761 28.9756001,2.14748492 28.4420988,1.82581999 L25.6733127,0.156214705 C25.1398114,-0.165333727 24.4577373,0.0253817737 24.1496606,0.582615886 C23.8415839,1.13985 24.0243999,1.85238268 24.5579012,2.17404762 Z" id="XMLID_640_" fill="#000000" fill-rule="nonzero"></path>
                <path d="M53,39.8443594 C53,37.9833242 51.9517903,36.369582 50.4299492,35.5899062 C51.0561801,34.7792324 51.4315593,33.7556055 51.4315593,32.6431328 C51.4315593,30.0222422 49.3538919,27.8900605 46.8000106,27.8900605 L44.4566695,27.8900605 L44.4566695,14.1816641 C44.4566695,14.0387734 44.4307309,13.8969199 44.3802013,13.763709 L39.4395233,0.734388672 C39.2715403,0.291658203 38.8560742,0 38.3931102,0 C37.9301462,0 37.5145678,0.291658203 37.346697,0.734388672 L32.4060191,13.763709 C32.3554894,13.8969199 32.3295508,14.0387734 32.3295508,14.1816641 L32.3295508,20.688834 L30.933697,20.688834 C28.3585932,20.688834 25.8761271,21.4803789 23.7543305,22.9779648 C21.6326462,24.4755508 20.0243432,26.5715488 19.1032436,29.039293 L18.432322,30.8367187 L16.2751547,30.8367187 L16.2751547,30.3226582 C16.2751547,28.5197012 14.845839,27.052998 13.0890911,27.052998 L3.18606356,27.052998 C1.42920339,27.052998 0,28.5198164 0,30.3226582 L0,55.7303398 C0,57.5332969 1.42931568,59 3.18606356,59 L13.0893157,59 C14.8460636,59 16.2753792,57.5332969 16.2753792,55.7303398 L16.2753792,55.5702793 L18.8205021,55.5702793 C21.6734068,57.7848535 25.1915064,59 28.7729364,59 L46.8000106,59 C49.3538919,59 51.4315593,56.8678184 51.4315593,54.247043 C51.4315593,53.1345703 51.0561801,52.1109434 50.4299492,51.3002695 C51.9517903,50.5204785 53,48.9067363 53,47.0457012 C53,45.6074609 52.3734322,44.3174121 51.3867564,43.4450879 C52.3734322,42.5727637 53,41.2825996 53,39.8443594 Z M34.5753136,27.8900605 L34.5753136,21.8411777 L34.5753136,15.3340078 L37.2702288,15.3340078 L37.2702288,27.8900605 L34.5753136,27.8900605 Z M39.5159915,15.3340078 L42.2109068,15.3340078 L42.2109068,27.8900605 L39.5159915,27.8900605 L39.5159915,15.3340078 Z M38.3931102,4.32981641 L41.691911,13.0293203 L35.0943093,13.0293203 L38.3931102,4.32981641 Z M32.887286,42.2926289 C32.2671186,42.2926289 31.7644047,42.8086484 31.7644047,43.4449727 C31.7644047,44.0812969 32.2671186,44.5973164 32.887286,44.5973164 L48.3685636,44.5973164 C49.6840191,44.5973164 50.7542373,45.6956152 50.7542373,47.0455859 C50.7542373,48.3956719 49.6840191,49.4939707 48.3685636,49.4939707 L32.887286,49.4939707 C32.2671186,49.4939707 31.7644047,50.0099902 31.7644047,50.6463145 C31.7644047,51.2826387 32.2671186,51.7986582 32.887286,51.7986582 L46.8000106,51.7986582 C48.1154661,51.7986582 49.1857966,52.896957 49.1857966,54.2469277 C49.1857966,55.5968984 48.1155784,56.6951973 46.8000106,56.6951973 L28.7729364,56.6951973 C25.5645275,56.6951973 22.4147331,55.5661309 19.9039703,53.5161113 C19.7052203,53.3538613 19.4588602,53.2654766 19.2048644,53.2654766 L16.2753792,53.2654766 L16.2753792,48.211873 C16.2753792,47.5755488 15.7726653,47.0595293 15.1524979,47.0595293 C14.5323305,47.0595293 14.0296165,47.5755488 14.0296165,48.211873 L14.0296165,55.7302246 C14.0296165,56.2622617 13.6078623,56.6951973 13.0893157,56.6951973 L3.18606356,56.6951973 C2.66751695,56.6951973 2.24576271,56.2622617 2.24576271,55.7302246 L2.24576271,30.322543 C2.24576271,29.7905059 2.66751695,29.3575703 3.18606356,29.3575703 L13.0893157,29.3575703 C13.60775,29.3575703 14.0296165,29.7905059 14.0296165,30.322543 L14.0296165,37.8407793 C14.0296165,38.4771035 14.5323305,38.993123 15.1524979,38.993123 C15.7726653,38.993123 16.2753792,38.4771035 16.2753792,37.8407793 L16.2753792,33.141291 L19.2048644,33.141291 C19.6700742,33.141291 20.087,32.8468672 20.253411,32.4011406 L21.2005614,29.8635645 C22.7344174,25.7543066 26.6458623,22.9934062 30.9338093,22.9934062 L32.3296631,22.9934062 L32.3296631,27.8899453 L29.2853072,27.8899453 C28.6651398,27.8899453 28.1624258,28.4059648 28.1624258,29.0422891 C28.1624258,29.6786133 28.6651398,30.1946328 29.2853072,30.1946328 L46.8000106,30.1946328 C48.1154661,30.1946328 49.1857966,31.2929316 49.1857966,32.6430176 C49.1857966,33.9929883 48.1155784,35.0912871 46.8000106,35.0912871 L32.887286,35.0912871 C32.2671186,35.0912871 31.7644047,35.6073066 31.7644047,36.2436309 C31.7644047,36.8799551 32.2671186,37.3959746 32.887286,37.3959746 L48.3685636,37.3959746 C49.6840191,37.3959746 50.7542373,38.4942734 50.7542373,39.8442441 C50.7542373,41.1942148 49.6840191,42.2925137 48.3685636,42.2925137 L32.887286,42.2925137 L32.887286,42.2926289 Z" id="XMLID_1123_" fill="#000000" fill-rule="nonzero"></path>
                <path d="M15.5,42 C15.1055,42 14.7185,42.1605 14.4395,42.4395 C14.1605,42.7185 14,43.1055 14,43.5 C14,43.8945 14.1605,44.2815 14.4395,44.5605 C14.7185,44.83935 15.1055,45 15.5,45 C15.896,45 16.2815,44.8395 16.5605,44.5605 C16.8395,44.2815 17,43.8945 17,43.5 C17,43.1055 16.8395,42.7185 16.5605,42.4395 C16.2815,42.1605 15.896,42 15.5,42 Z" id="XMLID_1144_" fill="#000000" fill-rule="nonzero"></path>
            </g>
        </g>
    </g>
</svg>