<?xml version="1.0" encoding="UTF-8"?>
<svg width="53px" height="59px" viewBox="0 0 53 59" version="1.1" xmlns="http://www.w3.org/2000/svg" xmlns:xlink="http://www.w3.org/1999/xlink">
    <!-- Generator: sketchtool 58 (101010) - https://sketch.com -->
    <title>F67225BD-DD06-4441-9E64-68A08B8EF6CD@1.00x</title>
    <desc>Created with sketchtool.</desc>
    <g id="Blog" stroke="none" stroke-width="1" fill="none" fill-rule="evenodd">
        <g id="DM---Landing-Page" transform="translate(-563.000000, -2954.000000)">
            <g id="website-design" transform="translate(563.000000, 2954.000000)">
                <rect id="Rectangle" fill="#FFCA13" x="2" y="36" width="49" height="10"></rect>
                <rect id="Rectangle-Copy-16" fill="#FFCA13" transform="translate(40.104081, 9.205908) rotate(-53.000000) translate(-40.104081, -9.205908) " x="31.6040806" y="5.20590849" width="17" height="8"></rect>
                <path d="M48.3771146,7.67259978 L47.6819309,7.67259978 C49.0070711,5.50012299 48.5177534,2.58347523 46.3910064,0.994535405 C44.0994751,-0.717357411 40.8430404,-0.166315984 39.2438319,2.24019785 L35.6339121,7.67271501 L4.62277098,7.67271501 C2.07376428,7.67271501 0,9.76095691 0,12.327759 L0,42.0892968 C0,44.656099 2.07376428,46.7443408 4.62277098,46.7443408 L22.5789926,46.7443408 L21.2222688,52.4825696 L18.2940294,52.4825696 C16.3856215,52.4825696 14.8329875,54.0459278 14.8329875,55.9676589 L14.8329875,56.6953516 L11.2231821,56.6953516 C10.5911657,56.6953516 10.0788469,57.2113624 10.0788469,57.8476758 C10.0788469,58.4839892 10.5911657,59 11.2231821,59 L41.7768179,59 C42.4088343,59 42.9211531,58.4839892 42.9211531,57.8476758 C42.9211531,57.2113624 42.4088343,56.6953516 41.7768179,56.6953516 L38.1670125,56.6953516 L38.1670125,55.9676589 C38.1670125,54.0459278 36.6143785,52.4825696 34.7059706,52.4825696 L31.7777312,52.4825696 L30.4210074,46.7443408 L48.377229,46.7443408 C50.9262357,46.7443408 53,44.656099 53,42.0892968 L53,35.5406384 L53,12.3276438 C53,9.76084168 50.9262357,7.67259978 48.3771146,7.67259978 Z M31.9808507,27.9303438 C30.1916826,29.1915626 26.8398103,27.4772499 23.6388759,29.197209 C22.8578671,25.1116436 23.3502745,21.2692186 27.4155254,20.421108 C27.9408897,20.3108306 28.5065346,20.2609349 28.9880708,20.2706144 C30.3640195,21.2986029 31.75576,22.338345 33.1278179,23.3635678 C33.7284795,25.1229364 33.5030454,26.8574148 31.9808507,27.9303438 Z M33.1341118,15.5788113 L36.3733815,17.9989225 L33.8822781,21.0573062 C32.8567249,20.2911258 31.9751291,19.6324573 30.9495758,18.8661617 C31.1625366,18.5457004 32.9394603,15.8716169 33.1341118,15.5788113 L33.1341118,15.5788113 Z M41.1460604,3.52192805 C42.0127798,2.21738183 43.7804345,1.91385964 45.0273021,2.84551375 C46.2746275,3.77728309 46.4980017,5.56868628 45.5096394,6.78219888 C43.7559457,8.93508616 39.5866748,14.0538254 37.8263439,16.2150095 L34.4082146,13.6612286 L41.1460604,3.52192805 Z M35.8782276,55.9676589 L35.8782276,56.6953516 L17.1216579,56.6953516 L17.1216579,55.9676589 C17.1216579,55.3168262 17.6475944,54.787218 18.2940294,54.787218 L34.7058562,54.787218 C35.3522912,54.787218 35.8782276,55.3168262 35.8782276,55.9676589 Z M29.424978,52.4825696 L23.5749075,52.4825696 L24.9316314,46.7443408 L28.0682542,46.7443408 L29.424978,52.4825696 Z M50.7113296,42.0892968 C50.7113296,43.3853158 49.6642628,44.4396925 48.377229,44.4396925 C46.5607113,44.4396925 6.6652949,44.4396925 4.62288541,44.4396925 C3.33585159,44.4396925 2.288556,43.3853158 2.288556,42.0892968 L2.288556,36.6929626 L5.55883718,36.6929626 C6.19085352,36.6929626 6.7031724,36.1769519 6.7031724,35.5406384 C6.7031724,34.904325 6.19085352,34.3883143 5.55883718,34.3883143 L2.288556,34.3883143 L2.288556,12.3276438 C2.288556,11.0316248 3.33562272,9.97724816 4.62265654,9.97724816 L34.1024482,9.97724816 C33.0061751,11.6270307 29.8078726,16.4400584 28.7947926,17.964468 C26.5522389,17.9848642 24.3133471,18.7715559 22.8476825,20.494511 C20.8532207,22.8389146 20.5028252,26.5226646 21.806223,31.4433193 C22.0290251,32.2847465 23.0716289,32.5861945 23.7025009,31.9793805 C26.6614085,29.1323332 30.3466256,32.2378469 33.6467739,29.5480917 C35.6612617,27.9060298 36.1379917,25.2955545 35.378382,22.854471 C36.405194,21.5938283 44.8379146,11.2408869 45.8671297,9.97724816 L48.3770002,9.97724816 C49.664034,9.97724816 50.7113296,11.0316248 50.7113296,12.3276438 L50.7113296,34.388199 L14.7132901,34.388199 C14.0812737,34.388199 13.5689548,34.9042098 13.5689548,35.5405232 C13.5689548,36.1768366 14.0812737,36.6928474 14.7132901,36.6928474 L50.7113296,36.6928474 L50.7113296,42.0892968 Z" id="Shape" fill="#000000" fill-rule="nonzero"></path>
                <path d="M9.80423466,34.0195665 C9.32269416,34.1179435 9,34.5339463 9,35.0004372 C9,35.6257911 9.57206692,36.1046791 10.1953488,35.9802082 C10.7492104,35.8678345 11.0866088,35.3343592 10.9805779,34.804483 C10.8692454,34.2576109 10.3384905,33.9120916 9.80423466,34.0195665 L9.80423466,34.0195665 Z" id="Path" fill="#000000" fill-rule="nonzero"></path>
            </g>
        </g>
    </g>
</svg>