<svg width="41" height="41" viewBox="0 0 41 41" xmlns="http://www.w3.org/2000/svg" xmlns:xlink="http://www.w3.org/1999/xlink"><title>76FD0D74-8BD2-472D-A483-7569880E2189@2.00x</title><g id="Homepage" stroke="none" stroke-width="1" fill="none" fill-rule="evenodd"><g id="Footer-English" transform="translate(-213.000000, -396.000000)"><g id="Group" transform="translate(205.000000, 390.000000)"><g id="Circle" transform="translate(1.222222, 0.000000)"><circle id="Oval" stroke="#fff" transform="translate(26.888889, 26.888889) rotate(-45.000000) translate(-26.888889, -26.888889)" cx="26.8888889" cy="26.8888889" r="19.5555556"/><path d="M36.8778896 23.8255442C36.8778896 23.9933816 36.8871178 24.1612191 36.8871178 24.3290566 36.8893905 28.826297 34.3338709 32.9681141 30.2183688 35.1373239 26.1028667 37.3065337 21.0800575 37.1591223 17.1111111 34.7526469v0C21.0054064 35.3091606 23.7461782 32.9417689 23.7461782 32.9417689 20.2763796 32.6855959 19.5934937 29.9206944 19.5934937 29.9206944 20.8208427 30.1150325 21.5867823 29.8411925 21.5867823 29.8411925 17.6832588 28.9578374 18.0154735 25.5392531 18.0154735 25.5392531 18.9198359 26.0604326 19.9626212 26.0957668 19.9626212 26.0957668 16.5205071 23.1895285 18.6799031 20.3716257 18.6799031 20.3716257 22.2973527 24.5587289 27.612789 24.8502361 27.9542319 24.8590696 27.8799442 24.5370924 27.842809 24.2082812 27.8434937 23.8785455 27.8458945 22.1045576 28.9788734 20.5115584 30.7022185 19.8591004 32.4255636 19.2066424 34.3903557 19.6268264 35.6597688 20.9193058L36.3241984 20.7249677C37.0787969 20.4881941 37.8130972 20.195812 38.5205071 19.8504462 38.2990306 21.113644 36.6748695 22.1825037 36.5549031 22.2531721 36.5498065 22.2531721 36.5456749 22.257127 36.5456749 22.2620056H36.5549031C37.8191648 22.1383359 39.1111111 21.6259899 39.1111111 21.6259899 38.7235272 22.4033424 37.1270507 23.631206 36.8778896 23.8255442z" id="Path" fill="#fff"/></g></g></g></g></svg>