<svg width="41" height="41" viewBox="0 0 41 41" xmlns="http://www.w3.org/2000/svg" xmlns:xlink="http://www.w3.org/1999/xlink"><title>5D6E2CF7-F9B5-4DE6-A4C5-3AEC89D86894@2.00x</title><g id="Homepage" stroke="none" stroke-width="1" fill="none" fill-rule="evenodd"><g id="Footer-English" transform="translate(-323.000000, -398.000000)"><g id="Linkedin-Circle" transform="translate(315.000000, 390.000000)"><circle id="Oval" stroke="#fff" cx="28.1111111" cy="28.1111111" r="19.5555556"/><g id="Group" transform="translate(17.111111, 15.888889)" fill="#fff"><path d="M2.93567837.38693464C4.34146731.395776255 5.47638189 1.53790182 5.47638189 2.94371857 5.47638189 4.41507536 4.25427134 5.5246231 2.91959796 5.49246229 1.58492459 5.46030149.362814037 4.38291455.362814037 2.93567837.376047665 1.5241533 1.52409126.386872606 2.93567837.38693464z" id="Path"/><path d="M4.41507536 21.6050252H1.42412057C1.03779878 21.6050252.724623083 21.2918495.724623083 20.9055277V8.14572863C.724623083 7.75808484 1.03650181 7.44259599 1.42412057 7.43819094H4.41507536C4.80402316 7.44253713 5.11826686 7.75678083 5.12261305 8.14572863V20.9055277C5.118208 21.2931464 4.80271915 21.6050252 4.41507536 21.6050252v0z" id="Path"/><path d="M21.637186 11.9246231C21.637186 9.24701343 19.4665544 7.0763819 16.7889447 7.0763819H16.0251256C14.6142883 7.07656136 13.2928779 7.76729862 12.4874372 8.92562813 12.4070352 9.04623115 12.3266332 9.17487437 12.2542714 9.30351758H12.2140704V7.73567838C12.2141292 7.57446996 12.0857727 7.44254792 11.9246231 7.43819094H8.19396984C8.03145356 7.44241427 7.90070572 7.5731621 7.8964824 7.73567838V21.3155779C7.90083938 21.4767275 8.03276142 21.605084 8.19396984 21.6050252H12.0050251C12.0817913 21.6050252 12.1554133 21.5745299 12.2096952 21.520248 12.2639771 21.4659661 12.2944724 21.3923441 12.2944724 21.3155779V13.4683417C12.2944724 12.1175879 13.3798995 10.9839196 14.7306533 10.9758794 15.3954671 10.9636413 16.0367516 11.2218962 16.5075377 11.6914573 16.9683002 12.1555748 17.2281885 12.7821944 17.2311558 13.4361809V21.3155779C17.2310969 21.4767863 17.3594535 21.6087084 17.520603 21.6130654H21.3396985C21.5022148 21.608842 21.6329626 21.4780942 21.637186 21.3155779V11.9246231v0z" id="Path"/></g></g></g></g></svg>