<svg width="41" height="41" viewBox="0 0 41 41" xmlns="http://www.w3.org/2000/svg" xmlns:xlink="http://www.w3.org/1999/xlink"><title>8B7C22D2-D67C-4853-AFF5-35698F80011E@2.00x</title><g id="Homepage" stroke="none" stroke-width="1" fill="none" fill-rule="evenodd"><g id="Footer-English" transform="translate(-267.000000, -397.000000)"><g id="Circle" transform="translate(260.000000, 390.000000)"><circle id="Oval" stroke="#fff" transform="translate(27.500000, 27.500000) rotate(-45.000000) translate(-27.500000, -27.500000)" cx="27.5" cy="27.5" r="19.1304348"/><path d="M32.8270671 16.7391305H22.172933C19.1719267 16.7391305 16.7391305 19.1719267 16.7391305 22.172933V32.8270671C16.7391305 35.8280734 19.1719267 38.2608696 22.172933 38.2608696H32.8270671C35.8280734 38.2608696 38.2608696 35.8280734 38.2608696 32.8270671V22.172933C38.2608696 19.1719267 35.8280734 16.7391305 32.8270671 16.7391305zM35.9223939 32.8270671C35.9223939 34.5365689 34.5365689 35.9223939 32.8270671 35.9223939H22.172933C20.4634312 35.9223939 19.0776062 34.5365689 19.0776062 32.8270671V22.172933C19.0776062 20.4634312 20.4634312 19.0776062 22.172933 19.0776062H32.8270671C34.5365689 19.0776062 35.9223939 20.4634312 35.9223939 22.172933V32.8270671zM33.2248991 23.104442C32.5014422 23.104442 31.9149646 22.5179643 31.9149646 21.7945074 31.9149646 21.0710506 32.5014422 20.4845729 33.2248991 20.4845729 33.948356 20.4845729 34.5348336 21.0710506 34.5348336 21.7945074 34.5295495 22.5157642 33.9461559 23.0991578 33.2248991 23.104442zM27.5000001 21.9594622C24.4400455 21.9594622 21.9594622 24.4400455 21.9594622 27.5000001 21.9594622 30.5599546 24.4400455 33.040538 27.5000001 33.040538 30.5599546 33.040538 33.040538 30.5599546 33.040538 27.5000001 33.040538 26.030558 32.4568044 24.6213006 31.417752 23.5822481 30.3786996 22.5431957 28.9694421 21.9594622 27.5000001 21.9594622v0zm0 8.7426C25.73155 30.7020622 24.2979379 29.2684502 24.2979379 27.5000001 24.2979379 25.73155 25.73155 24.2979379 27.5000001 24.2979379 29.2684502 24.2979379 30.7020622 25.73155 30.7020622 27.5000001 30.7020622 29.2684502 29.2684502 30.7020622 27.5000001 30.7020622z" id="Shape" fill="#fff" fill-rule="nonzero"/></g></g></g></svg>