<svg width="41" height="41" viewBox="0 0 41 41" xmlns="http://www.w3.org/2000/svg" xmlns:xlink="http://www.w3.org/1999/xlink"><title>EF937AB1-8064-4EDB-9494-615348A9E181@2.00x</title><g id="Homepage" stroke="none" stroke-width="1" fill="none" fill-rule="evenodd"><g id="Icon---Berwarna" transform="translate(-97.000000, -42.000000)"><g id="Group" transform="translate(90.000000, 35.000000)"><g id="Circle" transform="translate(-1.222222, -1.222222)"><circle id="Oval" fill="#50abf1" transform="translate(28.722222, 28.722222) rotate(-45.000000) translate(-28.722222, -28.722222)" cx="28.7222222" cy="28.7222222" r="20"/><path d="M38.9382457 25.589256C38.9382457 25.760908 38.9476836 25.9325599 38.9476836 26.1042119 38.950008 30.7036623 36.3364084 34.9396116 32.1273721 37.1581216 27.9183359 39.3766317 22.781372 39.22587 18.7222222 36.764702v0C22.7050242 37.3338637 25.5080863 34.9126677 25.5080863 34.9126677 21.9594286 34.6506726 21.2610226 31.8229324 21.2610226 31.8229324 22.5162658 32.0216873 23.2996132 31.7416236 23.2996132 31.7416236 19.3073732 30.8381922 19.6471383 27.3419129 19.6471383 27.3419129 20.5720544 27.8749374 21.6385393 27.9110746 21.6385393 27.9110746 18.1181954 24.9387854 20.3266685 22.0568394 20.3266685 22.0568394 24.026333 26.3391041 29.4625746 26.6372364 29.8117776 26.6462707 29.7358016 26.3169758 29.6978224 25.9806917 29.6985226 25.6434619 29.7009779 23.8291561 30.8597063 22.1999524 32.6222184 21.5326658 34.3847304 20.8653792 36.3941769 21.2951128 37.6924403 22.6169668L38.3719705 22.4182119C39.1437191 22.1760571 39.894708 21.8770299 40.6181954 21.5238149 40.3916853 22.8157217 38.7306115 23.9088737 38.6079185 23.9811482 38.6027061 23.9811482 38.5984806 23.985193 38.5984806 23.9901825H38.6079185C39.9009135 23.8637021 41.2222222 23.3397119 41.2222222 23.3397119 40.8258296 24.1347315 39.1930695 25.3905011 38.9382457 25.589256z" id="Path" fill="#fff"/></g></g></g></g></svg>