<svg width="24" height="24" viewBox="0 0 24 24" xmlns="http://www.w3.org/2000/svg" xmlns:xlink="http://www.w3.org/1999/xlink"><title>Whatsapp-Circle</title><desc>Created with Sketch.</desc><g id="Homepage" stroke="none" stroke-width="1" fill="none" fill-rule="evenodd"><g id="Footer-English" transform="translate(-150.000000, -334.000000)" fill="#fff"><g id="Whatsapp-Circle" transform="translate(150.000000, 334.000000)"><g id="Group" transform="translate(0.094987, -0.000000)"><g id="Whatsapp-Circle"><g id="Layer_2"><g id="Circle"><path d="M2.01372032 17.9778365C.852027797 16.1166167.237576444 13.966037.240633246 11.7720317.240633246 5.28126651 5.52189975.0 12.0063325.0 18.4907652.0 23.7783642 5.28126651 23.7783642 11.7720317 23.7783642 18.2627969 18.5034301 23.5377309 12.0126649 23.5377309 9.97405319 23.5393354 7.97030957 23.0089327 6.19947231 21.9989447L-111022302e-20 23.9810027 2.01372032 17.9778365zM17.9651716 15.9831135C18.2121373 15.2865436 18.2184697 14.6976254 18.1424803 14.5709763 18.0664908 14.4443272 17.8765172 14.3746702 17.5725594 14.2226913 17.2686016 14.0707124 15.7994723 13.3551452 15.5335093 13.2538259 15.2675462 13.1525066 15.0079156 13.1905014 14.8052771 13.4754618 14.5139842 13.8807388 14.1910291 14.343008 14.0073879 14.5329816 13.8237467 14.7229552 13.6147758 14.7862797 13.2854882 14.6469657 12.9562006 14.5076518 12.0316623 14.1846966 10.8918206 13.171504 10.0116095 12.3862797 9.40369396 11.4174143 9.23271771 11.1134565 9.06174145 10.8094987 9.20105544 10.6575198 9.35303433 10.4738787 9.50501322 10.2902375 9.65699211 10.1635884 9.80263855 9.98627971 9.94828499 9.80897101 10.0306069 9.72031665 10.1319262 9.51767813 10.2332454 9.31503961 10.157256 9.10606863 10.087599 8.96042219 10.017942 8.81477575 9.41635887 7.34564646 9.16939317 6.7503958 8.9730871 6.28179421 8.82110821 6.26279685 8.52348288 6.25013195L8.18153037 6.23746704C7.78891823 6.23746704 7.44063327 6.30079158 7.13667548 6.60474936 6.8327177 6.90870715 6.0918206 7.61794198 6.0918206 9.08707127 6.0918206 10.5562006 7.14934039 11.9746702 7.30131928 12.1709763 7.45329818 12.3672824 9.3846966 15.4131927 12.3862797 16.6606861 14.7292876 17.6295515 15.4258576 17.5408972 15.9641161 17.426913 16.743008 17.2559367 17.7182059 16.6796834 17.9651716 15.9831135z" id="Combined-Shape"/></g></g></g></g></g></g></g></svg>